<svg width="85" height="85" viewBox="0 0 85 85" fill="none" xmlns="http://www.w3.org/2000/svg">
<path d="M27.9866 71.025C28.3435 71.1572 28.7399 70.9731 28.8727 70.6154C29.0041 70.258 28.8206 69.8614 28.4631 69.7294L25.5898 68.6727C39.0237 64.9245 48.7814 58.0432 54.5936 48.188C64.2962 31.7329 59.4595 12.4958 59.4094 12.3035C59.3133 11.9343 58.9371 11.7136 58.5683 11.8089L58.5629 11.8103C58.197 11.9083 57.9782 12.2834 58.0736 12.65C58.1223 12.837 62.8197 31.5199 53.4041 47.4867C47.8066 56.9778 38.3913 63.6495 25.4109 67.2934L27.2346 65.1874C27.4839 64.8992 27.4528 64.4632 27.1652 64.2138C26.9855 64.0577 26.7476 64.0121 26.5343 64.0693C26.4057 64.1037 26.2857 64.1759 26.1918 64.2839L22.1978 68.8958L27.9866 71.025Z" fill="#BFC8EB"/>
</svg>
