<svg width="57" height="54" viewBox="0 0 57 54" fill="none" xmlns="http://www.w3.org/2000/svg">
<path d="M0.669922 27C0.669922 12.0883 12.7582 0 27.6699 0H56.6699V54H27.6699C12.7582 54 0.669922 41.9117 0.669922 27Z" fill="url(#paint0_linear_0_1)"/>
<path d="M19.6699 23H23.6699V19H19.6699V23ZM25.6699 35H29.6699V31H25.6699V35ZM19.6699 35H23.6699V31H19.6699V35ZM19.6699 29H23.6699V25H19.6699V29ZM25.6699 29H29.6699V25H25.6699V29ZM31.6699 19V23H35.6699V19H31.6699ZM25.6699 23H29.6699V19H25.6699V23ZM31.6699 29H35.6699V25H31.6699V29ZM31.6699 35H35.6699V31H31.6699V35Z" fill="#323232"/>
<defs>
<linearGradient id="paint0_linear_0_1" x1="28.6699" y1="0" x2="28.6699" y2="54" gradientUnits="userSpaceOnUse">
<stop stop-color="white"/>
<stop offset="1" stop-color="#EBF8F8"/>
</linearGradient>
</defs>
</svg>
