<svg width="236" height="67" viewBox="0 0 236 67" fill="none" xmlns="http://www.w3.org/2000/svg">
<path d="M81.5659 27.2568C81.5659 27.8161 81.6901 28.2822 82.0006 28.5929C82.3111 28.9347 82.7459 29.0901 83.3048 29.0901H99.1105C99.6695 29.0901 100.135 28.9347 100.446 28.5929C100.756 28.2511 100.912 27.8161 100.912 27.2568V15.6664C100.912 15.1692 100.756 14.7342 100.446 14.3924C100.135 14.0506 99.7316 13.8641 99.1726 13.8641C98.6137 13.8641 98.21 14.0506 97.8995 14.3924C97.589 14.7342 97.4648 15.1692 97.4648 15.6664V26.107H92.9621V15.6664C92.9621 15.1692 92.8069 14.7342 92.4964 14.3924C92.1858 14.0506 91.7821 13.8641 91.2232 13.8641C90.6643 13.8641 90.2606 14.0506 89.95 14.3924C89.6395 14.7342 89.5153 15.1692 89.5153 15.6664V26.107H85.0127V7.38014C85.0127 6.88296 84.8574 6.44794 84.5469 6.10613C84.2364 5.76432 83.8327 5.57788 83.2738 5.57788C82.7148 5.57788 82.3111 5.76432 82.0006 6.10613C81.6901 6.44794 81.5659 6.88296 81.5659 7.38014V27.2568Z" fill="#243976"/>
<path d="M105.678 27.2878C105.678 27.8161 105.802 28.2511 106.113 28.5929C106.392 28.9347 106.827 29.0901 107.386 29.0901C107.945 29.0901 108.349 28.9347 108.659 28.5929C108.97 28.2511 109.125 27.8161 109.125 27.2878V22.4093L114.87 28.2511C115.863 29.3076 116.764 29.3697 117.571 28.4997C117.882 28.189 118.006 27.785 117.944 27.3189C117.882 26.8528 117.664 26.4178 117.292 26.0449L112.354 21.415L116.764 16.7229C117.136 16.3189 117.354 15.8839 117.416 15.4489C117.447 15.0138 117.323 14.641 117.012 14.3302C116.205 13.5845 115.335 13.7088 114.404 14.7652L109.125 20.7624V15.6664C109.125 15.1692 108.97 14.7342 108.659 14.3924C108.349 14.0506 107.945 13.8641 107.386 13.8641C106.827 13.8641 106.423 14.0506 106.113 14.3924C105.802 14.7342 105.678 15.1692 105.678 15.6664V27.2878Z" fill="#243976"/>
<path d="M121.346 21.4771C121.346 23.8387 121.998 25.7342 123.302 27.1946C124.606 28.6861 126.407 29.4008 128.767 29.4008C131.096 29.4008 132.928 28.6861 134.233 27.1946C135.537 25.7031 136.22 23.8076 136.22 21.4771C136.22 19.1777 135.537 17.2822 134.233 15.7907C132.928 14.2991 131.096 13.5534 128.767 13.5534C126.407 13.5534 124.606 14.2991 123.302 15.7596C121.998 17.2511 121.346 19.1466 121.346 21.4771ZM124.948 21.4771C124.948 20.0477 125.258 18.8669 125.942 17.9347C126.594 17.0025 127.525 16.5364 128.767 16.5364C130.009 16.5364 130.941 17.0025 131.624 17.9037C132.276 18.8359 132.618 20.0167 132.618 21.4771C132.618 22.9686 132.276 24.1494 131.624 25.0505C130.941 25.9827 130.009 26.4178 128.767 26.4178C127.525 26.4178 126.594 25.9827 125.942 25.0505C125.258 24.1494 124.948 22.9686 124.948 21.4771Z" fill="#243976"/>
<path d="M149.529 34.5383C149.529 35.0665 149.654 35.5016 149.964 35.8434C150.275 36.1852 150.709 36.3405 151.268 36.3405C151.827 36.3405 152.262 36.1852 152.573 35.8434C152.883 35.5016 153.038 35.0665 153.038 34.5383V15.6664C153.038 15.1692 152.883 14.7652 152.573 14.3924C152.262 14.0506 151.827 13.8641 151.268 13.8641H144.437C143.94 13.8641 143.505 14.0195 143.164 14.3302C142.791 14.641 142.605 15.076 142.605 15.6664C142.418 20.0788 142.108 23.0618 141.673 24.5844C141.394 25.5477 140.897 26.0138 140.214 26.0138C139.22 26.0138 138.692 26.511 138.692 27.4432C138.661 28.0336 138.847 28.4686 139.251 28.7483C139.624 29.059 140.152 29.1833 140.773 29.1833C142.698 29.1833 144.002 28.0647 144.685 25.8274C145.306 23.8698 145.679 20.9178 145.803 16.9715H149.529V34.5383Z" fill="#243976"/>
<path d="M167.34 27.2878C167.34 27.8161 167.465 28.2511 167.744 28.5929C168.024 28.9347 168.458 29.0901 169.017 29.0901C169.576 29.0901 169.98 28.9347 170.259 28.5929C170.539 28.2822 170.694 27.8471 170.694 27.2878V19.333C170.694 15.4799 168.645 13.5534 164.577 13.5534C162.341 13.5534 160.633 13.9573 159.515 14.7031C158.739 15.2003 158.49 15.8217 158.739 16.5364C158.863 16.9093 159.08 17.1268 159.422 17.2511C159.764 17.3754 160.136 17.3754 160.509 17.2511C160.664 17.22 160.912 17.1579 161.254 17.0336L161.999 16.8161C162.155 16.7539 162.372 16.6918 162.62 16.6297C162.869 16.5675 163.148 16.5364 163.397 16.5054C163.645 16.5054 163.894 16.4743 164.173 16.4743C165.415 16.4743 166.254 16.7539 166.688 17.3133C167.123 17.8726 167.34 18.6183 167.34 19.6127V19.9545C166.471 19.8302 165.384 19.737 164.08 19.737C162.155 19.737 160.571 20.172 159.298 20.9799C158.025 21.7878 157.404 23.0929 157.404 24.833C157.404 26.2313 157.838 27.35 158.708 28.1579C159.577 28.9969 160.819 29.4008 162.372 29.4008C164.67 29.4008 166.316 28.5308 167.34 26.7285V27.2878ZM163.304 26.6664C162.527 26.6664 161.937 26.4799 161.502 26.107C161.068 25.7342 160.85 25.2059 160.85 24.5534C160.85 22.8133 162.092 21.9432 164.577 21.9432C165.757 21.9432 166.657 22.0054 167.34 22.0986V22.6268C167.34 23.6833 166.968 24.6466 166.254 25.4545C165.508 26.2624 164.546 26.6664 163.304 26.6664Z" fill="#243976"/>
<path d="M89.1737 39.655C89.6706 39.4686 90.3537 39.22 91.2232 38.9093C92.0616 38.6296 92.6516 38.4121 92.9621 38.2567C94.0179 37.7596 94.4216 37.0759 94.1111 36.1748C93.8006 35.3048 92.9621 35.1183 91.6579 35.5844L88.0558 36.9206C85.2611 38.0081 83.3669 39.3754 82.3422 41.0223C81.2864 42.6692 80.7896 45.0929 80.7896 48.2934C80.7896 51.2143 81.4106 53.4827 82.6527 55.0364C83.8948 56.59 85.7269 57.3669 88.18 57.3669C90.3848 57.3669 92.1548 56.6833 93.49 55.2539C94.7942 53.8556 95.4774 52.0844 95.4774 49.9093C95.4774 47.7341 94.8874 45.994 93.7385 44.6889C92.5585 43.3838 90.9748 42.7002 88.9253 42.7002C87.8695 42.7002 86.8448 42.9488 85.8511 43.446C84.8574 43.9432 84.0811 44.6579 83.5222 45.6522C83.5843 43.9121 84.2674 42.4827 85.6027 41.4262C86.2858 40.898 87.4658 40.3076 89.1737 39.655ZM91.8753 50.0336C91.8753 51.4008 91.5337 52.4883 90.8816 53.2341C90.2295 54.0109 89.329 54.3838 88.149 54.3838C87.0001 54.3838 86.0995 54.0109 85.4785 53.2652C84.8264 52.5194 84.5159 51.4629 84.5159 50.0957C84.5159 48.7285 84.8264 47.672 85.5095 46.8641C86.1616 46.0872 87.0622 45.6833 88.18 45.6833C89.36 45.6833 90.2606 46.0872 90.9127 46.833C91.5337 47.6098 91.8753 48.6663 91.8753 50.0336Z" fill="#243976"/>
<path d="M103.907 57.0561C103.441 58.2369 103.007 59.1381 102.603 59.7285C102.168 60.3188 101.64 60.5985 100.988 60.5985C100.647 60.5985 100.088 60.4742 99.3113 60.2256C98.3798 59.977 97.7898 60.1635 97.4792 60.8471C97.0755 61.7171 97.3861 62.4629 98.4419 63.0222C99.125 63.3951 99.9634 63.5816 100.957 63.5816C102.292 63.5816 103.379 63.1465 104.218 62.2454C105.056 61.3443 105.926 59.6663 106.857 57.2115L111.701 44.3782C112.167 43.0731 111.95 42.2652 111.018 41.9545C109.9 41.5816 109.155 42.0477 108.72 43.3838L105.522 52.8923L101.889 43.2596C101.392 41.9855 100.553 41.5505 99.4355 41.9855C98.8766 42.2031 98.5661 42.5759 98.4419 43.1042C98.3176 43.6324 98.3798 44.1296 98.6282 44.5957L103.907 57.0561Z" fill="#243976"/>
<path d="M126.946 57.0561V58.9827C126.946 59.4799 127.07 59.8838 127.319 60.1945C127.567 60.5053 127.971 60.6607 128.468 60.6607C129.461 60.6607 129.958 60.1013 129.958 58.9827V55.8754C129.958 55.4403 129.834 55.0364 129.585 54.7256C129.337 54.4149 128.964 54.2595 128.468 54.2595H127.66V43.6324C127.66 43.1042 127.505 42.6692 127.194 42.3274C126.884 42.0166 126.449 41.8302 125.89 41.8302H118.872C117.692 41.8302 117.102 42.4516 117.04 43.6324C117.04 43.7257 117.009 44.0053 117.009 44.4714C116.978 44.9686 116.947 45.3725 116.947 45.7454C116.916 46.1183 116.885 46.6155 116.854 47.2369C116.792 47.8584 116.761 48.3867 116.699 48.8528L116.543 50.4375C116.481 51.0279 116.388 51.5251 116.295 51.9601C116.171 52.3951 116.078 52.768 115.953 53.1409C115.829 53.5138 115.674 53.7934 115.519 53.9799C115.332 54.1663 115.177 54.2595 114.991 54.2595H114.835C114.339 54.2595 113.997 54.4149 113.749 54.7256C113.5 55.0364 113.376 55.4092 113.376 55.8754V58.9827C113.376 60.1013 113.873 60.6607 114.867 60.6607C115.363 60.6607 115.736 60.5053 115.984 60.1945C116.233 59.8838 116.388 59.4799 116.388 58.9827V57.0561H126.946ZM118.841 54.2595C119.555 52.333 119.959 49.1946 120.083 44.8132H124.213V54.2595H118.841Z" fill="#243976"/>
<path d="M139.13 57.0561C138.664 58.2369 138.23 59.1381 137.826 59.7285C137.391 60.3188 136.863 60.5985 136.211 60.5985C135.87 60.5985 135.311 60.4742 134.535 60.2256C133.603 59.977 133.013 60.1635 132.702 60.8471C132.299 61.7171 132.609 62.4629 133.665 63.0222C134.348 63.3951 135.187 63.5816 136.18 63.5816C137.516 63.5816 138.602 63.1465 139.441 62.2454C140.279 61.3443 141.149 59.6663 142.08 57.2115L146.924 44.3782C147.39 43.0731 147.173 42.2652 146.241 41.9545C145.123 41.5816 144.378 42.0477 143.943 43.3838L140.745 52.8923L137.112 43.2596C136.615 41.9855 135.777 41.5505 134.659 41.9855C134.1 42.2031 133.789 42.5759 133.665 43.1042C133.541 43.6324 133.603 44.1296 133.851 44.5957L139.13 57.0561Z" fill="#243976"/>
<path d="M152.716 57.0561H169.391V58.9827C169.391 59.4799 169.515 59.8838 169.764 60.1945C170.012 60.5053 170.416 60.6607 170.913 60.6607C171.907 60.6607 172.403 60.1013 172.403 58.9827V55.6889C172.403 55.2539 172.279 54.8499 172.031 54.5392C171.782 54.2285 171.41 54.0731 170.913 54.0731H170.323V43.6324C170.323 43.1353 170.168 42.7002 169.857 42.3584C169.547 42.0166 169.143 41.8302 168.584 41.8302C168.025 41.8302 167.621 42.0166 167.311 42.3584C167 42.7002 166.876 43.1353 166.876 43.6324V54.0731H162.373V43.6324C162.373 43.1353 162.218 42.7002 161.908 42.3584C161.597 42.0166 161.193 41.8302 160.634 41.8302C160.076 41.8302 159.672 42.0166 159.361 42.3584C159.051 42.7002 158.927 43.1353 158.927 43.6324V54.0731H154.424V43.6324C154.424 43.1353 154.269 42.7002 153.958 42.3584C153.648 42.0166 153.244 41.8302 152.685 41.8302C152.126 41.8302 151.722 42.0166 151.412 42.3584C151.101 42.7002 150.977 43.1353 150.977 43.6324V55.2228C150.977 55.7821 151.101 56.2482 151.412 56.559C151.722 56.9008 152.157 57.0561 152.716 57.0561Z" fill="#243976"/>
<path d="M187.593 50.7172C188.183 50.7172 188.649 50.5929 188.96 50.3443C189.27 50.0957 189.488 49.7228 189.643 49.1635C189.736 48.7906 189.798 48.3245 189.798 47.703C189.798 45.8386 189.208 44.3471 188.09 43.2285C186.972 42.1098 185.42 41.5194 183.432 41.5194C181.197 41.5194 179.458 42.2652 178.154 43.6946C176.849 45.155 176.197 47.0816 176.197 49.5053C176.197 52.0222 176.787 53.9488 178.029 55.316C179.271 56.6833 181.041 57.3669 183.37 57.3669C185.42 57.3669 187.066 56.9629 188.277 56.155C188.649 55.9064 188.898 55.5957 189.022 55.2228C189.146 54.8499 189.115 54.477 188.929 54.1663C188.556 53.5138 187.904 53.3584 187.003 53.7313C185.699 54.2906 184.612 54.5392 183.712 54.5392C182.501 54.5392 181.538 54.1974 180.824 53.5138C180.079 52.8302 179.706 51.898 179.675 50.7172H187.593ZM183.432 44.3471C184.457 44.3471 185.233 44.6579 185.761 45.2172C186.289 45.8076 186.569 46.5533 186.569 47.4855C186.569 47.7963 186.538 48.0759 186.538 48.2624H179.675C179.768 47.0194 180.141 46.0562 180.793 45.3725C181.445 44.6889 182.315 44.3471 183.432 44.3471Z" fill="#243976"/>
<path d="M196.491 41.8302C195.932 41.8302 195.528 42.0166 195.218 42.3584C194.907 42.7313 194.752 43.1353 194.752 43.6324V61.4686C194.752 61.9968 194.876 62.4318 195.187 62.7736C195.497 63.1155 195.932 63.2708 196.491 63.2708C197.05 63.2708 197.484 63.1155 197.795 62.7736C198.106 62.4318 198.261 61.9968 198.261 61.4686V44.9375H203.447C204.564 44.9375 205.123 44.4403 205.123 43.4149C205.123 42.3584 204.564 41.8302 203.447 41.8302H196.491Z" fill="#243976"/>
<path d="M207.357 49.4432C207.357 51.8047 208.009 53.7002 209.313 55.1607C210.617 56.6522 212.418 57.3669 214.778 57.3669C217.107 57.3669 218.939 56.6522 220.244 55.1607C221.548 53.6691 222.231 51.7737 222.231 49.4432C222.231 47.1437 221.548 45.2482 220.244 43.7567C218.939 42.2652 217.107 41.5194 214.778 41.5194C212.418 41.5194 210.617 42.2652 209.313 43.7257C208.009 45.2172 207.357 47.1127 207.357 49.4432ZM210.959 49.4432C210.959 48.0138 211.269 46.833 211.953 45.9008C212.605 44.9686 213.536 44.5025 214.778 44.5025C216.021 44.5025 216.952 44.9686 217.635 45.8697C218.287 46.8019 218.629 47.9827 218.629 49.4432C218.629 50.9347 218.287 52.1155 217.635 53.0166C216.952 53.9488 216.021 54.3838 214.778 54.3838C213.536 54.3838 212.605 53.9488 211.953 53.0166C211.269 52.1155 210.959 50.9347 210.959 49.4432Z" fill="#243976"/>
<path d="M180.105 19.1855C180.105 13.3865 184.806 8.68555 190.605 8.68555H225.5C231.299 8.68555 236 13.3866 236 19.1855V19.9369C236 25.7359 231.299 30.4369 225.5 30.4369H181.105C180.553 30.4369 180.105 29.9892 180.105 29.4369V19.1855Z" fill="#49B3F7"/>
<path d="M187.352 20.8265C187.352 21.8386 187.636 22.651 188.206 23.2769C188.775 23.9161 189.562 24.2224 190.592 24.2224C191.609 24.2224 192.409 23.9161 192.979 23.2769C193.548 22.6377 193.846 21.8253 193.846 20.8265C193.846 19.8411 193.548 19.0287 192.979 18.3895C192.409 17.7503 191.609 17.4307 190.592 17.4307C189.562 17.4307 188.775 17.7503 188.206 18.3762C187.636 19.0154 187.352 19.8277 187.352 20.8265ZM188.924 20.8265C188.924 20.2139 189.06 19.7079 189.358 19.3084C189.643 18.9089 190.05 18.7091 190.592 18.7091C191.135 18.7091 191.541 18.9089 191.84 19.2951C192.124 19.6946 192.274 20.2006 192.274 20.8265C192.274 21.4658 192.124 21.9718 191.84 22.358C191.541 22.7575 191.135 22.944 190.592 22.944C190.05 22.944 189.643 22.7575 189.358 22.358C189.06 21.9718 188.924 21.4658 188.924 20.8265Z" fill="white"/>
<path d="M195.132 23.3168C195.132 23.5432 195.187 23.7297 195.322 23.8762C195.458 24.0227 195.648 24.0892 195.892 24.0892C196.136 24.0892 196.326 24.0227 196.461 23.8762C196.597 23.7297 196.664 23.5432 196.664 23.3168V21.5989C196.664 21.1994 196.692 20.8398 196.746 20.5202C196.8 20.2139 196.881 19.921 196.99 19.6413C197.098 19.3616 197.275 19.1486 197.492 18.9888C197.709 18.8423 197.98 18.7624 198.305 18.7624C199.064 18.7624 199.458 19.2684 199.458 20.2539V23.3168C199.458 23.5432 199.512 23.7297 199.648 23.8762C199.783 24.0227 199.973 24.0892 200.217 24.0892C200.461 24.0892 200.651 24.0227 200.787 23.8762C200.922 23.7297 200.99 23.5432 200.99 23.3168V20.2805C200.99 19.3483 200.814 18.6292 200.461 18.1498C200.109 17.6704 199.512 17.4307 198.671 17.4307C198.237 17.4307 197.844 17.5239 197.492 17.7103C197.139 17.8968 196.854 18.1764 196.664 18.536V18.3362C196.664 18.1231 196.597 17.9367 196.461 17.7902C196.326 17.6437 196.136 17.5638 195.892 17.5638C195.648 17.5638 195.458 17.6437 195.322 17.7902C195.187 17.9367 195.132 18.1231 195.132 18.3362V23.3168Z" fill="white"/>
<path d="M205.909 21.1994C206.126 21.1994 206.302 21.1461 206.437 21.0263C206.573 20.9198 206.641 20.7466 206.641 20.5336C206.641 20.3338 206.573 20.174 206.437 20.0541C206.302 19.9343 206.126 19.8677 205.909 19.8677H202.6C202.383 19.8677 202.207 19.9343 202.071 20.0541C201.936 20.174 201.868 20.3338 201.868 20.5336C201.868 20.7466 201.936 20.9198 202.071 21.0263C202.207 21.1461 202.383 21.1994 202.6 21.1994H205.909Z" fill="white"/>
<path d="M207.526 22.0384C207.526 23.5033 208.204 24.2224 209.574 24.2224C210.143 24.2224 210.591 24.1292 210.943 23.9294C211.377 23.6897 211.526 23.3834 211.377 22.9839C211.309 22.8374 211.201 22.7442 211.038 22.6909C210.876 22.651 210.713 22.6643 210.55 22.7309C210.279 22.8374 210.048 22.8907 209.831 22.8907C209.547 22.8907 209.343 22.8108 209.235 22.6377C209.113 22.4779 209.059 22.1982 209.059 21.8253V15.6728C209.059 15.4597 208.991 15.2733 208.855 15.1268C208.72 14.9803 208.53 14.9004 208.286 14.9004C208.042 14.9004 207.852 14.9803 207.716 15.1268C207.581 15.2733 207.526 15.4597 207.526 15.6728V22.0384Z" fill="white"/>
<path d="M212.095 23.3168C212.095 23.5432 212.149 23.7297 212.285 23.8762C212.42 24.0227 212.61 24.0892 212.854 24.0892C213.098 24.0892 213.288 24.0227 213.424 23.8762C213.559 23.7297 213.627 23.5432 213.627 23.3168V18.3362C213.627 18.1231 213.559 17.9367 213.424 17.7902C213.288 17.6437 213.098 17.5638 212.854 17.5638C212.61 17.5638 212.42 17.6437 212.285 17.7902C212.149 17.9367 212.095 18.1231 212.095 18.3362V23.3168ZM211.973 15.8459C211.973 16.1123 212.04 16.3253 212.203 16.4585C212.366 16.5917 212.583 16.6583 212.854 16.6583C213.125 16.6583 213.342 16.5917 213.505 16.4452C213.668 16.312 213.749 16.1123 213.749 15.8459C213.749 15.6062 213.668 15.4064 213.505 15.26C213.342 15.1135 213.125 15.0336 212.854 15.0336C212.583 15.0336 212.366 15.1135 212.203 15.26C212.04 15.4064 211.973 15.6062 211.973 15.8459Z" fill="white"/>
<path d="M215.259 23.3168C215.259 23.5432 215.314 23.7297 215.449 23.8762C215.585 24.0227 215.775 24.0892 216.019 24.0892C216.263 24.0892 216.453 24.0227 216.588 23.8762C216.724 23.7297 216.792 23.5432 216.792 23.3168V21.5989C216.792 21.1994 216.819 20.8398 216.873 20.5202C216.927 20.2139 217.009 19.921 217.117 19.6413C217.226 19.3616 217.402 19.1486 217.619 18.9888C217.836 18.8423 218.107 18.7624 218.432 18.7624C219.192 18.7624 219.585 19.2684 219.585 20.2539V23.3168C219.585 23.5432 219.639 23.7297 219.775 23.8762C219.91 24.0227 220.1 24.0892 220.344 24.0892C220.588 24.0892 220.778 24.0227 220.914 23.8762C221.049 23.7297 221.117 23.5432 221.117 23.3168V20.2805C221.117 19.3483 220.941 18.6292 220.588 18.1498C220.236 17.6704 219.639 17.4307 218.798 17.4307C218.365 17.4307 217.971 17.5239 217.619 17.7103C217.266 17.8968 216.981 18.1764 216.792 18.536V18.3362C216.792 18.1231 216.724 17.9367 216.588 17.7902C216.453 17.6437 216.263 17.5638 216.019 17.5638C215.775 17.5638 215.585 17.6437 215.449 17.7902C215.314 17.9367 215.259 18.1231 215.259 18.3362V23.3168Z" fill="white"/>
<path d="M227.378 21.3725C227.636 21.3725 227.839 21.3193 227.975 21.2127C228.11 21.1062 228.205 20.9464 228.273 20.7067C228.314 20.5469 228.341 20.3471 228.341 20.0808C228.341 19.2817 228.083 18.6425 227.595 18.1631C227.107 17.6837 226.429 17.4307 225.561 17.4307C224.585 17.4307 223.826 17.7503 223.256 18.3629C222.687 18.9888 222.402 19.8144 222.402 20.8532C222.402 21.9319 222.66 22.7575 223.202 23.3435C223.744 23.9294 224.517 24.2224 225.534 24.2224C226.429 24.2224 227.148 24.0493 227.676 23.703C227.839 23.5965 227.948 23.4633 228.002 23.3035C228.056 23.1437 228.043 22.9839 227.961 22.8507C227.799 22.5711 227.514 22.5045 227.121 22.6643C226.551 22.904 226.076 23.0105 225.683 23.0105C225.154 23.0105 224.734 22.8641 224.422 22.5711C224.097 22.2781 223.934 21.8786 223.921 21.3725H227.378ZM225.561 18.6425C226.009 18.6425 226.348 18.7757 226.578 19.0154C226.809 19.2684 226.931 19.588 226.931 19.9875C226.931 20.1207 226.917 20.2406 226.917 20.3205H223.921C223.961 19.7878 224.124 19.375 224.409 19.082C224.693 18.789 225.073 18.6425 225.561 18.6425Z" fill="white"/>
<path d="M8.17467 45.2407L13.8971 56.6932C34.8246 44.9136 33.9252 24.9264 31.4728 16.2008L19.6194 23.154C19.6194 23.154 22.4804 34.1973 8.17467 45.2407Z" fill="#49B3F7"/>
<path d="M46.0522 5.82707L33.2834 4.99791C32.8977 29.022 50.6003 38.3224 59.3671 40.6025L59.3429 26.8533C59.3429 26.8533 48.3699 23.7578 46.0522 5.82707Z" fill="#864FF1"/>
<path d="M61.4995 58.6483L68.7781 48.1174C48.3881 35.4289 31.312 45.8363 24.8485 52.1866L36.6438 59.2381C36.6438 59.2381 44.9409 51.4141 61.4995 58.6483Z" fill="#49B3F7"/>
</svg>
