<svg width="18" height="18" viewBox="0 0 18 18" fill="none" xmlns="http://www.w3.org/2000/svg">
<path d="M11.775 8.78778C12.5129 8.21075 13.0523 7.41784 13.3181 6.5196C13.5839 5.62136 13.5627 4.66258 13.2575 3.77695C12.9524 2.89132 12.3784 2.123 11.6158 1.57912C10.8531 1.03524 9.93973 0.74292 9.003 0.74292C8.06627 0.74292 7.15289 1.03524 6.39023 1.57912C5.62757 2.123 5.05364 2.89132 4.74848 3.77695C4.44332 4.66258 4.42214 5.62136 4.6879 6.5196C4.95366 7.41784 5.4931 8.21075 6.231 8.78778C4.83688 9.34249 3.641 10.3023 2.7977 11.5433C1.9544 12.7843 1.50239 14.2496 1.5 15.75V16.5C1.5 16.6989 1.57902 16.8897 1.71967 17.0304C1.86032 17.171 2.05109 17.25 2.25 17.25H15.75C15.9489 17.25 16.1397 17.171 16.2803 17.0304C16.421 16.8897 16.5 16.6989 16.5 16.5V15.75C16.4981 14.2503 16.047 12.7855 15.2048 11.5446C14.3626 10.3036 13.168 9.34343 11.775 8.78778ZM6 5.25003C6 4.65668 6.17595 4.07666 6.50559 3.58332C6.83524 3.08997 7.30377 2.70545 7.85195 2.47839C8.40013 2.25133 9.00333 2.19192 9.58527 2.30767C10.1672 2.42343 10.7018 2.70915 11.1213 3.12871C11.5409 3.54826 11.8266 4.08281 11.9424 4.66476C12.0581 5.2467 11.9987 5.8499 11.7716 6.39808C11.5446 6.94626 11.1601 7.41479 10.6667 7.74444C10.1734 8.07408 9.59334 8.25003 9 8.25003C8.20435 8.25003 7.44129 7.93396 6.87868 7.37135C6.31607 6.80874 6 6.04568 6 5.25003ZM3 15.75C3 14.1587 3.63214 12.6326 4.75736 11.5074C5.88258 10.3822 7.4087 9.75003 9 9.75003C10.5913 9.75003 12.1174 10.3822 13.2426 11.5074C14.3679 12.6326 15 14.1587 15 15.75H3Z" fill="url(#paint0_linear_4317_43)"/>
<defs>
<linearGradient id="paint0_linear_4317_43" x1="16.5" y1="17.25" x2="0.803894" y2="16.5592" gradientUnits="userSpaceOnUse">
<stop stop-color="#864FF1"/>
<stop offset="1" stop-color="#49B3F7"/>
</linearGradient>
</defs>
</svg>
