<svg width="57" height="54" viewBox="0 0 57 54" fill="none" xmlns="http://www.w3.org/2000/svg">
<path d="M0.800781 27C0.800781 12.0883 12.8891 0 27.8008 0H56.8008V54H27.8008C12.8891 54 0.800781 41.9117 0.800781 27Z" fill="url(#paint0_linear_0_1)"/>
<path d="M22.62 25.79C24.06 28.62 26.38 30.93 29.21 32.38L31.41 30.18C31.68 29.91 32.08 29.82 32.43 29.94C33.55 30.31 34.76 30.51 36 30.51C36.55 30.51 37 30.96 37 31.51V35C37 35.55 36.55 36 36 36C26.61 36 19 28.39 19 19C19 18.45 19.45 18 20 18H23.5C24.05 18 24.5 18.45 24.5 19C24.5 20.25 24.7 21.45 25.07 22.57C25.18 22.92 25.1 23.31 24.82 23.59L22.62 25.79Z" fill="#323232"/>
<defs>
<linearGradient id="paint0_linear_0_1" x1="28.8008" y1="0" x2="28.8008" y2="54" gradientUnits="userSpaceOnUse">
<stop stop-color="white"/>
<stop offset="1" stop-color="#EBF8F8"/>
</linearGradient>
</defs>
</svg>
