<svg width="70" height="68" viewBox="0 0 70 68" fill="none" xmlns="http://www.w3.org/2000/svg">
<path fill-rule="evenodd" clip-rule="evenodd" d="M69.9037 16.9775C69.8534 16.8681 69.7846 16.7684 69.7002 16.6828L67.8091 14.7132C67.5383 14.4427 67.1402 14.3439 66.7743 14.4563L63.3632 15.491L59.3669 11.2521L68.3372 6.25669C68.8599 6.01602 69.0884 5.39712 68.8476 4.87457C68.7973 4.76521 68.7284 4.66548 68.644 4.57984L66.1249 2.06074C65.8503 1.79688 65.4536 1.70375 65.0901 1.81811L53.7221 5.25779L49.897 1.19725C48.9222 0.0700792 47.3353 -0.306537 45.9578 0.262402H45.8936C44.8551 0.689864 44.0303 1.51464 43.6029 2.55314C43.4951 2.82432 43.4186 3.10674 43.3745 3.39522L42.9392 3.24536C42.3756 3.0641 41.7717 3.37399 41.5904 3.93758C41.4092 4.50117 41.7191 5.10507 42.2827 5.28633C42.8321 5.46474 43.3816 5.66456 43.9311 5.87151C44.0965 6.1302 44.2904 6.36962 44.5092 6.58513L48.5412 10.4102L47.3851 14.2281C36.078 6.16249 20.3734 8.79024 12.3079 20.0973C4.24227 31.4044 6.87002 47.1088 18.1771 55.1744C29.4841 63.24 45.1887 60.6122 53.2543 49.3051C59.6862 40.2883 59.4618 28.1251 52.7016 19.3517L54.5285 16.0548L58.7674 20.0511L57.7469 23.4265C57.624 23.7975 57.7207 24.206 57.9967 24.4827C57.9967 24.4827 60.0876 26.5522 60.1376 26.6236C60.632 26.9101 61.2651 26.7417 61.5518 26.2473C61.5563 26.2397 61.5607 26.2318 61.5648 26.224L64.3551 21.1073L69.3933 18.3598C69.916 18.1189 70.1446 17.5001 69.9037 16.9775ZM16.6207 18.3882C20.9229 14.0878 26.7584 11.6745 32.8414 11.6801C33.3172 11.6801 33.7928 11.6943 34.2686 11.7229C38.3149 15.4552 37.1231 18.8592 34.4114 21.9278C32.8111 23.6249 31.0942 25.2083 29.2732 26.6662C26.64 28.907 24.1851 30.9979 23.2574 33.0889C22.1584 35.5723 22.9648 37.8202 27.4035 39.7827C29.6229 40.7675 30.829 41.5311 31.2999 42.1091C31.3069 42.1175 31.3137 42.1234 31.3206 42.1286C31.306 42.133 31.2912 42.1378 31.2714 42.1448C30.1967 42.5541 29.0527 42.7503 27.9031 42.7228C22.5349 42.9507 18.7081 39.5276 15.7353 36.8684L15.7143 36.8497L15.7034 36.84C13.5674 34.9389 11.7934 33.36 9.94825 33.3458C10.2537 27.7083 12.6299 22.3818 16.6207 18.3882ZM55.863 34.6446H55.8701C55.8669 44.5908 49.473 53.4087 40.0205 56.503C39.755 54.8304 40.0644 53.1172 40.8982 51.6432C42.029 49.8272 43.4798 48.2315 45.18 46.9332C51.7668 41.4383 52.1378 38.3697 52.4233 36.0076C52.6017 34.5161 52.7373 33.4029 55.6846 31.7829C55.8028 32.7322 55.8624 33.688 55.863 34.6446ZM54.5356 26.9231C54.8546 27.8216 55.1167 28.7393 55.3206 29.6706C50.8319 31.9542 50.6321 33.5813 50.3609 35.8007L50.3605 35.8042C50.1179 37.8019 49.8008 40.4136 43.8526 45.3775C41.9464 46.836 40.3255 48.6334 39.0713 50.6798C37.9779 52.6126 37.5989 54.8684 38.0009 57.0525C25.6214 59.8823 13.2919 52.1409 10.4621 39.7616C10.1384 38.3458 9.94967 36.9025 9.89829 35.451C10.9896 35.451 12.3913 36.6987 14.1032 38.2227L14.3085 38.4054C17.5769 41.3241 21.7588 45.0493 27.9887 44.828C29.4567 44.8534 30.9141 44.5765 32.2705 44.0145C32.8423 43.7617 33.2751 43.2716 33.4551 42.6729C33.6071 42.0051 33.4142 41.3056 32.9413 40.8103C32.2705 39.9896 30.8004 39.0191 28.2742 37.8916C25.2555 36.5571 24.599 35.2583 25.1913 33.931C25.8387 32.416 27.7899 30.7132 29.9687 28.8117C30.1916 28.6172 30.4169 28.4206 30.6434 28.2219C32.5452 26.685 34.3361 25.0158 36.0027 23.2266C38.9857 19.8297 40.52 16.126 37.4871 12.0726C40.8577 12.7616 44.0291 14.2035 46.7642 16.2901L45.1229 21.7065C45.0018 22.0776 45.0981 22.4853 45.3727 22.7627C45.3727 22.7627 48.0345 25.4031 48.1201 25.4531C48.6145 25.7396 49.2477 25.5712 49.5343 25.0768C49.5388 25.0691 49.5431 25.0613 49.5474 25.0534L51.624 21.2998C52.8499 23.0307 53.8297 24.9232 54.5356 26.9231ZM64.1053 18.9519L63.1848 19.4086C62.9787 19.5109 62.8128 19.6791 62.7138 19.8868L62.2571 20.8145L60.4801 24.0258L59.9592 23.4549L60.9939 20.0366C61.1145 19.6361 60.9822 19.2026 60.6585 18.9377L55.028 13.6354C54.6204 13.2349 53.9653 13.2408 53.5647 13.6484C53.5551 13.6582 53.5458 13.6681 53.5365 13.6782C53.4652 13.7567 48.3984 22.884 48.3984 22.884L47.2923 21.7779L50.7463 10.3955C50.8701 9.99288 50.7373 9.55543 50.4109 9.28942L45.9293 5.07189C45.4333 4.65174 45.2685 3.95756 45.5225 3.35918C45.7502 2.84073 46.1659 2.42772 46.6857 2.20311H46.7214C47.3125 1.97493 47.9831 2.14691 48.3913 2.63129L52.6731 7.15568C52.9419 7.44434 53.3515 7.55513 53.7292 7.44113L65.1472 3.99431L66.2534 5.10043L57.1903 10.0815C56.6886 10.3552 56.5038 10.9839 56.7777 11.4854L56.7907 11.5088C56.8335 11.5873 62.2927 17.3962 62.2927 17.3962C62.5632 17.6824 62.9726 17.7903 63.3489 17.6745L66.7814 16.6398L67.3167 17.175L64.1053 18.9519ZM34.832 1.7391C35.8311 1.79619 36.8373 1.90324 37.8221 2.0531C38.4134 2.09645 38.8574 2.61098 38.8141 3.20204C38.7707 3.79328 38.2564 4.23733 37.6651 4.19398H37.501C36.5804 4.05126 35.6456 3.95135 34.7036 3.87998C34.1123 3.84448 33.6619 3.33656 33.6974 2.74532C33.7329 2.15408 34.2408 1.7036 34.832 1.7391ZM29.5937 1.87477C30.185 1.81768 30.7106 2.25049 30.7677 2.84173C30.8247 3.43297 30.3919 3.95856 29.8007 4.01565C28.873 4.10842 27.9381 4.24401 27.0175 4.42241H26.8106L26.8177 4.45096C26.2265 4.50609 25.7025 4.07167 25.6474 3.48043C25.5923 2.88919 26.0267 2.36521 26.6179 2.31008C27.6027 2.1174 28.6018 1.97468 29.5937 1.87477ZM3.49687 19.8225C3.76288 19.2944 4.40675 19.0819 4.93483 19.3479C5.46291 19.6141 5.6754 20.2578 5.40939 20.7859C4.97408 21.6137 4.60299 22.4772 4.26045 23.3478L4.25831 23.3533C4.04065 23.903 3.41855 24.172 2.86888 23.9544C2.3226 23.736 2.05481 23.1177 2.26943 22.5699C2.63338 21.6351 3.04729 20.7145 3.49687 19.8225ZM2.14669 26.6872C1.58864 26.4922 0.978129 26.7868 0.78313 27.3448C0.754228 27.4276 0.735496 27.5138 0.727646 27.601C0.513558 28.5787 0.349424 29.5706 0.228107 30.5626C0.151749 31.1427 0.555305 31.6767 1.13441 31.7615H1.27C1.81182 31.7618 2.26837 31.3574 2.33331 30.8195C2.44749 29.8918 2.60448 28.9569 2.8043 28.0506C2.9993 27.4925 2.70475 26.882 2.14669 26.6872ZM13.3509 58.4227C13.3286 58.4027 13.3055 58.3836 13.2816 58.3654C12.568 57.7731 11.8544 57.138 11.1978 56.4814C10.7807 56.0688 10.1092 56.0688 9.6921 56.4814C9.27462 56.8995 9.27462 57.5763 9.6921 57.9943C10.4057 58.708 11.1193 59.3716 11.9186 60.0139C12.358 60.4094 13.0349 60.3737 13.4304 59.9343C13.8258 59.4949 13.7903 58.8182 13.3509 58.4227ZM6.47994 50.4085C6.95807 51.2078 7.47902 51.9928 8.02851 52.7492C8.34482 53.2145 8.24688 53.8452 7.80461 54.1927C7.33968 54.5579 6.66673 54.4773 6.30153 54.0124C5.70922 53.206 5.15259 52.3639 4.63878 51.5075L4.63755 51.5056L4.637 51.5047C4.33478 50.9966 4.50177 50.3397 5.00987 50.0375L5.01195 50.0361L5.01272 50.0357C5.52083 49.7335 6.17772 49.9004 6.47994 50.4085ZM4.29614 45.9986C3.9536 45.1351 3.63961 44.243 3.37556 43.3439C3.21089 42.7762 2.61698 42.4493 2.04929 42.614C2.0393 42.6169 2.02948 42.6199 2.01967 42.6231C1.45787 42.7947 1.13941 43.3872 1.30605 43.9505C1.5915 44.9067 1.91976 45.863 2.29085 46.805C2.5135 47.3587 3.14292 47.627 3.6967 47.4044C4.25047 47.1817 4.51879 46.5523 4.29614 45.9986ZM2.37033 38.5511L2.36998 38.5483C2.2558 37.6206 2.1773 36.6786 2.14161 35.7508C2.12003 35.1596 1.62317 34.6981 1.03193 34.7197C0.440687 34.7412 -0.0208513 35.2381 0.000735909 35.8293C0.000735909 36.8284 0.114916 37.8346 0.243369 38.8266C0.316516 39.3454 0.754504 39.7348 1.27813 39.7472H1.44226C2.02886 39.6731 2.44437 39.1375 2.37033 38.5511ZM9.58566 12.8718C9.14036 12.4777 8.45974 12.5193 8.06564 12.9646C7.4091 13.7139 6.78111 14.506 6.19594 15.3195C5.84911 15.7982 5.95598 16.4676 6.43482 16.8144C6.61662 16.9461 6.83499 17.0173 7.05942 17.018V17.0322C7.40393 17.0335 7.72791 16.8688 7.93005 16.5898C8.47954 15.8334 9.06472 15.0912 9.67843 14.3918C10.0725 13.9465 10.031 13.2661 9.58566 12.8718ZM15.6628 7.77142C15.3279 7.31666 14.6974 7.20016 14.2221 7.50542C13.4015 8.06918 12.5951 8.6829 11.8244 9.31803C11.3691 9.69643 11.3068 10.3721 11.6852 10.8273C12.0636 11.2826 12.7392 11.3449 13.1945 10.9665C13.9081 10.3671 14.6646 9.79616 15.4353 9.26807C15.9115 8.91768 16.0132 8.24759 15.6628 7.77142ZM19.2492 6.90544C19.2507 6.9056 19.2523 6.90574 19.2538 6.90574H19.2324C19.2346 6.90574 19.2367 6.90548 19.2388 6.90528L19.24 6.90522C18.8273 6.90185 18.4524 6.66199 18.278 6.28706C18.0286 5.75112 18.2609 5.11439 18.797 4.86498C19.6962 4.41539 20.631 4.04431 21.5659 3.70177C21.6135 3.68089 21.6626 3.66341 21.7127 3.64967C22.2829 3.49303 22.872 3.82844 23.0284 4.39845C23.1851 4.96845 22.8499 5.55755 22.2795 5.71419C21.4017 6.03533 20.5311 6.39928 19.689 6.79891C19.5508 6.86588 19.3998 6.90171 19.2464 6.90517L19.2486 6.90538L19.2492 6.90544ZM34.833 65.3163C35.4242 65.2788 35.9337 65.7277 35.9712 66.319C36.0087 66.9102 35.5598 67.4199 34.9686 67.4572C34.2978 67.5214 33.5841 67.5214 32.8705 67.5214H31.9642C31.373 67.5057 30.9066 67.0137 30.9223 66.4224C30.938 65.8312 31.4301 65.3648 32.0213 65.3805C32.9561 65.4091 33.8981 65.3877 34.833 65.3163ZM63.9882 41.5204C63.4148 41.3746 62.8316 41.7213 62.6859 42.2947C62.4575 43.201 62.1792 44.1001 61.8652 44.9779C61.6791 45.5292 61.9674 46.1282 62.5146 46.3266C63.071 46.5263 63.6841 46.2369 63.8837 45.6804L63.8848 45.6772C64.2202 44.7353 64.5127 43.7719 64.7625 42.8227C64.9085 42.2493 64.5616 41.6663 63.9882 41.5204ZM64.7341 26.3237C64.9838 27.2871 65.1908 28.279 65.3549 29.2639C65.4493 29.8472 65.0532 30.3966 64.47 30.4913H64.2916C63.7789 30.4859 63.342 30.1179 63.2497 29.6135C63.0927 28.693 62.9 27.7652 62.6646 26.8661C62.5427 26.3191 62.8633 25.7706 63.3998 25.6087C63.9657 25.4376 64.5631 25.7578 64.7341 26.3237ZM61.3018 49.0171C61.3082 49.0204 61.3146 49.0238 61.321 49.0273L61.3319 49.0333L61.3493 49.0433C61.859 49.3427 62.0295 49.9987 61.73 50.5086C61.2447 51.3792 60.7166 52.2427 60.16 53.0705C59.8191 53.5552 59.1497 53.6719 58.665 53.331C58.1802 52.9901 58.0635 52.3207 58.4045 51.8359C58.9326 51.0652 59.425 50.2588 59.8745 49.4382C60.1589 48.9359 60.7903 48.7497 61.3018 49.0171ZM64.7333 33.4172C64.1423 33.4091 63.6565 33.8817 63.6483 34.4728C63.6482 34.4819 63.6481 34.4911 63.6482 34.5002L63.6486 34.5162V34.6375C63.6486 35.5723 63.6058 36.5143 63.5202 37.4492C63.4667 38.0379 63.9004 38.5587 64.4891 38.6122L64.4907 38.6124H64.5906C65.1553 38.6177 65.6268 38.1835 65.6682 37.6204C65.761 36.6285 65.8038 35.6223 65.8038 34.6232V34.4805C65.7999 33.8921 65.3217 33.4172 64.7333 33.4172ZM24.4065 64.2172C25.2985 64.4884 26.2191 64.6882 27.1468 64.8452C27.7381 64.9005 28.1725 65.4245 28.1174 66.0157C28.0622 66.607 27.5382 67.0414 26.947 66.9863H26.7472C25.7624 66.7793 24.7776 66.5438 23.8213 66.2726C23.779 66.2632 23.7371 66.2514 23.6963 66.237C23.1386 66.0407 22.8453 65.4297 23.0415 64.872C23.2378 64.3143 23.8488 64.0211 24.4065 64.2172ZM43.7105 64.5201C43.5169 63.9946 42.9508 63.707 42.4122 63.8608V63.8893C41.5273 64.1819 40.6139 64.4316 39.7076 64.6029C39.1302 64.733 38.7675 65.3066 38.8976 65.8839C39.0277 66.4612 39.6012 66.8239 40.1786 66.6938C41.1491 66.4726 42.1268 66.2014 43.0759 65.8946C43.6307 65.6901 43.9148 65.0748 43.7105 64.5201ZM17.3134 61.1772C18.1198 61.6339 18.9547 62.0906 19.8039 62.5117C20.34 62.7639 20.57 63.403 20.3178 63.9389C20.0655 64.4749 19.4264 64.705 18.8905 64.4527C17.9842 64.0032 17.0922 63.5322 16.2287 63.0255C15.7182 62.7259 15.5473 62.0694 15.8469 61.559C16.1464 61.0486 16.803 60.8777 17.3134 61.1772ZM56.8007 55.626C56.3719 55.2344 55.7087 55.2561 55.3066 55.6754H55.3137C54.6715 56.389 53.9935 57.017 53.3013 57.6379C52.8599 58.032 52.8216 58.7094 53.2157 59.1508C53.6098 59.5921 54.2872 59.6305 54.7285 59.2364C55.4422 58.5727 56.1986 57.8662 56.8694 57.1383C57.2682 56.7016 57.2373 56.0245 56.8007 55.626ZM49.4274 60.5957C49.9349 60.2924 50.5922 60.4578 50.8955 60.9652C51.1989 61.4726 51.0334 62.1299 50.526 62.4333C49.6839 62.9686 48.8061 63.4752 47.9212 63.932C47.3951 64.2019 46.7496 63.9942 46.4797 63.4681C46.2098 62.942 46.4174 62.2965 46.9436 62.0266C47.7714 61.5698 48.5921 61.0988 49.377 60.5993V60.6278C49.3935 60.6166 49.4102 60.6059 49.4274 60.5957Z" fill="#49B3F7"/>
</svg>
