<svg width="139" height="210" viewBox="0 0 139 210" fill="none" xmlns="http://www.w3.org/2000/svg">
<g style="mix-blend-mode:multiply" opacity="0.95">
<g style="mix-blend-mode:multiply" opacity="0.95">
<g style="mix-blend-mode:multiply" opacity="0.95">
<path d="M115.342 179L48.1836 183.169V199.199L114.052 193.75C114.052 193.75 118.597 189.045 115.342 179Z" fill="#F8CC90"/>
</g>
</g>
<path d="M69.5 209.431C107.884 209.431 139 203.757 139 196.758C139 189.759 107.884 184.085 69.5 184.085C31.1162 184.085 0 189.759 0 196.758C0 203.757 31.1162 209.431 69.5 209.431Z" fill="#DEE1F3"/>
</g>
<path d="M115.922 175.462L42.0117 180.052V197.692L114.472 191.692C114.472 191.692 119.452 186.522 115.922 175.462Z" fill="#FF6551"/>
<g style="mix-blend-mode:multiply" opacity="0.95">
<path d="M115.922 175.462L42.0117 180.052V197.692L114.472 191.692C114.472 191.692 119.452 186.522 115.922 175.462Z" fill="#F8CC90"/>
</g>
<path d="M66.3516 183.472C66.3516 183.472 69.5016 188.202 66.3516 192.642L106.622 189.322C107.683 186.637 107.683 183.648 106.622 180.962L66.3516 183.472Z" fill="#FF6551"/>
<path d="M12.8613 176.522L69.8013 173.102L115.921 175.462L42.0413 180.052L12.8613 176.522Z" fill="#FF6551"/>
<path d="M14.2715 177.692C14.2715 177.692 16.7415 186.162 14.9815 192.052L41.3115 196.522C41.3115 196.522 44.6315 196.052 45.2115 191.102C45.7915 186.152 41.3115 180.002 41.3115 180.002L14.2715 177.692Z" fill="#FFEBDD"/>
<g style="mix-blend-mode:multiply" opacity="0.41">
<path d="M41.3125 180.002L14.3125 177.732C14.3125 177.732 14.6625 179.002 15.0125 181.002L36.7425 183.422C37.7451 183.525 38.6883 183.947 39.4335 184.625C40.1787 185.304 40.6866 186.204 40.8825 187.192C40.8825 187.192 40.8825 187.272 40.8825 187.312C40.9846 188.056 40.9083 188.813 40.6598 189.521C40.4114 190.229 39.998 190.868 39.4538 191.385C38.9095 191.902 38.2501 192.282 37.53 192.494C36.8099 192.705 36.0498 192.742 35.3125 192.602L15.4925 189.072C15.4142 190.088 15.2332 191.093 14.9525 192.072L41.2825 196.542C41.2825 196.542 44.6025 196.072 45.1825 191.122C45.7625 186.172 41.3125 180.002 41.3125 180.002Z" fill="#E79E82"/>
</g>
<g style="mix-blend-mode:multiply" opacity="0.41">
<path d="M15.3633 183.252C15.4333 183.792 15.4933 184.352 15.5333 184.922L35.6833 186.582L15.3633 183.252Z" fill="#E79E82"/>
</g>
<g style="mix-blend-mode:multiply" opacity="0.41">
<path d="M30.4416 189.002L15.6016 186.682C15.6016 187.082 15.6016 187.492 15.6016 187.902L30.4416 189.002Z" fill="#E79E82"/>
</g>
<path d="M12.862 178.522L40.012 181.932C41.8975 183.6 43.0744 185.925 43.302 188.432C43.277 189.666 43.0068 190.882 42.5072 192.01C42.0076 193.138 41.2886 194.155 40.392 195.002L13.332 190.642L13.452 193.232L41.312 197.702C41.312 197.702 46.392 195.942 46.312 189.002C46.232 182.062 42.012 180.052 42.012 180.052L12.832 176.522L12.862 178.522Z" fill="#FF6551"/>
<path d="M111.572 159.192C111.572 159.192 108.632 168.282 111.572 175.342L102.272 178.522C102.272 178.522 94.7425 173.932 100.742 162.632L111.572 159.192Z" fill="#FFEBDD"/>
<g style="mix-blend-mode:multiply" opacity="0.41">
<g style="mix-blend-mode:multiply" opacity="0.41">
<path d="M102.272 178.522L111.572 175.342C111.185 174.406 110.891 173.435 110.692 172.442L103.012 175.002C103.012 175.002 102.072 174.532 101.362 171.222C101.202 170.147 101.266 169.049 101.55 168C101.834 166.95 102.331 165.97 103.012 165.122L110.812 162.282C110.999 161.249 111.246 160.227 111.552 159.222L100.722 162.662C94.742 173.932 102.272 178.522 102.272 178.522Z" fill="#E79E82"/>
</g>
<g style="mix-blend-mode:multiply" opacity="0.41">
<path d="M110.362 165.722C110.362 165.192 110.462 164.722 110.522 164.202L104.092 167.322L110.362 165.722Z" fill="#E79E82"/>
</g>
<g style="mix-blend-mode:multiply" opacity="0.41">
<path d="M105.012 171.192L110.392 170.302C110.332 169.662 110.292 169.032 110.282 168.412L105.012 171.192Z" fill="#E79E82"/>
</g>
</g>
<path d="M19.1028 159.192C19.1028 159.192 14.3328 170.402 21.3928 178.192L99.3328 180.782C99.3328 180.782 95.6528 174.782 98.1428 162.012L19.1028 159.192Z" fill="#49B3F7"/>
<path d="M25.4435 163.002C25.4435 163.002 22.3735 168.242 26.3235 175.482L85.4435 177.172C85.4435 177.172 81.9135 173.682 83.8535 164.842L25.4435 163.002Z" fill="#89CEFA"/>
<path d="M113.514 156.322L98.1436 162.002C98.1436 162.002 94.5036 172.422 99.3336 180.772L112.804 176.422V173.242L102.274 177.122C102.274 177.122 98.0436 174.122 101.214 163.952L113.394 160.192L113.514 156.322Z" fill="#0071BC"/>
<path d="M19.1016 159.192L48.6316 153.502L113.512 156.322L98.1416 161.982L19.1016 159.192Z" fill="#0071BC"/>
<path d="M51.632 187.802C51.632 187.802 51.632 191.102 49.932 192.872C48.232 194.642 42.932 197.282 43.332 200.462C43.732 203.642 54.632 201.882 60.802 197.112C66.972 192.342 62.502 189.532 60.802 187.222L51.632 187.802Z" fill="#808080"/>
<path d="M44.5721 145.662C44.5721 145.662 36.6321 161.442 39.8021 171.162C42.9721 180.882 51.452 190.222 51.452 190.222C51.452 190.222 58.682 191.632 60.802 187.222C60.802 187.222 54.452 178.932 59.392 165.522C59.392 165.522 63.452 152.762 57.632 147.142C51.812 141.522 47.3921 142.742 44.5721 145.662Z" fill="#2435A1"/>
<path d="M81.7132 187.802C81.7132 187.802 81.7132 191.102 83.4132 192.872C85.1132 194.642 90.3632 197.282 90.0132 200.462C89.6632 203.642 78.7132 201.882 72.5332 197.112C66.3532 192.342 70.8432 189.532 72.5332 187.222L81.7132 187.802Z" fill="#808080"/>
<path d="M88.7732 145.662C88.7732 145.662 96.7132 161.442 93.5332 171.162C90.3532 180.882 81.8932 190.222 81.8932 190.222C81.8932 190.222 74.6532 191.632 72.5332 187.222C72.5332 187.222 78.8932 178.932 73.9532 165.522C73.9532 165.522 69.8932 152.762 75.7132 147.142C81.5332 141.522 85.9532 142.742 88.7732 145.662Z" fill="#2435A1"/>
<path d="M99.0135 117.672C99.0135 117.762 99.0135 117.862 99.0135 117.962C98.8694 118.633 98.5661 119.259 98.1293 119.788C97.6925 120.317 97.1349 120.734 96.5035 121.002C95.2461 121.537 93.9305 121.923 92.5835 122.152C90.5835 122.612 88.6635 123.262 86.6835 123.712C84.2419 124.211 81.7697 124.545 79.2835 124.712C75.2835 125.072 71.2035 125.422 67.1535 125.422C60.0215 125.255 52.9179 124.466 45.9235 123.062C42.079 122.536 38.316 121.529 34.7235 120.062C32.8435 119.202 30.8935 117.842 30.6035 115.792C30.3135 113.742 31.9935 111.472 33.0335 109.792C34.2203 107.923 35.6086 106.189 37.1735 104.622C40.2604 101.37 44.0123 98.8223 48.1735 97.1521C49.8035 96.5121 51.4435 95.8821 53.1135 95.3721L53.8435 95.1521C54.3735 95.0021 54.9035 94.8721 55.4435 94.7521C62.3792 93.3213 69.5728 93.7912 76.2635 96.1121C77.5235 96.5221 78.7835 96.9921 80.0035 97.5021C80.5335 97.7221 81.0635 97.9521 81.5835 98.1921C85.4346 99.8291 88.9657 102.135 92.0135 105.002C94.8736 107.841 97.0546 111.291 98.3935 115.092C98.7658 115.904 98.9764 116.78 99.0135 117.672Z" fill="#FF6551"/>
<g style="mix-blend-mode:multiply" opacity="0.95">
<path d="M98.4033 115.052C96.6734 110.082 93.4932 105.746 89.2733 102.602C84.4133 107.022 77.5233 108.832 71.6833 109.602C62.6833 111.392 50.5133 106.742 46.6833 97.812C43.1246 99.4776 39.9066 101.79 37.1933 104.632C35.6168 106.184 34.2151 107.904 33.0133 109.762C32.0133 111.482 30.2933 113.682 30.5833 115.762C30.8733 117.842 32.8233 119.172 34.7033 120.032C38.2958 121.498 42.0588 122.506 45.9033 123.032C52.8977 124.436 60.0014 125.225 67.1333 125.392C71.1333 125.392 75.2233 125.032 79.2633 124.682C81.7495 124.514 84.2217 124.18 86.6633 123.682C88.6633 123.232 90.5833 122.582 92.5633 122.112C93.9165 121.902 95.2394 121.529 96.5033 121.002C97.1299 120.737 97.6845 120.327 98.121 119.806C98.5575 119.284 98.8634 118.666 99.0133 118.002C99.0133 117.902 99.0133 117.802 99.0133 117.712C98.9899 116.793 98.7824 115.889 98.4033 115.052Z" fill="#F8CC90"/>
</g>
<g style="mix-blend-mode:multiply">
<g style="mix-blend-mode:multiply">
<path d="M76.2927 96.0821C76.0327 96.5221 72.1227 100.082 65.0927 99.3621C58.7827 98.6921 56.1427 96.0521 55.4727 94.7221C62.4084 93.2913 69.602 93.7612 76.2927 96.0821Z" fill="#F7A845"/>
</g>
</g>
<path d="M73.0826 95.4422C73.0826 95.4422 71.2826 98.1722 65.3726 97.4422C59.4626 96.7122 58.1426 94.4422 58.1426 94.4422V92.2222V89.0022L72.1426 87.8622L73.4626 87.7522V88.5722L73.2626 92.8222L73.0826 95.4422Z" fill="#EA9573"/>
<g style="mix-blend-mode:multiply" opacity="0.31">
<path d="M73.2026 92.8323C71.3226 94.0923 68.9226 95.3223 66.7926 95.2423C62.5626 95.0823 58.2526 92.2923 58.1426 92.2423V89.0023L72.1426 87.8623L73.4226 88.5723L73.2026 92.8323Z" fill="#DD7258"/>
</g>
<path d="M101.064 53.0024C101.064 53.0024 106.634 50.3924 109.744 54.3324C112.854 58.2724 107.924 68.2424 104.154 69.2224C100.384 70.2024 98.9141 69.2224 98.9141 69.2224L101.064 53.0024Z" fill="#FFBF94"/>
<path d="M31.3022 52.8623C31.3022 52.8623 25.7322 50.2423 22.6122 54.1623C19.4922 58.0823 24.4022 68.0923 28.1622 69.0723C31.9222 70.0523 33.4022 69.0723 33.4022 69.0723L31.3022 52.8623Z" fill="#FFBF94"/>
<path d="M103.703 38.0022C103.703 38.0022 102.703 52.6522 101.043 64.4322C100.803 66.2022 100.543 67.9022 100.283 69.4322C99.4834 74.1622 98.5734 77.7622 97.6134 78.6622C94.1434 82.0022 74.4834 92.5622 66.7834 92.0522C59.0834 91.5422 38.7834 81.7822 35.5234 78.2522C34.5234 77.1322 33.3434 73.1622 32.3034 68.2522C30.0734 57.8922 28.1934 43.4322 28.1934 43.4322C29.0134 19.6622 42.3234 11.6322 68.0134 10.8222C93.7034 10.0122 103.703 38.0022 103.703 38.0022Z" fill="#FFBF94"/>
<g opacity="0.27">
<path opacity="0.27" d="M84.6929 19.0923C84.6929 19.0923 81.6229 2.86227 64.2929 3.09227C57.009 3.22898 49.8463 4.98091 43.3216 8.22163C36.7969 11.4623 31.073 16.111 26.5629 21.8323C22.2086 27.4772 20.2483 34.6078 21.1052 41.6853C21.962 48.7627 25.5673 55.2196 31.1429 59.6623C31.1429 59.6623 35.1429 52.2823 39.0729 46.5023C39.0729 46.5023 61.2229 56.1823 82.0729 38.0723C82.0629 38.0723 87.7629 29.1923 84.6929 19.0923Z" fill="#DA8966"/>
<path opacity="0.27" d="M81.0134 28.7923C81.0134 28.7923 80.3534 39.1323 87.1534 45.3423C93.9534 51.5523 99.2134 52.2123 99.2134 52.2123C99.2134 52.2123 102.943 59.2123 100.313 66.6923C100.313 66.6923 109.813 57.7723 108.313 39.2623C106.813 20.7523 97.8134 14.7023 80.9434 14.9223L81.0134 28.7923Z" fill="#DA8966"/>
</g>
<path d="M80.3238 47.0522C80.6038 47.4922 81.1038 47.4422 81.5838 47.4922C82.0638 47.5422 82.6838 47.5522 83.2438 47.5722C84.3272 47.5681 85.402 47.7647 86.4138 48.1522C87.3371 48.5755 88.2093 49.1022 89.0138 49.7222C89.4002 50.0259 89.8042 50.3063 90.2238 50.5622C90.4594 50.7101 90.711 50.8309 90.9738 50.9222C91.2338 50.9922 91.4838 50.9222 91.7238 51.0422C91.9638 51.1622 92.2038 50.7922 92.0938 50.5622C91.9838 50.3322 92.0138 50.0122 91.8838 49.7522C91.7329 49.4677 91.5483 49.2024 91.3338 48.9622C90.9384 48.5068 90.4959 48.0945 90.0138 47.7322C89.0251 46.9701 87.912 46.3848 86.7238 46.0022C85.4811 45.6399 84.1759 45.5445 82.8938 45.7222C82.4938 45.7222 79.7538 46.1622 80.3238 47.0522Z" fill="#5F130F"/>
<g style="mix-blend-mode:multiply" opacity="0.44">
<path d="M30.9527 65.3022C28.8366 64.2757 27.1838 62.4909 26.3227 60.3022C25.9927 59.3022 26.0727 57.7822 27.3227 57.6122C28.3827 57.4722 28.8127 58.8522 29.3227 59.6122C29.5727 59.9822 30.2427 59.7622 30.0827 59.2922C29.6527 58.0322 29.2327 56.4422 27.6627 56.2922C26.9063 56.2568 26.1665 56.5217 25.6046 57.0293C25.0427 57.537 24.7041 58.2461 24.6627 59.0022C24.4527 60.8222 25.5527 62.5222 26.5827 63.9222C27.6127 65.3222 29.0127 66.4122 30.8527 66.0022C30.9188 65.9751 30.9767 65.9312 31.0206 65.8748C31.0646 65.8184 31.093 65.7516 31.1031 65.6808C31.1132 65.6101 31.1046 65.5379 31.0783 65.4715C31.0519 65.4051 31.0086 65.3467 30.9527 65.3022Z" fill="#DA8966"/>
</g>
<g style="mix-blend-mode:multiply" opacity="0.44">
<path d="M108.213 58.8323C108.123 57.4623 106.983 56.2323 105.533 56.8323C104.533 57.2223 102.983 59.1123 104.053 60.0923C104.08 60.1171 104.113 60.1357 104.149 60.1468C104.184 60.1579 104.222 60.1611 104.259 60.1564C104.296 60.1516 104.332 60.139 104.363 60.1193C104.395 60.0996 104.422 60.0733 104.443 60.0423C104.983 59.3323 105.043 58.1623 106.083 57.8923C107.503 57.5323 107.083 59.8923 106.883 60.6223C106.723 61.4718 106.382 62.2768 105.883 62.9823C105.272 63.6274 104.518 64.1206 103.683 64.4223C103.643 64.4455 103.61 64.4774 103.585 64.5156C103.559 64.5538 103.543 64.5972 103.538 64.6426C103.532 64.6879 103.536 64.734 103.551 64.7773C103.566 64.8205 103.59 64.8599 103.623 64.8923C104.753 66.1323 106.403 64.4723 107.033 63.4723C107.873 62.0748 108.283 60.4612 108.213 58.8323Z" fill="#DA8966"/>
</g>
<path d="M48.6334 47.7522C47.8734 46.9422 46.3634 47.2422 45.3834 47.3822C44.2675 47.5589 43.183 47.8957 42.1634 48.3822C41.1726 48.8389 40.2421 49.4167 39.3934 50.1022C38.6634 50.6822 37.3934 51.7522 37.7434 52.8022C37.7874 52.9468 37.8758 53.0738 37.996 53.1653C38.1163 53.2569 38.2623 53.3083 38.4134 53.3122C39.3034 53.4122 40.2034 52.3122 40.8534 51.8322C41.5917 51.2725 42.394 50.8025 43.2434 50.4322C44.067 50.0926 44.9207 49.8315 45.7934 49.6522C46.7034 49.4522 47.9234 49.6522 48.6334 48.9422C48.7849 48.7871 48.8697 48.579 48.8697 48.3622C48.8697 48.1454 48.7849 47.9372 48.6334 47.7822V47.7522Z" fill="#5F130F"/>
<path d="M76.2238 76.0521C75.7096 78.0514 74.7717 79.9168 73.4738 81.5221C72.5667 82.6196 71.4266 83.5013 70.1362 84.1032C68.8459 84.7052 67.4377 85.0122 66.0138 85.0021C64.4207 85.0798 62.8344 84.7451 61.4084 84.0304C59.9824 83.3156 58.765 82.245 57.8738 80.9221C56.807 79.3801 56.0247 77.6596 55.5638 75.8421C55.4946 75.5919 55.5195 75.3251 55.6338 75.0921C55.7446 74.8355 55.9489 74.6306 56.2052 74.5192C56.4615 74.4078 56.7506 74.3981 57.0138 74.4921L57.3738 74.6121C63.014 76.432 69.0837 76.432 74.7238 74.6121C74.8469 74.5735 74.9749 74.5533 75.1038 74.5521C75.3559 74.5517 75.6017 74.6307 75.8063 74.7779C76.0109 74.9251 76.164 75.133 76.2439 75.3721C76.3065 75.5955 76.2996 75.8327 76.2238 76.0521Z" fill="#831532"/>
<path d="M76.203 75.3422C73.2021 77.5187 69.6092 78.7291 65.903 78.8122C62.171 78.6723 58.5764 77.3681 55.623 75.0822C55.7357 74.8251 55.9424 74.6207 56.2008 74.511C56.4592 74.4013 56.7498 74.3946 57.013 74.4922L57.373 74.6122C63.0132 76.4321 69.0829 76.4321 74.723 74.6122C74.8461 74.5736 74.9741 74.5534 75.103 74.5522C75.3446 74.5578 75.5789 74.6362 75.7751 74.7772C75.9714 74.9182 76.1206 75.1151 76.203 75.3422Z" fill="white"/>
<path d="M73.473 81.5223C72.5659 82.6197 71.4258 83.5015 70.1354 84.1034C68.8451 84.7053 67.4369 85.0124 66.013 85.0023C64.4199 85.08 62.8336 84.7453 61.4076 84.0305C59.9816 83.3158 58.7642 82.2452 57.873 80.9223C63.028 79.6712 68.4294 79.8789 73.473 81.5223Z" fill="#FF6551"/>
<path d="M50.6871 72.6643C51.0884 70.9942 48.8844 69.0327 45.7644 68.283C42.6444 67.5334 39.7899 68.2796 39.3887 69.9497C38.9874 71.6198 41.1914 73.5813 44.3113 74.3309C47.4313 75.0806 50.2859 74.3344 50.6871 72.6643Z" fill="#F2786B"/>
<path d="M88.0468 74.4421C91.2242 73.9944 93.6057 72.2527 93.366 70.5519C93.1264 68.8511 90.3563 67.8352 87.179 68.2829C84.0016 68.7306 81.62 70.4723 81.8597 72.1731C82.0993 73.8739 84.8694 74.8898 88.0468 74.4421Z" fill="#F2786B"/>
<g style="mix-blend-mode:multiply" opacity="0.21">
<g style="mix-blend-mode:multiply" opacity="0.21">
<path d="M65.4431 67.3022C64.3945 67.3325 63.3674 67.6064 62.4431 68.1022C62.3719 68.1373 62.3076 68.1847 62.2531 68.2422C62.0731 68.4822 62.3631 68.7922 62.6331 68.9322C64.3882 69.7014 66.3612 69.8149 68.1931 69.2522C68.6455 69.1844 69.0708 68.9942 69.4231 68.7022C69.6231 68.5022 69.7431 68.1422 69.5431 67.9522C69.446 67.8796 69.3328 67.8315 69.2131 67.8122C67.4917 67.4522 65.7144 67.4522 63.9931 67.8122L65.4431 67.3022Z" fill="#DA8966"/>
</g>
</g>
<path d="M62.3343 68.4921C62.8043 68.3221 63.1943 68.0021 63.6843 67.8521C64.2573 67.6959 64.8509 67.6285 65.4443 67.6521C66.0058 67.6369 66.5676 67.667 67.1243 67.7421C67.689 67.8427 68.213 68.1029 68.6343 68.4921C69.1043 68.8921 69.8843 68.3922 69.5343 67.8022C68.7643 66.5022 66.8543 66.4922 65.5343 66.5122C64.4143 66.5122 62.2143 66.6521 61.9043 68.0621C61.9043 68.3021 62.0643 68.5921 62.3343 68.4921Z" fill="#D88261"/>
<path d="M78.0839 64.0021C77.4612 63.3408 76.9943 62.5485 76.7175 61.6834C76.4406 60.8182 76.3608 59.9021 76.4839 59.0021C76.7435 57.1936 77.6932 55.5558 79.1339 54.4321C80.5413 53.3009 82.3375 52.7692 84.1339 52.9521C85.0309 53.0587 85.8897 53.3773 86.6392 53.8815C87.3886 54.3858 88.0073 55.0613 88.4439 55.8521C88.6873 56.3556 88.8815 56.8813 89.0239 57.4221C89.3354 58.4343 89.4308 59.5007 89.3039 60.5521C88.9407 62.173 87.9848 63.5997 86.6239 64.5521C85.6318 65.3799 84.3948 65.8578 83.1039 65.9121C81.7361 65.7819 80.4227 65.3109 79.2839 64.5421C78.4518 64.1938 77.7857 63.5385 77.4239 62.7121L78.0839 64.0021Z" fill="white"/>
<path d="M55.2025 63.8322C55.5899 63.0114 55.7908 62.1149 55.7908 61.2072C55.7908 60.2995 55.5899 59.4031 55.2025 58.5822C54.4084 56.9338 53.0127 55.6526 51.3025 55.0022C49.6023 54.3448 47.7109 54.388 46.0425 55.1222C45.2224 55.498 44.5031 56.0628 43.9434 56.7703C43.3837 57.4777 42.9996 58.3077 42.8225 59.1922C42.7358 59.7477 42.709 60.311 42.7425 60.8722C42.7402 61.9524 42.9722 63.0203 43.4225 64.0022C44.257 65.4409 45.6031 66.5121 47.1925 67.0022C48.3898 67.4907 49.7146 67.5715 50.9625 67.2322C52.2267 66.6979 53.3346 65.8515 54.1825 64.7722C54.8754 64.1912 55.3133 63.3621 55.4025 62.4622L55.2025 63.8322Z" fill="white"/>
<path d="M88.594 61.1323C88.5119 60.0817 88.1313 59.0765 87.497 58.235C86.8628 57.3935 86.0013 56.7507 85.014 56.3823C82.284 55.4923 78.754 56.8523 77.864 59.5323C77.6976 59.8152 77.5666 60.1174 77.474 60.4323C76.044 65.1223 81.914 67.0923 85.474 65.7223C86.4304 65.413 87.2564 64.7938 87.8215 63.9626C88.3865 63.1313 88.6584 62.1354 88.594 61.1323Z" fill="#2D2D2D"/>
<path d="M53.8237 59.3123L53.5837 59.0023C52.904 58.3534 52.0673 57.8924 51.1557 57.6645C50.2441 57.4366 49.2888 57.4496 48.3837 57.7023C47.4251 57.9053 46.5423 58.3725 45.8354 59.0512C45.1285 59.7298 44.6257 60.5927 44.3837 61.5423C43.9337 63.5423 44.3137 65.8523 46.2337 66.9823C49.4337 68.8823 55.5737 66.8223 55.4937 62.6023C55.4805 61.9637 55.3235 61.3362 55.0344 60.7666C54.7452 60.197 54.3314 59.6999 53.8237 59.3123Z" fill="#2D2D2D"/>
<path d="M79.9439 62.4422C79.8582 62.6695 79.8202 62.9119 79.8323 63.1545C79.8443 63.3971 79.9061 63.6346 80.0139 63.8522C80.0771 64.2167 80.2718 64.5454 80.5612 64.7758C80.8506 65.0062 81.2145 65.1224 81.5839 65.1022C82.028 65.0827 82.4529 64.9158 82.7915 64.6278C83.1301 64.3399 83.3632 63.9474 83.4539 63.5122C83.8639 61.4422 80.7239 60.4122 79.9439 62.4422Z" fill="white"/>
<path d="M53.0127 62.9421C53.166 63.1322 53.2773 63.3525 53.3394 63.5886C53.4014 63.8247 53.4128 64.0713 53.3727 64.3121C53.4255 64.6864 53.3369 65.0669 53.1243 65.3793C52.9116 65.6918 52.5902 65.9138 52.2227 66.0021C51.787 66.1152 51.3259 66.078 50.914 65.8966C50.5021 65.7151 50.1634 65.4 49.9527 65.0021C48.9327 63.1821 51.6127 61.2521 53.0127 62.9421Z" fill="white"/>
<path d="M29.1922 50.4524L24.8122 41.0024C24.8122 41.0024 -0.637758 45.6724 0.0122422 82.0024C1.73428 82.8582 3.51953 83.5803 5.35224 84.1624C5.17072 80.9997 5.81153 77.8439 7.21224 75.0024C7.51871 78.4064 8.08029 81.7826 8.89224 85.1024C11.0613 85.6093 13.2757 85.8974 15.5022 85.9624C14.9457 82.3217 15.0371 78.6113 15.7722 75.0024C16.5848 78.6675 17.6677 82.2674 19.0122 85.7724C21.0002 85.5603 22.9452 85.0513 24.7822 84.2624C24.7822 84.2624 19.3222 62.7324 29.1922 50.4524Z" fill="#672410"/>
<path d="M107.283 36.6323L103.553 48.8123C106.567 53.5109 108.108 59.0032 107.978 64.584C107.848 70.1648 106.053 75.5793 102.823 80.1323C102.42 80.835 102.056 81.5595 101.733 82.3023C101.543 82.6623 101.353 83.0123 101.143 83.3723C103.154 84.7593 105.348 85.8599 107.663 86.6423C109.213 83.6967 110.312 80.5347 110.923 77.2623C110.923 77.2623 111.623 83.1323 110.363 87.4323C112.915 88.0587 115.554 88.2614 118.173 88.0323C119.937 84.9929 121.012 81.603 121.323 78.1023C121.715 81.1925 121.832 84.3114 121.673 87.4223C123.456 86.9625 125.178 86.291 126.803 85.4223C126.803 85.4223 144.353 44.3123 107.283 36.6323Z" fill="#672410"/>
<path d="M5.83199 68.4923H5.78199C5.65753 68.4874 5.53538 68.4572 5.42293 68.4037C5.31047 68.3501 5.21006 68.2743 5.12778 68.1808C5.0455 68.0873 4.98306 67.9781 4.94425 67.8597C4.90544 67.7414 4.89106 67.6164 4.90199 67.4923C5.38199 58.4323 12.012 50.0023 18.432 45.7323C18.6363 45.5946 18.8868 45.5436 19.1287 45.5905C19.3705 45.6373 19.5839 45.7783 19.722 45.9823C19.8602 46.1882 19.9115 46.4403 19.8646 46.6838C19.8178 46.9273 19.6767 47.1424 19.472 47.2823C13.662 51.1923 7.20199 59.2223 6.76199 67.6123C6.74918 67.8502 6.64557 68.0741 6.47253 68.2378C6.29949 68.4016 6.07021 68.4926 5.83199 68.4923Z" fill="#772F1E"/>
<path d="M11.8718 74.7424C11.6269 74.7424 11.3918 74.6458 11.2177 74.4736C11.0436 74.3013 10.9444 74.0673 10.9418 73.8224C10.7818 63.0024 13.6918 55.1024 20.3618 48.3724C20.5355 48.196 20.7722 48.0959 21.0197 48.094C21.2673 48.0921 21.5054 48.1887 21.6818 48.3624C21.8582 48.5361 21.9583 48.7728 21.9602 49.0203C21.962 49.2679 21.8655 49.506 21.6918 49.6824C15.4018 56.0324 12.6918 63.4724 12.8018 73.8024C12.8031 73.9245 12.7804 74.0457 12.7348 74.1591C12.6893 74.2724 12.6219 74.3757 12.5365 74.463C12.4511 74.5502 12.3493 74.6199 12.2369 74.6678C12.1246 74.7157 12.0039 74.7411 11.8818 74.7424H11.8718Z" fill="#772F1E"/>
<path d="M19.7626 76.0624C19.5392 76.0601 19.3239 75.9783 19.1553 75.8318C18.9867 75.6852 18.8758 75.4833 18.8426 75.2624C16.7226 60.4224 23.0726 52.9624 23.3426 52.6524C23.4202 52.5524 23.5174 52.4692 23.6282 52.4081C23.7391 52.347 23.8612 52.3091 23.9872 52.2969C24.1132 52.2846 24.2404 52.2982 24.3609 52.3368C24.4815 52.3754 24.5929 52.4382 24.6883 52.5213C24.7838 52.6045 24.8612 52.7063 24.9159 52.8204C24.9707 52.9346 25.0015 53.0587 25.0066 53.1852C25.0117 53.3117 24.9909 53.4378 24.9455 53.556C24.9001 53.6742 24.831 53.7818 24.7426 53.8724C24.6726 53.9624 18.7426 61.0824 20.6926 74.9924C20.727 75.2375 20.6633 75.4863 20.5154 75.6847C20.3675 75.8832 20.1473 76.0153 19.9026 76.0524L19.7626 76.0624Z" fill="#772F1E"/>
<path d="M113.553 73.7822H113.403C113.282 73.7641 113.165 73.7218 113.06 73.6578C112.955 73.5938 112.864 73.5095 112.793 73.4097C112.721 73.31 112.67 73.1969 112.642 73.0771C112.615 72.9573 112.612 72.8332 112.633 72.7122C113.283 68.7122 114.233 58.8023 108.923 53.9723C108.832 53.8898 108.758 53.7902 108.706 53.679C108.654 53.5679 108.624 53.4475 108.618 53.3248C108.613 53.202 108.631 53.0794 108.673 52.964C108.716 52.8485 108.78 52.7426 108.863 52.6523C108.945 52.5614 109.044 52.4878 109.154 52.4355C109.264 52.3833 109.384 52.3535 109.506 52.3479C109.628 52.3423 109.75 52.361 109.864 52.403C109.979 52.4449 110.084 52.5093 110.173 52.5922C115.943 57.8422 115.343 67.6423 114.473 73.0123C114.434 73.2277 114.32 73.4225 114.152 73.5631C113.984 73.7037 113.772 73.7812 113.553 73.7822Z" fill="#772F1E"/>
<path d="M119.552 77.2823H119.392C119.271 77.2618 119.155 77.2175 119.052 77.152C118.948 77.0864 118.858 77.001 118.787 76.9006C118.717 76.8002 118.667 76.6868 118.64 76.567C118.613 76.4471 118.611 76.3232 118.632 76.2023C120.772 64.1323 118.552 55.0423 111.632 47.6023C111.545 47.5159 111.476 47.413 111.429 47.2998C111.382 47.1865 111.357 47.065 111.357 46.9423C111.357 46.8196 111.382 46.6981 111.429 46.5848C111.476 46.4716 111.545 46.3688 111.632 46.2823C111.821 46.1288 112.059 46.0491 112.302 46.0583C112.545 46.0675 112.776 46.1649 112.952 46.3323C120.292 54.2423 122.662 63.8323 120.422 76.5323C120.381 76.7359 120.273 76.92 120.115 77.0557C119.958 77.1914 119.76 77.2711 119.552 77.2823Z" fill="#772F1E"/>
<path d="M126.302 72.8723H126.192C125.952 72.847 125.73 72.7279 125.577 72.5407C125.423 72.3535 125.35 72.1134 125.372 71.8723C126.372 62.5923 123.772 46.6623 112.312 43.4323C112.075 43.3647 111.874 43.2055 111.754 42.9899C111.634 42.7742 111.605 42.5197 111.672 42.2823C111.74 42.0449 111.899 41.8442 112.115 41.7241C112.33 41.6041 112.585 41.5747 112.822 41.6423C125.382 45.1823 128.322 62.1923 127.222 72.0823C127.191 72.3031 127.08 72.505 126.911 72.6503C126.742 72.7957 126.525 72.8745 126.302 72.8723Z" fill="#772F1E"/>
<path d="M26.6321 59.6622C26.3069 59.6635 25.986 59.5886 25.695 59.4434C25.404 59.2982 25.1512 59.0868 24.9567 58.8262C24.7622 58.5656 24.6315 58.2631 24.5751 57.9428C24.5188 57.6226 24.5383 57.2936 24.6321 56.9822C24.1927 57.28 23.658 57.403 23.1327 57.3272C22.6074 57.2513 22.1293 56.9821 21.7921 56.5722C21.4755 56.1482 21.2589 55.6581 21.1585 55.1386C21.0581 54.6191 21.0764 54.0836 21.2121 53.5722C21.5029 52.5506 21.948 51.5794 22.5321 50.6922C20.8821 50.8522 18.9321 50.8922 17.9021 49.5922C16.8721 48.2922 17.5821 46.0022 19.0121 44.8322C17.9887 44.57 17.0663 44.0096 16.3621 43.2222C15.1121 41.6122 16.1821 38.6722 17.8321 37.7422C20.5521 36.2322 24.6921 38.1922 26.3021 40.5422C26.9048 41.4977 27.3916 42.5216 27.7521 43.5922C28.8921 46.5922 30.6621 50.5022 30.1021 53.8122C29.7621 55.6022 28.8821 59.5122 26.6321 59.6622Z" fill="#FF6551"/>
<path d="M115.922 38.5621C116.046 39.0579 116.072 39.5732 115.997 40.0788C115.922 40.5844 115.748 41.0702 115.485 41.5085C115.222 41.9469 114.876 42.3291 114.465 42.6335C114.054 42.9378 113.588 43.1582 113.092 43.2821C113.752 44.3421 115.092 44.9321 115.532 46.0921C115.71 46.7273 115.679 47.4029 115.443 48.0188C115.207 48.6348 114.779 49.1584 114.222 49.5121C113.097 50.2011 111.833 50.6315 110.522 50.7721C110.997 52.3531 111.203 54.0028 111.132 55.6521C111.095 56.4786 110.873 57.2863 110.484 58.0164C110.095 58.7464 109.547 59.3804 108.882 59.8721C108.201 60.3415 107.375 60.553 106.552 60.4687C105.729 60.3844 104.964 60.0099 104.392 59.4121C103.8 58.5626 103.454 57.5659 103.392 56.5321C102.862 53.7653 102.724 50.9375 102.982 48.1321C103.19 46.7986 103.494 45.4819 103.892 44.1921C104.712 41.1921 105.822 38.6921 108.632 37.2421C111.082 36.0021 114.842 35.0021 115.922 38.5621Z" fill="#FF6551"/>
<path d="M84.6916 16.0022C84.6916 16.0022 81.6216 -0.217782 64.2916 0.00221791C57.0059 0.139934 49.8417 1.89434 43.3167 5.13868C36.7917 8.38302 31.0688 13.0363 26.5616 18.7622C19.1116 28.0822 17.7916 49.3522 31.3916 60.5422C31.3916 60.5422 34.2416 47.7522 38.1916 41.9722C38.1916 41.9722 61.1916 53.1022 82.0616 34.9722C82.0616 35.0022 87.7616 26.1122 84.6916 16.0022Z" fill="#672410"/>
<path d="M81.0122 25.7222C81.0122 25.7222 80.3522 36.0522 87.1522 42.2622C93.9522 48.4722 99.2122 49.1322 99.2122 49.1322C99.2122 49.1322 102.942 59.2422 100.312 66.6922C104.109 62.9675 107.025 58.4412 108.847 53.4443C110.669 48.4475 111.35 43.1065 110.842 37.8122C109.302 19.3022 97.8422 11.6322 80.9922 11.8122L81.0122 25.7222Z" fill="#672410"/>
<path d="M30.9329 59.5323C30.735 59.5323 30.5424 59.4692 30.3829 59.3523C24.0029 54.7323 22.6429 44.6523 24.1229 36.7223C24.1758 36.4844 24.319 36.2763 24.5223 36.142C24.7257 36.0077 24.9733 35.9576 25.2129 36.0023C25.3355 36.0182 25.4537 36.0584 25.5606 36.1206C25.6675 36.1827 25.7609 36.2656 25.8354 36.3643C25.9099 36.463 25.964 36.5756 25.9944 36.6954C26.0249 36.8153 26.0312 36.94 26.0129 37.0623C24.6829 44.1823 25.8329 53.7223 31.5229 57.8423C31.724 57.9885 31.859 58.2084 31.8984 58.4539C31.9378 58.6994 31.8782 58.9506 31.7329 59.1523C31.6416 59.2771 31.5207 59.3773 31.381 59.4436C31.2413 59.51 31.0873 59.5404 30.9329 59.5323Z" fill="#772F1E"/>
<path d="M30.5516 55.3721C30.3371 55.3697 30.1299 55.294 29.9643 55.1575C29.7988 55.0211 29.6849 54.8322 29.6416 54.6221C27.3716 43.7121 28.0316 27.6221 37.3716 18.2721C39.8016 15.8321 42.8216 12.8021 46.7616 11.8621C46.8804 11.8339 47.0037 11.8293 47.1243 11.8487C47.2449 11.8681 47.3605 11.9111 47.4645 11.9751C47.5685 12.0392 47.6588 12.1231 47.7304 12.2221C47.802 12.3211 47.8533 12.4333 47.8816 12.5521C47.9098 12.6709 47.9144 12.7942 47.895 12.9148C47.8756 13.0354 47.8326 13.151 47.7685 13.255C47.7045 13.359 47.6205 13.4494 47.5215 13.5209C47.4225 13.5925 47.3104 13.6439 47.1916 13.6721C43.7716 14.4921 40.9516 17.3121 38.6916 19.5821C29.8716 28.4321 29.2916 43.7821 31.4716 54.2421C31.5221 54.4847 31.4748 54.7374 31.3399 54.9452C31.2051 55.1531 30.9937 55.2993 30.7516 55.3521L30.5516 55.3721Z" fill="#772F1E"/>
<path d="M34.4226 48.1423H34.2126C33.9757 48.0723 33.7732 47.9171 33.6439 47.7066C33.5147 47.4961 33.4679 47.2452 33.5126 47.0023C35.2326 39.8123 39.3726 33.6123 42.7126 30.6623C47.0364 26.7197 52.4623 24.1935 58.2626 23.4223C58.5031 23.4026 58.7419 23.477 58.9285 23.6301C59.1151 23.7831 59.2349 24.0026 59.2626 24.2423C59.285 24.4834 59.2115 24.7235 59.058 24.9107C58.9045 25.0979 58.6834 25.217 58.4426 25.2423C53.0361 25.9748 47.9796 28.3322 43.9426 32.0023C40.8226 34.7623 36.9426 40.5923 35.3326 47.3923C35.2893 47.6024 35.1754 47.7913 35.0099 47.9278C34.8443 48.0642 34.6371 48.1399 34.4226 48.1423Z" fill="#772F1E"/>
<path d="M41.8917 41.4722C41.7429 41.4734 41.5961 41.4386 41.4637 41.3707C41.3313 41.3028 41.2174 41.2038 41.1317 41.0822C41.06 40.9831 41.0085 40.8708 40.9802 40.7518C40.952 40.6328 40.9475 40.5093 40.967 40.3886C40.9865 40.2678 41.0296 40.1521 41.0939 40.048C41.1582 39.944 41.2424 39.8536 41.3417 39.7822C45.7341 36.6288 50.6799 34.3289 55.9217 33.0022C56.0405 32.972 56.1642 32.9655 56.2855 32.983C56.4069 33.0006 56.5236 33.0419 56.629 33.1046C56.7344 33.1673 56.8264 33.2501 56.8998 33.3483C56.9732 33.4466 57.0265 33.5583 57.0567 33.6772C57.0869 33.796 57.0934 33.9196 57.0758 34.041C57.0582 34.1624 57.0169 34.2791 56.9543 34.3845C56.8916 34.4898 56.8088 34.5819 56.7105 34.6553C56.6123 34.7286 56.5005 34.782 56.3817 34.8122C51.3672 36.0751 46.6349 38.27 42.4317 41.2822C42.2772 41.4026 42.0876 41.4693 41.8917 41.4722Z" fill="#772F1E"/>
<path d="M50.7113 41.8222C50.4731 41.8225 50.2438 41.7314 50.0708 41.5677C49.8977 41.4039 49.7941 41.18 49.7813 40.9422C49.7732 40.8187 49.7895 40.6948 49.8294 40.5776C49.8693 40.4604 49.9319 40.3523 50.0136 40.2594C50.0954 40.1665 50.1947 40.0906 50.3058 40.0362C50.417 39.9817 50.5378 39.9498 50.6613 39.9422C54.1143 39.8289 57.5507 39.414 60.9313 38.7022C65.2213 37.6766 69.2237 35.6938 72.6388 32.9022C76.0538 30.1106 78.793 26.5825 80.6513 22.5822C80.7548 22.3581 80.943 22.1842 81.1746 22.0989C81.4062 22.0136 81.6622 22.0237 81.8863 22.1272C82.1104 22.2306 82.2843 22.4188 82.3696 22.6504C82.4549 22.882 82.4448 23.1381 82.3413 23.3622C80.3664 27.6242 77.4505 31.3829 73.8131 34.3552C70.1757 37.3275 65.9114 39.436 61.3413 40.5222C57.856 41.2617 54.3123 41.6934 50.7513 41.8122L50.7113 41.8222Z" fill="#772F1E"/>
<path d="M101.272 51.4222C101.094 51.4233 100.919 51.3729 100.768 51.2772C100.617 51.1814 100.497 51.0443 100.422 50.8822C99.1024 48.0022 97.1724 46.6622 94.7324 45.0022C94.0324 44.5222 93.2924 44.0022 92.5424 43.4722C90.5424 42.0122 88.2124 39.6122 88.1024 36.4722C88.0971 36.3467 88.1166 36.2215 88.1598 36.1037C88.2029 35.9858 88.2689 35.8775 88.3538 35.7852C88.4388 35.6928 88.5411 35.618 88.655 35.5652C88.7688 35.5123 88.892 35.4824 89.0174 35.4772C89.1428 35.4719 89.268 35.4914 89.3859 35.5345C89.5038 35.5777 89.612 35.6436 89.7044 35.7286C89.7968 35.8136 89.8716 35.9159 89.9244 36.0297C89.9772 36.1436 90.0072 36.2667 90.0124 36.3922C90.1024 38.8122 92.0124 40.7722 93.7024 41.9822C94.4324 42.5222 95.1424 42.9822 95.8324 43.4722C98.3024 45.1422 100.632 46.7222 102.172 50.1122C102.222 50.2238 102.25 50.3441 102.253 50.4664C102.257 50.5887 102.236 50.7104 102.193 50.8247C102.149 50.9389 102.083 51.0434 101.999 51.1322C101.915 51.221 101.814 51.2924 101.702 51.3422C101.569 51.4063 101.42 51.4339 101.272 51.4222Z" fill="#772F1E"/>
<path d="M105.012 60.3621H104.842C104.599 60.3183 104.384 60.1799 104.244 59.9774C104.103 59.7749 104.048 59.5248 104.092 59.2821C105.432 51.7021 104.472 41.4821 97.7821 35.5121C97.5991 35.3456 97.489 35.1136 97.4759 34.8665C97.4628 34.6194 97.5477 34.3771 97.7121 34.1921C97.8738 34.0098 98.1006 33.8982 98.3437 33.8814C98.5869 33.8645 98.8269 33.9438 99.0121 34.1021C106.272 40.5721 107.342 51.5121 105.912 59.5921C105.875 59.8051 105.765 59.9984 105.601 60.1389C105.436 60.2795 105.228 60.3584 105.012 60.3621Z" fill="#772F1E"/>
<g style="mix-blend-mode:screen" opacity="0.27">
<path d="M110.792 37.8122C109.332 20.1722 98.8622 12.3822 83.2722 11.8722C81.1022 7.08222 75.8922 -0.127778 64.2722 0.00222196C56.9899 0.142881 49.8296 1.8987 43.3083 5.14293C36.787 8.38716 31.0673 13.0389 26.5622 18.7622C20.0822 26.8622 18.2422 44.0122 26.8222 55.7022C24.2622 48.4522 23.3122 40.2322 25.4522 33.0022C28.4522 23.0022 36.2922 14.6322 45.6022 10.1622C55.8522 5.24222 68.2322 7.65222 76.8922 14.8722C76.408 12.3663 75.4764 9.96802 74.1422 7.79222C77.3209 10.5488 79.8309 13.9923 81.4822 17.8622L82.6822 14.5122C82.9422 15.5122 83.1922 16.4522 83.4422 17.4222C87.3584 16.6431 91.4041 16.8111 95.2422 17.9122L87.9322 20.3322C91.1522 19.2722 96.3922 21.0422 99.0322 22.7722C102.339 25.1114 105.018 28.2302 106.832 31.8522C108.699 35.2448 110.067 38.889 110.892 42.6722C110.957 41.0517 110.923 39.4287 110.792 37.8122Z" fill="#772F1E"/>
</g>
<path d="M11.5605 107.602C11.5605 107.602 18.4405 104.132 16.6805 94.0322C16.6805 94.0322 51.7405 100.872 64.6805 117.952C64.6805 117.952 84.1205 103.952 116.411 97.8122C116.411 97.8122 115.881 106.352 121.181 110.092L69.3806 139.682L11.5605 107.602Z" fill="#FFEBDD"/>
<g style="mix-blend-mode:multiply" opacity="0.41">
<path d="M50.3405 129.112L98.4305 123.112L121.151 110.112C119.312 108.729 117.969 106.79 117.321 104.582L75.5905 115.792C75.5905 115.792 71.0305 120.262 65.6605 120.602C64.2179 120.766 62.7593 120.496 61.4701 119.829C60.1809 119.161 59.1194 118.125 58.4205 116.852L15.0905 104.122C14.217 105.554 13.0047 106.749 11.5605 107.602L50.3405 129.112Z" fill="#E79E82"/>
</g>
<g style="mix-blend-mode:multiply" opacity="0.41">
<g style="mix-blend-mode:multiply" opacity="0.41">
<path d="M49.2718 111.552C49.2718 111.552 31.1618 102.552 16.8618 99.0222C16.7667 99.8306 16.5925 100.628 16.3418 101.402C27.5414 104.015 38.5448 107.406 49.2718 111.552Z" fill="#E79E82"/>
</g>
<g style="mix-blend-mode:multiply" opacity="0.41">
<path d="M89.3809 109.672C89.3809 109.672 106.541 104.672 116.891 103.002C116.69 102.153 116.55 101.291 116.471 100.422C110.271 102.232 97.0109 106.262 89.3809 109.672Z" fill="#E79E82"/>
</g>
<g style="mix-blend-mode:multiply" opacity="0.41">
<path d="M116.382 97.8122C84.0916 104.002 64.6516 118.002 64.6516 118.002C51.7416 100.872 16.6816 94.0022 16.6816 94.0022C16.8016 94.7022 16.8716 95.3622 16.9216 96.0022C24.4516 97.3022 48.7716 102.602 64.9216 118.942C64.9216 118.942 89.7416 103.142 116.392 99.1022C116.352 98.3222 116.382 97.8122 116.382 97.8122Z" fill="#E79E82"/>
</g>
</g>
<path d="M7.12109 107.602L9.12109 104.992L57.1511 118.102C57.1511 118.102 59.5611 122.152 66.0511 122.152C70.3311 122.152 75.3811 117.952 75.3811 117.952L122.741 104.952L124.271 107.562L71.2111 134.082L7.12109 107.602Z" fill="#B695F7"/>
<path d="M15.8009 155.482L7.13086 107.602L56.5009 121.562L60.5009 169.162L15.8009 155.482Z" fill="#864FF1"/>
<path d="M74.3809 121.562L124.271 107.602L116.971 156.892L75.5909 168.072L74.3809 121.562Z" fill="#864FF1"/>
<path d="M56.5 121.562C59.1097 123.423 62.2349 124.423 65.44 124.423C68.6451 124.423 71.7703 123.423 74.38 121.562L75.59 168.072C75.59 168.072 69.38 176.372 60.5 169.162L56.5 121.562Z" fill="#864FF1"/>
<path d="M56.5 121.562C59.1097 123.423 62.2349 124.423 65.44 124.423C68.6451 124.423 71.7703 123.423 74.38 121.562L75.59 168.072C75.59 168.072 74.59 171.812 68.23 172.072C66.02 172.172 63.41 171.502 60.5 169.142L56.5 121.562Z" fill="#864FF1"/>
<g style="mix-blend-mode:multiply" opacity="0.37">
<path d="M56.5 121.562C59.1097 123.423 62.2349 124.423 65.44 124.423C68.6451 124.423 71.7703 123.423 74.38 121.562L75.59 168.072C75.59 168.072 74.59 171.812 68.23 172.072C66.02 172.172 63.41 171.502 60.5 169.142L56.5 121.562Z" fill="#8E487A"/>
</g>
<g style="mix-blend-mode:multiply" opacity="0.13">
<path d="M15.8017 155.482L60.5017 169.162L57.4317 132.572C56.4317 139.322 54.6517 148.572 52.2717 152.052C48.3517 157.692 38.1917 162.282 22.9317 151.342C19.2317 148.692 15.9317 144.672 13.0117 140.122L15.8017 155.482Z" fill="#8E487A"/>
</g>
<g style="mix-blend-mode:multiply" opacity="0.13">
<path d="M110.521 148.732C98.121 157.042 84.081 150.922 74.791 137.072L75.591 168.072L117.011 156.892L120.011 136.652C117.691 141.542 114.631 146.002 110.521 148.732Z" fill="#8E487A"/>
</g>
<g style="mix-blend-mode:multiply" opacity="0.37">
<path d="M57.1816 129.572C57.1816 129.572 66.0616 134.282 74.5916 129.572L74.7116 134.082C74.7116 134.082 68.3116 139.432 57.5516 134.082L57.1816 129.572Z" fill="#8E487A"/>
</g>
<g style="mix-blend-mode:multiply" opacity="0.37">
<path d="M59.6914 159.542C62.1254 160.76 64.8097 161.394 67.5314 161.394C70.2531 161.394 72.9374 160.76 75.3714 159.542L75.5014 164.542C73.2008 165.998 70.5341 166.771 67.8114 166.771C65.0888 166.771 62.422 165.998 60.1214 164.542L59.6914 159.542Z" fill="#8E487A"/>
</g>
<path d="M123.652 122.902C123.652 122.902 121.252 120.352 119.592 120.622C117.932 120.892 119.652 123.422 121.202 124.722C121.202 124.722 115.072 123.122 114.822 124.452C114.572 125.782 120.002 127.752 120.002 127.752C120.002 127.752 114.192 127.092 114.612 128.652C115.032 130.212 119.922 130.852 119.922 130.852C119.922 130.852 114.472 130.612 114.502 131.852C114.532 133.092 119.192 134.182 121.822 132.852C122.821 132.336 123.662 131.559 124.253 130.602C124.845 129.646 125.166 128.547 125.182 127.422C125.268 126.603 125.176 125.775 124.912 124.995C124.648 124.215 124.218 123.501 123.652 122.902Z" fill="#FFBF94"/>
<path d="M8.59252 122.902C8.59252 122.902 10.9925 120.352 12.6525 120.622C14.3125 120.892 12.5925 123.422 11.0425 124.722C11.0425 124.722 17.1725 123.122 17.4225 124.452C17.6725 125.782 12.2425 127.752 12.2425 127.752C12.2425 127.752 18.0525 127.092 17.6325 128.652C17.2125 130.212 12.3225 130.852 12.3225 130.852C12.3225 130.852 17.7725 130.612 17.7425 131.852C17.7125 133.092 13.0525 134.182 10.4225 132.852C9.42326 132.336 8.5829 131.559 7.99113 130.602C7.39936 129.646 7.0784 128.547 7.06252 127.422C6.97644 126.603 7.06861 125.775 7.3327 124.995C7.5968 124.215 8.02657 123.501 8.59252 122.902Z" fill="#FFBF94"/>
</svg>
