<svg width="34" height="35" viewBox="0 0 34 35" fill="none" xmlns="http://www.w3.org/2000/svg">
<g clip-path="url(#clip0_4343_637)">
<path d="M17 34.5C7.6126 34.5 0 26.8874 0 17.5C0 8.1126 7.6126 0.5 17 0.5C26.3874 0.5 34 8.1126 34 17.5C34 26.8874 26.3874 34.5 17 34.5Z" fill="url(#paint0_linear_4343_637)"/>
<path d="M17.0002 7.98651C20.0976 7.98651 20.4648 7.99671 21.6888 8.05451C22.821 8.10551 23.4364 8.29591 23.8444 8.45571C24.385 8.66651 24.7726 8.91811 25.1772 9.32271C25.5818 9.72731 25.8334 10.1149 26.0442 10.6555C26.204 11.0635 26.391 11.6789 26.4454 12.8111C26.4998 14.0351 26.5134 14.4023 26.5134 17.4997C26.5134 20.5971 26.5032 20.9643 26.4454 22.1883C26.3944 23.3205 26.204 23.9359 26.0442 24.3439C25.8334 24.8845 25.5818 25.2721 25.1772 25.6767C24.7726 26.0813 24.385 26.3329 23.8444 26.5437C23.4364 26.7035 22.821 26.8905 21.6888 26.9449C20.4648 26.9993 20.0976 27.0129 17.0002 27.0129C13.9028 27.0129 13.5356 27.0027 12.3116 26.9449C11.1794 26.8939 10.564 26.7035 10.156 26.5437C9.61538 26.3329 9.22778 26.0813 8.82318 25.6767C8.41858 25.2721 8.16698 24.8845 7.95618 24.3439C7.79638 23.9359 7.60938 23.3205 7.55498 22.1883C7.50058 20.9643 7.48698 20.5971 7.48698 17.4997C7.48698 14.4023 7.49718 14.0351 7.55498 12.8111C7.60598 11.6789 7.79638 11.0635 7.95618 10.6555C8.16698 10.1149 8.41858 9.72731 8.82318 9.32271C9.22778 8.91811 9.61538 8.66651 10.156 8.45571C10.564 8.29591 11.1794 8.10891 12.3116 8.05451C13.5356 7.99671 13.9028 7.98651 17.0002 7.98651ZM17.0002 5.89551C13.8484 5.89551 13.454 5.90911 12.2164 5.96691C10.9822 6.02471 10.139 6.21851 9.39778 6.50751C8.63618 6.79991 7.98678 7.19771 7.34418 7.84371C6.69818 8.48971 6.30378 9.13571 6.00458 9.90071C5.71898 10.6385 5.52178 11.4817 5.46398 12.7193C5.40618 13.9569 5.39258 14.3513 5.39258 17.5031C5.39258 20.6549 5.40618 21.0493 5.46398 22.2869C5.52178 23.5211 5.71558 24.3643 6.00458 25.1055C6.30038 25.8637 6.69818 26.5131 7.34418 27.1557C7.99018 27.8017 8.63618 28.1961 9.40118 28.4953C10.139 28.7809 10.9822 28.9781 12.2198 29.0359C13.4574 29.0937 13.8518 29.1073 17.0036 29.1073C20.1554 29.1073 20.5498 29.0937 21.7874 29.0359C23.0216 28.9781 23.8648 28.7843 24.606 28.4953C25.3642 28.1995 26.0136 27.8017 26.6562 27.1557C27.3022 26.5097 27.6966 25.8637 27.9958 25.0987C28.2814 24.3609 28.4786 23.5177 28.5364 22.2801C28.5942 21.0425 28.6078 20.6481 28.6078 17.4963C28.6078 14.3445 28.5942 13.9501 28.5364 12.7125C28.4786 11.4783 28.2848 10.6351 27.9958 9.89391C27.7 9.13571 27.3022 8.48631 26.6562 7.84371C26.0102 7.19771 25.3642 6.80331 24.5992 6.50411C23.8614 6.21851 23.0182 6.02131 21.7806 5.96351C20.5464 5.90911 20.152 5.89551 17.0002 5.89551Z" fill="white"/>
<path d="M16.9993 11.5396C13.7081 11.5396 11.0391 14.2086 11.0391 17.4998C11.0391 20.791 13.7081 23.46 16.9993 23.46C20.2905 23.46 22.9595 20.791 22.9595 17.4998C22.9595 14.2086 20.2905 11.5396 16.9993 11.5396ZM16.9993 21.369C14.8641 21.369 13.1301 19.6384 13.1301 17.4998C13.1301 15.3612 14.8641 13.6306 16.9993 13.6306C19.1345 13.6306 20.8685 15.3612 20.8685 17.4998C20.8685 19.6384 19.1345 21.369 16.9993 21.369Z" fill="white"/>
<path d="M23.1948 12.6991C23.9647 12.6991 24.5888 12.075 24.5888 11.3051C24.5888 10.5352 23.9647 9.91113 23.1948 9.91113C22.4249 9.91113 21.8008 10.5352 21.8008 11.3051C21.8008 12.075 22.4249 12.6991 23.1948 12.6991Z" fill="white"/>
</g>
<defs>
<linearGradient id="paint0_linear_4343_637" x1="4.97918" y1="29.5208" x2="29.0208" y2="5.47918" gradientUnits="userSpaceOnUse">
<stop stop-color="#FFD521"/>
<stop offset="0.0551048" stop-color="#FFD020"/>
<stop offset="0.1241" stop-color="#FEC01E"/>
<stop offset="0.2004" stop-color="#FCA71B"/>
<stop offset="0.2821" stop-color="#FA8316"/>
<stop offset="0.3681" stop-color="#F85510"/>
<stop offset="0.4563" stop-color="#F51E09"/>
<stop offset="0.5" stop-color="#F30005"/>
<stop offset="0.5035" stop-color="#F20007"/>
<stop offset="0.5966" stop-color="#E1003B"/>
<stop offset="0.6879" stop-color="#D30067"/>
<stop offset="0.7757" stop-color="#C70088"/>
<stop offset="0.8589" stop-color="#BF00A0"/>
<stop offset="0.9357" stop-color="#BB00AF"/>
<stop offset="1" stop-color="#B900B4"/>
</linearGradient>
<clipPath id="clip0_4343_637">
<rect width="34" height="34" fill="white" transform="translate(0 0.5)"/>
</clipPath>
</defs>
</svg>
