<svg width="57" height="54" viewBox="0 0 57 54" fill="none" xmlns="http://www.w3.org/2000/svg">
<path d="M0.800781 27C0.800781 12.0883 12.8891 0 27.8008 0H56.8008V54H27.8008C12.8891 54 0.800781 41.9117 0.800781 27Z" fill="url(#paint0_linear_0_1)"/>
<path d="M27.8008 27C30.0108 27 31.8008 25.21 31.8008 23C31.8008 20.79 30.0108 19 27.8008 19C25.5908 19 23.8008 20.79 23.8008 23C23.8008 25.21 25.5908 27 27.8008 27ZM27.8008 29C25.1308 29 19.8008 30.34 19.8008 33V35H35.8008V33C35.8008 30.34 30.4708 29 27.8008 29Z" fill="#323232"/>
<defs>
<linearGradient id="paint0_linear_0_1" x1="28.8008" y1="0" x2="28.8008" y2="54" gradientUnits="userSpaceOnUse">
<stop stop-color="white"/>
<stop offset="1" stop-color="#EBF8F8"/>
</linearGradient>
</defs>
</svg>
