<svg width="132" height="262" viewBox="0 0 132 262" fill="none" xmlns="http://www.w3.org/2000/svg">
<g filter="url(#filter0_f_0_1)">
<path d="M21.1861 241.284H111.188C112.159 241.284 114.509 242.563 116.437 244.142C118.366 245.721 113.608 247 112.492 247H19.8817C18.7656 247 14.008 245.721 15.9363 244.142C17.8646 242.563 20.215 241.284 21.1861 241.284Z" fill="black" fill-opacity="0.4"/>
</g>
<path d="M128.89 62.9292H129.319C129.555 62.9292 129.747 63.1212 129.747 63.3579V91.3687C129.747 91.6055 129.555 91.7975 129.319 91.7975H128.89V62.9292Z" fill="#1C3343"/>
<path d="M9.76831 97.7998L9.33981 97.7998C9.10316 97.7998 8.91132 97.6079 8.91132 97.3711L8.91132 80.5074C8.91132 80.2706 9.10316 80.0787 9.33981 80.0787L9.76831 80.0787L9.76831 97.7998Z" fill="#1C3343"/>
<path d="M9.76831 74.3623L9.33981 74.3623C9.10316 74.3623 8.91132 74.1704 8.91132 73.9336L8.91132 57.0699C8.91132 56.8331 9.10316 56.6412 9.33981 56.6412L9.76831 56.6412L9.76831 74.3623Z" fill="#213744"/>
<path d="M9.76831 48.0664L9.33981 48.0664C9.10316 48.0664 8.91132 47.8745 8.91132 47.6377L8.91132 39.3488C8.91132 39.112 9.10316 38.92 9.33981 38.92L9.76831 38.92L9.76831 48.0664Z" fill="#213744"/>
<path d="M9.76831 26.0579C9.76831 19.1419 9.76831 15.6839 10.6771 12.8853C12.5138 7.22931 16.9457 2.79491 22.5986 0.957152C25.3956 0.0478516 28.8516 0.0478516 35.7637 0.0478516H102.895C109.807 0.0478516 113.263 0.0478516 116.06 0.957152C121.713 2.79491 126.145 7.22931 127.981 12.8853C128.89 15.6839 128.89 19.1419 128.89 26.0579V219.275C128.89 226.191 128.89 229.649 127.981 232.448C126.145 238.104 121.713 242.538 116.06 244.376C113.263 245.285 109.807 245.285 102.895 245.285H35.7637C28.8516 245.285 25.3956 245.285 22.5986 244.376C16.9457 242.538 12.5138 238.104 10.6771 232.448C9.76831 229.649 9.76831 226.191 9.76831 219.275V26.0579Z" fill="#213744"/>
<path fill-rule="evenodd" clip-rule="evenodd" d="M103.009 0.61932H35.6494C28.8214 0.61932 25.4752 0.622847 22.7751 1.50064C17.2962 3.28185 13.0007 7.57981 11.2204 13.0618C10.3431 15.7634 10.3396 19.1115 10.3396 25.9433V219.389C10.3396 226.221 10.3431 229.569 11.2204 232.271C13.0007 237.753 17.2962 242.051 22.7751 243.832C25.4752 244.71 28.8214 244.713 35.6494 244.713H103.009C109.837 244.713 113.183 244.71 115.883 243.832C121.362 242.051 125.658 237.753 127.438 232.271C128.315 229.569 128.319 226.221 128.319 219.389V25.9434C128.319 19.1115 128.315 15.7634 127.438 13.0618C125.658 7.57981 121.362 3.28185 115.883 1.50064C113.183 0.622847 109.837 0.61932 103.009 0.61932ZM10.9488 12.9735C10.054 15.729 10.054 19.1338 10.054 25.9433V219.389C10.054 226.199 10.054 229.604 10.9488 232.359C12.7572 237.928 17.121 242.294 22.6868 244.104C25.4408 244.999 28.8437 244.999 35.6494 244.999H103.009C109.815 244.999 113.218 244.999 115.972 244.104C121.537 242.294 125.901 237.928 127.71 232.359C128.604 229.604 128.604 226.199 128.604 219.389V25.9434C128.604 19.1338 128.604 15.729 127.71 12.9735C125.901 7.40447 121.537 3.03829 115.972 1.22881C113.218 0.333496 109.815 0.333496 103.009 0.333496H35.6494C28.8437 0.333496 25.4408 0.333496 22.6868 1.22881C17.121 3.03829 12.7572 7.40447 10.9488 12.9735Z" fill="#8EADC1"/>
<path d="M11.1967 25.4863C11.1967 19.1023 11.1967 15.9103 12.0355 13.327C13.731 8.10609 17.822 4.01279 23.04 2.31641C25.6218 1.47705 28.812 1.47705 35.1924 1.47705H103.466C109.846 1.47705 113.037 1.47705 115.619 2.31641C120.837 4.01279 124.928 8.10609 126.623 13.327C127.462 15.9103 127.462 19.1023 127.462 25.4863V219.847C127.462 226.231 127.462 229.423 126.623 232.006C124.928 237.227 120.837 241.32 115.619 243.017C113.037 243.856 109.846 243.856 103.466 243.856H35.1924C28.812 243.856 25.6218 243.856 23.04 243.017C17.822 241.32 13.731 237.227 12.0355 232.006C11.1967 229.423 11.1967 226.231 11.1967 219.847V25.4863Z" fill="#121515"/>
<rect x="103.466" y="0.0478516" width="1.71398" height="1.42912" fill="#36454C"/>
<rect x="127.462" y="24.6289" width="1.42833" height="1.71494" fill="#36454C"/>
<rect x="9.76831" y="24.6289" width="1.42832" height="1.71494" fill="#36454C"/>
<rect x="9.76831" y="218.989" width="1.42832" height="1.71495" fill="#36454C"/>
<rect x="127.462" y="218.989" width="1.42833" height="1.71495" fill="#36454C"/>
<rect x="33.4784" y="243.856" width="1.71398" height="1.42912" fill="#36454C"/>
<path fill-rule="evenodd" clip-rule="evenodd" d="M81.4699 11.4809C82.7321 11.4809 83.7552 10.4572 83.7552 9.19431C83.7552 7.93146 82.7321 6.90771 81.4699 6.90771C80.2078 6.90771 79.1846 7.93146 79.1846 9.19431C79.1846 10.4572 80.2078 11.4809 81.4699 11.4809Z" fill="#262C2D"/>
<path fill-rule="evenodd" clip-rule="evenodd" d="M81.4699 10.6234C82.2588 10.6234 82.8983 9.98354 82.8983 9.19426C82.8983 8.40498 82.2588 7.76514 81.4699 7.76514C80.6811 7.76514 80.0416 8.40498 80.0416 9.19426C80.0416 9.98354 80.6811 10.6234 81.4699 10.6234Z" fill="#121515"/>
<path opacity="0.4" fill-rule="evenodd" clip-rule="evenodd" d="M81.4699 8.90856C81.6277 8.90856 81.7556 8.78059 81.7556 8.62274C81.7556 8.46488 81.6277 8.33691 81.4699 8.33691C81.3122 8.33691 81.1843 8.46488 81.1843 8.62274C81.1843 8.78059 81.3122 8.90856 81.4699 8.90856Z" fill="#636F73"/>
<path fill-rule="evenodd" clip-rule="evenodd" d="M62.3304 9.19439C62.3304 8.72082 62.7143 8.33691 63.1879 8.33691H75.4705C75.9441 8.33691 76.328 8.72082 76.328 9.19439V9.19439C76.328 9.66796 75.9441 10.0519 75.4705 10.0519H63.1879C62.7143 10.0519 62.3304 9.66796 62.3304 9.19439V9.19439Z" fill="#262C2D"/>
<defs>
<filter id="filter0_f_0_1" x="0.481506" y="226.284" width="131.411" height="35.7163" filterUnits="userSpaceOnUse" color-interpolation-filters="sRGB">
<feFlood flood-opacity="0" result="BackgroundImageFix"/>
<feBlend mode="normal" in="SourceGraphic" in2="BackgroundImageFix" result="shape"/>
<feGaussianBlur stdDeviation="7.5" result="effect1_foregroundBlur_0_1"/>
</filter>
</defs>
</svg>
