<svg width="27" height="41" viewBox="0 0 27 41" fill="none" xmlns="http://www.w3.org/2000/svg">
<path d="M4.64626 1.11856C3.60717 0.209353 2.02776 0.314647 1.11856 1.35374C0.209353 2.39283 0.314647 3.97224 1.35374 4.88144L4.64626 1.11856ZM23 20.5L24.6463 22.3814L26.7965 20.5L24.6463 18.6186L23 20.5ZM1.35374 36.1186C0.314647 37.0278 0.209353 38.6072 1.11856 39.6463C2.02776 40.6854 3.60717 40.7906 4.64626 39.8814L1.35374 36.1186ZM1.35374 4.88144L21.3537 22.3814L24.6463 18.6186L4.64626 1.11856L1.35374 4.88144ZM21.3537 18.6186L1.35374 36.1186L4.64626 39.8814L24.6463 22.3814L21.3537 18.6186Z" fill="white" fill-opacity="0.8"/>
</svg>
