<svg width="197" height="160" viewBox="0 0 197 160" fill="none" xmlns="http://www.w3.org/2000/svg">
<path d="M25.3143 157.349H26.4582C27.5344 157.349 28.0953 157.074 28.0953 156.286C28.0953 155.566 27.5803 155.234 26.5495 155.234H25.3143V157.349ZM25.3143 154.377H26.4582C27.4653 154.377 27.9808 154.171 27.9808 153.486C27.9808 152.801 27.4885 152.537 26.493 152.537H25.3143V154.377ZM26.7103 151.669C28.1871 151.669 28.9653 152.343 28.9653 153.452C28.9653 154.137 28.6904 154.571 28.1296 154.8C28.7822 155.029 29.1251 155.554 29.1251 156.297C29.1251 157.052 28.7363 157.68 28.061 157.989C27.5919 158.206 27.0992 158.217 26.5389 158.217H24.3521V151.669H26.7103Z" fill="#373535"/>
<path d="M34.0959 155.921C32.8371 155.921 32.2187 156.206 32.2187 156.812C32.2187 157.224 32.5622 157.544 33.1003 157.544C33.9476 157.544 34.6224 156.916 34.6567 155.944C34.3819 155.932 34.1993 155.921 34.0959 155.921ZM33.0766 158.344C32.0014 158.344 31.3145 157.704 31.3145 156.778C31.3145 155.623 32.2646 155.133 34.2447 155.133C34.3819 155.133 34.5195 155.143 34.6567 155.143V155.109C34.6567 154.321 34.279 153.99 33.3979 153.99C32.9288 153.99 32.6656 154.103 32.5738 154.378H31.6352C31.7265 153.612 32.3443 153.201 33.4206 153.201C34.8741 153.201 35.4808 153.807 35.4808 155.155V158.275H34.6567V157.635C34.2447 158.104 33.7176 158.344 33.0766 158.344Z" fill="#373535"/>
<path d="M40.3134 157.566C41.1375 157.566 41.538 157.337 41.538 156.88C41.538 156.538 41.309 156.423 40.7714 156.275L39.9932 156.058C38.9976 155.783 38.5281 155.349 38.5281 154.64C38.5281 153.669 39.2145 153.212 40.5999 153.212C41.6872 153.212 42.2481 153.703 42.2597 154.629H41.4008C41.3665 154.126 41.0916 153.989 40.4168 153.989C39.7299 153.989 39.3864 154.194 39.3864 154.606C39.3864 155.017 39.741 155.143 40.3366 155.291L41.0805 155.486C41.9732 155.714 42.4311 156.194 42.4311 156.823C42.4311 157.76 41.6872 158.354 40.3936 158.354C39.1348 158.354 38.4938 157.966 38.3677 157.006H39.2266C39.3063 157.383 39.6608 157.566 40.3134 157.566Z" fill="#373535"/>
<path d="M48.3289 152.194H47.0695V151.063H48.3289V152.194ZM45.8672 154.171V153.36H48.3052V158.274H47.4014V154.171H45.8672Z" fill="#373535"/>
<path d="M55.2206 154.663C55.1863 154.229 54.912 154.001 54.4313 154.001C53.6299 154.001 53.2638 154.549 53.2638 155.681C53.2638 156.927 53.6299 157.567 54.3622 157.567C54.8893 157.567 55.1863 157.281 55.2322 156.709H56.1935C56.1481 157.761 55.4844 158.344 54.3395 158.344C53.1382 158.344 52.3711 157.429 52.3711 155.784C52.3711 154.115 53.1145 153.247 54.5115 153.247C55.5071 153.247 56.1022 153.761 56.1481 154.663H55.2206Z" fill="#373535"/>
<path d="M69.992 151.669V152.503H67.4971V154.354H69.5457V155.223H67.4971V158.274H66.5464V151.669H69.992Z" fill="#373535"/>
<path d="M75.9006 152.194H74.6413V151.063H75.9006V152.194ZM73.4395 154.171V153.36H75.8774V158.274H74.9732V154.171H73.4395Z" fill="#373535"/>
<path d="M83.3083 155.76C83.3083 154.685 82.759 154.034 81.9228 154.034C81.0539 154.034 80.4698 154.674 80.4698 155.783C80.4698 156.891 81.0423 157.543 81.9228 157.543C82.7822 157.543 83.3083 156.914 83.3083 155.76ZM80.4698 151.063V153.897C80.8935 153.451 81.4311 153.222 82.061 153.222C83.3542 153.222 84.212 154.171 84.212 155.771C84.212 157.406 83.3774 158.366 82.0837 158.366C81.363 158.366 80.8708 158.16 80.4239 157.611V158.274H79.623V151.063H80.4698Z" fill="#373535"/>
<path d="M88.7251 153.977C88.0614 153.977 87.5697 154.4 87.4209 155.166H89.9501C89.8705 154.4 89.4236 153.977 88.7251 153.977ZM90.6371 157.189C90.5221 157.909 89.8589 158.354 88.8512 158.354C87.3634 158.354 86.4707 157.406 86.4707 155.772C86.4707 154.172 87.375 153.211 88.7942 153.211C90.11 153.211 90.8776 154.148 90.8776 155.909V155.943H87.4209V156.001C87.4209 156.983 87.9701 157.555 88.8401 157.555C89.2743 157.555 89.5265 157.429 89.6183 157.189H90.6371Z" fill="#373535"/>
<path d="M94.7369 153.291V153.874C95.1036 153.44 95.561 153.222 96.1108 153.222C97.0145 153.222 97.5527 153.783 97.5527 154.754V154.789H96.6938V154.72C96.6938 154.263 96.4653 154 96.0765 154C95.3089 154 94.7369 154.72 94.7369 156.046V158.274H93.8896V153.291H94.7369Z" fill="#373535"/>
<path d="M107.104 152.537V151.668H111.591V152.537H109.828V158.274H108.879V152.537H107.104Z" fill="#373535"/>
<path d="M116.297 153.977C115.634 153.977 115.142 154.4 114.993 155.166H117.522C117.443 154.4 116.996 153.977 116.297 153.977ZM118.209 157.189C118.094 157.909 117.431 158.354 116.423 158.354C114.936 158.354 114.043 157.406 114.043 155.772C114.043 154.172 114.947 153.211 116.366 153.211C117.682 153.211 118.45 154.148 118.45 155.909V155.943H114.993V156.001C114.993 156.983 115.542 157.555 116.412 157.555C116.847 157.555 117.099 157.429 117.191 157.189H118.209Z" fill="#373535"/>
<path d="M124.153 154.663C124.118 154.229 123.844 154.001 123.363 154.001C122.562 154.001 122.195 154.549 122.195 155.681C122.195 156.927 122.562 157.567 123.294 157.567C123.821 157.567 124.118 157.281 124.164 156.709H125.126C125.08 157.761 124.416 158.344 123.272 158.344C122.069 158.344 121.303 157.429 121.303 155.784C121.303 154.115 122.047 153.247 123.443 153.247C124.438 153.247 125.034 153.761 125.08 154.663H124.153Z" fill="#373535"/>
<path d="M130.256 154.023C129.225 154.023 128.95 154.915 128.95 156.446V158.274H128.104V151.063H128.95V153.829C129.362 153.429 129.866 153.234 130.312 153.234C131.377 153.234 131.949 153.874 131.949 155.097V158.274H131.091V155.188C131.091 154.411 130.805 154.023 130.256 154.023Z" fill="#373535"/>
<path d="M135.569 153.291V153.989C136.05 153.486 136.588 153.234 137.183 153.234C138.728 153.234 139.106 154.148 139.106 155.874V158.274H138.259V155.817C138.259 154.64 138.099 154 137.217 154C136.622 154 136.141 154.263 135.843 154.743C135.58 155.166 135.569 155.668 135.569 156.297V158.274H134.722V153.291H135.569Z" fill="#373535"/>
<path d="M145.278 155.783C145.278 154.663 144.671 154 143.813 154C142.943 154 142.348 154.663 142.348 155.783C142.348 156.903 142.943 157.566 143.813 157.566C144.683 157.566 145.278 156.903 145.278 155.783ZM143.813 158.354C142.428 158.354 141.455 157.36 141.455 155.783C141.455 154.217 142.428 153.2 143.813 153.2C145.197 153.2 146.171 154.206 146.171 155.783C146.171 157.36 145.197 158.354 143.813 158.354Z" fill="#373535"/>
<path d="M149.629 155.977V151.063H150.488V155.818C150.488 157.086 150.603 157.463 151.93 157.463H152.285V158.274H151.552C149.882 158.274 149.629 157.543 149.629 155.977Z" fill="#373535"/>
<path d="M159.064 155.783C159.064 154.663 158.457 154 157.599 154C156.729 154 156.134 154.663 156.134 155.783C156.134 156.903 156.729 157.566 157.599 157.566C158.469 157.566 159.064 156.903 159.064 155.783ZM157.599 158.354C156.214 158.354 155.241 157.36 155.241 155.783C155.241 154.217 156.214 153.2 157.599 153.2C158.984 153.2 159.957 154.206 159.957 155.783C159.957 157.36 158.984 158.354 157.599 158.354Z" fill="#373535"/>
<path d="M163.061 155.588C163.061 156.628 163.542 157.211 164.343 157.211C165.167 157.211 165.704 156.617 165.704 155.622C165.704 154.617 165.155 154.034 164.343 154.034C163.576 154.034 163.061 154.617 163.061 155.588ZM165.74 153.291H166.598V157.771C166.598 159.326 166.048 160 164.319 160C163.129 160 162.454 159.531 162.408 158.731H163.359C163.404 159.12 163.725 159.211 164.388 159.211C165.533 159.211 165.74 158.788 165.74 157.794V157.337C165.373 157.794 164.869 158.023 164.228 158.023C163.004 158.023 162.157 157.086 162.157 155.611C162.157 154.171 162.981 153.234 164.24 153.234C164.892 153.234 165.407 153.474 165.74 153.908V153.291Z" fill="#373535"/>
<path d="M169.84 153.292L171.511 156.217L173.079 153.292H174.017L170.904 159.017C170.516 159.726 170.297 159.92 169.68 159.92H169.221V159.097H169.646C169.805 159.097 169.931 159.029 170.012 158.892L171.042 157.028L168.833 153.292H169.84Z" fill="#373535"/>
<path d="M10.3793 108.648C11.3789 108.648 12.3755 108.748 13.3423 108.944C14.294 109.138 15.1514 109.467 15.8913 109.923C16.618 110.373 17.2076 110.98 17.6423 111.725C18.0741 112.468 18.2934 113.429 18.2934 114.581C18.2934 115.416 18.126 116.201 17.7962 116.912C17.4628 117.629 17.0018 118.266 16.4269 118.805C15.8429 119.353 15.1691 119.838 14.4236 120.244C13.6797 120.651 12.8718 121.001 12.0225 121.286C11.4495 121.356 10.7273 121.411 9.876 121.445C9.01862 121.481 8.26665 121.5 7.64076 121.5H5.03937V108.932C5.52808 108.846 6.21247 108.777 7.07943 108.73C8.06794 108.676 9.17849 108.648 10.3793 108.648ZM11.4748 139.438C11.0259 139.438 10.5125 139.428 9.94913 139.41C9.37468 139.393 8.80629 139.365 8.25959 139.329C7.71036 139.293 7.06077 139.256 6.31132 139.219C5.64357 139.187 5.25977 139.143 5.03937 139.104V125.82H10.3793C11.5645 125.82 12.7679 125.911 13.9571 126.091C15.1302 126.269 16.2004 126.61 17.1375 127.104C18.064 127.593 18.826 128.283 19.4025 129.155C19.9749 130.021 20.2654 131.191 20.2654 132.629C20.2654 133.783 20.0269 134.791 19.5573 135.625C19.0848 136.465 18.4362 137.183 17.6292 137.761C16.8177 138.342 15.8691 138.77 14.8105 139.035C13.7408 139.302 12.6181 139.438 11.4748 139.438ZM22.9314 125.455C22.1466 124.671 21.2277 124.046 20.1993 123.598C19.1972 123.162 18.1341 122.846 17.0386 122.659C17.957 122.347 18.7827 121.945 19.4998 121.458C20.4334 120.824 21.21 120.076 21.8082 119.236C22.4043 118.398 22.8582 117.482 23.1573 116.514C23.4554 115.545 23.6067 114.582 23.6067 113.652C23.6067 111.717 23.1971 110.108 22.3887 108.869C21.5848 107.638 20.5514 106.663 19.3178 105.972C18.0937 105.287 16.7123 104.818 15.2109 104.577C13.7241 104.338 12.2459 104.218 10.8176 104.218C8.70996 104.218 6.73194 104.292 4.93699 104.438C3.14305 104.584 1.55186 104.769 0.207284 104.986L0 105.02V105.23V142.91V143.1L0.18358 143.148C0.87957 143.332 1.70316 143.472 2.63215 143.566C3.54753 143.657 4.61119 143.731 5.79487 143.785C6.97906 143.84 8.0054 143.868 8.84563 143.868H11.0365C12.8375 143.868 14.6269 143.644 16.3558 143.203C18.0912 142.761 19.6562 142.068 21.0073 141.144C22.3655 140.216 23.4776 139.001 24.3133 137.535C25.1525 136.065 25.5781 134.304 25.5781 132.301C25.5781 130.78 25.3315 129.441 24.8458 128.32C24.3607 127.203 23.7166 126.239 22.9314 125.455Z" fill="#373535"/>
<path d="M32.5552 104.656H32.3086V104.901V143.184V143.43H32.5552H37.1013H37.348V143.184V126.312H52.053H52.2996V126.066V122.019V121.772H52.053H37.348V109.195H53.4223H53.6689V108.948V104.901V104.656H53.4223H32.5552Z" fill="#373535"/>
<path d="M74.563 104.656H74.3164V104.901V108.948V109.195H74.563H86.2562V143.184V143.43H86.5028H91.0489H91.2955V143.184V109.195H102.989H103.235V108.948V104.901V104.656H102.989H74.563Z" fill="#373535"/>
<path d="M113.904 138.891V125.766H128.335H128.582V125.519V121.472V121.226H128.335H113.904V109.195H129.978H130.225V108.949V104.902V104.656H129.978H109.112H108.865V104.902V143.184V143.431H109.112H130.253H130.499V143.184V139.137V138.891H130.253H113.904Z" fill="#373535"/>
<path d="M161.007 137.877L160.87 137.727L160.697 137.832C159.881 138.328 158.861 138.742 157.667 139.063C156.469 139.383 155.045 139.546 153.431 139.546C151.647 139.546 149.975 139.222 148.461 138.582C146.951 137.943 145.617 136.971 144.498 135.693C143.375 134.411 142.479 132.784 141.834 130.855C141.189 128.921 140.862 126.628 140.862 124.042C140.862 121.165 141.207 118.708 141.889 116.74C142.567 114.778 143.48 113.169 144.603 111.959C145.722 110.754 147.007 109.874 148.424 109.343C149.85 108.809 151.314 108.538 152.774 108.538C155.971 108.538 158.459 108.953 160.171 109.772L160.366 109.865L160.484 109.684L162.839 106.075L163.009 105.814L162.716 105.709C160.886 105.051 159.251 104.597 157.854 104.358C156.457 104.119 154.637 103.999 152.445 103.999C150.383 103.999 148.326 104.372 146.335 105.108C144.338 105.846 142.512 107.034 140.906 108.637C139.301 110.241 137.992 112.331 137.017 114.848C136.043 117.362 135.548 120.455 135.548 124.042C135.548 127.481 135.996 130.499 136.877 133.011C137.761 135.531 138.976 137.63 140.489 139.25C142.004 140.874 143.804 142.1 145.838 142.893C147.865 143.685 150.07 144.086 152.391 144.086C154.296 144.086 156.118 143.919 157.805 143.589C159.515 143.255 161.375 142.319 163.331 140.808L163.543 140.644L163.362 140.447L161.007 137.877Z" fill="#373535"/>
<path d="M196.753 104.656H192.208H191.961V104.901V121.335H174.052V104.901V104.656H173.805H169.259H169.013V104.901V143.184V143.43H169.259H173.805H174.052V143.184V125.875H191.961V143.184V143.43H192.208H196.753H197V143.184V104.901V104.656H196.753Z" fill="#373535"/>
<path d="M123.376 64.2686C123.383 64.315 123.39 64.3648 123.397 64.4152C123.526 65.2229 123.602 66.0418 123.626 66.8672C127.454 65.8021 131.667 64.9263 138.72 64.8442V62.3595V62.3313V59.8395C131.385 59.9221 126.777 60.8296 122.835 61.8952C123.064 62.6707 123.243 63.4644 123.376 64.2686Z" fill="#37AC54"/>
<path d="M138.716 29.4871L138.712 27.0169L138.695 15.5923L99.1867 -6.86646e-05L98.2632 0.364532L61.2577 14.9668L59.6499 15.6034V20.9828L63.1011 19.6211L99.1902 5.37986L133.69 18.9956L133.701 27.2209L133.704 29.691C129.144 30.0304 125.818 30.735 122.868 31.5322C123.09 32.3183 123.269 33.1225 123.398 33.9484C123.405 33.9983 123.412 34.0486 123.419 34.102C123.537 34.8886 123.609 35.6929 123.631 36.5112C127.457 35.4496 131.671 34.5739 138.72 34.4918V32.0428V32.0217V31.9789V29.4871H138.716Z" fill="#37AC54"/>
<path d="M100.98 70.5564C106.268 70.5564 110.188 70.1414 113.431 69.5376C113.553 68.9121 113.614 68.2685 113.614 67.6108V67.4784C113.614 67.3177 113.61 67.1531 113.599 66.9924C113.603 66.9708 113.599 66.9461 113.596 66.9209C113.553 66.0809 113.407 65.2661 113.166 64.49C110.03 65.1226 106.275 65.5516 100.98 65.5516C91.6367 65.5516 87.0901 64.211 82.2751 62.7959C81.9745 62.7063 81.6775 62.6207 81.3734 62.531C77.1273 61.2907 72.5449 60.079 64.662 59.868V57.3515V37.0762V34.5169C72.3552 34.735 76.4974 35.9572 80.8574 37.2404C85.8015 38.6953 90.9135 40.2041 100.98 40.2041C106.243 40.2041 110.153 39.7931 113.388 39.1888C113.539 38.4989 113.614 37.7838 113.614 37.0621C113.614 36.9332 113.61 36.8078 113.603 36.6829C113.607 36.6582 113.603 36.6331 113.603 36.6079C113.567 35.7503 113.421 34.9244 113.181 34.1342C110.041 34.7672 106.282 35.1998 100.98 35.1998C91.6367 35.1998 87.0901 33.8587 82.2751 32.4401C82.1213 32.3933 81.9675 32.3505 81.8096 32.3041C77.0093 30.8921 71.9079 29.48 62.156 29.48H59.6499V85.3521H64.662V67.3928V64.8728C72.3552 65.0903 76.4974 66.3095 80.8574 67.5967C82.6761 68.1326 84.5199 68.6724 86.6251 69.1443C90.2372 69.9561 94.6189 70.5564 100.98 70.5564Z" fill="#37AC54"/>
<path d="M121.132 37.0636C121.132 27.317 113.19 19.3868 103.429 19.3868H100.923V19.3853H81.3872V29.7161C81.6843 29.8017 81.9813 29.8873 82.2748 29.9735C83.6315 30.3738 84.9705 30.7671 86.3988 31.1247V24.3896H96.3197V24.3916H103.429C110.427 24.3916 116.12 30.0762 116.12 37.0636C116.12 40.4503 114.8 43.6315 112.401 46.0246C110.007 48.4177 106.821 49.7356 103.429 49.7356H103.364H100.858V49.7341H86.3988V41.2979C84.5878 40.8834 82.9693 40.4221 81.3872 39.9538V49.7341V54.7389V60.0221C81.6843 60.1077 81.9813 60.1973 82.2748 60.283C83.6315 60.6833 84.9705 61.0766 86.3988 61.4342V54.7389H96.3197V54.7404H103.364H103.418C110.422 54.7696 116.12 60.4834 116.12 67.4778V67.6113C116.12 74.6345 110.397 80.3488 103.364 80.3488H100.858V80.3473H86.3988V71.6109C84.5878 71.1964 82.9693 70.7351 81.3872 70.2668V85.352H96.3197V85.353H103.364C113.161 85.353 121.132 77.3942 121.132 67.6113V67.4778C121.132 61.0333 117.657 55.3714 112.479 52.2637C113.727 51.5194 114.892 50.6164 115.946 49.5629C119.29 46.2266 121.132 41.7878 121.132 37.0636Z" fill="#37AC54"/>
</svg>
