<?xml version="1.0" encoding="UTF-8"?>
<svg xmlns="http://www.w3.org/2000/svg" xmlns:xlink="http://www.w3.org/1999/xlink" viewBox="0 0 100 100" width="100px" height="100px">
<g id="surface117796686">
<path style=" stroke:none;fill-rule:nonzero;fill:rgb(41.568628%,35.294119%,80.392158%);fill-opacity:1;" d="M 31 18 C 23.820312 18 18 23.820312 18 31 L 18 70 C 18 77.179688 23.820312 83 31 83 L 70 83 C 77.179688 83 83 77.179688 83 70 L 83 31 C 83 23.820312 77.179688 18 70 18 Z M 31 20 L 70 20 C 76.074219 20 81 24.925781 81 31 L 81 70 C 81 76.074219 76.074219 81 70 81 L 31 81 C 24.925781 81 20 76.074219 20 70 L 20 31 C 20 24.925781 24.925781 20 31 20 Z M 33.835938 23 C 27.851562 23 23 27.851562 23 33.835938 L 23 67.160156 C 23 73.148438 27.851562 78 33.835938 78 L 67.160156 78 C 73.148438 78 78 73.148438 78 67.160156 L 78 48.5 C 78 48.222656 77.777344 48 77.5 48 C 77.222656 48 77 48.222656 77 48.5 L 77 67.160156 C 77 72.59375 72.59375 77 67.160156 77 L 33.835938 77 C 28.40625 77 24 72.59375 24 67.160156 L 24 33.835938 C 24 28.40625 28.40625 24 33.835938 24 L 67.5 24 C 67.777344 24 68 23.777344 68 23.5 C 68 23.222656 67.777344 23 67.5 23 Z M 44.234375 33.875 C 44.210938 33.875 44.1875 33.878906 44.167969 33.882812 C 41.171875 34.394531 38.304688 35.300781 35.628906 36.546875 C 35.546875 36.582031 35.476562 36.644531 35.425781 36.722656 C 30.042969 44.777344 28.570312 52.683594 29.300781 60.433594 C 29.3125 60.578125 29.386719 60.703125 29.5 60.789062 C 33.074219 63.433594 36.554688 65.046875 39.960938 66.101562 C 40.164062 66.164062 40.386719 66.089844 40.511719 65.917969 C 41.355469 64.769531 41.8125 63.972656 42.457031 62.695312 C 42.519531 62.566406 42.527344 62.417969 42.476562 62.285156 C 42.425781 62.152344 42.320312 62.050781 42.183594 62 C 41.210938 61.632812 40.292969 61.152344 39.390625 60.652344 C 39.460938 60.578125 39.519531 60.535156 39.589844 60.457031 C 39.789062 60.25 39.921875 60.121094 40.050781 59.992188 C 46.65625 62.949219 53.398438 62.949219 59.925781 59.984375 C 60.078125 60.117188 60.238281 60.257812 60.460938 60.457031 C 60.535156 60.523438 60.578125 60.554688 60.648438 60.617188 C 59.757812 61.109375 58.855469 61.582031 57.890625 61.945312 C 57.757812 61.996094 57.652344 62.097656 57.601562 62.230469 C 57.550781 62.363281 57.558594 62.511719 57.621094 62.636719 C 58.253906 63.890625 58.617188 64.75 59.480469 65.921875 C 59.605469 66.09375 59.828125 66.167969 60.03125 66.101562 C 63.441406 65.050781 66.925781 63.4375 70.5 60.789062 C 70.613281 60.703125 70.6875 60.574219 70.699219 60.433594 C 71.558594 51.445312 69.226562 43.617188 64.558594 36.710938 C 64.507812 36.636719 64.4375 36.578125 64.355469 36.539062 C 61.679688 35.296875 58.8125 34.394531 55.824219 33.882812 C 55.613281 33.847656 55.40625 33.945312 55.300781 34.128906 C 54.980469 34.703125 54.644531 35.421875 54.359375 36.066406 C 51.429688 35.667969 48.523438 35.667969 45.644531 36.066406 C 45.355469 35.421875 45.011719 34.703125 44.691406 34.128906 C 44.597656 33.964844 44.421875 33.867188 44.234375 33.875 Z M 43.984375 34.953125 C 44.296875 35.539062 44.644531 36.214844 44.882812 36.785156 C 44.972656 36.992188 45.191406 37.117188 45.417969 37.082031 C 48.445312 36.625 51.5 36.625 54.589844 37.082031 C 54.8125 37.117188 55.03125 36.992188 55.121094 36.785156 C 55.359375 36.214844 55.703125 35.535156 56.011719 34.953125 C 58.734375 35.453125 61.347656 36.269531 63.800781 37.394531 C 68.261719 44.042969 70.476562 51.496094 69.707031 60.105469 C 66.421875 62.503906 63.242188 63.996094 60.101562 65.003906 C 59.5625 64.222656 59.195312 63.5 58.765625 62.632812 C 59.8125 62.207031 60.84375 61.738281 61.808594 61.164062 C 61.953125 61.078125 62.042969 60.925781 62.050781 60.757812 C 62.058594 60.589844 61.984375 60.429688 61.851562 60.332031 C 61.757812 60.261719 61.429688 59.980469 61.125 59.710938 C 60.820312 59.4375 60.523438 59.171875 60.359375 59.035156 C 60.210938 58.910156 60.003906 58.886719 59.828125 58.96875 C 53.320312 62.019531 46.71875 62.019531 40.128906 58.96875 C 39.953125 58.886719 39.746094 58.914062 39.597656 59.039062 C 39.394531 59.207031 39.144531 59.480469 38.871094 59.765625 C 38.597656 60.050781 38.285156 60.351562 38.234375 60.390625 C 38.101562 60.488281 38.023438 60.648438 38.03125 60.816406 C 38.039062 60.984375 38.132812 61.132812 38.273438 61.222656 C 39.230469 61.789062 40.257812 62.253906 41.300781 62.679688 C 40.863281 63.523438 40.457031 64.21875 39.898438 65.003906 C 36.761719 64 33.578125 62.507812 30.292969 60.109375 C 29.632812 52.660156 31.046875 45.148438 36.183594 37.402344 C 38.636719 36.273438 41.253906 35.453125 43.984375 34.953125 Z M 77.5 36.921875 C 77.222656 36.921875 77 37.144531 77 37.421875 L 77 39.421875 C 77 39.699219 77.222656 39.921875 77.5 39.921875 C 77.777344 39.921875 78 39.699219 78 39.421875 L 78 37.421875 C 78 37.144531 77.777344 36.921875 77.5 36.921875 Z M 77.5 40.921875 C 77.222656 40.921875 77 41.144531 77 41.421875 L 77 45.421875 C 77 45.699219 77.222656 45.921875 77.5 45.921875 C 77.777344 45.921875 78 45.699219 78 45.421875 L 78 41.421875 C 78 41.144531 77.777344 40.921875 77.5 40.921875 Z M 43.230469 46.921875 C 40.878906 46.921875 39.066406 49.046875 39.066406 51.550781 C 39.066406 54.058594 40.910156 56.179688 43.230469 56.179688 C 45.582031 56.179688 47.394531 54.058594 47.394531 51.554688 C 47.429688 49.039062 45.582031 46.921875 43.230469 46.921875 Z M 56.769531 46.921875 C 54.417969 46.921875 52.605469 49.046875 52.605469 51.550781 C 52.605469 54.058594 54.449219 56.179688 56.769531 56.179688 C 59.121094 56.179688 60.933594 54.054688 60.933594 51.554688 C 60.96875 49.039062 59.121094 46.921875 56.769531 46.921875 Z M 43.230469 47.921875 C 44.976562 47.921875 46.425781 49.519531 46.394531 51.542969 C 46.394531 51.546875 46.394531 51.546875 46.394531 51.550781 C 46.398438 53.578125 44.976562 55.179688 43.230469 55.179688 C 41.527344 55.179688 40.066406 53.574219 40.066406 51.550781 C 40.066406 49.523438 41.484375 47.921875 43.230469 47.921875 Z M 56.769531 47.921875 C 58.515625 47.921875 59.964844 49.519531 59.933594 51.542969 C 59.933594 51.546875 59.933594 51.546875 59.933594 51.550781 C 59.933594 53.578125 58.515625 55.179688 56.769531 55.179688 C 55.066406 55.179688 53.605469 53.574219 53.605469 51.550781 C 53.605469 49.523438 55.023438 47.921875 56.769531 47.921875 Z M 56.769531 47.921875 "/>
</g>
</svg>
