<svg xmlns="http://www.w3.org/2000/svg" width="121" height="32" viewBox="0 0 121 32">
    <g fill="none" fill-rule="evenodd">
        <g fill-rule="nonzero">
            <g>
                <path fill="#0D1321" d="M121 24.503c-3.074 2.032-6.637 4.47-10.689 7.314-2.897-3.954-5.363-7.143-7.397-9.57L94.901 32l-2.114-3.657 7.754-9.18c-3.267-3.742-6.113-6.879-8.537-9.41V8.43c4.31-2.352 8.009-4.496 11.095-6.43 2.22 3.12 4.36 5.935 6.423 8.442l7.132-8.015 2.034 3.486-6.657 7.704c2.811 3.336 5.805 6.516 8.969 9.527v1.359zm-44.585-4.455c.04-2.525-.345-5.038-1.14-7.436-.987-2.84-2.534-4.7-4.618-5.577-1.857 1.625-2.786 4.388-2.786 8.289-.043 2.341.376 4.668 1.233 6.85 1.019 2.48 2.519 4.198 4.5 5.157 1.857-1.682 2.786-4.11 2.786-7.283m14.177-2.829c0 4.755-2.14 8.381-6.423 10.88-3.554 2.064-7.902 3.098-13.043 3.103-4.672 0-8.63-1.124-11.872-3.371-3.54-2.31-5.614-6.268-5.48-10.46 0-4.875 1.997-8.553 5.991-11.031 3.358-2.065 7.658-3.099 12.902-3.103 4.857 0 8.944 1.097 12.26 3.292 3.687 2.31 5.863 6.377 5.72 10.69m-52.074 5.925c.025-1.366-.635-2.655-1.763-3.444-1.113-.782-2.432-1.227-3.797-1.28v9.527c1.376-.072 2.701-.543 3.81-1.353 1.123-.794 1.778-2.085 1.75-3.45m-1.14-11.965c.04-1.174-.405-2.315-1.233-3.157-.875-.841-2.002-1.378-3.212-1.53v9.332c1.213-.099 2.35-.62 3.212-1.47.826-.85 1.27-1.995 1.233-3.175m14.276 11.965c0 3.047-1.644 5.217-4.931 6.51-1.858.723-5.382 1.084-10.572 1.084H21.233L20 29.574c.21-4.547.314-8.704.314-12.47 0-3.767-.104-7.83-.314-12.19l1.331-1.317H35.14c4.593 0 7.693.22 9.283.658 3.867 1.06 5.799 3.01 5.795 5.845 0 2.918-1.775 4.933-5.326 6.047 1.74.39 3.356 1.2 4.703 2.358 1.355 1.166 2.12 2.864 2.09 4.639" transform="translate(-35) translate(35)"/>
                <path fill="#000" d="M0 12H11V30H0zM5.5 0C8.538 0 11 2.462 11 5.5S8.538 11 5.5 11 0 8.538 0 5.5 2.462 0 5.5 0" transform="translate(-35) translate(35)"/>
            </g>
        </g>
    </g>
</svg>
