<svg xmlns="http://www.w3.org/2000/svg" viewBox="0 0 231.1 51"><path d="M48.8,49.1l-44.1,0C2.1,49.1,0,47,0,44.5l0-38c0-2.6,2.1-4.6,4.6-4.6c2.6,0,4.6,2.1,4.6,4.6l0,33.4l37.4,0l6.9-8.2  c1.7-2,4.6-2.2,6.5-0.5c2,1.7,2.2,4.6,0.5,6.5l-8.3,9.9C51.4,48.5,50.1,49.1,48.8,49.1"></path> <path d="M203.3,49.4c-0.8,0-1.7,0-2.6-0.1c-2.6-0.1-4.5-2.3-4.4-4.9c0.1-2.6,2.3-4.5,4.9-4.4c8.8,0.5,15.4-2.1,18.6-7.3  c2.8-4.6,2.7-10.7-0.1-15.6c-1.5-2.7-5.2-7.1-12.6-6.9l-0.1,0l-14.5,0l0.1,34.1c0,1.2-0.5,2.4-1.4,3.3c-0.9,0.9-2,1.4-3.3,1.4  l-2.5,0c-1.4,0-2.6-0.6-3.5-1.6L148,7.9c-1.7-1.9-1.4-4.9,0.5-6.5c1.9-1.7,4.9-1.4,6.5,0.5l28.1,32.9l0-29.2c0-1.2,0.5-2.4,1.4-3.3  c0.9-0.9,2-1.4,3.3-1.4l19,0c8.9-0.3,16.5,3.9,20.9,11.5c4.5,7.8,4.5,17.6,0,25.1C224.9,42.1,218.1,49.4,203.3,49.4"></path> <path d="M81.7,49.1L81.7,49.1c-1.4,0-2.7-0.6-3.5-1.6L46.6,10.4l-20.3,0c-2.6,0-4.6-2.1-4.6-4.6c0-2.6,2.1-4.6,4.6-4.6l22.5,0  c1.4,0,2.7,0.6,3.5,1.6l29.4,34.6l30.2-35.4c0.9-1,2.2-1.6,3.5-1.6l0,0c1.4,0,2.6,0.6,3.5,1.6l27.8,32.7l0-9.3  c0-2.6,2.1-4.6,4.6-4.6c2.6,0,4.6,2.1,4.6,4.6l0,19.2c0,2.6-2.1,4.6-4.6,4.6l-2.3,0c-1.4,0-2.6-0.6-3.5-1.6L115.5,12L85.2,47.5  C84.3,48.5,83,49.1,81.7,49.1"></path> <path d="M43,29.6l-16.6,0c-2.6,0-4.6-2.1-4.6-4.6c0-2.6,2.1-4.6,4.6-4.6H43c2.6,0,4.6,2.1,4.6,4.6C47.6,27.5,45.6,29.6,43,29.6"></path> <path d="M74.1,19.4c-1.1,0-2.2-0.4-3-1.1c-1.9-1.7-2.1-4.6-0.5-6.5l8.7-10.1c1.7-1.9,4.6-2.1,6.5-0.5c1.9,1.7,2.1,4.6,0.5,6.5  l-8.7,10.1C76.7,18.8,75.4,19.4,74.1,19.4"></path> <path fill-rule="evenodd" clip-rule="evenodd" fill="#00AD4D" d="M127.6,38.9c0,6.7-5.4,12.1-12.1,12.1c-6.7,0-12.1-5.4-12.1-12.1  c0-6.7,5.4-12.1,12.1-12.1C122.2,26.8,127.6,32.3,127.6,38.9"></path></svg>