<svg width="56" height="56" viewBox="0 0 56 56" fill="none" xmlns="http://www.w3.org/2000/svg">
<g clip-path="url(#clip0_36_2)">
<path d="M37.3333 37.3334C42.488 37.3334 46.6667 33.1547 46.6667 28.0001C46.6667 22.8454 42.488 18.6667 37.3333 18.6667C32.1787 18.6667 28 22.8454 28 28.0001C28 33.1547 32.1787 37.3334 37.3333 37.3334Z" fill="#19BCFE"/>
<path fill-rule="evenodd" clip-rule="evenodd" d="M18.6666 56.0002C23.8213 56.0002 28 51.8215 28 46.6668C28 45.2597 28 42.1486 28 37.3335C23.8071 37.3335 20.696 37.3335 18.6666 37.3335C13.512 37.3335 9.33331 41.5122 9.33331 46.6668C9.33331 51.8215 13.512 56.0002 18.6666 56.0002Z" fill="#09CF83"/>
<path fill-rule="evenodd" clip-rule="evenodd" d="M18.6666 37.3334C20.3849 37.3334 23.496 37.3334 28 37.3334V18.6667C23.496 18.6667 20.3849 18.6667 18.6666 18.6667C13.512 18.6667 9.33331 22.8454 9.33331 28.0001C9.33331 33.1547 13.512 37.3334 18.6666 37.3334Z" fill="#A259FF"/>
<path fill-rule="evenodd" clip-rule="evenodd" d="M18.6666 18.6667C20.3849 18.6667 23.496 18.6667 28 18.6667V0C23.496 0 20.3849 0 18.6666 0C13.512 0 9.33331 4.17868 9.33331 9.33333C9.33331 14.488 13.512 18.6667 18.6666 18.6667Z" fill="#F24E1E"/>
<path fill-rule="evenodd" clip-rule="evenodd" d="M37.3333 18.6667H28V0H37.3333C42.488 0 46.6667 4.17868 46.6667 9.33333C46.6667 14.488 42.488 18.6667 37.3333 18.6667Z" fill="#FF7262"/>
</g>
<defs>
<clipPath id="clip0_36_2">
<rect width="56" height="56" fill="white"/>
</clipPath>
</defs>
</svg>
