<svg width="42" height="18" viewBox="0 0 42 18" fill="none" xmlns="http://www.w3.org/2000/svg">
<path d="M5.04544 14.4742C5.72157 15.1753 6.81676 15.1753 7.4929 14.4742C8.16903 13.7732 8.16903 12.6378 7.4929 11.9368L4.17847 8.50047L7.4929 5.06317C8.16903 4.36217 8.16903 3.22573 7.4929 2.52575C6.81676 1.82475 5.72157 1.82475 5.04544 2.52575L0.507102 7.23155C-0.169034 7.93255 -0.169034 9.06802 0.507102 9.76898L5.04544 14.4742Z" fill="white" fill-opacity="0.7"/>
<path d="M33.5705 14.4742C34.3311 15.1753 35.5632 15.1753 36.3238 14.4742L41.4293 9.76898C42.1902 9.06802 42.1902 7.93255 41.4293 7.23155L36.3238 2.52575C35.5632 1.82475 34.3311 1.82475 33.5705 2.52575C32.8098 3.22573 32.8098 4.36217 33.5705 5.06317L37.2992 8.50047L33.5705 11.9368C32.8098 12.6378 32.8098 13.7732 33.5705 14.4742Z" fill="white" fill-opacity="0.7"/>
<path d="M17.5877 17.9745C17.7139 17.9916 17.8382 18 17.9608 18C18.8809 18 19.7016 17.5328 19.8813 16.8609L23.9636 1.67113C24.1704 0.908697 23.4741 0.171622 22.4122 0.0248464C21.3411 -0.119196 20.3232 0.377571 20.1186 1.13866L16.0362 16.3285C15.8298 17.0906 16.5262 17.8277 17.5877 17.9746L17.5877 17.9745Z" fill="white" fill-opacity="0.7"/>
<path d="M31.9623 12.5404C31.9872 12.5916 31.9998 12.6472 32 12.7071C32.0002 12.767 31.9718 12.827 31.9146 12.8871C31.8656 12.9387 31.8042 12.9647 31.7303 12.965L29.2072 12.977C28.9528 12.9782 28.7759 12.8635 28.6764 12.633L27.6072 10.1871L27.1025 10.1895L27.1133 12.6405C27.1137 12.7346 27.0812 12.816 27.0159 12.8848C26.9505 12.9535 26.8727 12.9881 26.7825 12.9885L24.3701 13C24.2798 13.0004 24.2017 12.9665 24.1358 12.8984C24.0698 12.8303 24.0366 12.7492 24.0362 12.6551L24 4.36546C23.9996 4.27136 24.032 4.18992 24.0974 4.12118C24.1628 4.0524 24.2405 4.01784 24.3308 4.01741L27.974 4.00008C29.1556 3.99448 30.0799 4.26811 30.747 4.82101C31.414 5.36536 31.7498 6.15511 31.7543 7.19026C31.7588 8.21685 31.3193 9.02739 30.4357 9.62187L31.9623 12.5404ZM27.086 6.39114L27.0919 7.75138L27.9904 7.7471C28.1709 7.74624 28.3101 7.68572 28.4081 7.56548C28.506 7.43668 28.5545 7.27816 28.5537 7.08995C28.5529 6.90175 28.5029 6.73946 28.4039 6.60305C28.313 6.45804 28.1732 6.38597 27.9844 6.38687L27.086 6.39114Z" fill="white" fill-opacity="0.7"/>
<path d="M9.07723 4.9389C9.8083 4.31878 10.776 4.00583 11.9802 4.00008C13.1845 3.99437 14.1509 4.30224 14.8794 4.92378C15.6159 5.53694 15.9866 6.40602 15.9915 7.531L15.9999 9.48095C16.0049 10.6226 15.6458 11.4951 14.9227 12.0986C14.2075 12.6937 13.2398 12.9941 12.0195 12.9999C10.7993 13.0057 9.82497 12.7145 9.09665 12.1263C8.37622 11.5298 8.01353 10.6606 8.00854 9.51903L8.00005 7.56904C7.99511 6.43572 8.35416 5.55902 9.07723 4.9389ZM11.3618 10.3156C11.522 10.4814 11.7377 10.5638 12.0089 10.5625C12.28 10.5612 12.495 10.4768 12.6538 10.3094C12.8126 10.142 12.8912 9.88744 12.8897 9.54578L12.8806 7.4458C12.8791 7.11247 12.7983 6.86288 12.6381 6.69697C12.4778 6.52272 12.2621 6.43626 11.9909 6.43755C11.7197 6.43885 11.5048 6.52735 11.346 6.7031C11.1872 6.87055 11.1086 7.12092 11.11 7.45425L11.1192 9.5542C11.1207 9.89586 11.2015 10.1496 11.3618 10.3156Z" fill="white" fill-opacity="0.7"/>
</svg>
