<svg width="88" height="37" viewBox="0 0 88 37" fill="none" xmlns="http://www.w3.org/2000/svg">
<path d="M52.333 12.7457C50.4091 12.7457 48.9763 13.6869 48.9763 15.9522C48.9763 17.6588 49.9206 18.8438 52.2292 18.8438C54.1862 18.8438 55.5155 17.6947 55.5155 15.8813C55.5155 13.8263 54.3261 12.7457 52.333 12.7457ZM48.4865 28.7404C48.031 29.297 47.5773 29.8888 47.5773 30.5865C47.5773 31.9794 49.3599 32.3986 51.8088 32.3986C53.837 32.3986 56.6 32.2568 56.6 30.3779C56.6 29.261 55.2707 29.1922 53.5912 29.0874L48.4865 28.7404ZM58.8378 12.8509C59.4662 13.6523 60.1317 14.7678 60.1317 16.3703C60.1317 20.2377 57.0892 22.5023 52.6837 22.5023C51.5634 22.5023 50.5493 22.3632 49.9206 22.1893L48.7659 24.0353L52.1928 24.2442C58.2435 24.6285 61.8092 24.8031 61.8092 29.4353C61.8092 33.4432 58.2782 35.7067 52.1928 35.7067C45.8633 35.7067 43.4502 34.1038 43.4502 31.3516C43.4502 29.7837 44.1497 28.949 45.3738 27.7972C44.2195 27.3112 43.8352 26.4406 43.8352 25.4991C43.8352 24.7319 44.2195 24.0356 44.8499 23.3729C45.479 22.7119 46.1782 22.0492 47.0176 21.2827C45.3044 20.4463 44.0098 18.6345 44.0098 16.0556C44.0098 12.0495 46.668 9.29789 52.0175 9.29789C53.5217 9.29789 54.4313 9.43557 55.2357 9.6462H62.0557V12.6067L58.8378 12.8509ZM68.2081 6.51926C66.2144 6.51926 65.0604 5.36849 65.0604 3.3817C65.0604 1.39765 66.214 0.316406 68.2081 0.316406C70.2362 0.316406 71.3906 1.39765 71.3906 3.3817C71.3906 5.36849 70.2366 6.51926 68.2081 6.51926ZM63.696 27.4581V24.7069L65.4801 24.4637C65.97 24.3935 66.0394 24.2894 66.0394 23.7657V13.5218C66.0394 13.1396 65.9349 12.8944 65.5839 12.791L63.696 12.1282L64.0804 9.3068H71.3201V23.7657C71.3201 24.324 71.3538 24.3935 71.8801 24.4641L73.6634 24.7073V27.4581H63.696ZM87.4928 26.1074C85.9886 26.8386 83.7855 27.5006 81.7914 27.5006C77.63 27.5006 76.057 25.8299 76.057 21.8906V12.7629C76.057 12.554 76.057 12.4146 75.7761 12.4146H73.3286V9.31262C76.4069 8.96328 77.63 7.43029 78.0146 3.6324H81.3373V8.5814C81.3373 8.82457 81.3373 8.92971 81.6175 8.92971H86.5479V12.4139H81.3373V20.7409C81.3373 22.7965 81.8275 23.5972 83.715 23.5972C84.6954 23.5972 85.7084 23.3541 86.5475 23.0403L87.4928 26.107" fill="#6B6B6B"/>
<path d="M35.9319 16.9634L19.942 1.03313C19.723 0.814885 19.463 0.641758 19.1769 0.52364C18.8907 0.405522 18.584 0.344727 18.2743 0.344727C17.9646 0.344727 17.6579 0.405522 17.3717 0.52364C17.0856 0.641758 16.8256 0.814885 16.6066 1.03313L13.2863 4.3416L17.4983 8.5378C17.9934 8.37004 18.5257 8.34378 19.0351 8.462C19.5444 8.58022 20.0103 8.83819 20.38 9.20669C20.7516 9.5775 21.0112 10.045 21.1288 10.5558C21.2465 11.0666 21.2176 11.6001 21.0455 12.0953L25.1041 16.1397C26.0862 15.8027 27.2195 16.0209 28.0036 16.8035C28.2643 17.0631 28.4711 17.3713 28.6122 17.7105C28.7533 18.0497 28.8259 18.4133 28.8259 18.7805C28.8259 19.1477 28.7533 19.5113 28.6122 19.8505C28.4711 20.1898 28.2643 20.498 28.0036 20.7575C27.545 21.2149 26.9414 21.4998 26.2957 21.5637C25.6499 21.6276 25.0019 21.4666 24.4619 21.108C23.9219 20.7495 23.5234 20.2155 23.334 19.5971C23.1447 18.9787 23.1763 18.314 23.4235 17.7162L19.6381 13.9447L19.6378 23.8701C19.9122 24.0053 20.1628 24.1839 20.38 24.3989C20.6406 24.6586 20.8474 24.9668 20.9885 25.3061C21.1295 25.6454 21.2022 26.009 21.2022 26.3763C21.2022 26.7435 21.1295 27.1072 20.9885 27.4465C20.8474 27.7857 20.6406 28.094 20.38 28.3537C19.2834 29.4462 17.5062 29.4462 16.4114 28.3537C16.0843 28.028 15.843 27.6269 15.709 27.1859C15.5751 26.745 15.5525 26.2779 15.6434 25.8262C15.7343 25.3745 15.9358 24.9521 16.23 24.5967C16.5243 24.2413 16.9021 23.9638 17.3299 23.7889V13.7711C16.9857 13.631 16.6734 13.4235 16.4114 13.1607C15.5809 12.3343 15.3811 11.1202 15.8067 10.104L11.6549 5.96672L0.691329 16.8895C0.472248 17.1077 0.298463 17.3668 0.179897 17.652C0.0613306 17.9372 0.000305176 18.2429 0.000305176 18.5516C0.000305176 18.8602 0.0613306 19.1659 0.179897 19.4511C0.298463 19.7363 0.472248 19.9954 0.691329 20.2137L16.6812 36.1443C17.1235 36.5849 17.7234 36.8324 18.3489 36.8324C18.9744 36.8324 19.5743 36.5849 20.0166 36.1443L35.9319 20.288C36.3742 19.847 36.6227 19.2491 36.6227 18.6257C36.6227 18.0023 36.3742 17.4044 35.9319 16.9634Z" fill="#DE4C36"/>
</svg>
