<svg width="82" height="82" viewBox="0 0 82 82" fill="none" xmlns="http://www.w3.org/2000/svg">
<g clip-path="url(#clip0_94_87)">
<path d="M68.8031 32.608C68.675 29.7893 69.0594 27.2908 67.7781 25.1768C64.7031 19.9236 57.0156 16.8486 41.6406 16.8486V17.2971H41.3203H41.6406V16.8486C26.2656 16.8486 18.1937 19.9236 15.1187 25.2408C13.9016 27.419 14.0297 29.8533 13.8375 32.6721C13.7094 34.9143 12.6844 37.2846 13.1328 39.8471C13.6453 43.1783 13.8375 46.5096 14.35 49.5846C14.7344 52.083 18.1937 54.1971 18.514 56.5674C19.4109 63.1018 26.2015 66.1127 41.5765 66.1127V66.6252H41.1922H41.6406V66.1127C57.0156 66.1127 63.55 63.1018 64.3828 56.5674C64.7031 54.133 67.9062 52.083 68.2906 49.5846C68.8031 46.5096 68.9953 43.1783 69.5078 39.8471C69.9562 37.2846 68.9312 34.8502 68.8031 32.608Z" fill="#EFCCA3"/>
<path d="M41.3843 34.9141C44.139 34.9781 46.0609 36.7078 47.8547 38.3094C49.9687 40.1672 53.5562 41.4484 55.0297 43.05C56.5031 44.6516 58.425 46.2531 59.1297 48.7516C59.8344 51.25 60.0265 54.4531 60.0265 55.2859C60.0265 56.1188 60.475 55.9266 61.7562 55.2859C64.7672 53.8125 68.0984 49.8406 68.0984 49.8406C67.714 52.3391 64.4469 54.5813 64.1265 56.9516C63.3578 63.4859 57.0156 66.625 41.3203 66.625H41.2562H41.6406" fill="#CCAC8D"/>
<path d="M51.5063 29.917C52.0828 31.9029 54.1328 38.6295 50.1609 36.3873C50.1609 36.3873 51.8266 37.3483 52.8516 40.9998C53.9406 44.6514 56.5672 45.0998 56.5672 45.0998C56.5672 45.0998 60.8594 45.9326 64.0625 43.1779C66.7531 40.8717 67.2016 36.7717 66.0484 33.6326C64.8953 30.5576 62.8453 29.5967 59.8344 28.9561C56.8234 28.2514 50.8016 27.6748 51.5063 29.917Z" fill="#CCAC8D"/>
<path d="M59.1297 42.858C62.2432 42.858 64.7672 40.334 64.7672 37.2205C64.7672 34.107 62.2432 31.583 59.1297 31.583C56.0162 31.583 53.4922 34.107 53.4922 37.2205C53.4922 40.334 56.0162 42.858 59.1297 42.858Z" fill="black"/>
<path d="M57.6562 36.1954C58.47 36.1954 59.1297 35.5357 59.1297 34.722C59.1297 33.9082 58.47 33.2485 57.6562 33.2485C56.8425 33.2485 56.1828 33.9082 56.1828 34.722C56.1828 35.5357 56.8425 36.1954 57.6562 36.1954Z" fill="white"/>
<path d="M50.5453 36.9639C50.5453 36.9639 55.6063 40.4232 58.3609 43.8186C61.1156 47.2139 61.0516 47.8545 61.0516 47.8545L59.0656 48.7514C59.0656 48.7514 56.2469 43.4342 52.7875 41.4482C49.2641 39.4623 48.8797 37.7967 48.8797 37.7967L50.5453 36.9639Z" fill="#EFCCA3"/>
<path d="M41.5766 34.9141C38.8219 34.9781 36.7719 36.7078 34.9141 38.3094C32.8 40.1672 29.0844 41.4484 27.6109 43.05C26.1375 44.6516 24.1516 46.2531 23.4469 48.7516C22.7422 51.25 22.4859 54.4531 22.4859 55.2859C22.4859 56.1188 22.6141 56.1828 20.7563 55.2859C17.7453 53.8766 14.4141 49.8406 14.4141 49.8406C14.7984 52.3391 18.0656 54.5813 18.3859 56.9516C19.2828 63.4859 25.625 66.625 41.3203 66.625H41.6406" fill="#CCAC8D"/>
<path d="M56.4391 45.7406C53.3641 41.9609 48.4312 38.4375 41.5766 38.4375H41.5125C34.6578 38.4375 29.725 41.9609 26.65 45.7406C23.4469 49.6484 23.7031 51.1859 23.7031 54.9016C23.7031 68.3547 28.4437 64.5109 31.5828 66.1766C34.7859 67.7781 38.1172 67.2656 41.5125 67.2656H41.5766C45.0359 67.2656 48.3031 67.7141 51.5063 66.1125C54.6453 64.5109 59.3859 68.4828 59.3859 55.0297C59.45 51.3141 59.6422 49.6484 56.4391 45.7406Z" fill="#56332B"/>
<path d="M41.2563 41.7686C41.2563 41.7686 40.8078 47.9826 39.9109 49.1998L41.5766 48.8154L41.2563 41.7686Z" fill="#442823"/>
<path d="M41.7047 41.7686C41.7047 41.7686 42.1532 47.9826 43.05 49.1998L41.3844 48.8154L41.7047 41.7686Z" fill="#442823"/>
<path d="M36.3235 40.2955C35.6828 38.8221 37.9891 36.4518 41.6407 36.3877C45.2922 36.3877 47.5985 38.758 46.9578 40.2955C46.3172 41.833 44.011 42.2814 41.6407 42.3455C39.3344 42.2814 36.9641 41.833 36.3235 40.2955Z" fill="#56332B"/>
<path d="M41.6406 41.7687C41.6406 41.5124 43.8187 41.4483 44.9718 40.6796C44.9718 40.6796 42.6015 41.4483 42.089 41.128C41.5765 40.8718 41.4484 40.103 41.4484 40.103C41.4484 40.103 41.2562 40.8718 40.8718 41.128C40.4234 41.3843 37.7328 40.6796 37.7328 40.6796C37.7328 40.6796 41.3203 41.5765 41.3203 41.7687C41.3203 41.9608 41.2562 42.6015 41.2562 43.0499C41.2562 44.6515 41.2562 48.6233 41.5125 48.9437C41.8968 49.5202 41.7687 44.6515 41.7687 43.0499C41.7047 42.5374 41.7047 42.0249 41.6406 41.7687Z" fill="black"/>
<path d="M41.7687 50.3533C42.8578 50.3533 44.7797 51.1221 46.5093 52.3392C44.8437 50.4814 42.8578 49.2002 41.7687 49.2002C40.6156 49.2002 38.1812 50.6096 36.4515 52.6596C38.2453 51.2502 40.5515 50.3533 41.7687 50.3533Z" fill="#7F4A41"/>
<path d="M41.3203 61.6923C38.8859 61.6923 36.5156 60.9235 34.3375 60.347C33.8891 60.2189 33.4406 60.5392 32.9922 60.411C28.9562 59.1298 25.6891 56.9517 23.7031 54.197V54.8376C23.7031 68.2907 28.4437 64.511 31.5828 66.1126C34.7859 67.7142 38.1172 67.2017 41.5125 67.2017H41.5766C45.0359 67.2017 48.3031 67.6501 51.5063 66.0485C54.6453 64.447 59.3859 68.3548 59.3859 54.9017C59.3859 54.3892 59.3859 53.8767 59.45 53.4282C57.5922 56.4392 54.1969 58.8095 49.9688 60.2189C49.5844 60.347 48.6875 60.0267 48.3031 60.0907C45.9969 60.8595 43.9469 61.6923 41.3203 61.6923Z" fill="#442823"/>
<path d="M35.2343 54.4531C35.2343 54.4531 33.6328 59.2578 34.7219 61.3719L33.2484 60.7313C33.2484 60.7313 34.3375 55.8625 35.2343 54.4531ZM47.9187 54.4531C47.9187 54.4531 49.5203 59.2578 48.4312 61.3719L49.9047 60.7313C49.9047 60.7313 48.7515 55.8625 47.9187 54.4531Z" fill="#442823"/>
<path d="M31.1344 29.917C30.5578 31.9029 28.5078 38.6295 32.4797 36.3873C32.4797 36.3873 30.8141 37.3483 29.7891 40.9998C28.7641 44.6514 26.0735 45.0998 26.0735 45.0998C26.0735 45.0998 21.7813 45.9326 18.5781 43.1779C15.8875 40.8717 15.4391 36.7717 16.5922 33.6326C17.7453 30.4936 19.7953 29.5967 22.8063 28.9561C25.8172 28.2514 31.775 27.6748 31.1344 29.917Z" fill="#CCAC8D"/>
<path d="M41.5765 49.2C43.3062 49.2 48.6875 52.9156 48.7515 57.4641V57.2078C48.7515 52.4672 44.3953 48.6875 41.5765 48.6875C38.7578 48.6875 34.4016 52.5312 34.4016 57.2078V57.4641C34.4656 52.9156 39.8469 49.2 41.5765 49.2Z" fill="black"/>
<path d="M42.9751 40.3301C43.2492 40.2594 43.3639 39.7855 43.2313 39.2716C43.0988 38.7577 42.7691 38.3985 42.495 38.4692C42.221 38.5399 42.1062 39.0138 42.2388 39.5276C42.3714 40.0415 42.701 40.4008 42.9751 40.3301Z" fill="#331712"/>
<path d="M39.6822 40.3204C39.9525 40.4043 40.2992 40.0614 40.4564 39.5545C40.6137 39.0476 40.522 38.5687 40.2516 38.4849C39.9813 38.401 39.6347 38.7439 39.4774 39.2508C39.3202 39.7577 39.4119 40.2366 39.6822 40.3204Z" fill="#331712"/>
<path d="M23.8312 42.858C26.9447 42.858 29.4687 40.334 29.4687 37.2205C29.4687 34.107 26.9447 31.583 23.8312 31.583C20.7177 31.583 18.1937 34.107 18.1937 37.2205C18.1937 40.334 20.7177 42.858 23.8312 42.858Z" fill="black"/>
<path d="M25.3047 36.1954C26.1184 36.1954 26.7781 35.5357 26.7781 34.722C26.7781 33.9082 26.1184 33.2485 25.3047 33.2485C24.4909 33.2485 23.8312 33.9082 23.8312 34.722C23.8312 35.5357 24.4909 36.1954 25.3047 36.1954Z" fill="white"/>
<path d="M43.2422 37.2844C43.2422 37.2203 41.7687 37.925 41.3844 37.9891C41 37.925 39.5266 37.2203 39.5266 37.2844H43.2422Z" fill="#7F4A41"/>
<path d="M32.0313 36.9639C32.0313 36.9639 26.9703 40.4232 24.2157 43.8186C21.461 47.2139 21.525 47.8545 21.525 47.8545L23.511 48.7514C23.511 48.7514 26.3297 43.4342 29.7891 41.4482C33.2485 39.4623 33.6969 37.7967 33.6969 37.7967L32.0313 36.9639Z" fill="#EFCCA3"/>
<path d="M20.9484 26.7139C20.9484 26.7139 19.2187 31.4545 15.375 33.4404C15.375 33.4404 21.3969 32.7357 20.9484 26.7139ZM61.3719 26.7139C61.3719 26.7139 63.1016 31.4545 66.9453 33.4404C66.9453 33.4404 60.9234 32.7357 61.3719 26.7139ZM50.4172 35.5545C50.4172 35.5545 46.6375 31.5826 41.5766 31.4545H41.6406H41.7047C36.5797 31.5826 32.8641 35.5545 32.8641 35.5545C37.2844 32.4795 41.0641 32.5436 41.7047 32.5436C41.6406 32.5436 45.9969 32.4795 50.4172 35.5545ZM45.9969 27.2264C45.9969 27.2264 44.075 24.5357 41.5125 24.4717H41.6406C39.7187 24.5357 37.2203 27.2264 37.2203 27.2264C39.3984 25.1123 41.6406 25.1764 41.6406 25.1764C41.6406 25.1764 43.7547 25.1123 45.9969 27.2264ZM23.8312 46.8936C23.8312 46.8936 20.8203 48.367 18.6422 47.4701H18.5781C16.6562 46.3811 15.6953 43.1139 15.6953 43.1139C15.6953 43.1139 17.6172 48.8795 23.8312 46.8936ZM58.9375 46.8936C58.9375 46.8936 61.9484 48.367 64.1266 47.4701C66.6891 46.3811 67.0734 43.1139 67.0734 43.1139C67.0734 43.1139 65.1516 48.8795 58.9375 46.8936Z" fill="#CCAC8D"/>
<path d="M27.2906 26.3938C28.9562 26.0735 31.7109 26.0095 33.8891 26.7142C36.6438 27.6751 34.4016 31.1985 34.9781 31.3907C35.5547 31.5829 36.3234 28.9563 41.4484 29.2126C46.6375 29.4688 47.2141 31.7751 47.9188 31.3907C48.6234 31.0063 47.2141 24.9845 54.9656 26.3938C54.9656 26.3938 46.8297 24.2157 47.2141 30.1095C47.2141 30.1095 42.5375 26.522 36.0031 29.7251C36.0672 29.7251 37.7328 24.2157 27.2906 26.3938ZM55.6703 26.3938C55.7984 26.3938 55.8625 26.4579 55.9266 26.4579C55.9906 26.4579 55.8625 26.3938 55.6703 26.3938ZM25.0484 18.5142C25.0484 18.5142 18.1297 27.2267 17.1047 30.5579C16.0797 33.9532 15.3109 47.8548 14.4141 49.8407L11.2109 36.1314L17.1047 21.8454L25.0484 18.5142ZM57.5922 18.5142C57.5922 18.5142 64.5109 27.2267 65.5359 30.5579C66.5609 33.9532 67.3297 47.8548 68.2266 49.8407L71.4297 36.1314L65.5359 21.8454L57.5922 18.5142Z" fill="#CCAC8D"/>
<path d="M57.2719 18.5142C57.2719 18.5142 64.7031 24.7283 66.8812 31.9033C69.0594 39.0783 68.1625 47.7908 69.8281 48.8798C72.1984 50.4173 74.8891 41.2564 75.7859 40.2955C77.1953 38.758 81.8719 34.8501 82.1922 34.1455C82.5125 33.4408 72.7109 22.7423 68.4188 20.6283C63.2297 18.1939 56.8234 18.0017 57.2719 18.5142Z" fill="#56332B"/>
<path d="M63.6141 22.3579C63.6141 22.3579 72.3906 33.5688 72.2625 47.5345L75.786 40.3595C75.7219 40.3595 72.6469 31.1985 63.6141 22.3579Z" fill="#442823"/>
<path d="M25.0485 18.5142C25.0485 18.5142 17.6172 24.7283 15.4391 31.9033C13.261 39.0783 14.1578 47.7908 12.4922 48.8798C10.1219 50.4173 7.43127 41.2564 6.5344 40.2955C5.12502 38.758 0.448461 34.8501 0.128149 34.1455C-0.192164 33.4408 9.6094 22.7423 13.9016 20.6283C19.0906 18.1939 25.4969 18.0017 25.0485 18.5142Z" fill="#56332B"/>
<path d="M18.7063 22.3579C18.7063 22.3579 9.9297 33.5688 10.0578 47.5345L6.59845 40.3595C6.59845 40.3595 9.67345 31.1985 18.7063 22.3579Z" fill="#442823"/>
<path d="M13.9656 47.7906C13.9656 47.7906 14.6063 51.25 15.6313 52.339C16.6563 53.4281 15.9516 51.5062 15.9516 51.5062C15.9516 51.5062 14.8625 50.9297 15.0547 46.5094C15.2469 42.089 13.9656 47.7906 13.9656 47.7906ZM68.611 47.7906C68.611 47.7906 67.9703 51.25 66.9453 52.339C65.9203 53.4281 66.625 51.5062 66.625 51.5062C66.625 51.5062 67.7141 50.9297 67.5219 46.5094C67.3297 42.089 68.611 47.7906 68.611 47.7906Z" fill="#CCAC8D"/>
<path d="M34.9141 45.6764C35.1972 45.6764 35.4266 45.4469 35.4266 45.1639C35.4266 44.8808 35.1972 44.6514 34.9141 44.6514C34.6311 44.6514 34.4016 44.8808 34.4016 45.1639C34.4016 45.4469 34.6311 45.6764 34.9141 45.6764Z" fill="#442823"/>
<path d="M31.9672 48.7516C32.2503 48.7516 32.4797 48.5221 32.4797 48.2391C32.4797 47.956 32.2503 47.7266 31.9672 47.7266C31.6842 47.7266 31.4547 47.956 31.4547 48.2391C31.4547 48.5221 31.6842 48.7516 31.9672 48.7516Z" fill="#442823"/>
<path d="M31.0063 45.6764C31.2893 45.6764 31.5188 45.4469 31.5188 45.1639C31.5188 44.8808 31.2893 44.6514 31.0063 44.6514C30.7232 44.6514 30.4938 44.8808 30.4938 45.1639C30.4938 45.4469 30.7232 45.6764 31.0063 45.6764Z" fill="#442823"/>
<path d="M47.4062 45.6764C47.6893 45.6764 47.9188 45.4469 47.9188 45.1639C47.9188 44.8808 47.6893 44.6514 47.4062 44.6514C47.1232 44.6514 46.8937 44.8808 46.8937 45.1639C46.8937 45.4469 47.1232 45.6764 47.4062 45.6764Z" fill="#442823"/>
<path d="M50.3531 48.7516C50.6362 48.7516 50.8656 48.5221 50.8656 48.2391C50.8656 47.956 50.6362 47.7266 50.3531 47.7266C50.0701 47.7266 49.8406 47.956 49.8406 48.2391C49.8406 48.5221 50.0701 48.7516 50.3531 48.7516Z" fill="#442823"/>
<path d="M51.3141 45.6764C51.5971 45.6764 51.8266 45.4469 51.8266 45.1639C51.8266 44.8808 51.5971 44.6514 51.3141 44.6514C51.031 44.6514 50.8016 44.8808 50.8016 45.1639C50.8016 45.4469 51.031 45.6764 51.3141 45.6764Z" fill="#442823"/>
</g>
<defs>
<clipPath id="clip0_94_87">
<rect width="82" height="82" fill="white"/>
</clipPath>
</defs>
</svg>
