<svg width="84" height="84" viewBox="0 0 84 84" fill="none" xmlns="http://www.w3.org/2000/svg">
<path d="M72.2798 46.7625C69.3574 46.7778 66.8175 47.4816 64.6908 48.5221C63.9104 46.9767 63.1301 45.5997 62.9924 44.5898C62.8394 43.4117 62.6558 42.6926 62.8394 41.2849C63.023 39.8773 63.8492 37.8729 63.8339 37.7199C63.8186 37.5669 63.6503 36.8477 61.9673 36.8324C60.2842 36.8171 58.8307 37.1538 58.6624 37.5975C58.4941 38.0412 58.1727 39.051 57.9585 40.0915C57.6678 41.6215 54.5924 47.0838 52.8328 49.945C52.2667 48.8281 51.7771 47.8488 51.67 47.0685C51.517 45.8904 51.3334 45.1712 51.517 43.7636C51.7006 42.3559 52.5268 40.3516 52.5115 40.1986C52.4962 40.0456 52.3279 39.3264 50.6449 39.3111C48.9618 39.2958 47.5083 39.6324 47.34 40.0762C47.1716 40.5199 46.988 41.5603 46.6361 42.5701C46.2842 43.58 42.199 52.6991 41.1279 55.0554C40.5771 56.2641 40.1028 57.2281 39.7662 57.886C39.7662 57.886 39.7509 57.9319 39.705 58.0084C39.4143 58.5745 39.246 58.8805 39.246 58.8805C39.246 58.8805 39.246 58.8805 39.246 58.8958C39.0165 59.3089 38.7716 59.6915 38.6492 59.6915C38.5574 59.6915 38.3891 58.5898 38.6798 57.0904C39.2919 53.9232 40.7454 48.9964 40.7301 48.8281C40.7301 48.7363 41.0055 47.8794 39.7815 47.4357C38.588 46.992 38.1596 47.7264 38.0525 47.7264C37.9454 47.7264 37.8689 47.9865 37.8689 47.9865C37.8689 47.9865 39.2001 42.4477 35.329 42.4477C32.9115 42.4477 29.576 45.0947 27.9236 47.4816C26.8831 48.0477 24.6645 49.2565 22.293 50.557C21.3902 51.062 20.4569 51.5669 19.5848 52.0412C19.5236 51.98 19.4624 51.9035 19.4011 51.8423C14.7192 46.839 6.05907 43.3046 6.42628 36.5876C6.56399 34.1395 7.40552 27.7133 23.058 19.91C35.941 13.5603 46.1924 15.3199 47.9673 19.2215C50.5072 24.7909 42.4744 35.1341 29.1629 36.6335C24.0831 37.1997 21.4208 35.2412 20.7476 34.5068C20.0438 33.7417 19.9367 33.6958 19.6766 33.8488C19.2481 34.0783 19.5236 34.7669 19.6766 35.1647C20.0744 36.2051 21.7115 38.0412 24.4809 38.9439C26.929 39.7395 32.8809 40.1833 40.0875 37.3986C48.1509 34.2773 54.4547 25.6018 52.6033 18.3341C50.752 10.9592 38.5115 8.52643 26.929 12.6423C20.0438 15.0904 12.5771 18.9461 7.20661 23.9647C0.826283 29.9319 -0.183553 35.1188 0.229562 37.2915C1.71372 45.0029 12.3476 50.0215 16.6011 53.7395C16.3869 53.862 16.188 53.9691 16.0197 54.0609C13.893 55.1166 5.78366 59.3548 3.76399 63.8379C1.46891 68.9177 4.1312 72.5592 5.89076 73.0488C11.3531 74.5636 16.9684 71.8401 19.9826 67.3417C22.9968 62.8434 22.6296 56.9986 21.2372 54.321C21.2219 54.2904 21.2066 54.2598 21.176 54.2292C21.7268 53.9078 22.293 53.5712 22.8438 53.2499C23.9301 52.6073 25.0011 52.0106 25.9192 51.521C25.399 52.9439 25.0165 54.6423 24.8328 57.0904C24.6033 59.9669 25.7815 63.7002 27.3268 65.1691C28.0154 65.8117 28.8263 65.827 29.3465 65.827C31.152 65.827 31.9629 64.3275 32.8656 62.5527C33.9673 60.38 34.9618 57.8554 34.9618 57.8554C34.9618 57.8554 33.7225 64.6794 37.0886 64.6794C38.3126 64.6794 39.552 63.0882 40.1028 62.2773V62.2926C40.1028 62.2926 40.1334 62.2467 40.1946 62.1395C40.317 61.9406 40.3935 61.8182 40.3935 61.8182V61.7876C40.8831 60.9308 41.9848 58.9876 43.6219 55.7592C45.7334 51.5975 47.7684 46.3953 47.7684 46.3953C47.7684 46.3953 47.952 47.6652 48.5793 49.7767C48.9465 51.0161 49.7115 52.3778 50.3236 53.6936C49.8339 54.3822 49.5279 54.7647 49.5279 54.7647C49.5279 54.7647 49.5279 54.7647 49.5432 54.78C49.1454 55.3002 48.717 55.8663 48.2427 56.4171C46.5749 58.4062 44.5859 60.686 44.3104 61.3439C43.9891 62.1242 44.0656 62.6904 44.6777 63.1494C45.1214 63.486 45.917 63.5319 46.7279 63.486C48.2274 63.3789 49.2831 63.0117 49.8033 62.7822C50.6143 62.4915 51.5629 62.0477 52.4503 61.3898C54.0875 60.1811 55.082 58.4521 54.9902 56.1723C54.9443 54.9177 54.5312 53.663 54.0263 52.4849C54.1793 52.2707 54.317 52.0565 54.47 51.8423C57.0558 48.063 59.0602 43.9166 59.0602 43.9166C59.0602 43.9166 59.2438 45.1865 59.8711 47.298C60.1771 48.3691 60.8044 49.5319 61.3553 50.6641C58.9225 52.6379 57.423 54.933 56.8875 56.4324C55.9236 59.2171 56.6733 60.4718 58.0962 60.7625C58.7389 60.9002 59.6569 60.5942 60.3301 60.3035C61.1869 60.0281 62.1968 59.5538 63.1607 58.8499C64.7979 57.6412 66.3738 55.9581 66.282 53.6783C66.2361 52.6379 65.9607 51.6128 65.5782 50.6182C67.6438 49.7614 70.3061 49.2871 73.7028 49.6849C80.9859 50.5417 82.4241 55.086 82.1487 56.9986C81.8733 58.9111 80.3432 59.9516 79.8383 60.2729C79.3334 60.5942 79.1651 60.7013 79.211 60.9308C79.2722 61.2674 79.517 61.2521 79.9454 61.1909C80.5421 61.0838 83.7706 59.6456 83.9083 56.1264C84.1378 51.6281 79.8536 46.7166 72.2798 46.7625ZM16.0962 65.7046C13.6787 68.3363 10.3126 69.3308 8.85907 68.4893C7.29842 67.5865 7.91044 63.7002 10.8787 60.9155C12.6842 59.2171 15.0099 57.6412 16.5552 56.6773C16.9072 56.463 17.4274 56.157 18.0547 55.7745C18.1618 55.7133 18.223 55.6827 18.223 55.6827C18.3454 55.6062 18.4678 55.5297 18.5902 55.4532C19.6766 59.4314 18.6361 62.9352 16.0962 65.7046ZM33.6919 53.7395C32.8503 55.7898 31.0908 61.0379 30.0197 60.7472C29.1017 60.5024 28.5356 56.5243 29.8361 52.592C30.494 50.6182 31.8864 48.262 32.6973 47.3439C34.0132 45.8751 35.4667 45.3854 35.8186 45.9822C36.2624 46.7625 34.2121 52.4543 33.6919 53.7395ZM48.2121 60.686C47.8602 60.8696 47.5236 60.992 47.3706 60.9002C47.2635 60.839 47.5236 60.5942 47.5236 60.5942C47.5236 60.5942 49.3443 58.6357 50.0634 57.7483C50.4766 57.2281 50.9662 56.6161 51.4864 55.9275V56.1264C51.4864 58.4674 49.2219 60.0434 48.2121 60.686ZM59.4121 58.1308C59.152 57.9472 59.1979 57.3352 60.07 55.4226C60.4066 54.6729 61.2022 53.4182 62.564 52.2095C62.717 52.6991 62.8241 53.1734 62.8088 53.6171C62.7935 56.5701 60.682 57.6718 59.4121 58.1308Z" fill="#CD6799"/>
</svg>
