<svg width="145" height="33" viewBox="0 0 145 33" fill="none" xmlns="http://www.w3.org/2000/svg">
<g clip-path="url(#clip0_36_9)">
<path d="M12.4598 0C6.11222 0 0.0405884 11.6875 0.0405884 20.625C0.0405884 27.4725 5.58785 33 12.4598 33C19.3318 33 24.8791 27.4725 24.8791 20.625C24.8791 11.6875 18.8074 0 12.4598 0ZM12.4598 26.8125C9.03764 26.8125 6.25021 24.035 6.25021 20.625C6.25021 16.0325 9.39642 10.3125 12.4598 10.3125C15.5232 10.3125 18.6695 16.0325 18.6695 20.625C18.6695 24.035 15.882 26.8125 12.4598 26.8125Z" fill="#00BC87"/>
<path d="M47.1233 26.51H44.5567L44.3359 25.025C43.3424 26.235 41.9073 26.8125 40.0582 26.8125C38.3471 26.8125 37.0224 26.3725 36.0288 25.465C35.0353 24.5575 34.5661 23.4025 34.5661 21.945C34.5661 20.4875 35.0629 19.305 36.084 18.3975C37.1051 17.4625 38.4575 16.995 40.141 16.995C41.7693 16.995 43.0112 17.4625 43.9219 18.37V17.05C43.9219 15.7575 43.5908 14.795 42.956 14.135C42.3212 13.475 41.4105 13.145 40.2514 13.145C39.5338 13.145 38.8438 13.2275 38.1815 13.3925C37.5191 13.5575 37.05 13.7225 36.774 13.8875L36.3048 14.135L35.4768 11.6325C35.6148 11.5225 35.8356 11.4125 36.084 11.2475C36.3324 11.11 36.9396 10.9175 37.8503 10.67C38.761 10.4225 39.7546 10.3125 40.7757 10.3125C42.7628 10.3125 44.3083 10.8625 45.4398 11.99C46.5714 13.1175 47.1233 14.7125 47.1233 16.8025V26.51ZM43.2044 23.705C43.7839 23.21 44.0875 22.5775 44.0875 21.8075C44.0875 21.0375 43.7839 20.405 43.2044 19.91C42.6248 19.415 41.8245 19.1675 40.8585 19.1675C39.9202 19.1675 39.175 19.415 38.5955 19.91C38.0159 20.405 37.7123 21.0375 37.7123 21.8075C37.7123 22.5775 38.0159 23.21 38.5955 23.705C39.175 24.2 39.9202 24.4475 40.8585 24.4475C41.8245 24.4475 42.5972 24.2 43.2044 23.705ZM49.3588 10.615H52.781L56.286 21.945L59.791 10.615H63.02L57.6383 26.4825H54.6853L49.3588 10.615ZM65.1174 16.61C65.1174 14.685 65.7246 13.145 66.9113 12.0175C68.0981 10.8625 69.6436 10.3125 71.5203 10.3125C73.4245 10.3125 74.9701 10.8625 76.1292 11.99C77.2883 13.1175 77.8679 14.63 77.8679 16.5275V20.4875C77.8679 22.44 77.2607 23.9525 76.074 25.1075C74.8873 26.235 73.3417 26.8125 71.4375 26.8125C69.5332 26.8125 68.0153 26.2625 66.8561 25.1625C65.697 24.0625 65.145 22.55 65.145 20.5975V16.61H65.1174ZM68.2913 20.4875C68.2913 21.5875 68.5948 22.44 69.1744 23.045C69.754 23.6775 70.5267 23.98 71.4927 23.98C72.4586 23.98 73.2038 23.6775 73.7833 23.045C74.3629 22.4125 74.6665 21.56 74.6665 20.4875V16.61C74.6665 15.5375 74.3629 14.685 73.7833 14.0525C73.2038 13.42 72.431 13.1175 71.4927 13.1175C70.5267 13.1175 69.754 13.42 69.1744 14.0525C68.5948 14.685 68.2913 15.5375 68.2913 16.61V20.4875ZM91.1703 20.405H94.2337V20.735C94.2337 22.5775 93.6541 24.035 92.5226 25.135C91.3635 26.235 89.8731 26.785 88.0517 26.785C86.2026 26.785 84.7398 26.235 83.6083 25.1625C82.4768 24.09 81.9248 22.605 81.9248 20.7075V16.4725C81.9248 14.6025 82.5044 13.09 83.6635 11.99C84.8226 10.89 86.313 10.3125 88.1344 10.3125C89.9559 10.3125 91.4187 10.8625 92.5502 11.935C93.6817 13.0075 94.2337 14.465 94.2337 16.335V16.61H91.1703V16.4175C91.1703 15.4275 90.8943 14.63 90.3423 14.025C89.7903 13.42 89.0728 13.1175 88.162 13.1175C87.2237 13.1175 86.4785 13.42 85.9542 14.025C85.4022 14.63 85.1262 15.4275 85.1262 16.4725V20.6525C85.1262 21.6975 85.4022 22.495 85.9542 23.1C86.5061 23.705 87.2513 24.0075 88.162 24.0075C89.0728 24.0075 89.7903 23.705 90.3423 23.1275C90.8943 22.55 91.1703 21.7525 91.1703 20.7625V20.405ZM98.3458 16.61C98.3458 14.685 98.953 13.145 100.14 12.0175C101.326 10.8625 102.872 10.3125 104.749 10.3125C106.653 10.3125 108.198 10.8625 109.358 11.99C110.517 13.1175 111.096 14.63 111.096 16.5275V20.4875C111.096 22.44 110.489 23.9525 109.302 25.1075C108.116 26.235 106.57 26.8125 104.666 26.8125C102.762 26.8125 101.244 26.2625 100.085 25.1625C98.9254 24.0625 98.3734 22.55 98.3734 20.5975V16.61H98.3458ZM101.52 20.4875C101.52 21.5875 101.823 22.44 102.403 23.045C102.982 23.6775 103.755 23.98 104.721 23.98C105.687 23.98 106.432 23.6775 107.012 23.045C107.591 22.4125 107.895 21.56 107.895 20.4875V16.61C107.895 15.5375 107.591 14.685 107.012 14.0525C106.432 13.42 105.659 13.1175 104.721 13.1175C103.755 13.1175 102.982 13.42 102.403 14.0525C101.823 14.685 101.52 15.5375 101.52 16.61V20.4875ZM127.931 26.51H125.144L124.978 24.64C124.04 26.0975 122.605 26.8125 120.7 26.8125C118.989 26.8125 117.637 26.29 116.671 25.2725C115.705 24.255 115.208 22.825 115.208 20.9825V16.2525C115.208 14.3825 115.705 12.9525 116.726 11.88C117.72 10.835 119.1 10.3125 120.811 10.3125C122.522 10.3125 123.847 10.9175 124.757 12.1V4.8125H127.959V26.51H127.931ZM124.73 16.61C124.73 15.5375 124.426 14.685 123.847 14.0525C123.267 13.42 122.494 13.1175 121.556 13.1175C120.59 13.1175 119.817 13.42 119.238 14.0525C118.658 14.685 118.355 15.5375 118.355 16.61V20.4875C118.355 21.5875 118.658 22.44 119.238 23.045C119.817 23.6775 120.59 23.98 121.556 23.98C122.522 23.98 123.267 23.6775 123.847 23.045C124.426 22.4125 124.73 21.56 124.73 20.4875V16.61ZM144.877 21.4775C144.849 21.615 144.821 21.8075 144.794 22.055C144.766 22.3025 144.601 22.715 144.352 23.32C144.104 23.925 143.773 24.475 143.386 24.9425C142.972 25.41 142.365 25.85 141.537 26.235C140.709 26.62 139.743 26.8125 138.639 26.8125C136.735 26.8125 135.217 26.2625 134.058 25.1625C132.899 24.0625 132.347 22.55 132.347 20.5975V16.61C132.347 14.685 132.954 13.145 134.141 12.0175C135.328 10.8625 136.873 10.3125 138.75 10.3125C140.626 10.3125 142.117 10.8625 143.248 11.99C144.38 13.1175 144.959 14.63 144.959 16.5275V18.81H135.521V20.4875C135.521 21.5875 135.824 22.44 136.404 23.045C136.983 23.6775 137.756 23.98 138.722 23.98C139.274 23.98 139.771 23.87 140.185 23.65C140.599 23.43 140.93 23.1825 141.123 22.8525C141.316 22.55 141.482 22.2475 141.62 21.945C141.758 21.6425 141.841 21.395 141.841 21.1475L141.868 20.845L144.877 21.4775ZM135.493 16.72H141.868V16.3075C141.868 15.235 141.565 14.3825 140.985 13.75C140.406 13.1175 139.633 12.815 138.695 12.815C137.729 12.815 136.956 13.1175 136.376 13.75C135.797 14.3825 135.493 15.235 135.493 16.3075V16.72Z" fill="#6B6B6B"/>
</g>
<defs>
<clipPath id="clip0_36_9">
<rect width="145" height="33" fill="white"/>
</clipPath>
</defs>
</svg>
