<svg width="42" height="93" viewBox="0 0 42 93" fill="none" xmlns="http://www.w3.org/2000/svg">
<path d="M32.4036 90.1963L33.2985 75.3283L35.7695 71.1226C35.7695 71.1226 30.1456 73.4165 20.7302 73.4165C11.3147 73.4165 5.7761 71.165 5.7761 71.165L8.54534 75.7528L9.52498 90.1963C9.52498 91.7448 14.6464 92.9999 20.9644 92.9999C27.282 92.9999 32.4036 91.7448 32.4036 90.1963ZM29.5808 20.7648L31.4591 13.3621L41.8608 2.44888L39.1193 0.120605L28.107 11.7459L25.9261 20.5902C24.2847 20.5354 22.6425 20.5082 21.0002 20.5085C9.40213 20.5085 0 21.8265 0 23.4519C0 25.0774 9.40213 26.3952 21.0002 26.3952C32.598 26.3952 42 25.0774 42 23.4519C42 22.2549 36.9008 21.2247 29.5808 20.7648Z" fill="#D34A47"/>
<path d="M28.4882 24.9102C28.4882 24.9102 28.0814 25.0011 26.8848 25.0062C25.6878 25.0111 24.8379 24.9985 24.4994 24.6912C24.4084 24.6087 24.3586 24.4449 24.3591 24.334C24.3601 24.1229 24.5104 23.9985 24.7021 23.9206L24.8833 24.2039C24.8045 24.231 24.7594 24.263 24.7593 24.2972C24.7586 24.4576 25.9831 24.5673 26.9197 24.5555C27.8565 24.544 28.9883 24.4671 28.9893 24.309C28.9893 24.2612 28.9037 24.2162 28.7548 24.1807L28.9352 23.8994C29.1779 23.9745 29.3898 24.1196 29.3893 24.3707C29.387 24.7975 28.8419 24.8624 28.4882 24.9102Z" fill="white"/>
<path d="M41.8403 2.47055C42.1018 2.16934 41.7049 1.39889 40.9538 0.74995C40.2024 0.101334 39.3812 -0.180473 39.1192 0.120735C38.8575 0.421943 39.2546 1.19239 40.006 1.841C40.7571 2.48978 41.5786 2.77192 41.8403 2.47055ZM31.9033 53.8799C31.6568 51.5149 37.0912 48.0898 35.6965 47.9802C32.6941 48.1513 31.1998 51.4885 29.6892 54.9836C29.1357 56.2645 27.2415 61.7267 25.9992 61.0543C24.7572 60.3821 27.6094 55.8905 28.4088 53.223C27.4864 53.8975 24.1036 56.5181 23.2318 54.0639C21.8302 55.2508 18.8352 55.8938 19.1731 52.776C18.4274 54.093 16.7539 55.9316 14.7452 55.1676C12.1072 54.1645 16.2737 45.7857 17.3098 46.2085C18.346 46.631 17.1007 48.5397 16.7745 49.2809C16.0572 50.912 15.2286 52.9626 15.7822 53.3824C16.7305 54.1015 19.3111 50.6618 19.3685 50.5862C19.8511 49.9504 21.2262 45.7908 22.3344 46.2685C23.4427 46.7461 19.5702 52.238 21.0181 53.3279C21.3101 53.5479 22.5049 53.1923 23.2318 52.4082C23.7021 51.901 23.5403 50.7775 25.108 47.0499C26.6756 43.3225 28.0728 38.6804 29.1479 39.0341C30.223 39.3875 29.3369 41.7701 28.9512 42.6582C27.1413 46.8268 24.0116 53.7136 25.4876 53.1923C26.9635 52.6711 27.7321 52.6405 29.1774 50.9541C30.6227 49.2677 30.5561 46.4899 31.5194 46.549C32.483 46.6081 32.3213 47.4988 32.0876 48.177C33.0358 47.0951 36.582 44.8167 37.4381 47.0733C38.4522 49.7448 32.3645 53.6038 33.8823 53.407C35.3623 53.2151 37.7598 51.701 38.7835 50.3244L41.6012 25.066C41.6012 25.066 38.7659 27.4057 20.7274 27.4057C2.68874 27.4057 0.146729 25.1147 0.146729 25.1147L2.54561 48.1696C3.81893 44.5612 6.8426 37.2625 11.6087 37.5075C13.7767 37.6189 16.671 41.7814 14.1918 41.9225C13.1424 41.982 13.0359 39.8448 11.7932 39.5309C10.8965 39.3044 9.64812 40.0312 8.84129 40.8188C7.23225 42.3889 3.77161 48.5839 4.22886 51.6724C4.81143 55.61 9.67829 50.3042 10.5018 48.7289C11.0817 47.6193 11.4735 44.3317 12.7419 44.6766C14.0104 45.0215 12.6312 48.4144 11.7118 51.4141C10.6789 54.7825 10.1359 58.3357 8.84129 57.9269C7.54654 57.5185 9.65554 53.1701 9.57919 52.4082C8.36227 53.5277 6.12036 56.3619 3.25219 54.9591L4.74201 69.276C4.74201 69.276 8.70162 72.3954 20.6296 72.3954C32.5576 72.3954 36.6638 69.3247 36.6638 69.3247L38.5137 52.7423C37.0002 54.2118 32.21 56.8214 31.9033 53.8799Z" fill="#D34A47"/>
</svg>
