<svg width="77" height="61" viewBox="0 0 77 61" fill="none" xmlns="http://www.w3.org/2000/svg">
<g clip-path="url(#clip0_97_139)">
<path fill-rule="evenodd" clip-rule="evenodd" d="M15.9931 0.00732422C11.5996 0.00732422 8.34863 3.83065 8.49421 7.97695C8.63393 11.9604 8.4524 17.1196 7.14611 21.3269C5.83516 25.546 3.6196 28.2196 0 28.5628V32.4373C3.6196 32.7812 5.83516 35.4535 7.14596 39.6732C8.4524 43.8805 8.63378 49.0396 8.49406 53.0231C8.34848 57.1688 11.5995 60.9927 15.9937 60.9927H61.0127C65.4062 60.9927 68.6566 57.1694 68.511 53.0231C68.3713 49.0396 68.5529 43.8805 69.8592 39.6732C71.1701 35.4535 73.3802 32.7801 77 32.4373V28.5628C73.3804 28.2189 71.1703 25.5466 69.8592 21.3269C68.5527 17.1202 68.3713 11.9604 68.511 7.97695C68.6566 3.83125 65.4062 0.00732422 61.0127 0.00732422H15.9925H15.9931ZM52.2034 37.5478C52.2034 43.2571 47.9202 46.7196 40.812 46.7196H28.7118C28.3657 46.7196 28.0337 46.5829 27.789 46.3396C27.5442 46.0962 27.4067 45.7662 27.4067 45.4221V15.5781C27.4067 15.234 27.5442 14.904 27.789 14.6606C28.0337 14.4173 28.3657 14.2806 28.7118 14.2806H40.7431C46.6701 14.2806 50.56 17.4726 50.56 22.3734C50.56 25.8132 47.9432 28.8926 44.6095 29.4321V29.6116C49.1477 30.1065 52.2034 33.2315 52.2034 37.5478ZM39.4926 18.3938H32.5933V28.083H38.4042C42.8964 28.083 45.3733 26.2845 45.3733 23.0699C45.3729 20.0573 43.2433 18.3938 39.4926 18.3938ZM32.5933 31.9274V42.605H39.7464C44.4236 42.605 46.901 40.7391 46.901 37.2325C46.901 33.7259 44.3541 31.9268 39.4457 31.9268H32.5933V31.9274Z" fill="#7952B3"/>
</g>
<defs>
<clipPath id="clip0_97_139">
<rect width="77" height="61" fill="white"/>
</clipPath>
</defs>
</svg>
