<svg width="147" height="34" viewBox="0 0 147 34" fill="none" xmlns="http://www.w3.org/2000/svg">
<path fill-rule="evenodd" clip-rule="evenodd" d="M140.312 2.5127L146.462 2.5473C146.462 2.5473 135.028 18.3732 134.095 19.663C133.792 20.0806 133.331 20.531 133.097 21.0894C132.507 22.493 131.901 25.572 131.901 25.572L126.274 25.6008C126.274 25.6008 127.149 22.3912 127.113 20.6818C127.082 19.1885 126.335 17.6969 125.917 16.1992C125.494 14.683 124.919 11.7163 124.919 11.7163H130.704L131.502 14.9766L140.312 2.5127Z" fill="#6B6B6B"/>
<path fill-rule="evenodd" clip-rule="evenodd" d="M128.667 5.85043C129.802 6.54929 130.499 10.4046 130.499 10.4046C130.499 10.4046 124.561 10.494 121.329 10.494H118.536L115.145 25.5721H109.959C109.959 25.5721 113.187 9.18605 113.949 6.21526C114.196 5.25334 115.64 5.41845 118.08 5.41845H121.975C124.491 5.41845 127.431 5.09029 128.667 5.85043ZM104.524 13.1938C104.524 13.1938 104.686 12.2261 103.976 11.1052C103.369 10.1497 102.809 9.92743 101.213 9.8764C96.707 9.73182 96.7945 13.1428 96.7945 13.1428L104.524 13.1938ZM109.411 9.28752C110.071 11.7208 108.812 17.438 108.812 17.438C108.812 17.438 102.24 17.326 98.6397 17.438C97.5203 17.4729 96.1804 17.3137 95.8471 17.8456C95.3783 18.5911 96.0185 19.7387 96.5611 20.2234C97.1856 20.7815 98.402 20.8452 98.8392 20.9018C101.761 21.281 107.877 20.9997 107.877 20.9997L106.817 25.7917C106.817 25.7917 98.1752 26.2345 93.8524 25.1805C92.9989 24.9729 92.1988 24.5532 91.6582 23.9582C91.5106 23.7954 91.3826 23.5734 91.2431 23.3816C91.1317 23.2286 90.8067 22.7256 90.6608 22.3279C89.6735 19.6404 90.7765 14.4918 91.8577 11.7328C91.9832 11.4131 92.1408 11.0075 92.3067 10.6629C92.514 10.2333 92.6894 9.74824 92.8551 9.49134C92.9665 9.31421 93.1046 9.20013 93.2203 9.03297C93.3538 8.8353 93.5091 8.6438 93.6529 8.47283C94.052 8.00008 94.5047 7.66576 95.0493 7.25049C96.8502 5.87272 100.11 4.80318 104.025 5.21258C105.499 5.36742 107.726 5.90527 108.812 7.45402C109.104 7.86752 109.247 8.68867 109.411 9.28782V9.28752ZM85.6244 5.39968L90.6531 5.36947C90.6531 5.36947 87.8505 18.9498 86.4222 25.5721H80.6373C76.5945 25.5721 72.9941 26.0835 71.4622 23.1268C69.9762 20.256 71.3945 15.535 72.0605 12.3275C72.5313 10.0576 73.5229 5.41816 73.5229 5.41816L78.7331 5.36947C78.7331 5.36947 77.2609 12.5926 76.6482 16.1992C76.4289 17.4911 75.9764 18.7076 76.449 19.6627C76.8977 20.5718 77.5261 20.637 79.4408 20.6818C80.0474 20.6965 82.034 20.6818 82.034 20.6818L85.6244 5.39968ZM62.0873 15.1801C62.6138 13.2692 63.3817 11.197 63.2841 9.47492C63.1785 7.6332 61.6667 5.9563 60.6911 5.6038C57.753 4.54422 55.0024 6.02551 53.9092 7.23377C52.495 8.79865 52.0161 10.6266 51.5154 13.1431C51.1428 15.0112 50.8373 16.9834 51.5154 18.4404C52.716 21.0161 56.4603 20.4537 60.4916 20.4783C61.0899 18.8401 61.5846 17.0001 62.0873 15.1801ZM69.0687 7.64141C69.6429 11.9079 67.4392 16.6171 65.9211 20.7123C67.4691 20.8551 68.8256 20.6903 68.9232 20.8082C69.0248 20.961 67.8856 25.6964 67.4886 25.7087C66.2601 25.7413 62.1892 25.7759 60.4916 25.7759C54.9522 25.7759 49.7702 26.1445 47.1275 23.3309C46.0544 22.1877 45.3122 20.2273 45.1325 18.848C44.8334 16.5456 45.2083 14.0106 45.7311 11.9205C46.2039 10.0333 46.81 8.25258 47.7258 6.62231C50.0536 2.472 54.1027 -0.608771 60.8904 0.102401C62.207 0.240823 64.0977 0.829703 65.2788 1.52856C65.3604 1.57753 65.646 1.8098 65.7115 1.85057C67.3074 2.88785 68.7615 5.36332 69.0687 7.64141ZM44.5601 5.42432C44.225 6.98303 43.89 8.74996 43.5369 10.2902H37.9518C38.3845 8.5828 38.7158 6.88537 39.1487 5.39997C40.9358 5.39997 42.5975 5.42432 44.5604 5.42432H44.5601ZM37.7523 11.7167H43.1381C42.4339 15.698 41.0395 22.1203 39.9465 26.5909C39.2624 29.3886 38.8056 31.4301 36.9545 32.9072C36.7888 33.0398 36.6932 32.9767 36.5554 33.1111C36.2143 33.4433 34.6365 33.8287 33.7632 33.9261C32.3429 34.0832 30.7372 33.9466 28.9917 33.9099C29.4485 32.2046 29.9652 30.1567 30.3723 28.6282C34.627 29.1543 34.7347 25.0462 35.5583 21.0895C36.0349 18.8032 37.4793 12.6334 37.7523 11.7167Z" fill="#6B6B6B"/>
<path fill-rule="evenodd" clip-rule="evenodd" d="M25.1857 22.109L25.0703 22.4145C23.1037 26.3267 19.6187 28.7268 14.648 28.8327C12.3243 28.8817 10.1103 28.2726 8.6639 27.6104C5.54265 26.1777 2.91721 23.521 1.48347 20.6825C-0.573245 16.6134 -0.944166 10.9531 3.33234 6.72534C3.39837 6.72534 2.81357 7.6421 2.8796 7.6421L2.76189 8.03331C-0.319743 17.8888 9.17464 26.3349 18.404 25.3689C20.6221 25.1367 23.4505 23.8958 25.1857 22.109Z" fill="#21609B"/>
<path fill-rule="evenodd" clip-rule="evenodd" d="M19.6007 18.0334C21.9227 18.0495 24.3481 16.941 25.7844 15.3846C24.5278 18.6428 20.8895 20.737 16.0107 20.071C11.9254 19.5126 8.03384 15.3134 7.63306 11.1056C7.33994 8.04327 8.38466 6.21563 10.1063 3.99854C9.50805 5.15811 9.2844 6.05228 9.22871 6.62269C8.57471 13.247 14.409 17.9985 19.6007 18.0334Z" fill="#21609B"/>
<path fill-rule="evenodd" clip-rule="evenodd" d="M25.5508 9.80552C25.1899 10.6513 23.1117 12.2484 22.1939 12.4482C18.5596 13.2391 16.2321 11.4786 15.0129 9.47531C14.8317 9.17617 14.4967 8.35913 14.4367 8.15121C13.9638 6.50891 14.1812 4.02494 15.5916 2.73926C15.1667 3.96189 15.1047 5.38189 15.3284 6.30509C15.4639 6.86318 15.8767 7.8377 16.2898 8.45063C17.0414 9.5671 17.5183 9.83837 18.4838 10.4314C18.9187 10.6982 19.3853 10.9123 19.5868 10.971C20.5023 11.2463 22.4353 11.9716 25.5511 9.80552" fill="#21609B"/>
</svg>
