<svg width="470" height="278" viewBox="0 0 470 278" fill="none" xmlns="http://www.w3.org/2000/svg">
<path fill-rule="evenodd" clip-rule="evenodd" d="M133.941 0.32175C133.751 0.514892 133.597 5.40936 133.597 11.1985V21.7236H135.204H136.81V18.036V14.3483H140.268C142.178 14.3483 144.408 14.062 145.25 13.7089C148.753 12.2394 150.34 6.91393 148.212 3.77111C146.359 1.03393 144.57 0.319445 139.106 0.133678C136.455 0.0437911 134.131 0.128147 133.941 0.32175ZM160.083 0.354017C159.908 0.529642 159.765 5.40936 159.765 11.1985V21.7236H167.111H174.456V20.3407V18.9579H168.717H162.979V15.5007V12.0435H167.799H172.62V10.6606V9.27773H167.799H162.979V6.28149V3.28526H168.517H174.055L173.911 1.78714L173.768 0.289021L167.084 0.161797C163.408 0.0921919 160.258 0.178391 160.083 0.354017ZM190.409 0.716331C186.479 2.1241 183.779 5.6403 183.291 9.98207C183.016 12.4256 184.208 16.0188 186.027 18.2346C188.622 21.395 193.516 22.5981 197.311 21.0087C198.928 20.3315 202.002 17.7566 202.002 17.0795C202.002 16.9066 201.411 16.5194 200.689 16.2189C199.492 15.7215 199.254 15.7952 198.004 17.0509C196.553 18.5066 194.043 19.2501 192.17 18.7781C190.646 18.3941 188.351 16.3834 187.458 14.6497C186.428 12.6496 186.506 8.80571 187.614 6.89918C189.988 2.81877 194.735 2.08584 198.21 5.26277C199.077 6.05562 199.419 6.12062 200.39 5.67579C201.837 5.01431 201.83 4.73958 200.328 3.1124C197.815 0.392276 193.932 -0.546237 190.409 0.716331ZM210.266 1.66176V3.28526H213.709H217.152V12.5044V21.7236H218.988H220.825V12.5044V3.28526H224.297H227.77L227.625 1.78714L227.482 0.289021L218.874 0.163641L210.266 0.0382596V1.66176ZM241.598 1.23998C237.714 3.18385 235.105 8.10459 235.689 12.386C236.971 21.7725 248.114 25.0407 253.723 17.675C257.227 13.0714 256.5 6.53133 252.059 2.71413C248.743 -0.135983 245.314 -0.619068 241.598 1.23998ZM267.079 0.32175C266.889 0.514892 266.734 5.40936 266.734 11.1985V21.7236H268.341H269.948V18.036V14.3483L273.276 14.3381C277.843 14.3243 280.229 13.2189 281.431 10.561C282.593 7.98981 282.568 6.69175 281.311 4.20026C279.742 1.09386 278.041 0.330969 272.243 0.133678C269.592 0.0437911 267.268 0.128147 267.079 0.32175ZM297.53 0.912238C297.043 1.8254 291.07 16.7591 289.897 19.995L289.271 21.7236L290.972 21.7186C292.628 21.7135 292.704 21.637 293.826 18.8376L294.98 15.9616H299.087H303.194L304.319 18.8426C305.424 21.6752 305.472 21.7236 307.193 21.7236C308.405 21.7236 308.874 21.5466 308.719 21.1474C308.596 20.8307 306.684 16.0077 304.469 10.4301C300.733 1.02241 300.353 0.27888 299.228 0.146124C298.393 0.0479398 297.863 0.286717 297.53 0.912238ZM319.071 10.862V21.7236H320.678H322.285V16.8688V12.0144L327.679 12.144L333.074 12.274L333.204 16.9988L333.335 21.7236H334.934H336.534L336.41 11.0063L336.287 0.289021H334.686H333.085L333.079 4.66813L333.074 9.04725L327.696 9.17678L322.318 9.30677L322.187 4.79766L322.055 0.289021L320.563 0.144741L319.071 0V10.862ZM143.906 3.57151C144.86 3.9389 145.992 6.13445 145.992 7.61597C145.992 8.24794 145.494 9.34733 144.884 10.0586C143.858 11.2571 143.53 11.352 140.408 11.352H137.04L136.904 7.93818C136.829 6.06023 136.874 4.24543 137.004 3.90479C137.252 3.25483 142.434 3.00453 143.906 3.57151ZM249.156 4.19104C251.416 5.57438 252.643 8.39637 252.407 11.6678C252.191 14.6663 251.286 16.2401 248.787 17.9613C245.866 19.9743 241.556 18.5269 239.874 14.9683C238.803 12.7017 238.854 8.78634 239.979 6.85124C241.923 3.51021 246.076 2.30572 249.156 4.19104ZM277.727 4.41046C279.107 5.88553 279.145 9.00714 277.798 10.3591C277.043 11.1174 276.244 11.2972 273.523 11.3216L270.178 11.352L270.045 7.31865L269.912 3.28526H273.293C276.284 3.28526 276.796 3.41525 277.727 4.41046ZM301.145 9.67922L302.521 13.4264H299.089C297.202 13.4264 295.657 13.3273 295.657 13.2065C295.657 13.0097 296.918 9.61008 298.396 5.82053C299.05 4.14495 299.179 4.32656 301.145 9.67922ZM268.056 63.889C243.645 67.454 227.854 86.6354 224.53 116.76C223.889 122.575 223.895 154 224.538 160.109C226.268 176.521 232.332 190.601 241.672 199.891C248.681 206.864 256.319 210.828 266.691 212.876C272.035 213.932 283.012 213.932 288.355 212.876C312.894 208.03 327.665 188.854 330.589 158.046C330.916 154.602 331.027 146.11 330.892 134.768C330.706 119.1 330.56 116.257 329.7 111.567C325.728 89.9212 315.781 75.1055 300.445 67.9906C298.562 67.1171 295.733 66.0034 294.158 65.5152C287.195 63.3565 276.335 62.6799 268.056 63.889ZM0 65.4622C0 65.6872 0.905795 66.0075 2.01313 66.1739C3.15582 66.3463 4.3963 66.888 4.88248 67.4273C5.70747 68.3423 5.74741 70.8038 5.97834 134.592C6.14866 181.682 6.36627 201.22 6.73125 202.24C8.16593 206.246 10.6735 208.955 14.2131 210.322C16.2125 211.095 18.1214 211.354 23.1343 211.533C27.8166 211.701 29.4262 211.622 29.1902 211.239C29.0134 210.952 28.4836 210.717 28.0131 210.717C26.5026 210.717 24.479 208.563 23.929 206.371C23.5764 204.964 23.4139 195.465 23.4139 176.228V148.14L37.3015 147.891C51.853 147.63 55.2342 147.299 62.3718 145.437C75.4335 142.029 84.8674 134.859 89.1347 125.097C91.6358 119.375 91.9412 117.226 92.1546 103.869C92.3419 92.1282 92.2914 91.0772 91.4036 88.1414C87.5467 75.3922 72.2988 67.289 48.8675 65.5364C41.0059 64.9482 0 64.8865 0 65.4622ZM120.742 65.4742C120.742 65.7056 121.546 66.031 122.528 66.1979C123.545 66.3703 124.781 66.999 125.398 67.6582L126.481 68.8157L126.71 134.811C126.931 198.182 126.975 200.903 127.813 203.224C128.863 206.137 131.253 209.058 133.531 210.215C137.079 212.017 138.952 212.1 176.085 212.1H212.102V209.104V206.107H179.949C150.855 206.107 147.686 206.035 146.641 205.348C144.014 203.619 144.156 207.343 144.156 140.08C144.156 72.3586 144.259 75.0437 141.506 70.8711C139.668 68.0841 135.509 66.1255 130.153 65.5249C124.989 64.9455 120.742 64.9229 120.742 65.4742ZM347.076 65.3557C347.076 65.601 348.057 66.0596 349.257 66.3749C354.419 67.732 354.911 68.635 365.601 96.399C366.723 99.3146 372.951 115.494 379.44 132.354C397.431 179.097 399.812 185.278 401.459 189.513C402.297 191.668 403.868 195.713 404.95 198.502C406.65 202.886 407.263 203.918 409.477 206.131C413.684 210.335 418.446 211.642 429.484 211.622C435.62 211.611 436.757 211.236 432.809 210.524C430.349 210.08 427.771 207.411 425.823 203.292L424.187 199.835L426.549 192.945C427.848 189.156 430.211 182.218 431.8 177.528C433.389 172.838 437.207 161.636 440.284 152.636C443.362 143.636 446.151 135.442 446.482 134.428C448.002 129.782 469.448 66.9608 469.898 65.837C470.201 65.0815 469.967 65.0192 467.304 65.1455L464.379 65.2843L463.3 68.2805C462.327 70.9923 458.749 81.475 447.405 114.837C445.293 121.049 440.739 134.428 437.285 144.569C433.83 154.71 429.385 167.779 427.407 173.61C425.428 179.441 423.254 185.836 422.575 187.822C421.896 189.808 421.182 191.26 420.988 191.049C420.793 190.838 419.69 188.176 418.536 185.134C417.382 182.091 415.634 177.528 414.652 174.993C412.711 169.981 405.74 151.836 404.47 148.487C403.052 144.75 391.125 113.831 388.645 107.462C387.312 104.039 383.9 95.1982 381.062 87.8155C374.975 71.9769 374.232 70.7559 369.099 68.1584C367.212 67.2042 364.533 66.2113 363.144 65.9522C359.489 65.2709 347.076 64.81 347.076 65.3557ZM285.037 68.8009C288.449 69.6136 294.311 72.6582 296.922 74.9736C306.141 83.1515 311.684 97.6593 313.085 117.274C313.684 125.666 313.685 150.84 313.086 159.676C311.758 179.278 305.677 194.916 296.477 202.391C293.146 205.096 288.834 207.268 284.981 208.181C281.32 209.047 273.752 209.053 270.116 208.193C254.406 204.473 244.399 187.925 241.956 161.625C241.337 154.96 241.349 121.468 241.972 115.033C244.975 84.0416 258.471 66.9622 279.068 68.0846C281.181 68.1998 283.866 68.522 285.037 68.8009ZM53.7587 72.3305C64.0961 74.8174 70.4573 79.4509 73.5392 86.7383C74.575 89.1873 74.603 89.6331 74.603 103.544C74.603 115.943 74.4896 118.291 73.7472 121.291C71.3319 131.047 65.9981 137.027 57.1413 139.908C51.9953 141.581 47.3479 142.033 35.2525 142.034L23.4478 142.034L23.3161 108.499C23.1953 77.7205 23.1182 74.8178 22.3809 73.1796C21.9392 72.1978 21.5775 71.2984 21.5775 71.1804C21.5775 71.0629 27.93 71.0596 35.6946 71.1735C47.8937 71.3528 50.348 71.51 53.7587 72.3305ZM274.41 124.877C272.966 126.342 271.784 127.748 271.784 128.002C271.784 128.257 273.024 129.696 274.539 131.202L277.294 133.94L280.279 130.97L283.263 128.001L280.406 125.107C278.835 123.515 277.434 122.213 277.293 122.213C277.151 122.213 275.854 123.412 274.41 124.877ZM264.723 134.603L260.665 138.697L269.07 147.069L277.474 155.441L285.648 147.244C290.143 142.736 293.817 138.838 293.811 138.581C293.806 138.326 292.052 136.355 289.914 134.201L286.027 130.287L281.766 134.548L277.505 138.808L273.392 134.659C271.129 132.377 269.167 130.51 269.03 130.51C268.893 130.51 266.955 132.352 264.723 134.603ZM149.206 266.032V276.634H150.813H152.42V273.003V269.372L156.437 269.175C161.997 268.904 163.762 267.606 164.588 263.182C165.023 260.86 163.586 257.726 161.491 256.426C160.087 255.555 159.217 255.43 154.546 255.43H149.206V266.032ZM175.374 266.032V276.634H176.981H178.588V272.946V269.259H181.056H183.524L185.761 272.946C187.917 276.502 188.059 276.634 189.72 276.634C190.667 276.634 191.442 276.479 191.441 276.288C191.439 276.098 190.809 275.009 190.039 273.868C189.27 272.727 188.248 271.045 187.769 270.13L186.899 268.467L187.965 267.895C189.374 267.137 190.984 264.197 190.984 262.378C190.984 260.315 189.365 257.394 187.637 256.336C186.395 255.576 185.314 255.433 180.769 255.432L175.374 255.43V266.032ZM206.534 256.33C203.143 258.179 201.084 261.689 201.084 265.618C201.084 272.168 205.151 276.634 211.118 276.634C214.117 276.634 216.517 275.451 218.69 272.902C222.741 268.15 221.633 260.38 216.396 256.818C214.079 255.242 208.99 254.99 206.534 256.33ZM237.732 263.151C237.564 270.727 237.221 272.557 235.791 273.516C235.065 274.003 231.278 273.933 230.466 273.417C229.969 273.101 229.691 273.199 229.465 273.77C228.897 275.207 229.075 275.681 230.443 276.392C233.444 277.95 238.017 276.744 239.751 273.937C240.71 272.383 240.802 271.616 240.957 263.842L241.126 255.43H239.515H237.904L237.732 263.151ZM252.961 266.032V276.634H260.077H267.193V275.251V273.868H261.684H256.175V270.411V266.954H261.026H265.877L265.732 265.686L265.587 264.419L260.881 264.287L256.175 264.156V261.176V258.196H261.684H267.193V256.813V255.43H260.077H252.961V266.032ZM281.95 256.425C277.229 258.771 275.034 265.809 277.519 270.635C278.628 272.787 280.535 274.786 282.383 275.732C285.745 277.455 291.247 276.536 293.754 273.834C295.026 272.464 295 271.663 293.666 271.053C292.745 270.631 292.398 270.759 291.211 271.951C288.592 274.58 283.872 274.322 281.724 271.434C278.577 267.201 279.328 261.591 283.372 259.115C286.008 257.501 290.319 258.237 291.53 260.508C291.989 261.369 292.106 261.383 293.379 260.722C294.127 260.334 294.739 259.854 294.739 259.657C294.739 259.005 291.778 256.417 290.463 255.919C288.254 255.083 284.16 255.326 281.95 256.425ZM303.462 256.813V258.196H306.895H310.329L310.453 267.3L310.578 276.404L312.06 276.547L313.542 276.691L313.667 267.559L313.792 258.426L317.35 258.292L320.908 258.157V256.793V255.43H312.185H303.462V256.813ZM159.933 259.151C160.906 259.92 161.142 260.496 161.142 262.096C161.142 263.368 160.826 264.479 160.265 265.174C159.487 266.139 159.006 266.263 156.018 266.263H152.649L152.516 262.229L152.384 258.196H155.553C158.065 258.196 158.974 258.394 159.933 259.151ZM186.417 259.374C188.044 261.113 187.952 263.913 186.219 265.409C185.076 266.396 184.547 266.517 181.868 266.398L178.818 266.263L178.685 262.229L178.552 258.196H181.933C184.966 258.196 185.428 258.317 186.417 259.374ZM214.419 259.234C216.609 260.716 217.733 262.893 217.771 265.724C217.83 270.159 215.394 273.31 211.58 273.729C209.335 273.976 207.235 272.86 205.487 270.493C204.087 268.595 204.127 263.68 205.563 261.363C207.487 258.257 211.536 257.283 214.419 259.234Z" fill="white"/>
</svg>
