<svg width="122" height="77" viewBox="0 0 122 77" fill="none" xmlns="http://www.w3.org/2000/svg">
<path fill-rule="evenodd" clip-rule="evenodd" d="M112.893 41.9494C114.904 39.1612 117.202 35.1693 118.827 31.2269C120.479 27.2634 121.41 23.3457 121.793 19.8197C122.176 16.2938 122.007 13.1385 121.459 10.5655C120.907 7.99608 119.975 5.98782 118.347 4.1525C116.722 2.31719 114.401 0.675992 110.261 0.799523C106.122 0.923054 100.14 2.83249 95.9561 5.42664C91.7684 8.02078 89.3537 11.3244 88.1567 14.4585C86.9597 17.5927 86.9597 20.5786 87.7496 23.7127C88.5637 26.8469 90.1885 30.1258 92.1996 33.4046C94.2106 36.687 96.6012 39.9412 98.7295 42.3377C100.834 44.713 102.652 46.2306 104.066 47.0142C105.477 47.7977 106.457 47.8224 107.798 47.0636C109.161 46.2801 110.862 44.713 112.893 41.9459V41.9494Z" fill="#00BCA6"/>
<path d="M0.358918 31.4246V28.5623H16.0509V31.4246H9.66233V57.9097H6.74402V31.4246H0.355469H0.358918ZM18.9726 57.9097L22.9672 28.5623H23.5398L35.2372 52.6225L46.8173 28.5623H47.2485L51.3638 57.9097H48.6111L45.7411 36.8847L35.5477 57.9097H34.7819L24.5678 36.7365L21.8185 57.9097H18.9726ZM56.9383 57.9097V28.5623H62.8715C67.1558 28.5623 70.2639 28.9293 72.2267 29.614C75.0277 30.5952 77.1802 32.307 78.7325 34.8023C80.2882 37.2482 81.1023 40.213 81.1023 43.5907C81.1023 46.5272 80.5056 49.1213 79.212 51.3731C77.9667 53.5755 76.3903 55.2414 74.3792 56.3179C72.4164 57.3697 69.643 57.9097 66.0761 57.9097H56.9383ZM59.6876 55.1214H62.9888C66.9592 55.1214 69.6637 54.8779 71.2194 54.3379C73.3719 53.6531 75.0725 52.3543 76.2902 50.4943C77.5355 48.6343 78.1323 46.3331 78.1323 43.6401C78.1323 40.8236 77.4631 38.3777 76.1488 36.3694C74.8311 34.3611 72.9407 33.0164 70.5502 32.2329C68.7564 31.6929 65.8381 31.4246 61.7228 31.4246H59.691V55.1179L59.6876 55.1214Z" fill="#22201E"/>
<path d="M0 76.4606V73.157H0.910679C1.67648 71.7382 2.05938 69.7299 2.05938 67.1358V65.6181H8.08917V73.157H9.3586L9.16543 76.4606H8.11332V74.3076H1.26943L1.03141 76.4606H0.00344954H0ZM2.27325 73.157H6.81974V66.7687H3.25637V67.9687C3.25637 70.1464 2.94591 71.8864 2.2767 73.157H2.27325ZM18.1342 73.157C17.2719 74.0394 16.2197 74.5053 14.9779 74.5053C13.7085 74.5053 12.6805 74.0641 11.8423 73.1853C11.004 72.2782 10.5728 71.2264 10.5728 69.977C10.5728 68.7276 11.004 67.6511 11.8423 66.7723C12.6805 65.8899 13.7326 65.4487 15.0021 65.4487C16.2715 65.4487 17.3236 65.8899 18.1584 66.7723C18.9966 67.6546 19.4037 68.7064 19.4037 69.977C19.4037 71.2017 18.9966 72.2782 18.1342 73.1606V73.157ZM15.0021 73.3547C15.9127 73.3547 16.6544 73.0123 17.2512 72.3735C17.8238 71.7135 18.1135 70.9299 18.1135 69.9735C18.1135 69.0205 17.8272 68.2123 17.227 67.5734C16.6061 66.9134 15.8644 66.5711 14.9779 66.5711C14.0672 66.5711 13.3049 66.8887 12.7288 67.5523C12.1769 68.2123 11.8664 69.0205 11.8664 69.977C11.8664 70.9088 12.1769 71.6888 12.7737 72.3523C13.3704 73.0123 14.1121 73.3547 14.9986 73.3547H15.0021ZM25.5025 74.5018C24.2813 74.5018 23.2534 74.0359 22.4393 73.1535C21.601 72.2711 21.1698 71.1947 21.1698 69.9699C21.1698 68.7205 21.601 67.644 22.4393 66.7652C23.2534 65.8828 24.2813 65.4417 25.5025 65.4417C26.8202 65.4417 27.9413 65.957 28.9003 66.984L28.1103 67.8417C27.3204 66.984 26.4373 66.5675 25.5025 66.5675C24.6401 66.5675 23.9226 66.8852 23.3499 67.5487C22.7532 68.2087 22.4669 69.017 22.4669 69.9735C22.4669 70.9052 22.7532 71.6853 23.3775 72.3488C23.9502 73.0088 24.6918 73.3512 25.5783 73.3512C26.489 73.3512 27.3238 72.91 28.1379 72.0276L28.9761 72.8111C27.9965 73.937 26.8478 74.5018 25.5059 74.5018H25.5025ZM33.1121 74.3076V66.7687H30.0731V65.6181H37.4172V66.7687H34.3781V74.3076H33.1087H33.1121ZM41.7739 74.4806C40.9116 74.4806 40.1699 74.2582 39.549 73.7712C38.9281 73.2806 38.6176 72.5958 38.6176 71.7417C38.6176 70.8347 38.9522 70.1499 39.5973 69.6593C40.2423 69.1688 41.1289 68.9252 42.2293 68.9252C43.1158 68.9252 43.9748 69.024 44.8371 69.2923V69.024C44.8371 68.2652 44.6198 67.6758 44.1679 67.2628C43.7367 66.8711 43.1158 66.677 42.3259 66.677C41.4876 66.677 40.6287 66.8711 39.7422 67.2876L39.3593 66.2358C40.4114 65.7452 41.4635 65.5017 42.4432 65.5017C43.6401 65.5017 44.5715 65.8193 45.1959 66.4546C45.7685 67.0652 46.0824 67.8981 46.0824 68.9993V74.3112H44.8371V73.0123C44.0713 73.9935 43.0675 74.4806 41.7739 74.4806ZM42.012 73.4535C42.8019 73.4535 43.4711 73.2312 44.023 72.7935C44.575 72.3523 44.8371 71.7911 44.8371 71.1029V70.2946C43.9989 70.0511 43.1848 69.9276 42.3742 69.9276C41.6084 69.9276 40.9874 70.1005 40.5563 70.4182C40.1009 70.7358 39.887 71.1523 39.887 71.717C39.887 72.2323 40.1044 72.6488 40.508 72.9664C40.9392 73.2841 41.4186 73.457 42.0154 73.457L42.012 73.4535ZM48.7351 74.3112V65.6217H52.8504C53.6887 65.6217 54.3579 65.8158 54.8615 66.2075C55.3651 66.5993 55.6273 67.1393 55.6273 67.7993C55.6273 68.7029 55.1478 69.3911 54.2164 69.7829C55.4617 70.1499 56.0826 70.8347 56.0826 71.9358C56.0826 72.6453 55.7963 73.2347 55.2444 73.6723C54.6959 74.0888 53.9301 74.3076 52.9953 74.3076H48.7351V74.3112ZM50.0045 73.1853H52.8263C53.423 73.1853 53.9025 73.0617 54.2613 72.8182C54.5959 72.55 54.7891 72.1829 54.7891 71.7417C54.7891 71.3252 54.5959 70.9829 54.2371 70.7394C53.8542 70.517 53.3265 70.397 52.6572 70.397H50.0011V73.1888L50.0045 73.1853ZM50.0045 69.3417H52.6124C53.1402 69.3417 53.5679 69.2429 53.8818 68.9746C54.1923 68.7523 54.3372 68.4099 54.3372 67.9723C54.3372 67.5805 54.1923 67.2876 53.906 67.0652C53.5955 66.8464 53.1885 66.7228 52.6607 66.7228H50.0045V69.3417ZM58.3524 74.3112V65.6217H59.6219V70.6158L64.2649 65.6217H65.8207L62.2815 69.3911L65.9173 74.3112H64.434L61.4191 70.3229L59.6253 72.2076V74.3112H58.3559H58.3524ZM70.174 74.4841C69.3116 74.4841 68.57 74.2618 67.9491 73.7747C67.3281 73.2841 67.0177 72.5994 67.0177 71.7453C67.0177 70.8382 67.3523 70.1535 67.9974 69.6629C68.6424 69.1723 69.5289 68.9287 70.6294 68.9287C71.5159 68.9287 72.3748 69.0276 73.2372 69.2958V69.0276C73.2372 68.2687 73.0199 67.6793 72.568 67.2664C72.1368 66.8746 71.5159 66.6805 70.7259 66.6805C69.8877 66.6805 69.0288 66.8746 68.1422 67.2911L67.7593 66.2393C68.8114 65.7487 69.8394 65.5052 70.8432 65.5052C72.0402 65.5052 72.9716 65.8228 73.596 66.4581C74.1686 67.0687 74.4825 67.9017 74.4825 69.0029V74.3147H73.2372V73.0159C72.4714 73.997 71.4676 74.4841 70.174 74.4841ZM70.412 73.457C71.202 73.457 71.8712 73.2347 72.4231 72.797C72.975 72.3558 73.2372 71.7947 73.2372 71.1064V70.2982C72.399 70.0546 71.5849 69.9311 70.7742 69.9311C70.0084 69.9311 69.3875 70.1041 68.9563 70.4217C68.501 70.7394 68.2871 71.1558 68.2871 71.7205C68.2871 72.2358 68.5044 72.6523 68.908 72.97C69.3392 73.2876 69.8187 73.4606 70.4155 73.4606L70.412 73.457ZM85.7728 74.5088C84.5758 74.5088 83.572 74.0923 82.7821 73.2347C81.9438 72.377 81.5368 71.3005 81.5368 69.9805C81.5368 68.7099 81.9438 67.6299 82.7096 66.7511C83.4754 65.8934 84.431 65.4522 85.6038 65.4522C86.825 65.4522 87.7805 65.8934 88.498 66.7511C89.1913 67.6334 89.5501 68.7099 89.5501 70.0546C89.5501 70.2029 89.5501 70.3723 89.5501 70.4958H82.8269C82.8994 71.3782 83.234 72.0629 83.8066 72.6029C84.3585 73.1182 85.0277 73.3864 85.7935 73.3864C86.8215 73.3864 87.708 72.97 88.4738 72.1617L89.2638 72.8711C88.3048 73.9723 87.1354 74.5123 85.7694 74.5123L85.7728 74.5088ZM82.8304 69.4652H88.2841C88.1875 68.6076 87.9254 67.8981 87.47 67.3617C86.9905 66.797 86.3696 66.5287 85.5797 66.5287C84.8622 66.5287 84.2412 66.797 83.7135 67.3617C83.2098 67.9017 82.8994 68.6111 82.8269 69.4652H82.8304ZM90.5332 76.4641V73.1606H91.4439C92.2097 71.7417 92.5684 69.7335 92.5684 67.1393V65.6217H98.6224V73.1606H99.8918L99.7021 76.4641H98.65V74.3112H91.7854L91.5681 76.4641H90.5401H90.5332ZM92.7823 73.1606H97.353V66.7723H93.7896V67.9723C93.7896 70.1499 93.455 71.89 92.7858 73.1606H92.7823ZM101.634 74.3112V65.6217H102.879V68.8758H105.152C106.132 68.8758 106.946 69.0982 107.567 69.5111C108.188 69.9523 108.498 70.6123 108.498 71.47C108.498 72.3276 108.188 73.0123 107.615 73.5276C107.043 74.0429 106.277 74.3112 105.294 74.3112H101.634ZM102.879 73.1606H105.177C105.822 73.1606 106.325 73.0159 106.684 72.7441C107.043 72.4511 107.212 72.0594 107.212 71.5194C107.212 71.0288 107.043 70.637 106.684 70.3688C106.301 70.1252 105.797 69.977 105.128 69.977H102.879V73.1606ZM110.033 74.3112V65.6217H111.279V74.3112H110.033Z" fill="#22201E"/>
<path d="M106.842 43.9329C107.87 42.5388 108.947 40.7988 110.002 38.9141C110.958 37.2023 111.868 35.3634 112.61 33.5528C113.376 31.7175 113.973 29.8822 114.428 28.0963C114.932 26.1868 115.266 24.3515 115.456 22.6115C115.625 20.9703 115.67 19.4279 115.625 18.0091C115.577 16.5161 115.408 15.1467 115.121 13.8973C114.883 12.722 114.549 11.6949 114.118 10.7631C113.686 9.85607 113.114 9.02311 112.417 8.2184C111.724 7.45957 110.885 6.72544 109.833 6.21014C108.733 5.67013 107.346 5.35248 105.552 5.4266C103.638 5.47601 101.247 5.96661 98.8292 6.75015C96.4111 7.53368 93.9964 8.58546 92.0336 9.81018C90.2398 10.9361 88.7807 12.1855 87.632 13.5055C86.3625 14.9738 85.4795 16.5161 84.9068 18.0091C84.3791 19.4032 84.0927 20.7515 84.0686 22.0962C84.0203 23.4656 84.1893 24.8386 84.5722 26.2574C84.931 27.701 85.5036 29.2186 86.2246 30.761C86.9662 32.3528 87.8493 33.9199 88.8083 35.4834C89.7879 37.0752 90.8435 38.667 91.9198 40.1105C93.0202 41.6282 94.1447 43.0223 95.1727 44.1976C96.1316 45.2741 97.0389 46.1812 97.853 46.9153C98.7154 47.6495 99.457 48.1895 100.078 48.5318C100.557 48.8001 100.94 48.9483 101.227 48.9483C101.513 48.9483 101.848 48.8248 102.279 48.5812C102.875 48.2389 103.572 47.6989 104.383 46.8906C105.125 46.1318 105.963 45.1541 106.846 43.9294L106.842 43.9329ZM112.8 40.5305C111.675 42.5388 110.502 44.3741 109.426 45.8918C108.422 47.2612 107.488 48.3659 106.625 49.2448C105.597 50.2718 104.662 50.9848 103.828 51.4471C102.917 51.9872 102.082 52.2307 101.196 52.2307C100.312 52.206 99.4743 51.9377 98.5636 51.4224C97.7253 50.9813 96.794 50.2965 95.7625 49.3895C94.8553 48.6059 93.848 47.6036 92.7959 46.4036C91.6714 45.1541 90.4985 43.6612 89.3498 42.0941C88.2011 40.527 87.1007 38.8858 86.0969 37.2482C85.0448 35.5364 84.0858 33.8458 83.3235 32.1799C82.5336 30.4681 81.8885 28.7775 81.4573 27.0904C81.0261 25.3786 80.7881 23.688 80.8605 21.9974C80.9088 20.2856 81.2434 18.5703 81.9126 16.8338C82.606 14.9985 83.6823 13.1138 85.238 11.3278C86.5764 9.78548 88.277 8.31722 90.3813 6.99368C92.5821 5.62425 95.2382 4.44894 97.8461 3.61599C100.526 2.73363 103.227 2.19715 105.476 2.14774C107.822 2.07362 109.664 2.5148 111.172 3.22422C112.727 3.95835 113.852 4.96071 114.783 6.01249C115.715 7.03956 116.436 8.14075 117.008 9.31606C117.56 10.4914 117.964 11.762 118.278 13.1843C118.564 14.5785 118.781 16.1703 118.83 17.8856C118.902 19.4774 118.83 21.1891 118.636 22.9539C118.447 24.8633 118.064 26.868 117.536 28.9257C117.032 30.8351 116.387 32.8187 115.573 34.8234C114.759 36.7823 113.804 38.7411 112.8 40.527V40.5305Z" fill="#1E4858"/>
<path fill-rule="evenodd" clip-rule="evenodd" d="M110.286 21.0942C111.41 26.6495 107.94 32.0602 102.486 33.2108C97.2465 34.312 91.9135 30.7649 90.789 25.206C89.0676 16.6153 98.5401 9.73637 106.005 14.7553C107.823 15.98 109.665 18.0588 110.289 21.0942H110.286Z" fill="#1E4858"/>
<path fill-rule="evenodd" clip-rule="evenodd" d="M107.488 21.708C108.302 25.6716 105.814 29.5399 101.937 30.3481C98.2048 31.1563 94.3999 28.6116 93.5893 24.6445C92.344 18.4997 99.1155 13.6044 104.448 17.1797C105.742 18.0621 107.056 19.5303 107.488 21.708Z" fill="#FCFCFE"/>
<path fill-rule="evenodd" clip-rule="evenodd" d="M102.486 24.7893C102.845 26.5752 101.745 28.2905 100.023 28.6329C98.3502 28.9999 96.6737 27.8741 96.3149 26.1129C95.7664 23.3952 98.7537 21.2175 101.124 22.7846C101.696 23.1763 102.296 23.8364 102.486 24.7928V24.7893Z" fill="#1E4858"/>
<path fill-rule="evenodd" clip-rule="evenodd" d="M97.1533 56.8576C97.1533 57.9588 98.9954 58.8412 101.293 58.8412C103.494 58.8412 105.384 57.9588 105.384 56.8576C105.384 55.1706 100.982 54.2388 98.3503 55.4882C97.7294 55.8059 97.1533 56.2718 97.1533 56.8576Z" fill="#1E4858"/>
</svg>
