<?xml version="1.0" encoding="UTF-8"?>
<svg xmlns="http://www.w3.org/2000/svg" xmlns:xlink="http://www.w3.org/1999/xlink" viewBox="0 0 100 100" width="100px" height="100px">
<g id="surface117872423">
<path style=" stroke:none;fill-rule:nonzero;fill:rgb(41.568628%,35.294119%,80.392158%);fill-opacity:1;" d="M 31 17 C 23.28125 17 17 23.28125 17 31 L 17 69 C 17 76.71875 23.28125 83 31 83 L 69 83 C 76.71875 83 83 76.71875 83 69 L 83 31 C 83 23.28125 76.71875 17 69 17 Z M 31 19 L 69 19 C 75.640625 19 81 24.359375 81 31 L 81 69 C 81 75.640625 75.640625 81 69 81 L 31 81 C 24.359375 81 19 75.640625 19 69 L 19 31 C 19 24.359375 24.359375 19 31 19 Z M 33.5 22 C 27.15625 22 22 27.15625 22 33.5 L 22 66.5 C 22 72.84375 27.15625 78 33.5 78 L 66.5 78 C 72.84375 78 78 72.84375 78 66.5 L 78 49.5 C 78.003906 49.320312 77.90625 49.152344 77.753906 49.0625 C 77.597656 48.96875 77.402344 48.96875 77.246094 49.0625 C 77.09375 49.152344 76.996094 49.320312 77 49.5 L 77 66.5 C 77 72.304688 72.304688 77 66.5 77 L 33.5 77 C 27.695312 77 23 72.304688 23 66.5 L 23 33.5 C 23 27.695312 27.695312 23 33.5 23 L 66.5 23 C 66.816406 23 67.132812 23.019531 67.453125 23.046875 C 67.632812 23.066406 67.804688 22.984375 67.910156 22.839844 C 68.011719 22.691406 68.027344 22.503906 67.953125 22.339844 C 67.878906 22.179688 67.722656 22.070312 67.542969 22.050781 C 67.207031 22.023438 66.859375 22 66.5 22 Z M 77.492188 36.992188 C 77.359375 36.996094 77.234375 37.050781 77.140625 37.144531 C 77.046875 37.238281 76.996094 37.367188 77 37.5 L 77 39.5 C 76.996094 39.679688 77.09375 39.847656 77.246094 39.9375 C 77.402344 40.03125 77.597656 40.03125 77.753906 39.9375 C 77.90625 39.847656 78.003906 39.679688 78 39.5 L 78 37.5 C 78.003906 37.363281 77.949219 37.234375 77.855469 37.136719 C 77.757812 37.042969 77.628906 36.988281 77.492188 36.992188 Z M 32.871094 38.996094 C 32.203125 38.996094 31.691406 39.175781 31.371094 39.527344 C 31.054688 39.882812 31 40.324219 31 40.683594 C 31 41.378906 31.242188 43.132812 32.121094 45.667969 C 33 48.199219 34.515625 51.457031 37.070312 54.9375 C 40.800781 60.015625 45.734375 62.996094 50.226562 62.996094 C 50.945312 62.996094 51.628906 62.824219 52.152344 62.402344 C 52.679688 61.984375 53 61.308594 53 60.496094 L 53 55.929688 C 53 55.585938 53.109375 55.386719 53.273438 55.238281 C 53.4375 55.09375 53.6875 55 54 55 C 54.378906 55 54.734375 55.113281 55.339844 55.585938 C 55.949219 56.0625 56.761719 56.894531 57.90625 58.226562 C 59.222656 59.757812 59.996094 60.882812 60.667969 61.683594 C 61.34375 62.484375 62.035156 63 62.964844 63 L 67 63 C 67.539062 63 68.019531 62.894531 68.394531 62.609375 C 68.769531 62.324219 68.984375 61.859375 68.996094 61.367188 C 69.007812 61.109375 68.96875 60.851562 68.898438 60.578125 L 68.894531 60.558594 L 68.886719 60.535156 C 68.535156 59.503906 67.328125 57.382812 65.582031 55.28125 C 64.636719 54.144531 63.691406 52.996094 63.292969 52.433594 L 63.292969 52.429688 L 63.289062 52.425781 C 63.03125 52.066406 62.996094 51.910156 63 51.789062 C 63.003906 51.671875 63.097656 51.464844 63.316406 51.089844 L 63.324219 51.074219 C 63.328125 51.074219 63.332031 51.0625 63.335938 51.058594 L 63.355469 51.027344 C 63.386719 50.976562 63.441406 50.898438 63.507812 50.796875 C 63.640625 50.59375 63.839844 50.296875 64.074219 49.9375 C 64.550781 49.210938 65.199219 48.222656 65.859375 47.152344 C 66.523438 46.078125 67.207031 44.929688 67.761719 43.886719 C 68.308594 42.847656 68.726562 41.941406 68.882812 41.21875 C 68.964844 40.953125 69.003906 40.6875 68.996094 40.441406 L 68.996094 40.4375 C 68.980469 40.046875 68.816406 39.644531 68.484375 39.378906 C 68.152344 39.113281 67.710938 39 67.183594 39 L 63.148438 39 C 62.542969 39 62.039062 39.195312 61.671875 39.496094 C 61.308594 39.796875 61.089844 40.175781 60.929688 40.523438 L 60.929688 40.519531 C 60.929688 40.519531 58.703125 45.367188 56.0625 48.691406 C 55.925781 48.863281 55 50 53.5 50 C 53.457031 50 53.3125 49.980469 53.214844 49.90625 C 53.117188 49.828125 53 49.703125 53 49.25 L 53 41.058594 C 53 40.480469 52.945312 40 52.671875 39.597656 C 52.402344 39.195312 51.898438 39 51.371094 39 L 44.5 39 C 43.601562 39 43 39.753906 43 40.5 C 43 40.917969 43.230469 41.261719 43.460938 41.488281 C 43.691406 41.714844 43.933594 41.890625 44.152344 42.101562 C 44.597656 42.523438 44.996094 43.039062 44.996094 44.347656 L 44.996094 49.90625 C 44.996094 50.550781 44.914062 50.894531 44.875 50.972656 C 44.855469 51.011719 44.867188 50.988281 44.871094 50.988281 C 44.875 50.984375 44.839844 51 44.75 51 C 44.671875 51 44.292969 50.835938 43.847656 50.378906 C 43.40625 49.921875 42.882812 49.214844 42.34375 48.320312 C 41.269531 46.527344 40.121094 43.96875 39.230469 40.992188 L 39.226562 40.984375 L 39.226562 40.976562 C 39.019531 40.355469 38.808594 39.867188 38.429688 39.511719 C 38.050781 39.152344 37.527344 39 36.941406 39 Z M 32.871094 39.996094 L 36.945312 39.996094 C 37.382812 39.996094 37.570312 40.070312 37.738281 40.234375 C 37.910156 40.398438 38.089844 40.726562 38.273438 41.289062 C 39.1875 44.339844 40.359375 46.957031 41.484375 48.835938 C 42.050781 49.777344 42.605469 50.535156 43.128906 51.074219 C 43.65625 51.617188 44.144531 51.996094 44.75 51.996094 C 44.917969 51.996094 45.105469 51.980469 45.292969 51.890625 C 45.484375 51.804688 45.652344 51.636719 45.753906 51.441406 C 45.960938 51.058594 45.996094 50.609375 45.996094 49.90625 L 45.996094 44.347656 C 45.996094 42.804688 45.402344 41.910156 44.84375 41.378906 C 44.566406 41.113281 44.308594 40.921875 44.164062 40.777344 C 44.019531 40.632812 44 40.59375 44 40.5 C 44 40.261719 44.144531 40 44.5 40 L 51.371094 40 C 51.707031 40 51.769531 40.050781 51.84375 40.160156 C 51.921875 40.269531 52 40.566406 52 41.054688 L 52 49.25 C 52 49.921875 52.257812 50.421875 52.597656 50.6875 C 52.9375 50.957031 53.292969 51 53.5 51 C 55.5 51 56.691406 49.507812 56.84375 49.308594 C 59.609375 45.832031 61.839844 40.933594 61.839844 40.933594 L 61.84375 40.933594 C 61.964844 40.664062 62.113281 40.429688 62.308594 40.269531 C 62.503906 40.109375 62.742188 40 63.148438 40 L 67.183594 40 C 67.5625 40 67.765625 40.085938 67.859375 40.160156 C 67.953125 40.234375 67.992188 40.3125 68 40.476562 C 68.003906 40.605469 67.980469 40.765625 67.925781 40.941406 L 67.917969 40.964844 L 67.914062 40.988281 C 67.808594 41.492188 67.414062 42.40625 66.875 43.417969 C 66.339844 44.429688 65.667969 45.5625 65.011719 46.621094 C 64.355469 47.683594 63.714844 48.667969 63.238281 49.386719 C 63.003906 49.746094 62.808594 50.039062 62.671875 50.242188 C 62.605469 50.347656 62.550781 50.429688 62.511719 50.484375 C 62.496094 50.515625 62.480469 50.535156 62.464844 50.558594 C 62.464844 50.566406 62.460938 50.578125 62.453125 50.585938 C 62.449219 50.59375 62.449219 50.597656 62.441406 50.609375 C 62.433594 50.621094 62.410156 50.6875 62.40625 50.6875 C 62.40625 50.6875 62.40625 50.707031 62.402344 50.714844 C 62.210938 51.046875 62.019531 51.347656 62 51.742188 C 61.984375 52.160156 62.160156 52.566406 62.480469 53.007812 L 62.480469 53.011719 C 62.941406 53.667969 63.871094 54.785156 64.8125 55.917969 C 66.480469 57.929688 67.675781 60.105469 67.933594 60.84375 C 67.980469 61.046875 68.003906 61.210938 68 61.332031 C 67.992188 61.601562 67.925781 61.710938 67.789062 61.8125 C 67.65625 61.914062 67.402344 62 67 62 L 62.964844 62 C 62.363281 62 62.046875 61.765625 61.433594 61.039062 C 60.820312 60.3125 60.015625 59.140625 58.664062 57.574219 C 57.5 56.222656 56.667969 55.355469 55.957031 54.800781 C 55.25 54.246094 54.621094 54 54 54 C 53.488281 54 52.988281 54.15625 52.609375 54.492188 C 52.230469 54.828125 52 55.34375 52 55.929688 L 52 60.496094 C 52 61.0625 51.824219 61.390625 51.527344 61.625 C 51.234375 61.859375 50.78125 61.996094 50.226562 61.996094 C 46.183594 61.996094 41.46875 59.234375 37.875 54.34375 C 35.386719 50.953125 33.914062 47.785156 33.066406 45.335938 C 32.21875 42.890625 32 41.101562 32 40.683594 C 32 40.433594 32.042969 40.28125 32.117188 40.195312 C 32.195312 40.109375 32.367188 39.996094 32.871094 39.996094 Z M 77.492188 41.992188 C 77.359375 41.996094 77.234375 42.050781 77.140625 42.144531 C 77.046875 42.238281 76.996094 42.367188 77 42.5 L 77 46.5 C 76.996094 46.679688 77.09375 46.847656 77.246094 46.9375 C 77.402344 47.03125 77.597656 47.03125 77.753906 46.9375 C 77.90625 46.847656 78.003906 46.679688 78 46.5 L 78 42.5 C 78.003906 42.363281 77.949219 42.234375 77.855469 42.136719 C 77.757812 42.042969 77.628906 41.988281 77.492188 41.992188 Z M 77.492188 41.992188 "/>
</g>
</svg>
