<?xml version="1.0" encoding="UTF-8"?>
<svg xmlns="http://www.w3.org/2000/svg" xmlns:xlink="http://www.w3.org/1999/xlink" viewBox="0 0 100 100" width="100px" height="100px">
<g id="surface117873870">
<path style=" stroke:none;fill-rule:nonzero;fill:rgb(41.568628%,35.294119%,80.392158%);fill-opacity:1;" d="M 31 17.988281 C 23.820312 17.988281 18 23.808594 18 30.988281 L 18 69.988281 C 18 77.167969 23.820312 82.988281 31 82.988281 L 70 82.988281 C 77.179688 82.988281 83 77.167969 83 69.988281 L 83 30.988281 C 83 23.808594 77.179688 17.988281 70 17.988281 Z M 31 19.988281 L 70 19.988281 C 76.074219 19.988281 81 24.914062 81 30.988281 L 81 69.988281 C 81 76.0625 76.074219 80.988281 70 80.988281 L 31 80.988281 C 24.925781 80.988281 20 76.0625 20 69.988281 L 20 30.988281 C 20 24.914062 24.925781 19.988281 31 19.988281 Z M 33.835938 22.988281 C 27.851562 22.988281 23 27.839844 23 33.824219 L 23 67.148438 C 23 73.136719 27.851562 77.988281 33.835938 77.988281 L 67.160156 77.988281 C 73.148438 77.988281 78 73.136719 78 67.148438 L 78 48.488281 C 78 48.210938 77.777344 47.988281 77.5 47.988281 C 77.222656 47.988281 77 48.210938 77 48.488281 L 77 67.148438 C 77 72.582031 72.59375 76.988281 67.160156 76.988281 L 33.835938 76.988281 C 28.40625 76.988281 24 72.582031 24 67.148438 L 24 33.824219 C 24 28.390625 28.40625 23.988281 33.835938 23.988281 L 67.5 23.988281 C 67.777344 23.988281 68 23.765625 68 23.488281 C 68 23.210938 67.777344 22.988281 67.5 22.988281 Z M 51 32 C 40.800781 32 32.5 40.300781 32.5 50.5 C 32.5 52.0625 32.695312 53.621094 33.085938 55.125 C 33.265625 55.816406 33.484375 56.507812 33.746094 57.179688 C 34.082031 58.042969 34.484375 58.886719 34.949219 59.695312 L 32.519531 68.363281 C 32.472656 68.535156 32.519531 68.71875 32.640625 68.847656 C 32.734375 68.945312 32.867188 69 33 69 C 33.039062 69 33.078125 68.996094 33.117188 68.984375 L 35.617188 68.367188 C 35.886719 68.300781 36.050781 68.027344 35.984375 67.761719 C 35.917969 67.496094 35.648438 67.328125 35.378906 67.398438 L 33.710938 67.808594 L 35.96875 59.761719 C 36.003906 59.628906 35.988281 59.488281 35.917969 59.371094 C 35.4375 58.554688 35.019531 57.695312 34.679688 56.820312 C 34.433594 56.179688 34.222656 55.527344 34.054688 54.875 C 33.6875 53.449219 33.5 51.980469 33.5 50.5 C 33.5 40.851562 41.351562 33 51 33 C 60.648438 33 68.5 40.851562 68.5 50.5 C 68.5 60.148438 60.648438 68 51 68 C 48.015625 68 45.066406 67.230469 42.46875 65.777344 C 42.359375 65.71875 42.230469 65.699219 42.105469 65.730469 L 40.382812 66.15625 C 40.113281 66.222656 39.949219 66.492188 40.015625 66.761719 C 40.082031 67.027344 40.347656 67.1875 40.621094 67.128906 L 42.15625 66.746094 C 44.855469 68.222656 47.910156 69 51 69 C 61.199219 69 69.5 60.699219 69.5 50.5 C 69.5 40.300781 61.199219 32 51 32 Z M 77.5 36.566406 C 77.222656 36.566406 77 36.789062 77 37.066406 L 77 39.066406 C 77 39.34375 77.222656 39.566406 77.5 39.566406 C 77.777344 39.566406 78 39.34375 78 39.066406 L 78 37.066406 C 78 36.789062 77.777344 36.566406 77.5 36.566406 Z M 77.5 40.566406 C 77.222656 40.566406 77 40.789062 77 41.066406 L 77 45.066406 C 77 45.34375 77.222656 45.566406 77.5 45.566406 C 77.777344 45.566406 78 45.34375 78 45.066406 L 78 41.066406 C 78 40.789062 77.777344 40.566406 77.5 40.566406 Z M 44.535156 41 C 44.246094 41 43.5 41.074219 42.859375 41.765625 L 42.765625 41.863281 C 42.238281 42.417969 41 43.71875 41 46.160156 C 41 48.445312 42.46875 50.640625 43.109375 51.488281 L 43.191406 51.597656 C 44.605469 53.601562 47.597656 57.226562 51.71875 58.984375 C 52.863281 59.46875 53.765625 59.769531 54.570312 60.023438 C 55.324219 60.261719 56.023438 60.335938 56.628906 60.335938 C 57.117188 60.335938 57.546875 60.285156 57.894531 60.234375 C 58.925781 60.082031 61.121094 58.964844 61.613281 57.597656 C 62.011719 56.492188 62.121094 55.289062 61.855469 54.859375 C 61.679688 54.570312 61.367188 54.421875 60.96875 54.230469 L 60.707031 54.105469 C 60.425781 53.964844 57.8125 52.6875 57.292969 52.5 C 56.898438 52.359375 56.167969 52.097656 55.601562 52.9375 C 55.308594 53.371094 54.453125 54.371094 54.082031 54.789062 C 53.972656 54.914062 53.9375 54.953125 53.613281 54.792969 C 53.527344 54.75 53.40625 54.699219 53.261719 54.636719 C 52.566406 54.339844 51.277344 53.785156 49.765625 52.457031 C 48.40625 51.261719 47.46875 49.789062 47.125 49.210938 C 47.035156 49.058594 47.035156 49.054688 47.261719 48.828125 C 47.421875 48.675781 47.601562 48.460938 47.777344 48.246094 L 48.027344 47.949219 C 48.28125 47.660156 48.394531 47.433594 48.523438 47.167969 L 48.589844 47.035156 C 48.898438 46.425781 48.632812 45.90625 48.546875 45.734375 C 48.476562 45.589844 47.96875 44.375 47.601562 43.488281 L 47.046875 42.160156 C 46.621094 41.152344 46.078125 41.039062 45.5 41.019531 C 45.207031 41.003906 44.871094 41 44.535156 41 Z M 44.535156 42 C 44.855469 42 45.171875 42.003906 45.453125 42.015625 L 45.589844 42.019531 C 45.769531 42.019531 45.898438 42.015625 46.125 42.546875 L 46.679688 43.871094 C 47.214844 45.160156 47.570312 46.015625 47.65625 46.183594 C 47.757812 46.386719 47.746094 46.480469 47.695312 46.585938 L 47.628906 46.722656 C 47.511719 46.957031 47.441406 47.097656 47.273438 47.292969 L 47.011719 47.605469 C 46.855469 47.792969 46.695312 47.980469 46.558594 48.117188 C 46.328125 48.347656 45.777344 48.890625 46.265625 49.71875 C 46.628906 50.335938 47.636719 51.914062 49.101562 53.207031 C 50.734375 54.640625 52.175781 55.257812 52.867188 55.558594 C 52.992188 55.609375 53.097656 55.652344 53.167969 55.691406 C 53.605469 55.90625 54.246094 56.109375 54.828125 55.453125 C 55.136719 55.105469 56.082031 54.007812 56.425781 53.496094 C 56.554688 53.308594 56.558594 53.300781 56.953125 53.445312 C 57.34375 53.582031 59.613281 54.679688 60.261719 55.003906 L 60.539062 55.136719 C 60.722656 55.222656 60.957031 55.335938 60.976562 55.335938 C 61.03125 55.507812 61.015625 56.300781 60.667969 57.261719 C 60.355469 58.132812 58.625 59.113281 57.742188 59.246094 C 57.066406 59.34375 56.03125 59.433594 54.867188 59.070312 C 54.085938 58.824219 53.210938 58.535156 52.109375 58.066406 C 48.214844 56.402344 45.363281 52.941406 44.003906 51.023438 L 43.898438 50.875 C 43.328125 50.117188 42 48.140625 42 46.160156 C 42 44.121094 43.007812 43.0625 43.488281 42.554688 L 43.589844 42.449219 C 43.976562 42.03125 44.410156 42 44.535156 42 Z M 38.578125 66.640625 C 38.515625 66.632812 38.449219 66.636719 38.378906 66.652344 L 37.378906 66.898438 C 37.113281 66.964844 36.949219 67.234375 37.015625 67.503906 C 37.070312 67.734375 37.273438 67.886719 37.5 67.886719 C 37.539062 67.886719 37.578125 67.878906 37.617188 67.867188 L 38.617188 67.621094 C 38.886719 67.558594 39.050781 67.285156 38.984375 67.015625 C 38.933594 66.816406 38.773438 66.671875 38.578125 66.640625 Z M 38.578125 66.640625 "/>
</g>
</svg>
