<?xml version="1.0" encoding="UTF-8"?>
<svg xmlns="http://www.w3.org/2000/svg" xmlns:xlink="http://www.w3.org/1999/xlink" viewBox="0 0 100 100" width="100px" height="100px">
<g id="surface117795449">
<path style=" stroke:none;fill-rule:nonzero;fill:rgb(41.568628%,35.294119%,80.392158%);fill-opacity:1;" d="M 31 17 C 23.28125 17 17 23.28125 17 31 L 17 69 C 17 76.71875 23.28125 83 31 83 L 69 83 C 76.71875 83 83 76.71875 83 69 L 83 31 C 83 23.28125 76.71875 17 69 17 Z M 31 19 L 69 19 C 75.617188 19 81 24.382812 81 31 L 81 69 C 81 75.617188 75.617188 81 69 81 L 31 81 C 24.382812 81 19 75.617188 19 69 L 19 31 C 19 24.382812 24.382812 19 31 19 Z M 33.5 22 C 27.160156 22 22 27.160156 22 33.5 L 22 66.5 C 22 72.839844 27.160156 78 33.5 78 L 66.5 78 C 72.839844 78 78 72.839844 78 66.5 L 78 49.5 C 78 49.222656 77.777344 49 77.5 49 C 77.222656 49 77 49.222656 77 49.5 L 77 66.5 C 77 72.289062 72.289062 77 66.5 77 L 33.5 77 C 27.710938 77 23 72.289062 23 66.5 L 23 33.5 C 23 27.710938 27.710938 23 33.5 23 L 66.5 23 C 66.824219 23 67.140625 23.019531 67.453125 23.046875 C 67.726562 23.074219 67.972656 22.871094 67.996094 22.59375 C 68.023438 22.320312 67.820312 22.078125 67.546875 22.050781 C 67.199219 22.019531 66.851562 22 66.5 22 Z M 37 28 L 40.371094 39.496094 L 40.382812 45 L 43.207031 45 L 43.207031 39.179688 L 46.5 28.003906 L 43.621094 28.003906 L 41.867188 36.09375 L 41.691406 36.09375 L 39.851562 28.003906 Z M 50.089844 32 C 48.992188 32.003906 48.125 32.289062 47.480469 32.859375 C 46.828125 33.421875 46.503906 34.1875 46.503906 35.144531 L 46.5 35.140625 L 46.507812 41.558594 C 46.507812 42.609375 46.820312 43.445312 47.453125 44.066406 C 48.09375 44.683594 48.933594 45 49.988281 45 C 51.089844 45 51.945312 44.695312 52.566406 44.09375 C 53.191406 43.488281 53.503906 42.65625 53.503906 41.597656 L 53.496094 35.210938 C 53.496094 34.265625 53.175781 33.492188 52.539062 32.898438 C 51.902344 32.296875 51.085938 32 50.089844 32 Z M 56 32 L 56.007812 42.734375 C 56.007812 43.492188 56.152344 44.058594 56.4375 44.429688 C 56.726562 44.808594 57.152344 45 57.722656 45 C 58.179688 45 58.65625 44.855469 59.140625 44.585938 C 59.632812 44.320312 60.101562 43.929688 60.554688 43.410156 L 60.890625 45 L 63 45 L 63 32 L 60.546875 32 L 60.550781 41.761719 C 60.320312 42.035156 60.070312 42.261719 59.792969 42.441406 C 59.523438 42.621094 59.292969 42.707031 59.109375 42.707031 C 58.882812 42.707031 58.710938 42.636719 58.613281 42.503906 C 58.507812 42.371094 58.457031 42.152344 58.457031 41.855469 L 58.453125 32 Z M 49.960938 34.140625 C 50.269531 34.140625 50.519531 34.226562 50.707031 34.390625 C 50.898438 34.558594 50.996094 34.777344 50.996094 35.046875 L 51 41.785156 C 51 42.117188 50.90625 42.378906 50.722656 42.5625 C 50.535156 42.757812 50.285156 42.851562 49.96875 42.851562 C 49.660156 42.851562 49.421875 42.761719 49.257812 42.574219 C 49.082031 42.394531 49.003906 42.125 49.003906 41.789062 L 49 35.046875 C 49 34.78125 49.089844 34.5625 49.265625 34.390625 C 49.445312 34.230469 49.675781 34.140625 49.960938 34.140625 Z M 77.5 37 C 77.222656 37 77 37.222656 77 37.5 L 77 39.5 C 77 39.777344 77.222656 40 77.5 40 C 77.777344 40 78 39.777344 78 39.5 L 78 37.5 C 78 37.222656 77.777344 37 77.5 37 Z M 77.5 42 C 77.222656 42 77 42.222656 77 42.5 L 77 46.5 C 77 46.777344 77.222656 47 77.5 47 C 77.777344 47 78 46.777344 78 46.5 L 78 42.5 C 78 42.222656 77.777344 42 77.5 42 Z M 50 48 C 49.476562 48 37.144531 48.007812 34.308594 48.734375 C 32.589844 49.167969 31.234375 50.464844 30.769531 52.113281 C 30.007812 54.820312 30 60.269531 30 60.5 C 30 60.730469 30.007812 66.179688 30.769531 68.890625 C 31.234375 70.535156 32.589844 71.832031 34.308594 72.269531 C 37.144531 72.992188 49.476562 73 50 73 C 50.523438 73 62.855469 72.992188 65.691406 72.269531 C 67.410156 71.832031 68.765625 70.535156 69.230469 68.890625 C 69.992188 66.179688 70 60.730469 70 60.5 C 70 60.269531 69.992188 54.820312 69.230469 52.113281 C 68.765625 50.464844 67.410156 49.167969 65.691406 48.730469 C 62.855469 48.007812 50.523438 48 50 48 Z M 50 49 C 50.128906 49 62.726562 49.007812 65.441406 49.699219 C 66.820312 50.050781 67.902344 51.078125 68.265625 52.382812 C 68.992188 54.960938 69 60.445312 69 60.5 C 69 60.554688 68.992188 66.039062 68.265625 68.617188 C 67.902344 69.921875 66.820312 70.949219 65.441406 71.296875 C 62.726562 71.992188 50.128906 72 50 72 C 49.871094 72 37.273438 71.992188 34.558594 71.300781 C 33.179688 70.949219 32.097656 69.921875 31.734375 68.617188 C 31.007812 66.039062 31 60.554688 31 60.5 C 31 60.445312 31.007812 54.960938 31.734375 52.382812 C 32.097656 51.078125 33.179688 50.050781 34.558594 49.703125 C 37.273438 49.007812 49.871094 49 50 49 Z M 34 52 L 34 54.34375 L 36.503906 54.34375 L 36.503906 69 L 38.996094 69 L 38.996094 54.34375 L 41.5 54.34375 L 41.5 52 Z M 50 52 L 50 69 L 52.253906 69 L 52.503906 67.535156 C 53.289062 68.449219 54.3125 69 55.152344 69 C 56.101562 69 56.914062 68.53125 57.226562 67.617188 C 57.375 67.125 57.488281 66.667969 57.5 65.632812 L 57.5 59.476562 C 57.503906 58.320312 57.339844 57.441406 57.175781 56.945312 C 56.863281 56.03125 56.101562 55.527344 55.152344 55.515625 C 53.9375 55.503906 53.4375 56.105469 52.5 57.132812 L 52.5 52 Z M 62.289062 55.5 C 61.023438 55.5 60.050781 55.875 59.339844 56.578125 C 58.800781 57.097656 58.5 57.941406 58.5 59.042969 L 58.5 65.570312 C 58.5 66.664062 58.835938 67.4375 59.363281 67.945312 C 60.078125 68.648438 61.046875 69 62.351562 69 C 63.636719 69 64.648438 68.636719 65.328125 67.882812 C 65.625 67.558594 65.824219 67.179688 65.914062 66.765625 C 65.921875 66.582031 66 66.078125 66 65.476562 L 63.496094 65.476562 L 63.496094 66.417969 C 63.496094 66.957031 62.933594 67.402344 62.25 67.402344 C 61.566406 67.402344 61.003906 66.957031 61.003906 66.417969 L 61.003906 62.835938 L 66 62.835938 L 66 59 C 66 57.894531 65.710938 57.097656 65.199219 56.578125 C 64.511719 55.875 63.523438 55.5 62.289062 55.5 Z M 41 55.542969 L 41 66.296875 C 41 67.140625 41.125 67.699219 41.289062 68.078125 C 41.5625 68.675781 42.125 69 42.925781 69 C 43.839844 69 45.015625 68.402344 46 67.394531 L 46.25 69 L 48.5 69 L 48.5 55.542969 L 46 55.542969 L 46 65.804688 C 45.449219 66.484375 44.648438 67 44.148438 67 C 43.828125 67 43.5625 66.867188 43.503906 66.53125 L 43.503906 55.542969 Z M 62.25 57.203125 C 62.933594 57.203125 63.496094 57.636719 63.496094 58.191406 L 63.496094 61.207031 L 60.996094 61.207031 L 60.996094 58.191406 L 61.003906 58.191406 C 61.003906 57.636719 61.566406 57.203125 62.25 57.203125 Z M 54.027344 57.570312 C 54.703125 57.570312 55 57.953125 55 59.183594 L 55 65.328125 C 55 66.5625 54.703125 66.980469 54.027344 66.980469 C 53.640625 66.980469 52.902344 66.738281 52.5 66.363281 L 52.5 58.304688 C 52.902344 57.933594 53.636719 57.570312 54.027344 57.570312 Z M 54.027344 57.570312 "/>
</g>
</svg>
