<svg xmlns="http://www.w3.org/2000/svg" width="16" height="18" viewBox="0 0 16 18"><defs><linearGradient id="5ux0a" x1="15.5" x2=".5" y1="17.25" y2=".74" gradientUnits="userSpaceOnUse"><stop offset="0" stop-color="#864ff1"/><stop offset="1" stop-color="#49b3f7"/></linearGradient></defs><g><g><path fill="url(#5ux0a)" d="M14.205 11.542a7.506 7.506 0 0 1 1.295 4.205v.75a.75.75 0 0 1-.75.75H1.25a.75.75 0 0 1-.75-.75v-.75a7.506 7.506 0 0 1 4.731-6.962 4.5 4.5 0 1 1 5.544 0 7.506 7.506 0 0 1 3.43 2.757zM5.879 7.368a3 3 0 1 0 4.242-4.242A3 3 0 0 0 5.88 7.368zM14 15.748a6 6 0 1 0-12 0z"/></g></g></svg>