<svg xmlns="http://www.w3.org/2000/svg" width="456" height="400" viewBox="0 0 456 400"><defs><linearGradient id="yw1za" x1="105.93" x2="94.38" y1="325.56" y2="337.02" gradientUnits="userSpaceOnUse"><stop offset="0" stop-color="#fff"/><stop offset="1"/></linearGradient><linearGradient id="yw1zb" x1="105.93" x2="94.38" y1="325.56" y2="337.02" gradientUnits="userSpaceOnUse"><stop offset="0" stop-color="#fff"/><stop offset="1" stop-color="#fff"/></linearGradient><linearGradient id="yw1zc" x1="114.89" x2="103.25" y1="334.48" y2="346.03" gradientUnits="userSpaceOnUse"><stop offset="0" stop-color="#fff"/><stop offset="1"/></linearGradient><linearGradient id="yw1zd" x1="114.89" x2="103.25" y1="334.48" y2="346.03" gradientUnits="userSpaceOnUse"><stop offset="0" stop-color="#fff"/><stop offset="1" stop-color="#fff"/></linearGradient></defs><g><g><g transform="rotate(39.51 209 195.5)"><path fill="#eff2fd" d="M217.494 113.903l-62.35-20.783C121.89 211.882 197.7 281.161 238.277 303.923l17.814-68.288s-50.473-29.691-38.597-121.732z"/></g><g transform="rotate(151.6 350 194)"><path fill="#eff2fd" d="M355.887 151.458l-29.845-9.948c-15.918 56.849 20.37 90.01 39.794 100.906l8.527-32.688s-24.16-14.212-18.476-58.27z"/></g><g transform="rotate(173.63 441.5 24)"><path fill="#eff2fd" d="M445.142 4.214L430.34-.72c-7.894 28.194 10.103 44.64 19.736 50.044l4.229-16.211s-11.982-7.049-9.163-28.899z"/></g><g transform="rotate(37.71 341.5 63.5)"><path fill="#eff2fd" d="M337.656 102.597l29.846 9.949c15.917-56.849-20.372-90.01-39.795-100.906l-8.527 32.688s24.16 14.212 18.476 58.27z"/></g><g><g/><g><g><g><g><g><g><g><path fill="#4bb2f7" d="M222.54 377.81s10.012-9.145 27.77 11.389c.834.964.577 2.45-.538 3.07-5.987 3.329-23.208 11.617-29.942 1.072z"/></g></g><g><g><path fill="#e7a900" d="M222.097 380.045s7.105-6.49 19.704 8.133c.551.64.379 1.627-.358 2.04-4.146 2.317-16.466 8.32-21.263.809z"/></g></g><g><g><path fill="#fffd01" d="M221.203 381.728s4.794-4.379 13.296 5.488a.902.902 0 0 1-.242 1.376c-2.797 1.565-11.11 5.615-14.347.546z"/></g></g><g><g><path fill="#000072" d="M230.283 400.004c-1.48 0-2.861-.156-4.132-.47-3.254-.8-5.803-2.615-7.577-5.394-.2-.313-.276-.69-.212-1.057l2.711-15.53c.057-.325.22-.621.463-.844.12-.11 3.025-2.704 8.31-2.393 2.981.175 6.14 1.237 9.385 3.154 3.94 2.327 8.047 5.945 12.205 10.754.694.802.986 1.86.802 2.902a3.475 3.475 0 0 1-1.742 2.442c-3.026 1.683-9.013 4.686-15.125 5.899-1.803.359-3.503.537-5.088.537zm-8.882-7c2.59 3.6 7.09 4.793 13.39 3.542 5.713-1.133 11.385-3.983 14.258-5.58a.517.517 0 0 0 .136-.794c-8.771-10.141-15.385-12.598-19.39-12.874-3.128-.216-5.108.825-5.886 1.343z"/></g></g></g><g><g><path fill="#e2e8e8" d="M210.26 390.233c3.257 3.448 7.787 4.311 7.787 4.311s2.485-2.914 3.787-9.75c1.302-6.837.063-10.46.063-10.46s-4.53-.863-8.827 1.148"/></g></g><g><g><path fill="#000072" d="M218.05 396.1c-.096 0-.193-.009-.29-.027-.205-.038-5.065-1-8.626-4.77a1.554 1.554 0 1 1 2.26-2.134c2.01 2.128 4.617 3.165 5.997 3.595.74-1.213 2.086-3.877 2.92-8.259.835-4.382.564-7.353.322-8.753-1.44-.107-4.247-.1-6.9 1.14a1.554 1.554 0 0 1-1.318-2.813c4.699-2.199 9.571-1.306 9.777-1.267.549.105 1 .495 1.18 1.023.055.165 1.357 4.095-.007 11.252-1.364 7.158-4.019 10.336-4.132 10.468-.298.35-.732.545-1.182.545z"/></g></g><g><g><path fill="#4bb2f7" d="M206.526 395.207c7.98-.258 9.474-9.32 9.878-11.44.405-2.122 2.348-11.099-4.979-14.274-7.41-3.206-41.108-6.968-43.4 5.062-2.292 12.03 30.43 20.914 38.501 20.652z"/></g></g><g opacity=".7"><g opacity=".49"><path fill="#fff" d="M216.735 381.751c-.165-3.218-1.344-6.875-5.49-8.67-7.223-3.126-39.417-6.777-43.165 4.178a6.397 6.397 0 0 1-.065-2.713c2.292-12.031 35.992-8.27 43.403-5.063 5.856 2.537 5.787 8.782 5.317 12.268z"/></g></g><g><g opacity=".3"><g opacity=".09"><path fill="#000072" d="M207.027 392.156c6.294-.201 8.552-5.878 9.424-9.311-1.244.859-2.785 1.435-4.702 1.493-6.963.23-32.272-6.351-37.62-15.888-2.737 1.083-4.78 2.628-5.699 4.76.884 11.155 30.915 19.198 38.597 18.946z"/></g></g></g><g><g><path fill="#000072" d="M206.145 396.758c-3.895 0-11.17-1.544-17.979-3.833-5.206-1.75-14.616-5.476-19.14-10.764-2.191-2.562-3.043-5.222-2.532-7.907.511-2.684 2.281-4.843 5.26-6.421 6.15-3.256 16.272-3.264 21.759-2.978 7.444.387 15.062 1.704 18.526 3.203 3.51 1.52 5.68 4.461 6.277 8.505.458 3.099-.112 6.05-.356 7.311l-.066.347c-.237 1.261-.792 4.215-2.357 6.929-2.042 3.54-5.142 5.477-8.964 5.6-.137.006-.281.008-.428.008zm-17.134-28.915c-6.897 0-12.418.945-15.802 2.738-2.133 1.13-3.331 2.522-3.662 4.256-.33 1.736.272 3.471 1.842 5.307 2.993 3.498 9.303 6.992 17.768 9.837 7.45 2.505 14.481 3.757 17.314 3.666 4.393-.142 7.13-3.412 8.368-9.998l.07-.362c1.27-6.58-.073-10.629-4.107-12.377-2.601-1.125-9.603-2.543-17.452-2.951a83.425 83.425 0 0 0-4.339-.116z"/></g></g><g><g><path fill="#000072" d="M194.245 394.302a1.164 1.164 0 0 1-1.025-1.718 42.996 42.996 0 0 0 4.868-25.551 1.166 1.166 0 0 1 2.314-.282 45.504 45.504 0 0 1-.49 13.87 45.461 45.461 0 0 1-4.64 13.068c-.21.39-.612.613-1.027.613z"/></g></g></g></g><g><g><g><g><path fill="#4bb2f7" d="M232.58 320.61s10.012-9.146 27.77 11.389c.834.964.577 2.45-.538 3.07-5.987 3.33-23.208 11.618-29.942 1.072z"/></g></g><g><g><path fill="#e7a900" d="M232.147 322.845s7.105-6.49 19.704 8.133c.551.64.379 1.627-.358 2.04-4.146 2.318-16.466 8.32-21.263.809z"/></g></g><g><g><path fill="#fffd01" d="M231.253 324.528s4.794-4.38 13.296 5.488a.902.902 0 0 1-.242 1.376c-2.797 1.565-11.11 5.615-14.347.546z"/></g></g><g><g><path fill="#000072" d="M240.323 342.804c-1.482 0-2.861-.156-4.132-.47-3.254-.8-5.803-2.615-7.577-5.394-.2-.313-.276-.69-.212-1.057l2.711-15.53c.057-.325.22-.621.463-.844.12-.11 3.025-2.704 8.31-2.393 2.981.175 6.14 1.237 9.385 3.154 3.94 2.327 8.047 5.945 12.205 10.754.694.802.986 1.86.802 2.902a3.475 3.475 0 0 1-1.742 2.442c-3.024 1.683-9.012 4.686-15.125 5.899-1.802.359-3.503.537-5.088.537zm-8.882-7.001c2.59 3.6 7.09 4.793 13.39 3.542 5.713-1.133 11.385-3.983 14.258-5.58a.516.516 0 0 0 .136-.794c-8.771-10.141-15.385-12.598-19.39-12.874-3.128-.216-5.108.825-5.886 1.343z"/></g></g></g><g><g><path fill="#e2e8e8" d="M220.31 333.032c3.257 3.449 7.787 4.312 7.787 4.312s2.485-2.914 3.787-9.75c1.302-6.837.063-10.46.063-10.46s-4.53-.863-8.827 1.148"/></g></g><g><g><path fill="#000072" d="M228.092 338.899c-.097 0-.194-.01-.291-.027-.205-.039-5.065-1-8.627-4.771a1.554 1.554 0 1 1 2.26-2.133c2.026 2.144 4.622 3.174 5.995 3.6.74-1.213 2.087-3.877 2.923-8.263.835-4.387.563-7.358.322-8.753-1.44-.108-4.248-.102-6.901 1.14a1.554 1.554 0 0 1-1.318-2.813c4.699-2.199 9.571-1.306 9.776-1.267.549.105 1 .495 1.18 1.023.055.165 1.357 4.095-.007 11.252-1.364 7.158-4.02 10.336-4.132 10.467a1.55 1.55 0 0 1-1.18.545z"/></g></g><g><g><path fill="#4bb2f7" d="M216.566 338.007c7.98-.257 9.474-9.32 9.879-11.44.404-2.122 2.347-11.099-4.98-14.274-7.41-3.206-41.108-6.968-43.4 5.062-2.293 12.03 30.43 20.915 38.501 20.653z"/></g></g><g opacity=".7"><g opacity=".49"><path fill="#fff" d="M226.785 324.561c-.165-3.218-1.344-6.876-5.49-8.67-7.222-3.126-39.417-6.777-43.165 4.178a6.397 6.397 0 0 1-.065-2.713c2.292-12.031 35.992-8.27 43.403-5.063 5.856 2.537 5.787 8.782 5.317 12.268z"/></g></g><g><g opacity=".3"><g opacity=".09"><path fill="#000072" d="M217.077 334.966c6.294-.201 8.552-5.878 9.424-9.311-1.245.859-2.785 1.435-4.702 1.493-6.964.23-32.272-6.351-37.62-15.888-2.737 1.083-4.78 2.628-5.699 4.76.883 11.155 30.915 19.198 38.597 18.946z"/></g></g></g><g><g><path fill="#000072" d="M216.185 339.568c-3.895 0-11.17-1.544-17.979-3.832-5.206-1.75-14.616-5.476-19.14-10.764-2.191-2.563-3.043-5.222-2.532-7.907.511-2.683 2.281-4.844 5.26-6.422 6.15-3.256 16.272-3.264 21.759-2.978 7.444.387 15.062 1.704 18.526 3.203 3.51 1.521 5.68 4.462 6.277 8.506.458 3.1-.112 6.051-.356 7.311l-.066.346c-.237 1.262-.792 4.216-2.357 6.929-2.042 3.54-5.142 5.478-8.964 5.601-.138.005-.281.007-.428.007zm-17.134-28.916c-6.897 0-12.417.945-15.802 2.738-2.134 1.13-3.331 2.522-3.662 4.257-.33 1.736.272 3.47 1.842 5.306 2.993 3.498 9.303 6.993 17.768 9.838 7.45 2.504 14.481 3.758 17.314 3.665 4.393-.142 7.13-3.412 8.368-9.998l.07-.362c1.27-6.58-.073-10.628-4.107-12.377-2.601-1.125-9.603-2.543-17.452-2.951a84.6 84.6 0 0 0-4.339-.116z"/></g></g><g><g><path fill="#000072" d="M204.295 337.102a1.164 1.164 0 0 1-1.025-1.718 42.996 42.996 0 0 0 4.868-25.551 1.165 1.165 0 0 1 2.314-.282 45.504 45.504 0 0 1-.49 13.87 45.461 45.461 0 0 1-4.64 13.068c-.21.39-.611.613-1.027.613z"/></g></g></g><g><g><path fill="#e2e8e8" d="M191.92 379.775l9.262-.206c4.19-.093 7.99-2.48 9.894-6.21a68.349 68.349 0 0 0 7.288-36.012 11.39 11.39 0 0 0-6.702-9.568l-8.453-3.789z"/></g></g><g><g><path fill="#e2e8e8" d="M218.542 342.305a68.24 68.24 0 0 1-1.963 16.252 68.237 68.237 0 0 1-5.5 14.809 11.399 11.399 0 0 1-9.895 6.21l-9.264.207 5.099-25.205 6.19-30.578 8.455 3.788c1.91.857 3.51 2.205 4.67 3.857a11.363 11.363 0 0 1 2.028 5.71c.119 1.652.18 3.3.18 4.95z"/></g></g><g opacity=".3"><g opacity=".09"><g opacity=".03"><path fill="#fff" d="M217.526 354.086c-.12.69-.253 1.378-.396 2.064.685-4.811.858-9.7.504-14.587a11.395 11.395 0 0 0-2.03-5.71 11.406 11.406 0 0 0-4.673-3.86l-8.451-3.786.42-2.055.318-2.162 8.452 3.79a11.376 11.376 0 0 1 4.672 3.86 11.372 11.372 0 0 1 2.031 5.707 68.43 68.43 0 0 1-.847 16.739z"/></g></g></g><g><g><path fill="#fff" d="M2.21 317.055c3.654 7.384 12.228 21.674 29.062 35.773 13.836 11.586 33.26 23.048 60.13 30.434 17.427 4.79 32.917 6.66 46.202 6.855 34.656.515 54.322-10.337 54.322-10.337.269-.434.537-.876.794-1.317a81.793 81.793 0 0 0 10.155-27.14 82.1 82.1 0 0 0 1.318-15.832 12.554 12.554 0 0 0-.011-.437 81.778 81.778 0 0 0-.967-11.054s-4.87-6.173-15.506-13.91a123.887 123.887 0 0 0-5.687-3.905 136.127 136.127 0 0 0-7.985-4.787c-.272-.153-.546-.302-.823-.455a149.243 149.243 0 0 0-12.231-5.98 171.706 171.706 0 0 0-3.773-1.578c-12.319-4.983-27.324-9.286-45.26-11.651a146.81 146.81 0 0 0-3.335-.402 179.663 179.663 0 0 0-13.636-1.056c-6.09-.242-11.88-.153-17.368.208-8.64.564-16.536 1.792-23.705 3.451a128.67 128.67 0 0 0-4.163 1.036c-23.896 6.326-39.005 17.304-45.723 23.101a7.474 7.474 0 0 0-1.81 8.983z"/></g></g><g opacity=".3"><g opacity=".09"><path fill="#000072" d="M191.303 315.233c-1.225 4.27-11.705 5.016-23.414 1.668-7.307-2.093-13.362-5.285-16.59-8.426 0 0-.004 0-.004-.005l-.019-.019a8.721 8.721 0 0 0-.555-.574c-.008-.004-.011-.01-.02-.015-1.745-1.687-7.524-6.524-20.206-11.005-15.67-5.537-37.68-3.57-37.68-3.57-2.963.585-6.354.919-9.964.919-11.567 0-20.941-3.417-20.941-7.638 0-1.928 1.964-3.696 5.205-5.043a155.11 155.11 0 0 1 18.481-1.362 165.123 165.123 0 0 1 9.374.11c4.391.173 8.938.513 13.638 1.057 1.103.119 2.217.257 3.334.402 17.937 2.364 32.942 6.666 45.26 11.651a149.444 149.444 0 0 1 15.468 7.267c-.127.261-.268.514-.429.758l.076.023c1.439.414 2.829.87 4.16 1.355 1.96 1.14 3.805 2.276 5.535 3.398a121.206 121.206 0 0 1 5.689 3.903 117.79 117.79 0 0 1 3.245 2.445c.461.949.599 1.863.357 2.7z"/></g></g><g><g><path fill="#e5e5e5" d="M151.285 308.454a13.25 13.25 0 0 1-.555-.574"/></g></g><g><g><path fill="#c93535" d="M45.535 363.265c-8.589-5.495-15.686-11.311-21.504-16.978a106.736 106.736 0 0 1-2.58-2.587c-.02-.023-.043-.046-.065-.069-.26-.272-.52-.54-.773-.807l-.762-.807c-.271-.291-.54-.582-.807-.872a127.2 127.2 0 0 1-4.038-4.65c-.846-1.029-1.65-2.039-2.415-3.03-.192-.249-.38-.498-.567-.742a108.672 108.672 0 0 1-5.044-7.249 116.145 116.145 0 0 1-2.37-3.923 85.196 85.196 0 0 1-2.3-4.301 158.73 158.73 0 0 0 2.614 2.235c10.958 9.176 24.525 18.294 41.202 26.265a196.098 196.098 0 0 0-.59 17.515z"/></g></g><g><g><path fill="#d1d1d1" d="M45.533 363.26c-8.692-5.56-15.854-11.454-21.715-17.186a95.708 95.708 0 0 1-1.638-1.633c-.268-.272-.532-.544-.796-.816l-.011-.01-.762-.797c-.513-.54-1.014-1.079-1.504-1.61a118.993 118.993 0 0 1-5.266-6.157 109.224 109.224 0 0 1-5.807-7.96c-.18-.267-.352-.532-.525-.796-.451-.696-.88-1.378-1.286-2.036-.103-.164-.203-.33-.302-.49l-.574-.96c-.092-.157-.184-.313-.276-.466-.184-.31-.36-.613-.529-.91a82.359 82.359 0 0 1-2.335-4.385 7.483 7.483 0 0 1-.627-1.83c-.02-.089-.035-.18-.05-.268 9.113 5.05 24.869 13.106 45.589 21.103a197.27 197.27 0 0 0-1.586 27.206z"/></g></g><g><g><path fill="#4bb2f7" d="M61.917 282.33a197.197 197.197 0 0 0-10.671 31.6 197.408 197.408 0 0 0-5.708 49.337C19.043 346.319 6.78 326.29 2.206 317.059a7.492 7.492 0 0 1 1.818-8.989c.196-.17.4-.345.612-.523 8.162-6.891 27.06-20.034 57.281-25.217z"/></g></g><g><g opacity=".3"><g opacity=".09"><path fill="#000072" d="M7.06 320.727l.003.003c4.806 7.693 12.631 17.912 24.718 28.035 13.837 11.583 33.26 23.048 60.13 30.433 17.428 4.79 32.915 6.658 46.202 6.853 34.656.516 54.323-10.335 54.323-10.335l.001-.002-.001.006 9.264-.207a11.394 11.394 0 0 0 9.894-6.21 68.356 68.356 0 0 0 4.555-11.35l-14.167-2.883c.108-.456.217-.91.317-1.368l-21.366-7.087s-4.76 10.938 9.659 18.645c-11.323 2.359-25.621 4.134-42.592 3.882-9.633-.14-20.135-.945-31.434-2.658 8.525-4.582 14.323-13.58 14.323-23.935 0-15-12.164-27.159-27.167-27.159-15.005 0-27.168 12.16-27.168 27.159a27.039 27.039 0 0 0 5.415 16.274c-32.827-9.567-57.134-23.673-74.909-38.096z"/></g></g></g><g opacity=".5"><g opacity=".25"><path fill="#fff" d="M4.744 320.091a7.492 7.492 0 0 1 1.817-8.989c.196-.17.4-.344.612-.523 7.78-6.57 25.327-18.816 53.13-24.435.524-1.28 1.063-2.554 1.615-3.824-30.222 5.183-49.12 18.326-57.282 25.217-.212.178-.416.353-.611.523a7.49 7.49 0 0 0-1.818 8.99c2.396 4.835 6.907 12.636 14.463 21.4-6.047-7.51-9.812-14.09-11.926-18.359z"/></g></g><g><g><path fill="#000072" d="M45.536 364.815c-.292 0-.583-.082-.837-.244-11.541-7.381-21.608-16.107-29.924-25.933-7.04-8.32-11.362-15.723-13.75-20.469a9.553 9.553 0 0 1 2.346-11.59c4.044-3.446 10.906-8.59 20.627-13.52 11.483-5.823 24.151-9.95 37.655-12.267a1.553 1.553 0 0 1 1.687 2.151c-11.086 25.493-16.554 52.51-16.25 80.302a1.554 1.554 0 0 1-1.554 1.57zm13.82-80.448c-28.148 5.41-45.816 17.629-53.968 24.576a6.455 6.455 0 0 0-1.584 7.83c4.81 9.567 16.34 27.688 40.168 43.61a199.546 199.546 0 0 1 3.954-38.761 199.626 199.626 0 0 1 11.43-37.255z"/></g></g><g><g><path fill="#000072" d="M139.988 391.683c-2.124 0-4.26-.042-6.41-.126-13.8-.54-28.128-2.83-42.585-6.804-17.174-4.721-32.75-11.51-46.296-20.176a1.555 1.555 0 0 1-.716-1.353 199.43 199.43 0 0 1 3.945-41.6 199.501 199.501 0 0 1 12.564-39.919c.209-.48.646-.823 1.162-.911 15.85-2.722 32.841-2.924 50.5-.6 14.866 1.956 28.957 5.414 41.882 10.278 10.355 3.897 19.99 8.7 28.637 14.277 14.783 9.533 21.487 17.93 21.765 18.284.165.21.274.458.314.72a83.112 83.112 0 0 1-.653 29.45 83.195 83.195 0 0 1-10.85 27.392c-.14.227-.337.414-.57.542-.393.217-9.836 5.351-27.163 8.392-8.165 1.432-16.726 2.154-25.526 2.154zM47.082 362.41c13.116 8.283 28.162 14.79 44.734 19.346 32.122 8.831 57.426 7.453 72.996 4.74 15.061-2.622 24.168-6.962 26.015-7.899a80.078 80.078 0 0 0 10.223-26.012 80.014 80.014 0 0 0 .694-27.933c-1.336-1.579-8.04-9.116-20.899-17.384-13.292-8.548-36.07-19.65-69.1-23.995-17.04-2.242-33.434-2.093-48.74.441-10.752 25.013-16.108 51.478-15.923 78.696z"/></g></g><g><g><path fill="#000072" d="M191.923 381.332a1.554 1.554 0 0 1-.033-3.107l9.262-.206a9.826 9.826 0 0 0 8.544-5.364 66.793 66.793 0 0 0 7.123-35.192 9.823 9.823 0 0 0-5.788-8.262l-8.453-3.79a1.554 1.554 0 1 1 1.272-2.835l8.453 3.79a12.925 12.925 0 0 1 7.615 10.873 69.894 69.894 0 0 1-7.453 36.829 12.93 12.93 0 0 1-11.245 7.058l-9.261.206h-.036z"/></g></g><g opacity=".3"><g opacity=".09"><path fill="#fff" d="M13.613 310.29c5.291-6.099 25.286-15.255 30.146-10.009"/></g></g><g><g><g><path fill="#4bb2f7" d="M105.732 361.927c14.796 0 26.791-11.991 26.791-26.783 0-14.793-11.995-26.784-26.791-26.784-14.797 0-26.792 11.991-26.792 26.784 0 14.792 11.995 26.783 26.792 26.783z"/></g></g><g opacity=".7"><g opacity=".49"><path fill="#fff" d="M132.52 333.915c0 .786-.033 1.57-.099 2.342-1.186-13.698-12.683-24.447-26.688-24.447-14.01 0-25.508 10.749-26.694 24.447-.066-.773-.099-1.555-.099-2.342 0-14.794 11.995-26.785 26.793-26.785 14.792 0 26.787 11.992 26.787 26.785z"/></g></g><g opacity=".25"><g opacity=".06"><path fill="#000072" d="M132.52 335.142c0 14.793-11.995 26.784-26.787 26.784-14.798 0-26.793-11.991-26.793-26.784 0-.826.038-1.636.11-2.442 1.233 13.646 12.71 24.343 26.684 24.343 13.973 0 25.446-10.697 26.679-24.343.069.806.107 1.617.107 2.442z"/></g></g><g><g><path fill="#000072" d="M105.735 363.203c-7.497 0-14.544-2.919-19.845-8.218-5.3-5.299-8.22-12.345-8.22-19.839 0-7.493 2.92-14.54 8.22-19.839 5.3-5.299 12.348-8.217 19.845-8.217 7.496 0 14.544 2.918 19.845 8.217 5.3 5.3 8.22 12.346 8.22 19.84 0 7.493-2.92 14.54-8.22 19.838-5.301 5.3-12.349 8.218-19.845 8.218zm0-53.568c-14.07 0-25.52 11.444-25.52 25.511 0 14.067 11.448 25.512 25.52 25.512 14.071 0 25.519-11.445 25.519-25.512s-11.448-25.51-25.52-25.51z"/></g></g><g><g><path fill="#22a7f0" d="M122.45 335.153c0 5.533-2.694 10.44-6.84 13.48a16.604 16.604 0 0 1-9.88 3.234c-.945 0-1.869-.076-2.77-.232a16.632 16.632 0 0 1-8.087-3.774 16.672 16.672 0 0 1-5.863-12.707c0-5.088 2.277-9.65 5.863-12.713a16.665 16.665 0 0 1 8.087-3.769c.9-.156 1.826-.232 2.77-.232a16.647 16.647 0 0 1 9.88 3.229c4.146 3.038 6.84 7.945 6.84 13.484z"/></g></g><g><g><g><path fill="url(#yw1za)" d="M115.285 321.881L91.969 345.19a16.624 16.624 0 0 1-3.049-8.386l17.98-17.974a16.677 16.677 0 0 1 8.385 3.051z"/></g></g></g><g clip-path="url(#clip-3071:242)" opacity=".7"><path fill="url(#yw1zb)" d="M115.285 321.881L91.969 345.19a16.624 16.624 0 0 1-3.049-8.386l17.98-17.974a16.677 16.677 0 0 1 8.385 3.051z"/></g><g clip-path="url(#clip-3071:242)"><g><g><path fill="url(#yw1zc)" d="M122.11 332.942l-19.072 19.067a16.602 16.602 0 0 1-7.938-3.497l23.51-23.502a16.642 16.642 0 0 1 3.5 7.932z"/></g></g></g><g clip-path="url(#clip-3071:242)" opacity=".7"><path fill="url(#yw1zd)" d="M122.11 332.942l-19.072 19.067a16.602 16.602 0 0 1-7.938-3.497l23.51-23.502a16.642 16.642 0 0 1 3.5 7.932z"/></g><g clip-path="url(#clip-3071:242)"><g><path fill="#000072" d="M105.733 353.134c-9.921 0-17.993-8.069-17.993-17.987 0-9.918 8.072-17.987 17.993-17.987 9.92 0 17.992 8.07 17.992 17.987 0 9.919-8.072 17.987-17.992 17.987zm0-33.428c-8.517 0-15.446 6.927-15.446 15.441 0 8.515 6.929 15.441 15.446 15.441s15.445-6.926 15.445-15.44c0-8.515-6.928-15.442-15.445-15.442z"/></g></g></g><g><g><g><g><path fill="#4bb2f7" d="M236.25 350.08s10.012-9.146 27.77 11.389c.834.964.577 2.45-.538 3.07-5.987 3.33-23.208 11.617-29.942 1.072z"/></g></g><g><g><path fill="#e7a900" d="M235.807 352.315s7.105-6.49 19.704 8.133c.552.64.38 1.627-.358 2.04-4.146 2.318-16.466 8.32-21.263.809z"/></g></g><g><g><path fill="#fffd01" d="M234.913 354.008s4.794-4.379 13.295 5.488a.902.902 0 0 1-.241 1.376c-2.797 1.565-11.11 5.614-14.347.546z"/></g></g><g><g><path fill="#000072" d="M243.993 372.274c-1.48 0-2.861-.156-4.132-.47-3.254-.8-5.803-2.615-7.577-5.394-.2-.313-.276-.69-.212-1.057l2.711-15.53c.057-.325.22-.621.463-.844.12-.11 3.025-2.704 8.31-2.393 2.981.175 6.14 1.237 9.385 3.154 3.94 2.328 8.047 5.945 12.205 10.754.694.802.986 1.86.802 2.902a3.476 3.476 0 0 1-1.742 2.442c-3.024 1.683-9.012 4.686-15.125 5.899-1.802.358-3.502.537-5.088.537zm-8.882-7.001c2.59 3.6 7.09 4.793 13.39 3.543 5.714-1.134 11.385-3.983 14.258-5.58a.519.519 0 0 0 .136-.795c-8.771-10.142-15.385-12.6-19.39-12.875-3.128-.216-5.108.825-5.886 1.344z"/></g></g></g><g><g><path fill="#e2e8e8" d="M223.97 362.512c3.257 3.449 7.787 4.312 7.787 4.312s2.485-2.914 3.787-9.75c1.303-6.837.063-10.46.063-10.46s-4.53-.863-8.827 1.148"/></g></g><g><g><path fill="#000072" d="M231.76 368.37c-.095 0-.193-.008-.29-.026-.205-.039-5.065-1-8.626-4.771a1.554 1.554 0 1 1 2.26-2.134c2.01 2.129 4.617 3.166 5.998 3.596.74-1.214 2.085-3.878 2.92-8.26s.563-7.353.321-8.753c-1.44-.108-4.248-.1-6.9 1.14a1.553 1.553 0 1 1-1.318-2.814c4.699-2.198 9.571-1.305 9.777-1.266.55.105 1 .495 1.18 1.023.056.165 1.357 4.095-.007 11.253-1.363 7.158-4.019 10.336-4.131 10.467a1.56 1.56 0 0 1-1.183.546z"/></g></g><g><g><path fill="#4bb2f7" d="M220.237 367.477c7.98-.258 9.473-9.32 9.878-11.44.404-2.122 2.347-11.099-4.98-14.274-7.409-3.206-41.108-6.968-43.4 5.062-2.293 12.03 30.43 20.915 38.502 20.652z"/></g></g><g opacity=".7"><g opacity=".49"><path fill="#fff" d="M230.445 354.032c-.165-3.219-1.344-6.876-5.49-8.671-7.222-3.126-39.417-6.777-43.165 4.179a6.398 6.398 0 0 1-.065-2.714c2.292-12.031 35.992-8.27 43.403-5.063 5.856 2.537 5.787 8.782 5.317 12.269z"/></g></g><g><g opacity=".3"><g opacity=".09"><path fill="#000072" d="M220.737 364.436c6.294-.202 8.552-5.878 9.424-9.311-1.244.858-2.785 1.434-4.702 1.493-6.964.23-32.272-6.351-37.62-15.888-2.737 1.083-4.78 2.628-5.699 4.76.884 11.155 30.915 19.197 38.597 18.946z"/></g></g></g><g><g><path fill="#000072" d="M219.855 369.038c-3.895 0-11.17-1.544-17.979-3.833-5.206-1.75-14.617-5.475-19.14-10.763-2.191-2.563-3.043-5.223-2.532-7.908.511-2.684 2.281-4.843 5.26-6.421 6.15-3.256 16.272-3.264 21.759-2.978 7.444.387 15.062 1.704 18.526 3.203 3.51 1.52 5.68 4.462 6.277 8.506.458 3.1-.112 6.05-.356 7.31l-.066.346c-.237 1.261-.792 4.215-2.357 6.929-2.042 3.54-5.142 5.477-8.964 5.6-.137.007-.281.009-.428.009zm-17.134-28.916c-6.897 0-12.417.945-15.802 2.738-2.133 1.13-3.331 2.522-3.662 4.256-.33 1.735.272 3.471 1.842 5.307 2.993 3.498 9.303 6.992 17.768 9.838 7.45 2.504 14.482 3.757 17.314 3.665 4.393-.142 7.13-3.412 8.368-9.998l.07-.36c1.27-6.58-.073-10.63-4.107-12.378-2.601-1.125-9.603-2.543-17.451-2.951a83.468 83.468 0 0 0-4.34-.117z"/></g></g><g><g><path fill="#000072" d="M207.955 366.581a1.164 1.164 0 0 1-1.025-1.718 42.995 42.995 0 0 0 4.868-25.55 1.166 1.166 0 0 1 2.314-.282 45.503 45.503 0 0 1-.49 13.869 45.461 45.461 0 0 1-4.64 13.069c-.21.39-.612.612-1.027.612z"/></g></g></g></g><g><g opacity=".3"><g opacity=".09"><path fill="#61547a" d="M79.138 205.804s20.377 6.205 36.798-.27c19.192-7.568 10.932-22.238 10.932-22.238L79.301 169.67 61.94 186.424"/></g></g><g><g><path fill="#61547a" d="M79.138 205.804s20.377 6.205 36.798-.27c19.192-7.568 10.932-22.238 10.932-22.238L79.301 169.67 61.94 186.424"/></g></g></g><g><g opacity=".3"><g opacity=".09"><path fill="#000072" d="M79.138 205.804s20.377 6.205 36.798-.27c19.192-7.568 10.932-22.238 10.932-22.238L79.301 169.67 61.94 186.424"/></g></g><g><g><path fill="#000072" d="M98.637 210.012c-2.4 0-4.877-.132-7.41-.394-7.21-.749-12.314-2.287-12.528-2.352a1.526 1.526 0 1 1 .89-2.922c.05.015 5.088 1.53 12.02 2.242 6.334.652 15.598.752 23.774-2.471 5.893-2.324 9.612-5.542 11.054-9.565 1.555-4.336.016-8.52-.636-9.97l-46.066-13.197-16.726 16.142a1.528 1.528 0 1 1-2.122-2.198l17.994-17.367 49.018 14.042.307.546c.144.256 3.49 6.324 1.122 12.993-1.742 4.906-6.057 8.747-12.825 11.415-3.886 1.533-8.3 2.5-13.12 2.876-1.54.12-3.125.18-4.746.18z"/></g></g></g><g><g><g><path fill="#61547a" d="M166.037 241.188c6.898-7.746 22.718-7.441 21.965 6.738-.653 12.296-16.103 15.22-25.842 10.086-3.52-1.856-4.623-7.281 3.877-16.824z"/></g></g><g opacity=".5"><g opacity=".25"><path fill="#fff" d="M166.035 244.23c6.464-7.258 20.761-7.448 21.916 4.225.016-.176.04-.349.048-.53.753-14.179-15.066-14.482-21.964-6.737-5.625 6.314-7.042 10.824-6.339 13.692.534-2.707 2.408-6.237 6.339-10.65z"/></g></g><g opacity=".3"><g opacity=".09"><path fill="#000072" d="M162.15 258.01c9.737 5.136 25.187 2.212 25.841-10.082.274-5.173-1.653-8.499-4.554-10.258.002.292-.172.628-.021.892 7.226 12.677-7.037 22.435-12.449 6.754-4.219 1.293-6.374 6.01-10.685 4.503-1.667 4.316-.399 6.998 1.868 8.192z"/></g></g><g><g><path fill="#000072" d="M172.26 261.942c-3.737 0-7.552-.862-10.814-2.582-1.784-.94-2.966-2.552-3.325-4.538-.337-1.858.03-4.004 1.087-6.377 1.123-2.516 3.035-5.3 5.686-8.275 2.128-2.39 5.11-4.175 8.394-5.03 3.298-.858 6.627-.708 9.373.422 2.21.908 4 2.444 5.176 4.442 1.286 2.182 1.855 4.873 1.688 8.001-.137 2.579-.87 4.902-2.176 6.907-1.204 1.845-2.864 3.377-4.934 4.552-2.913 1.652-6.497 2.478-10.154 2.478zm5.225-24.303c-3.722 0-7.736 1.675-10.308 4.563-5.954 6.685-6.345 10.436-6.048 12.077.193 1.07.78 1.872 1.742 2.38 2.841 1.497 6.159 2.25 9.394 2.25 3.122 0 6.168-.7 8.64-2.102 2.395-1.359 5.305-4.017 5.568-8.963.252-4.743-1.469-8.013-4.975-9.455-1.232-.508-2.6-.75-4.013-.75z"/></g></g></g><g><g><path fill="#61547a" d="M101.296 226.92s-21.427 1.644-29.554 14.553c-6.476 10.285-4.25 28.11-4.25 28.11s-7.076 2.19-7.75 6.906c-.745 5.21 1.033 12.041 22.363 10.699 3.64-.23 7.763-1.926 9.345-4.027 2.773-3.684 1.72-16.313 2.48-16.905 1.678-1.308 10.954-3.884 33.853-4.303 3.63-.067-26.487-35.033-26.487-35.033z"/></g></g><g opacity=".5"><g opacity=".25"><path fill="#fff" d="M60.797 275.818c.675-4.718 8.115-6.084 8.115-6.084s-1.115-16.458 5.36-26.743c7.23-11.483 24.983-14.052 28.816-14.48-1.126-1.321-1.798-2.101-1.798-2.101s-21.427 1.644-29.554 14.553c-6.476 10.285-4.25 28.11-4.25 28.11s-7.076 2.189-7.75 6.906c-.413 2.887-1.958 5.226 2.076 7.443-1.641-1.986-1.315-5.501-1.014-7.604z"/></g></g><g><g><path fill="#000072" d="M60.33 284.279c-1.893-2.048-2.58-4.667-2.104-8.008.62-4.34 5.358-6.782 7.623-7.712a72.164 72.164 0 0 1-.19-9.245c.348-7.889 1.958-14.166 4.786-18.658 1.978-3.142 4.848-5.9 8.53-8.201 2.897-1.81 6.305-3.345 10.126-4.558 6.467-2.055 11.85-2.486 12.076-2.503.484-.035.957.158 1.275.526.07.082 7.062 8.206 13.828 16.533 3.983 4.902 7.112 8.919 9.3 11.938 1.32 1.822 2.317 3.307 2.964 4.418.878 1.51 1.335 2.64.9 3.612-.286.64-.913 1.044-1.637 1.057-9.895.181-18.427.804-24.672 1.8-4.608.735-6.996 1.52-7.912 1.97-.071.667-.109 1.996-.14 3.104-.163 5.757-.47 11.14-2.417 13.726-2.061 2.74-6.828 4.403-10.471 4.632a84.177 84.177 0 0 1-5.229.175c-8.318 0-13.784-1.52-16.636-4.606zm40.324-55.763a58.675 58.675 0 0 0-10.69 2.311c-5.548 1.77-12.99 5.195-16.931 11.455-6.104 9.696-4.05 26.936-4.027 27.11a1.527 1.527 0 0 1-1.065 1.647c-1.71.535-6.25 2.595-6.688 5.662-.344 2.407.076 4.156 1.322 5.503 1.188 1.285 3.17 2.243 5.891 2.849 3.393.754 7.949.958 13.541.606 3.268-.206 6.955-1.74 8.22-3.42 1.524-2.023 1.7-8.253 1.804-11.975.101-3.602.129-4.57.958-5.217 1.749-1.363 6.807-2.333 9.668-2.789 6.092-.971 13.929-1.577 23.315-1.8-.553-.96-1.62-2.607-3.676-5.382-2.24-3.025-5.307-6.925-9.116-11.594a876.421 876.421 0 0 0-12.526-14.966z"/></g></g><g><g><path fill="#61547a" d="M225.99 187.526c-.602 4.911-4.717 7.786-10.634 10.617-13.504 6.446-33.199 10.415-45.146 12.386-6.272 1.035-10.405 1.512-10.405 1.512l-3.892-8.689-.006-.014-.096-.211-.236-.527-6.995-15.632c9.75-1.073 22.375-5.013 34.582-8.561.24-.07.48-.141.716-.208.691-.205 1.377-.4 2.06-.597 1.206-.34 2.402-.683 3.591-1.01 14.55-4.034 27.653-6.661 33.405-2.053 2.758 1.326 4.828 4.128 4.923 7.376.053 1.793-.496 3.723-1.867 5.61z"/></g></g><g opacity=".3"><g opacity=".09"><path fill="#000072" d="M183.878 178.19c-4.715 10.727-14.823 19.768-27.965 25.152l-.006-.014-.096-.21-.236-.528-6.995-15.632c9.75-1.073 22.375-5.013 34.582-8.561.24-.068.48-.14.716-.207z"/></g></g><g><g><path fill="#545468" d="M165.496 198.45c-9.262 5.81-20.93 9.548-33.738 10.165-11.492.552-22.312-1.484-31.478-5.444.021-.187.045-.377.063-.564 0 0 4.977-27.058 35.215-24.679 18.528 1.457 26.511 12.07 29.939 20.521z"/></g></g><g opacity=".3"><g opacity=".09"><path fill="#fff" d="M225.992 187.517c-.302 2.456-1.481 4.403-3.325 6.09a9.004 9.004 0 0 0 1.65-4.226c1.37-1.89 1.92-3.818 1.87-5.61-.096-3.25-2.166-6.05-4.925-7.378-5.755-4.609-18.856-1.98-33.405 2.054a484.15 484.15 0 0 0-3.59 1.011c-12.093 3.465-24.84 7.555-34.991 9.055l-.696-1.555c10.493-1.154 24.309-5.624 37.363-9.364 1.203-.342 2.4-.682 3.59-1.01 14.549-4.035 27.65-6.664 33.404-2.055 2.76 1.327 4.83 4.129 4.925 7.378.05 1.793-.5 3.72-1.87 5.61z"/></g></g><g opacity=".3"><g opacity=".09"><path fill="#000072" d="M225.995 187.52c-.604 4.91-4.717 7.788-10.636 10.614-13.504 6.448-33.197 10.418-45.147 12.391l-3.422-.972s46.037-11.807 52.352-17.342c4.012-3.511.243-6.137.243-6.137s5.093-1.871 8.478-4.164c.052 1.792-.499 3.72-1.868 5.61z"/></g></g><g><g><path fill="#000072" d="M159.8 213.566a1.529 1.529 0 0 1-.175-3.045c.087-.01 8.832-1.04 19.962-3.25 14.67-2.915 26.809-6.55 35.106-10.513 5.653-2.7 9.261-5.218 9.777-9.42l.048-.392.232-.32c1.414-1.951 1.893-4.048 1.385-6.063-.503-1.99-1.947-3.73-3.864-4.653l-.157-.075-.135-.109c-2.84-2.273-8.252-2.7-16.544-1.304-7.712 1.3-17.052 4.038-26.083 6.687-10.742 3.15-21.848 6.409-30.606 7.374a1.527 1.527 0 1 1-.336-3.037c8.491-.936 19.467-4.155 30.08-7.268 19.247-5.645 37.432-10.978 45.262-4.943 2.647 1.33 4.639 3.779 5.347 6.582.698 2.765.112 5.692-1.65 8.284-.4 2.52-1.63 4.696-3.754 6.638-1.752 1.603-4.122 3.076-7.685 4.777-8.65 4.131-20.713 7.75-35.853 10.757-11.245 2.233-20.09 3.274-20.179 3.284-.06.005-.12.01-.178.01z"/></g></g><g><g><path fill="#fff" d="M174.175 248.902c-3.18 9.541-9.88 21.78-17.651 24.953-21.159 8.64-62.75-.822-66.425-27.808-1.768-12.97 4.728-23.268 8.272-34.43.928-2.922 1.652-5.905 1.975-9.007 0 0 6.161-26.17 35.215-24.679 29.054 1.491 32.51 31.203 32.51 31.203.547.903 1.061 1.8 1.541 2.689 8.686 16.032 7.005 29.76 4.563 37.079z"/></g></g><g opacity=".3"><g opacity=".09"><path fill="#000072" d="M174.177 248.893c-3.18 9.54-9.88 21.78-17.65 24.952-21.16 8.64-62.75-.82-66.424-27.806-.58-4.259-.119-8.412.925-12.459 3.628 21.535 31.838 30.162 53.836 29.323 5.955-.228 10.446.575 15.083-1.318 6.232-2.543 11.798-10.69 15.537-18.836-.257 2.324-.719 4.376-1.307 6.144z"/></g></g><g><g><path fill="#61547a" d="M169.611 211.82c-38.217 14.095-61.82 5.152-71.241-.207.928-2.922 1.652-5.905 1.975-9.007 0 0 4.978-27.055 35.215-24.678 31.38 2.467 32.51 31.203 32.51 31.203.548.903 1.062 1.8 1.541 2.69z"/></g></g><g opacity=".3"><g opacity=".09"><path fill="#000072" d="M165.496 198.45c-9.262 5.81-20.93 9.548-33.738 10.165-11.492.552-22.312-1.484-31.478-5.444.021-.187.045-.377.063-.564 0 0 4.977-27.058 35.215-24.679 18.528 1.457 26.511 12.07 29.939 20.521z"/></g></g><g><g><path fill="#000072" d="M168.727 208.734a29.625 29.625 0 0 1 1.88 2.552c.583.883 1.129 1.79 1.636 2.72a39.775 39.775 0 0 1 2.586 5.817c1.412 4.014 2.36 8.21 2.73 12.474.185 2.132.227 4.278.118 6.42a43.278 43.278 0 0 1-.811 6.39 39.583 39.583 0 0 1-1.016 3.92l-.126.387-.127.378a70.813 70.813 0 0 1-2.974 7.362 65.373 65.373 0 0 1-2.988 5.619c-1.093 1.826-2.288 3.604-3.63 5.296-1.341 1.688-2.831 3.297-4.568 4.703-.869.7-1.803 1.347-2.817 1.899-.253.138-.512.27-.775.393-.133.061-.263.125-.399.18l-.202.087-.101.043-.094.037c-.505.205-1.013.393-1.524.574a43.042 43.042 0 0 1-6.236 1.647 54.206 54.206 0 0 1-6.346.797c-4.246.286-8.5.128-12.701-.393a69.54 69.54 0 0 1-12.4-2.705c-4.041-1.285-7.973-2.964-11.667-5.113a45.814 45.814 0 0 1-5.315-3.603 40.818 40.818 0 0 1-2.452-2.1 37.034 37.034 0 0 1-2.274-2.31 32.177 32.177 0 0 1-3.854-5.247c-.277-.469-.535-.95-.789-1.434a30.35 30.35 0 0 1-.706-1.479 27.995 27.995 0 0 1-1.157-3.067 28.191 28.191 0 0 1-.797-3.18c-.055-.268-.096-.537-.143-.807-.043-.27-.082-.54-.12-.81-.032-.268-.068-.537-.097-.805-.027-.27-.056-.539-.078-.808a35.098 35.098 0 0 1 .057-6.48 43.998 43.998 0 0 1 1.133-6.33c.516-2.07 1.148-4.094 1.837-6.08 1.375-3.975 2.993-7.788 4.437-11.597a122.771 122.771 0 0 0 1.998-5.732c.31-.958.608-1.92.892-2.889.288-.968.554-1.945.838-2.932l.003-.008a.776.776 0 0 1 1.518.165c.069 1.07.031 2.141-.063 3.206a29.617 29.617 0 0 1-.469 3.166c-.422 2.088-1.056 4.113-1.737 6.1-1.367 3.975-3.023 7.77-4.433 11.589-.705 1.909-1.336 3.83-1.843 5.77-.25.972-.47 1.946-.65 2.926a36.48 36.48 0 0 0-.415 2.948 31.922 31.922 0 0 0-.043 5.915c.021.245.048.49.073.736l.09.734c.067.485.143.968.237 1.446a25.225 25.225 0 0 0 1.754 5.57c.196.447.413.884.633 1.32.227.432.459.863.71 1.284.989 1.688 2.17 3.269 3.49 4.734 2.646 2.932 5.847 5.38 9.308 7.388 3.464 2.012 7.198 3.589 11.046 4.798a66.244 66.244 0 0 0 11.837 2.54c4.013.483 8.07.617 12.084.332 2.006-.144 4-.393 5.964-.767a39.824 39.824 0 0 0 5.754-1.53c.464-.166.926-.337 1.38-.523l.085-.034.077-.034.155-.066c.103-.042.205-.093.307-.14.204-.096.407-.2.608-.31a15.56 15.56 0 0 0 2.317-1.574c1.479-1.204 2.825-2.644 4.056-4.191a45.841 45.841 0 0 0 3.385-4.937 62.085 62.085 0 0 0 2.84-5.334 68.988 68.988 0 0 0 2.355-5.581c.175-.474.344-.948.509-1.425l.121-.358.116-.35a36.693 36.693 0 0 0 .945-3.583 40.65 40.65 0 0 0 .778-5.909c.118-1.989.097-3.989-.06-5.981-.312-3.985-1.166-7.933-2.468-11.734a103.47 103.47 0 0 0-2.135-5.657c-.761-1.877-1.593-3.733-2.386-5.642a.774.774 0 0 1 1.31-.793z"/></g></g><g><g><path fill="#61547a" d="M174.535 244.858c3.307 12.057 8.552 52.967 10.589 54.524 1.768 1.352 4.32 2.618 4.758 5.618.378 2.59-.765 6.358-4.315 7.05-11.022 2.15-16.783-1.575-19.627-3.41-10.036-6.471-13.018-24.19-21.45-36.742 0 0-1.508-11.897 6.178-20.255 11.196-12.173 23.867-6.785 23.867-6.785z"/></g></g><g opacity=".3"><g opacity=".09"><path fill="#000072" d="M189.53 308.431l-.058.16c-.615 1.635-1.864 3.06-3.912 3.457-11.026 2.15-16.783-1.578-19.629-3.41-10.035-6.473-13.02-24.19-21.451-36.744 0 0-.508-4.002.569-8.994 0 0 6.7-1.092 8.412 2.815 1.67 3.831 10.178 32.593 14.4 37.752 2.159 2.642 11.866 5.942 21.669 4.964z"/></g></g><g><g><path fill="#000072" d="M175.635 244.557c.262.368 1.188 3.7 1.293 4.128 1.088 4.454 1.64 7.724 2.478 12.55.485 2.791.914 5.592 1.377 8.387.462 2.791.926 5.582 1.399 8.371.51 3.015 1.506 8.925 2.202 12.505.448 2.306.773 3.968 1.323 6.113.082.319.178.633.274.947.044.145.094.288.147.43.042.111.093.22.14.329.003.008.017.03.01.024-.037-.038-.068-.081-.104-.12-.02-.021-.044-.04-.067-.06l-.022-.017.047.036c.132.096.264.194.397.289.288.205.587.394.866.611.622.484 1.295.917 1.836 1.49 1.05 1.115 1.678 2.02 2.055 3.416.117.433.217.877.223 1.325.012.857.012 1.727-.17 2.565-.183.85-.466 1.697-.912 2.443-.47.785-1.061 1.527-1.79 2.08-.741.56-1.677.8-2.523 1.184-.052.024-.112.025-.167.037l-.084.017c-.022.005-.045.008-.068.012l-.815.15a37.19 37.19 0 0 1-2.196.318c-1.961.221-3.297.216-5.594.142-.754-.025-1.504-.136-2.25-.255-2.516-.403-3.927-.94-6.514-2.03-.696-.294-1.336-.707-1.993-1.079a46.975 46.975 0 0 1-1.398-.873c-.163-.106-.338-.198-.486-.324-1.166-.997-2.4-1.928-3.452-3.044-1.026-1.09-1.912-2.308-2.758-3.543-.828-1.21-1.55-2.491-2.253-3.778-.693-1.268-1.315-2.574-1.933-3.88-1.238-2.62-2.277-5.166-3.418-7.827-.554-1.293-1.102-2.59-1.673-3.875-.48-1.079-2.993-6.524-3.49-7.603-.29-.633-.583-1.265-.87-1.9-.289-.64-.571-1.283-.857-1.925-.001-.003-.005-.007-.004-.01.136-.34.11-.815.415-1.016.244-.161.653-.032.859.175 1.943 1.954 3.62 4.73 4.907 7.137.676 1.263 1.26 2.573 1.863 3.872.982 2.114 2.499 5.642 3.455 7.77.574 1.278 1.1 2.579 1.746 3.821 1.266 2.436 2.536 4.875 3.985 7.207.702 1.13 1.543 2.178 2.453 3.148.882.941 1.921 1.722 2.9 2.562.074.063.771.51.834.549.286.18.568.368.861.535.573.327 1.13.688 1.738.946 1.2.51 2.386 1.135 3.672 1.354 2.6.443 5.256.46 7.89.614.23.013 1.784-.188 2.008-.22.335-.047.67-.101 1.003-.156.167-.027.334-.06.5-.089l.25-.044.064-.012.046-.01c.031-.006.064-.006.093-.019.435-.192.917-.308 1.296-.595.391-.297.786-.657.963-1.116.603-1.565 1.052-3.099.31-4.632-.535-1.107-1.457-1.722-2.396-2.45-.28-.217-.578-.41-.865-.617-.154-.111-.306-.225-.46-.339a3.087 3.087 0 0 1-.131-.102c-.04-.034-.081-.065-.116-.103-.095-.104-.194-.207-.275-.323-.236-.337-.383-.697-.53-1.082a8.398 8.398 0 0 1-.194-.575c-.11-.362-.217-.725-.31-1.092-.566-2.226-.898-3.946-1.355-6.332-.695-3.634-1.661-9.478-2.18-12.58-.465-2.792-.914-5.586-1.379-8.377a740.585 740.585 0 0 0-1.447-8.355c-.493-2.776-.998-5.55-1.482-8.329-.48-2.757-.942-5.517-1.413-8.276.32-.44.436-1.175.96-1.318.465-.127.978.32 1.256.713z"/></g></g><g><g><path fill="#000072" d="M74.508 276.95c-.415.372-.745.82-1.014 1.285a5.637 5.637 0 0 0-.715 2.231 5.444 5.444 0 0 0 .017 1.497c.042.241.094.478.166.707a4.575 4.575 0 0 0 1.538 2.244c.7.55 1.537.867 2.387.961a1.542 1.542 0 1 1-.674 2.99l-.085-.03c-1.294-.455-2.465-1.255-3.304-2.302a6.555 6.555 0 0 1-1.443-3.582 6.826 6.826 0 0 1-.009-.944c.025-.312.062-.619.128-.919a6.243 6.243 0 0 1 1.655-3.113c.404-.408.855-.768 1.353-1.025z"/></g></g><g><g><path fill="#000072" d="M67.547 274.7a7.168 7.168 0 0 0-1.466 1.183A6.625 6.625 0 0 0 65 277.36c-.14.264-.26.537-.355.815-.025.069-.045.139-.067.209a4.522 4.522 0 0 0-.133.624 7.358 7.358 0 0 0-.025 1.747c.06.576.186 1.135.383 1.642.195.507.464.96.79 1.324.654.737 1.535 1.118 2.538 1.256a1.54 1.54 0 1 1-.724 2.977l-.07-.027a7.574 7.574 0 0 1-2.075-1.118 6.094 6.094 0 0 1-1.563-1.797 6.491 6.491 0 0 1-.746-2.137 8.092 8.092 0 0 1-.061-2.13c.07-.693.212-1.366.443-2.022.059-.164.124-.326.199-.49l.059-.123.061-.116a6.44 6.44 0 0 1 .713-1.064c.43-.52.929-.968 1.466-1.339a7.35 7.35 0 0 1 1.713-.891z"/></g></g><g><g><path fill="#000072" d="M181.986 301.83c.568.27 1.11.604 1.625.985.514.382 1 .818 1.422 1.336.418.516.775 1.125.96 1.827.021.088.042.177.059.266l.047.248c.028.164.054.328.076.494.042.333.07.673.074 1.02a6.336 6.336 0 0 1-.32 2.135 5.302 5.302 0 0 1-1.215 1.974 5.953 5.953 0 0 1-.894.757c-.316.225-.65.41-.988.577-.677.327-1.375.56-2.07.729l-.037.009a1.539 1.539 0 0 1-.733-2.987c.105-.026.218-.04.322-.044 1.085-.031 2.118-.232 2.906-.747.392-.259.733-.596.994-1.028.262-.429.446-.943.558-1.497a7.51 7.51 0 0 0 .119-.857c.012-.146.02-.294.025-.443.002-.072.005-.154.005-.22a2.614 2.614 0 0 0-.005-.198c-.03-.534-.211-1.087-.488-1.608a7.313 7.313 0 0 0-1.06-1.472 9.705 9.705 0 0 0-1.382-1.256z"/></g></g><g><g><path fill="#000072" d="M175.21 301.83c.58.34 1.117.766 1.61 1.245a7.896 7.896 0 0 1 1.302 1.654c.09.156.175.316.254.482.08.159.149.348.202.532.109.369.17.744.197 1.122a5.979 5.979 0 0 1-.283 2.269 5.31 5.31 0 0 1-1.243 2.06 5.467 5.467 0 0 1-2.105 1.32c-.781.275-1.588.386-2.368.404a11.81 11.81 0 0 1-2.282-.195l-.025-.004a1.535 1.535 0 1 1 .788-2.955c1.1.399 2.237.62 3.247.456.504-.08.972-.261 1.383-.552a3.4 3.4 0 0 0 1.026-1.184c.26-.487.432-1.049.49-1.625.03-.288.032-.579 0-.86a6.212 6.212 0 0 0-.18-.877 7.103 7.103 0 0 0-.785-1.739 8.273 8.273 0 0 0-1.227-1.553z"/></g></g><g><g><path fill="#000072" d="M218.49 186.235a17.812 17.812 0 0 1 2.08-.636c.712-.169 1.444-.3 2.214-.345.385-.022.78-.02 1.192.023.411.044.841.133 1.285.316.22.092.444.21.66.364.217.153.426.344.606.567.182.222.334.476.448.74.114.263.192.535.242.801l.047.25a1.384 1.384 0 1 1-2.714-.039c.039-.175.056-.311.027-.457-.028-.145-.124-.315-.303-.479a2.689 2.689 0 0 0-.701-.44 5.664 5.664 0 0 0-.91-.315 11.68 11.68 0 0 0-2.04-.32 17.17 17.17 0 0 0-2.133-.03z"/></g></g><g><g><path fill="#000072" d="M214.72 176.705a24.123 24.123 0 0 1 2.626-1.184 19.964 19.964 0 0 1 2.807-.858c.971-.213 1.987-.348 3.068-.29.54.033 1.1.126 1.664.308a5.23 5.23 0 0 1 1.645.871l.089.071a1.354 1.354 0 1 1-1.932 1.867 2.666 2.666 0 0 0-.733-.662 4.44 4.44 0 0 0-1.06-.475 8.096 8.096 0 0 0-1.256-.264 12.152 12.152 0 0 0-1.345-.095 19 19 0 0 0-2.782.176c-.933.123-1.867.297-2.791.535z"/></g></g><g><g><g><path fill="#61547a" d="M89.882 117.852s-10.085-16.266-22.585-11.646c-10.076 3.726-14.779 14.35-8.878 23.25 7.59 11.45 20.78 8.748 20.78 8.748"/></g></g><g opacity=".5"><g opacity=".25"><path fill="#fff" d="M57.71 128.796c-2.314-8.072 2.55-16.4 11.36-19.655 7.27-2.688 13.756 1.413 18.061 5.556-3.826-4.495-11.263-11.15-19.835-7.98-9.636 3.562-14.36 13.44-9.587 22.08z"/></g></g><g><g><path fill="#000072" d="M75.176 140.007h-.037c-3.137-.076-6.093-.71-8.788-1.883-3.751-1.632-6.849-4.263-9.206-7.819-2.862-4.317-3.595-9.28-2.061-13.973 1.708-5.228 5.966-9.44 11.684-11.553 4.602-1.701 9.363-1.064 14.148 1.894 3.78 2.337 6.745 5.634 8.568 7.989a1.528 1.528 0 0 1-2.417 1.87c-2.896-3.74-10.566-12.092-19.238-8.885-4.837 1.788-8.422 5.3-9.838 9.635-1.238 3.788-.633 7.815 1.703 11.337 4.432 6.685 10.886 8.223 15.52 8.335a1.527 1.527 0 0 1-.038 3.053z"/></g></g><g><g><path fill="#fff" d="M144.65 195.825c19.287-6.004 44.882-22.37 34.922-51.136-6.72-19.413-18.393-41.683-46.292-49.871-1.724-.179-3.5-.498-9.453-1.82-6.134-1.277-13.171-2.049-22.468-6.618-7.12-.672-5.255 10.004.3 13.793-5.515 2.865-21.74-4.841-23.13 1.968-.466 2.282 1.9 6.783 6.401 8.446-5.59 4.277-8.585 9.83-8.585 9.83-9.006 13.158-6.243 27.576-5.853 39.161.273 8.114-1.706 16.515 2.6 25.364 8.806 18.099 48.166 18.167 71.559 10.883z"/></g></g><g opacity=".3"><g opacity=".09"><path fill="#000072" d="M144.647 195.827c-23.395 7.281-62.755 7.216-71.558-10.882a24.8 24.8 0 0 1-.929-2.15c14.746 13.107 50.15 12.321 72.293 5.429 13.815-4.302 30.633-13.536 37.217-28.344-1.726 19.473-21.435 31.095-37.023 35.947z"/></g></g><g><g><path fill="#fff" d="M171.248 125.764c-40.717-13.384-80.831-2.45-99.598 4.46.049-.161.101-.327.154-.489.038-.123.08-.247.12-.37.082-.25.165-.5.253-.748.054-.15.109-.301.166-.45.256-.697.534-1.39.845-2.084.076-.176.155-.347.234-.521.399-.863.84-1.724 1.328-2.583.098-.172.195-.345.297-.516.101-.172.202-.34.31-.512a30.457 30.457 0 0 1 .992-1.534s1.973-3.664 5.715-7.334c.363-.359.745-.715 1.147-1.068.226-.207.463-.41.704-.612a31.27 31.27 0 0 1 1.016-.814 10.458 10.458 0 0 1-3.766-2.429c-.18-.181-.355-.369-.52-.555a10.816 10.816 0 0 1-.878-1.164c-1.02-1.57-1.46-3.195-1.235-4.3.177-.872.6-1.506 1.211-1.955.407-.299.899-.514 1.46-.666 2.391-.64 6.035-.062 9.683.518 2.335.37 4.673.742 6.689.794.498.016.98.01 1.432-.023a8.87 8.87 0 0 0 1.633-.25c.247-.067.483-.145.702-.236.107-.046.216-.097.318-.15a9.391 9.391 0 0 1-1.172-.95c-.276-.265-.54-.543-.793-.835a7.06 7.06 0 0 1-.245-.299 14.89 14.89 0 0 1-.684-.942v-.003a13.184 13.184 0 0 1-1.494-3.103c-.003-.003 0-.003 0-.003a12.168 12.168 0 0 1-.369-1.416c-.003 0 0-.003 0-.003-.366-1.895-.183-3.68.688-4.856.183-.247.396-.468.646-.657.05-.039.098-.077.15-.112l.163-.103c.141-.084.294-.163.459-.225a2.89 2.89 0 0 1 .257-.098c.196-.065.403-.115.624-.152a5.03 5.03 0 0 1 .948-.064c.168.002.345.012.525.028.581.287 1.152.556 1.715.814.846.383 1.674.74 2.48 1.067 7.277 2.943 13.096 3.66 18.274 4.738 5.95 1.322 7.727 1.64 9.449 1.82a79.117 79.117 0 0 1 2.53.793c.04.014.077.029.116.04 17.42 5.888 28.168 17.464 35.321 30.112z"/></g></g><g><g><path fill="#61547a" d="M135.65 169.58s-13.455 1.537-14.852-14.083c-1.398-15.619 1.817-17.463 9.592-19.035 7.776-1.572 21.355 2.549 26.676 6.783 5.32 4.235 8.247 13.446 7.212 17.432-.85 3.269-5.593 6.309-13.288 7.718-7.694 1.41-12.275 1.293-15.34 1.186z"/></g></g><g><g><path fill="#61547a" d="M98.028 175.347s9.048-3.233 5.36-16.247c-3.69-13.013-6.286-13.426-11.716-12.106-5.43 1.32-12.9 9.14-15.058 14.309-2.157 5.168-1.326 13.54.505 16.398 1.502 2.344 5.426 3.211 10.757 1.789 5.33-1.423 8.224-3.038 10.152-4.143z"/></g></g><g><g><path fill="#61547a" d="M142.727 126.459c.242-1.07-7.725-9.05-14.005-4.433-2.3 1.691-1.05 3.808.698 3.99 1.664.172 3.84-.668 5.932-.565 4.08.202 7.132 2.078 7.375 1.008z"/></g></g><g><g><path fill="#61547a" d="M76.156 144.208c-.751-.645.731-10.719 7.77-10.748 2.58-.011 2.812 2.197 1.642 3.27-1.114 1.02-3.145 1.58-4.606 2.78-2.85 2.34-4.054 5.344-4.806 4.698z"/></g></g><g><g><path fill="#000072" d="M144.434 159.27a28.165 28.165 0 0 0-1.732-2.907 17.562 17.562 0 0 0-2.052-2.495c-.74-.734-1.538-1.354-2.353-1.769a5.46 5.46 0 0 0-1.223-.45 4.046 4.046 0 0 0-.601-.095c-.1-.009-.198-.016-.296-.017-.045-.002-.112 0-.17-.002-.06 0-.12 0-.178.002-.948.018-1.818.193-2.597.528a5.584 5.584 0 0 0-1.617 1.05c-.164.148-.323.308-.474.48-.6.691-1.109 1.532-1.544 2.46-.22.464-.419.952-.603 1.459-.185.507-.348 1.033-.525 1.582l-.014.046a.992.992 0 0 1-1.896-.02 7.896 7.896 0 0 1-.304-1.986 9.654 9.654 0 0 1 2.51-6.801c.253-.276.526-.54.815-.787a8.563 8.563 0 0 1 1.924-1.25 8.92 8.92 0 0 1 2.166-.704 10.128 10.128 0 0 1 2.467-.156c.091.005.174.008.278.017a7.3 7.3 0 0 1 .595.068c.392.062.777.152 1.15.268.745.229 1.437.56 2.063.948 1.257.777 2.26 1.774 3.076 2.845a15.176 15.176 0 0 1 1.947 3.425c.49 1.196.838 2.434 1.012 3.693a.968.968 0 0 1-1.816.584z"/></g></g><g><g><path fill="#000072" d="M85.192 170.034a12.633 12.633 0 0 1-.061-3.321c.121-1.11.369-2.212.754-3.285.386-1.072.911-2.117 1.621-3.088a9.611 9.611 0 0 1 1.224-1.38 7.69 7.69 0 0 1 1.584-1.134c.154-.082.284-.143.424-.21a8.268 8.268 0 0 1 1.337-.499 6.458 6.458 0 0 1 2.03-.24c.71.036 1.44.204 2.095.511a5.969 5.969 0 0 1 1.703 1.2c.952.949 1.536 2.064 1.883 3.192.172.567.286 1.14.336 1.723.027.291.035.586.024.883a4.878 4.878 0 0 1-.114.918.78.78 0 0 1-1.485.118l-.044-.11a23.679 23.679 0 0 0-.256-.627c-.09-.214-.19-.428-.29-.639-.2-.422-.418-.834-.649-1.22a10.271 10.271 0 0 0-.73-1.085 5.266 5.266 0 0 0-.811-.857 3.114 3.114 0 0 0-.872-.515 2.644 2.644 0 0 0-.919-.172c-.323-.01-.674.04-1.044.129a6.672 6.672 0 0 0-.855.289c-.095.041-.202.084-.278.121-.663.31-1.312.84-1.877 1.501-.569.661-1.062 1.442-1.488 2.274a16.815 16.815 0 0 0-1.065 2.649 19.924 19.924 0 0 0-.65 2.855l-.002.014a.772.772 0 0 1-1.525.005z"/></g></g><g><g><path fill="#000072" d="M112.948 201.877c-3.326 0-6.586-.15-9.702-.457-7.53-.743-13.987-2.335-19.192-4.732-5.944-2.737-10.095-6.465-12.34-11.079-3.344-6.873-3.092-13.365-2.849-19.644.085-2.194.165-4.264.095-6.338-.06-1.807-.179-3.67-.304-5.64-.326-5.132-.696-10.95-.005-16.769.797-6.71 2.886-12.469 6.385-17.604.354-.639 2.776-4.846 7.112-8.714a12.247 12.247 0 0 1-3.552-3.45c-1.307-1.93-1.893-4.03-1.57-5.617.351-1.719 1.625-3.824 5.705-4.092 2.435-.16 5.459.322 8.383.786 2.514.4 5.255.836 7.35.777-2.694-3.192-4.021-7.823-2.859-11.041.88-2.436 3.027-3.677 5.891-3.406.185.017.364.068.53.15 7.555 3.713 13.59 4.858 18.916 5.869 1.106.21 2.15.407 3.191.624l.02.004c6.035 1.34 7.678 1.626 9.277 1.791.093.01.184.027.273.054 6.778 1.988 13 4.925 18.498 8.726 4.93 3.41 9.422 7.618 13.352 12.51 6.244 7.771 11.155 17.177 15.457 29.601 3.431 9.91 3.04 19.151-1.162 27.467-3.11 6.153-8.236 11.671-15.237 16.4-7.153 4.833-14.558 7.685-19.511 9.228-9.543 2.971-21.202 4.596-32.152 4.596zm-29.204-101.11c-.282 0-.553.007-.813.024-2.607.172-2.811 1.173-2.91 1.653-.125.615.168 1.908 1.107 3.294a9.079 9.079 0 0 0 4.328 3.414 1.526 1.526 0 0 1 .399 2.646c-5.244 4.012-8.141 9.29-8.17 9.343a1.688 1.688 0 0 1-.083.137c-7.285 10.645-6.547 22.264-5.895 32.516.127 1.994.247 3.878.31 5.732.074 2.184-.014 4.408-.097 6.558-.229 5.903-.465 12.006 2.543 18.19 1.928 3.963 5.586 7.206 10.871 9.64 4.895 2.254 11.024 3.757 18.214 4.467 3.029.299 6.2.445 9.432.445 10.635 0 21.952-1.577 31.212-4.46 5.779-1.799 25.23-8.854 32.929-24.089 3.816-7.549 4.153-15.99 1.002-25.09-5.883-16.992-16.96-40.532-45.147-48.866-1.679-.18-3.468-.497-9.475-1.83-1.01-.211-2.04-.406-3.128-.613-5.454-1.035-11.627-2.206-19.425-5.998-1.716-.079-2.23.764-2.466 1.42-.895 2.478.792 7.398 4.034 9.609a1.526 1.526 0 0 1-.157 2.617c-2.773 1.442-7.12.75-11.723.019-2.417-.383-4.905-.779-6.892-.779z"/></g></g><g><g><path fill="#61547a" d="M144.403 109.948c-10.379-5.518-11.202-11.774-9.86-16.302 1.695-5.72 5.318-12.568 13.013-13.78 10.966-1.728 20.572 5.477 19.749 16.479-.493 6.575-3.617 11.006-6.821 13.867-3.6 3.215-8.39 3.824-16.081-.264z"/></g></g><g opacity=".5"><g opacity=".25"><path fill="#fff" d="M133.35 99.186c1.575-6.228 5.303-14.533 14.04-15.909 9.14-1.437 17.38 3.042 19.935 10.737-.59-9.667-9.593-15.75-19.764-14.149-10.54 1.662-13.44 13.892-14.211 19.32z"/></g></g><g><g><path fill="#000072" d="M132.625 98.804c-.195-1.293.104-3.637.363-4.897.289-1.398.598-2.31 1.06-3.559.06-.161.4-1.001.474-1.157.36-.758.698-1.53 1.108-2.262.415-.742.898-1.445 1.364-2.157.118-.18.256-.344.386-.515.08-.104.32-.404.407-.503.286-.326.569-.655.863-.973.149-.16.31-.307.466-.46.078-.077.154-.155.234-.229.08-.074.165-.146.248-.218.166-.143.33-.29.5-.429a16.04 16.04 0 0 1 1.066-.785c.157-.11.39-.265.555-.363.19-.115.382-.224.574-.336.048-.028.095-.057.144-.083.049-.027.1-.05.149-.075a150.619 150.619 0 0 1 .596-.297c.05-.025.099-.05.15-.073.05-.023.101-.044.152-.065l.615-.257c.051-.021.102-.043.154-.063.052-.02.105-.036.158-.053l.315-.106c.153-.051.476-.162.633-.202.428-.107.856-.21 1.287-.306.338-.075.933-.176 1.281-.205.848-.069 1.697-.22 2.547-.175 1.704.09 3.394.36 5.087.582.213.028.416.107.623.164.206.057.413.114.618.179.205.064.407.138.61.208.103.034.205.067.306.105.101.038.2.08.3.12.2.08.402.155.6.24.198.085.391.18.587.27.098.046.197.089.293.137.097.047.192.1.287.15.191.1.384.198.572.304.189.106.372.221.557.332.093.056.187.11.278.169.092.058.181.12.27.18.18.122.362.24.538.366.176.127.345.262.518.394.086.066.173.13.257.198.085.069.167.14.249.21.165.142.332.28.493.426.16.146.315.3.472.45.078.076.158.15.234.228.076.077.15.158.223.238.148.16.3.316.442.48.143.165.277.337.415.505.069.085.14.168.206.254.066.086.129.176.193.265.127.176.26.35.382.531.122.18.234.368.351.553.058.092.12.182.175.276.055.094.105.192.158.287.105.192.215.38.314.575.1.195.188.394.282.591.047.099.096.197.14.296.044.1.083.202.124.304.081.202.168.402.243.607.076.205.14.413.21.62.034.103.07.206.103.31.05.163.254.931.257.945.051.211.092.425.137.638.023.106.044.213.066.32l.032.16c.009.053.015.107.023.16.03.215.066.43.092.644.027.215.047.43.067.646.02.216.042.431.053.647.011.216.013.432.015.647.003.216.015.432 0 .647a77.626 77.626 0 0 1-.218 2.54c-.024.238-.177 1.017-.225 1.25-.061.296-.205.951-.3 1.239-.266.807-.456 1.647-.835 2.408-.753 1.513-1.652 2.95-2.546 4.384-.185.298-.884 1.089-1.216 1.447a21.996 21.996 0 0 1-1.334 1.323c-.103.094-.831.732-.95.809-1.375.898-2.66 1.974-4.163 2.634-.331.145-.837-.048-1.023-.358-.169-.28.156-.634.237-.951 0-.003.005-.003.007-.005.6-.472 1.222-.92 1.802-1.416.575-.49 1.113-1.023 1.66-1.545.167-.16.612-.652.766-.824a20.397 20.397 0 0 0 1.066-1.293c.234-.31.847-1.164.952-1.364.68-1.294 1.433-2.563 1.928-3.938.494-1.371.7-2.83 1.024-4.25.035-.154.112-.938.124-1.094.069-.892.074-.903.079-1.618 0-.18.005-.358 0-.537-.006-.178-.02-.356-.033-.533a18.009 18.009 0 0 0-.044-.533c-.017-.176-.042-.352-.063-.529l-.016-.133c-.006-.043-.015-.087-.023-.13l-.049-.262c-.033-.174-.062-.35-.101-.522-.039-.173-.086-.344-.13-.515-.022-.086-.042-.172-.067-.257-.025-.085-.054-.168-.081-.252-.054-.168-.104-.338-.163-.504-.06-.167-.13-.329-.195-.493-.033-.082-.062-.165-.097-.247-.035-.08-.076-.159-.113-.239-.075-.16-.145-.322-.225-.48-.08-.156-.171-.308-.257-.462-.043-.077-.083-.155-.128-.231-.045-.076-.095-.149-.143-.223-.095-.149-.184-.3-.284-.446-.099-.146-.207-.286-.311-.428-.052-.072-.102-.144-.156-.214-.054-.07-.113-.136-.169-.204-.112-.136-.22-.276-.337-.409-.117-.132-.24-.259-.361-.388-.06-.065-.12-.13-.182-.194-.063-.063-.128-.122-.193-.183-.128-.122-.253-.248-.385-.366-.132-.119-.271-.23-.407-.344-.068-.057-.135-.115-.205-.17-.07-.055-.142-.107-.213-.16-.142-.107-.282-.216-.428-.319-.145-.102-.296-.198-.444-.296-.074-.05-.148-.1-.223-.146-.076-.047-.154-.09-.231-.136-.154-.09-.306-.184-.462-.27-.157-.086-.318-.164-.477-.246-.08-.041-.158-.084-.238-.123-.08-.038-.164-.073-.246-.11-.163-.072-.324-.15-.49-.22-.165-.068-.334-.127-.502-.192-.083-.032-.166-.067-.25-.097-.085-.03-.171-.056-.257-.084-.17-.056-.34-.116-.512-.168-.172-.051-.346-.096-.52-.142-.174-.045-.345-.11-.524-.131-1.433-.168-2.87-.312-4.308-.434-.181-.016-.364.014-.545.022-.09.004-.181.005-.272.011-.09.006-.181.016-.272.024l-.543.048c-.046.004-.091.007-.136.012-.046.005-.09.013-.136.02l-.271.037c-.18.025-.362.044-.542.074-.469.078-1.114.244-1.528.35-.128.034-.369.12-.494.162l-.246.084c-.04.014-.082.026-.122.042-.04.015-.08.034-.12.05l-.479.2c-.04.016-.08.03-.12.049-.039.018-.077.038-.115.058l-.232.115-.233.115c-.039.019-.078.036-.116.057-.038.02-.075.044-.112.066-.15.087-.3.172-.448.261-.12.073-.32.204-.435.284-.314.217-.547.377-.843.617-.136.11-.267.227-.4.34-.067.057-.135.112-.2.17-.066.06-.129.122-.192.183-.128.122-.261.238-.383.366-.23.242-.625.672-.891.993-.112.134-.458.567-.5.636a170.31 170.31 0 0 0-2.227 3.785c-.092.162-.155.339-.23.509-.277.628-.339.803-.63 1.562-.067.175-.131.352-.197.528-.065.177-.132.353-.196.53-.065.178-.129.356-.192.535-.319.895-.637 1.827-.957 2.703-.268.735-.55 1.465-.825 2.198-.001.003 0 .007-.003.008-.342.143-.662.481-1.028.424-.269-.042-.441-.39-.482-.659z"/></g></g><g><g><g><path fill="#000072" d="M111.93 179.887c1.715 2.28 4.355 3.314 6.474 2.339 1.837-.845 2.783-2.96 2.607-5.321a8.31 8.31 0 0 0-.749-2.85c-1.535-3.337-4.855-5.086-7.416-3.908-2.56 1.175-3.39 4.835-1.856 8.17.263.572.58 1.098.94 1.57z"/></g></g><g><g><path fill="#f76397" d="M111.93 179.882c1.715 2.28 4.355 3.314 6.474 2.339 1.837-.845 2.783-2.96 2.607-5.321-1.578-.089-3.457.418-4.583 1.963.001-.001-3.096-.98-4.498 1.019z"/></g></g><g opacity=".3"><g opacity=".09"><path fill="#fff" d="M121.005 176.9c.008.123.014.248.02.37-1.566-.075-3.418.438-4.532 1.968 0 0-2.946-.934-4.393.876-.06-.076-.12-.152-.18-.231 1.404-1.999 4.501-1.02 4.501-1.02 1.125-1.544 3.006-2.052 4.584-1.963z"/></g></g><g><g><path fill="#000072" d="M116.16 177.46l.914.693s-.633.676-.637 1.876c.001 0-.925-1.246-.277-2.569z"/></g></g><g><g><path fill="#000072" d="M116.696 183.743c-.962 0-1.956-.256-2.921-.764-1.622-.856-2.982-2.34-3.83-4.182-.846-1.841-1.09-3.84-.683-5.629.431-1.899 1.534-3.342 3.103-4.063 1.57-.722 3.383-.618 5.105.29 1.622.856 2.982 2.34 3.829 4.182.847 1.841 1.09 3.84.684 5.629-.431 1.899-1.534 3.342-3.103 4.063a5.208 5.208 0 0 1-2.184.474zm-4.669-5.904c.638 1.386 1.638 2.491 2.817 3.113 1.078.569 2.172.652 3.078.234.907-.417 1.555-1.3 1.826-2.49.295-1.298.107-2.777-.53-4.163-1.268-2.757-3.912-4.259-5.895-3.347-.907.417-1.555 1.301-1.825 2.49-.296 1.298-.108 2.777.53 4.163z"/></g></g></g><g><g><g><g><g><path fill="#fff" d="M122.823 169.206c1.62 3.435-.784 6.042-4.163 6.444-3.367.399-5.382-2.6-5.812-3.676 0 0 1.035 6.387-3.777 5.578-2.079-.35-4.057-2.394-3.573-5.172 0 0-3.83-5.411 5.507-7.779 9.336-2.37 11.817 4.605 11.817 4.605z"/></g></g></g><g><g opacity=".3"><g opacity=".09"><path fill="#000072" d="M123.203 170.254c.73 2.91-1.514 5.044-4.541 5.402-3.365.398-5.384-2.6-5.813-3.677 0 0 1.038 6.387-3.778 5.577-1.675-.28-3.284-1.666-3.591-3.647.457.216.933.37 1.416.452 6.111 1.025 4.797-7.081 4.797-7.081.545 1.365 3.104 5.17 7.379 4.665 1.625-.193 3.073-.79 4.13-1.691z"/></g></g></g><g><g><g><path fill="#000072" d="M123.343 168.967a5.2 5.2 0 0 1 .803 2.205c.043.411.037.838-.035 1.26-.074.423-.21.84-.4 1.229-.38.78-.977 1.432-1.653 1.918a6.919 6.919 0 0 1-2.21 1.044 7.338 7.338 0 0 1-.882.192l-.148.023-.157.018a5.912 5.912 0 0 1-2.546-.251 6.621 6.621 0 0 1-2.184-1.236 7.5 7.5 0 0 1-.865-.856 8.06 8.06 0 0 1-.714-.97 7.309 7.309 0 0 1-.303-.532 5.432 5.432 0 0 1-.264-.607l2.175-.705.044.162.034.139a7.168 7.168 0 0 1 .14.81c.041.362.063.73.05 1.103a6.501 6.501 0 0 1-.138 1.143 5.402 5.402 0 0 1-.394 1.155 4.422 4.422 0 0 1-1.717 1.897 4.98 4.98 0 0 1-1.136.503 4.673 4.673 0 0 1-2.514.059 5.01 5.01 0 0 1-2.13-1.164 5.19 5.19 0 0 1-.782-.888 4.752 4.752 0 0 1-.819-2.153c-.085-.76.02-1.53.336-2.186a.593.593 0 0 1 1.12.168l.006.045c.083.574.209 1.08.407 1.54.196.458.451.87.757 1.225.305.356.67.648 1.066.832.395.187.81.27 1.207.243.2-.016.396-.051.59-.117.209-.072.404-.161.572-.266.337-.212.58-.482.77-.847.094-.183.169-.39.225-.614.059-.223.1-.463.122-.714a6.706 6.706 0 0 0-.023-1.357l-.01-.092-.006-.042c-.001-.01-.005-.033-.002-.026l2.176-.705c.048.09.112.209.185.323a6.4 6.4 0 0 0 .236.35c.17.23.35.458.548.667a5.623 5.623 0 0 0 1.294 1.05c.466.267.96.438 1.47.508.255.036.516.04.783.024l.1-.006.11-.011c.071-.008.143-.016.214-.028.143-.02.285-.043.425-.074a5.32 5.32 0 0 0 1.57-.59c.47-.277.874-.63 1.167-1.056.148-.212.266-.445.35-.693.088-.247.147-.513.166-.792.048-.558-.047-1.162-.227-1.771l-.004-.013a.578.578 0 0 1 .39-.717.587.587 0 0 1 .655.244z"/></g></g></g><g><g><path fill="#000072" d="M111.84 165.026c.03.575.138 1.145.271 1.707.132.562.31 1.118.495 1.669.187.55.399 1.094.621 1.63.11.269.226.535.345.8l.18.394c.06.128.123.264.182.378a1.157 1.157 0 1 1-2.16.783l-.008-.038c-.036-.167-.063-.314-.093-.468l-.08-.458c-.052-.304-.1-.608-.141-.912a29.243 29.243 0 0 1-.204-1.833 19.31 19.31 0 0 1-.065-1.846c.013-.618.055-1.237.178-1.848a.242.242 0 0 1 .48.035z"/></g></g></g></g><g><g><path fill="#000072" d="M117.829 162.627c1.013 3.774-5.213 7.169-5.213 7.169s-6.309-.606-6.986-4.064c-.386-1.968 5-3.342 5-3.342s6.678-1.7 7.199.237z"/></g></g><g opacity=".5"><g opacity=".25"><path fill="#fff" d="M113.946 163.206c.262.977-1.276 1.838-2.495 2.148-1.22.31-2.994.292-3.256-.685-.135-.502 2.741-1.233 2.741-1.233s2.876-.732 3.01-.23z"/></g></g></g><g><g><path fill="#61547a" d="M95.264 175.494c-4.895 3.153-15.014 6.933-20.495 10.979-.903.67-1.683 1.347-2.29 2.03l13.037 18.765C69.72 204.91 55.41 195.854 54.115 181.63c-.174-1.898-.112-3.89.208-5.974 2.76-17.966 25.039-26.104 37.918-21.52 12.648 4.5 11.84 15.673 3.023 21.358z"/></g></g><g opacity=".3"><g opacity=".09"><path fill="#000072" d="M85.51 207.268c-15.794-2.358-30.105-11.414-31.4-25.638 2.565 3.265 8.793 8.555 20.653 4.843-.903.67-1.683 1.346-2.29 2.03z"/></g></g><g opacity=".5"><g opacity=".25"><path fill="#fff" d="M101.816 164.774c-1.204-2.997-4.075-5.692-8.91-7.417-12.88-4.585-35.159 3.557-37.919 21.523-.37 2.4-.393 4.68-.11 6.836-.88-3.07-1.113-6.431-.555-10.06 2.76-17.966 25.039-26.104 37.918-21.52 6.532 2.327 9.477 6.43 9.576 10.638z"/></g></g><g><g><path fill="#000072" d="M71.914 187.992c.247-.358.518-.694.803-1.01.143-.159.287-.316.435-.468.148-.152.3-.298.453-.444a22.207 22.207 0 0 1 1.925-1.601c1.328-.991 2.719-1.858 4.13-2.664 1.41-.806 2.849-1.54 4.285-2.257 1.436-.718 2.87-1.425 4.294-2.124a119.904 119.904 0 0 0 4.191-2.15c.677-.371 1.34-.755 1.962-1.156.61-.396 1.195-.827 1.743-1.294 1.09-.938 2.04-2.023 2.748-3.225.706-1.2 1.174-2.512 1.305-3.842a7.671 7.671 0 0 0-.616-3.878c-.536-1.22-1.391-2.323-2.452-3.25-1.056-.937-2.312-1.698-3.65-2.319a18.396 18.396 0 0 0-1.024-.439c-.172-.072-.348-.135-.523-.2-.175-.069-.349-.126-.522-.185a19.104 19.104 0 0 0-2.135-.583c-2.913-.612-5.994-.623-9.007-.203a33.363 33.363 0 0 0-8.783 2.5c-2.794 1.23-5.42 2.84-7.71 4.818-2.289 1.975-4.236 4.328-5.637 6.967-.18.327-.339.665-.502 1-.08.17-.152.341-.228.512-.078.17-.148.343-.217.515-.068.173-.144.344-.205.52l-.191.525c-.062.176-.116.354-.174.532l-.087.265-.076.27c-.42 1.429-.674 2.907-.808 4.408-.066.748-.09 1.497-.085 2.244.006.747.058 1.491.14 2.23.082.74.212 1.473.376 2.198.165.724.363 1.44.61 2.141.963 2.813 2.567 5.399 4.581 7.641 2.02 2.243 4.438 4.15 7.06 5.737 2.627 1.588 5.459 2.86 8.389 3.857a52.242 52.242 0 0 0 9.036 2.176h.002a1.527 1.527 0 1 1-.453 3.021 55.216 55.216 0 0 1-9.569-2.305c-3.115-1.06-6.145-2.417-8.987-4.136-2.838-1.718-5.493-3.802-7.75-6.309a27.043 27.043 0 0 1-3.028-4.068 24.539 24.539 0 0 1-1.207-2.248 24.77 24.77 0 0 1-.963-2.37 22.835 22.835 0 0 1-.701-2.462 22.853 22.853 0 0 1-.43-2.522 24.903 24.903 0 0 1-.161-2.547 27.18 27.18 0 0 1 .096-2.54c.015-.21.043-.42.063-.63l.033-.316.043-.313.088-.627.108-.627c.155-.836.34-1.667.583-2.483l.087-.307.098-.304c.066-.202.128-.406.198-.606l.218-.6c.07-.202.157-.396.234-.595.079-.198.158-.394.247-.588.087-.194.172-.39.26-.582.186-.382.369-.767.573-1.14 1.594-3.006 3.795-5.653 6.338-7.846 2.546-2.197 5.428-3.96 8.479-5.302a36.444 36.444 0 0 1 9.59-2.729 32.03 32.03 0 0 1 2.495-.254 31.055 31.055 0 0 1 2.517-.067c1.682.03 3.373.187 5.046.534.837.172 1.667.39 2.488.66.205.068.412.135.608.211.2.074.399.144.597.225.396.155.79.322 1.18.5.78.356 1.547.76 2.289 1.219.742.458 1.458.977 2.13 1.564 1.348 1.163 2.521 2.623 3.284 4.326a10.847 10.847 0 0 1 .907 5.47c-.172 1.855-.8 3.622-1.707 5.173-.909 1.556-2.092 2.905-3.416 4.053a19.736 19.736 0 0 1-2.095 1.567c-.721.463-1.443.877-2.166 1.272-1.446.791-2.901 1.494-4.352 2.186-1.448.695-2.9 1.356-4.339 2.031a393.553 393.553 0 0 0-4.276 2.045 91.643 91.643 0 0 0-4.163 2.13c-.676.373-1.34.76-1.98 1.17-.16.103-.32.206-.474.313a15.095 15.095 0 0 0-1.353 1.007l-.013.012a.77.77 0 0 1-1.084-.097.77.77 0 0 1-.046-.933z"/></g></g><g><g><path fill="#fff" d="M85.671 174.857c3.208-1.404 5.027-4.325 4.064-6.524-.963-2.198-4.344-2.842-7.552-1.438-3.207 1.405-5.027 4.326-4.064 6.524.964 2.2 4.345 2.843 7.552 1.438z"/></g></g><g><g><path fill="#fff" d="M90.768 164.27c1.363-.596 2.136-1.837 1.727-2.771-.41-.934-1.846-1.208-3.209-.611-1.363.596-2.136 1.837-1.727 2.772.41.934 1.846 1.207 3.21.61z"/></g></g><g><g><path fill="#fff" d="M95.163 168.017c1.393-.61 2.183-1.878 1.765-2.832-.419-.955-1.887-1.235-3.28-.625-1.392.61-2.182 1.878-1.763 2.833.418.954 1.886 1.234 3.278.624z"/></g></g><g><g><path fill="#fff" d="M94.145 173.398c1.128-.494 1.769-1.522 1.43-2.295-.339-.773-1.528-.999-2.657-.505-1.128.494-1.768 1.522-1.43 2.295.34.773 1.529.999 2.657.505z"/></g></g><g><g><path fill="#000072" d="M64.674 269.086c.183-.063.367-.123.548-.18.176-.045.348-.085.522-.126.087-.022.171-.036.255-.05l.252-.04.25-.04c.084-.012.165-.019.247-.028l.49-.05.485-.025c.322-.022.64-.014.956-.017 1.266.012 2.5.146 3.71.359a29 29 0 0 1 3.542.869c1.151.366 2.27.807 3.358 1.29a32.173 32.173 0 0 0-3.51-.542 27.876 27.876 0 0 0-3.497-.093c-1.154.045-2.299.17-3.394.4-.272.062-.547.113-.808.19l-.395.108-.38.126c-.063.021-.127.04-.189.063l-.18.072-.178.07a1.78 1.78 0 0 0-.171.075l-.322.157c-.09.058-.18.113-.27.165l-.045.028a1.539 1.539 0 1 1-1.276-2.781z"/></g></g><g opacity=".3"><g opacity=".09"><path fill="#000072" d="M92.565 257.14s-4.885 1.95-5.139 7.78l-.688 6.378c-.56 5.183-4.68 9.27-9.87 9.767-5.003.48-11.356-.181-17.128-4.575l.412 4.708s10.955 13.465 31.794 1.129l1.902-14.906.743-1.555 5.069-1.534-5.812-7.192h-1.283z"/></g></g></g></g></g></g></svg>