<svg xmlns="http://www.w3.org/2000/svg" width="22" height="16" viewBox="0 0 22 16"><defs><linearGradient id="fhx9a" x1="22" x2="0" y1="15.74" y2=".27" gradientUnits="userSpaceOnUse"><stop offset="0" stop-color="#864ff1"/><stop offset="1" stop-color="#49b3f7"/></linearGradient></defs><g><g><path fill="url(#fhx9a)" d="M20.066.27C21.13.27 22 1.136 22 2.204v11.601c0 1.068-.87 1.934-1.934 1.934H1.934A1.936 1.936 0 0 1 0 13.805V2.204C0 1.136.87.27 1.934.27zM2.231 1.56l8.27 8.296c.252.253.746.253.998 0l8.27-8.297zm4.604 6.444L1.289 2.441v11.127zm12.934 6.446l-5.514-5.533-1.843 1.85c-.754.756-2.07.757-2.824 0l-1.843-1.85L2.23 14.45zm.942-12.01l-5.546 5.564 5.546 5.564z"/></g></g></svg>