<svg xmlns="http://www.w3.org/2000/svg" width="70" height="62" viewBox="0 0 70 62"><g><g><path fill="#49b3f7" d="M22.874 28.776c0 .266.092.525.258.732a1.025 1.025 0 1 1-1.597 1.286 3.228 3.228 0 0 1-.712-2.018v-2.28a9.742 9.742 0 0 1-6.717 0v2.28c0 1.29-.776 2.444-1.935 2.948l4.171 2.384a2.272 2.272 0 0 0 2.245 0l1.468-.839a1.025 1.025 0 1 1 1.018 1.78l-1.468.84c-.66.376-1.4.565-2.14.565-.74 0-1.48-.189-2.14-.566l-5.908-3.376-4.891 1.334a3.366 3.366 0 0 0-2.475 3.24v4.324c0 .643.523 1.166 1.166 1.166h3.359v-3.358a1.025 1.025 0 1 1 2.05 0v19.727a1.025 1.025 0 1 1-2.05 0V44.627H3.172l-.025-.002v12.128a1.025 1.025 0 1 1-2.051 0V43.826A3.21 3.21 0 0 1 0 41.41v-4.323a5.421 5.421 0 0 1 3.986-5.22l7.21-1.965c.506-.138.86-.601.86-1.126v-3.32a9.802 9.802 0 0 1-4.331-7.132h-.124a3.213 3.213 0 0 1-2.451-1.133 3.229 3.229 0 0 1-.723-2.617 3.117 3.117 0 0 1 1.053-1.848V8.53c0-3.514 2.8-6.386 6.287-6.501a3.218 3.218 0 0 1 2.41-1.1h7.672c4.191 0 7.6 3.41 7.6 7.601v4.195a3.119 3.119 0 0 1 1.053 1.848 3.23 3.23 0 0 1-.722 2.617 3.213 3.213 0 0 1-2.452 1.133h-.123a9.802 9.802 0 0 1-4.331 7.132zm-10.889-24.7a4.46 4.46 0 0 0-4.454 4.455v3.367l.044-.003c.047-.003.095-.006.143-.006h.98c.642 0 1.166-.523 1.166-1.166a2.875 2.875 0 0 1 3.35-2.844L24.21 9.711c.495.083.857.51.857 1.012 0 .643.523 1.166 1.167 1.166h.978c.049 0 .097.003.144.006l.044.003V8.53c0-3.06-2.49-5.55-5.55-5.55h-7.672c-.413 0-.788.219-1.002.586-.183.316-.52.51-.886.51zM8.697 16.274c.566 0 1.025.46 1.025 1.026 0 4.269 3.474 7.742 7.743 7.742s7.742-3.473 7.742-7.742c0-.567.46-1.026 1.025-1.026h1.096a1.166 1.166 0 0 0 1.15-1.37c-.088-.54-.644-.963-1.267-.963h-.978a3.223 3.223 0 0 1-3.093-2.327L12.877 9.902a.818.818 0 0 0-.67.185.816.816 0 0 0-.293.63 3.222 3.222 0 0 1-3.217 3.223h-.979c-.622 0-1.179.423-1.267.963a1.167 1.167 0 0 0 1.15 1.37zm6.505-.07a1.025 1.025 0 1 1-2.05 0v-1.096a1.025 1.025 0 0 1 2.05 0zm6.576-1.096v1.096a1.025 1.025 0 0 1-2.05 0v-1.096a1.025 1.025 0 1 1 2.05 0zm-5.647 4.365a2.77 2.77 0 0 0 2.667 0 1.026 1.026 0 0 1 .96 1.813 4.86 4.86 0 0 1-2.293.582 4.86 4.86 0 0 1-2.293-.582 1.025 1.025 0 1 1 .96-1.813zm49.883 16.78A5.421 5.421 0 0 1 70 41.47v4.324a3.21 3.21 0 0 1-1.096 2.416v8.543a1.025 1.025 0 1 1-2.05 0V49.01l-.026.001h-.024l-.022.001h-3.358v9.934a1.025 1.025 0 1 1-2.05 0V44.698a1.025 1.025 0 0 1 2.05 0v2.262h3.358c.644 0 1.167-.523 1.167-1.166V41.47a3.365 3.365 0 0 0-2.475-3.24l-2.716-.74c-1.557 4.24-5.65 7.137-10.223 7.137-.816 0-1.63-.09-2.42-.27a1.026 1.026 0 0 1 .455-2c.64.146 1.301.22 1.965.22 3.653 0 6.928-2.277 8.236-5.63l-2.507-.683a3.224 3.224 0 0 1-2.37-3.104v-1.184a9.745 9.745 0 0 1-3.359.596c-5.053 0-9.225-3.848-9.74-8.768h-.124c-.404 0-.799-.076-1.166-.219v1.386a1.025 1.025 0 1 1-2.05 0v-7.672c0-7.213 5.867-13.08 13.08-13.08s13.08 5.867 13.08 13.08v9.863c0 1.884.38 3.375.7 4.295a2.114 2.114 0 0 1-1.018 2.563c-.917.472-1.88.888-2.88 1.25zm-24.509-18.63a3.423 3.423 0 0 1 1.284-.253h.979c.643 0 1.166-.523 1.166-1.166a2.875 2.875 0 0 1 3.35-2.844l10.995 1.832c.495.083.857.51.857 1.012 0 .643.523 1.166 1.167 1.166h.978c.452 0 .886.092 1.284.253v-.323c0-6.082-4.948-11.03-11.03-11.03-6.082 0-11.03 4.948-11.03 11.03zm11.03 12.899c4.27 0 7.742-3.473 7.742-7.742 0-.567.46-1.026 1.026-1.026h1.096a1.165 1.165 0 0 0 1.15-1.37c-.088-.54-.645-.963-1.268-.963h-.978a3.223 3.223 0 0 1-3.093-2.328l-10.263-1.71a.816.816 0 0 0-.67.185.816.816 0 0 0-.292.63 3.222 3.222 0 0 1-3.218 3.223h-.978c-.623 0-1.18.423-1.267.963a1.166 1.166 0 0 0 1.15 1.37h1.095c.567 0 1.026.46 1.026 1.026 0 4.269 3.473 7.742 7.742 7.742zm9.74-6.717a9.8 9.8 0 0 1-4.33 7.132v2.224c0 .472.287.894.713 1.074 2.046-.46 3.963-1.143 5.701-2.038.016-.008.028-.04.018-.068a15.287 15.287 0 0 1-.812-4.966v-3.577c-.367.143-.762.219-1.166.219zm-12.002-2.121a1.025 1.025 0 1 1-2.05 0v-1.096a1.025 1.025 0 0 1 2.05 0zm6.576-1.096v1.096a1.025 1.025 0 0 1-2.051 0v-1.096a1.025 1.025 0 1 1 2.05 0zm-5.647 4.365a2.77 2.77 0 0 0 2.667 0 1.025 1.025 0 0 1 .959 1.812c-.73.386-1.501.582-2.293.582a4.862 4.862 0 0 1-2.292-.582 1.025 1.025 0 0 1 .959-1.812zM35 27.233c6.609 0 11.985 5.377 11.985 11.985v6.575a3.221 3.221 0 0 1-3.217 3.218h-2.082a8.95 8.95 0 0 1-2.373 2.084v1.726c0 .519.334.968.832 1.117l3.766 1.13a4.287 4.287 0 0 1 3.074 4.131v.842a1.025 1.025 0 0 1-2.05 0V59.2a2.249 2.249 0 0 0-1.613-2.167l-1.89-.567A9.733 9.733 0 0 1 35 58.875a9.74 9.74 0 0 1-6.433-2.41l-1.889.568a2.248 2.248 0 0 0-1.612 2.167v.841a1.025 1.025 0 0 1-2.05 0V59.2c0-1.92 1.234-3.58 3.073-4.132l3.766-1.13a1.16 1.16 0 0 0 .832-1.117v-1.664a8.757 8.757 0 0 1-1.743-1.313 8.617 8.617 0 0 1-2.582-5.217h-.13a3.214 3.214 0 0 1-3.215-3.19v-.006l-.001-.006V39.218c0-6.608 5.376-11.985 11.984-11.985zm2.263 25.588v-.836a8.209 8.209 0 0 1-2.266.314 8.736 8.736 0 0 1-2.26-.297v.82c0 1.239-.69 2.332-1.766 2.87A7.702 7.702 0 0 0 35 56.825a7.7 7.7 0 0 0 4.03-1.131 3.193 3.193 0 0 1-1.767-2.872zm4.383-9.54a4.603 4.603 0 0 0-3.15-4.374l-7.858-2.619a.063.063 0 0 0-.063.01c-.03.02-.03.045-.03.057v.671a3.22 3.22 0 0 1-3.217 3.217h-.978c-.623 0-1.18.423-1.268.964a1.166 1.166 0 0 0 1.15 1.37h1.096c.566 0 1.026.459 1.026 1.025 0 1.813.716 3.507 2.018 4.77a6.597 6.597 0 0 0 4.833 1.873c3.552-.107 6.441-3.23 6.441-6.965zm3.288-4.063c0-5.478-4.456-9.934-9.934-9.934-5.213 0-9.497 4.036-9.9 9.147a3.42 3.42 0 0 1 1.25-.238h.978c.644 0 1.167-.524 1.167-1.167v-.671c0-.68.329-1.324.88-1.721a2.127 2.127 0 0 1 1.912-.292l7.857 2.62a6.65 6.65 0 0 1 4.553 6.316 9.164 9.164 0 0 1-.773 3.682h.844c.643 0 1.166-.523 1.166-1.166zm-13.211 1.167a1.025 1.025 0 0 1 0 2.05 1.03 1.03 0 0 1-1.031-1.025 1.02 1.02 0 0 1 1.02-1.025zm6.576 0a1.025 1.025 0 1 1 0 2.05 1.03 1.03 0 0 1-1.03-1.025 1.02 1.02 0 0 1 1.019-1.025zm-3.3 5.479c.55 0 1.084-.21 1.506-.59a1.025 1.025 0 0 1 1.373 1.524A4.299 4.299 0 0 1 35 47.915a4.3 4.3 0 0 1-2.878-1.117 1.025 1.025 0 0 1 1.372-1.524c.422.38.957.59 1.506.59z"/></g></g></svg>