<svg xmlns="http://www.w3.org/2000/svg" width="68" height="70" viewBox="0 0 68 70"><g><g><path fill="#49b3f7" d="M60.923 36.565a21.435 21.435 0 0 1-17.433 6.15C47.164 56.556 36.653 70 22.508 70a21.687 21.687 0 0 1-11.98-3.602 1.025 1.025 0 1 1 1.133-1.71 19.564 19.564 0 0 0 3.85 1.979l-1.294-3.978a2.98 2.98 0 0 0-2.839-2.063H7.2c.294.363.6.718.922 1.062a1.025 1.025 0 1 1-1.5 1.398A21.643 21.643 0 0 1 .8 48.293c0-12.87 11.242-23.068 24.227-21.562-1.928-7.53.408-15.257 5.606-20.456C37.207-.293 47.387-1.94 55.74 2.455a1.025 1.025 0 0 1-.955 1.815 19.404 19.404 0 0 0-9.922-2.195c-.067 4.247-1.846 8.523-4.992 11.988l5.907 5.907 12.95-12.95v-.001a1.025 1.025 0 1 1 1.371-1.525c9.14 8.224 9.485 22.402.824 31.07zM32.834 7.026l5.583 5.584c2.672-2.988 4.257-6.724 4.388-10.329a19.312 19.312 0 0 0-9.97 4.745zm-1.45 1.45a19.31 19.31 0 0 0-4.745 9.969c3.607-.13 7.342-1.714 10.328-4.385zm0 25.888L44.328 21.42l-5.907-5.907c-3.464 3.145-7.74 4.923-11.988 4.99a19.288 19.288 0 0 0 4.951 13.86zm4.124 8.626c-.149-1.372.307-2.304.373-2.58a21.575 21.575 0 0 1-8.638-8.268l-1.775 1.29a5.034 5.034 0 0 1-1.935.855v5.166a5.034 5.034 0 0 1 1.935.855l3.877 2.817c.546.397.994.886 1.332 1.435zm-6.283 5.132a2.978 2.978 0 0 0-1.085-3.338l-3.878-2.817a2.99 2.99 0 0 0-3.51 0l-3.877 2.817a2.978 2.978 0 0 0-1.084 3.338l1.481 4.558a2.978 2.978 0 0 0 2.84 2.063h4.792a2.978 2.978 0 0 0 2.84-2.063zM17.373 29.317l3.38 2.456a2.98 2.98 0 0 0 3.51 0l2.026-1.473c-.21-.46-.404-.927-.582-1.403a19.679 19.679 0 0 0-8.334.42zm-9.865 6.286c.315.62.287.744 1.781 5.282.226.696.294 1.412.219 2.105l4.83 1.57a5.042 5.042 0 0 1 1.332-1.435l3.878-2.817a5.033 5.033 0 0 1 1.934-.856v-5.165a5.032 5.032 0 0 1-1.934-.855c-3.913-2.868-3.987-2.84-4.48-3.333a19.75 19.75 0 0 0-7.56 5.504zm-1.457 1.952a19.533 19.533 0 0 0-3.176 9.756l3.38-2.455a2.981 2.981 0 0 0 1.084-3.337zM16.316 55.07a5.042 5.042 0 0 1-.994-1.756l-1.481-4.559a5.032 5.032 0 0 1-.198-2.265l-4.77-1.55a5.04 5.04 0 0 1-1.413 1.575c-3.92 2.825-3.933 2.916-4.555 3.232a19.564 19.564 0 0 0 2.886 8.891c.687-.11.73-.043 5.587-.063.732 0 1.434.157 2.07.443zm12.532 6.985a5.039 5.039 0 0 1 1.06-1.831l-2.843-3.915a5.036 5.036 0 0 1-2.16.485H20.11c-.766 0-1.5-.173-2.16-.485l-2.844 3.915a5.039 5.039 0 0 1 1.06 1.831c1.478 4.61 1.559 4.644 1.667 5.332a19.717 19.717 0 0 0 9.348 0c.107-.685.187-.718 1.666-5.332zm.66 4.605a19.748 19.748 0 0 0 8.294-6.034h-4.164c-1.301 0-2.44.835-2.84 2.063zM42.11 49.747c-.622-.316-.606-.387-4.555-3.232a5.036 5.036 0 0 1-1.414-1.575l-4.769 1.55a5.038 5.038 0 0 1-.198 2.265l-1.481 4.559a5.04 5.04 0 0 1-.994 1.756l2.868 3.948a5.04 5.04 0 0 1 2.07-.443c4.848.02 4.896-.046 5.578.062a19.525 19.525 0 0 0 2.895-8.89zm.029-2.436a19.575 19.575 0 0 0-.89-4.956 21.232 21.232 0 0 1-3.495-1.077l-.078.24a2.984 2.984 0 0 0 1.084 3.338zm9.544-18.534l-5.906-5.907-12.944 12.944a19.289 19.289 0 0 0 13.861 4.951c.066-4.248 1.845-8.524 4.99-11.988zm7.037 7.037l-5.583-5.583c-2.67 2.986-4.254 6.723-4.385 10.328a19.31 19.31 0 0 0 9.968-4.745zm1.45-1.45a19.31 19.31 0 0 0 4.746-9.97c-3.605.13-7.341 1.715-10.329 4.386zm.007-25.894l-12.95 12.95 5.907 5.907c3.465-3.146 7.742-4.925 11.988-4.992A19.396 19.396 0 0 0 60.178 8.47z"/></g></g></svg>