<svg xmlns="http://www.w3.org/2000/svg" width="70" height="68" viewBox="0 0 70 68"><g><g><path fill="#49b3f7" d="M69.394 18.36l-5.038 2.747-2.79 5.117-.006.01-.008.013c-.286.495-.92.663-1.414.377-.05-.072-2.14-2.141-2.14-2.141a1.035 1.035 0 0 1-.25-1.056l1.02-3.376-4.239-3.996-1.827 3.297a25.148 25.148 0 0 1 .553 29.953c-8.066 11.307-23.77 13.935-35.077 5.87-11.307-8.066-13.935-23.77-5.87-35.078 8.066-11.307 23.77-13.935 35.078-5.869l1.156-3.818-4.032-3.825a4.111 4.111 0 0 1-.578-.714 37.915 37.915 0 0 0-1.649-.585 1.072 1.072 0 0 1 .657-2.04l.435.15c.044-.29.12-.572.228-.843a4.21 4.21 0 0 1 2.291-2.29h.064a3.461 3.461 0 0 1 3.94.934l3.825 4.06L65.09 1.819c.363-.114.76-.021 1.035.243l2.519 2.519a1.042 1.042 0 0 1-.307 1.677l-8.97 4.995 3.996 4.239 3.411-1.035a1.034 1.034 0 0 1 1.035.257l1.89 1.97a1.042 1.042 0 0 1-.307 1.677zM9.949 33.346c1.845.014 3.62 1.593 5.755 3.494l.011.01.02.018c2.974 2.66 6.8 6.083 12.169 5.855a8.87 8.87 0 0 0 3.368-.578l.05-.016a.12.12 0 0 1-.021-.02c-.471-.578-1.677-1.342-3.897-2.326-4.439-1.963-5.245-4.21-4.146-6.694.928-2.091 3.383-4.182 6.016-6.423a50.096 50.096 0 0 0 5.138-4.738c2.712-3.069 3.904-6.473-.143-10.205a23.86 23.86 0 0 0-1.427-.043 22.916 22.916 0 0 0-16.22 6.708 22.916 22.916 0 0 0-6.673 14.958zm45.915 1.299c0-.957-.06-1.913-.179-2.862-2.947 1.62-3.083 2.733-3.261 4.224-.286 2.363-.657 5.431-7.243 10.926a17.691 17.691 0 0 0-4.282 4.71 7.487 7.487 0 0 0-.878 4.86 23.007 23.007 0 0 0 15.85-21.859zM51.624 21.3l-2.076 3.753-.007.013-.006.01c-.287.495-.92.664-1.414.377-.086-.05-2.748-2.69-2.748-2.69a1.042 1.042 0 0 1-.25-1.057l1.642-5.416a22.835 22.835 0 0 0-9.277-4.217c3.033 4.053 1.498 7.757-1.485 11.154a51.958 51.958 0 0 1-5.359 4.995c-.226.199-.452.395-.675.59-2.178 1.901-4.13 3.604-4.777 5.119-.592 1.327.064 2.626 3.083 3.96 2.526 1.128 3.996 2.099 4.667 2.92.473.495.666 1.194.514 1.862a2.141 2.141 0 0 1-1.185 1.341 10.703 10.703 0 0 1-4.282.814c-6.23.221-10.411-3.504-13.68-6.423l-.205-.182c-1.712-1.524-3.114-2.772-4.205-2.772.051 1.451.24 2.895.564 4.31 2.83 12.38 15.16 20.121 27.539 17.291a9.464 9.464 0 0 1 1.07-6.372 19.52 19.52 0 0 1 4.781-5.303c5.948-4.964 6.266-7.575 6.508-9.573v-.003c.272-2.22.472-3.847 4.96-6.13a22.756 22.756 0 0 0-.785-2.748c-.706-2-1.686-3.892-2.911-5.623zm15.693-4.125l-.535-.535-3.432 1.035a1.035 1.035 0 0 1-1.057-.279s-5.459-5.809-5.502-5.887l-.013-.024a1.034 1.034 0 0 1 .413-1.403L66.254 5.1l-1.106-1.106L53.73 7.441a1.035 1.035 0 0 1-1.056-.285L48.392 2.63a1.485 1.485 0 0 0-1.67-.428h-.036a2.24 2.24 0 0 0-1.163 1.156 1.484 1.484 0 0 0 .407 1.713l4.482 4.217c.326.266.459.704.335 1.107l-3.454 11.382 1.106 1.106s5.067-9.127 5.138-9.206l.028-.03a1.035 1.035 0 0 1 1.464-.013l5.63 5.303c.324.265.456.698.336 1.099l-1.035 3.418.52.57 1.778-3.21.456-.928c.1-.208.265-.376.471-.478l.921-.457zM34.833 1.739c.999.057 2.005.164 2.99.314a1.073 1.073 0 0 1-.157 2.141h-.164a36.042 36.042 0 0 0-2.798-.314 1.072 1.072 0 1 1 .129-2.14zm-5.238.136a1.075 1.075 0 1 1 .207 2.14 30.76 30.76 0 0 0-2.783.407h-.207l.007.029a1.075 1.075 0 1 1-.2-2.14 32.499 32.499 0 0 1 2.976-.436zM3.498 19.823a1.07 1.07 0 0 1 1.912.963 25.741 25.741 0 0 0-1.149 2.562l-.002.005a1.07 1.07 0 0 1-1.39.602 1.07 1.07 0 0 1-.599-1.385c.364-.935.778-1.855 1.228-2.747zm-.693 8.228c-.2.906-.356 1.84-.47 2.769a1.07 1.07 0 0 1-1.064.941h-.135a1.07 1.07 0 0 1-.907-1.198c.122-.992.286-1.984.5-2.962a1.07 1.07 0 1 1 2.076.45zM13.43 59.934a1.07 1.07 0 0 1-1.511.08 27.295 27.295 0 0 1-2.227-2.02 1.07 1.07 0 0 1 0-1.512 1.07 1.07 0 0 1 1.506 0 30.656 30.656 0 0 0 2.153 1.94 1.07 1.07 0 0 1 .08 1.512zM6.48 50.41c.479.799 1 1.584 1.55 2.34a1.07 1.07 0 0 1-1.728 1.263 32.397 32.397 0 0 1-1.663-2.505l-.001-.002a1.07 1.07 0 0 1 .372-1.468l.003-.001a1.07 1.07 0 0 1 1.468.373zm-2.783-3.005a1.08 1.08 0 0 1-1.406-.6 35.53 35.53 0 0 1-.984-2.854 1.07 1.07 0 0 1 .743-1.336 1.07 1.07 0 0 1 1.326.73c.264.899.578 1.791.92 2.655a1.08 1.08 0 0 1-.599 1.405zM2.37 38.551a1.07 1.07 0 0 1-.928 1.196h-.164a1.07 1.07 0 0 1-1.035-.92c-.128-.992-.242-1.999-.242-2.998a1.071 1.071 0 1 1 2.14-.078c.036.928.115 1.87.229 2.797zm7.308-24.16c-.614.7-1.2 1.442-1.749 2.199a1.07 1.07 0 0 1-.87.442v-.014a1.07 1.07 0 0 1-.864-1.698 31.479 31.479 0 0 1 1.87-2.355 1.077 1.077 0 0 1 1.613 1.427zm5.758-5.123a28.828 28.828 0 0 0-2.24 1.698 1.072 1.072 0 1 1-1.37-1.648 34.606 34.606 0 0 1 2.397-1.813 1.07 1.07 0 0 1 1.214 1.763zm3.813-2.363h.005-.021.007a1.07 1.07 0 0 1-.443-2.04c.9-.45 1.834-.82 2.77-1.163a1.072 1.072 0 0 1 1.462.697 1.07 1.07 0 0 1-.75 1.315c-.877.321-1.748.685-2.59 1.085a1.07 1.07 0 0 1-.442.106zm15.584 58.411a1.073 1.073 0 1 1 .136 2.141c-.671.064-1.385.064-2.099.064h-.906a1.07 1.07 0 1 1 .057-2.14c.935.028 1.877.007 2.812-.065zm29.93-22.493a35.42 35.42 0 0 1-.878 2.854l-.001.003a1.07 1.07 0 0 1-1.37.647 1.07 1.07 0 0 1-.649-1.35c.314-.877.592-1.776.82-2.682a1.071 1.071 0 0 1 2.078.528zm-.03-16.5c.25.964.457 1.956.621 2.94a1.07 1.07 0 0 1-.884 1.228h-.179a1.07 1.07 0 0 1-1.042-.877c-.157-.921-.35-1.849-.585-2.748a1.07 1.07 0 0 1 2.07-.542zm-3.432 22.694a1.07 1.07 0 0 1 .428 1.492 36.131 36.131 0 0 1-1.57 2.562 1.073 1.073 0 0 1-1.755-1.235c.528-.77 1.02-1.577 1.47-2.398a1.07 1.07 0 0 1 1.427-.42zm4.503-14.537v.143c0 1-.043 2.005-.135 2.997a1.07 1.07 0 0 1-1.078.992h-.101a1.07 1.07 0 0 1-.97-1.163 30.9 30.9 0 0 0 .13-2.811v-.122l-.001-.015v-.028a1.07 1.07 0 0 1 1.085-1.056 1.07 1.07 0 0 1 1.07 1.064zM24.407 64.218c.892.271 1.812.471 2.74.628a1.075 1.075 0 0 1-.2 2.141h-.2a43.69 43.69 0 0 1-3.05-.749 1.07 1.07 0 1 1 .71-2.02zm18.668 1.677c-.949.307-1.927.578-2.897.8a1.072 1.072 0 0 1-.471-2.091c.906-.171 1.82-.421 2.705-.714v-.028a1.07 1.07 0 0 1 .663 2.033zm-25.761-4.717a51.5 51.5 0 0 0 2.49 1.335 1.073 1.073 0 1 1-.913 1.94c-.907-.449-1.799-.92-2.662-1.427a1.071 1.071 0 1 1 1.085-1.848zm39.556-4.039c-.671.728-1.428 1.435-2.141 2.098a1.072 1.072 0 0 1-1.428-1.598c.693-.621 1.37-1.25 2.013-1.963h-.007a1.07 1.07 0 0 1 1.563 1.463zm-7.443 3.458a1.07 1.07 0 0 1 1.099 1.837 33.695 33.695 0 0 1-2.605 1.5 1.07 1.07 0 0 1-.978-1.906 45.372 45.372 0 0 0 2.434-1.428v.029a.973.973 0 0 1 .05-.032z"/></g></g></svg>