<svg xmlns="http://www.w3.org/2000/svg" width="71" height="70" viewBox="0 0 71 70"><g><g><path fill="#49b3f7" d="M36.277 2.373a1.186 1.186 0 0 1-2.373 0V1.186a1.186 1.186 0 0 1 2.373 0zm26.315 32.425c1.137 0 2.115.809 2.329 1.926l5.194 26.666a3.56 3.56 0 0 1-3.501 4.237H41.842C40.832 69.266 37.875 70 35.09 70c-2.814 0-5.8-.752-6.781-2.373H3.567A3.56 3.56 0 0 1 .065 63.39l5.196-26.673a2.373 2.373 0 0 1 2.328-1.921h2.296l.169-1.014a2.387 2.387 0 0 1 1.998-1.964c.183-.027.372-.052.563-.077l.386-.051a9.548 9.548 0 0 1 1.138-8.187 4.822 4.822 0 0 1-.119-1.012 4.883 4.883 0 0 1 2.991-4.499 5.91 5.91 0 0 1 7.553-5.31 8.237 8.237 0 0 1 6.476-3.19 8.144 8.144 0 0 1 4.43 1.316 4.827 4.827 0 0 1 7.383.919c.049-.002.096-.006.143-.01.063-.004.126-.01.194-.01a10.095 10.095 0 0 1 9.863 8.242 4.855 4.855 0 0 1 3.518 6.494 7.237 7.237 0 0 1 .901 5.29l.26.034c.14.017.279.035.418.057a2.385 2.385 0 0 1 1.982 1.966l.169 1.01zm-44.984-10.16v-.005a1.186 1.186 0 0 1-1.224 2.032 4.787 4.787 0 0 1-.883-.703 7.25 7.25 0 0 0 8.203 9.929 7.455 7.455 0 0 1-.108-1.186 4.129 4.129 0 0 1-3.684-4.095 1.198 1.198 0 0 1 1.187-1.2 1.173 1.173 0 0 1 1.186 1.17v.03a1.78 1.78 0 0 0 1.686 1.749 7.412 7.412 0 0 1 .679-1.527 1.19 1.19 0 0 1 2.041 1.223 5.08 5.08 0 0 0 8.194 5.94 1.186 1.186 0 0 1 1.33-.33 8.804 8.804 0 0 0 3.932.593 8.987 8.987 0 0 0 2.048-.376 1.187 1.187 0 0 1 .697 2.268c-.595.176-1.203.303-1.819.38.42.835 1.41 1.603 3.974 2.462a7.573 7.573 0 0 1 3.473 2.307c.366.457.986.623 1.531.412a1.28 1.28 0 0 0 .779-1.177c0-.13-.021-.26-.062-.383-.223-.708-.52-1.39-.885-2.037a9.754 9.754 0 0 1-2.105.614 1.187 1.187 0 0 1-.375-2.343 7.562 7.562 0 0 0 4.886-2.996 7.309 7.309 0 0 1-5.48-.506c-.5-.26-.967-.578-1.39-.95a4.07 4.07 0 0 1-1.49.294 4.114 4.114 0 0 1-3.697-2.288 1.187 1.187 0 1 1 2.123-1.062 1.79 1.79 0 0 0 2.577.658c.718-.5.962-1.453.572-2.237a1.187 1.187 0 1 1 2.12-1.068 4.041 4.041 0 0 1-.313 4.177c.182.133.374.253.574.358a5.124 5.124 0 0 0 6.05-1.11l.03-.03a5.067 5.067 0 0 0 1.003-5.06 4.868 4.868 0 0 1-.886.554 1.17 1.17 0 0 1-.503.112 1.186 1.186 0 0 1-.506-2.254 2.53 2.53 0 0 0 1.124-1.04 2.501 2.501 0 0 0-3.669-3.235 1.187 1.187 0 0 1-1.424-1.898 4.816 4.816 0 0 1 1.536-.765 7.701 7.701 0 0 0-7.026-5.94c.002.041.007.08.013.12.007.05.014.1.014.15a1.186 1.186 0 1 1-2.373 0 2.496 2.496 0 0 0-4.991 0 1.186 1.186 0 1 1-2.373 0c.007-.53.1-1.056.279-1.556a5.762 5.762 0 0 0-3.143-.949 5.858 5.858 0 0 0-5.005 2.856c-.273.464-.48.964-.615 1.486a1.186 1.186 0 0 1-2.297-.594c.07-.251.153-.5.249-.742a3.703 3.703 0 0 0-.432-.048 3.607 3.607 0 0 0-3.518 2.856 4.794 4.794 0 0 1 3.365 1.898 1.187 1.187 0 0 1-1.906 1.414 2.46 2.46 0 0 0-1.992-1.006 2.506 2.506 0 0 0-1.28 4.654zm-3.873 9.347a79.38 79.38 0 0 0-1.347.183L8.106 59.932a40.733 40.733 0 0 1 25.798.01V45.084a1.186 1.186 0 0 1 2.373 0v14.852a40.726 40.726 0 0 1 25.798 0l-4.283-25.763c-.312-.052-.622-.09-.933-.13a77.86 77.86 0 0 1-.262-.032 7.43 7.43 0 0 1-.683.956 10.002 10.002 0 0 1-3.943 6.03c.43.767.782 1.576 1.049 2.414.12.362.181.74.18 1.122a3.653 3.653 0 0 1-2.217 3.359c-.446.19-.925.287-1.409.287a3.779 3.779 0 0 1-2.866-1.347 5.258 5.258 0 0 0-2.416-1.59c-3.48-1.167-5.136-2.484-5.709-4.657a11.39 11.39 0 0 1-2.476-.449 7.432 7.432 0 0 1-11.641-1.973 9.58 9.58 0 0 1-10.405-4.221zM2.393 63.845a1.194 1.194 0 0 0 1.173 1.41H28.07l.354-4.302a39.692 39.692 0 0 0-19.597 1.244 2.381 2.381 0 0 1-3.062-2.65L9.487 37.17H7.589zm27.959 2.561c.24.376 1.88 1.221 4.738 1.221 2.858 0 4.498-.845 4.739-1.222l-.408-4.93c-1.305.327-2.581.757-3.817 1.288a1.18 1.18 0 0 1-1.026 0 25.362 25.362 0 0 0-3.818-1.28zm36.262-1.152a1.195 1.195 0 0 0 1.177-1.41l-5.197-26.672h-1.898l3.72 22.37a2.38 2.38 0 0 1-3.052 2.657 39.703 39.703 0 0 0-19.605-1.254l.356 4.31zM31.074 28.59a1.187 1.187 0 0 1 1.76-1.591 4.843 4.843 0 0 0 6.245.712 4.73 4.73 0 0 0 1.965-3.013 1.186 1.186 0 1 1 2.33.446 7.16 7.16 0 0 1-5.857 5.695 5.884 5.884 0 0 1-5.528 3.805 1.186 1.186 0 0 1 0-2.373 3.534 3.534 0 0 0 2.888-1.489 7.155 7.155 0 0 1-3.803-2.192zm-4.89-3.31a1.187 1.187 0 0 1-.348-.84 5.463 5.463 0 0 1 5.458-5.457 1.186 1.186 0 1 1 0 2.373 3.085 3.085 0 0 0-3.085 3.085 1.186 1.186 0 0 1-2.025.839zM54.56 8.514a1.186 1.186 0 1 1 1.677 1.678l-1.186 1.186A1.186 1.186 0 1 1 53.373 9.7zm-37.496 2.48a1.186 1.186 0 0 1-1.934.384l-1.187-1.187a1.186 1.186 0 1 1 1.678-1.677L16.807 9.7c.34.34.441.85.257 1.293zM24.005 6l-1.362-3.289a1.186 1.186 0 1 1 2.192-.909l1.363 3.29A1.186 1.186 0 1 1 24.005 6zm21.34-4.198a1.186 1.186 0 1 1 2.192.91l-1.362 3.29a1.186 1.186 0 1 1-2.192-.91zm12.693 18.102a1.186 1.186 0 0 1 .712-1.329l3.29-1.362a1.187 1.187 0 0 1 .907 2.193l-3.288 1.362a1.187 1.187 0 0 1-1.621-.864zm-45.966.222c-.25.605-.945.893-1.55.642l-3.288-1.362a1.186 1.186 0 1 1 .907-2.193l3.29 1.362c.605.251.892.945.641 1.55z"/></g></g></svg>