<svg xmlns="http://www.w3.org/2000/svg" width="68" height="70" viewBox="0 0 68 70"><g><g><path fill="#49b3f7" d="M28.472 12.328c.002.083.003.166.003.25 0 3.604-3.06 8.384-5.956 12.103.015.076.023.155.023.235 0 1.364.368 2.634 1.116 3.88.332.57.154 1.293-.416 1.637a1.189 1.189 0 0 1-1.625-.415c-.54-.907-.93-1.844-1.169-2.807a67.138 67.138 0 0 1-2.994 3.286 1.187 1.187 0 0 1-1.687 0c-.288-.291-4.716-4.799-7.87-9.764-3.62 5.044-5.524 10.966-5.524 17.234 0 16.355 13.306 29.661 29.66 29.661 15.51 0 28.276-11.962 29.556-27.144a56.291 56.291 0 0 1-2.581 3.035 1.188 1.188 0 0 1-1.744 0c-.882-.957-8.62-9.498-8.62-15.043 0-.178.004-.355.012-.531.18-4.11 2.435-7.617 5.608-9.218.079-.04.158-.078.237-.116-5.65-6.569-13.747-10.305-22.467-10.305-1.38 0-2.775.1-4.166.297a13.2 13.2 0 0 1 .604 3.725zm3.563-6.395c9.773 0 18.822 4.344 24.943 11.944.38-.052.766-.08 1.158-.08 5.233 0 9.491 4.79 9.491 10.679 0 2.588-1.686 5.83-3.574 8.648.01.28.016.562.016.843-.001 17.664-14.371 32.034-32.035 32.034C14.37 70.001 0 55.631 0 37.967a32.125 32.125 0 0 1 6.595-19.46c-1.104-2.084-1.85-4.15-1.85-5.93C4.746 5.641 10.069 0 16.61 0c4.406 0 8.258 2.558 10.304 6.347a32.227 32.227 0 0 1 5.121-.414zm-6.927 2.1c-1.558-3.352-4.782-5.659-8.498-5.659-5.233 0-9.491 4.576-9.491 10.204 0 1.498.74 3.376 1.842 5.337.03.04.057.081.082.125 2.277 4.01 5.934 8.138 7.573 9.904 3.27-3.492 9.486-11.026 9.486-15.367a10.758 10.758 0 0 0-.947-4.42 1.172 1.172 0 0 1-.047-.124zm40.146 20.443c0-4.579-3.194-8.305-7.118-8.305a6.145 6.145 0 0 0-1.381.158c-3.324.766-5.737 4.191-5.737 8.147 0 3.476 4.538 9.46 7.114 12.447.902-1.053 2.372-2.842 3.74-4.844l.032-.042c1.801-2.646 3.35-5.532 3.35-7.561zM16.61 5.933a5.939 5.939 0 0 1 5.932 5.932 5.939 5.939 0 0 1-5.932 5.933 5.939 5.939 0 0 1-5.932-5.933 5.939 5.939 0 0 1 5.932-5.932zm0 9.492a3.564 3.564 0 0 0 3.56-3.56 3.564 3.564 0 0 0-3.56-3.559 3.564 3.564 0 0 0-3.559 3.56 3.564 3.564 0 0 0 3.56 3.559zm41.526 16.61a4.75 4.75 0 0 1-4.746-4.746 4.75 4.75 0 0 1 4.746-4.746 4.75 4.75 0 0 1 4.745 4.746 4.751 4.751 0 0 1-4.745 4.746zm0-7.119a2.375 2.375 0 0 0-2.373 2.373 2.375 2.375 0 0 0 2.373 2.373 2.375 2.375 0 0 0 2.373-2.373 2.375 2.375 0 0 0-2.373-2.373zm-6.538 16.551a80.003 80.003 0 0 1-4.805-.321 1.186 1.186 0 0 1-1.068-1.187c0-.035 0-.083.012-.118.06-.653.63-1.116 1.293-1.058 1.531.155 3.097.263 4.663.322.309.012.605.142.819.368.225.237.332.534.32.855a1.18 1.18 0 0 1-1.186 1.14zm-15.495-2.325a1.194 1.194 0 0 1-.866-1.14.96.96 0 0 1 .048-.32c.178-.618.854-.997 1.471-.82 1.424.417 2.942.772 4.508 1.08.641.13 1.068.748.938 1.388a1.183 1.183 0 0 1-1.163.963c-.071 0-.142 0-.225-.025-1.638-.32-3.227-.7-4.71-1.126zm-10.037-4.534s-.012 0-.012-.011a1.183 1.183 0 0 1-.498-.963c0-.249.071-.486.213-.688.368-.52 1.14-.652 1.65-.283 1.139.806 2.467 1.554 3.939 2.23.593.272.854.972.581 1.565-.19.43-.617.701-1.08.701-.178 0-.344-.034-.498-.107-1.602-.747-3.05-1.564-4.295-2.444z"/></g></g></svg>