<svg width="34" height="34" viewBox="0 0 34 34" fill="none" xmlns="http://www.w3.org/2000/svg">
<path d="M17 34C7.6126 34 0 26.3874 0 17C0 7.6126 7.6126 0 17 0C26.3874 0 34 7.6126 34 17C34 26.3874 26.3874 34 17 34Z" fill="url(#paint0_linear_3254_6)"/>
<path d="M17.0002 7.48675C20.0976 7.48675 20.4648 7.49695 21.6888 7.55475C22.821 7.60575 23.4364 7.79615 23.8444 7.95595C24.385 8.16675 24.7726 8.41835 25.1772 8.82295C25.5818 9.22755 25.8334 9.61515 26.0442 10.1558C26.204 10.5638 26.391 11.1792 26.4454 12.3114C26.4998 13.5354 26.5134 13.9026 26.5134 17C26.5134 20.0974 26.5032 20.4646 26.4454 21.6886C26.3944 22.8208 26.204 23.4362 26.0442 23.8442C25.8334 24.3848 25.5818 24.7724 25.1772 25.177C24.7726 25.5816 24.385 25.8332 23.8444 26.044C23.4364 26.2038 22.821 26.3908 21.6888 26.4452C20.4648 26.4996 20.0976 26.5132 17.0002 26.5132C13.9028 26.5132 13.5356 26.503 12.3116 26.4452C11.1794 26.3942 10.564 26.2038 10.156 26.044C9.61538 25.8332 9.22778 25.5816 8.82318 25.177C8.41858 24.7724 8.16698 24.3848 7.95618 23.8442C7.79638 23.4362 7.60938 22.8208 7.55498 21.6886C7.50058 20.4646 7.48698 20.0974 7.48698 17C7.48698 13.9026 7.49718 13.5354 7.55498 12.3114C7.60598 11.1792 7.79638 10.5638 7.95618 10.1558C8.16698 9.61515 8.41858 9.22755 8.82318 8.82295C9.22778 8.41835 9.61538 8.16675 10.156 7.95595C10.564 7.79615 11.1794 7.60915 12.3116 7.55475C13.5356 7.49695 13.9028 7.48675 17.0002 7.48675ZM17.0002 5.39575C13.8484 5.39575 13.454 5.40935 12.2164 5.46715C10.9822 5.52495 10.139 5.71875 9.39778 6.00775C8.63618 6.30015 7.98678 6.69795 7.34418 7.34395C6.69818 7.98995 6.30378 8.63595 6.00458 9.40095C5.71898 10.1388 5.52178 10.982 5.46398 12.2196C5.40618 13.4572 5.39258 13.8516 5.39258 17.0034C5.39258 20.1552 5.40618 20.5496 5.46398 21.7872C5.52178 23.0214 5.71558 23.8646 6.00458 24.6058C6.30038 25.364 6.69818 26.0134 7.34418 26.656C7.99018 27.302 8.63618 27.6964 9.40118 27.9956C10.139 28.2812 10.9822 28.4784 12.2198 28.5362C13.4574 28.594 13.8518 28.6076 17.0036 28.6076C20.1554 28.6076 20.5498 28.594 21.7874 28.5362C23.0216 28.4784 23.8648 28.2846 24.606 27.9956C25.3642 27.6998 26.0136 27.302 26.6562 26.656C27.3022 26.01 27.6966 25.364 27.9958 24.599C28.2814 23.8612 28.4786 23.018 28.5364 21.7804C28.5942 20.5428 28.6078 20.1484 28.6078 16.9966C28.6078 13.8448 28.5942 13.4504 28.5364 12.2128C28.4786 10.9786 28.2848 10.1354 27.9958 9.39415C27.7 8.63595 27.3022 7.98655 26.6562 7.34395C26.0102 6.69795 25.3642 6.30355 24.5992 6.00435C23.8614 5.71875 23.0182 5.52155 21.7806 5.46375C20.5464 5.40935 20.152 5.39575 17.0002 5.39575Z" fill="white"/>
<path d="M17.0002 11.0397C13.709 11.0397 11.04 13.7087 11.04 16.9999C11.04 20.2911 13.709 22.9601 17.0002 22.9601C20.2914 22.9601 22.9604 20.2911 22.9604 16.9999C22.9604 13.7087 20.2914 11.0397 17.0002 11.0397ZM17.0002 20.8691C14.865 20.8691 13.131 19.1385 13.131 16.9999C13.131 14.8613 14.865 13.1307 17.0002 13.1307C19.1354 13.1307 20.8694 14.8613 20.8694 16.9999C20.8694 19.1385 19.1354 20.8691 17.0002 20.8691Z" fill="white"/>
<path d="M23.1948 12.1991C23.9647 12.1991 24.5888 11.575 24.5888 10.8051C24.5888 10.0352 23.9647 9.41113 23.1948 9.41113C22.4249 9.41113 21.8008 10.0352 21.8008 10.8051C21.8008 11.575 22.4249 12.1991 23.1948 12.1991Z" fill="white"/>
<defs>
<linearGradient id="paint0_linear_3254_6" x1="4.97918" y1="29.0208" x2="29.0208" y2="4.97918" gradientUnits="userSpaceOnUse">
<stop stop-color="#FFD521"/>
<stop offset="0.0551048" stop-color="#FFD020"/>
<stop offset="0.1241" stop-color="#FEC01E"/>
<stop offset="0.2004" stop-color="#FCA71B"/>
<stop offset="0.2821" stop-color="#FA8316"/>
<stop offset="0.3681" stop-color="#F85510"/>
<stop offset="0.4563" stop-color="#F51E09"/>
<stop offset="0.5" stop-color="#F30005"/>
<stop offset="0.5035" stop-color="#F20007"/>
<stop offset="0.5966" stop-color="#E1003B"/>
<stop offset="0.6879" stop-color="#D30067"/>
<stop offset="0.7757" stop-color="#C70088"/>
<stop offset="0.8589" stop-color="#BF00A0"/>
<stop offset="0.9357" stop-color="#BB00AF"/>
<stop offset="1" stop-color="#B900B4"/>
</linearGradient>
</defs>
</svg>
