<svg xmlns="http://www.w3.org/2000/svg" width="161" height="169" viewBox="0 0 161 169"><g><g><path fill="#eff2fd" d="M0 76.5C0 34.25 34.25 0 76.5 0S153 34.25 153 76.5 118.75 153 76.5 153 0 118.75 0 76.5z"/></g><g><g/><g><g><g><g><path fill="#8f7ece" d="M132.365 114.73c-.283 2.349.537 5.6-.55 7.062-.907 1.221-3.72 1.082-6.513 1.195-5.008.199-9.781.661-14.769.64-7.409-.029-14.985-.549-22.474-.549-4.944 0-9.868.275-15.043.275-10.083-.002-20.184 0-30.547 0-4.723 0-10.09-.193-15.228 0-2.157.081-5.002-.03-7.521-.184-2.55-.157-4.833-.69-5.688-1.926-.938-1.353-.69-4.586-.46-6.513 9.597.223 19.25-.184 29.171-.184 3.182 0 6.45-.035 9.633-.184 5.959-.277 13.785-.09 20.364-.092 6.738 0 13.476.15 19.997.185 13.446.073 26.651.816 39.628.275z"/></g><g><g><path fill="#4d3d87" d="M48.887 79.145c5.35-.255 11.753.072 17.337.183 5.63.111 11.414-.06 17.246-.092 8.475-.045 17.14-.306 25.686.184 1.235.07 2.71.14 4.219.184 1.707.047 3.296-.08 4.219.275 2.635 1.01 3.798 4.728 5.046 7.43 3.307 7.165 6.42 14.18 8.99 22.2.505 1.574 1.117 3.947.55 5.41-1.218 3.143-7.987 2.661-12.933 2.661-10.494 0-20.663-.222-30.822.184-5.225.209-10.214-.342-15.136-.459-2.522-.06-5.007.233-7.43.368-2.55.14-5.105.131-7.707.092-4.849-.073-10.028-.275-15.318-.277-4.864 0-10.14.092-15.503.092-4.495 0-12.546.585-13.667-2.66-.516-1.492.17-3.831.64-5.32 2.374-7.501 5.66-15.185 8.99-22.291 1.107-2.359 2.705-6.848 5.413-7.613 1.242-.353 3.233-.102 4.953-.185 5.032-.237 10.173-.126 15.227-.366z"/></g><g><g><path fill="#8f7ece" d="M63.476 83.726c-.281 1.584-.635 3.096-.917 4.678-1.588.186-3.497.05-5.229.092.328-1.66.839-3.138 1.285-4.679 1.674.025 3.14-.162 4.86-.09z"/></g><g><path fill="#8f7ece" d="M68.976 83.913c-.342 1.492-.705 2.963-1.008 4.495H63.84c.262-1.634.694-3.098 1.008-4.678 1.259.179 2.892-.017 4.128.183z"/></g><g><path fill="#8f7ece" d="M57.233 83.82c-.469 1.52-.813 3.163-1.285 4.679-1.844-.006-4.147.008-5.688 0 .618-1.433 1.148-2.952 1.652-4.496 1.781-.054 3.552-.118 5.32-.183z"/></g><g><path fill="#8f7ece" d="M74.662 84.002c.062 1.467.218 2.84.274 4.31-1.985-.058-3.77.084-5.686.094.295-1.57.705-3.025 1.1-4.495 1.485-.017 2.775.16 4.312.091z"/></g><g><path fill="#8f7ece" d="M50.352 84c.328.148-.058.725-.184 1.1-.373 1.118-.803 2.464-1.284 3.487H42.83c.504-1.575 1.174-2.983 1.743-4.496 1.907-.049 4.02.107 5.78-.091z"/></g><g><path fill="#8f7ece" d="M80.078 84.091c.165 1.305.165 2.772.274 4.128-1.666-.063-2.604.115-4.127.092-.212-1.285-.17-2.826-.275-4.22 1.052-.036 2.782.028 4.128 0z"/></g><g><path fill="#8f7ece" d="M43.112 84.094c-.493 1.557-1.095 3.004-1.652 4.496-1.439-.059-3.114.12-4.402-.091-.282-.1.187-.588.367-.92.517-.948 1.148-2.225 1.467-3.393 1.42-.018 2.726-.149 4.22-.092z"/></g><g><path fill="#8f7ece" d="M81.36 84.19h3.853c.297 1.323.528 2.713.826 4.036h-4.496c-.067-1.338-.037-2.774-.183-4.036z"/></g><g><path fill="#8f7ece" d="M37.333 84.28h.183c-.563 1.516-1.298 2.86-2.019 4.22H31.37c.2-.668.501-1.31.825-1.927.288-.55.599-1.305 1.102-1.651.99-.684 2.498-.286 4.036-.642z"/></g><g><path fill="#8f7ece" d="M86.59 84.284c1.443.054 3.11-.114 4.402.09.15 1.442.587 2.594.827 3.945-1.407-.123-2.967-.091-4.496-.091-.306-1.254-.522-2.596-.733-3.944z"/></g><g><path fill="#8f7ece" d="M92.28 84.373c1.75-.067 3.22.146 4.954.094.287 1.425.793 2.631 1.009 4.127-1.615-.19-3.421-.186-5.136-.276a90.767 90.767 0 0 1-.827-3.945z"/></g><g><path fill="#8f7ece" d="M103.746 84.46c.575 1.382 1.017 2.897 1.47 4.404-1.913-.077-3.881-.098-5.689-.277-.226-1.423-.644-2.658-.917-4.036 1.748.006 3.508.023 5.136-.091z"/></g><g><path fill="#8f7ece" d="M105.21 84.465c2.634.188 5.16-.415 6.696.64 1.17.808 1.474 2.635 2.11 4.13-2.38-.19-4.89-.248-7.43-.277-.505-1.45-.933-2.981-1.376-4.493z"/></g><g><path fill="#8f7ece" d="M80.078 89.596c.136 1.513.354 2.946.642 4.31-1.802.06-3.328-.158-5.137-.091a36.834 36.834 0 0 0-.643-4.13c1.533-.21 3.455-.03 5.138-.09z"/></g><g><path fill="#8f7ece" d="M81.27 89.6h4.036c.45 1.415.798 2.93 1.193 4.402-1.559-.002-3.154.035-4.587-.092-.08-1.57-.474-2.828-.642-4.31z"/></g><g><path fill="#8f7ece" d="M86.59 89.686c1.682-.213 3.76-.03 5.594-.09.559 1.46.952 3.085 1.56 4.494-1.856.266-3.844-.13-5.87 0-.41-1.487-.789-3.002-1.284-4.404z"/></g><g><path fill="#8f7ece" d="M34.855 89.786c-.386 1.478-1.015 2.716-1.559 4.036H29.26c.504-1.392 1.08-2.711 1.559-4.129 1.408-.03 2.59.164 4.036.093z"/></g><g><path fill="#8f7ece" d="M73.745 89.69c.18 1.35.384 2.674.549 4.038H68.79c-.012-1.451.127-2.747.276-4.038h4.678z"/></g><g><path fill="#8f7ece" d="M93.56 89.69c2.035.017 3.921.177 5.87.276.41 1.518.907 2.947 1.285 4.496-1.902-.025-3.698-.155-5.595-.185-.486-1.562-1.106-2.992-1.56-4.587z"/></g><g><path fill="#8f7ece" d="M55.586 89.778c-.354 1.45-.81 2.797-1.284 4.128-1.872-.038-3.635.033-5.412.091.307-1.497.837-2.771 1.285-4.127 1.905.07 3.527-.143 5.411-.092z"/></g><g><path fill="#8f7ece" d="M62.466 89.78c-.08 1.388-.309 2.628-.46 3.945-2.178-.07-4.112.106-6.236.091.27-1.317.762-2.417 1.008-3.76a.465.465 0 0 1 .274-.276h5.414z"/></g><g><path fill="#8f7ece" d="M67.786 89.78c-.014 1.394-.328 2.486-.277 3.945H63.29c.202-1.268.254-2.681.46-3.945h4.036z"/></g><g><path fill="#8f7ece" d="M41.364 89.87c-.448 1.387-1.078 2.591-1.467 4.036-1.682-.06-3.358-.13-5.137-.092.424-1.348 1.015-2.53 1.376-3.944h5.228z"/></g><g><path fill="#8f7ece" d="M48.792 89.87c-.375 1.46-.919 2.751-1.377 4.127-2.043-.035-4.244.087-6.145-.09.403-1.401.972-2.638 1.376-4.037 2.45.116 3.014.01 6.146 0z"/></g><g><path fill="#8f7ece" d="M100.72 90.145c1.595-.217 3.44.108 5.137.093.554 1.431.958 3.016 1.468 4.494-1.733-.07-3.436-.17-5.23-.183a44.363 44.363 0 0 0-1.375-4.404z"/></g><g><path fill="#8f7ece" d="M107.32 90.24c2.348.19 4.963.113 7.248.367.505 1.359.793 2.935 1.193 4.403-1.972.014-4.56-.15-6.698-.276-.49-.507-.747-1.306-1.009-2.018-.273-.74-.438-1.51-.734-2.201v-.275z"/></g><g><path fill="#8f7ece" d="M85.122 95.38c.273.258.475.835.642 1.284.468 1.256.85 2.812 1.192 4.312-10.733-.135-21.466-.03-32.106.366.398-2.08.813-4.14 1.285-6.146 9.692-.328 18.808-.118 28.987.183z"/></g><g><path fill="#8f7ece" d="M33.567 95.1c-.738 2.413-1.643 4.656-2.476 6.973-1.522-.16-3.176-.188-3.761-1.285.027-2.389.848-3.984 1.559-5.688h4.678z"/></g><g><path fill="#8f7ece" d="M35.129 95.1c1.29.148 2.795.08 4.218.093-.435 2.408-1.118 4.57-1.743 6.788-1.573.138-3.342.082-5.044.092.27-1.102.8-2.206 1.192-3.395.418-1.26.604-2.664 1.377-3.578z"/></g><g><path fill="#8f7ece" d="M54.851 95.19c-.475 2.092-.92 4.216-1.468 6.238-2.25.013-4.39.134-6.513.276.524-2.292 1.383-4.245 2.019-6.422 2.077.06 3.954-.081 5.962-.092z"/></g><g><path fill="#8f7ece" d="M47.51 95.29c-.614 2.26-1.422 4.329-2.201 6.422-1.956.216-4.172.17-6.239.274.437-2.194 1.113-4.147 1.469-6.421-.005-.156.067-.238.183-.275h6.787z"/></g><g><path fill="#8f7ece" d="M86.59 95.373c2.692-.031 5.136.183 7.797.183.629 1.847 1.153 3.8 1.65 5.78-2.568-.06-4.971-.287-7.613-.275-.538-1.97-1.128-3.887-1.834-5.688z"/></g><g><path fill="#8f7ece" d="M95.76 95.65c2.216-.016 4.192.21 6.42.184.534 2.035 1.136 4 1.744 5.963-2.18-.116-4.332-.255-6.513-.367-.445-2.033-1.119-3.836-1.651-5.78z"/></g><g><path fill="#8f7ece" d="M103.47 96.024c1.567-.19 3.442.105 5.137.092.969 1.814 1.348 4.217 2.11 6.238-1.65.12-3.48-.373-5.32-.367a744.381 744.381 0 0 1-1.927-5.963z"/></g><g><path fill="#8f7ece" d="M110.07 96.11c1.922.189 4.078.14 5.963.367.183.816.532 1.763.733 2.753.197.96.47 2.337.092 3.026-.716 1.31-3.268.382-4.77.367-.519-2.326-1.37-4.317-2.018-6.513z"/></g></g><g opacity=".75"><path fill="#fff" d="M60.08 104.001c1.682-.298 4.59-.091 6.88-.091 4.6 0 8.816.183 13.3.183 1.792 0 4.974-.487 6.239.275 1.241.747 1.685 3.365 1.926 5.413.047.397.24 1.661-.091 2.109-.483.649-2.565.325-3.762.275-8.265-.333-15.387-.183-24.31-.183-.965 0-3.146.297-3.576-.55-.454-.89.436-2.507.825-3.76.591-1.91.65-3.33 2.57-3.67z"/></g><g><g><path fill="#ff5000" d="M33.62 109.91c.11-1.043.29-3.226 1.452-2.768.682.267.603 1.822.516 2.86-.108 1.294-.222 2.473-.598 3.516-.175.481-.516.897-.858.88-.659-.038-1.064-.963-1.352-1.455-.73-1.24-1.165-1.937-1.867-3.316-.259-.51-.723-1.427-.277-1.959.097-.116.402-.23.58-.216.658.046 1.091.68 1.444 1.107.417.508.696.899.96 1.352z"/></g><g><path fill="#ff5000" d="M25.02 107.918c-.947-.831-2.307-2.156-3.494-2.571-.314-.11-.903-.242-1.29.106-.239.22-.242.73-.15 1.08.234.895.86 1.708 1.434 2.407.543.66 1.152 1.213 1.736 1.711.47.402 1.19 1.005 1.877 1.39.573.322 1.732.837 2.41.382.778-.523.58-2.035.478-3.069-.143-1.45-.494-3.608-1.579-5.143-.285-.403-.728-.81-1.144-.659-.696.253-.591 1.473-.586 2.005.004.825.053 1.52.308 2.361z"/></g></g></g><g><g><path fill="#fff" d="M16.134 116.279c1.007-.291 2.712.18 4.357.741.706.24 1.84.648 1.696 1.302-.171.787-1.534.529-2.02.434-1.542-.298-3.343-.97-4.196-1.61-.117-.22-.02-.65.163-.867z"/></g><g><path fill="#fff" d="M24.07 115.39c.042-1.69 3.668-.979 3.249.36-.183.58-2.066.89-2.857.432-.284-.165-.4-.5-.392-.793z"/></g><g><path fill="#fff" d="M27.812 117.858c-.047-.598.726-.996 1.591-1.084.695-.07 2.059.113 1.882.897-.075.349-.655.749-1.372.84-.84.109-2.039.117-2.1-.653z"/></g></g></g><g><g><g><path fill="#8f7ece" d="M36.324 17.902c6.973-.333 14.192.136 21.098 0 6.822-.134 13.782-.188 20.73.09 6.268.254 13.366.46 20.549.46 4.345 0 10.487-.442 15.411-.368 2.848.045 4.638.287 5.503 2.02.7 1.395.544 3.873.46 6.88-.068 2.409-.045 5.261-.092 7.52-.106 4.953-.275 9.653-.275 14.954-.002 5.03.029 9.904-.093 14.952-.13 5.478.848 13.45-2.475 15.41-1.009.594-3.224.642-5.23.642-2.01 0-4.061-.128-5.688-.183-11.514-.397-23.192-.367-34.674-.367-7.443.001-14.853-.366-23.025-.366-5.537 0-11.653.226-16.97-.643-1.774-.289-3.777-.915-4.403-2.017-.825-1.458-1.079-3.897-1.285-6.331-1.026-12.086-.367-24.234-.367-37.244 0-2.35.168-5.09.276-7.338.122-2.55.051-5.295 1.1-6.42.807-.864 2.54-1.09 4.221-1.284 1.845-.216 3.666-.293 5.229-.367z"/></g><g><path fill="#4d3d87" d="M33.752 20.932c3.106-.37 7.153.088 10.549.183 3.466.096 6.899.25 10.273.367 6.882.237 13.902.111 20.914-.184 7.03-.296 13.54-.458 20.915-.458 3.29 0 6.801.092 10.549.092 1.722 0 3.578-.147 5.137 0 1.623.153 3.085.68 3.67 1.65.748 1.244.55 4.297.55 6.146 0 2.456-.092 4.526-.092 6.514 0 4.622.276 8.785.276 13.026 0 4.636.038 8.461.183 13.118.066 2.122-.066 4.36 0 6.42.065 2.026.15 5.14-.642 6.33-.647.97-2.244 1.594-4.036 1.56-5.115-.1-11.05.418-16.236.183-7.384-.335-14.72.09-21.466.092-7.633 0-14.4.171-22.016-.092-5.038-.175-11.025.166-16.236-.184-1.87-.125-3.806-.133-4.678-.825-1.018-.81-1.298-3.47-1.467-5.596-.537-6.732-.252-13.719.091-20.455.23-4.499.23-8.72.46-13.577.096-2.027.091-4.25.091-6.697 0-3.545-.455-7.5 3.026-7.613.06-.002.125.007.185 0z"/></g></g><g><g><g><g opacity=".75"><path fill="#fff" d="M42.781 48.88a86.65 86.65 0 0 1 .837 5.338c.172 1.348.639 2.695.15 3.683-.813-.028-1.33-.822-1.834-1.297-1.564-1.478-3.288-2.932-4.884-4.48 1.148-1.62 2.969-2.764 5.731-3.244z"/></g><g><path fill="#8f7ece" d="M42.104 58.103c-2.48.458-5.343.622-7.782.694-.392-2.162.53-3.976 1.58-5.35.052-.01.103-.019.156-.027.982.784 2.034 1.569 3.07 2.375 1.016.79 2.243 1.373 2.976 2.308z"/></g><g><path fill="#efad1b" d="M44.947 49.56c3.973-.016 7.37 2.06 9.12 4.868.591.946 1.047 2.12 1.137 3.652.297 4.969-4.634 9.945-9.925 10.663-4.12.559-7.71-1.46-9.423-4.39-.593-1.011-1.236-2.283-1.148-3.722.752-.343 1.675-.395 2.568-.483 1.722-.173 3.488-.4 5.234-.764.724-.15 2.06-.215 2.417-.538.283-.255.247-1.455.236-2.076-.036-2.266-.435-5.04-.404-6.966a.365.365 0 0 1 .188-.244z"/></g><g><g><path fill="#b1bc00" d="M56.982 56.161c-.268-.708-.247-1.766-.227-2.82.016-.915-.18-2.21.316-2.601.716-.435 2.174-.179 3.27-.139 2.942.11 5.758.045 8.99-.012 1.841-.034 3.946.035 5.997.014.897-.008 2.05-.007 3.002.044.94.051 2.149.142 2.495.622.479.665.335 2.032.254 3.037-.065.755-.107 2.273-.532 2.628-.472.391-2.2.278-3.037.255-4.953-.143-9.88-.359-14.898-.454-.992-.017-2.033-.016-3.002-.043-.935-.025-1.933.098-2.628-.53z"/></g><g><path fill="#8f7ece" d="M70.804 58.85c.036-.016.05-.08.134-.091 1.692-.23 2.81.187 4.856.238.975.022 4.084-.129 4.544.644.315.529.08 1.718.025 2.409-.069.86-.144 1.52-.201 2.367-.085 1.277.042 3.803-.899 4.283-.653.335-1.695.062-2.482.034a65.643 65.643 0 0 0-2.489-.037c-1.537.005-3.868.23-4.428-.88-.271-.536-.16-1.504-.097-2.399.052-.74.097-1.553.139-2.283.046-.845.021-1.392.056-2.348.029-.785.194-1.667.842-1.937z"/></g><g><g opacity=".75"><path fill="#fff" d="M68.352 59.715c-.054.368-.102.74-.065 1.177-3.87.023-7.515-.251-11.364-.257-.063-.321-.077-1.126.1-1.475 3.755.212 7.65.244 11.329.555z"/></g><g opacity=".75"><path fill="#fff" d="M68.047 62.385c.104.254.018.86-.066 1.178-3.857.092-7.45-.165-11.271-.124.077-.393-.01-.91.126-1.259 3.75.052 7.335.318 11.211.205z"/></g><g opacity=".75"><path fill="#fff" d="M67.879 65.556c-.051.414-.053.866-.127 1.26-3.6-.221-7.264-.355-11.078-.298a9.02 9.02 0 0 1 .018-1.538c3.731.19 7.367.501 11.187.576z"/></g></g></g><g><g><path fill="#b1bc00" d="M87.1 56.51c-.267-.708-.245-1.766-.225-2.82.016-.914-.18-2.21.317-2.6.714-.435 2.173-.179 3.27-.139 2.941.108 5.758.043 8.99-.013 1.841-.033 3.946.036 5.995.016.897-.01 2.053-.01 3.003.042.94.05 2.148.143 2.495.623.48.664.336 2.031.253 3.036-.062.755-.106 2.274-.532 2.628-.47.391-2.2.278-3.035.255-4.955-.141-9.882-.357-14.9-.453-.992-.018-2.031-.017-3.002-.043-.935-.026-1.933.097-2.63-.532z"/></g><g><path fill="#8f7ece" d="M100.913 59.2c.037-.017.052-.08.134-.092 1.694-.23 2.812.189 4.857.238.973.025 4.084-.127 4.543.646.315.528.08 1.716.026 2.41-.069.857-.144 1.517-.201 2.364-.086 1.28.041 3.803-.9 4.284-.652.335-1.693.06-2.48.034a69.094 69.094 0 0 0-2.49-.037c-1.538.005-3.868.23-4.427-.88-.272-.535-.161-1.504-.098-2.399.054-.741.1-1.553.138-2.284.046-.844.022-1.392.059-2.348.026-.782.191-1.665.84-1.936z"/></g><g><g opacity=".75"><path fill="#fff" d="M98.46 60.067c-.053.366-.1.74-.063 1.176-3.872.022-7.516-.252-11.365-.258-.061-.321-.076-1.125.1-1.475 3.756.212 7.65.245 11.329.557z"/></g><g opacity=".75"><path fill="#fff" d="M98.156 62.746c.105.253.019.859-.063 1.178-3.86.09-7.452-.166-11.273-.125.077-.392-.01-.911.125-1.259 3.75.053 7.334.32 11.212.206z"/></g><g opacity=".75"><path fill="#fff" d="M97.989 65.904c-.052.415-.052.867-.126 1.26-3.602-.22-7.266-.353-11.078-.298a9.005 9.005 0 0 1 .016-1.536c3.732.188 7.367.501 11.188.574z"/></g></g></g></g><g><path fill="#efad1b" d="M49.927 29.92c-.339-.99-.477-2.412-.054-3.111.695-.464 2.213-.26 3.295-.33 2.984-.2 5.97-.268 8.957-.414 9.87-.486 19.446-.42 28.954-.046 1.596.063 4.656-.19 5.323.626.71.868.533 3.353.1 3.74-.509.455-1.828.354-2.971.349-2.73-.017-6.467 0-8.805-.019-4.13-.032-7.772-.285-11.51-.362-5.861-.123-11.711-.15-17.686-.023-.97.021-1.97.043-2.955.024-.873-.017-1.9.153-2.648-.435z"/></g><g opacity=".75"><path fill="#fff" d="M91.333 33.735c-6.587-.027-13.188-.021-19.77-.089-12.264-.13-25.085-.071-38.163.57l.27 1.987c5.986-.208 11.874-.538 17.65-.67 13.726-.314 26.742.034 39.783.147 6.573.056 13.183-.016 19.78.167.156-.684.38-1.335.332-2.117-6.762.354-13.298.033-19.882.005z"/></g><g opacity=".75"><path fill="#fff" d="M34.143 37.652c13.35-.066 63.934 1.315 77.129 1.464.018.63-.062 1.19-.097 1.781-6.299-.403-50.777-1.072-57.325-1.254-6.509-.18-13.123-.063-19.723-.222-.027-.614-.122-1.27.016-1.769z"/></g><g opacity=".75"><path fill="#fff" d="M111.236 43.444c-.059.76-.063 1.555.013 2.407-10.48-.502-66.077-1.574-76.862-1.66-.034-.756-.04-1.49-.157-2.301 10.847.027 66.407 1.183 77.006 1.554z"/></g></g><g><g><g><path fill="#fff" d="M116.127 23.69c.836.172.59 2.052.393 3.226-.144.868-.471 1.809-1.096 1.551-.338-.136-.458-.742-.526-1.192-.16-1.049-.041-2.869.398-3.279.204-.19.545-.361.831-.305z"/></g><g><path fill="#fff" d="M115.979 31.177c.446.672.366 2.396-.69 2.046"/></g></g><g><g><path fill="#fff" d="M29.788 61.882c.855.72 1.343 5.235-.203 5.306-1.26.054-1.6-3.94-.816-5 .202-.272.412-.379 1.02-.306z"/></g><g><path fill="#fff" d="M29.993 69.12c1.404-.226 1.61 3.227.306 3.266-.551.016-.711-.35-.92-1.02-.305-.99-.369-2.086.614-2.245z"/></g></g></g></g></g></g><g><g><g><g><path fill="#8f7ece" d="M157.734 100.202l-1.052-2.132-57.06 42.124-35.947-14.087-2.164 1.68s.19 2.476 0 2.476c-.193 0 28.585 12.59 28.585 12.59l8.697 2.628 3.248-.716 56.364-40.385c-1.23-.956-1.453-2.873-.671-4.178z"/></g></g><g><path fill="#ff5000" d="M62.755 127.223c-.333.83-.451 1.872-.733 2.751 3.246.826 6.333 1.985 9.356 3.211 7.337 2.975 14.562 6.094 21.924 9.357 2.188.97 4.183 2.574 7.062 1.743 1.219-.35 2.646-1.485 3.945-2.384 8.506-5.881 17.417-11.99 25.686-17.98 9.003-6.523 17.784-13.375 27.336-19.446.596-.38 1.308-.996 2.11-.826-.01.86-.777 1.4-1.285 1.926-3.542 3.677-8.083 6.702-12.291 9.815-9.7 7.174-19.236 14.122-29.446 21.19-3.64 2.52-7.502 5.033-11.467 7.522-1.294.812-2.768 1.72-4.128 2.11-2.194.627-4.627-.357-6.697-1.01-5.344-1.683-9.982-3.653-14.951-5.87-2.788-1.244-6.48-2.936-9.45-4.403-1.434-.71-2.918-1.498-4.676-2.293-1.325-.6-3.854-1.51-4.221-2.662-.847-2.651 1.678-3.95 3.393-5.044 3.863-2.46 7.743-5.66 11.376-8.164 8.029-5.537 15.642-10.314 23.391-15.687 6.321-4.381 12.85-8.609 18.99-13.575.541-.438 1.209-.99 1.834-1.468.692-.53 1.643-1.388 2.385-1.376.383.006.784.071 1.196.172.27.067.048.692.325.783.253.083 1.003-.368 1.257-.274.742.276 1.483.578 2.176.787 1.27.383 2.522.767 3.758 1.152.297.093-.021.441.274.534.147.046.908-.163 1.055-.117 1.826.577 3.622 1.159 5.405 1.754.27.09.27.46.54.55.297.101.867-.077 1.165.024 3.9 1.326 7.757 2.723 11.743 4.266.967.374 2.025.775 3.118 1.203.272.106.21.427.484.537.138.054.613-.104.751-.048.844.339 1.695.692 2.528 1.06.773.342 1.716.875 1.742 1.376.06 1.053-2.853 2.43-3.577 2.936-3.721 2.597-7.788 5.46-11.374 7.98-5.39 3.788-9.95 7.307-14.769 11.008a1950.936 1950.936 0 0 0-14.585 11.283c-3.019 2.366-7.301 5.677-11.191 8.166-1.387.886-3.091 2.2-4.862 2.11-1.398-.072-3.16-1.267-4.495-1.929-4.263-2.106-8.9-4.067-13.485-5.777-3.221-1.202-6.364-2.3-9.448-3.395-3.133-1.112-6.333-2-9.174-3.578z"/></g></g><g><g><path fill="#fff" d="M72.592 125.785c.814-.51 1.613-1.045 2.355-1.53.376-.369.436-.75.199-1.05-.28-.354-.65-.385-1.002-.17a86.142 86.142 0 0 0-2.508 1.6c-.253.166-.366.433-.275.733.205.671.969.58 1.231.417z"/></g><g><path fill="#fff" d="M76.658 119.679c.35-.167 1.926-1.562 2.154-1.767.821-.739-.055-1.799-.893-1.15-.71.548-1.386 1.145-2.076 1.72-.677.694-.087 1.626.815 1.197z"/></g><g><path fill="#fff" d="M86.755 123.506c.755-.375 1.384-.935 1.97-1.404.398-.462.432-.846.156-1.15-.284-.307-.67-.337-1.084-.003-.58.467-1.174.911-1.8 1.315-.834.537-.153 1.697.758 1.242z"/></g><g><path fill="#fff" d="M83.719 119.064c.674-.44 1.302-.95 1.846-1.354.372-.406.484-.747.21-1.106-.275-.364-.664-.366-1-.137-.642.44-1.256.917-1.87 1.393-.438.34-.535.68-.336 1.033.206.365.678.478 1.15.17z"/></g><g><path fill="#fff" d="M79.575 125.918c.64-.43 1.238-.92 1.792-1.34.36-.39.404-.764.159-1.057-.288-.342-.66-.375-.997-.138-.63.444-1.234.928-1.835 1.41-.763.617-.004 1.717.881 1.125z"/></g><g><path fill="#fff" d="M91.155 117.12c-.467.301-.601.634-.413.996.496.95 1.642.056 2.478-.592.314-.335.42-.653.195-.99-.477-.707-1.13-.14-2.26.586z"/></g><g><path fill="#fff" d="M84.348 111.895c.815-.509 1.613-1.044 2.356-1.529.375-.369.435-.75.198-1.051a1.004 1.004 0 0 0-.079-.085 1353.39 1353.39 0 0 0-3.633 2.404c.268.492.918.41 1.158.261z"/></g><g><path fill="#fff" d="M98.505 109.626c.755-.375 1.384-.935 1.97-1.404.398-.462.432-.847.155-1.148-.282-.31-.67-.339-1.084-.006-.579.468-1.173.912-1.799 1.316-.834.537-.153 1.697.758 1.242z"/></g><g><path fill="#fff" d="M94.328 105.009c.205.367.677.478 1.15.17.673-.439 1.301-.949 1.846-1.351.37-.406.483-.747.21-1.108-.15-.197-.334-.286-.525-.29-.845.577-1.69 1.15-2.533 1.717-.271.284-.314.569-.148.862z"/></g><g><path fill="#fff" d="M91.335 112.037c.639-.429 1.238-.92 1.792-1.337.358-.393.403-.766.158-1.058-.287-.343-.66-.376-.998-.139-.628.444-1.233.927-1.833 1.412-.763.615-.004 1.716.88 1.122z"/></g><g><path fill="#fff" d="M104.97 103.633c.313-.335.42-.653.195-.988-.477-.71-1.128-.141-2.26.584-.468.301-.601.635-.412.996.495.95 1.641.056 2.477-.592z"/></g><g><path fill="#fff" d="M93.303 133.215a84.438 84.438 0 0 0-2.507 1.6c-.254.167-.365.434-.275.732.204.672.968.581 1.23.418.816-.51 1.613-1.045 2.357-1.53.375-.368.434-.75.197-1.051-.28-.351-.648-.385-1.002-.17z"/></g><g><path fill="#fff" d="M96.768 128.838c.35-.166 1.926-1.562 2.154-1.766.821-.738-.055-1.8-.892-1.15-.711.549-1.387 1.144-2.077 1.72-.677.694-.087 1.627.815 1.196z"/></g><g><path fill="#fff" d="M105.915 133.696c.755-.375 1.385-.934 1.97-1.404.398-.462.432-.846.157-1.148-.284-.309-.671-.34-1.086-.006-.579.468-1.173.912-1.798 1.316-.835.537-.154 1.697.757 1.242z"/></g><g><path fill="#fff" d="M102.878 129.254c.674-.44 1.302-.951 1.847-1.352.372-.406.483-.75.21-1.108-.276-.365-.665-.366-1-.135a38.02 38.02 0 0 0-1.87 1.392c-.437.34-.536.68-.336 1.032.205.367.678.478 1.149.171z"/></g><g><path fill="#fff" d="M99.687 133.573c-.628.445-1.233.927-1.833 1.412-.763.615-.004 1.716.881 1.122.639-.427 1.238-.92 1.792-1.337.36-.393.404-.765.158-1.057-.288-.344-.659-.378-.998-.14z"/></g><g><path fill="#fff" d="M86.868 129.14c-.704.538.008 1.647.784 1.185.665-.394 1.292-.858 1.837-1.227.783-.895-.111-1.666-.786-1.235-.629.4-1.244.824-1.835 1.277z"/></g><g><path fill="#fff" d="M110.315 127.3c-.467.301-.601.634-.412.996.495.95 1.643.056 2.478-.593.313-.333.421-.653.194-.989-.477-.708-1.128-.139-2.26.586z"/></g><g><path fill="#fff" d="M112.445 132.44c-.468.3-.601.634-.412.996.134.255.314.375.522.403.796-.61 1.554-1.197 2.256-1.745a.702.702 0 0 0-.106-.239c-.477-.71-1.129-.14-2.26.586z"/></g><g><path fill="#fff" d="M105.585 138.137c-.468.301-.601.634-.412.995.005.01.01.015.016.025a97.34 97.34 0 0 0 2.54-1.745c-.466-.476-1.1.057-2.144.725z"/></g><g><path fill="#fff" d="M133.135 117.345c-.477-.71-1.128-.141-2.26.585-.468.3-.601.634-.412.995.205.393.523.468.883.377.632-.485 1.26-.968 1.89-1.448a.607.607 0 0 0-.1-.509z"/></g><g><path fill="#fff" d="M93.679 123.071c.746-.525 1.867-1.347 1.282-2.037-.278-.329-.707-.332-1.163.03-.364.288-.73.585-1.046.925-.636.686.225 1.577.927 1.082z"/></g><g><path fill="#fff" d="M103.512 122.084c.814-.51 1.612-1.043 2.355-1.529.375-.37.437-.75.198-1.05-.28-.353-.648-.386-1.002-.17a82.977 82.977 0 0 0-2.507 1.6c-.254.166-.365.433-.275.731.204.673.968.581 1.23.418z"/></g><g><path fill="#fff" d="M109.79 112.03c-.711.55-1.387 1.145-2.078 1.722-.675.693-.086 1.626.816 1.195.35-.166 1.927-1.562 2.155-1.766.82-.738-.056-1.797-.893-1.15z"/></g><g><path fill="#fff" d="M117.986 120.977c.755-.375 1.383-.935 1.97-1.406.398-.46.432-.844.154-1.148-.282-.307-.669-.339-1.082-.004-.58.466-1.174.91-1.801 1.316-.834.537-.152 1.697.76 1.242z"/></g><g><path fill="#fff" d="M116.695 112.903c-.276-.363-.664-.365-1-.135-.642.439-1.256.917-1.87 1.392-.437.34-.536.68-.336 1.033.205.366.678.478 1.149.17.674-.44 1.303-.95 1.847-1.353.372-.405.483-.747.21-1.107z"/></g><g><path fill="#fff" d="M111.45 119.684a35.27 35.27 0 0 0-1.836 1.41c-.763.618-.004 1.717.88 1.122.64-.427 1.239-.919 1.793-1.336.36-.393.404-.765.159-1.058-.288-.344-.659-.376-.997-.138z"/></g><g><path fill="#fff" d="M98.628 115.26c-.704.539.01 1.648.783 1.187.667-.397 1.293-.86 1.838-1.23.783-.894-.111-1.665-.786-1.234-.629.4-1.244.826-1.835 1.276z"/></g><g><path fill="#fff" d="M100.625 139.875c-.478-.71-1.129-.14-2.26.585-.468.3-.601.635-.412.995.026.052.055.094.083.134.274.103.542.19.802.243.509-.127 1.104-.59 1.592-.968.314-.335.42-.654.195-.989z"/></g><g><path fill="#fff" d="M105.428 109.19c.747-.523 1.868-1.346 1.285-2.037-.28-.328-.709-.33-1.165.03-.365.289-.73.586-1.045.925-.637.687.225 1.578.925 1.083z"/></g><g><path fill="#fff" d="M74.845 129.605c-.276-.365-.665-.368-1-.137-.627.428-1.227.894-1.825 1.36l1.676.593c.333-.25.65-.496.94-.71.371-.405.482-.748.21-1.106z"/></g><g><path fill="#fff" d="M79.802 131.116c.496.95 1.644.057 2.48-.592.311-.335.418-.654.193-.989-.477-.71-1.129-.14-2.26.586-.467.3-.601.633-.413.995z"/></g><g><path fill="#fff" d="M65.97 126.792c.745-.526 1.866-1.35 1.282-2.038-.278-.328-.708-.332-1.165.028-.364.29-.73.586-1.045.926-.636.686.226 1.577.928 1.084z"/></g><g><path fill="#fff" d="M84.032 134.034c-.28-.329-.708-.332-1.165.03-.194.152-.39.312-.577.477.523.198 1.046.4 1.57.605.32-.366.473-.757.172-1.112z"/></g><g><path fill="#fff" d="M118.45 125.791c-.712.55-1.387 1.143-2.077 1.72-.677.693-.087 1.626.814 1.197.35-.168 1.929-1.564 2.155-1.766.82-.74-.054-1.798-.893-1.15z"/></g><g><path fill="#fff" d="M123.959 121.073c-.366.289-.731.586-1.047.925-.636.687.225 1.578.928 1.083.745-.524 1.866-1.347 1.282-2.037-.278-.329-.708-.332-1.163.03z"/></g><g><path fill="#fff" d="M137.642 90.048c.352.677 1.038.415 1.706-.026-.568-.192-1.138-.381-1.706-.572a.588.588 0 0 0 0 .598z"/></g><g><path fill="#fff" d="M108.396 97.788c.754-.376 1.384-.936 1.97-1.406.396-.46.433-.845.155-1.148-.283-.31-.669-.339-1.084-.006-.578.468-1.172.912-1.8 1.316-.834.538-.152 1.698.76 1.244z"/></g><g><path fill="#fff" d="M115.66 91.952c.314-.333.422-.652.195-.987-.477-.71-1.128-.14-2.26.585-.467.3-.601.635-.412.995.497.95 1.643.055 2.477-.593z"/></g><g><path fill="#fff" d="M114.2 110.405c.816-.51 1.613-1.044 2.358-1.529.374-.369.435-.751.196-1.052-.279-.352-.648-.384-1-.17a86.202 86.202 0 0 0-2.509 1.6c-.254.167-.365.434-.273.734.202.673.966.58 1.228.417z"/></g><g><path fill="#fff" d="M119.208 103.267c.35-.165 1.927-1.562 2.154-1.765.821-.74-.054-1.799-.893-1.15-.71.548-1.386 1.144-2.076 1.719-.677.693-.087 1.627.815 1.196z"/></g><g><path fill="#fff" d="M128.357 108.127c.754-.377 1.383-.935 1.968-1.404.398-.463.434-.847.157-1.15-.284-.308-.67-.339-1.084-.004-.579.468-1.175.91-1.8 1.315-.835.538-.154 1.697.759 1.243z"/></g><g><path fill="#fff" d="M127.374 101.223c-.276-.363-.664-.366-1-.133-.642.436-1.255.915-1.87 1.393-.436.338-.534.677-.336 1.03.207.366.678.478 1.15.17.673-.439 1.303-.95 1.848-1.353.37-.404.481-.747.208-1.107z"/></g><g><path fill="#fff" d="M121.175 110.538c.64-.43 1.237-.92 1.792-1.339.36-.391.404-.765.16-1.057-.288-.343-.66-.377-.999-.138-.63.444-1.234.927-1.834 1.41-.763.616-.004 1.716.88 1.124z"/></g><g><path fill="#fff" d="M110.093 104.766c.666-.396 1.292-.858 1.836-1.227.785-.894-.11-1.667-.785-1.236-.63.4-1.245.825-1.836 1.278-.704.537.009 1.647.785 1.185z"/></g><g><path fill="#fff" d="M132.755 101.74c-.468.302-.601.635-.412.995.496.951 1.643.057 2.478-.592.312-.333.42-.652.194-.988-.476-.71-1.128-.141-2.26.585z"/></g><g><path fill="#fff" d="M116.119 97.502c.746-.526 1.869-1.35 1.283-2.039-.278-.328-.708-.33-1.164.03-.364.288-.73.585-1.046.925-.636.687.225 1.577.927 1.084z"/></g><g><path fill="#fff" d="M125.951 96.525c.815-.51 1.613-1.045 2.358-1.53.373-.368.435-.75.196-1.051-.28-.352-.648-.384-1.003-.17a91.026 91.026 0 0 0-2.506 1.601.62.62 0 0 0-.275.733c.205.672.97.58 1.23.417z"/></g><g><path fill="#fff" d="M129.757 90.106c.35-.167 1.928-1.562 2.154-1.766.227-.205.321-.433.326-.643-.44-.14-.884-.28-1.33-.417-.669.523-1.31 1.083-1.965 1.63-.675.693-.086 1.625.815 1.196z"/></g><g><path fill="#fff" d="M139.317 95.027c.753-.377 1.383-.935 1.968-1.405.398-.462.434-.846.156-1.147-.283-.31-.67-.34-1.083-.006-.58.467-1.173.912-1.8 1.314-.835.538-.154 1.698.76 1.244z"/></g><g><path fill="#fff" d="M132.935 96.657c.641-.429 1.238-.92 1.793-1.338.358-.392.403-.765.158-1.058-.287-.342-.659-.375-.997-.138-.63.444-1.235.927-1.835 1.41-.763.617-.004 1.716.88 1.124z"/></g><g><path fill="#fff" d="M122.553 90.885c.666-.394 1.292-.858 1.836-1.227.785-.895-.11-1.666-.786-1.235-.629.4-1.244.823-1.835 1.277-.704.538.009 1.647.785 1.185z"/></g><g><path fill="#fff" d="M123.065 114.305c-.476-.71-1.128-.14-2.26.586-.468.3-.601.634-.412.995.495.95 1.643.055 2.477-.593.314-.333.42-.652.195-.988z"/></g><g><path fill="#fff" d="M123.61 86.644c.492-.346 1.144-.823 1.365-1.305a14.768 14.768 0 0 0-1.508-.489 7.69 7.69 0 0 0-.785.711c-.636.687.225 1.577.928 1.083z"/></g><g><path fill="#fff" d="M152.374 96.904c-.763.616-.004 1.717.882 1.123.638-.427 1.237-.92 1.79-1.337.245-.267.34-.523.303-.753l-1.134-.447-.007.005c-.628.443-1.234.925-1.834 1.41z"/></g><g><path fill="#fff" d="M146.483 97.057c.666-.397 1.291-.859 1.836-1.228.784-.894-.111-1.667-.786-1.236-.63.4-1.244.825-1.835 1.278-.704.54.009 1.647.785 1.186z"/></g><g><path fill="#fff" d="M128.71 113.46c-.712.551-1.387 1.145-2.077 1.721-.677.693-.087 1.626.814 1.196.35-.166 1.929-1.562 2.155-1.766.82-.737-.054-1.797-.892-1.15z"/></g><g><path fill="#fff" d="M134.518 111.583c-.365.289-.73.585-1.046.924-.636.688.224 1.578.926 1.084.746-.525 1.868-1.347 1.283-2.037-.278-.329-.707-.332-1.163.03z"/></g><g><path fill="#fff" d="M141.856 103.33c.82-.737-.054-1.796-.892-1.149-.71.55-.802.813-1.492 1.39-.675.693-.086 1.626.816 1.197.348-.168 1.342-1.233 1.568-1.438z"/></g><g><path fill="#fff" d="M146.458 104.183c.674-.44 1.304-.95 1.847-1.353.372-.405.483-.747.21-1.106-.276-.365-.663-.366-1-.136-.643.438-1.257.916-1.87 1.393-.437.34-.536.679-.336 1.033.207.365.678.476 1.149.17z"/></g><g><path fill="#fff" d="M142.315 111.037c.64-.427 1.238-.92 1.792-1.337.36-.393.404-.766.158-1.06-.288-.341-.658-.374-.996-.137-.63.444-1.235.927-1.835 1.41-.763.619-.004 1.717.88 1.124z"/></g><g><path fill="#fff" d="M134.921 108.436c.667-.396 1.292-.859 1.837-1.227.785-.895-.11-1.668-.786-1.236-.628.4-1.244.825-1.834 1.277-.703.54.008 1.648.783 1.186z"/></g><g><path fill="#fff" d="M153.895 102.229c-.465.297-.598.626-.418.984.848-.594 1.688-1.182 2.512-1.757-.462-.393-1.088.126-2.094.773z"/></g><g><path fill="#fff" d="M140.123 98.228c-.638.687.224 1.577.927 1.083.745-.525 1.867-1.347 1.282-2.037-.278-.329-.706-.332-1.163.03-.366.288-.73.584-1.046.924z"/></g></g><g><path fill="#4d3d87" d="M119.166 92.256c.965-.206 2.633.32 3.761.733 5.64 2.078 9.951 4.104 15.32 6.515.913.41 2.153.895 3.027 1.375.883.485 2.104 1.413 2.11 2.203.01 1.288-2.885 2.865-3.761 3.485-3.714 2.624-6.892 4.874-10.916 7.247-.806.474-1.659 1.068-2.477 1.102-.983.037-2.066-.595-3.12-1.102-2.934-1.414-5.334-2.765-8.346-4.13-2.654-1.2-5.716-2.578-8.44-4.127-.76-.43-2.143-1.175-2.201-1.926-.096-1.233 2.525-2.705 3.302-3.3 2.371-1.824 4.933-3.924 7.43-5.597 1.283-.86 2.596-1.852 4.128-2.386.045-.016.09-.071.183-.092z"/></g></g><g><g><g><path fill="#8f7ece" d="M151.64 124.623c-.06 1.407-2.493 1.546-3.466 1.818-1.494.419-2.752.791-3.956 1.145-8.071 2.376-14.027 7.152-19.779 11.865-7.956 6.517-15.109 13.51-24.073 18.567 8.173.463 15.889.16 22.766-1.134a77.087 77.087 0 0 0 14.298-4.165c.566-.226 4.063-2.238 4.101-.11.016.85-1.05 1.31-2.047 1.787-5.751 2.745-12.809 4.602-19.773 5.57-2.053.283-4.208.576-6.434.688-4.419.222-9.428-.265-14.074-.143-2.258.06-4.442.315-6.5.527-2.076.213-4.09.732-6.22.944-6.432.64-14.03-.001-20.524-1.972-7.867-2.388-14.64-6.76-16.032-14.482-9.71.026-18.494-1.381-25.85-4.02-7.445-2.671-13.137-6.674-17.203-11.91-2.134-2.749-3.575-5.82-3.842-9.94-.273-4.238 1.226-8.25 3.422-11.11 2.06-2.678 4.678-4.77 7.807-6.39.722-.376 1.836-.76 2.48-.858-.003.023-1.46 3.228-1.46 3.228-2.317 1.171-4.335 2.692-6.05 4.661-2.103 2.41-3.85 5.613-3.724 10.058.11 3.842 1.644 6.706 3.671 9.216 3.926 4.873 9.422 8.565 16.342 10.97 6.787 2.36 15.304 3.522 24.237 3.56.91-5.757 4.135-8.539 8.265-10.678 1.848-.958 4.058-1.87 6.73-2.24 3.602-.493 8.487-.13 9.651 2.98 1.037 2.773-1.425 5.63-3.134 6.962-4.698 3.665-11.676 5.067-18.815 5.418 1.073 5.125 4.703 7.93 9.023 10.085 4.419 2.204 9.963 3.59 16.083 4.098 6.26.521 11.654-.245 16.278-1.628 4.667-1.396 8.459-3.908 12.07-6.565 7.256-5.338 13.595-11.59 20.873-17.119 3.451-2.622 7.174-5.272 11.501-7.244 3.169-1.445 6.738-2.382 10.447-3.325 1.031-.264 2.986-.836 2.911.886zm-99.198 18.294c6.389-.456 12.399-1.298 16.68-4.426.936-.684 3.382-2.614 2.985-4.38-.246-1.09-2.227-1.676-3.858-1.757-3.666-.182-7.31 1.034-10.157 2.722-2.79 1.653-5.245 3.974-5.65 7.84z"/></g><g opacity=".75"><path fill="#fff" d="M151.64 124.623c-.06 1.407-2.493 1.546-3.466 1.818-1.494.419-2.752.791-3.956 1.145-8.071 2.376-14.027 7.152-19.779 11.865-7.956 6.517-15.109 13.51-24.073 18.567 8.173.463 15.889.16 22.766-1.134a77.087 77.087 0 0 0 14.298-4.165c.566-.226 4.063-2.238 4.101-.11.016.85-1.05 1.31-2.047 1.787-5.751 2.745-12.809 4.602-19.773 5.57-2.053.283-4.208.576-6.434.688-4.419.222-9.428-.265-14.074-.143-2.258.06-4.442.315-6.5.527-2.076.213-4.09.732-6.22.944-6.432.64-14.03-.001-20.524-1.972-7.867-2.388-14.64-6.76-16.032-14.482-9.71.026-18.494-1.381-25.85-4.02-7.445-2.671-13.137-6.674-17.203-11.91-2.134-2.749-3.575-5.82-3.842-9.94-.273-4.238 1.226-8.25 3.422-11.11 2.06-2.678 4.678-4.77 7.807-6.39.722-.376 1.928-.796 2.48-.858-.003.023-1.46 3.228-1.46 3.228-2.317 1.171-4.335 2.692-6.05 4.661-2.103 2.41-3.85 5.613-3.724 10.058.11 3.842 1.644 6.706 3.671 9.216 3.926 4.873 9.422 8.565 16.342 10.97 6.787 2.36 15.304 3.522 24.237 3.56.91-5.757 4.135-8.539 8.265-10.678 1.848-.958 4.058-1.87 6.73-2.24 3.602-.493 8.487-.13 9.651 2.98 1.037 2.773-1.425 5.63-3.134 6.962-4.698 3.665-11.676 5.067-18.815 5.418 1.073 5.125 4.703 7.93 9.023 10.085 4.419 2.204 9.963 3.59 16.083 4.098 6.26.521 11.654-.245 16.278-1.628 4.667-1.396 8.459-3.908 12.07-6.565 7.256-5.338 13.595-11.59 20.873-17.119 3.451-2.622 7.174-5.272 11.501-7.244 3.169-1.445 6.738-2.382 10.447-3.325 1.031-.264 2.986-.836 2.911.886zm-99.198 18.294c6.389-.456 12.399-1.298 16.68-4.426.936-.684 3.382-2.614 2.985-4.38-.246-1.09-2.227-1.676-3.858-1.757-3.666-.182-7.31 1.034-10.157 2.722-2.79 1.653-5.245 3.974-5.65 7.84z"/></g></g><g><g><path fill="#8f7ece" d="M146.265 148.021c-2.735 1.394-5.472 2.787-8.215 4.247.31.838.583 1.669.962 2.518 3.368-1.367 10.06-3.62 13.811-7.32 1.518-1.495 2.78-4.169.435-5.859-2.154-1.549-7.114.441-7.54 3.56-.138.993.249 1.792.547 2.854z"/></g><g><g><path fill="#fff" d="M147.971 147.065c.72.073 3.275-1.074 2.756-2.011-.345-.624-1.345-.028-1.944.273-.46.235-1.61.542-1.46 1.282.078.402.45.435.648.456z"/></g><g><path fill="#fff" d="M151.513 142.167c-.668-.394-1.645.382-1.378 1.007"/></g></g></g><g><g><path fill="#8f7ece" d="M151.413 125.955c-2.971.769-5.943 1.537-8.963 2.262-.327-.833-.671-1.636-.95-2.521 3.428-1.209 9.934-3.96 15.195-3.676 2.125.118 4.844 1.281 4.207 4.099-.586 2.588-5.62 4.386-8.006 2.335-.758-.653-1.001-1.504-1.483-2.5z"/></g><g><g><path fill="#fff" d="M153.33 125.551c.49-.533 3.163-1.366 3.398-.32.157.695-.99.914-1.64 1.083-.497.125-1.561.66-1.941.008-.206-.353.05-.622.183-.77z"/></g><g><path fill="#fff" d="M159.228 126.862c-.237.733-1.487.802-1.697.155"/></g></g></g></g><g><g><g><path fill="#8f7ece" d="M19.245 125.822c-.23.792-.349 1.598-.696 2.378-.945-.247-1.775-.558-2.88-.998-.559-.222-2.766-.909-2.167-1.623.408-.492 4.809-.041 5.743.243z"/></g><g><path fill="#b1bc00" d="M50.1 137.373c2.73.574 5.436 1.183 8.226 1.67.2.035.42.076.65.116 1.14-1.4.855-2.964.458-4.545-2.837-.846-5.768-1.437-8.643-2.17-2.153-.547-4.317-1.055-6.474-1.564-.252 1.652-.509 3.302-1.127 4.911 2.3.567 4.605 1.101 6.91 1.582z"/></g><g><path fill="#b1bc00" d="M17.1 127.767c1.288.89 3.66 1.64 5.617 2.26 1.863.596 3.762 1.193 5.434 1.676 4.426 1.283 8.927 2.552 13.457 3.703-.038-.025-.08-.042-.12-.066.456-1.612.737-3.244 1.074-4.868-.923-.22-1.845-.443-2.762-.674-5.488-1.374-11.059-2.546-16.483-3.67-1.824-.379-3.737-.864-5.592-.605a7.142 7.142 0 0 0-.625 2.244z"/></g><g><g><path fill="#4d3d87" d="M59.706 137.117c.115-.587.812-.954 1.555-.819l2.885.525c.745.136 1.254.723 1.137 1.312-.114.586-.81.955-1.554.82l-2.885-.525c-.744-.137-1.253-.723-1.138-1.313z"/></g><g><path fill="#4d3d87" d="M41.502 128.717c.71-.276 1.537-.032 2.255.075 3.572.522 7.167 1.251 10.969 2.225.667.17 1.3.34 2.202.633 1.345.437 2.618.997 2.35 2.212-.06.278-.287.869-.847.8-.68-.08-.544-1.183-.928-1.525-.321-.291-1.247-.41-1.966-.608-1.934-.538-3.835-1.089-5.803-1.527-2.905-.65-5.664-1.058-7.74-1.802-.205-.072-.524-.08-.492-.483z"/></g><g><path fill="#4d3d87" d="M41.61 135.404l1.58.391c.618-1.608.875-3.259 1.127-4.91-.586-.139-1.167-.275-1.753-.415-.337 1.624-.619 3.256-1.074 4.867.04.025.083.042.12.067z"/></g><g><path fill="#4d3d87" d="M58.98 139.165c.837.148 1.778.28 2.193.027.185-.113.424-.598.555-.881.445-.954.48-2.057.032-2.928-.765-.282-1.54-.53-2.322-.763.398 1.58.683 3.145-.458 4.545z"/></g></g></g><g><g><g><path fill="#fff" d="M55.925 136.09c.468.858-2.323.522-2.305-.158.021-.795 1.792-.29 2.25.077.03.024.038.05.055.081z"/></g><g><path fill="#fff" d="M52.628 135.297c.26.725-2.099.545-1.896-.19"/></g></g><g><g><path fill="#fff" d="M21.286 126.71c.646.065 1.653.283 1.647.664-.007.487-.678.324-1.198.234-.52-.088-1.165-.213-1.123-.6.044-.424.42-.326.674-.299z"/></g><g><path fill="#fff" d="M24.213 128.172c.485.02.943.214.886.547-.1.56-1.695.297-1.561-.248.05-.208.273-.316.675-.3z"/></g></g></g></g></g></g></g></svg>