<svg xmlns="http://www.w3.org/2000/svg" width="169" height="169" viewBox="0 0 169 169"><g><g><path fill="#eff2fd" d="M13 76.5C13 34.25 47.25 0 89.5 0S166 34.25 166 76.5 131.75 153 89.5 153 13 118.75 13 76.5z"/></g><g><g/><g><g><g><g><path fill="#8f7ece" d="M145.356 154.08l-.156 1.14a3 3 0 0 1-3.378 2.565l-84.56-11.597a3 3 0 0 1-2.564-3.379l.156-1.139z"/></g><g><path fill="#8f7ece" d="M62.816 83.652a3 3 0 0 1 3.38-2.564l84.559 11.596a3 3 0 0 1 2.563 3.38l-7.956 58.016-90.502-12.41z"/></g><g opacity=".75"><path fill="#fff" d="M143.028 153.741l7.663-55.883a2.844 2.844 0 0 0-2.431-3.204L68.067 83.657a2.843 2.843 0 0 0-3.203 2.432L57.2 141.972z"/></g></g><g><g><path fill="#fff" d="M143.491 146.84c-.947 1.048-1.386 3.392-1.677 5.722-.125.996-.3 2.612.578 2.826 1.056.256 1.548-1.55 1.72-2.196.549-2.044.797-4.625.527-6.038-.194-.271-.771-.408-1.148-.315z"/></g><g><path fill="#fff" d="M139.58 152.144c-2.073-.95-3.352 3.87-1.482 4.15.812.121 2.3-1.98 2.212-3.208-.034-.44-.37-.777-.73-.942z"/></g></g><g><g><path fill="#efad1b" d="M101.42 89.68c0 18.663 15.13 33.791 33.791 33.791 18.66 0 33.79-15.128 33.79-33.79s-15.129-33.791-33.79-33.791c-18.662 0-33.791 15.129-33.791 33.79z"/></g><g><g><g><path fill="#fff" d="M144.137 113.742c.417-1.454.748-2.887 1.926-3.75.4-.291 1.107-.528 1.72-.666 1.31-.294 2.63-.242 4.029-.245 1.421-.003 2.923-.117 3.82-.771.627-.457.934-1.198 1.12-2.033.207-.916.213-2.01-.14-2.909-.064-.167-.155-.344-.245-.561-.075-.186-.14-.363-.244-.596-.081-.179-.143-.277-.211-.525-.053-.195-.12-.55-.07-.807.164-.84 1.213-1.146 1.227-2.032.003-.214 0-.368-.106-.491-.063-.075-.281-.217-.315-.386-.057-.301.383-.663.42-1.05.073-.745-.672-1.146-.701-1.893-.02-.545.25-.993.631-1.297.054-.044.146-.053.212-.105.055-.046.085-.14.139-.175.136-.087.312-.127.456-.211.49-.289 1.028-.712 1.26-1.192.294-.602.182-1.44-.174-2.067-.077-.135-.217-.281-.316-.42-.274-.395-.6-.775-.946-1.158-.878-.969-1.861-1.874-2.77-2.838a15.126 15.126 0 0 1-.98-1.122c-.248-.32-.599-.673-.805-1.087-.026-.05-.036-.17-.07-.245-.291-.643-.201-1.664-.141-2.418.07-.884.218-1.725.07-2.733-.164-1.122-.758-2.243-1.297-3.155a20.247 20.247 0 0 0-.876-1.367c-1.488-2.109-3.467-4.283-5.362-5.748-.316-.244-.63-.466-.98-.7-.32-.215-.61-.41-.948-.597-.467-.258-.922-.53-1.437-.771-1.719-.804-3.612-1.438-5.677-1.752-.609-.092-1.223-.146-1.859-.21-.619-.063-1.255-.15-1.892-.176-.425-.017-.82.04-1.225.036-2.846-.03-5.401.565-7.467 1.506-.29.133-.562.283-.84.42-.864.428-1.665.836-2.489 1.332-.813.491-1.436 1.054-2.102 1.682-.427.404-.828.832-1.227 1.297-.193.225-.394.464-.524.737-.207.128-.295.364-.422.56-.124.193-.272.367-.386.561-.108.185-.173.4-.28.596-.226.414-.426.8-.631 1.296-.057.14-.147.29-.21.456-.019.05.015.102 0 .14-.171.449-.328.897-.456 1.367-.186.69-.342 1.356-.456 2.14-.062.437-.14.987-.175 1.576-.03.514-.038 1.06-.034 1.647.016 2.262.4 4.518.947 6.519.064.235.172.464.245.701.918 3.016 2.226 5.334 3.82 7.605.256.365.569.699.841 1.052.274.356.544.717.805 1.086.532.748 1.055 1.5 1.508 2.313.454.815.871 1.688 1.156 2.63.152.505.316 1.045.351 1.576.13 2.018-2.489 10.386-3.889 15.272a33.628 33.628 0 0 0 15.748 3.89c2.084 0 4.125-.19 6.105-.553.88-2.833 1.816-5.864 2.083-6.762.234-.79.5-1.601.736-2.419z"/></g><g><g opacity=".67"><path fill="#cad309" d="M135.717 111.64c-.229-1.145-.852-2-1.026-3.154-.177-1.162.201-2.133.673-2.838 1.27-1.898 3.818-2.32 6.453-2.805.867-.159 1.888-.409 2.92-.42 1.036-.012 2.362-.026 2.793.525.362.462.235 1.589.353 2.454.08.592.316 1.717.995 1.717.508 0 .684-.583.738-1.017.063-.492.065-1.173.065-1.717 0-1.246.189-2.63-.065-3.4-.513-1.553-2.629-1.636-4.654-1.402-2.723.315-4.765 1.124-7.062 1.893-.54.181-1.103.392-1.7.561-.54.153-1.296.347-1.894.316-.42-.023-1.057-.234-1.187-.736-.13-.49.12-1.105.288-1.508.929-2.219 2.957-2.909 5.392-3.469 1.95-.45 3.98-.57 6.26-.386 2.65.215 5.079.721 7.672.49.575-.05 1.058-.272 1.123-.63.119-.654-.592-1.41-.898-1.822-.43-.58-.792-1.057-1.189-1.508-.882-1.003-1.73-1.927-2.535-2.838-.867-.983-1.782-1.845-3.019-2.314-1.265-.48-2.873-.473-4.589-.56-1.262-.065-3.646-.196-4.59.35-.768.443-1.167 1.528-1.38 2.593-.156.784-.215 1.64-.482 2.348-.542 1.443-1.788 2.243-3.017 3.015-.862.541-1.918 1.126-2.472 2.033-.862 1.41-.737 3.645-.833 5.922-.186 4.356-.294 8.808-1.126 12.443-.37 1.627-1.61 4.453-2.214 6.284a33.687 33.687 0 0 0 7.807 1.362c.773-2.694 1.565-6.081 2.144-8.382.264-1.048.495-2.207.256-3.4z"/></g><g><g opacity=".29"><path fill="#8f7ece" d="M140.351 88.823c-.7.278-1.052 1.186-1.365 1.892-.334.752-.662 1.54-1.017 2.138-.708 1.197-1.826 2.326-3.048 3.26-1.113.85-2.378 1.785-3.786 2.523-.631.331-1.457.72-2.313.841-.865.122-1.867-.046-2.524-.595-.957-.8-.795-2.568-.315-3.75.652-1.607 1.718-2.722 2.84-3.82.51-.502 1.254-1.145 1.366-1.964.062-.45-.05-.91-.105-1.296-.066-.454-.135-.902-.034-1.332.289-1.251 1.793-2.002 2.874-2.42 1.22-.47 2.6-.748 3.925-.98 1.34-.236 2.922-.285 4.556-.351 1.682-.067 3.421.223 4.346-.49.808-.623.715-2.004.456-3.155-.266-1.175-.563-2.063-.631-3.504-.039-.812.075-1.783.7-1.543.671.256 1.452.982 2.033 1.612.839.91 1.74 1.815 2.174 3.05.53 1.513.14 3.867.349 5.537.084.665.235 1.456.106 2.033-.181.807-.665 1.635-1.578 1.857-1.156.521-7.866.004-9.009.457z"/></g><g opacity=".41"><path fill="#ff5000" d="M154.105 103.716c-.02-.006-.03-.033-.07-.035-.734-.042-.672.981-.842 1.297-.194.364-.934.423-1.542.456-1.399.075-2.369.034-3.89.034-.544 0-1.452-.15-1.682.21-.167.262.016.778.07.948.285.882.91.97 2.137 1.016a34.51 34.51 0 0 1 1.613.105c1.146.096 2.373.266 3.258.174.523-.052.95-.275 1.088-.595.173-.403.02-.929.07-1.612.041-.573.201-.93.175-1.297-.026-.358-.127-.624-.385-.701z"/></g><g opacity=".41"><path fill="#ff5000" d="M131.464 67.507c1.87 0 3.607.318 5.118.771 1.435.431 2.966 1.049 4.134 1.753 1.151.692 2.366 1.664 2.91 2.978.668 1.62.187 3.649-.527 4.767-.93 1.458-3.243 1.748-5.116 2.173-1.382.313-2.764.673-4.065.981-.71.167-1.358.308-1.964.526-1.772.637-3.389 1.738-4.206 3.365-.402.8-.581 1.612-.947 2.349-.649 1.312-1.82 2.927-3.714 2.943-.979.008-1.745-.36-2.488-.84-1.314-.851-2.21-2.121-2.838-3.787-.61-1.61-.992-3.483-.702-5.747.217-1.693.894-3.623 1.648-4.977.849-1.525 1.645-2.72 2.838-3.82 2.169-2.002 5.59-3.638 9.848-3.435h.07zm9.253 3.014c-.04-.005.088.081.14.105z"/></g></g></g></g><g><g><g><path fill="#fff" d="M105.638 82.945c.547 1.01.446 2.945.23 4.84-.09.81-.26 2.12-.993 2.12-.882 0-.928-1.518-.941-2.06-.042-1.72.254-3.806.738-4.868.206-.178.688-.176.966-.032z"/></g><g><path fill="#fff" d="M107.715 87.882c1.818-.353 1.91 3.697.378 3.561-.665-.061-1.439-2.003-1.135-2.955.113-.343.441-.543.757-.606z"/></g><g><path fill="#fff" d="M106.284 98.291c.629-.193 1.236.542 1.534 1.447.237.728.363 2.228-.52 2.225-.387 0-.953-.525-1.217-1.27-.314-.874-.608-2.156.203-2.402z"/></g></g><g><g><path fill="#fff" d="M160.924 75.464c1.91-.089-.484-4.426-1.56-2.882-.563.805.785 2.369 1.56 2.882z"/></g><g><path fill="#fff" d="M163.876 77.022c-.315-.254-1.097-.606-1.56.065-.606.875.298 2.81.511 3.645.256 1.016.285 3.044 1.425 3.357 1.624.445 1.1-2.557.874-3.582-.118-.545-.289-1.068-.411-1.524-.213-.78-.234-1.471-.839-1.96z"/></g></g></g></g></g><g><g><g><path fill="#fff" d="M137.641 142.072c-.232 1.396-.697 3.547-1.04 5.302-.17.876-.207 2.104-1.238 1.833-.748-.197-.64-.957-.549-1.513.222-1.38.507-2.533.791-3.955.141-.703.406-1.474.352-1.955-.061-.54-.524-.83-.678-1.338-.402-1.329-.34-2.738-.3-4.422.015-.623-.216-4.442 1.204-4.045.738.205.517 1.224.464 2.055-.128 2.032-.126 3.553.222 5.464.177.981.206 1.29 1.02.446 1.041-1.08 1.855-2.863 2.607-4.622.383-.898.67-2.392 1.586-2.227 1.31.236.557 1.497.02 2.776-1.122 2.676-2.426 5.373-4.46 6.201z"/></g><g><path fill="#fff" d="M107.206 129.2c.543 3.824-1.447 9.78-4.377 11.365-.431.233-1.048.42-1.622.333-1.126-.171-1.827-1.05-2.077-1.79-.907-2.665-.005-7.706 1.656-11.61.472-1.108 1.172-2.941 1.905-3.173.24-.077.599.048.911.062.381.015.611-.028.851.043 1.524.456 2.056 2.04 2.42 3.148 1.002-.297 1.933-2.33 2.955-2.674.41-.137.964.238.938.666-.026.444-.475.77-.78 1.105-.884.972-1.793 1.885-2.78 2.526zm-3.621-3.358c-.769 1.375.444 2.744 1.927 2.543zm-1.423 2.183c.017-.066-.064-.07-.077.044-.4.918-.711 2.02-1.036 3.157-.6 2.101-.894 4.051-.754 5.893.058.77.196 2.036.947 2.262.996.3 2.019-1.094 2.508-1.805 1.448-2.107 2.264-5.419 2.009-7.726-1.481.304-3.189-.76-3.597-1.825z"/></g><g><path fill="#fff" d="M123.388 133.228c.421 3.302-1.632 8.269-3.806 10.066-.978.807-2.938 1.346-3.93-.193-1.077-1.672-.648-5.126.317-8.542.388-1.378.968-2.597 1.43-3.84.4-1.081.566-1.896 1.333-2.341.553-.321 1.633-.425 2.403-.044 1.063.527 1.664 2.18 1.98 3.29.7-.06 2.23-2.349 3.061-2.114.32.09.544.431.536.683-.023.71-1.074 1.343-1.562 1.746-.681.562-1.164.868-1.762 1.289zm-2.043-2.377c-.195-.4-.585-1.033-.859-1.175-.963-.499-1.566.365-1.542 1.219.026 1.04 1.732 1.79 2.804 1.332-.076-.363-.172-.9-.403-1.376zm-3.271 1.92c-.353.676-.561 1.807-.79 2.762-.464 1.948-.882 3.519-.745 5.165.055.674.182 1.79.834 1.964.77.209 1.79-1.023 2.269-1.674 1.328-1.804 2.463-4.972 2.333-7.235-1.216.289-3.081-.188-3.85-1.166l-.051.184z"/></g><g><path fill="#fff" d="M133.014 133.926c-1.172-.323-.921-1.078-1.753-1.298-.973-.255-1.805.887-2.404 1.904-1.19 2.023-2.134 4.784-2.228 7.33-.039 1.042.01 2.732.815 2.955.477.132.876-.404 1.203-.719.396-.384.693-.683.92-1.13-.86-.174-2.247-.034-1.963-1.027.17-.597.925-.472 1.578-.412.876.083 1.838.164 2.35.605.795.686.208 3.12.034 4.526-.112.897-.118 1.943-.974 1.78-.81-.156-.615-1.258-.56-1.755.097-.867.216-1.34.367-2.218-.983 1.32-3.165 2.85-4.568.885-1.72-2.407.112-11.025 3.254-13.477.635-.496 1.797-1.007 3.035-.395.511.253 2.227 1.979.894 2.446z"/></g><g><path fill="#fff" d="M112.802 126.351c-.082 1.311-.673 2.587-.981 3.902-.896 3.816-2.157 7.845-2.378 11.338 1.112.664 3.827.288 3.526 1.606-.137.596-.6.607-1.579.412-1.246-.25-2.55-.356-3.14-1.097-.52-.655-.138-2.453.098-3.823.6-3.484 1.516-7.114 2.763-10.83.353-1.053.66-2.57 1.691-1.508z"/></g><g><path fill="#fff" d="M90.54 131.076c1.202.888 2.487 2.541 1.366 4.507-.654 1.149-3.317 3.423-4.734 2.63-.953-.532-.314-2.454.009-3.98.793-3.753 1.733-7.459 2.911-11.585.415-1.453.308-2.207 1.658-1.85 3.126.829 4.94 2.746 3.727 5.779-.946 2.363-3.354 3.434-4.937 4.499zm3.56-5.025c.76-1.88-.215-3.217-2.508-3.771-.704 2.526-1.124 4.893-1.86 7.435 1.163-.569 3.596-1.75 4.368-3.664zm-5.982 10.707c.844-.244 2.144-1.008 2.561-1.991.607-1.43-.58-2.146-1.438-2.868-.451 1.661-.743 3.236-1.123 4.859z"/></g><g><path fill="#fff" d="M98.721 123.12c1.024-.003.51 1.195.265 2.333-.917 4.243-1.856 8.614-2.991 13.021-.211.817-.432 1.404-1.08 1.219-.65-.185-.51-.848-.298-1.745 1.074-4.514 1.993-8.592 3.069-13.065.22-.908.395-1.761 1.035-1.763z"/></g></g><g><g><path fill="#fff" d="M99.451 118.619a.55.55 0 0 1-.259-.066c-3.666-1.991-6.128-5.285-6.583-8.81-.231-1.782.125-3.455.978-4.616-.245-3.529 2.246-7.879 4.21-9.957a.54.54 0 1 1 .786.743c-1.597 1.693-3.679 5.188-3.91 8.18a4.617 4.617 0 0 1 2.055-.716c1.432-.157 3.495.25 4.643 1.515.708.778.96 1.763.734 2.847-.185.89-.727 1.565-1.567 1.952-1.343.62-3.143.342-4.226-.25-1.157-.633-1.953-1.527-2.38-2.668-.293.816-.384 1.795-.251 2.832.413 3.18 2.664 6.171 6.028 7.997a.54.54 0 0 1 .217.734.537.537 0 0 1-.475.283zm-4.74-13.155l.006.046c.21 1.324.92 2.328 2.114 2.98.826.452 2.247.683 3.253.218.524-.242.848-.642.962-1.19.154-.741-.007-1.38-.477-1.898-.853-.94-2.518-1.298-3.724-1.166-.88.096-1.596.436-2.135 1.01z"/></g><g><path fill="#fff" d="M98.036 99.458h-.024a.54.54 0 0 1-.516-.567l.114-2.51-2.535 1.09a.54.54 0 1 1-.428-.994l3.329-1.433a.542.542 0 0 1 .754.522l-.154 3.375a.541.541 0 0 1-.54.517z"/></g></g><g><g><path fill="#fff" d="M110.3 123.153a.611.611 0 0 1-.542-.754c.089-.368.154-.752.187-1.14.225-2.559-.875-4.835-2.404-4.968-2.266-.201-3.81-2.967-3.515-6.297.07-.806 1.29-.7 1.218.107-.226 2.56.875 4.835 2.405 4.97 2.264.2 3.81 2.965 3.515 6.296a8.99 8.99 0 0 1-.218 1.323.612.612 0 0 1-.647.463z"/></g><g><path fill="#fff" d="M103.059 122.012c-.237-3.59 1.791-7.193 4.581-6.946 1.529.135 3.01-1.913 3.236-4.473.071-.805 1.29-.698 1.22.108-.294 3.331-2.3 5.785-4.564 5.585-1.53-.137-3.012 1.912-3.236 4.47a7.4 7.4 0 0 0-.015 1.175c.052.809-1.166.888-1.222.081z"/></g><g><g><path fill="#fff" d="M105.73 117.852a.27.27 0 0 0 .252.29l2.685.199a.274.274 0 0 0 .29-.252.272.272 0 0 0-.25-.29l-2.685-.198a.271.271 0 0 0-.291.25z"/></g><g><path fill="#fff" d="M105.39 119.661l3.632.267c.15.012.28-.1.29-.25a.27.27 0 0 0-.25-.29l-3.63-.267a.271.271 0 0 0-.041.54z"/></g><g><path fill="#fff" d="M109.315 120.952l-4.354-.321a.271.271 0 1 0-.04.541l4.354.32a.271.271 0 0 0 .04-.54z"/></g><g><path fill="#fff" d="M106.572 113.742l2.295.17a.27.27 0 0 0 .29-.25.27.27 0 0 0-.252-.292l-2.293-.17a.272.272 0 1 0-.04.542z"/></g><g><path fill="#fff" d="M109.676 112.13a.27.27 0 0 0-.251-.29l-3.104-.23a.27.27 0 0 0-.29.251c-.012.15.1.28.25.29l3.105.23a.27.27 0 0 0 .29-.251z"/></g><g><path fill="#fff" d="M106.082 110.601l3.72.276a.272.272 0 0 0 .04-.542l-3.72-.274a.272.272 0 0 0-.291.25c-.01.15.101.279.251.29z"/></g></g></g></g></g><g><g><g><g><g><path fill="#fcd2c0" d="M66.583 32.05c-.294 1-2.81 7.092-3.87 9.606-.927 2.198-4.293 7.893-4.81 8.537-.294.3-.572.588-.787.797-.387.377-.791.769-1.168 1.126-.357.338-1.535 1.44-1.137 1.867.328.354 1.336-.826 1.71-1.02-.289.606-.582 1.637-.596 2.709-.003.283-.045.876.232.91.379.046.432-.426.504-.64.096-.3.205-.513.24-.777.071.382-.024 1.256.133 1.692.05.14.176.291.317.28.33-.026.319-.491.378-.802.077-.418.16-.691.209-.979a.177.177 0 0 1-.003-.038l.003.03v.008c.027.32-.044 1.235.095 1.66.055.171.179.355.362.335.384-.043.368-.813.407-1.082.062-.47.137-.795.179-1.197.092.315.007 1.259.151 1.812.057.23.177.483.412.447.297-.044.365-.681.396-.896.15-1.031.324-2.182.626-2.99a8.622 8.622 0 0 1 .85-1.69c1.662-2.14 4.672-6.667 5.829-9.053 1.194-2.465 3.838-7.884 4.444-9.927-.932.107-4.259-.589-5.106-.725z"/></g><g opacity=".13"><path d="M64.173 42.253c.032-.157-.661-.598-1.318-.943l-.146.349a11.29 11.29 0 0 1-.199.443c.715.234 1.633.308 1.663.15z"/></g></g><g><path fill="#b1bc00" d="M72.968 23.403c-1.847.108-2.954 1.85-3.691 2.95-2.005 2.995-3.154 6.037-4.487 9.358l6.022 2.804c1.062-1.759 2.068-3.545 2.916-5.361.474-1.018.973-2.162 1.343-3.409.345-1.175.603-2.59.313-3.975-.287-1.37-1.176-2.439-2.416-2.367z"/></g></g><g><g><g><path fill="#fcd2c0" d="M94.495 82.12l5.855-.136-.268-7.344-5.852.137z"/></g><g><g><path fill="#ff5000" d="M93.572 81.598c-1.441.373-2.77.814-3.825 1.674-.32.257-.78.615-.734 1.056.06.586 1.11.748 1.995.846 1.857.205 3.593.258 5.542.23 1.574-.021 2.997-.165 3.544-1.072.401-.667.51-1.52.637-2.379.125-.857.156-1.706.052-2.725-1.317-.21-3.08-.33-4.799-.3.073-1.013-.51-1.393-1.587-1.486-.37-.033-.99-.004-1.157.178-.336.373.16 3.368.332 3.978z"/></g><g><g><path fill="#4d3d87" d="M92.192 78.756a.53.53 0 0 1 .531.06c.621.428.997 2.254.924 2.623a.152.152 0 0 1-.096.11.176.176 0 0 1-.156-.02c-.466-.306-1.467-1.533-1.523-2.23-.013-.19.038-.335.159-.437a.646.646 0 0 1 .16-.106zm1.127 2.315zm-.789-2.019c-.089-.062-.144-.05-.192-.03a.586.586 0 0 0-.088.057c-.042.038-.058.105-.052.202.038.467.656 1.338 1.12 1.79-.074-.592-.386-1.741-.788-2.019z"/></g><g><path fill="#4d3d87" d="M90.973 79.675c.147-.066.332-.06.552.02.772.274 1.889 1.409 2.03 1.734.025.047.015.1-.016.14a.16.16 0 0 1-.141.06c-.569-.035-2.117-.602-2.568-1.174-.123-.153-.166-.304-.125-.446a.49.49 0 0 1 .268-.334zm2.09 1.598zm-1.652-1.304c-.13-.047-.23-.056-.293-.027-.042.021-.077.07-.104.146-.012.052.01.119.074.2.304.381 1.321.823 1.976.985-.357-.41-1.114-1.112-1.653-1.304z"/></g><g><path fill="#4d3d87" d="M91 81.703l2.382-.363.058.292-2.382.363z"/></g></g><g><g><path fill="#fff" d="M90.859 83.317c1.549.633 3.418.356 4.419-.535.884-.787 1.142-1.978 1.244-3.435.007-.124.02-.27.03-.423-.192 0-.38 0-.571.003.012-.149.007-.283-.012-.407.007.087.015.172.012.256-.068 1.863-.52 4.307-3.262 4.327a4.127 4.127 0 0 1-1.742-.352 1.42 1.42 0 0 1-.229-.138c-.202.108-.4.222-.588.35.22.154.5.273.699.354z"/></g><g><path fill="#fff" d="M100.395 81.992c-1.863-.229-2.815.8-3.245 2.096-.098.3-.355 1.019-.203 1.311.159-.005.316-.011.47-.02.13-.211.153-.605.235-.91.406-1.542 1.103-2.138 2.706-1.947.092.01.18.045.27.077.03-.184.057-.371.085-.558a3.465 3.465 0 0 0-.318-.049z"/></g></g><g><path fill="#4d3d87" d="M99.9 84.577c-.642.69-1.935.808-3.356.83-1.949.027-3.684-.026-5.542-.23-.792-.087-1.713-.228-1.942-.677z"/></g></g></g><g><g><path fill="#8f7ece" d="M92.24 49.087c1.774 10.61.95 16.121 1.487 26.22.368.225 6.11.401 7.392.47 1.879-10.867 1.81-17.316.765-29.387-3.386 1.412-6.694 2.054-9.644 2.697z"/></g><g opacity=".13"><path d="M92.24 49.087c1.774 10.61.95 16.121 1.487 26.22.368.225 6.11.401 7.392.47 1.879-10.867 1.81-17.316.765-29.387-3.386 1.412-6.694 2.054-9.644 2.697z"/></g><g><g><path fill="#fff" d="M100.604 56.109c-.1.427.356 1.394.797 1.255.455-.143-.06-1.108-.381-1.391-.12-.042-.318.02-.416.136z"/></g><g><path fill="#fff" d="M100.515 58.53c-.653-.027-.232.896.067 1.47.202.39.481.828.768.684.403-.2-.356-1.907-.694-2.126a.37.37 0 0 0-.14-.027z"/></g></g></g></g></g><g><g><g><g><g><path fill="#fcd2c0" d="M53.009 84.797c-.432.007-.8.26-1.374.537-.035.016-1.192.665-1.266.642-.115-.033-.788-1.64-.88-1.838-1.38-2.99-2.75-6.111-4.392-8.983-.174-.304-.35-.621-.53-.939-.147-.64-.42-1.506-.553-2.027-.12-.456-.242-.935-.35-1.376-.099-.417-.421-1.789-.973-1.724-.454.054.017 1.344-.01 1.7-.356-.503-1.06-1.222-1.937-1.766-.23-.144-.7-.468-.866-.292-.227.242.136.514.278.67.196.218.32.398.522.556-.351-.14-1.026-.645-1.463-.752-.141-.035-.327-.022-.388.082-.142.243.247.467.473.662.307.264.488.457.703.634a.53.53 0 0 1 .005.005l-.005-.005c-.274-.14-.996-.644-1.416-.76-.17-.048-.381-.053-.456.084-.155.29.487.662.692.824.354.277.585.493.897.722-.307-.093-1.044-.622-1.57-.8-.22-.072-.487-.117-.574.065-.111.23.38.596.54.725.777.618 1.64 1.313 2.154 1.928.438.52.778 1.031 1.06 1.6.907 4.06 1.952 8.624 3.198 12.69.233.758.483 1.604.819 2.454.489 1.242 1.138 2.97 3.087 2.845 1.075-.07 2.229-.612 3.302-1.036 1.085-.429 2.194-.832 3.065-1.394-.533-1.944-1.295-3.77-1.792-5.733z"/></g><g opacity=".13"><path d="M53.009 84.797c-.432.007-.8.26-1.374.537-.035.016-1.192.665-1.266.642-.115-.033-.788-1.64-.88-1.838-1.38-2.99-2.75-6.111-4.392-8.983-.174-.304-.35-.621-.53-.939-.147-.64-.42-1.506-.553-2.027-.12-.456-.242-.935-.35-1.376-.099-.417-.421-1.789-.973-1.724-.454.054.017 1.344-.01 1.7-.356-.503-1.06-1.222-1.937-1.766-.23-.144-.7-.468-.866-.292-.227.242.136.514.278.67.196.218.32.398.522.556-.351-.14-1.026-.645-1.463-.752-.141-.035-.327-.022-.388.082-.142.243.247.467.473.662.307.264.488.457.703.634a.53.53 0 0 1 .005.005l-.005-.005c-.274-.14-.996-.644-1.416-.76-.17-.048-.381-.053-.456.084-.155.29.487.662.692.824.354.277.585.493.897.722-.307-.093-1.044-.622-1.57-.8-.22-.072-.487-.117-.574.065-.111.23.38.596.54.725.777.618 1.64 1.313 2.154 1.928.438.52.778 1.031 1.06 1.6.907 4.06 1.952 8.624 3.198 12.69.233.758.483 1.604.819 2.454.489 1.242 1.138 2.97 3.087 2.845 1.075-.07 2.229-.612 3.302-1.036 1.085-.429 2.194-.832 3.065-1.394-.533-1.944-1.295-3.77-1.792-5.733z"/></g><g><g opacity=".13"><path fill="#fff" d="M39.72 71.958c-.044-.086-.069-.297-.057-.433.067-.791.845-1.625 1.4-1.775-.43.306-1.094.937-1.343 2.208z"/></g></g><g opacity=".13"><path fill="#fff" d="M42.708 70.74a3.313 3.313 0 0 0-.69 1.994"/></g></g><g opacity=".13"><path d="M49.64 84.49c-.315.725-1.209 3-.894 3.384.249.307 1.631-1.575 1.623-1.892z"/></g></g><g><path fill="#efad1b" d="M52.15 85.02c.297 1.196.576 2.4 1.203 3.43 2.042-.708 4.054-1.48 5.89-2.594.654-1.366 1.605-2.147 2.567-2.908-.91-.848-2.304-.5-3.342-.255-2.094.496-4.657 1.398-6.318 2.326z"/></g></g><g><g><g><path fill="#8f7ece" d="M50.295 52.96a46.605 46.605 0 0 1 24.768 14.047C81.483 74 85.965 82.186 88.146 92.526c1.118 5.31 1.394 12.204.857 17.907-1.087 11.559-4.985 20.5-10.079 28.522-1.632 2.569-3.988 5.7-6.219 8.257-.65.743-1.697 2.279-2.359 2.466-1.211.343-3.247-.014-4.933 0-10.525.09-22.511.096-33.134-.322-1.741-8.824-2.235-17.858-5.68-24.661-2.631-5.194-6.282-8.691-10.617-12.117-.684-.543-1.38-1.107-2.145-1.608-.673-.442-1.79-.73-2.037-1.716 2.34.101 4.593.92 6.863 1.501 4.52 1.157 9.064 2.178 13.725 3.217 2.276.507 4.492 1.357 6.756 1.716 10.893 1.724 19.052-3.472 23.697-9.65 2.528-3.364 4.214-7.302 4.718-12.332.494-4.945-.748-10.127-2.79-13.939-3.876-7.245-10.885-12.023-20.8-13.081 2.075-4.61 4.233-9.135 6.326-13.726z"/></g><g><path fill="#4d3d87" d="M3.007 100.136c-.091.006.849-.039 1.178 0 2.98.347 6.115 1.405 9.221 2.144 6.526 1.552 11.045 2.867 17.693 4.826 3.205.945 6.53 1.858 7.292 3.967.746 2.062-.522 4.282-1.825 4.825-1.37.572-3.771.017-5.36-.321-5.253-1.118-9.595-2.531-14.26-4.074-4.433-1.468-9.494-2.532-13.726-4.612-1.781-.875-4.078-2.332-2.895-5.146.388-.925 1.332-1.514 2.682-1.61z"/></g><g><g opacity=".46"><path fill="#fff" d="M71.197 149.137c-11.477-.03-23.548.02-35.17-.644-.322-6.026.054-13.38 1.502-18.549.978-3.502 2.357-7.555 7.077-6.434 3.082.732 5.748 3.283 7.827 5.362 5.393 5.393 10.488 11.467 15.763 16.941.55.572 1.077 1.185 1.607 1.716.504.504 1.216.892 1.394 1.608z"/></g><g><g><path fill="#4d3d87" d="M70.348 149.778c.662-.187 1.709-1.722 2.36-2.466 2.23-2.558 4.587-5.688 6.219-8.257 5.094-8.021 8.992-16.963 10.079-28.522.536-5.702.26-12.597-.858-17.907-2.18-10.34-6.663-18.526-13.083-25.52A46.603 46.603 0 0 0 50.297 53.06c-.247.542-.497 1.081-.747 1.621.126.033.238.064.318.094 2.018.767 3.974 1.943 6.006 3.002 1.974 1.032 4.043 2.059 5.897 3.217C72.845 67.918 80.983 78.736 82.25 95.2c.912 11.843-1.59 22.537-5.04 30.882-2.695 6.521-6.199 12.068-9.972 17.37-1.139 1.6-3.646 4.47-2.909 6.335l1.085-.008c1.686-.015 3.722.342 4.933 0z"/></g><g><g><g><path fill="#fff" d="M80.854 92.807c2.137.479.805-5.035-.852-3.655"/></g><g><path fill="#fff" d="M83.635 95.419c-.27-.376-1.028-1-1.742-.4-.933.784-.52 3.194-.538 4.18-.022 1.2-.604 3.448.559 4.138 1.659.983 1.986-2.491 2.05-3.691.032-.638.003-1.266.006-1.807.002-.925.187-1.696-.335-2.42z"/></g></g><g><g><path fill="#fff" d="M47.96 125.725c.534-1.28 2.429-2.65 4.37-3.882.831-.527 2.19-1.36 2.746-.672.667.828-.726 2.019-1.224 2.444-1.582 1.34-3.766 2.643-5.131 2.994-.321-.06-.684-.513-.761-.884z"/></g><g><path fill="#fff" d="M51.02 120.046c-1.707-1.441 2.026-4.593 3.06-3.052.444.67-.79 2.869-1.917 3.305-.407.153-.844-.004-1.142-.253z"/></g><g><path fill="#fff" d="M61.876 113.507c-.658-.442-.429-1.57.197-2.534.503-.775 1.817-2.03 2.482-1.2.296.366.23 1.294-.27 2.109-.582.955-1.564 2.2-2.409 1.625z"/></g></g></g></g></g></g><g><g><g><path fill="#4d3d87" d="M34.846 82.748c-.654 1.39-1.214 2.796-2.036 4.396-1.166 2.266-2.47 4.436-5.897 3.324-1.546-.502-3.969-1.713-4.504-3.002-1.061-2.556 1.43-6.293 2.25-8.364.052-.129-.062-.322.107-.322 3.444 1.24 6.85 2.517 10.08 3.968z"/></g><g><g><path fill="#4d3d87" d="M52.97 43.302c-2.105-.016-3.823-.96-5.363-1.715-1.54-.756-3.264-1.31-4.287-2.681.86-2.832 2.58-5.548 4.181-8.578.694-1.316 1.425-2.724 2.251-4.075.97-1.585 1.968-3.222 3.43-3.967.653-.332 1.842-.171 2.683.107 1.905.631 4.972 2.08 5.145 4.075.144 1.617-.971 3.345-1.609 4.61-1.398 2.783-2.698 5.628-4.074 8.364-.719 1.431-1.374 2.864-2.358 3.86z"/></g><g><path fill="#fff" d="M54.592 25.436c-.961 2.243-1.837 3.98-3.009 6.187-.438.827-.967 1.752-1.607 2.895-.277.494-1.175 2.56-2.038 2.467-1.15-.122-.523-1.943 0-3.11.534-1.19 1.061-1.97 1.607-3.002.641-1.21 1.107-2.202 1.61-3.002.618-.981 1.083-1.885 1.715-2.788 1.2-1.713 2.392-1.21 1.722.353z"/></g></g></g><g><g><g><g><path fill="#8f7ece" d="M41.603 37.297c1.738-.349 3.851.427 5.362.965 3.365 1.2 8.245 2.69 9.221 6.113.549 1.921-.392 4.473-1.071 6.111-2.198 5.298-4.507 9.77-7.186 14.797-2.445 4.592-4.285 10.14-6.969 15.012-.89 1.613-2.164 3.394-3.54 3.753-1.66.434-3.314-.185-4.609-.643-1.376-.487-2.463-.961-3.862-1.502-2.474-.958-5.712-1.879-6.539-4.29-1.246-3.63 1.596-9.206 2.68-11.686 1.606-3.674 3.038-7.114 4.61-10.294 1.936-3.913 3.167-6.247 5.04-9.973.779-1.548 1.58-3.266 2.68-4.824 1.038-1.469 2.275-3.156 4.183-3.539z"/></g><g opacity=".46"><path fill="#fff" d="M41.603 37.297c1.738-.349 3.851.427 5.362.965 3.365 1.2 8.245 2.69 9.221 6.113.549 1.921-.392 4.473-1.071 6.111-2.198 5.298-4.507 9.77-7.186 14.797-2.445 4.592-4.285 10.14-6.969 15.012-.89 1.613-2.164 3.394-3.54 3.753-1.66.434-3.314-.185-4.609-.643-1.376-.487-2.463-.961-3.862-1.502-2.474-.958-5.712-1.879-6.539-4.29-1.246-3.63 1.596-9.206 2.68-11.686 1.606-3.674 3.038-7.114 4.61-10.294 1.936-3.913 3.167-6.247 5.04-9.973.779-1.548 1.58-3.266 2.68-4.824 1.038-1.469 2.275-3.156 4.183-3.539z"/></g></g><g><path fill="#fff" d="M43.196 40.944c.632.795-.038 1.662-.321 2.359-2.176 5.328-4.992 10.247-7.507 15.44-2.133 4.406-3.92 9.021-6.005 13.725-.54 1.223-1.212 3.777-2.68 3.86-2.22.128-1.935-2.948-1.287-4.503 1.976-4.741 4.517-9.022 6.863-13.403 2.52-4.71 4.39-8.903 6.969-13.403.82-1.43 1.929-3.227 2.896-3.967.161-.126.715-.387 1.072-.108z"/></g></g><g><g><path fill="#fff" d="M39.302 73.671c-.966.756-1.694 2.69-2.293 4.635-.254.832-.648 2.185.07 2.499.862.376 1.554-1.09 1.8-1.615.773-1.663 1.372-3.83 1.356-5.075-.129-.26-.6-.464-.933-.444z"/></g><g><path fill="#fff" d="M35.16 77.61c-1.626-1.12-3.443 2.8-1.887 3.32.675.226 2.261-1.343 2.368-2.405.037-.383-.199-.72-.482-.915z"/></g></g></g></g><g><g><path fill="#4d3d87" d="M28.847 145.18c-.116.043 1.101-.383 1.551-.462 4.052-.704 8.586-.535 12.96-.774 9.182-.502 15.637-.536 25.143-.552 4.582-.007 9.307-.102 11.134 2.375 1.782 2.42.982 5.834-.517 7.055-1.578 1.286-4.955 1.491-7.175 1.666-7.343.578-13.603.413-20.339.202-6.4-.202-13.468.371-19.843-.712-2.68-.457-6.27-1.478-5.81-5.64.148-1.366 1.159-2.508 2.896-3.159z"/></g><g><g><path fill="#8f7ece" d="M33.422 148.22c1.11-.522 3.166-.298 5.168.044.858.146 2.245.407 2.2 1.19-.053.94-1.674.893-2.25.875-1.837-.059-4.04-.501-5.142-1.08-.175-.229-.146-.742.024-1.03z"/></g><g><path fill="#fff" d="M41.052 147.007c-.267-1.959 4.052-1.81 3.815-.189-.105.705-2.22 1.414-3.218 1.03-.357-.138-.55-.501-.597-.841z"/></g><g><path fill="#8f7ece" d="M72.752 150.46c-.167-.68.652-1.284 1.634-1.546.79-.21 2.395-.252 2.338.686-.024.415-.616.985-1.426 1.223-.951.28-2.332.516-2.546-.362z"/></g></g></g></g><g><g><g><g><g><path fill="#cad309" d="M64.198 112.853c.268 2.291-1.141 5.498-2.488 7.407-.292.415-.732.767-.941 1.175-.297.585-.448 1.366-.658 2.01a57.908 57.908 0 0 1-2.125 5.548c5.553.198 11.808 3.467 15.825 6.232-.557 1.695-.925 3.295-1.514 5.005-3.874-.163-8.25-1.097-12.738-2.253-4.731-1.218-10.98-2.855-11.185-6.814-.056-1.11.25-2.503.575-3.83.956-3.9 2.635-8.639 4.133-12.245-1.063.343-2.088.866-3.152 1.316-3.141 1.332-6.455 2.631-9.79 3.657 1.927 5.435 1.339 12.145.159 19.153-1.546.104-3.102.189-4.662.266-.97-4.95-1.965-9.825-2.44-15.201-.15-1.705-.365-3.733.211-5.556 1.25-3.957 4.817-5.934 7.522-7.305 3.056-1.548 6.003-2.894 9.118-4.061a.412.412 0 0 1 .205-.057c4.71 1.82 9.343 3.678 13.945 5.553z"/></g><g><g opacity=".18"><path d="M57.986 128.99a57.916 57.916 0 0 0 2.125-5.548c.21-.645.361-1.426.658-2.01.209-.41.648-.76.941-1.176 1.346-1.91 2.755-5.115 2.487-7.407-.433-.177-.87-.353-1.304-.529-.029.22-.05.44-.088.63-.34 1.685-.683 2.94-1.688 4.208-.528.667-1.046.986-1.717 1.848-1.497 1.921-1.763 4.632-2.671 7.409-.559 1.707-1.736 4.42-.772 5.001.438.266.888.07 1.244-.025 1.599-.428 3.27-.366 5.482.25 3.89 1.08 7.42 2.598 10.37 4.383.15.091.298.168.438.23.102-.341.206-.684.32-1.033-4.017-2.765-10.272-6.034-15.825-6.231z"/></g><g opacity=".18"><path d="M53.569 114.374c.28-.539.922-1.317.64-1.768-.174-.278-.544-.276-.727-.238-1.292.271-2.58.772-3.875 1.266-3.142 1.2-6.212 2.607-9.135 4.304-.618.358-1.349.701-1.648 1.253-.777 1.433-.165 2.848.021 3.901.667 3.771.729 7.564.493 11.906-.036.64-.112 1.557-.136 2.49-.015.565-.033 1.32.297 1.771.27-.017.538-.031.807-.05 1.18-7.007 1.768-13.717-.158-19.152 3.334-1.026 6.648-2.325 9.789-3.658 1.065-.45 2.088-.973 3.152-1.316-.15.36-.301.733-.452 1.113.009-.006.02-.01.03-.016.286-.468.51-1.049.901-1.806z"/></g></g></g><g><g><g><path fill="#fff" d="M50.002 132.623c-.402-.086-.387-.417-.506-.723-.118-.307-.526-1.426.366-1.116.435.15.907 1.594.14 1.839z"/></g><g opacity=".18"><path d="M51.909 133.985c-.437.356-1.427-.353-.876-.905"/></g><g><path fill="#fff" d="M62.334 114.967c.483.374 0 1.428-.436 2.083-.273.413-.64.791-1.035.526-.064-1.04.936-1.501 1.194-2.514.043-.067.127-.057.166-.132.036.014.073.025.11.037z"/></g><g><path fill="#fff" d="M60.345 118.201c.045.681-.667 1.832-1.275 1.067"/></g><g><path fill="#fff" d="M57.635 125.352c.402.607-.343 2.767-1.157 2.403-.503-.226-.12-.786.084-1.394.18-.535.263-1.41 1.073-1.009z"/></g></g><g><g><path fill="#fff" d="M41.653 117.528c-.208.52-.701.801-1.09 1.064-.355.242-.82.688-1.39.472a.294.294 0 0 0-.113-.222c.132-.352.474-.777.85-1.082.521-.425 1.33-1.115 1.743-.232z"/></g><g opacity=".18"><path d="M35.675 118.04c1.079.059-.5 2.2-1.03 2.013"/></g><g><path fill="#fff" d="M38.456 120.315c.76-.588.9 1.76.007 1.486"/></g><g><path fill="#fff" d="M46.959 109.989c-.048.543-.567.591-.923.748-.75.328-1.358.579-2.151.904-.316.13-.74.49-1.095.136.094-.578.936-1.024 1.628-1.384.596-.311 1.814-.849 2.263-.682.113.044.192.182.278.278z"/></g></g></g></g><g><g><g><path fill="#ff5000" d="M34.072 141.906c-1.263.456-2.42.965-3.287 1.845-.261.263-.64.631-.552 1.039.117.541 1.082.615 1.892.641 1.704.055 3.283-.024 5.044-.192 1.422-.14 2.695-.374 3.095-1.262.293-.65.301-1.455.326-2.267.023-.808-.04-1.6-.239-2.545-1.216-.098-2.824-.079-4.377.075-.038-.95-.609-1.261-1.593-1.27-.337-.003-.895.071-1.027.254-.265.369.5 3.128.718 3.682z"/></g><g><path fill="#fff" d="M35.743 142.889c-.813.904-2.476 1.3-3.945.825a3.466 3.466 0 0 1-.668-.28c.157-.134.324-.254.495-.37.074.045.147.085.22.113.424.155.972.258 1.613.2 2.331-.209 2.664-2.162 2.497-4.275a1.539 1.539 0 0 0-.035-.222c.029.11.046.228.052.361.172-.016.345-.031.517-.045.008.144.013.281.017.398.061 1.364-.046 2.496-.763 3.295z"/></g><g><path fill="#fff" d="M40.298 141.774c.09.004.192.009.293.023-.005.176-.01.352-.018.526-.085-.023-.17-.049-.252-.053-1.538-.062-2.095.938-2.246 2.015-.04.291-.024.657-.12.864a17.8 17.8 0 0 1-.421.055c-.166-.263-.01-.95.049-1.238.25-1.238 1.004-2.269 2.715-2.192z"/></g><g><path fill="#fff" d="M40.119 144.22c-.507.69-1.666.895-2.95 1.02-1.76.169-3.339.248-5.043.193-.725-.024-1.572-.085-1.826-.487z"/></g></g><g><g><path fill="#fff" d="M32.53 139.359a.483.483 0 0 1 .49.017c.608.355 1.14 2.027 1.113 2.379a.133.133 0 0 1-.075.109.156.156 0 0 1-.141-.007c-.456-.25-1.49-1.321-1.613-1.968-.036-.177-.002-.317.094-.419a.647.647 0 0 1 .132-.111zm1.267 2.077c-.13-.547-.531-1.594-.925-1.825-.088-.052-.137-.036-.179-.013a.485.485 0 0 0-.073.059c-.033.038-.043.103-.025.193.083.432.732 1.198 1.202 1.586z"/></g><g><path fill="#fff" d="M31.522 140.3c.126-.072.294-.08.502-.022.726.199 1.857 1.173 2.022 1.468a.125.125 0 0 1-.002.132.14.14 0 0 1-.122.068c-.517.007-1.981-.406-2.446-.905-.13-.138-.183-.274-.161-.41.024-.154.093-.266.207-.33zm2.06 1.337zm-1.632-1.095c-.123-.033-.214-.036-.267-.004-.038.022-.066.071-.079.145-.005.05.023.11.087.179.316.334 1.28.673 1.891.775-.367-.358-1.126-.956-1.632-1.095z"/></g><g><path fill="#fff" d="M31.76 142.195l2.118-.515.083.268-2.118.515z"/></g></g></g><g><g><g><path fill="#ff5000" d="M73.944 142.298c-.044 1.343.003 2.605.498 3.736.148.34.349.829.76.898.548.092.973-.778 1.297-1.521.681-1.564 1.192-3.06 1.686-4.758.397-1.373.65-2.643-.028-3.343-.496-.512-1.24-.816-1.984-1.14a10.51 10.51 0 0 0-2.454-.72c-.54 1.094-1.118 2.596-1.55 4.095-.895-.316-1.395.099-1.768 1.01-.127.312-.266.86-.144 1.047.245.384 3.092.694 3.687.696z"/></g><g><path fill="#fff" d="M75.478 141.111c.54 1.09.293 2.78-.692 3.97a3.45 3.45 0 0 1-.509.516 6.13 6.13 0 0 1-.159-.596 1.24 1.24 0 0 0 .187-.164c.3-.337.598-.805.783-1.424.668-2.243-1.024-3.274-3.049-3.9a1.68 1.68 0 0 0-.219-.051c.113.015.228.042.354.086a38.9 38.9 0 0 1 .15-.498c.137.047.266.093.376.132 1.29.449 2.301.967 2.778 1.929z"/></g><g><path fill="#fff" d="M76.118 136.473c.037-.082.079-.175.13-.263l.482.21c-.053.07-.108.14-.141.216-.628 1.404.094 2.294 1.041 2.832.255.144.6.265.757.43-.033.136-.066.273-.105.412-.305.057-.886-.341-1.132-.502-1.058-.691-1.735-1.774-1.032-3.335z"/></g><g><path fill="#fff" d="M78.337 137.54c.452.727.215 1.88-.143 3.117-.494 1.698-1.005 3.194-1.686 4.758-.29.664-.66 1.428-1.128 1.516z"/></g></g><g><g><path fill="#fff" d="M71.014 142.796a.482.482 0 0 1 .197-.449c.555-.432 2.306-.308 2.621-.154a.13.13 0 0 1 .073.11.154.154 0 0 1-.057.13c-.402.33-1.78.895-2.426.77-.178-.033-.295-.115-.354-.242a.63.63 0 0 1-.054-.165zm2.399-.41c-.556-.081-1.678-.095-2.039.186-.08.061-.085.113-.077.16a.324.324 0 0 0 .027.09c.023.047.08.078.168.095.433.084 1.386-.236 1.92-.53z"/></g><g><path fill="#fff" d="M71.515 144.082c-.023-.144.033-.302.164-.473.453-.604 1.777-1.293 2.112-1.338a.124.124 0 0 1 .122.052c.03.039.036.09.018.139-.185.483-1.11 1.689-1.745 1.938-.177.069-.324.068-.44-.003-.135-.079-.214-.185-.23-.315zm2.003-1.419c-.467.207-1.305.692-1.62 1.111-.078.101-.113.187-.104.247.007.043.042.087.106.127.044.022.11.018.197-.016.428-.169 1.1-.942 1.421-1.469z"/></g><g><path fill="#fff" d="M73.35 144.557l.306-2.157.279.022-.305 2.159z"/></g></g></g></g><g><g><g><g><path fill="#efad1b" d="M64.667 114c.681-.878 2.008-3.567 2.467-4.688.838-2.046 1.344-4.463 1.731-6.67.736-4.215 1.259-8.393.75-11.968-.429-3.03-1.467-6.388-4.432-7.977-1.386-.744-3.047-.484-4.039.1-2.073 1.219-3.338 4.102-4.543 7.365-1.189 3.22-7.026 14.81-7.881 17.708z"/></g><g opacity=".18"><path d="M64.85 107.21c.835-2.801 1.831-5.84 2.4-8.713.897-4.52 1.384-9.207.74-13.017.456.78.797 1.632 1.056 2.509l.017.057a13.452 13.452 0 0 1 .184.692c.043.171.082.343.118.516.01.05.021.098.03.148.035.167.065.335.097.503.007.048.017.096.025.143.037.21.069.42.099.63.508 3.574-.014 7.752-.75 11.966-.388 2.208-.894 4.625-1.732 6.672-.46 1.12-1.786 3.81-2.467 4.687l-2.687-1.033c.079-.097.155-.197.24-.287 1.235-1.377 2.035-3.479 2.63-5.472z"/></g></g><g><g opacity=".18"><path d="M55.795 95.39c-.35.206-.742 1.165-.227 1.283"/></g><g opacity=".18"><path d="M55.025 97.34c-.406.368-1.102 1.605-.784 2.2.748.407 1.165-1.759.958-2.142l-.174-.058z"/></g><g><path fill="#fff" d="M65.663 103.92c-.351.134-.513.905-.479 1.265l.35.115c.256-.248.761-1.278.13-1.38z"/></g><g><path fill="#fff" d="M65.885 108.779c.628-.077 1.146-1.852.515-1.965"/></g><g><path fill="#fff" d="M64.85 106.43c-.558.178-1.465 2.804-.742 3.053.67.23 1.343-2.075 1.287-2.746-.1-.144-.279-.247-.545-.307z"/></g></g></g><g><g><g><path fill="#efad1b" d="M62.325 81.54l.048 2.197s-1.016-.777-.95-1.094c.18-.871.902-1.103.902-1.103z"/></g><g opacity=".18"><path d="M62.325 81.54l.048 2.197s-1.016-.777-.95-1.094c.18-.871.902-1.103.902-1.103z"/></g></g><g><g><path fill="#fcd2c0" d="M62.317 81.094s-.2 2.226-.121 2.395c.48 1.03 4.44 1.78 4.554-.24 0 0 .122-1.307.21-1.892.215-1.401.418-2.277 1.116-3.307.429-.634.858-1.376 1.106-2.245.633-2.223-.565-4.379-2.095-5.115-.578-.277-1.752-.584-2.539-.463-.768.117-2.061.342-2.73.91-1.003.854-1.031 2.179-1.372 3.989-.187.99-.466 2.032-.563 2.778-.266 2.064.727 2.922 2.434 3.19z"/></g><g><g><path fill="#ff5000" d="M58.788 67.438c-.423 1.022.14 1.836.712 2.361-.217.102-.82-.315-.832 0-.04 1.098.493 1.61 1.376 1.848 1.822.49 4.87-.28 4.773 2.04-.034.81-.476 1.771.019 1.975.498.203.805-.96 1.451-.823.322.069.528.41.514.707-.041.936-.815 1.02-1.41.892-.257.688-.691 1.673-.308 2.201.782.838 2.606 1.435 3.75.207.612-.656 1.262-2.366 1.486-3.37.283-1.274-.245-2.534-1.46-3.001.474-2.607-3.272-3.053-5.8-3.762-1.338-.374-2.558-.882-3.44-1.276-.24-.106-.672-.385-.831 0z"/></g><g><path fill="#fff" d="M67.527 70.983c-.144.486-1.251-.102-1.396-.402"/></g><g><path fill="#fff" d="M68.385 72.109c-.225.209-.622-.439-.604-.64"/></g></g><g><g><g><path fill="#fff" d="M63.075 74.743c-.218-.357-.463-.553-.7-.653l-.715.13.211.486c.063.034.132.067.209.096.452.176.995-.06.995-.06z"/></g><g><path fill="#4d3d87" d="M61.31 74.149s.503-.292 1.065-.058c.006.05.028.148.02.2-.038.231-.245.4-.495.43-.462-.24-.59-.572-.59-.572z"/></g><g><path fill="#ff5000" d="M63.387 74.398c-.415-.85-1.402-1.04-1.788-.995l-.039-.334c.612-.07 1.674.25 2.128 1.182z"/></g><g><path fill="#fcd2c0" d="M60.9 73.89c.289.032-.273 1.97-.639 2.692-.378.011-.829-.196-.876-.516-.096-.634 1.24-2.204 1.515-2.176z"/></g><g opacity=".13"><path d="M60.9 73.89c.289.032-.273 1.97-.639 2.692-.378.011-.829-.196-.876-.516-.096-.634 1.24-2.204 1.515-2.176z"/></g><g><path fill="#fcd2c0" d="M61.138 77.33c-.05.72-1.154 1.168-1.281.895-.07-.15-.038-.43.074-.54.442.049.796 0 1.207-.355z"/></g><g><path fill="#fcd2c0" d="M61.136 77.332c-.305.298-.999.228-1.182.184"/></g><g opacity=".13"><path d="M61.138 77.33c-.05.72-1.154 1.168-1.281.895-.07-.15-.038-.43.074-.54.442.049.796 0 1.207-.355z"/></g><g opacity=".13"><path d="M61.136 77.332c-.305.298-.999.228-1.182.184"/></g><g opacity=".13"><path d="M63.833 76.74a.993.993 0 1 1-1.98-.134.993.993 0 0 1 1.98.134z"/></g></g><g opacity=".13"><path d="M62.32 81.09l-.1 1.545c2.266-.228 3.109-2.005 3.109-2.005s-1.574.797-3.008.46z"/></g></g></g><g><g><g><path fill="#efad1b" d="M66.71 82.232c.708.098 2.242.605 3.716 1.204 1.794.729 3.499 1.595 3.517 2.034.052 1.141-3.28 5.898-3.866 5.879-.662-.022-.996-.666-1.102-1.137-.207-.905-1.125-2.37-3.259-3.971l-3.346-2.5s1.122-2.016 4.34-1.51z"/></g></g><g opacity=".25"><g opacity=".06"><path fill="#fff" d="M66.71 82.232c.708.098 2.242.605 3.716 1.204 1.794.729 3.499 1.595 3.517 2.034.052 1.141-3.28 5.898-3.866 5.879-.662-.022-.996-.666-1.102-1.137-.207-.905-1.125-2.37-3.259-3.971l-3.346-2.5s1.122-2.016 4.34-1.51z"/></g></g></g></g><g><g><g><g><path fill="#fcd2c0" d="M37.62 75.317c1.684.667 2.587 2.141 3.588 3.447.953 1.242 1.882 2.446 2.707 3.718 1.755 2.703 3.165 5.4 4.55 7.84 2.42-1.23 4.789-2.562 7.192-3.823.386 1.45.926 2.872 1.398 4.296.282.856.854 1.527 1.575 2.007-2.263 1.175-4.568 2.286-7.014 3.094-1.226.405-2.979.992-4.353.847-2.955-.314-4.171-3.074-5.109-4.844-.949-1.789-1.69-3.633-2.354-5.418-.616-1.65-1.318-3.576-2.063-5.51-.499-1.291-1.086-2.76-1.57-4.155-.412-1.183.208-1.991 1.453-1.5z"/></g><g><path fill="#fcd2c0" d="M35.351 74.594c-.265-.111-1.081-.651-1.538-.764-.177-.044-.4-.045-.47.1-.148.303.534.67.752.831.382.28.63.496.964.724-.322-.088-1.108-.616-1.662-.784-.233-.07-.511-.108-.593.082-.106.24.418.606.593.734.831.618 1.755 1.313 2.318 1.934a8.2 8.2 0 0 1 1.488 2.28c.093.207.201.69.405.786.1.045.377.001.478-.032.345-.113.699-.367 1.158-.664.174-.113.352-.218.553-.392.162-.14.463-.349.507-.443.07-.147-.028-.53-.09-.755-.18-.659-.506-1.561-.669-2.102a83.822 83.822 0 0 1-.42-1.412c-.123-.43-.516-1.838-1.087-1.757-.466.069.077 1.39.065 1.758-.39-.51-1.153-1.234-2.088-1.774-.243-.14-.744-.464-.909-.278-.225.257.163.528.316.686.214.22.35.403.566.56-.37-.136-1.091-.639-1.548-.737-.15-.032-.34-.014-.402.095-.138.255.277.475.52.672.333.267.53.461.764.642.01.002.02.006.03.01z"/></g></g><g><g opacity=".13"><path d="M47.618 88.8c.208-.512-1.284 3.094-.877 3.238.65.228 1.725-1.716 1.725-1.716z"/></g><g><path fill="#fff" d="M46.652 95.74c-.394-1.536 2.121-.392 2.013-.516"/></g><g><path fill="#fff" d="M45.449 94.17c.25-.12.812.92.59 1.084"/></g></g></g><g><path fill="#efad1b" d="M52.22 88.015c.705 2.45 1.892 4.656 3.124 6.84 1.797-.629 3.678-1.437 5.404-2.691 1.661-1.206 3.415-2.753 4.128-5.11.395-1.303.302-2.944-1.377-3.295-.99-.206-2.17.173-3.123.464-2.794.854-5.917 2.33-8.156 3.792z"/></g><g opacity=".18"><path d="M52.22 88.015c.705 2.45 1.892 4.656 3.124 6.84 1.797-.629 3.678-1.437 5.404-2.691 1.661-1.206 3.415-2.753 4.128-5.11.395-1.303.302-2.944-1.377-3.295-.99-.206-2.17.173-3.123.464-2.794.854-5.917 2.33-8.156 3.792z"/></g></g></g></g></g><g><g><g><g><g><path fill="#fcd2c0" d="M86.718 55.114l-3.956 4.298 5.306 4.883 3.956-4.298z"/></g><g><g><path fill="#ff5000" d="M87.064 64.606c-.739 1.294-1.35 2.552-1.48 3.907-.041.405-.113.983.227 1.255.452.363 1.292-.28 1.972-.847 1.427-1.193 2.668-2.404 3.996-3.822 1.076-1.146 1.96-2.266 1.705-3.286-.186-.748-.707-1.416-1.218-2.102a10.465 10.465 0 0 0-1.862-1.921c-1.058.802-2.364 1.986-3.533 3.241-.654-.754-1.325-.597-2.136.112-.277.243-.687.71-.675.954.027.5 2.46 2.212 3.004 2.51z"/></g><g><g><path fill="#4d3d87" d="M84.13 63.625a.534.534 0 0 1 .41-.34c.73-.15 2.26.841 2.469 1.149.026.04.03.097.01.145a.185.185 0 0 1-.122.097c-.536.124-2.083-.005-2.61-.45-.143-.118-.208-.256-.195-.412a.666.666 0 0 1 .038-.189zm2.394.792c-.464-.357-1.482-.926-1.953-.832-.105.022-.135.07-.154.12a.494.494 0 0 0-.021.101c-.003.057.032.116.104.179.35.294 1.386.455 2.024.432z"/></g><g><path fill="#4d3d87" d="M83.919 65.13c.055-.15.186-.277.395-.382.726-.364 2.29-.383 2.616-.26.048.016.08.06.085.11a.163.163 0 0 1-.056.143c-.418.382-1.885 1.104-2.595 1.031-.194-.018-.33-.09-.398-.216a.489.489 0 0 1-.047-.425zm2.56-.396c-.534-.027-1.547.033-2.055.285-.12.06-.196.127-.219.192-.015.045-.007.104.03.175.027.044.09.075.191.084.475.046 1.486-.379 2.053-.736z"/></g><g><path fill="#4d3d87" d="M85.35 66.521l1.396-1.961.244.16-1.397 1.961z"/></g></g><g><g><path fill="#fff" d="M86.38 67.735c1.512-.676 2.616-2.21 2.686-3.544.093-1.75-.438-2.014-1.534-3.268-.08-.09-.175-.201-.275-.313-.132.137-.264.274-.393.413a1.84 1.84 0 0 0-.292-.274c.066.055.13.11.186.171 1.521 1.62 2.532 3.467.762 5.332a4.142 4.142 0 0 1-1.453 1.006c-.08.031-.165.05-.253.068-.065.22-.123.441-.164.665.259-.05.536-.17.73-.256z"/></g><g><path fill="#fff" d="M92.058 59.965c-1.45 1.179-1.39 2.574-.786 3.777.141.28.465.959.775 1.053.105-.117.21-.234.309-.351-.055-.24-.313-.528-.471-.797-.682-1.168-.501-2.455.518-3.29.07-.058.153-.099.239-.14a27.57 27.57 0 0 0-.331-.447 3.56 3.56 0 0 0-.253.195z"/></g></g><g><path fill="#4d3d87" d="M93.517 62.11c.037.938-.776 1.949-1.743 2.983-1.329 1.417-2.57 2.629-3.997 3.822-.611.508-1.346 1.072-1.817.926z"/></g></g></g><g><g><path fill="#8f7ece" d="M87.61 55.319c-.006.011-4.231 4.126-4.65 4.6-.262-.195-5.243-4.4-7.4-6.471-1.367-1.311-3.502-3.413-3.201-5.694.331-2.505 4.879-4.111 7.95-4.75 3.217-.67 6.207-.79 9.16-1.088-.58-.608-1.17-1.197-1.738-1.836 2.618-2.622 5.257-5.232 8.087-7.76 1.734.26 3.76 1.076 5.58 2.18 1.757 1.066 3.4 2.371 4.371 4.494.74 1.619.786 3.195.293 4.3-1.493 3.349-7.012 5.01-11.286 5.897-4.443.921-9.24.357-13.15.513 1.488 1.346 5.854 5.485 5.984 5.615z"/></g><g><g><g><path fill="#fff" d="M75.683 51.505c-.305.223-.69-.219-.912-.65-.22-.427-.404-.902-.207-1.033.313-.206.592.4.777.734.154.276.661.714.342.949z"/></g><g><path fill="#fff" d="M73.626 49.965c-.376.266-.843-.925-.515-1.083"/></g><g><path fill="#fff" d="M74.119 48.86c-.325-.05-.59-.793-.675-1.266-.029-.167-.09-.209.087-.264.274-.085.42.393.574.713.164.33.424.662.014.818z"/></g></g><g><g opacity=".13"><path d="M79.22 47.83c.277-.234 2.521.968 3.734 1.852-.45 0-.893.009-1.324.026-.462-.325-.913-.638-1.358-.942-.375-.255-1.162-.843-1.052-.937z"/></g><g opacity=".13"><path d="M93.77 41.507c.042.26-.974.292-1.449.317-1.03.05-2.048.093-3.049.111.063-.006.126-.011.188-.018-.368-.387-.74-.767-1.11-1.157 1.293.006 2.808.168 3.974.307.523.063 1.407.219 1.446.44z"/></g></g><g><g><path fill="#fff" d="M104.605 42.486c.07-.07-.706 1.296-.105 1.448.431.11.622-.975.502-1.351-.075-.094-.264-.14-.397-.097z"/></g><g><path fill="#fff" d="M104.796 40.3c-.19.305.23 1.924.798 1.682.373-.157.024-1.46-.404-1.773-.11-.026-.242.003-.394.09z"/></g></g></g></g></g><g><g><g><g><path fill="#fcd2c0" d="M67.08 17c.488-.554 1.218-.932 1.772-.626 1.874 1.03.237 3.275.366 3.457 1.049 1.47 2.843 3.513 3.424 4.344.566.814-2.278 4.133-3.869 2.855 0 0-1.162-1.199-1.732-1.71-.794.499-1.998.894-2.971.504-.53-.217-1.303-.853-1.74-1.518-.245-.37-.477-.936-.742-1.543-.442-1.024-1.285-1.594-1.647-2.628-.212-.61-.023-1.547-.03-1.916-.02-.785.398-1.759 1.314-2.51 1.33-1.088 3.5-1.255 4.829-.195.594.473.81.933 1.026 1.486z"/></g><g opacity=".13"><path d="M68.616 22.54c.481.722.712 2.816-.545 3.772l-1.031-.996c1.078-.867 1.336-1.813 1.576-2.776z"/></g><g><path fill="#ff5000" d="M72.102 17.59c-.071.245.619 3.25-2.768 2.435-.549-.132-1.098-.142-.899-.493.734-.27.898-1.395.522-1.895-.167-.222-.472-.33-.737-.197-.572.28-.612.908-.613 1.432-.343-.26-.646-.503-1.076-.638-.39-.12-.811-.162-1.116-.423-.543-.467-.707-1.357-1.31-1.674.586.58.85 1.728 1.53 2.154.21.133.622.203.57.394-.04.14-.313.03-.42-.01a2.05 2.05 0 0 1-.836-.617c-.359-.437-.546-.99-.87-1.401-.547-.689-1.183-.685-1.928-.587-.001 1.494-.367 2.922-1.963 4.128.218.558.605.963.903 1.467.374.625.662 1.47.949 2.055.05.1.146.338.2.428-.574-.083-1.933 1.295-3.233-.644-.727-1.085-.29-1.572-1.382-2.876-.562-.673-.902-1.762-.673-2.504.177-.57.548-1.03.955-1.484.435-.483 1.406-.972 1.763-1.507.515-.762.413-1.727 1.63-2.398.688-.38 1.338-.352 1.987.006.373-.441.64-.868 1.282-1.224 1.077-.593 2.394-.366 3.318.58.468.482.913 1.112 1.464 1.305.486.173 1.143.17 1.635.363.382.152.885.618 1.143 1.003.474.71.461 1.414.3 1.999-.08.284-.245.539-.327.824zM60.01 19.837a4.019 4.019 0 0 0 1.79-2.923 6.02 6.02 0 0 1-1.6 2.49 3.39 3.39 0 0 1-.277.228z"/></g><g><g><g><g><g><path fill="#fff" d="M65.217 19.512c-.412-.102-.73-.068-.972.029l-.275.58.35.22c.07-.02.142-.045.218-.078.454-.194.679-.75.679-.75z"/></g><g><path fill="#4d3d87" d="M63.52 20.337s.152-.569.723-.797c.04.03.126.085.156.129.139.192.109.461-.052.66-.502.157-.827.008-.827.008z"/></g></g><g><path fill="#ff5000" d="M65.032 18.975c-.938-.17-1.684.518-1.88.858l-.302-.173c.311-.54 1.211-1.217 2.246-1.027z"/></g><g opacity=".13"><path d="M64.04 23.82c.89-.344 1.17-1.32 1.16-1.711l.347-.009c.014.623-.4 1.67-1.382 2.044z"/></g></g><g><g><g><path fill="#fff" d="M62.395 20.898c-.384-.095-.68-.064-.905.027l-.22.537.321.197c.056-.017.114-.038.174-.065.421-.18.63-.696.63-.696z"/></g><g><path fill="#4d3d87" d="M60.82 21.67s.143-.527.67-.74c.04.028.12.08.148.12.128.178.1.428-.047.613-.466.142-.771.007-.771.007z"/></g></g><g><path fill="#ff5000" d="M62.213 20.422c-.866-.157-1.55.479-1.731.791l-.302-.172c.29-.506 1.132-1.136 2.095-.961z"/></g></g><g opacity=".13"><path d="M64.198 22.669c-1.754.885-1.355-1.106-1.448-1.98-.004-.052-.043-.13 0-.18.248-.275 1.25 1.44 1.448 2.16z"/></g><g opacity=".13"><path d="M66.796 19.914a.667.667 0 0 1-.941.942.664.664 0 0 1 0-.94c.26-.26.681-.26.94-.002z"/></g></g></g></g><g><g><g><path fill="#fff" d="M65.953 12.435c.402-.327-.815-.89-.803-.38"/></g><g><path fill="#fff" d="M66.841 12.31c-.11-.004-.337.045-.33.265.009.288.515.565.697.714.218.18.55.618.849.504.426-.163-.171-.734-.385-.922-.112-.1-.232-.187-.332-.267-.173-.137-.287-.284-.499-.294z"/></g></g><g><g><path fill="#fff" d="M71.051 14.814c.403-.326-.814-.89-.8-.38"/></g></g></g></g><g><g><g><path fill="#cad309" d="M94.88 30.644C92 29.255 85.2 25.922 84.758 25.66c-1.831-1.089-3.822-2.262-5.908-3.045-2.18-.818-4.576-1.262-7.292-.256-.094.034-.184.072-.276.11.42 1.962-.595 3.77-2.462 4.585.34.938-.131 9.08 2.251 10.357 2.366 1.27 5.711-.31 6.806.06.692.236 5.42 2.604 7.939 3.588 1.361.533 2.15.116 2.58-.178 2.469-1.686 6.047-5.547 7.327-8.596.182-.435.441-1.022-.843-1.642z"/></g><g><g><g><path fill="#fff" d="M87.44 40.643c.055.457-1.215.308-1.2-.056"/></g><g><path fill="#fff" d="M86.7 39.693c-.194.261-.874.275-1.332.127-.161-.054-.326-.149-.294-.331.056-.283.545-.185.902-.172.368.013.782-.06.725.376z"/></g></g></g></g><g><g><path fill="#fff" d="M77.312 23.226c.474-.495-1.218-1.031-1.118-.364"/></g><g><path fill="#fff" d="M78.464 22.902c-.145.012-.435.115-.39.402.059.376.773.656 1.033.821.318.2.826.72 1.2.52.532-.286-.346-.935-.658-1.146-.166-.112-.338-.206-.483-.294-.25-.15-.424-.326-.702-.303z"/></g></g></g><g><g><path fill="#fcd2c0" d="M71.084 34.11c-.259 1.011-2.552 7.19-3.519 9.742-.846 2.23-3.998 8.043-4.495 8.707-.28.31-.548.608-.756.824-.374.391-.763.799-1.128 1.17-.343.35-1.48 1.494-1.067 1.906.343.341 1.306-.874 1.673-1.08-.267.616-.522 1.656-.497 2.727.006.283-.014.877.265.901.38.033.417-.441.48-.658.087-.302.186-.52.212-.785.084.378.02 1.258.194 1.686.055.138.187.284.328.267.33-.037.298-.501.346-.813.062-.423.138-.698.174-.987a.312.312 0 0 1-.005-.038.17.17 0 0 0 .006.03l-.001.008c.04.318.003 1.235.155 1.656.062.169.192.347.374.32.384-.057.34-.824.368-1.095.045-.473.11-.802.135-1.203.105.311.055 1.258.218 1.805.067.228.193.476.428.432.292-.056.34-.695.364-.911.111-1.036.244-2.192.516-3.01.208-.623.463-1.18.788-1.721 1.58-2.2 4.423-6.834 5.492-9.26 1.105-2.508 3.546-8.018 4.08-10.083-.928.144-4.278-.431-5.128-.537z"/></g><g><g><g><path fill="#b1bc00" d="M74.642 24.076c-1.908.239-2.856 2.15-3.494 3.36-1.415 2.682-2.24 5.359-3.038 8.197l6.954 2.448a50.25 50.25 0 0 0 1.48-3.79c.378-1.105.767-2.342 1.005-3.683.225-1.26.333-2.767-.128-4.206-.455-1.424-1.5-2.488-2.78-2.326z"/></g></g><g><g><g><path fill="#fff" d="M72.925 27.701c-.339.22-.782 1.189-.394 1.367.4.182.805-.82.764-1.201-.056-.103-.23-.178-.37-.166z"/></g><g><path fill="#fff" d="M71.19 29.31c-.427-.416-.727.445-.887 1.006-.109.378-.196.835.089.914.4.114.967-1.467.875-1.816a.336.336 0 0 0-.078-.104z"/></g></g><g><path fill="#fff" d="M72.77 26.01c-.347.09-1.177 1.515-.603 1.725.375.136 1.034-1.016.947-1.525-.06-.091-.174-.159-.345-.2z"/></g></g></g></g></g></g><g><g><path fill="#efad1b" d="M97.295 32.655c-2.853 2.97-5.293 6.07-8.003 9.083l-.892-.852c2.216-2.942 4.762-5.78 7.343-8.606 0 0 1.58.347 1.552.375z"/></g><g><path fill="#fff" d="M92.063 39.541a.853.853 0 0 1-1.2.105l-.73-.61a.856.856 0 0 1-.104-1.202l1.04-1.24a.853.853 0 0 1 1.2-.105l.73.612a.854.854 0 0 1 .104 1.2zm-1.535-1.29a.2.2 0 0 0 .024.285l.73.612c.085.071.212.06.283-.025l1.041-1.24a.2.2 0 0 0-.026-.284l-.728-.612a.2.2 0 0 0-.283.025z"/></g></g></g></g></g></g></g></svg>