<svg xmlns="http://www.w3.org/2000/svg" width="167" height="167" viewBox="0 0 167 167"><g><g><path fill="#eff2fd" d="M7 76.5C7 34.25 41.25 0 83.5 0S160 34.25 160 76.5 125.75 153 83.5 153 7 118.75 7 76.5z"/></g><g><g/><g><g><g><g><g><g><path fill="#ff5000" d="M151.522 41.852c-11.084-6.81-21.5-15.27-31.09-24.152-1.28-1.184-3.342-2.51-2.79-4.896 1.778-1.031 4.454 1.22 6.017 2.284 4.901 3.346 8.279 6.426 13.197 10.282 4.314 3.384 8.753 6.713 13.05 10.607 1.575 1.427 3.273 3.025 3.668 4.243.12.376.294 1.88.294 2.12.002 2.053-1.063 3.737-1.761 5.55-3.989 10.368-8.347 19.71-13.05 29.536-.336.7-.77 1.638-1.175 2.447-.446.896-1.083 1.705-1.172 2.285-.137.874.14 2.225.146 3.429.011 2.36.595 37.718-1.209 38.137-3.553.823-1.87-29.486-1.87-31.63 0-5.627.657-13.292 2.199-17.115 4.522-11.213 10.882-22.051 15.545-33.128z"/></g></g></g><g opacity=".21"><g opacity=".04"><g opacity=".01"><path d="M151.522 41.852c-11.084-6.81-21.5-15.27-31.09-24.152-1.28-1.184-3.342-2.51-2.79-4.896 1.778-1.031 4.454 1.22 6.017 2.284 4.901 3.346 8.279 6.426 13.197 10.282 4.314 3.384 8.753 6.713 13.05 10.607 1.575 1.427 3.273 3.025 3.668 4.243.12.376.294 1.88.294 2.12.002 2.053-1.063 3.737-1.761 5.55-3.989 10.368-8.347 19.71-13.05 29.536-.336.7-.77 1.638-1.175 2.447-.446.896-1.083 1.705-1.172 2.285-.137.874.14 2.225.146 3.429.011 2.36.595 37.718-1.209 38.137-3.553.823-1.87-29.486-1.87-31.63 0-5.627.657-13.292 2.199-17.115 4.522-11.213 10.882-22.051 15.545-33.128z"/></g></g></g><g><g><path fill="#ff5000" d="M156.284 42.489c0 2.51-1.83 4.55-4.088 4.55-2.255 0-4.086-2.04-4.086-4.55s1.83-4.549 4.086-4.549c2.257 0 4.088 2.039 4.088 4.549z"/></g><g><path fill="#fff" d="M154.144 42.487c0 1.199-.87 2.167-1.948 2.167-1.074 0-1.946-.968-1.946-2.167 0-1.197.872-2.167 1.946-2.167 1.077 0 1.948.97 1.948 2.167z"/></g></g><g><path fill="#4d3d87" d="M126.073.034c3.349-.265 6.363 1.04 8.377 2.657 1.951 1.568 3.642 3.707 3.904 6.438.451 4.76-1.755 8.328-2.115 12.804-.8 9.927 3.8 15.93 9.025 21.268 3.948 4.031 7.928 7.942 7.564 15.392-.11 2.21-.711 4.322-1.383 6.088-2.792 7.338-8.041 12.379-10.896 19.799-.49 1.27-1.588 26.361-1.822 28.858-.077.833-.12 2.261-.162 3.5-.035 1.142.011 2.491-1.3 2.519-1.539.029-1.27-1.516-1.22-2.519.109-2.13.712-26.773 1.088-28.696 1.017-5.198 3.759-9.817 6.26-13.878 1.969-3.185 4.135-6.442 5.53-9.932 1.462-3.65 1.95-8.607.166-12.454-1.53-3.293-4.451-5.977-6.995-8.677-4.94-5.238-9.509-11.976-8.296-21.968.252-2.072.772-4.16 1.302-6.227.496-1.94 1.12-4.327.57-6.577-.602-2.446-2.702-4.36-5.043-5.457-2.197-1.03-5.344-1.117-7.725.14-.681.359-1.261.947-1.872 1.469-.697.599-1.712 1.135-2.357.49-.666-.663.19-1.387.73-1.89 1.748-1.617 3.575-2.902 6.67-3.147z"/></g></g><g><path fill="#ff5000" d="M157.531 126.215c-.21-1.567-.312-3.787-1.225-4.866-1.657-1.961-4.65-1.026-7-2.143-1.323-.631-1.938-3.28-3.675-4.087-.962-.45-1.974-.307-2.974-.392a59.04 59.04 0 0 0-3.859-.183c0-.004 0-.008.002-.013-.211.002-.429 0-.645 0a207.233 207.233 0 0 0-3.466-.007c-1.17-.006-2.33-.007-3.464.007-.214 0-.43.002-.643 0 .002.005.002.009.002.013-1.34.027-2.638.077-3.859.183-.999.085-2.014-.059-2.976.392-1.737.808-2.35 3.456-3.675 4.087-2.35 1.117-5.343.182-7 2.143-.914 1.08-1.014 3.299-1.224 4.866 7.967.203 37.715.203 45.681 0z"/></g><g><g><g><g><path fill="#ff5000" d="M113.045 45.365c-9.882-5.488-18.735-12.048-26.861-19.348-2.689-2.415-5.317-4.912-7.664-7.665 5.416-4.593 11.67-8.73 20.64-9.562 10.05-.93 16.479 4.743 18.59 12.216 1.186 4.201.833 9.486-.228 13.584a40.634 40.634 0 0 1-4.477 10.775z"/></g><g opacity=".21"><path d="M117.749 21.006c-1.573-5.565-5.543-10.133-11.619-11.716 2.861 2.222 4.829 5.354 5.829 8.893 1.186 4.2.834 9.486-.227 13.582A40.669 40.669 0 0 1 107.5 42.11a134.56 134.56 0 0 0 5.543 3.256 40.647 40.647 0 0 0 4.477-10.775c1.061-4.098 1.414-9.383.229-13.584z"/></g></g><g><g><path fill="#8f7ece" d="M113.05 45.358c-.438.681-2.137-.547-2.958-.987-5.779-3.082-10.854-7.265-15.86-11.153-4.333-3.367-8.502-6.925-12.595-10.624a50.63 50.63 0 0 1-1.973-1.896c-.604-.61-1.592-1.791-1.138-2.353.307-.379 1.77.594 2.731 1.215 2.297 1.482 4.875 2.943 6.981 4.477 3.052 2.221 5.872 4.563 8.574 6.753 4.341 3.515 8.427 6.806 12.596 10.394.652.563 1.392 1.146 2.05 1.747.593.543 2.035 1.741 1.592 2.427z"/></g><g><path fill="#efad1b" d="M96.81 30.788c-1.787-1.448-3.63-2.964-5.555-4.468-1.189.593-2.323 1.222-3.162 1.917a5.51 5.51 0 0 0-.78.774 7.932 7.932 0 0 0 12.395 9.9c.222-.28.423-.61.605-.977.471-.954.811-2.16 1.105-3.41-1.514-1.232-3.044-2.468-4.608-3.736z"/></g></g><g><g><g><path fill="#fff" d="M96.738 12.093c-.807-1.16 2.812-1.704 2.391-.38-.219.692-1.74.605-2.391.38z"/></g><g><path fill="#fff" d="M94.505 11.064c.291.07.847.37.662.943-.24.748-1.781 1.088-2.367 1.34-.712.304-1.914 1.2-2.61.672-.99-.752 1.007-1.794 1.708-2.123.374-.174.756-.31 1.08-.443.553-.227.968-.524 1.527-.39z"/></g></g><g><g><path fill="#fff" d="M109.56 38.024c-.093-.863.531-2.185 1.224-3.445.295-.541.79-1.407 1.303-1.197.616.253.211 1.326.066 1.708-.464 1.214-1.268 2.587-1.91 3.19-.194.064-.53-.075-.684-.256z"/></g><g><path fill="#fff" d="M110.502 32.642c-1.37-.276-.274-3.129.756-2.596.446.233.432 1.81-.055 2.392-.174.205-.463.252-.701.204z"/></g><g><path fill="#fff" d="M113.383 27.424c-.493-.047-.708-.733-.655-1.45.042-.578.385-1.662.997-1.406.273.113.519.639.49 1.236-.032.7-.192 1.68-.832 1.62z"/></g></g></g></g><g><g><path fill="#ff5000" d="M121.396 10.151c-.775 1.688-1.79 2.951-2.883 4.477-.43.598-.938 1.268-1.593 2.124-.521.679-1.153 1.676-1.75 1.807a3.15 3.15 0 0 0-.486-.756c-1.249-1.443-2.352-3.001-3.72-4.337-.776-.762-1.584-1.61-2.46-2.347-.321-.763-.96-1.376-1.914-1.56.05-.05.102-.105.16-.168.928-1.006 1.989-2.024 2.96-2.959 1.593-1.536 3.141-2.891 5.54-3.112 2.537-.233 6.28 1.588 6.677 3.946.188 1.121-.227 2.221-.53 2.885zm-8.347-2.506c.43-.465.947-1.019.986-1.669-.22-.215-.453-.244-.683-.153-1.176.477-3.011 2.534-3.869 3.645-.406.523-.958 1.11-.684 1.668.713.249 1.267-.348 1.67-.758.935-.956 1.714-1.795 2.58-2.733zm.303 4.402c1.214-1.148 2.424-2.11 3.491-3.339.53-.607 1.198-1.261 1.29-2.125-.184-.235-.621-.323-.834-.15-1.477 1.174-3.634 3.226-4.933 4.855-.494.62-1.277 1.33-.91 2.048.86.092 1.357-.778 1.896-1.289zm5.01-1.291c-.188-.04-.163-.293-.456-.227-1.029.715-1.764 1.664-2.582 2.656-.507.62-1.373 1.449-.91 2.123.538-.058.928-.478 1.292-.834.346-.337.742-.718 1.061-1.062.65-.705 1.326-1.602 1.595-2.656z"/></g><g opacity=".21"><path d="M121.396 10.151c-.775 1.688-1.79 2.951-2.883 4.477-.43.598-.938 1.268-1.593 2.124-.521.679-1.153 1.676-1.75 1.807a3.15 3.15 0 0 0-.486-.756c-1.249-1.443-2.352-3.001-3.72-4.337-.776-.762-1.584-1.61-2.46-2.347-.321-.763-.96-1.376-1.914-1.56.05-.05.102-.105.16-.168.928-1.006 1.989-2.024 2.96-2.959 1.593-1.536 3.141-2.891 5.54-3.112 2.537-.233 6.28 1.588 6.677 3.946.188 1.121-.227 2.221-.53 2.885zm-8.347-2.506c.43-.465.947-1.019.986-1.669-.22-.215-.453-.244-.683-.153-1.176.477-3.011 2.534-3.869 3.645-.406.523-.958 1.11-.684 1.668.713.249 1.267-.348 1.67-.758.935-.956 1.714-1.795 2.58-2.733zm.303 4.402c1.214-1.148 2.424-2.11 3.491-3.339.53-.607 1.198-1.261 1.29-2.125-.184-.235-.621-.323-.834-.15-1.477 1.174-3.634 3.226-4.933 4.855-.494.62-1.277 1.33-.91 2.048.86.092 1.357-.778 1.896-1.289zm5.01-1.291c-.188-.04-.163-.293-.456-.227-1.029.715-1.764 1.664-2.582 2.656-.507.62-1.373 1.449-.91 2.123.538-.058.928-.478 1.292-.834.346-.337.742-.718 1.061-1.062.65-.705 1.326-1.602 1.595-2.656z"/></g></g></g></g><g><g><g><path fill="#8f7ece" d="M30.102 55.717c.255.01.54-.283.625.627.08.843-.383 1.956-.537 2.773-.278 1.48-.683 3.496-.716 3.669-.533 2.894-.905 5.312-1.252 7.516-.884 5.594-1.468 10.524-2.056 15.479-.943 7.916-1.264 15.987-1.611 24.695-.116 2.876-.007 6.072-.895 7.873-.428.867-1.437 1.99-2.327 2.237-.963.267-2.622-.003-3.49-.179-.815-.165-2.006-.451-2.862-.628-1.808-.368-4.56-.807-5.28-2.593-.434-1.075-.17-3.061.089-4.562.723-4.181 2.181-8.601 3.222-12.17 1.527-5.242 3.125-10.27 4.742-15.747 1.608-5.446 3.083-10.959 4.741-15.836.77-2.261 1.67-4.885 2.775-7.517.889-2.12 2.447-4.826 4.564-5.637.06-.023.202-.002.268 0z"/></g><g><g><g><g><path fill="#fff" d="M56.854 52.586c4.653-.223 10.21-.193 15.032 0 4.844.194 9.617.111 14.585.446 4.486.303 9.092.777 13.778 1.254 4.38.445 9.305 1.014 12.169 2.773 2.06 1.264 2.925 2.974 3.58 5.637 1.644 6.71 1.96 17.888 2.415 25.053.182 2.884.31 5.885.446 8.768.138 2.895.448 5.797.448 8.678-.002 5.816.816 12.515-1.165 16.732-.576 1.228-1.332 2.119-2.952 2.685-2.73.954-7.11.315-10.558 0-10.677-.974-22.489-1.093-33.641-.359-7.527.497-14.506.514-22.102 1.164-3.284.28-7.198.676-10.915.716-6.246.065-12.156-.357-13.779-4.832-.732-2.02-.996-4.957-1.163-7.785-.493-8.326-.103-18.162.27-26.036.482-10.24.691-19.863 3.22-28.095.52-1.69 1.194-3.475 2.683-4.384 1.4-.852 3.606-1.268 5.996-1.522 4.503-.477 9.516-.566 14.227-.715 2.433-.076 4.895-.06 7.426-.178z"/></g><g><path fill="#8f7ece" d="M56.854 52.586c4.653-.223 10.21-.193 15.032 0 4.844.194 9.617.111 14.585.446 4.486.303 9.092.777 13.778 1.254 4.38.445 9.305 1.014 12.169 2.773 2.06 1.264 2.925 2.974 3.58 5.637 1.644 6.71 1.96 17.888 2.415 25.053.182 2.884.31 5.885.446 8.768.138 2.895.448 5.797.448 8.678-.002 5.816.816 12.515-1.165 16.732-.576 1.228-1.332 2.119-2.952 2.685-2.73.954-7.11.315-10.558 0-10.677-.974-22.489-1.093-33.641-.359-7.527.497-14.506.514-22.102 1.164-3.284.28-7.198.676-10.915.716-6.246.065-12.156-.357-13.779-4.832-.732-2.02-.996-4.957-1.163-7.785-.493-8.326-.103-18.162.27-26.036.482-10.24.691-19.863 3.22-28.095.52-1.69 1.194-3.475 2.683-4.384 1.4-.852 3.606-1.268 5.996-1.522 4.503-.477 9.516-.566 14.227-.715 2.433-.076 4.895-.06 7.426-.178z"/></g><g opacity=".57"><path fill="#fff" d="M56.854 52.586c4.653-.223 10.21-.193 15.032 0 4.844.194 9.617.111 14.585.446 4.486.303 9.092.777 13.778 1.254 4.38.445 9.305 1.014 12.169 2.773 2.06 1.264 2.925 2.974 3.58 5.637 1.644 6.71 1.96 17.888 2.415 25.053.182 2.884.31 5.885.446 8.768.138 2.895.448 5.797.448 8.678-.002 5.816.816 12.515-1.165 16.732-.576 1.228-1.332 2.119-2.952 2.685-2.73.954-7.11.315-10.558 0-10.677-.974-22.489-1.093-33.641-.359-7.527.497-14.506.514-22.102 1.164-3.284.28-7.198.676-10.915.716-6.246.065-12.156-.357-13.779-4.832-.732-2.02-.996-4.957-1.163-7.785-.493-8.326-.103-18.162.27-26.036.482-10.24.691-19.863 3.22-28.095.52-1.69 1.194-3.475 2.683-4.384 1.4-.852 3.606-1.268 5.996-1.522 4.503-.477 9.516-.566 14.227-.715 2.433-.076 4.895-.06 7.426-.178z"/></g><g opacity=".78"><g opacity=".61"><path fill="#fff" d="M98.913 64.128c.209 2.504.287 5.14.267 7.874-2.427.137-4.93.198-7.426.27.108-2.823-.282-5.625-.09-8.233 2.409.036 4.98-.088 7.249.089z"/></g><g opacity=".61"><path fill="#b1bc00" d="M89.156 64.135c.01 2.764-.048 5.596.09 8.232-3.015.088-6.122.083-9.036.269.059-2.745.124-5.483.088-8.322 2.993-.022 5.807-.217 8.858-.179z"/></g><g opacity=".61"><path fill="#fff" d="M101.23 64.4c5.102-.004 8.38 2.595 9.037 7.337-2.848.047-5.63.156-8.5.18-.075-2.61-.19-5.178-.537-7.517z"/></g><g opacity=".61"><path fill="#fff" d="M77.883 64.4c-.09 2.774-.138 5.588-.267 8.322-3.691.097-7.283.292-10.916.446.02-2.756.218-5.698 0-8.41 3.68-.165 7.45-.244 11.183-.358z"/></g><g opacity=".61"><path fill="#fff" d="M64.286 64.843c.134 2.611-.201 5.524-.09 8.412-2.923.208-5.977.285-8.946.447v-8.68c2.95-.06 6.294-.206 9.036-.179z"/></g><g opacity=".61"><path fill="#fff" d="M41.65 65.11c-.154 2.979-.089 6.176-.268 9.127-3.48-.017-6.904.016-10.202.178.41-2.712.782-5.482 2.238-7.247 1.673-2.028 4.624-1.948 8.232-2.058z"/></g><g opacity=".61"><path fill="#fff" d="M52.83 65.11c-.026 2.929-.243 5.662-.18 8.678-2.86.154-5.76.267-8.68.358.162-3.027-.038-6.15.091-9.036 3.236.03 5.48.005 8.768 0z"/></g><g opacity=".61"><path fill="#fff" d="M111.793 81.4c-3.384.015-6.856-.058-10.11.088-.066-2.421.144-4.57.09-6.979 2.765-.318 6.041.035 8.41-.178.6-.054.605-.165.805.536.505 1.772.524 4.816.805 6.533z"/></g><g opacity=".61"><path fill="#fff" d="M99.18 74.6c-.056 2.27.117 4.768-.089 6.889-2.374.13-4.881.129-7.336.18.059-2.268-.119-4.77.09-6.891 2.547.043 4.82-.19 7.336-.178z"/></g><g opacity=".61"><path fill="#fff" d="M89.065 74.87c.329.284.18 1.009.18 1.61v5.191c-3.205-.043-6.165.159-9.395.089.09-2.206.176-4.416.268-6.62 2.933-.141 6.036-.107 8.947-.27z"/></g><g opacity=".61"><path fill="#fff" d="M77.523 75.22c.053 2.32-.21 4.323-.18 6.622-3.6.157-7.32.195-10.826.448-.047-2.255.158-4.256.09-6.532 3.53-.288 7.317-.32 10.916-.538z"/></g><g opacity=".61"><path fill="#ff5000" d="M64.107 75.85c-.093 2.145-.023 4.45-.18 6.532-2.878.165-5.79.293-8.677.447v-6.62c3.033-.039 5.848-.296 8.857-.359z"/></g><g opacity=".61"><path fill="#fff" d="M52.647 76.39v6.53c-3.057.106-6.12.203-9.037.448.05-2.277.13-4.523.268-6.71 3.044.032 5.763-.262 8.77-.268z"/></g><g opacity=".61"><path fill="#fff" d="M30.906 76.745c3.488-.046 6.978.245 10.38 0-.045 2.28-.147 4.506-.27 6.712-3.461.294-7.196.317-10.736.536.362-2.264.062-5.188.626-7.248z"/></g><g opacity=".61"><path fill="#fff" d="M111.976 83.902c.37 2.342.384 5.044.536 7.605-3.64.206-7.406.287-11.004.537-.051-2.735.158-5.211.09-7.963 3.355-.165 6.85-.19 10.378-.179z"/></g><g opacity=".61"><path fill="#ff5000" d="M99.09 84.083c-.037 2.674-.136 5.291-.089 8.052-2.407.159-4.846.283-7.337.358-.057-2.86.076-5.533.09-8.322 2.543.068 4.835-.114 7.337-.088z"/></g><g opacity=".61"><path fill="#fff" d="M89.153 84.17c-.058 2.805.119 5.846-.09 8.501-3.279.029-6.35.268-9.573.356.031-2.951.14-5.824.27-8.677 3.025-.166 6.39.01 9.393-.18z"/></g><g opacity=".61"><path fill="#fff" d="M77.162 84.44c-.008 2.944-.242 5.663-.18 8.68-3.37.236-6.99.225-10.377.446-.209-2.745-.031-5.874-.09-8.768 3.538-.13 6.99-.347 10.647-.358z"/></g><g opacity=".61"><path fill="#fff" d="M63.835 84.89c.163 2.82.077 5.89.179 8.77-2.943.068-5.789.237-8.68.358-.207-2.716-.031-5.816-.089-8.68 2.912-.1 5.802-.22 8.59-.448z"/></g><g opacity=".61"><path fill="#fff" d="M52.38 85.43c.482.021.258.685.27.895.114 2.428.013 5.315.089 7.784-3.132.12-6.227.275-9.485.27-.072-2.936.159-5.568.18-8.411 2.784-.38 6.03-.293 8.947-.538z"/></g><g opacity=".61"><path fill="#fff" d="M40.927 86.05c-.15 2.741-.176 5.608-.267 8.41-3.523.146-7.33.008-10.738.268-.017-2.85.066-5.6.18-8.32 3.687-.042 7.288-.169 10.825-.358z"/></g><g opacity=".61"><path fill="#fff" d="M112.593 94.1c.217 3.034.18 6.322.178 9.573h-11.093c-.09-3.012-.224-5.979-.179-9.125 3.72-.128 7.299-.395 11.094-.448z"/></g><g opacity=".61"><path fill="#fff" d="M98.909 94.73c.173 2.897.021 6.12.267 8.947h-7.247c-.11-2.841-.225-5.68-.269-8.588a190.07 190.07 0 0 1 7.249-.359z"/></g><g opacity=".61"><path fill="#fff" d="M89.151 95.18c-.018 2.941.098 5.747.27 8.498-3.332-.019-6.464.158-9.843.092-.1-2.586-.182-5.661 0-8.233 3.267-.04 6.351-.27 9.573-.357z"/></g><g opacity=".61"><path fill="#b1bc00" d="M76.9 95.72c-.059 2.773.153 5.274.088 8.053-3.351-.05-6.669-.13-10.11-.092-.024-2.6-.17-5.077-.268-7.603 3.454-.096 6.828-.27 10.29-.358z"/></g><g opacity=".61"><path fill="#fff" d="M64.103 96.16c.038 2.557.186 5.006.269 7.515-2.852.16-5.898.128-8.68.36-.048-2.546-.305-4.885-.268-7.517 2.938-.073 5.792-.232 8.679-.358z"/></g><g opacity=".61"><path fill="#fff" d="M52.742 96.61c.32 2.333.223 5.084.447 7.513-3.27.16-6.649.212-9.932.36a181.793 181.793 0 0 1-.088-7.517c3.17-.137 6.499-.121 9.573-.356z"/></g><g opacity=".61"><path fill="#fff" d="M40.658 97.053v7.515c-3.734.084-7.367.267-10.916.537-.207-2.564-.03-5.514.178-7.963 3.41-.199 7.182-.036 10.738-.09z"/></g><g opacity=".61"><path fill="#fff" d="M77.08 106.271c.018 3.053.11 6.031.268 8.946-3.218.123-6.547.134-9.752.269a157.29 157.29 0 0 1-.536-9.128.624.624 0 0 1 .267-.178c3.126.154 6.494.068 9.753.091z"/></g><g opacity=".61"><path fill="#fff" d="M99.268 106.275c.075 2.73.048 5.56.178 8.231-2.274.022-4.533.06-6.71.178-.225-2.725-.482-5.423-.626-8.23-.004-.153.066-.233.179-.27 2.298.06 4.83-.118 6.98.091z"/></g><g opacity=".61"><path fill="#fff" d="M64.459 106.272c.161 3.12.377 6.184.536 9.303-2.884.069-5.664.242-8.41.447a217.581 217.581 0 0 1-.715-9.483c2.846-.105 5.617-.289 8.589-.267z"/></g><g opacity=".61"><path fill="#fff" d="M89.515 106.27c.257 2.814.386 5.755.715 8.5-3.546.031-6.819.338-10.378.357-.08-2.872-.266-6.118-.18-8.857h9.843z"/></g><g opacity=".61"><path fill="#fff" d="M101.86 106.27h10.826c-.082 2.53-.207 4.496-1.163 5.904-1.684 2.47-5.548 2.067-9.573 2.237.081-2.767-.238-5.61-.09-8.141z"/></g><g opacity=".61"><path fill="#fff" d="M53.092 106.63c.484.132.242.775.27 1.075.238 2.619.432 5.69.625 8.41-3.323.315-6.78.495-10.29.627-.304-3.094-.323-6.479-.447-9.752 3.31-.092 6.665-.14 9.842-.36z"/></g><g opacity=".61"><path fill="#fff" d="M40.746 107.08c.001 3.368.209 6.532.357 9.752-3.186-.336-6.04-.557-7.962-2.057-2.023-1.58-2.9-4.113-3.311-7.337 3.727-.03 7.308-.207 10.916-.358z"/></g></g></g><g><g><path fill="#8f7ece" d="M33.218 68.464c-2.366.008.32-5.497 1.747-3.658"/></g></g><g><g><path fill="#8f7ece" d="M112.539 75.101c-.776-.93-1.075-2.947-1.248-4.948-.076-.857-.173-2.245.586-2.398.91-.183 1.272 1.376 1.398 1.932.404 1.769.531 3.984.255 5.181-.176.226-.675.327-.991.233z"/></g><g><path fill="#8f7ece" d="M109.478 68.122c-1.803.743-2.742-3.42-1.131-3.6.698-.074 1.904 1.768 1.79 2.818-.046.375-.345.652-.66.782z"/></g></g></g><g><g><path fill="#4d3d87" d="M34.802 59.861c-.168-1.448.624-2.351 1.17-3.243.637-1.036 1.46-2.425 1.171-4.414-.07-.505-.316-1.178-.72-1.263-1.01-.213-1.338 1.212-1.532 2.252-.197 1.075-.101 2.734-.99 2.704-.647-.022-.817-1.184-.81-2.162.012-2.476 1.43-5.65 4.144-4.777 1.597.515 2.666 3.503 2.522 6.128a8.274 8.274 0 0 1-1.08 3.693c-.798 1.377-2.65 2.9-3.875 1.082z"/></g><g><path fill="#4d3d87" d="M49.457 58.75c-.422-1.14.352-2.291.81-3.333.687-1.563 1.715-3.728.631-5.587-.828.13-1.052.86-1.351 1.531-.272.61-.338 1.587-1.082 1.713-.564-.404.032-1.305.27-2.073.4-1.289 1.238-3.587 3.154-2.704 1.234.57 1.682 3.22 1.532 5.317-.09 1.249-.53 2.832-1.171 3.785-.615.911-1.651 1.833-2.793 1.351z"/></g><g><path fill="#4d3d87" d="M43.596 49.913c-.73.19-.92.93-1.17 1.621-.25.684-.265 1.587-.812 1.982-.75-.128-.497-1.633-.362-2.342.29-1.493 1.78-4.044 3.786-2.612 1.123.8 1.381 3.127 1.262 4.775-.122 1.7-.759 3.72-1.622 4.775-.283.347-.896.91-1.263.991-.828.185-1.688-.224-1.71-.72-.041-.894.972-1.897 1.352-2.704.58-1.234 1.096-2.635 1.08-4.145-.004-.45-.019-1.184-.541-1.621z"/></g><g><path fill="#4d3d87" d="M57.112 58.041c-.166-1.446.624-2.352 1.172-3.243.637-1.038 1.457-2.425 1.17-4.414-.07-.505-.316-1.178-.719-1.263-1.01-.213-1.34 1.212-1.532 2.252-.197 1.074-.102 2.734-.992 2.704-.647-.022-.815-1.184-.81-2.162.013-2.476 1.43-5.65 4.145-4.777 1.598.515 2.665 3.503 2.523 6.128a8.295 8.295 0 0 1-1.08 3.693c-.8 1.377-2.653 2.9-3.877 1.082z"/></g><g><path fill="#4d3d87" d="M95.892 58.592c-.167-1.45.622-2.352 1.171-3.245.636-1.036 1.457-2.425 1.17-4.415-.07-.502-.316-1.175-.719-1.261-1.01-.213-1.34 1.211-1.531 2.254-.2 1.071-.102 2.733-.993 2.702-.646-.022-.816-1.184-.81-2.162.013-2.476 1.43-5.65 4.145-4.777 1.597.515 2.666 3.503 2.523 6.126a8.28 8.28 0 0 1-1.081 3.697c-.798 1.373-2.65 2.898-3.875 1.08z"/></g><g><path fill="#4d3d87" d="M79.912 58.163c-.167-1.45.624-2.353 1.17-3.245.637-1.036 1.458-2.424 1.172-4.414-.072-.504-.317-1.178-.72-1.262-1.01-.213-1.341 1.211-1.533 2.253-.197 1.073-.1 2.732-.99 2.703-.647-.022-.817-1.184-.81-2.162.012-2.477 1.43-5.652 4.144-4.778 1.597.516 2.665 3.504 2.523 6.13a8.302 8.302 0 0 1-1.082 3.693c-.798 1.376-2.649 2.899-3.874 1.081z"/></g><g><path fill="#4d3d87" d="M71.975 58.318c-.418-1.14.354-2.29.813-3.333.686-1.563 1.715-3.73.632-5.588-.83.131-1.052.86-1.353 1.532-.272.61-.337 1.587-1.082 1.713-.564-.404.033-1.306.27-2.072.402-1.29 1.236-3.586 3.155-2.703 1.233.568 1.683 3.218 1.531 5.316-.09 1.248-.528 2.832-1.171 3.784-.615.911-1.652 1.834-2.795 1.351z"/></g><g><path fill="#4d3d87" d="M66.126 49.483c-.731.189-.92.93-1.171 1.622-.249.686-.265 1.586-.811 1.981-.75-.128-.497-1.632-.36-2.342.289-1.493 1.778-4.044 3.785-2.612 1.123.8 1.38 3.127 1.26 4.775-.12 1.7-.757 3.72-1.622 4.775-.283.347-.895.91-1.26.993-.83.184-1.69-.225-1.713-.722-.041-.895.971-1.896 1.351-2.704.58-1.232 1.097-2.634 1.081-4.144-.004-.45-.018-1.184-.54-1.622z"/></g><g><path fill="#4d3d87" d="M103.668 60.9c-.42-1.14.351-2.291.81-3.334.686-1.562 1.715-3.73.63-5.586-.826.13-1.052.858-1.351 1.531-.272.61-.336 1.585-1.082 1.712-.564-.404.034-1.307.27-2.073.4-1.29 1.237-3.586 3.155-2.703 1.233.568 1.68 3.218 1.531 5.315-.09 1.248-.528 2.834-1.171 3.785-.615.911-1.652 1.834-2.792 1.352z"/></g><g><path fill="#4d3d87" d="M89.086 49.133c-.731.189-.92.93-1.171 1.622-.25.685-.264 1.586-.811 1.982-.749-.128-.498-1.633-.362-2.342.29-1.493 1.78-4.045 3.787-2.613 1.123.801 1.378 3.127 1.26 4.776-.122 1.7-.756 3.72-1.621 4.775-.283.345-.897.91-1.263.992-.829.182-1.689-.226-1.71-.722-.041-.893.97-1.896 1.352-2.704.58-1.233 1.095-2.634 1.08-4.144-.005-.45-.02-1.184-.541-1.622z"/></g></g></g></g><g><g><g><g><g><path fill="#8f7ece" d="M146.064 134.82c-.07 1.51-1.17 3.055-1.256 4.854-.066 1.333.108 2.866.588 4.229.924 2.625 3.527 3.546 4.504 5.565-10.357 4.617-21.886 8.525-33.616 12.784-3.4 1.233-9.19 3.406-12.405 2.224-3.183-1.17-5.738-7.821-3.325-11.363 1.522-2.231 5.98-4.182 9.988-5.59 7.55-2.646 16.797-5.098 23.804-7.924 4.241-1.709 8.086-3.357 11.718-4.779z"/></g><g opacity=".81"><path fill="#fff" d="M146.064 134.82c-.07 1.51-1.17 3.055-1.256 4.854-.066 1.333.108 2.866.588 4.229.924 2.625 3.527 3.546 4.504 5.565-10.357 4.617-21.886 8.525-33.616 12.784-3.4 1.233-9.19 3.406-12.405 2.224-3.183-1.17-5.738-7.821-3.325-11.363 1.522-2.231 5.98-4.182 9.988-5.59 7.55-2.646 16.797-5.098 23.804-7.924 4.241-1.709 8.086-3.357 11.718-4.779z"/></g><g><g><path fill="#8f7ece" d="M137.497 143.449c.112 1.335-32.356 12.905-32.914 11.519-.393-.962 7.947-3.427 16.057-6.211 8.49-2.916 16.788-6.123 16.857-5.308z"/></g><g><path fill="#8f7ece" d="M144.664 144.77c.11 1.33-32.357 12.902-32.92 11.516-.39-.96 7.952-3.425 16.06-6.21 8.496-2.918 16.79-6.124 16.86-5.307z"/></g></g></g><g><g><path fill="#4d3d87" d="M103.364 152.646c-2.202 2.498-1.699 8.067 1.278 9.638 13.07-4.196 26.477-9.073 40.265-12.866 1.698-.466 4.892-2.132 5.696 0 .834 2.188-2.847 2.812-4.459 3.46-10.987 4.434-23.035 9.49-36.015 12.507-2.32.542-5.094 1.332-7.04 1.061-1.54-.212-3.485-1.794-4.992-2.908-7.352-5.41-15.105-12.14-21.726-18.378-2.52-2.37-6.348-5.518-7.591-8.395-2.554-5.91 1.67-8.372 6.466-10.754 3.446-1.711 7.014-2.842 10.124-3.934 7.898-2.77 13.812-5.505 20.014-7.844 4.684-1.77 10.315 2.233 13.861 3.83 7.726 3.48 12.898 5.808 20.565 10.157 1.987 1.132 8.559 4.742 8.178 6.926-.403 2.326-7.942 3.955-10.515 4.915-11.494 4.283-22.766 8.54-34.109 12.585z"/></g><g opacity=".21"><path d="M98.342 154.029c-2.41 1.436-27.758-21.047-26.859-22.24.588-.787 5.976 4.407 12.217 9.587 7.236 6.003 15.377 12.216 14.642 12.653z"/></g></g></g><g><g><g><path fill="#8f7ece" d="M76.43 125.908c.427-2.03 1.904-2.993 2.435-4.953.36-1.325.252-3.273.548-4.795 1.833.04 3.665 2.698 5.116 4.322 3.028 3.383 5.088 6.08 8.414 9.749 1.225 1.354 3.33 3.918 4.623 4.128 2.898.474 7.685-1.996 10.674-3.028 7.131-2.461 12.399-4.485 20.345-6.686 4.465-1.238 10.572-2.417 11.583 2.12.956 4.298-3.415 6.622-6.902 8.417-3.645 1.877-7.555 3.554-10.753 4.935-3.442 1.487-6.854 3.189-11.242 4.738-3.612 1.28-8.902 3.536-12.582 2.953-2.083-.329-4.791-3.178-6.336-4.698-5.873-5.793-10.131-11.348-15.923-17.202z"/></g><g opacity=".81"><path fill="#fff" d="M76.43 125.908c.427-2.03 1.904-2.993 2.435-4.953.36-1.325.252-3.273.548-4.795 1.833.04 3.665 2.698 5.116 4.322 3.028 3.383 5.088 6.08 8.414 9.749 1.225 1.354 3.33 3.918 4.623 4.128 2.898.474 7.685-1.996 10.674-3.028 7.131-2.461 12.399-4.485 20.345-6.686 4.465-1.238 10.572-2.417 11.583 2.12.956 4.298-3.415 6.622-6.902 8.417-3.645 1.877-7.555 3.554-10.753 4.935-3.442 1.487-6.854 3.189-11.242 4.738-3.612 1.28-8.902 3.536-12.582 2.953-2.083-.329-4.791-3.178-6.336-4.698-5.873-5.793-10.131-11.348-15.923-17.202z"/></g><g><g><path fill="#efad1b" d="M75.552 124.125c1.075-.953 12.726 11.73 17.816 16.995 1.863 1.928 3.704 5.145 5.682 5.464 2.595.42 8.884-2.431 11.13-3.302 7.31-2.829 12.952-5.154 19.954-8.555 2.438-1.187 7.908-3.27 8.59-5.229.403-1.168.42-3.166-.314-3.774-1.423-1.186-7.09.88-10.302 1.809-8.396 2.425-16.011 5.512-24.476 8.458-1.745.607-3.795 1.477-5.11 1.374-2.087-.16-3.989-3.05-5.624-4.756-5.128-5.342-14.485-14.76-14.001-16.888.524-2.31 25.91-10.616 36.33-11.581 1.212-.115 3.624-.422 5.489.253 5.566 2.02 11.974 9.568 15.962 14.82 1.513 1.994 3.58 4.375 4.09 6.314 1.438 5.468-1.218 6.808-4.737 8.706-8.57 4.625-16.493 7.678-26.128 11.445-1.455.57-3.522 1.47-5.521 2.128-2.038.668-4.548 1.51-6.314 1.239-1.925-.298-4.408-3.816-5.917-5.449-3.957-4.278-17.485-18.68-16.6-19.47z"/></g><g opacity=".12"><path fill="#fff" d="M132.146 122.126c-.387.846-2.408-1.17-3.48-2.307-2.047-2.187-6.427-5.952-8.651-8.666-1.318-1.603-3.844-4.56-3.056-5.212.62-.508 2.646 1.829 3.708 2.984 2.237 2.434 6.614 6.529 8.981 9.045.938.998 2.992 3.08 2.498 4.156z"/></g></g><g><g><path fill="#8f7ece" d="M94.91 138.98c1.281 1.142 2.517 2.32 3.798 3.363.486.38 1.034.775 1.433.938.098.042.17.037.112.027-.088.015.068-.015.097-.023l.193-.055c.285-.087.592-.19.893-.297 1.221-.42 2.461-.866 3.692-1.335 2.48-.884 4.96-1.786 7.481-2.592 1.613-.52 3.234-1.026 4.877-1.471.923-.253 1.238.182.45.6a84.74 84.74 0 0 1-4.771 2.309c-2.414 1.1-4.872 2.082-7.365 3.01-1.258.432-2.508.879-3.807 1.254-.328.092-.652.184-1.01.26l-.29.054c-.138.023-.143.038-.397.046a1.89 1.89 0 0 1-.839-.205c-.803-.401-1.264-.89-1.774-1.376-1.26-1.287-2.342-2.666-3.363-4.085-.531-.738-.112-1.051.59-.421z"/></g><g><path fill="#8f7ece" d="M136.129 127.069c.111 1.334-32.358 12.904-32.916 11.52-.391-.96 7.948-3.428 16.058-6.212 8.49-2.917 16.787-6.123 16.858-5.308z"/></g></g></g><g><g><path fill="#fff" d="M96.21 127.91c.184 1.098 1.41 2.514 2.7 3.834.55.563 1.459 1.463 2.02 1.026.672-.522-.197-1.708-.508-2.131-.988-1.337-2.455-2.753-3.454-3.279-.262-.01-.63.275-.758.55z"/></g><g><path fill="#fff" d="M97.562 132.911c-1.597.81.739 3.955 1.826 2.94.471-.439-.09-2.382-.89-2.929-.287-.196-.658-.152-.936-.01z"/></g></g></g></g><g><g><g><path fill="#4d3d87" d="M80.015 122.03c-.47-.247-.46-1.147-.436-1.72.099-2.272 1.876-3.126 3.926-4.422 2.74-1.732 5.495-3.276 8.19-4.775 1.75-.973 4.077-2.485 6.607-2.694 3.088-.255 6.024.157 8.92.531 7.021.908 13.392 2.11 20.197 3.596 1.37.3 3.358.461 3.52 1.27.31 1.545-1.985 1.348-3.522 1.071-1.087-.195-2.877-.58-4.067-.833-7.102-1.523-13.403-2.56-20.876-3.542-2.028-.264-4.062-.572-5.935.2-1.435.59-2.777 1.881-4.15 2.88-2.73 1.983-5.34 3.997-7.99 6.026-1.273.973-2.507 2.355-4.384 2.411z"/></g><g><path fill="#4d3d87" d="M125.947 131.772c.975.354 1.777-2.012 1.832-2.554.145-1.419-3.292-6.536-4.79-9.051-.974-1.635-2.165-3.987-4.142-5.363-2.415-1.683-5.023-2.747-7.58-3.82-6.199-2.605-12.003-4.657-18.303-6.683-1.268-.407-2.979-1.222-3.496-.636-.992 1.122.987 2.055 2.38 2.559.988.36 2.64.9 3.74 1.258 6.559 2.138 12.23 4.29 18.834 7.05 1.792.75 3.609 1.467 4.778 2.994.896 1.17 1.384 2.87 2.037 4.345 1.294 2.933 3.034 9.29 4.71 9.9z"/></g><g><path fill="#4d3d87" d="M98.505 97.683c5.016-.461 9.445 2.131 10.403 6.71.687 3.286-.889 6.05-2.43 7.777-2.477 2.774-6.98 5.131-11.278 5.442-5.665.414-10.355-2.412-10.11-8.262.115-2.803 1.922-5.145 3.5-6.805 1.977-2.083 4.072-3.53 7.097-4.375.848-.24 1.679-.382 2.818-.487zm-6.027 4.57c-1.61 1.046-3.565 2.884-4.278 4.667-2.026 5.073 2.487 7.945 7.195 7.583 4.63-.356 9.074-3.323 10.596-6.515.338-.71.712-1.723.682-2.915-.103-3.769-3.959-5.423-7.584-5.058-2.82.287-4.737 1.019-6.61 2.238z"/></g><g><path fill="#4d3d87" d="M123.823 102.013c5.018-.463 9.447 2.13 10.403 6.707.689 3.288-.888 6.051-2.43 7.778-2.476 2.775-6.98 5.132-11.278 5.444-5.664.412-10.353-2.411-10.109-8.264.116-2.803 1.922-5.143 3.5-6.806 1.977-2.083 4.073-3.528 7.096-4.374.848-.237 1.68-.38 2.818-.485zm-6.026 4.57c-1.61 1.045-3.566 2.881-4.278 4.666-2.025 5.073 2.486 7.946 7.195 7.582 4.629-.357 9.074-3.322 10.596-6.514.34-.71.712-1.723.681-2.916-.1-3.766-3.956-5.422-7.583-5.055-2.82.285-4.738 1.018-6.611 2.236z"/></g><g opacity=".6"><path fill="#fff" d="M92.476 102.257c-1.61 1.046-3.566 2.884-4.278 4.667-2.027 5.073 2.486 7.945 7.194 7.583 4.63-.357 9.075-3.323 10.596-6.515.339-.71.712-1.722.682-2.915-.103-3.769-3.959-5.423-7.584-5.058-2.82.287-4.737 1.019-6.61 2.238z"/></g><g opacity=".6"><path fill="#fff" d="M117.795 106.586c-1.61 1.046-3.565 2.882-4.278 4.667-2.025 5.072 2.486 7.945 7.195 7.581 4.63-.356 9.074-3.321 10.596-6.513.34-.71.712-1.723.682-2.916-.1-3.767-3.957-5.422-7.584-5.055-2.82.285-4.737 1.018-6.611 2.236z"/></g></g><g><g><path fill="#fff" d="M125.447 103.902c.571.871-1.211 1.298-2.135 1.504-.969.218-1.97.5-2.146-.094-.09-.304.213-.526.453-.753.573-.551 2.957-1.082 3.516-.904.104.034.25.146.312.247z"/></g><g><path fill="#fff" d="M122.625 106.942c.667 1.05-2.071 1.684-2.247.689"/></g><g><path fill="#fff" d="M119.719 105.714c.096.145.167.358.101.55-.204.585-2.623 1.511-2.843.424-.088-.438.624-.878 1.33-1.122.564-.197 1.16-.237 1.412.148z"/></g></g><g><g><path fill="#fff" d="M98.547 113.08c-.304 1.505 3.539.49 2.548-.65"/></g><g><path fill="#fff" d="M96.756 115.068c.259-.197.686-.737.254-1.228-.562-.642-2.244-.319-2.936-.316-.84.003-2.425-.373-2.89.452-.665 1.175 1.775 1.355 2.615 1.382.447.014.887-.015 1.266-.023.65-.012 1.192.107 1.69-.267z"/></g></g></g></g><g><g><path fill="#ff5000" d="M43.456 86.12c-.74-2.872-.354-7.15-2.376-10.365-.462-.737-1.269-1.597-1.932-1.292-1.058.487-.468 3.746-.381 4.66.177 1.83.414 3.306.718 4.982-.81-1.566-1.42-3.588-2.513-5.638-.774-1.448-2.41-4.387-3.648-3.912-1.718.659.227 5.477.761 6.981.772 2.168 2.018 5.264 3.574 7.802 1.548 2.527 4.493 5.673 6.904 2.873.55-.642 1.09-1.663 1.522-2.54.85-1.733 1.317-3.448 1.661-5.349.169-.935.399-1.967.34-2.816-.057-.865-.289-1.802-1.218-2.079-1.463.517-1.955 1.912-2.401 3.013-.483 1.183-.766 2.465-1.054 3.602.014.028.029.054.043.079z"/></g><g><g><g><g><path fill="#4d3d87" d="M61.631 124.76c-.014 2.42-.072 5.015-.256 7.35-.057.79-.024 1.642-.25 2.282-.402 1.136-1.959 2.178-2.45 3.55-.566 1.575-.413 3.826-.509 5.916-.099 2.116-.135 4.203-.253 6.169-.255 4.2.31 8.707-.932 11.832l-.082.168c-1.68 3.067-7.36 4.16-11.494 4.647-6.619.78-14.936.417-17.069-4.225-.367-.8-.51-1.904-.676-2.959-.834-5.246-1.035-10.878-1.692-16.308-.128-1.08-.278-2.163-.42-3.213-.145-1.06-.286-2.12-.591-2.956-.507-1.372-1.866-1.964-2.369-3.21-.924-2.304-.475-6.248-.505-9.297.953-.943 2.135-1.659 3.38-2.367 3.607-2.045 8.234-3.122 13.774-3.38 4.375-.202 9.32.407 13.1 1.184 4.057.835 7.735 2.163 9.294 4.816z"/></g><g><path fill="#efad1b" d="M59.214 126.614c.104.716-.662 1.032-1.146 1.315-7.19 4.184-21.086 4.118-31.09 1.623-.604-.151-1.357-.323-1.744-.82-.091-.403.297-.396.525-.575.51-.399 1.092-.994 1.74-1.379 1.87-1.1 4.336-1.99 6.854-2.55 7.313-1.628 18.288-1.433 24.189 2.194.169.446.606-.183.672.192z"/></g><g><g><path fill="#8f7ece" d="M41.102 118.598c4.352-.209 8.724.152 12.339 1.012 1.822.436 3.157.724 5.068 1.606 1.502.691 3.276 1.933 3.465 3.21.278 1.871-1.194 3.458-2.448 4.312-1.454.989-3.19 1.504-4.819 1.943-3.653.979-8.089 1.183-12.254 1.183-3.897 0-8.566-.096-12.421-1.014-1.56-.372-3.279-1.028-4.899-1.86-1.467-.751-3.123-1.988-3.297-3.38-.45-3.54 4.992-4.802 7.605-5.492 3.68-.972 7.14-1.306 11.661-1.52zm-13.858 9.04c4.224 1.456 9.542 1.758 14.958 1.944 5.81.202 10.505-.696 14.449-2.366.868-.367 3.354-1.243 3.295-2.366-.05-.952-2.402-1.934-3.463-2.366-4.223-1.72-9.737-2.22-15.634-1.945-4.775.229-10.334 1.13-13.943 2.62-1.263.52-2.61 1.207-3.128 2.366.712 1.157 2.127 1.653 3.466 2.114z"/></g></g></g><g opacity=".21"><path d="M27.41 137.78c6.017.953 10.553 1.26 16.056 1.01 6.073-.275 15.04-2.28 15.04-2.28s-5.21 3.591-14.956 3.97c-6.099.24-12.024-.48-16.14-2.7z"/></g><g><g><path fill="#fff" d="M32.455 158.64c-1.179.312-.985 4.415.508 4.023"/></g><g><path fill="#fff" d="M30.931 156.025c.98-.055.828-1.094.861-1.906.03-.719.233-1.607.213-2.232-.022-.825-.24-1.862-.842-2.157-.7.61-.817 1.95-.908 3.002-.089 1.034-.227 2.447.676 3.293z"/></g><g><path fill="#fff" d="M30.525 146.162c.98-.965.83-2.499.871-3.935a.658.658 0 0 1-.485-.247c-.724.2-.973 1.36-1.067 2.107-.094.757-.258 1.97.68 2.075z"/></g><g><path fill="#fff" d="M35.098 151.008c.914-.537 1.086-2.859-.106-3.208"/></g></g></g><g><g><g><path fill="#b1bc00" d="M35.337 123.196c.25 1.186.51 2.37.783 3.549h11.63c.484-.66.815-2.157 1.151-3.244 1.09-3.51 2.117-6.961 2.559-10.589.32-2.661.233-5.138.074-7.533-.175-2.6-.586-5.676-1.638-8.031-1.012-2.277-2.728-4.373-4.24-5.014-1.904-.807-5.754-.129-8.233.981-2.667 1.194-4.347 2.907-5.073 4.752-.854 2.167-.745 5.219-.471 7.95.562 5.64 2.263 11.51 3.458 17.179z"/></g><g><g opacity=".21"><path d="M36.478 125.312c.057.478.13.952.201 1.427h1.678c-.426-3.58-.974-7.217-1.357-10.82-.341-3.215-.676-6.457-.826-9.785-.144-3.138-.532-6.618.315-9.383.437-1.425 1.275-2.608 2-3.861-.373.13-.732.272-1.064.419-.138.062-.261.13-.394.194-.458.72-.898 1.466-1.211 2.19-1.157 2.659-1.044 6.477-.962 9.528.177 6.575.807 13.3 1.62 20.09z"/></g><g opacity=".21"><path d="M40.739 126.747h1.587c.078-4.711-.131-9.54-.23-14.372-.068-3.453-.634-7.131-.768-10.826-.06-1.689.083-3.51.166-5.255.07-1.423.21-2.852.19-4.174-.274.038-.551.086-.83.14-1.318 6.352-.443 13.1-.262 19.81.129 4.861-.026 9.743.147 14.677z"/></g><g opacity=".21"><path d="M44.96 100.81c1.487 8.993.675 17.533-.117 25.934H46.3c.239-1.536.422-3.146.553-4.571.312-3.337.339-6.853.422-10.151.087-3.414-.074-6.927-.721-10.549-.563-3.153-1.676-6.23-2.64-9.483-.317-.014-.65-.013-.994.004.053.245.113.485.16.714.538 2.6 1.439 5.44 1.88 8.102z"/></g></g></g><g><g><g><path fill="#fff" d="M33.25 98.967c.343 1.201 1.522 1.527 2.274 2.12.129.454-.6.662-.298 1.17.32.257.854-.177 1.328-.408.77.037 1.506 1.268 2.352.354-.052-.668-.75-.97-1.157-1.2.275-.67 1.232-1.142.642-2.065-.748-.073-1.12.841-1.713 1.224-1.233-.113-2.052-1.552-3.428-1.195z"/></g><g><path fill="#fff" d="M46.477 100.367c-.483-.375-.845-1.139-1.52-.906.04.078-.064.114-.117.165.074.674.711 1.255 1.09 1.643-.08.508-1.135.732-.943 1.316.321-.103.64-.202 1.002-.437.203.544-.152 1.21-.24 1.85-.092.671-.147 1.381-.036 2.047.441-.338.689-1.071.853-1.674.174-.646.246-1.353.403-1.938.7.51 1.61 1.255 2.268 1.92.202.206.238.675.618.578.588-.365-.022-1.069-.232-1.394-.536-.821-1.62-1.642-2.114-2.206.48-.522 1.632-.851 1.058-1.68-.294-.038-.78.312-.963.516-.041-.853.621-1.5.352-2.417-1.225.398-.973 1.79-1.479 2.617z"/></g><g><path fill="#fff" d="M39.953 107.02c-.483.68.123 1.672.584 2.622-.499-.034-.82-.645-1.387-.468.157.817.982 1.253 1.493 1.627-.185.475-1.073.748-.94 1.316.463-.062 1.041-.49 1.561-.738.87 1.203 1.574 2.937 2.479 4.036.476-.766-.402-1.929-.753-2.938.768.096 1.253 1.11 2.198.641-.211-1.385-1.943-1.418-2.76-2.264.429-.513 1.535-.833 1.586-1.46-.073-.13-.14-.26-.213-.39-.668-.098-1.243.658-1.96.95-.526-.947-.855-2.828-1.888-2.934z"/></g><g><path fill="#fff" d="M40.961 121.36c-.14.602-1.123.957-.733 1.71.497.026.776-.502 1.281-.689.53.951 1.258 2.44 1.825 3.422h.247c.215-.967-.54-2.212-.776-3.308.62.082 1.04.8 1.831.336.2-.962-1.067-1.162-1.654-1.543.374-.65 1.917-1.163 1.577-1.861-.425-.876-1.738.502-2.446 1.01-.629-.533-.662-2.553-1.714-2.42-.433.515-.043 1.269.249 1.994-.5.176-.77-.385-1.298-.113.176.822 1.05 1.17 1.611 1.463z"/></g></g><g><g><path fill="#b1bc00" d="M33.25 98.967c.343 1.201 1.522 1.527 2.274 2.12.129.454-.6.662-.298 1.17.32.257.854-.177 1.328-.408.77.037 1.506 1.268 2.352.354-.052-.668-.75-.97-1.157-1.2.275-.67 1.232-1.142.642-2.065-.748-.073-1.12.841-1.713 1.224-1.233-.113-2.052-1.552-3.428-1.195z"/></g><g><path fill="#b1bc00" d="M46.477 100.367c-.483-.375-.845-1.139-1.52-.906.04.078-.064.114-.117.165.074.674.711 1.255 1.09 1.643-.08.508-1.135.732-.943 1.316.321-.103.64-.202 1.002-.437.203.544-.152 1.21-.24 1.85-.092.671-.147 1.381-.036 2.047.441-.338.689-1.071.853-1.674.174-.646.246-1.353.403-1.938.7.51 1.61 1.255 2.268 1.92.202.206.238.675.618.578.588-.365-.022-1.069-.232-1.394-.536-.821-1.62-1.642-2.114-2.206.48-.522 1.632-.851 1.058-1.68-.294-.038-.78.312-.963.516-.041-.853.621-1.5.352-2.417-1.225.398-.973 1.79-1.479 2.617z"/></g><g><path fill="#b1bc00" d="M39.953 107.02c-.483.68.123 1.672.584 2.622-.499-.034-.82-.645-1.387-.468.157.817.982 1.253 1.493 1.627-.185.475-1.073.748-.94 1.316.463-.062 1.041-.49 1.561-.738.87 1.203 1.574 2.937 2.479 4.036.476-.766-.402-1.929-.753-2.938.768.096 1.253 1.11 2.198.641-.211-1.385-1.943-1.418-2.76-2.264.429-.513 1.535-.833 1.586-1.46-.073-.13-.14-.26-.213-.39-.668-.098-1.243.658-1.96.95-.526-.947-.855-2.828-1.888-2.934z"/></g><g><path fill="#b1bc00" d="M40.961 121.36c-.14.602-1.123.957-.733 1.71.497.026.776-.502 1.281-.689.53.951 1.258 2.44 1.825 3.422h.247c.215-.967-.54-2.212-.776-3.308.62.082 1.04.8 1.831.336.2-.962-1.067-1.162-1.654-1.543.374-.65 1.917-1.163 1.577-1.861-.425-.876-1.738.502-2.446 1.01-.629-.533-.662-2.553-1.714-2.42-.433.515-.043 1.269.249 1.994-.5.176-.77-.385-1.298-.113.176.822 1.05 1.17 1.611 1.463z"/></g></g><g opacity=".21"><g opacity=".04"><path d="M33.25 98.967c.343 1.201 1.522 1.527 2.274 2.12.129.454-.6.662-.298 1.17.32.257.854-.177 1.328-.408.77.037 1.506 1.268 2.352.354-.052-.668-.75-.97-1.157-1.2.275-.67 1.232-1.142.642-2.065-.748-.073-1.12.841-1.713 1.224-1.233-.113-2.052-1.552-3.428-1.195z"/></g><g opacity=".04"><path d="M46.477 100.367c-.483-.375-.845-1.139-1.52-.906.04.078-.064.114-.117.165.074.674.711 1.255 1.09 1.643-.08.508-1.135.732-.943 1.316.321-.103.64-.202 1.002-.437.203.544-.152 1.21-.24 1.85-.092.671-.147 1.381-.036 2.047.441-.338.689-1.071.853-1.674.174-.646.246-1.353.403-1.938.7.51 1.61 1.255 2.268 1.92.202.206.238.675.618.578.588-.365-.022-1.069-.232-1.394-.536-.821-1.62-1.642-2.114-2.206.48-.522 1.632-.851 1.058-1.68-.294-.038-.78.312-.963.516-.041-.853.621-1.5.352-2.417-1.225.398-.973 1.79-1.479 2.617z"/></g><g opacity=".04"><path d="M39.953 107.02c-.483.68.123 1.672.584 2.622-.499-.034-.82-.645-1.387-.468.157.817.982 1.253 1.493 1.627-.185.475-1.073.748-.94 1.316.463-.062 1.041-.49 1.561-.738.87 1.203 1.574 2.937 2.479 4.036.476-.766-.402-1.929-.753-2.938.768.096 1.253 1.11 2.198.641-.211-1.385-1.943-1.418-2.76-2.264.429-.513 1.535-.833 1.586-1.46-.073-.13-.14-.26-.213-.39-.668-.098-1.243.658-1.96.95-.526-.947-.855-2.828-1.888-2.934z"/></g><g opacity=".04"><path d="M40.961 121.36c-.14.602-1.123.957-.733 1.71.497.026.776-.502 1.281-.689.53.951 1.258 2.44 1.825 3.422h.247c.215-.967-.54-2.212-.776-3.308.62.082 1.04.8 1.831.336.2-.962-1.067-1.162-1.654-1.543.374-.65 1.917-1.163 1.577-1.861-.425-.876-1.738.502-2.446 1.01-.629-.533-.662-2.553-1.714-2.42-.433.515-.043 1.269.249 1.994-.5.176-.77-.385-1.298-.113.176.822 1.05 1.17 1.611 1.463z"/></g></g><g opacity=".21"><g opacity=".04"><path d="M33.25 98.967c.343 1.201 1.522 1.527 2.274 2.12.129.454-.6.662-.298 1.17.32.257.854-.177 1.328-.408.77.037 1.506 1.268 2.352.354-.052-.668-.75-.97-1.157-1.2.275-.67 1.232-1.142.642-2.065-.748-.073-1.12.841-1.713 1.224-1.233-.113-2.052-1.552-3.428-1.195z"/></g><g opacity=".04"><path d="M46.477 100.367c-.483-.375-.845-1.139-1.52-.906.04.078-.064.114-.117.165.074.674.711 1.255 1.09 1.643-.08.508-1.135.732-.943 1.316.321-.103.64-.202 1.002-.437.203.544-.152 1.21-.24 1.85-.092.671-.147 1.381-.036 2.047.441-.338.689-1.071.853-1.674.174-.646.246-1.353.403-1.938.7.51 1.61 1.255 2.268 1.92.202.206.238.675.618.578.588-.365-.022-1.069-.232-1.394-.536-.821-1.62-1.642-2.114-2.206.48-.522 1.632-.851 1.058-1.68-.294-.038-.78.312-.963.516-.041-.853.621-1.5.352-2.417-1.225.398-.973 1.79-1.479 2.617z"/></g><g opacity=".04"><path d="M39.953 107.02c-.483.68.123 1.672.584 2.622-.499-.034-.82-.645-1.387-.468.157.817.982 1.253 1.493 1.627-.185.475-1.073.748-.94 1.316.463-.062 1.041-.49 1.561-.738.87 1.203 1.574 2.937 2.479 4.036.476-.766-.402-1.929-.753-2.938.768.096 1.253 1.11 2.198.641-.211-1.385-1.943-1.418-2.76-2.264.429-.513 1.535-.833 1.586-1.46-.073-.13-.14-.26-.213-.39-.668-.098-1.243.658-1.96.95-.526-.947-.855-2.828-1.888-2.934z"/></g><g opacity=".04"><path d="M40.961 121.36c-.14.602-1.123.957-.733 1.71.497.026.776-.502 1.281-.689.53.951 1.258 2.44 1.825 3.422h.247c.215-.967-.54-2.212-.776-3.308.62.082 1.04.8 1.831.336.2-.962-1.067-1.162-1.654-1.543.374-.65 1.917-1.163 1.577-1.861-.425-.876-1.738.502-2.446 1.01-.629-.533-.662-2.553-1.714-2.42-.433.515-.043 1.269.249 1.994-.5.176-.77-.385-1.298-.113.176.822 1.05 1.17 1.611 1.463z"/></g></g></g></g></g></g></g></g></g></g></svg>