<svg xmlns="http://www.w3.org/2000/svg" width="171" height="180" viewBox="0 0 171 180"><g><g><path fill="#eff2fd" d="M13 76.5C13 34.25 47.25 0 89.5 0S166 34.25 166 76.5 131.75 153 89.5 153 13 118.75 13 76.5z"/></g><g><g/><g><g><g><g><g><path fill="#ff5000" d="M49.071 22.865c5.624-.546 12.257 1.397 16.972 2.576 10.673 2.666 20.768 5.116 31.066 8.031 4.956 1.402 10.103 2.971 15.154 4.394 10.35 2.92 19.629 5.157 30.46 8.638 4.647 1.494 9.865 2.881 14.848 4.699 4.175 1.52 9.533 3.6 11.821 7.577.521.904 1.341 2.71 1.516 4.092.458 3.62-.923 7.64-1.819 10.91-2.713 9.917-6.432 19.197-9.395 28.793-3.212 10.403-5.417 19.441-7.88 30.307-1.605 7.079-2.348 15.465-11.669 14.394-1.391-.157-2.583-.584-3.939-.907-2.851-.68-5.957-.697-8.486-1.213-5.46-1.111-10.948-2.593-15.76-3.788-10.892-2.704-20.69-5.293-30.913-8.031-15.4-4.124-29.07-9.443-44.857-13.79-5.239-1.444-12.702-2.206-15.154-5.607-.534-.743-1.413-2.516-1.82-3.788-.704-2.21.01-4.702.457-7.424 1.979-12.127 5.322-24.614 8.333-35.462 2.888-10.402 6.352-18.257 9.397-28.188.945-3.086 1.686-6.425 3.03-9.396 1.63-3.6 5.081-6.472 8.638-6.817z"/></g><g><g><path fill="#c0b7e4" d="M107.456 44.937c1.964-1.234 3.857-2.56 6.966-2.878 5.362-.551 11.349.64 15.762 1.667 4.434 1.03 8.666 2.728 13.109 4.09a795.071 795.071 0 0 0 13.273 3.943c3.814 1.096 10.664 2.733 11.613 5.453.571 1.637-.151 4.045-.829 5.759-1.94 4.898-3.782 10.346-5.309 15.457-2.03 6.8-4.706 13.497-6.97 20.609-2.144 6.739-4.264 13.758-6.803 20.762-1.149 3.18-2.489 6.394-3.814 10.001-1.291 3.508-2.078 7.821-5.64 8.64-2.078.472-3.679-.433-5.81-1.517-1.828-.933-3.843-1.741-5.14-2.426-3.405-1.789-6.718-3.796-9.792-5.151-7.334-3.235-17.973-4.375-25.552-1.82-4.592 1.553-7.233 3.583-11.448 6.517-6.814-9.052-14.089-14.816-25.552-18.943-3.711-1.337-7.721-2.468-12.277-2.727-5.507-.314-14.666 1.77-17.254-1.82-.567-.782-1.004-2.831-.83-4.848.313-3.64 1.543-7.32 2.322-10.91.772-3.556 1.6-7.142 2.49-10.61 1.672-6.52 4.192-12.574 6.306-20.002 2.829-9.953 5.622-20.072 8.625-30.763.72-2.553 2.288-8.94 5.31-8.94 2.34 0 5.058.826 7.47 1.516 6.933 1.982 13.08 4.035 20.57 5.759 7.049 1.619 14.2 3.287 20.076 6.213 3.775 1.875 7.127 3.492 9.128 6.969z"/></g><g><path fill="#e2dff2" d="M108.778 38.17c1.796-1.237 3.525-2.564 6.366-2.88 4.897-.55 10.365.64 14.396 1.663 4.047 1.033 7.914 2.732 11.972 4.094a700.974 700.974 0 0 0 12.121 3.941c3.485 1.099 9.739 2.735 10.609 5.454.522 1.638-.138 4.047-.758 5.759-1.773 4.898-3.454 10.345-4.85 15.458-1.853 6.798-4.297 13.495-6.364 20.61-1.959 6.738-3.894 13.757-6.214 20.76-1.052 3.179-2.274 6.396-3.484 10.001-1.178 3.507-1.895 7.821-5.152 8.638-1.895.477-3.36-.433-5.306-1.516-1.67-.933-3.507-1.741-4.697-2.425-3.106-1.789-6.131-3.796-8.939-5.15-6.7-3.234-16.419-4.374-23.337-1.819-4.197 1.549-6.607 3.581-10.456 6.515-6.227-9.053-12.87-14.815-23.338-18.94-3.389-1.338-7.053-2.47-11.214-2.729-5.028-.313-13.395 1.768-15.76-1.82-.518-.783-.918-2.832-.757-4.848.286-3.64 1.408-7.322 2.121-10.91.705-3.558 1.46-7.144 2.275-10.61 1.527-6.521 3.825-12.575 5.757-20.003 2.587-9.953 5.137-20.074 7.88-30.761.655-2.555 2.09-8.94 4.847-8.942 2.137 0 4.622.827 6.82 1.516 6.334 1.981 11.95 4.034 18.793 5.759 6.435 1.622 12.966 3.289 18.335 6.213 3.447 1.876 6.51 3.493 8.334 6.971z"/></g><g><g><g><g><path fill="#fff" d="M144.689 107.866c-.39.525-.99.074-1.35-.054-1.23-.437-2.45-1.213-3.7-1.75-1.726-.744-3.55-1.353-5.39-2.024-3.525-1.285-7.206-2.668-10.985-3.793-6.775-2.022-14.17-3.357-21.139-5.242-.856-.233-1.882-.389-2.505-1.083.13-.65.795-.573 1.327-.58.992-.014 2.135.314 3.289.532 3.037.572 6.158 1.428 8.905 2.125 4.04 1.026 7.972 2.06 11.795 2.98 6.093 1.46 11.95 2.82 16.306 5.626.679.439 1.36.978 2.012 1.48.563.439 1.52.925 1.435 1.783z"/></g><g><path fill="#fff" d="M137.94 123.228c-.393.525-.99.074-1.35-.055-1.23-.438-2.45-1.212-3.7-1.752-1.725-.742-3.55-1.35-5.39-2.022-3.526-1.285-7.205-2.667-10.986-3.794-6.775-2.02-14.17-3.355-21.139-5.24-.854-.233-1.882-.39-2.505-1.081.132-.652.797-.576 1.328-.584.99-.013 2.134.315 3.289.532 3.037.572 6.157 1.43 8.902 2.128 4.042 1.025 7.973 2.059 11.798 2.977 6.092 1.462 11.948 2.824 16.306 5.629.679.437 1.358.976 2.01 1.48.565.436 1.52.924 1.437 1.782z"/></g><g><path fill="#fff" d="M139.728 119.456c-.39.527-.989.076-1.348-.054-1.23-.436-2.45-1.211-3.702-1.75-1.725-.744-3.548-1.351-5.39-2.023-3.524-1.286-7.204-2.667-10.984-3.795-6.775-2.02-14.17-3.354-21.139-5.24-.856-.233-1.883-.388-2.505-1.082.13-.65.795-.574 1.328-.582.991-.012 2.133.315 3.29.533 3.035.57 6.157 1.43 8.903 2.127 4.04 1.024 7.972 2.058 11.797 2.977 6.091 1.461 11.948 2.822 16.304 5.627.679.439 1.36.978 2.012 1.482.562.436 1.52.923 1.434 1.78z"/></g><g><path fill="#fff" d="M141.632 111.153c-.967.259-1.985-.234-2.834-.573-5.98-2.383-12.466-4.832-19.157-6.836-5.656-1.695-11.807-3.106-17.653-4.87-.88-.266-1.915-.592-2.792-.931-.768-.296-1.846-.585-1.815-1.64 1.053-.52 2.794-.008 4.398.29 7.201 1.334 14.246 3.335 20.404 5.342 5.545 1.807 10.535 3.895 15.425 6.259.739.356 1.548.791 2.31 1.241.633.374 1.735.734 1.714 1.718z"/></g><g><path fill="#fff" d="M141.632 115.614c-.967.259-1.985-.234-2.834-.574-5.98-2.383-12.466-4.832-19.157-6.836-5.656-1.696-11.807-3.106-17.653-4.869-.88-.265-1.915-.591-2.792-.931-.768-.296-1.846-.585-1.815-1.64 1.053-.52 2.794-.01 4.398.289 7.201 1.335 14.246 3.335 20.404 5.343 5.545 1.807 10.535 3.894 15.425 6.258.739.357 1.548.79 2.31 1.241.633.375 1.735.734 1.714 1.719z"/></g></g><g><g><path fill="#8f7ece" d="M121.79 40.314c-.405 2.353-.946 4.593-1.518 6.804-2.406-.59-4.747-1.243-7.442-1.55.36-.957.687-2.028 1.158-3.07.377-.83 1.01-2.104 1.786-2.477.71-.342 1.784-.377 2.558-.339 1.174.06 2.322.572 3.457.632z"/></g><g><path fill="#8f7ece" d="M123.427 40.63c2.303.527 4.283 1.375 6.432 2.057-.75 2.088-1.537 4.15-2.137 6.365-2.032-.365-3.743-1.046-5.722-1.466.528-2.275.999-4.598 1.427-6.956z"/></g><g><path fill="#8f7ece" d="M131.35 43.25c1.74.568 3.404 1.219 5.135 1.802-.37 2.158-1.135 3.986-1.638 6.035-1.836-.507-3.612-1.07-5.467-1.556.63-2.115 1.317-4.182 1.97-6.281z"/></g><g><path fill="#8f7ece" d="M144.32 47.898c-.497 1.953-1.01 3.893-1.47 5.874-2.098-.732-4.25-1.41-6.35-2.137.541-1.966 1.108-3.909 1.553-5.955 2.153.676 4.167 1.489 6.268 2.218z"/></g><g><path fill="#8f7ece" d="M119.907 48.68c-.41 1.502-.846 2.983-1.182 4.544-2.723-.25-4.986-.956-8.015-.906.546-1.787 1.08-3.583 1.665-5.338 2.645.432 5.073 1.082 7.532 1.7z"/></g><g><path fill="#8f7ece" d="M127.194 50.631a99.03 99.03 0 0 1-1.447 4.4 74.915 74.915 0 0 0-5.377-1.403c.422-1.466.818-2.957 1.185-4.468 1.984.39 3.712 1.028 5.639 1.471z"/></g><g><path fill="#8f7ece" d="M150.408 50.045c-.573 1.962-1.28 3.814-1.816 5.808-1.466-.385-2.647-1.052-4.092-1.456.5-1.95.82-4.049 1.381-5.947 1.52.522 2.989 1.092 4.527 1.595z"/></g><g><path fill="#8f7ece" d="M128.838 51.1c1.973.398 3.699 1.037 5.552 1.551-.417 1.545-.93 3.012-1.264 4.624-1.957-.492-3.66-1.237-5.646-1.702.316-1.603 1.015-2.891 1.358-4.473z"/></g><g><path fill="#8f7ece" d="M151.893 50.61c1.467.491 4.325 1.39 5.086 2.656 1.041 1.728-.41 3.891-.533 5.756-2.157-.755-4.12-1.698-6.276-2.451.581-1.981 1.264-3.876 1.723-5.961z"/></g><g><path fill="#8f7ece" d="M118.184 54.8c-.286 1.927-.924 3.565-1.319 5.4a151.717 151.717 0 0 0-8.185-.897c.472-1.924.965-3.829 1.654-5.573 2.836.141 5.224.721 7.85 1.07z"/></g><g><path fill="#8f7ece" d="M136.052 53.2c2.166.69 4.285 1.428 6.437 2.134-.436 1.606-.872 3.21-1.258 4.857-2.232-.678-4.241-1.577-6.441-2.289.302-1.665.845-3.131 1.262-4.702z"/></g><g><path fill="#8f7ece" d="M125.298 56.597c-.557 1.652-1.018 3.387-1.591 5.026-1.638-.432-3.364-.777-5.107-1.105.45-1.792.901-3.583 1.408-5.328 1.823.411 3.622.846 5.29 1.407z"/></g><g><path fill="#8f7ece" d="M144.058 55.97c1.426.398 2.627 1.015 4.005 1.46-.46 1.635-.988 3.212-1.515 4.79-1.255-.406-2.43-.888-3.658-1.32.262-1.75.893-3.192 1.168-4.93z"/></g><g><path fill="#8f7ece" d="M132.598 58.851c-.381 1.673-.91 3.225-1.34 4.86-1.968-.537-3.854-1.155-5.818-1.695.493-1.657 1.03-3.28 1.51-4.946 1.94.536 3.774 1.179 5.648 1.781z"/></g><g><path fill="#8f7ece" d="M149.634 58.14c2.239.699 4.168 1.704 6.361 2.447-.485 1.613-1.015 3.188-1.428 4.863a100.927 100.927 0 0 0-6.367-2.601c.443-1.597 1.058-3.053 1.434-4.709z"/></g><g><path fill="#8f7ece" d="M140.699 61.847c-.344 1.604-.85 3.077-1.266 4.623a59.563 59.563 0 0 0-6.523-2.208c.447-1.594.923-3.164 1.344-4.782a67.993 67.993 0 0 1 6.445 2.367z"/></g><g><path fill="#8f7ece" d="M116.335 61.773c-.49 2.156-1.114 4.202-1.71 6.27-2.562-.438-5.114-.884-7.935-1.064.435-2.028.98-3.965 1.466-5.95-.008-.133.056-.202.162-.239 2.836.167 5.393.609 8.017.983z"/></g><g><path fill="#8f7ece" d="M123.25 63.113c-.606 2.086-1.262 4.13-1.796 6.274-1.695-.35-3.395-.69-5.104-1.027.581-2.082 1.212-4.121 1.712-6.27 1.861.213 3.435.706 5.189 1.023z"/></g><g><path fill="#8f7ece" d="M142.354 62.47c1.298.334 2.348.912 3.652 1.241-.337 1.738-1.005 3.2-1.426 4.865-1.158-.475-2.257-1.007-3.49-1.404.344-1.632.89-3.096 1.264-4.702z"/></g><g><path fill="#8f7ece" d="M130.804 65.273c-.577 2.012-1.142 4.03-1.722 6.038-2.041-.467-3.891-1.12-5.982-1.534a328.595 328.595 0 0 0 1.8-6.197c2.074.461 3.927 1.139 5.904 1.693z"/></g><g><path fill="#8f7ece" d="M154.122 67.018c-.401 1.932-1 3.7-1.394 5.639a150.465 150.465 0 0 1-6.488-3.374c.355-1.72 1.01-3.193 1.426-4.863 2.29.73 4.344 1.694 6.456 2.598z"/></g><g><path fill="#8f7ece" d="M138.982 68.038c-.591 2.073-1.27 4.07-1.889 6.122-2.14-.718-4.09-1.62-6.353-2.215.544-2.062 1.148-4.074 1.717-6.115 2.33.583 4.452 1.373 6.525 2.208z"/></g><g><path fill="#8f7ece" d="M114.17 69.614c-.506 1.943-1.142 3.78-1.65 5.725-2.625-.427-4.955-1.145-7.61-1.543.509-1.769.915-3.62 1.404-5.406 2.7.326 5.318.735 7.856 1.224z"/></g><g><path fill="#8f7ece" d="M140.557 68.75c1.323.337 2.37.946 3.575 1.4-.628 2.043-1.301 4.047-1.8 6.196a23.655 23.655 0 0 1-3.582-1.554c.528-2.075 1.3-3.95 1.807-6.042z"/></g><g><path fill="#8f7ece" d="M120.913 70.884c-.417 2.068-1.052 3.957-1.464 6.027-1.883-.248-3.477-.773-5.279-1.097a334 334 0 0 0 1.728-5.884c1.734.257 3.295.684 5.015.954z"/></g><g><path fill="#8f7ece" d="M128.55 72.885c-.498 2.003-1.191 3.842-1.731 5.807-1.95-.42-3.853-.886-5.719-1.389.544-1.96 1.009-3.99 1.553-5.953 2.1.382 3.957.997 5.897 1.535z"/></g><g><path fill="#8f7ece" d="M145.702 70.93c2.216 1.097 4.464 2.165 6.49 3.45-.405 2.028-.913 3.972-1.293 6.018a175.768 175.768 0 0 1-6.999-3.273c.517-2.134 1.176-4.15 1.802-6.195z"/></g><g><path fill="#8f7ece" d="M136.557 75.735c-.459 1.883-1.141 3.584-1.572 5.489-2.248-.582-4.236-1.421-6.515-1.975.588-1.951 1.155-3.92 1.816-5.809 2.135.72 4.242 1.47 6.271 2.295z"/></g><g><path fill="#8f7ece" d="M111.994 76.912a296.463 296.463 0 0 1-1.804 6.118c-2.344-.516-4.662-1.058-7.26-1.325.614-2.105 1.009-4.39 1.707-6.425 2.555.442 4.848 1.142 7.357 1.632z"/></g><g><path fill="#8f7ece" d="M119.004 78.476c-.408 2.15-.957 4.183-1.367 6.333-1.86-.507-3.75-.989-5.717-1.39.59-2.048 1.168-4.108 1.804-6.119a80.06 80.06 0 0 0 5.28 1.176z"/></g><g><path fill="#8f7ece" d="M138.212 76.44c1.242.496 2.53.952 3.585 1.633-.402 1.807-.895 3.54-1.324 5.324-1.336-.485-2.552-1.089-3.923-1.542.568-1.794 1.077-3.634 1.662-5.415z"/></g><g><path fill="#8f7ece" d="M126.28 80.269c-.528 2.174-1.21 4.221-1.794 6.35-1.696-.454-3.33-.97-5.116-1.337.345-2.202.898-4.233 1.367-6.332 1.92.368 3.72.854 5.543 1.319z"/></g><g><path fill="#8f7ece" d="M143.463 78.78c2.388 1.063 4.691 2.21 7.082 3.27-.369 1.858-.819 3.65-1.228 5.476-2.425-1.11-4.858-2.21-7.177-3.423.387-1.817.86-3.566 1.323-5.323z"/></g><g><path fill="#8f7ece" d="M128.02 80.74c2.154.675 4.306 1.354 6.434 2.057-.525 2.178-1.139 4.281-1.617 6.498-2.18-.731-4.36-1.462-6.607-2.126.477-2.244 1.18-4.298 1.79-6.429z"/></g><g><path fill="#8f7ece" d="M109.739 84.595c-.546 1.935-1.178 3.8-1.733 5.728-1.85-.554-4.69-1.036-5.516-2.714-.583-1.183-.103-2.837.081-4.188l-.01-.231c2.675.192 4.838.884 7.178 1.405z"/></g><g><path fill="#8f7ece" d="M136.105 83.42a37.533 37.533 0 0 1 3.927 1.619c-.389 2.166-.994 4.151-1.277 6.406-1.51-.422-2.755-1.103-4.265-1.526.488-2.208 1.047-4.356 1.615-6.499z"/></g><g><path fill="#8f7ece" d="M117.269 86.374c-.326 2.094-.866 4.012-1.205 6.095-2.208-.463-4.29-1.049-6.414-1.593.59-1.974 1.193-3.938 1.815-5.886 2.044.352 3.91.882 5.804 1.384z"/></g><g><path fill="#8f7ece" d="M141.693 85.82c2.45 1.055 4.894 2.116 7.089 3.424-.39 2.017-1.062 3.798-1.296 5.943-2.433-.936-4.648-2.092-7.156-2.958.41-2.172.856-4.316 1.363-6.409z"/></g><g><path fill="#8f7ece" d="M124.126 88.176c-.549 1.985-.97 4.075-1.461 6.106-1.655-.441-3.323-.87-4.945-1.344.447-2.019.842-4.08 1.291-6.098 1.784.368 3.418.883 5.115 1.336z"/></g><g><path fill="#8f7ece" d="M132.471 90.932c-.314 2.028-.859 3.867-1.124 5.937-2.39-.607-4.61-1.38-6.947-2.036.315-2.156.904-4.08 1.376-6.103 2.305.665 4.57 1.365 6.695 2.202z"/></g><g><path fill="#8f7ece" d="M134.126 91.56c1.586.347 2.789 1.071 4.265 1.527-.267 1.97-.72 3.784-.96 5.775-1.348-.262-2.899-1.018-4.431-1.365.271-2.063.81-3.909 1.126-5.937z"/></g><g><path fill="#8f7ece" d="M140.057 93.87c2.434.91 4.795 1.893 6.987 3.04-.35 1.685-.585 3.689-2.319 4.048-1.06.222-2.158-.196-3.107-.49-.934-.289-1.836-.562-2.528-.98.271-1.913.668-3.726.967-5.618z"/></g></g></g><g><g opacity=".94"><g opacity=".88"><g opacity=".83"><path fill="#8f7ece" d="M104.363 42.901c-.417.56-1.053.08-1.437-.056-1.307-.465-2.605-1.29-3.936-1.863-1.834-.791-3.776-1.437-5.733-2.152-3.75-1.366-7.665-2.838-11.685-4.036-7.207-2.148-15.075-3.568-22.486-5.574-.91-.247-2.004-.413-2.666-1.151.14-.694.848-.61 1.413-.619 1.053-.014 2.27.334 3.498.566 3.23.609 6.549 1.52 9.472 2.263 4.297 1.09 8.479 2.19 12.547 3.166 6.482 1.555 12.71 3.004 17.344 5.987.724.466 1.447 1.041 2.14 1.576.601.464 1.618.982 1.53 1.893z"/></g><g opacity=".83"><path fill="#8f7ece" d="M101.112 46.395c-1.028.275-2.11-.25-3.013-.61-6.363-2.534-13.262-5.14-20.38-7.273-6.016-1.802-12.56-3.303-18.777-5.179-.936-.282-2.036-.63-2.97-.99-.817-.315-1.963-.62-1.931-1.745 1.12-.554 2.97-.01 4.68.308 7.658 1.42 15.155 3.548 21.704 5.684 5.897 1.922 11.206 4.142 16.406 6.656a34.6 34.6 0 0 1 2.457 1.319c.674.4 1.846.782 1.824 1.83z"/></g></g><g opacity=".88"><g opacity=".83"><g opacity=".78"><path fill="#8f7ece" d="M86.513 90.121c-1.33-.334-2.686-.66-4.053-.987-4.068-.975-8.25-2.077-12.547-3.167-2.921-.742-6.242-1.654-9.473-2.261-1.226-.233-2.443-.58-3.498-.566-.564.007-1.272-.075-1.412.619.662.738 1.755.902 2.666 1.15 7.411 2.005 15.277 3.425 22.484 5.575 1.688.501 3.355 1.054 5 1.624.247-.659.523-1.32.833-1.987z"/></g><g opacity=".78"><path fill="#8f7ece" d="M84.991 94.21a119.318 119.318 0 0 0-5.467-1.931c-6.55-2.136-14.045-4.264-21.704-5.684-1.708-.316-3.558-.86-4.68-.308-.031 1.124 1.115 1.43 1.93 1.746.936.361 2.036.708 2.97.989 6.218 1.876 12.764 3.377 18.779 5.18 2.57.77 5.108 1.607 7.605 2.475.153-.84.34-1.658.567-2.468z"/></g></g><g opacity=".83"><g opacity=".78"><path fill="#8f7ece" d="M84.993 99.051c-1.333-.334-2.686-.656-4.053-.986-4.068-.976-8.251-2.076-12.549-3.168-2.92-.74-6.24-1.653-9.471-2.261-1.227-.231-2.445-.58-3.498-.566-.566.007-1.274-.075-1.412.619.662.738 1.755.904 2.666 1.15 7.41 2.005 15.277 3.427 22.484 5.575 1.688.503 3.355 1.055 5 1.627.247-.661.523-1.323.833-1.99z"/></g><g opacity=".78"><path fill="#8f7ece" d="M83.471 103.148a121.255 121.255 0 0 0-5.468-1.929c-6.549-2.136-14.044-4.265-21.704-5.685-1.707-.316-3.559-.859-4.678-.307-.032 1.123 1.114 1.431 1.928 1.744.937.363 2.035.708 2.972.991 6.218 1.876 12.762 3.378 18.778 5.18 2.57.77 5.106 1.607 7.605 2.474.153-.84.34-1.659.567-2.468z"/></g></g></g><g opacity=".88"><g opacity=".83"><path fill="#fff" d="M71.79 43.143c.364-1.517 2.467-1.204 4.018-1.079 3.337.27 5.984.782 8.723 1.863.847.334 3.267 1.185 3.039 2.157-.247 1.044-3.495.106-4.02 0-2.924-.6-5.095-1.213-8.036-1.765-1.352-.255-2.817-.34-3.724-1.176z"/></g><g opacity=".83"><path fill="#fff" d="M72.277 46.088c2.776-.454 5.471.383 8.232 1.176 1.126.323 5.325 1.19 5.097 2.45-.209 1.155-2.434.52-3.626.293-2.83-.536-4.937-1.06-7.744-1.665-1.094-.236-3.183-.42-3.234-1.371-.04-.79.589-.772 1.275-.883z"/></g><g opacity=".83"><path fill="#fff" d="M69.01 51.902c.366-1.517 2.467-1.203 4.018-1.077 3.337.268 5.984.78 8.723 1.861.847.336 3.267 1.185 3.04 2.157-.248 1.045-3.494.108-4.02 0-2.923-.598-5.096-1.211-8.037-1.765-1.352-.254-2.815-.34-3.724-1.176z"/></g><g opacity=".83"><path fill="#fff" d="M69.497 54.839c2.777-.455 5.47.382 8.232 1.176 1.125.323 5.322 1.19 5.095 2.45-.207 1.156-2.433.52-3.626.293-2.83-.536-4.935-1.06-7.742-1.665-1.095-.236-3.184-.42-3.234-1.373-.042-.79.59-.77 1.275-.881z"/></g><g opacity=".83"><path fill="#fff" d="M68.032 59.443c3.774-.355 8.7.854 12.058 2.057 1.29.466 2.792 1.13 2.742 1.863-.093 1.378-2.988.437-4.018.196-3.322-.77-5.2-1.318-8.721-1.959-.799-.144-3.988-.318-3.922-1.373.046-.733 1.005-.704 1.861-.784z"/></g></g><g opacity=".88"><g opacity=".83"><path fill="#fff" d="M55.848 37.804c.12-.028.906-.129 1.471-.098 2.788.149 6.184.965 9.016 1.763 1.182.334 2.218.668 2.156 1.373-.086.995-2.264.658-3.528.49-2.592-.346-4.744-.73-7.252-1.372-.845-.216-2.92-.67-2.94-1.373-.018-.562.63-.677 1.077-.783z"/></g><g opacity=".83"><path fill="#fff" d="M51.91 43.394c.365-1.52 2.467-1.205 4.018-1.08 3.337.27 5.982.781 8.722 1.864.846.334 3.266 1.185 3.038 2.155-.245 1.045-3.492.109-4.018 0-2.924-.598-5.095-1.21-8.036-1.764-1.352-.254-2.817-.34-3.724-1.175z"/></g><g opacity=".83"><path fill="#fff" d="M52.397 46.328c2.777-.454 5.471.384 8.232 1.177 1.126.323 5.324 1.19 5.096 2.451-.207 1.155-2.433.519-3.625.294-2.83-.538-4.937-1.061-7.744-1.667-1.094-.236-3.184-.42-3.234-1.371-.042-.792.588-.771 1.275-.884z"/></g><g opacity=".83"><path fill="#fff" d="M49.13 52.142c.366-1.517 2.467-1.203 4.018-1.077 3.337.27 5.984.78 8.723 1.86.847.335 3.269 1.186 3.04 2.158-.248 1.045-3.494.107-4.02 0-2.925-.597-5.095-1.211-8.037-1.765-1.352-.254-2.817-.339-3.724-1.176z"/></g><g opacity=".83"><path fill="#fff" d="M49.615 55.088c2.777-.454 5.473.384 8.234 1.176 1.126.324 5.324 1.19 5.095 2.452-.207 1.153-2.433.52-3.626.293-2.83-.537-4.935-1.06-7.742-1.666-1.094-.237-3.184-.42-3.234-1.373-.042-.79.589-.77 1.273-.882z"/></g></g><g opacity=".88"><path fill="#8f7ece" d="M47.452 60.62c.856-.256 2.904.094 3.92.295 2.332.462 4.61.666 6.86 1.47.683.245 2.074.974 2.353 1.764.349.99-.025 2.81-.295 4.018-.566 2.54-1.139 4.225-1.862 6.959-.28 1.06-.656 2.593-1.47 2.942-1.09.464-2.869-.087-3.822-.296-1.22-.266-2.35-.562-3.529-.783-1.91-.36-5.7-.628-6.37-2.451-.4-1.084.175-2.586.49-3.822.64-2.51 1.379-4.552 1.96-7.057.304-1.309.572-2.68 1.765-3.038z"/></g><g opacity=".88"><path fill="#8f7ece" d="M67.3 65.4c.858-.256 2.904.092 3.92.296 2.333.461 4.613.665 6.863 1.468.682.246 2.072.974 2.351 1.765.348.988-.024 2.81-.294 4.018-.565 2.54-1.138 4.225-1.861 6.959-.281 1.06-.657 2.593-1.471 2.94-1.092.464-2.869-.085-3.824-.294-1.22-.266-2.35-.564-3.527-.783-1.912-.36-5.7-.628-6.37-2.451-.4-1.084.175-2.585.49-3.822.639-2.512 1.38-4.551 1.959-7.057.305-1.31.571-2.68 1.765-3.038z"/></g></g><g><path fill="#892" d="M76.421 111.666c1.776-.128 4.384-6.607 4.9-7.684-.193 3.351-.87 9.41.615 9.875 2.628.82 6.123-14.874 7.52-20.347 5.113-19.978 9.908-40.44 15.21-59.824-1.289-.898-2.72-1.667-4.226-2.488a41.166 41.166 0 0 0-4.355-2.028C90.161 52.374 83.23 75.153 77.856 98.302c-.895 3.857-3.116 13.486-1.436 13.364z"/></g></g><g><g><g opacity=".37"><path fill="#8f7ece" d="M99.006 72.708c-2.02-1.609 6.23-26.892 8.105-26.968"/></g><g opacity=".37"><path fill="#8f7ece" d="M97.112 76.665c2.297-.634-.35 11.04-1.516 14.394-.508 1.456-6.208 24.88-7.586 24.758-2.692-.239 7.514-38.715 9.102-39.152z"/></g></g><g><g><g><path fill="#fff" d="M58.73 22.288c2.729-.217.913 4.31.233 5.737-.64 1.348-1.498 3.37-2.927 2.928-1.277-.397-.43-3.069 0-4.45.59-1.885.875-4.073 2.695-4.215z"/></g><g><path fill="#fff" d="M64.698 23.1c1.09-.155 2.515.092 2.343 1.523-.204 1.693-4.008 1.354-3.748-.585.077-.571.297-.778 1.405-.937z"/></g></g><g><g><path fill="#fff" d="M159.209 51.065c-.018 2.499-.628 4.93-1.364 6.97-.671 1.856-1.405 4.329-3.486 4.85-1.147-1.133-.117-3.908.454-6.365.65-2.799 1.4-7.625 4.396-5.455z"/></g><g><path fill="#fff" d="M149.062 65.607c-.356-2.219 2.338-5.35 3.182-3.029"/></g></g><g><g><path fill="#fff" d="M46.045 83.48c-.141 2.961-.604 5.099-1.365 7.88-.493 1.802-1.253 5.837-3.335 5.76-3.064-.115-.468-7.282.154-9.092.414-1.216.967-2.093 1.213-2.729.531-1.38.502-2.738 1.968-2.576.81.089.925.333 1.365.757z"/></g><g><path fill="#fff" d="M49.833 91.813c1.436 1.396-.318 4.655-1.667 4.698-2.61.08-.777-3.087.303-4.396.166-.202.797-.42 1.364-.302z"/></g><g><path fill="#fff" d="M41.193 98.634c1.744-.325 8.504.55 7.577 3.486-.487 1.544-3.59.54-5.152.3-1.673-.252-4.506-.264-4.395-2.27.069-1.24 1.296-1.391 1.97-1.516z"/></g></g></g></g></g></g></g></g><g><g><path fill="#fff" d="M57.988 64.184c-.33.358-1.16-.077-1.762-.196-1.889-.376-4.068-.84-5.921-1.214-.967 3.29-2.08 7.204-2.97 10.84-.133.533-.134 1.229-.624 1.58-.416-.301-.345-.955-.358-1.427-.04-1.553.067-3.352-.06-4.893-.444.1-.42.976-1.053.764.048-.63.662-1.191 1.087-1.543.673.514.496 1.556.51 2.407.014.904.075 1.854.05 2.687 1.091-3.482 1.878-7.466 3.045-10.822 1.322-.08 3.113.557 4.622.739.843.102 1.926.407 2.82.692.195.062.69.023.614.386z"/></g><g><path fill="#fff" d="M53.18 65.521c-.22.545-.679.688-1.034 1.007.055.517.708.928.434 1.444-.627-.127-.558-.675-.765-1.053-.552.168-.686 1.026-1.405.915.02-.637.774-.934 1.124-1.378-.024-.533-.53-.774-.36-1.426.593.125.556.634.691 1.036.488-.047.744-.981 1.315-.545z"/></g><g><path fill="#fff" d="M57.705 70.49c-.268.13-.465-.187-.54-.368-.643.258-.817 1.925-.6 2.45.35.063.467-.127.667.164-.095.466-.543.355-1.001.226-.328-.506-.39-2.04.154-2.874.383-.583 1.391-.647 1.32.401z"/></g><g><path fill="#fff" d="M55.352 70.147c-.416.163-1.298.061-1.762-.196"/></g><g><path fill="#fff" d="M52.813 69.918c-.294.432-1.163.03-1.855-.14-.655-.159-1.587-.21-1.728-.66.231-.351.862-.024 1.317.087.858.21 1.905.268 2.266.713z"/></g><g><path fill="#fff" d="M55.278 71.074c-.33.31-1.288.08-1.707-.103"/></g><g><path fill="#fff" d="M49.975 70.56c.56.188.287.878.562 1.238.401-.174.416-.981 1.053-.764-.025.563-.626.949-.902 1.432.029.55.397.898.249 1.556-.517.093-.508-.54-.56-.925-.408.056-.338.902-.943.634-.054-.527.504-.888.716-1.318-.02-.604-.535-1.225-.175-1.853z"/></g></g><g><g><path fill="#fff" d="M69.083 69.005c-.167.568-.638.437-1.01.751-1.494 1.264-2.183 4.27-1.53 6.101.14.397.456.763.343 1.182-.739-.014-.997-1.002-1.137-1.656-.514-2.406.843-5.738 2.926-6.573.207.023.327.098.408.195z"/></g><g><path fill="#fff" d="M76.32 70.72l.17.043c.786.625 1.499 2.384 1.353 3.716-.187 1.7-1 2.902-1.83 3.652-.234.214-.54.766-.84.43-.334-.447.322-.688.497-.881.621-.676 1.362-1.486 1.57-2.986.198-1.408-.462-2.637-.984-3.718z"/></g><g><path fill="#fff" d="M75.59 72.914c-.102.56-.268 1.017-.643 1.118.693.496.827 1.307.255 1.892-.235.242-.628.199-.99.298-.27.078-.533.347-.772.172.133-1.251.716-3.149.97-4.231.597-.14 1.009.401 1.18.751zm-.902.69c.146-.164.311-.298.345-.645-.11-.032-.091-.14-.236-.15-.006.245-.28.653-.11.794zm-.602 2.04c.443.01.83-.075.902-.687-.064-.254-.42-.334-.6-.516z"/></g><g><path fill="#fff" d="M69.49 71.024c.484.535-.08 1.7.232 2.341-.424.49-.075 1.526-.689 1.655-.559-.174-.01-1.015-.083-1.483l-.688-.172c-.478.053-.37 1.087-.904 1.05-.42-.433.225-1.253.54-1.782.408-.687.791-1.32 1.333-1.673zm-.497 1.977c.095-.398.151-.773.087-1.075-.225.273-.455.543-.6.945z"/></g><g><path fill="#fff" d="M72.02 72.2l.257.066c.07.274.074.59-.064.987.202.27.981.191.729.733-.202.147-.697-.193-.901-.045-.205.397.1 1.215-.474 1.161-.4-.175-.093-.774-.064-1.203-.029-.228-.64-.104-.429-.474.026-.32.32-.197.58-.128.127-.357.138-.906.366-1.097z"/></g></g></g><g><g><g><g><path fill="#efad1b" d="M114.506 23.999c-1.529-.149-6.643.595-6.793 2.123-.151 1.525 4.72 3.255 6.247 3.41a2.781 2.781 0 0 0 3.04-2.493 2.783 2.783 0 0 0-2.494-3.04z"/></g><g><path fill="#ff5000" d="M105.316 25.881l-.002.018a.892.892 0 0 0 .795.972l2.107.206.175-1.785-2.105-.207a.886.886 0 0 0-.97.796z"/></g><g><path fill="#ff5000" d="M157.736 30.677a1.344 1.344 0 0 0 1.215 1.465l2.63.246c.738.07 1.392-.47 1.46-1.21a1.34 1.34 0 0 0-1.206-1.463l-2.636-.249a1.341 1.341 0 0 0-1.463 1.211z"/></g><g><path fill="#4d3d87" d="M160.54 28.369l-.547 5.533-15.103-1.492.544-5.53z"/></g><g><path fill="#4d3d87" d="M143.819 26.72l-.545 5.532-29.314-2.72.544-5.532z"/></g><g><path fill="#efad1b" d="M145.434 26.882l-.546 5.53-1.608-.157.546-5.535z"/></g><g><path fill="#efad1b" d="M160.728 26.461l-.733 7.444-.805-.08.732-7.445z"/></g><g><path fill="#efad1b" d="M160.728 26.465l-.114 1.151-15.944-1.577.11-1.149z"/></g></g><g><g><g><path fill="#fff" d="M157.602 30.073c.899-1.057-2.436-1.747-2.702-.747-.313 1.169 1.928 1.182 2.608.84.043-.02.062-.056.094-.093z"/></g><g><path fill="#fff" d="M153.503 29.829c.604-.948-2.17-1.685-2.252-.526"/></g></g><g><g><path fill="#fff" d="M114.007 29.102c.77.177 2.013.285 2.166-.272.199-.72-.637-.763-1.272-.853-.632-.092-1.42-.181-1.539.402-.13.64.343.651.645.723z"/></g><g><path fill="#fff" d="M117.969 28.193c.562.177 1.172.085 1.245-.419.125-.864-1.812-1.156-1.891-.301-.03.325.18.574.646.72z"/></g></g></g></g><g><g><g><g><path fill="#4d3d87" d="M103.477 112.73c-.114 1.519 1.287 2.378 2.22 3.063 2.973 2.184 6.024 4.24 9.047 6.416 3.913 2.817 8.06 5.577 12.059 8.554 3.778 2.808 8.193 6.054 11.146 10.486 1.47 2.207 2.819 5.58 3.683 8.733.36 1.312.604 2.949.959 4.482.334 1.444.875 3.42 1.972 3.717.689.187 1.86-.31 2.26-.648 2.05-1.73.086-6.205-1.346-9.164-1.897-3.92-4.17-8.165-6.627-10.897-1.682-1.869-3.673-3.419-5.543-4.935-3.828-3.106-7.538-6.015-11.514-8.828-3.882-2.744-7.966-5.187-12.02-7.763-.96-.608-2.01-1.278-3.01-1.898-.948-.588-1.94-1.826-3.286-1.319z"/></g><g><path fill="#4d3d87" d="M148.239 141.865c-1.343.721-2.696-.212-3.702-.79-3.197-1.832-6.316-3.792-9.528-5.672-4.16-2.438-8.363-5.112-12.703-7.565-4.098-2.316-8.853-5.038-14.103-5.944-2.611-.45-6.244-.318-9.475.169-1.344.202-2.94.642-4.485.937-1.458.28-3.482.583-4.198-.296-.451-.556-.47-1.828-.322-2.33.751-2.578 5.638-2.591 8.925-2.48 4.352.146 9.152.506 12.647 1.647 2.39.782 4.612 1.974 6.754 3.07 4.391 2.243 8.555 4.46 12.736 6.955 4.08 2.436 7.966 5.182 11.965 7.846.945.631 1.983 1.322 2.955 1.984.918.627 2.452 1.033 2.534 2.47z"/></g><g><path fill="#4d3d87" d="M152.082 141.177c-.606.583-1.515.679-2.275 1.328-.562.482-1.01 1.43-1.54 2.185-1.498 2.132-3.012 4.825-5.394 6.31-2.757 1.72-5.418.06-7.394-.967-2.455-1.275-4.435-2.815-6.557-4.877-1.354-1.316-2.687-2.536-3.142-4.464-.432-1.834.228-3.946.722-5.672.382-1.335 1.356-3.634 1.023-4.836-.377-1.37-1.276-1.73-2.16-2.383-.955-.543-1.65-1.219-3.054-1.01-1.232.183-2.942 2.003-4.007 2.892-1.38 1.153-3.043 2.611-4.895 2.958-1.948.365-3.6-.36-5.354-1.064-2.745-1.105-4.954-2.294-7.114-4.022-1.738-1.392-4.333-3.15-3.878-6.369.395-2.781 2.245-5.254 3.587-7.488.475-.789 1.161-1.584 1.372-2.292.285-.957.01-1.83.295-2.618.217-.597.941-1.612 2.239-1.545.934.047 2.196.744 3.181 1.306 2.793 1.6 5.593 3.614 8.104 5.328 3.038 2.075 5.139 3.597 7.135 6.533.628.922 1.049 1.968 1.68 2.962.51.8 1.414 1.535 2.137 2.233.932.38 1.97.908 2.91 1.05 1.165.176 2.29.137 3.386.336 3.494.638 5.736 1.943 8.864 3.88 2.582 1.6 5.557 3.347 8.152 5.253.914.672 2.064 1.545 2.483 2.379.588 1.16-.047 2.234-.506 2.674zm-31.613-18.47c-.001-.726-.607-1.573-1.048-2.115-2.477-3.031-5.525-5.332-8.806-7.142-1.339-.739-2.802-1.632-4.519-1.858-.094-.013-.122.084-.157.093-.749.207-1.529 1.454-1.961 2.01-1.082 1.403-2.144 2.895-2.92 4.438-.345.684-.823 1.754-.846 2.822-.043 2.067 1.014 2.836 2.154 3.899 1.646 1.53 3.536 2.802 5.563 3.89 1.008.542 2.256 1.242 3.342 1.295 1.699.082 2.69-.665 3.791-1.416 1.57-1.07 2.854-2.343 3.952-3.618.532-.617 1.457-1.426 1.455-2.298zm26.453 18.938c.336-.621 1.158-1.839 1.044-2.608-.005-.035.07-.098.023-.18-.903-1.479-2.313-2.455-3.53-3.378-2.984-2.27-6.32-4.124-10.095-5.16-.677-.186-1.693-.397-2.358-.103-.8.352-1.166 1.524-1.514 2.26-.72 1.522-1.364 3.21-1.707 5.077-.241 1.313-.522 2.522.24 4.043.487.97 1.634 1.827 2.538 2.53 1.815 1.412 3.743 2.626 5.81 3.511 1.433.613 2.565 1.268 4.438.392.966-.455 1.75-1.326 2.237-1.918 1.096-1.334 2.033-2.906 2.874-4.466z"/></g><g opacity=".62"><path fill="#fff" d="M119.43 120.59c-2.477-3.03-5.525-5.331-8.806-7.14-1.339-.74-2.802-1.632-4.519-1.859-.095-.013-.122.084-.157.093-.749.207-1.53 1.454-1.961 2.01-1.082 1.403-2.144 2.895-2.92 4.438-.345.684-.823 1.754-.846 2.822-.043 2.066 1.014 2.836 2.154 3.899 1.646 1.53 3.536 2.803 5.563 3.89 1.008.542 2.256 1.243 3.342 1.295 1.699.082 2.69-.665 3.791-1.416 1.571-1.07 2.854-2.343 3.952-3.618.532-.617 1.457-1.426 1.456-2.298-.002-.726-.608-1.573-1.05-2.115z"/></g><g opacity=".62"><path fill="#fff" d="M147.968 139.037c-.005-.035.07-.098.022-.18-.903-1.479-2.313-2.455-3.53-3.378-2.984-2.27-6.32-4.124-10.095-5.16-.676-.186-1.693-.397-2.358-.103-.8.352-1.166 1.524-1.514 2.26-.72 1.522-1.363 3.21-1.707 5.077-.24 1.312-.522 2.522.24 4.043.488.97 1.634 1.827 2.538 2.53 1.815 1.412 3.743 2.626 5.81 3.51 1.433.615 2.565 1.27 4.438.393.967-.455 1.75-1.327 2.237-1.918 1.097-1.334 2.033-2.906 2.874-4.466.336-.621 1.158-1.838 1.044-2.608z"/></g></g></g><g><g><path fill="#892" d="M115.04 141.565c-.141.11-.27-.143-.384-.191-.607-.254-1.269.411-1.946.978-3.922 3.276-7.32 6.71-10.8 10.2a508.785 508.785 0 0 0-4.574 4.63c-.316.325-.658.755-1.024 1.205-.365.451-.787.9-.726 1.3.06.372.466.768.79 1.067a36.4 36.4 0 0 0 1.9 1.653c.274.223.739.58 1.042.527.451-.08.95-.68 1.304-1.06 1.07-1.145 2.152-2.355 3.191-3.45 2.884-3.043 5.804-6.037 9.05-8.956.774-.695 1.625-1.338 2.516-2.126.347-.308.761-.721 1.198-1.103.637-.559 1.32-.935.875-1.886 1.161-1.567 3.03-3.452 4.291-5.206.21-.296.532-.623.467-.976-.23-1.256-1.615-.354-2.314.083a85.777 85.777 0 0 0-4.856 3.31z"/></g><g><path fill="#4d3d87" d="M111.959 147.574c-.24-1.129-2.1-.041-2.938.474-1.495.92-2.733 2.041-3.798 3.133-1.166 1.197-1.96 2.228-2.642 3.615-.226.46-.534 1.076-.268 1.46.117.166.316.268.808.058.84-.358 1.465-1.174 1.975-1.641 1.816-1.66 3.48-2.772 5.173-4.442.657-.647 1.643-1.637 1.734-2.544.004-.03-.038-.079-.044-.113z"/></g><g><path fill="#4d3d87" d="M112.71 142.355c-.213.179-.421.358-.63.538.576.673 1.17 1.33 1.763 1.997.63.705 1.21 1.46 1.84 2.175.276-.256.58-.547.894-.823.022-.02.043-.039.066-.057-1.255-1.339-2.522-2.643-3.787-3.955a9.457 9.457 0 0 1-.146.125z"/></g><g><path fill="#4d3d87" d="M97.98 156.52c-.209.212-.42.43-.64.655-.033.034-.066.072-.1.106 1.312 1.312 2.549 2.801 3.888 4.042l.703-.76a78.844 78.844 0 0 0-3.85-4.043z"/></g></g><g><g><path fill="#efad1b" d="M92.236 145.993c-.172.042-.053.299-.087.418-.177.634-1.106.741-1.972.923-5.003 1.053-9.803 1.598-14.697 2.171-2.208.26-4.105.479-6.466.728-.451.048-1.002.051-1.582.058-.58.008-1.194.062-1.47-.235-.253-.274-.316-.84-.35-1.278a35.73 35.73 0 0 1-.121-2.517c-.005-.355.003-.94.233-1.145.339-.305 1.119-.324 1.636-.367 1.563-.13 3.182-.232 4.685-.371 4.177-.384 8.335-.824 12.637-1.566 1.024-.177 2.055-.45 3.228-.66.457-.084 1.037-.153 1.607-.259.834-.155 1.553-.459 2.022.48 1.951.057 4.588-.243 6.746-.149.363.016.82-.032 1.057.238.843.96-.724 1.487-1.5 1.765a86.89 86.89 0 0 1-5.606 1.766z"/></g><g><path fill="#4d3d87" d="M85.607 144.688c.74.886-1.265 1.676-2.19 2.014-1.646.604-3.294.886-4.81 1.044-1.662.176-2.965.162-4.476-.161-.5-.108-1.176-.248-1.31-.694-.06-.194-.016-.413.453-.67.801-.436 1.829-.423 2.513-.536 2.427-.398 4.331-1.016 6.69-1.313.912-.116 2.302-.278 3.071.21.025.017.04.082.06.106z"/></g><g><path fill="#4d3d87" d="M90.181 147.329c-.271.057-.54.109-.814.163-.17-.87-.32-1.742-.475-2.62-.164-.932-.4-1.855-.572-2.792.372-.057.789-.115 1.201-.192l.086-.018c.274 1.813.515 3.617.762 5.422-.062.01-.125.025-.188.037z"/></g><g><path fill="#4d3d87" d="M69.926 150.136l-.912.097-.147.012c-.216-1.842-.621-3.735-.767-5.556l1.033-.079c.334 1.862.596 3.704.793 5.526z"/></g></g></g><g><g><g><g><path fill="#8f7ece" d="M1.45 79.072c1.635-1.59 4.74-2.907 6.726-3.912 4.672-2.369 8.364-4.73 13.267-6.546 2.012-.744 4.721-1.306 6.2-.212.931.689 1.808 2.205 2.484 3.474 1.537 2.876 3.6 7.668 4.792 10.26 2.221 4.826 4.341 8.956 6.548 13.775 1.972 4.314 3.917 8.896 6.117 13.717.971 2.13 2.067 4.572 2.876 6.868.761 2.158 1.855 5.041.965 6.525-.618 1.03-2.121 1.826-3.25 2.444-1.355.742-2.412 1.07-3.413 1.55-2.603 1.247-4.366 2.22-6.847 3.242-1.952.8-4.293 1.686-6.747 2.53-2.207.759-4.83 1.64-6.687.58-1.68-.96-3.298-4.077-4.36-6.136-3.318-6.428-5.716-12.884-8.85-19.547-2.313-4.91-4.216-9.01-6.138-13.066-.933-1.962-1.995-4.148-3-6.52-1.418-3.35-3.52-6.491-.846-8.903.05-.046.115-.077.163-.123z"/></g><g><path fill="#fff" d="M2.873 79.773c.022-.024.02-.143.101-.204 3.623-2.724 6.734-3.718 10.85-5.87 3.596-1.88 8.637-5.553 11.788-3.777 1.697.957 3.184 3.814 4.299 6.051 3.388 6.824 6.125 12.345 9.317 19.323 2.779 6.07 6.053 12.9 8.953 19.343 1.152 2.557 1.915 4.331.435 6.16-.636.784-1.785 1.17-2.783 1.711-4.718 2.565-9.165 4.384-14.202 6.994-2.024 1.049-4.127 2.136-5.67 1.596-1.733-.61-3.453-3.398-4.581-5.587-2.377-4.602-3.557-7.83-5.977-12.677-4.331-8.683-8.815-17.003-12.377-25.42C1.8 84.512.654 81.98 2.71 79.896c.048-.05.115-.075.162-.123z"/></g><g opacity=".26"><path fill="#8f7ece" d="M25.956 131.1c1.544.539 3.648-.548 5.67-1.597 5.039-2.61 9.485-4.43 14.203-6.994.998-.54 2.148-.926 2.784-1.71 1.4-1.73.79-3.413-.256-5.759-6.876 3.194-17.737 8.02-26.197 11.9 1.066 1.834 2.426 3.677 3.796 4.16z"/></g><g><g opacity=".26"><path fill="#8f7ece" d="M25.611 69.922c-3.15-1.776-8.192 1.897-11.787 3.777-4.116 2.152-7.227 3.146-10.85 5.87-.08.061-.079.18-.101.204-.047.048-.114.074-.163.122-1.29 1.306-1.32 2.79-.86 4.43 8.582-4.29 17.098-8.09 25.698-12.487-.604-.835-1.25-1.532-1.937-1.916z"/></g><g><path fill="#fff" d="M17.162 74.753c.017 1.073-5.232 3.73-6.299 3.464-.527-.13-.532-.782-.286-1.055 1.015-1.126 6.567-3.59 6.585-2.409z"/></g></g></g><g><g><g><path fill="#892" d="M20.796 119.63c7.814-4.647 15.269-7.575 22.785-10.79.246.382.358.739.525 1.105-7.585 3.557-15.128 6.91-22.798 10.867-.209-.348-.348-.684-.544-1.03-.08-.052-.039-.26.032-.152z"/></g><g><path fill="#892" d="M21.81 121.671c7.656-4.077 15.175-7.51 22.676-10.851.107.286.221.575.377.874-7.487 3.522-15.034 7.34-22.558 11.037-.231-.368-.403-.723-.495-1.06z"/></g><g><path fill="#892" d="M22.856 123.682c7.492-3.816 15.057-7.848 22.482-11.052.11.33.315.676.39.997-7.551 4.152-14.794 6.826-22.406 11.266-.217-.35-.323-.676-.466-1.013-.053-.078-.043-.14 0-.198z"/></g></g><g><g><path fill="#ff5000" d="M4.362 86.32c1.42-1.08 3.866-2.03 5.954-3.079 4.013-2.016 7.488-3.984 11.742-6.033 1.322-.638 4.66-2.395 5.651-1.96.744.325 1.364 2.074 1.772 2.864 1.183 2.298 2.042 4.05 3.18 6.258.528 1.025 1.167 2.048 1.02 3.046-1.57 1.353-3.768 1.942-5.851 2.877-4.41 1.98-7.903 3.897-11.886 6.014-1.428.758-4.648 3.029-5.852 2.365-.747-.409-1.357-1.968-1.834-2.945-1.037-2.126-1.981-3.98-2.854-5.992a34.6 34.6 0 0 1-1.101-2.99.505.505 0 0 1 .06-.426z"/></g><g><g><path fill="#fff" d="M11.333 93.676c.503-.573 1.41-.96 1.352-1.585-.078-.885-1.052-1.31-1.57-1.884-1.124-1.241-1.158-3.297.178-4.074 1.396-.816 3.157.387 3.5 2.078.178.869-.111 1.895.472 2.56.345.389.944.258 1.55.162.516-.085.936-.098 1.302.012a5.124 5.124 0 0 0-7.142-5.924 5.123 5.123 0 0 0-.017 9.253c.078-.203.203-.4.375-.598z"/></g><g><path fill="#8f7ece" d="M15.348 94.283a5.112 5.112 0 0 0 2.768-3.34c-.366-.11-.785-.096-1.302-.011-.606.096-1.205.226-1.55-.163-.583-.665-.294-1.69-.472-2.56-.342-1.69-2.104-2.893-3.5-2.077-1.336.777-1.302 2.833-.178 4.074.519.573 1.492.999 1.57 1.884.058.624-.849 1.011-1.352 1.585a2.058 2.058 0 0 0-.375.597 5.116 5.116 0 0 0 4.39.011z"/></g></g><g><g><path fill="#fff" d="M30.375 83.358c-.402-.707-1.158-2.193-1.228-2.318-2.044.96-9.45 4.821-9.45 4.821-.134-.196.58 1.527.973 2.166 0 0 2.134-1.005 9.704-4.67z"/></g><g><path fill="#fff" d="M27.627 77.38c-7.47 3.85-2.365 1.023-9.817 4.95 0 0 .702 1.469 1.113 2.11 0 0 2.31-1.274 9.778-4.91-.367-.71-.722-1.43-1.074-2.15z"/></g></g></g></g></g><g opacity=".58"><g opacity=".34"><g opacity=".2"><path fill="#8f7ece" d="M37.952 104.514a.304.304 0 0 1 .432.192.289.289 0 0 1-.166.347l-.68.321c.288.474.576.948.873 1.419.054.085.06.178.014.258a.347.347 0 0 1-.274.16.332.332 0 0 1-.309-.147c-.295-.472-.586-.946-.875-1.42-.441.208-.881.416-1.323.627l-9.205 4.344-.556 1.328a.312.312 0 0 1-.265.19.353.353 0 0 1-.297-.126.26.26 0 0 1-.032-.272l.302-.722-.302.145-.084.039a.306.306 0 0 1-.433-.191.292.292 0 0 1 .164-.349l1.003-.473 5.932-14.158a94.903 94.903 0 0 1-1.027-2.316.279.279 0 0 1 .022-.268.358.358 0 0 1 .265-.151.292.292 0 0 1 .296.176c.27.63.56 1.286.86 1.951a.328.328 0 0 1 .323.12.26.26 0 0 1 .032.27l-.084.201.086.187c.048.106.096.213.146.32a94.7 94.7 0 0 0 4.437 8.34l.514-.244zm-3.236.281l1.406-.571-.02-.039a94.064 94.064 0 0 1-3.874-7.389l-.239.569-.843 2.019-4.358 10.4 8.129-3.837-.31-.646a.206.206 0 0 1-.018-.056.18.18 0 0 1-.035-.051.294.294 0 0 1 .162-.398zm1.943.33l-.226-.379-1.166.474.221.456z"/></g><g opacity=".2"><path fill="#8f7ece" d="M39.36 98.471c.056.049.085.12.082.201a.306.306 0 0 1-.114.23c-.127.101-.313.085-.439-.027-.247-.219-.504-.461-.784-.74l-.444.338c.12.522.282 1.035.482 1.528a.28.28 0 0 1-.028.268.363.363 0 0 1-.265.15.29.29 0 0 1-.292-.18 11.14 11.14 0 0 1-.482-1.49.325.325 0 0 1-.149-.086.271.271 0 0 1-.077-.215.29.29 0 0 1 .116-.21c-.1-.507-.163-1.016-.185-1.514a.248.248 0 0 1 .016-.107.287.287 0 0 1 .055-.216c.123-.16.374-.18.5-.024.264.326.55.652.852.973a.323.323 0 0 1 .29.097c.068.067.092.17.066.265.296.297.55.538.8.76zm-1.83-.664c.05-.037.099-.074.147-.113l-.193-.209c.013.108.03.215.047.322z"/></g><g opacity=".2"><path fill="#8f7ece" d="M34.174 109.587c.551 0 .897.46.907.918.013.439-.256.863-.738 1.166a.396.396 0 0 1-.182.061.308.308 0 0 1-.203-.056.314.314 0 0 1-.1.023.303.303 0 0 1-.273-.111l-1.327-1.905a.33.33 0 0 1-.06-.175.296.296 0 0 1-.01-.339c.11-.187.305-.342.531-.425.429-.16.91-.055 1.193.249.15.16.242.372.262.594zm-1.059-.324a.144.144 0 0 1-.064-.002l.002.008c-.032.007-.045.012-.058.013l-.085.032-.039.021a.592.592 0 0 0-.06.045l1.23 1.764c.158-.111.264-.22.333-.34a.57.57 0 0 0 .076-.278 3.23 3.23 0 0 0-.005-.053l-.008-.047-.01-.034c-.003-.013-.01-.03-.02-.051-.01-.016-.015-.03-.023-.042-.006-.01-.013-.02-.02-.025l-.02-.02-.014-.018c-.007-.004-.013-.006-.02-.012l-.027-.016a4.357 4.357 0 0 0-.058-.021.124.124 0 0 1-.034-.005c-.016.002-.029 0-.045-.002a.733.733 0 0 0-.051.01c-.006.002-.013.002-.02.003l-.044.021c-.015.01-.026.021-.034.028a.27.27 0 0 0-.02.029c-.086.131-.312.172-.449.078a.29.29 0 0 1-.079-.407.53.53 0 0 1 .044-.06c.017-.04.03-.066.04-.095.001-.008.001-.02.004-.033l.008-.065v-.003l-.001-.026a.758.758 0 0 0-.01-.081l-.006-.025a.019.019 0 0 1-.005-.01c-.014-.036-.024-.055-.034-.075l-.016-.028-.003-.005c-.002-.001-.002-.003-.003-.005-.03-.037-.05-.058-.07-.079l-.01-.006-.027-.021-.024-.013-.027-.017a1.217 1.217 0 0 1-.074-.023l-.018-.001a.731.731 0 0 0-.077-.007l-.032-.103z"/></g></g><g opacity=".34"><g opacity=".2"><path fill="#8f7ece" d="M18.422 108.713c-1.067-2.208-2.261-4.874-3.652-8.144.594-.286 1.232-.59 1.876-.896.89-.422 1.792-.85 2.62-1.252.124-.06.27-.114.426-.172.434-.159.882-.323.91-.668a.105.105 0 0 0-.01-.053.298.298 0 0 0-.298-.167c-.117.008-.23.07-.334.125-.043.023-.081.045-.117.058-.99.356-1.75.687-2.26.981-.425.246-.924.476-1.406.697-.766.35-1.556.713-2.08 1.155a.099.099 0 0 0-.032.11c.546 1.49 1.283 3.065 1.995 4.59.467 1.001.947 2.029 1.375 3.033a59.367 59.367 0 0 0-.434-.487 32.953 32.953 0 0 1-.552-.623 8.855 8.855 0 0 1-.246-.3c-.375-.468-.8-.998-1.444-.983-.046.001-.093.033-.103.08-.11.469-.218 1.14.098 1.582.027.04.079.053.128.038.392-.135.349-.445.316-.67-.01-.085-.024-.166-.016-.237.508.525 1.012 1.138 1.502 1.733a39.03 39.03 0 0 0 1.092 1.295c.236.283.535.635.96.615h.003a.108.108 0 0 0 .098-.075c.125-.398-.086-.771-.273-1.1a4.793 4.793 0 0 1-.142-.265z"/></g><g opacity=".2"><path fill="#8f7ece" d="M18.089 100.774a.11.11 0 0 0-.106-.074l-.043.003c-.423.03-.465.371-.493.622-.015.125-.03.244-.08.33a2.853 2.853 0 0 1-.092-.07c-.177-.132-.376-.281-.646-.26a.783.783 0 0 0-.289.08c-.051.024-.075.083-.05.131.15.323.397.421.616.508.131.054.258.104.361.2-.006.13-.04.27-.077.418-.082.334-.172.712.067 1.021.023.03.06.046.097.042a.123.123 0 0 0 .045-.012c.37-.198.379-.523.385-.808.005-.153.01-.298.065-.416.054.03.109.066.165.103.167.107.355.23.604.213a.85.85 0 0 0 .297-.085.1.1 0 0 0 .058-.11c-.061-.333-.367-.436-.638-.526-.15-.05-.29-.098-.395-.177.02-.091.05-.178.08-.268.085-.258.173-.526.069-.865z"/></g><g opacity=".2"><path fill="#8f7ece" d="M24.496 103.176c-.228-.068-.34.018-.437.104a.698.698 0 0 1-.125.103c-.268-.181-.666-.721-.797-1.172a.75.75 0 0 1-.029-.394c.08.03.188.06.297.052a.345.345 0 0 0 .294-.187.098.098 0 0 0-.007-.103c-.236-.324-.484-.38-.65-.367a.65.65 0 0 0-.43.221.833.833 0 0 0-.21.622c.078.834.961 1.794 1.477 1.954.014.005.029.007.043.005.012-.002.024-.003.034-.008.26-.103.554-.221.64-.438.041-.105.03-.22-.036-.342a.095.095 0 0 0-.064-.05z"/></g><g opacity=".2"><path fill="#8f7ece" d="M20.47 103.393a.11.11 0 0 0 .11.066l.007-.002c.483-.077 1.153-.475 1.357-.806a.099.099 0 0 0-.008-.116c-.058-.065-.17-.138-.377-.123-.344.026-.805.292-1.007.583-.098.141-.125.28-.082.398z"/></g><g opacity=".2"><path fill="#8f7ece" d="M17.5 105.166c.267-.02.593-.181.908-.337a8.45 8.45 0 0 1 .366-.175c.116-.05.241-.096.368-.145.509-.192 1.034-.39 1.005-.793a.104.104 0 0 0-.083-.091c-.363-.078-.879.165-1.412.43-.18.092-.363.181-.543.26a3.862 3.862 0 0 1-.26.1c-.355.125-.758.268-.727.605a.1.1 0 0 0 .048.076c.088.056.197.08.33.07z"/></g><g opacity=".2"><path fill="#8f7ece" d="M22.074 103.062c-.36.026-.973.376-1.106.699-.05.117-.032.226.05.306a.11.11 0 0 0 .106.029c.369-.093 1.202-.439 1.271-.867a.1.1 0 0 0-.032-.092.39.39 0 0 0-.289-.075z"/></g><g opacity=".2"><path fill="#8f7ece" d="M20.413 106.578c-.13-.078-.252-.15-.36-.258-.017-.14-.009-.29.002-.45.018-.316.037-.645-.163-.905-.029-.037-.08-.058-.124-.036-.416.14-.376.463-.347.697.013.095.024.187.013.264a1.319 1.319 0 0 1-.239-.193c-.156-.146-.331-.313-.592-.294a.598.598 0 0 0-.161.034.1.1 0 0 0-.07.112c.062.412.396.62.691.805.15.095.293.185.4.296.02.113.018.24.015.375-.005.281-.012.6.221.826a.104.104 0 0 0 .086.03l.019-.002c.414-.103.361-.401.328-.597a.93.93 0 0 1-.023-.188c.17.162.378.353.61.336a.434.434 0 0 0 .293-.151.1.1 0 0 0 .017-.112c-.164-.319-.392-.457-.616-.589z"/></g></g></g><g><g><path fill="#4d3d87" d="M34.653 133.9c-.824.438-.358 1.267-.207 1.763.205.68.554 1.41.76 1.977.457 1.256.624 2.579.64 3.85.03 2.387-.39 4.947-1.269 7.4-1.69 4.723-5.712 9.49-4.438 14.525.75 2.965 3.08 5.293 5.591 6.518 2.308 1.126 4.704 1.497 7.344 1.31 2.568-.18 5.258-.675 7.792-2.063 2.831-1.548 5.189-4.039 6.665-6.417 2.741-4.42 3.326-9.65 2.383-14.768-.493-2.665-1.285-5.311-2.945-7.897-3.487-5.425-8.932-9.902-13.35-12.743-4.712-3.03-9.306-4.944-14.193-7.282-3.173-1.52-7.111-3.707-8.557-7.908-.316-.924-.642-2.21-.406-2.88.32-.902 1.497-2.034 2.722-2.858 1.787-1.205 3.854-1.534 5.75-1.61 5.525-.216 11.082 1.078 16.454 1.142 6.934.08 13.942-.433 21.512-6.41.376-.296 1.037-.579.99-1.226-.44-.425-1.031-.07-1.407.133-.522.286-1.063.69-1.51 1.017-6.945 5.056-13.372 5.375-19.883 5.208-5.354-.136-10.846-1.361-16.407-1.084-2.632.13-5.534 1.075-7.825 3.6.938-3.714 5.758-5.756 8.81-6.513 3.45-.858 6.904-1.17 10.086-1.297 3.459-.14 6.546-.02 9.97-.318 1.559-.135 3.331-.384 5.082-.991 2.017-.699 4.942-2.102 6.15-4.144.186-.313.513-.78.237-1.164-2.896 3.321-6.329 4.307-9.465 4.897-3.169.592-6.342.293-9.328.342-3.006.046-6.194.096-9.362.637-3.227.55-6.63 1.107-9.827 3.315-2.378 1.642-3.603 3.766-4.056 5.78-.466 2.058-.137 4.255.94 6.368 2.532 4.974 7.258 6.724 11.066 8.504 7.596 3.544 16.167 7.414 23.08 16.171 2.81 3.56 3.947 7.062 4.421 10.553.47 3.474.12 6.854-1.012 9.864-1.225 3.261-3.82 6.655-7.528 8.7-3.332 1.836-7.004 2.34-10.21 1.926-2.86-.365-7.298-2.401-8.358-6.644-.86-3.443 1.06-6.595 2.58-9.679 2.18-4.422 3.929-9.696 2.817-14.666-.28-1.255-.642-2.538-1.379-3.887-.204-.368-.36-.988-.92-1.051z"/></g><g><path fill="#4d3d87" d="M33.08 135.104a1.615 1.615 0 0 0 2.856-1.506l-.934-1.768a1.615 1.615 0 0 0-2.856 1.508z"/></g><g><g><path fill="#4d3d87" d="M65.133 91.028c-1.402 1.204-2.8 2.41-4.241 3.605-.397-.363-.797-.705-1.182-1.11 1.53-1.564 4.312-4.777 7.228-6.022 1.18-.504 2.957-.597 3.363 1.094.371 1.555-1.87 3.862-3.705 3.389-.583-.15-.94-.548-1.463-.956z"/></g><g><g><path fill="#fff" d="M66.059 90.299c.122-.418 1.342-1.578 1.747-1.075.27.334-.29.757-.597 1.02-.235.2-.668.773-1.046.52-.206-.135-.14-.35-.104-.465z"/></g><g><path fill="#fff" d="M69.596 89.448c.066.46-.59.83-.876.536"/></g></g></g><g><g><path fill="#4d3d87" d="M70.109 95.733c-1.539 1.02-3.079 2.042-4.619 3.104.244.482.464.959.748 1.439 1.921-1.049 5.769-2.855 7.756-5.326.802-1 1.374-2.685-.143-3.532-1.394-.78-4.224.751-4.264 2.646-.015.603.27 1.054.522 1.669z"/></g><g><g><path fill="#fff" d="M71.057 95.036c.437-.005 1.884-.868 1.511-1.393-.249-.35-.808.076-1.145.3-.257.17-.925.433-.784.865.074.234.3.228.418.228z"/></g><g><path fill="#fff" d="M72.848 91.87c-.424-.189-.957.343-.753.698"/></g></g></g></g></g></g></g></g></g></svg>