<svg xmlns="http://www.w3.org/2000/svg" width="160" height="166" viewBox="0 0 160 166"><g><g><path fill="#eff2fd" d="M3 76.5C3 34.25 37.25 0 79.5 0S156 34.25 156 76.5 121.75 153 79.5 153 3 118.75 3 76.5z"/></g><g><g/><g><g><g><g><path fill="#efad1b" d="M14.244 89.618c.038 23.46-1.149 48.39-1.52 72.34-1.472.17-3.215-.095-4.661.117-1.038-23.862-2.179-47.6-2.383-72.463 2.872.031 5.678-.045 8.564.006z"/></g><g><path fill="#efad1b" d="M107.97 91.09c.464 23.453 2.182 48.354 3.064 72.29 1.477.139 3.213-.162 4.663.018.528-23.879 1.161-47.635.835-72.498-2.87.093-5.678.076-8.562.19z"/></g><g><path fill="#efad1b" d="M140.81 63.164c.368 22.42 1.988 46.213 2.773 69.088 1.475.128 3.212-.168 4.662 0 .622-22.828 1.351-45.538 1.125-69.302-2.87.1-5.677.095-8.56.214z"/></g><g><g><path fill="#efad1b" d="M151.744 62.031c.384.507-.648 1.78-1.185 2.366-4.299 4.704-8.867 9.031-13.417 13.75-2.412 2.502-4.972 5.166-7.811 7.715-1.2 1.076-2.603 2.333-4.001 3.693-1.109 1.078-2.943 3.186-4.203 3.471-.936.212-2.404.016-3.802.007-1.325-.008-2.74-.148-4.003-.216-2.709-.146-5.422-.093-7.701-.204a367.788 367.788 0 0 0-15.509-.412c-10.12-.062-20.548-.126-30.41-.263-17.184-.239-35.6-.245-54.013-1.43-2.402-.154-5.895-.158-5.68-2.419.186-1.946 3.802-1.89 5.814-2.01 5.29-.314 9.782-.2 15.114-.139 7.901.093 15.32.135 23.02.184 10.091.063 20.622.325 30.826.392 12.843.085 25.457.418 38.436.379 2.539-.007 5.14-.29 7.5-.017.971.112 1.374.329 1.746.938 7.508-7.144 15.816-15.203 23.813-22.383 1.375-1.234 2.659-3.03 4.412-3.46.288-.069.755-.337 1.054.058z"/></g><g opacity=".12"><path d="M151.744 62.031c-.3-.395-.766-.127-1.054-.057-.674.166-1.28.534-1.848.996-2.688.082-5.328.087-8.036.2.039 2.357.094 4.733.158 7.117-6.302 5.833-12.644 11.956-18.499 17.53-.372-.61-.775-.827-1.746-.94-2.36-.271-4.961.011-7.5.018-12.979.04-25.593-.294-38.436-.379-10.204-.067-20.735-.33-30.826-.392-7.7-.048-15.119-.091-23.02-.183-5.332-.061-9.825-.176-15.114.138-2.012.12-5.628.064-5.813 2.01-.216 2.261 3.277 2.266 5.68 2.42.225 24.535 1.348 47.99 2.374 71.565 1.446-.212 3.188.054 4.66-.116.364-23.49 1.51-47.919 1.518-70.982 15.536.722 30.938.76 45.46.962 9.862.137 20.29.202 30.41.264 4.877.03 9.97.145 15.509.411.753.038 1.557.056 2.39.07.506 22.988 2.164 47.3 3.028 70.698 1.476.138 3.212-.163 4.662.017.514-23.201 1.123-46.29.859-70.386.256.01.513.02.765.021 1.398.009 2.866.205 3.802-.006 1.26-.285 3.094-2.394 4.203-3.471 1.398-1.36 2.801-2.618 4.001-3.694 2.839-2.549 5.399-5.213 7.811-7.714a328.309 328.309 0 0 1 3.935-4.004c.602 19.116 1.843 38.936 2.502 58.113 1.475.128 3.212-.168 4.662 0 .598-21.955 1.286-43.81 1.139-66.59.394-.421.79-.843 1.179-1.27.537-.586 1.568-1.859 1.185-2.366z"/></g><g><path fill="#efad1b" d="M151.342 61.816c.289.163-28.278 27.228-28.697 27.32-.952.204-45.659-.877-60.438-.97-20.873-.131-41.22-.023-61.832-.901-.367-.19 6.03-4.836 8.659-6.927 7.038-5.6 25.799-20.812 26.393-20.965.854-.218 110.449 2.348 115.915 2.443z"/></g></g></g><g><g><g><path fill="#fff" d="M107.597 88.052c.986.464 2.813.264 4.595-.04.762-.132 1.995-.361 1.955-1.058-.047-.834-1.488-.794-2.002-.778-1.63.052-3.59.445-4.572.958-.154.206-.127.662.024.918z"/></g><g><path fill="#fff" d="M112.38 89.755c-.236 1.74 3.602 1.61 3.391.165-.09-.625-1.971-1.255-2.859-.914-.317.124-.492.446-.532.75z"/></g></g><g><g><path fill="#fff" d="M8.02 85.622c-1.189-1.87 4.243-2.224 4.444-.585.234 1.925-3.315 1.447-4.318.754-.061-.044-.084-.104-.126-.169z"/></g><g><path fill="#fff" d="M13.132 87.685c-.744-1.634 3.813-2.186 3.68-.333"/></g></g></g></g><g><g><g><g><g><path fill="#892" d="M14.216 36.67c-.061-.909-.29-1.704-.154-2.893.125-1.107.55-2.766 1.506-2.702.956.065 1.165 1.558 1.13 2.41-.074 1.926-.967 3.426-1.52 4.707.392.808.803 1.602 1.246 2.368.135-1.183.243-2.415.521-3.575.215-.895.709-2.251 1.605-2.147 1.011.117.935 1.94.738 3.015-.334 1.812-1.238 3.274-2.08 4.372.463 1.107.9 2.236 1.409 3.308.332-1.98.685-3.739 1.676-5.122.304-.423.747-.885 1.283-.774.685.14.751 1.11.58 2.02-.406 2.154-1.929 4.082-3.004 5.35.266.924.624 1.773.88 2.705.587-1.793 1.099-3.71 2.214-5.06.34-.414.77-.966 1.347-.875.704.11.827 1.143.7 1.925-.384 2.365-2.524 3.903-3.857 5.198.754 2.967 1.924 6.566 2.063 10.33.026.712.104 1.633-.603 1.448-.43-.112-.285-.75-.292-1.227-.018-1.396-.324-2.926-.459-4.013-1.514.368-2.995-.163-4.226-.977-.51-.337-1.632-1.037-1.434-1.685.251-.812 2.27.286 2.712.476 1.022.433 1.819.767 2.686 1.179-.088-1.001-.48-2.182-.713-3.23-1.645.63-3.867.06-5.382-.84-.511-.302-1.603-1.075-1.368-1.785.304-.913 2.48.023 3.172.258 1.165.394 2.196.679 3.186 1.074-.36-1.385-.82-2.69-1.275-4-1.412.544-4.066.205-5.454-.684-.43-.276-1.045-.672-.888-1.242.23-.832 2.202-.156 2.93.013 1.184.277 2.082.506 2.955.72-.352-1.133-.844-2.153-1.256-3.238-.987.836-3.041.805-4.665.005-.642-.316-2.3-1.264-2.074-2.247.269-1.172 2.806-.27 3.79.057.895.297 1.742.601 2.384.981a35.181 35.181 0 0 0-1.935-3.913c-1.727.523-5.121-.189-6.28-1.052-.352-.261-.9-.887-.815-1.395.185-1.125 2.361-.345 3.208-.064 1.157.383 2.125.834 3.113 1.227-.212-.51-.58-1-.964-1.521-.354-.482-.725-1.106-1.19-1.44-.468-.337-1.052-.525-1.538-.774-.978-.504-1.882-1.081-2.597-1.928-.357-.42-.8-.963-.577-1.585.175-.49.75-.698 1.46-.43.98.373 1.69 1.336 2.306 2.112.473.598.988 1.183 1.415 1.846.134.21.21.485.353.692.312.455.777.835 1.103 1.267.362.485.622.96.929 1.356z"/></g><g><path fill="#892" d="M34.568 43.205c.322-.27.667-.527 1-.778.641-.48 1.247-.933 1.693-1.457.636-.75.893-1.39.788-1.962-.11-.59-.496-.678-.715-.678-.602 0-1.314.623-1.392.693-.996.893-1.734 2.017-2.394 3.64-.355.328-.714.71-1.06 1.077-.242.257-.474.505-.699.727.025-.572.046-1.21-.009-1.911-.038-.52-.162-2.1-1.049-2.1-.837.014-1.04 1.408-1.03 2.144.02 1.417.352 2.704.86 3.36a7.26 7.26 0 0 0-.449.638c-.117.18-.232.355-.345.501-.105-.638-.216-1.135-.465-1.762-.454-1.138-1.004-1.628-1.567-1.445-.433.14-.46.874-.405 1.464.1 1.076.578 2.746 1.497 3.272-.161.246-.298.511-.432.768l-.102.195c-.164-.527-.383-1-.645-1.538l-.095-.206c-.262-.586-.678-1.495-1.344-1.379a.571.571 0 0 0-.386.244c-.199.295-.128.771-.044 1.154.288 1.304.89 2.386 1.792 3.216-.432.99-.826 2.108-1.251 3.563-.04-.08-.081-.16-.12-.243a8.665 8.665 0 0 0-.507-.93l-.073-.118c-.279-.449-.772-1.225-1.398-1.107a.604.604 0 0 0-.433.315c-.236.419-.131 1.155.019 1.544.311.803 1.206 2.064 1.728 2.302.128.06.259.081.374.09-.301 1.363-.5 3.147-.551 4.944l-.005.13c-.011.446-.028 1.002.03 1.445l.008.07c.018.179.046.477.325.57l.05.016.052-.01c.457-.094.442-.567.432-.85a1.397 1.397 0 0 1 0-.201l.042-.67c.048-.804.357-3.728.357-3.728.088-.584.178-1.185.316-1.728 1.019.166 2.066.002 3.354-.533.466-.19 1.557-.643 1.403-1.443-.053-.274-.266-.6-.977-.6-.516 0-1.123.165-1.487.263l-.099.026a9.239 9.239 0 0 0-1.814.677c.28-1.08.596-2.006.955-2.82.41.185.911.358 1.54.394.155.009.337.012.534.012.622 0 2.124-.053 2.62-.558a.582.582 0 0 0 .18-.426c-.012-.774-1.36-.901-2.374-.93-.618-.018-1.071.028-1.512.072l-.365.035c.164-.377.359-.727.55-1.07.067-.12.133-.24.197-.36.61.44 1.486.713 2.499.774a6.9 6.9 0 0 0 .408.012c.513 0 1.758-.055 2.219-.569a.656.656 0 0 0 .173-.52c-.08-.74-1.617-.937-2.634-.86-.314.025-.626.028-.888.028l-.739-.003c-.112 0-.227 0-.343.002.29-.512.635-.974 1.037-1.49.602.337 1.522.535 2.512.535.71 0 1.4-.104 1.95-.291l.042-.015c.519-.176 1.303-.444 1.235-1.079-.074-.689-1.22-.709-1.905-.72l-.175-.004a9.934 9.934 0 0 0-2.595.268c.169-.17.341-.353.52-.542.46-.489.982-1.04 1.58-1.546z"/></g></g><g><g><path fill="#ff5000" d="M32.22 61.263c-.03-.68-.017-1.596-.44-1.83-.157-.086-.458-.117-.804-.127v-.002l-.23-.002h-.004l-15.28-.062v.002c-.29-.004-.572 0-.845.032-.874.101-.83.797-.809 1.735.02.832-.092 1.793.393 2.098.402.248 1.427.184 1.427.184.277 3.132.672 6.33.987 9.543.093.952.113 2.59.565 2.989.43.379 11.341.458 11.768.091.29-.246.3-.736.362-1.38a941.37 941.37 0 0 1 1.161-11.23c.607-.03 1.074.032 1.382-.172.414-.272.39-1.228.366-1.87z"/></g><g opacity=".2"><path d="M30.475 63.304l-14.754.954-.091-.968z"/></g></g></g><g><g><g><g><g><path fill="#8f7ece" d="M82.867 54.85c4.962.129 10.407.046 15.153.19.561 2.167.534 4.569 2.145 5.62 1.334.868 3.505.606 4.862 1.514.836.56 1.204 1.486 1.516 2.588-10.56-.327-21.552-.537-32.263-.504.108-.73.427-1.677 1.01-2.084 1.21-.841 3.518-.353 4.925-1.073 1.91-.977 1.89-3.617 2.526-6.061.053-.051.037-.173.126-.19z"/></g><g opacity=".2"><path d="M98.018 55.04c-4.746-.144-10.19-.06-15.153-.19-.088.017-.072.139-.127.19-.347 1.336-.5 2.727-.878 3.877H98.9c-.414-1.139-.538-2.551-.882-3.877z"/></g></g><g><g><path fill="#fff" d="M80.503 62.51c-.376-.565 1.368-.792 1.154-.16"/></g><g><path fill="#fff" d="M79.446 61.99c.139.035.404.186.31.459-.124.356-.868.504-1.152.62-.343.14-.931.558-1.258.297-.47-.37.5-.851.84-1.003.181-.08.366-.141.522-.202.268-.104.472-.243.738-.171z"/></g></g></g><g><g><g><path fill="#8f7ece" d="M108.695 10.976c1.056-.05 2.7-.046 4.294 0 3.285.096 6.913-.23 7.891 2.274.483 1.24.559 3.094.632 4.924.07 1.77-.073 3.637-.127 5.366-.237 7.57-1.01 13.331-1.01 21.087 0 1.707-.11 3.515-.253 5.241-.2 2.406-.207 4.872-1.894 5.681-.762.367-2.156.208-3.473.254-1.268.044-2.58-.09-3.661-.127-2.634-.092-5.085-.177-7.323-.253-5.37-.18-9.954-.062-15.027-.062-4.79 0-9.865.267-14.964.126-4.345-.122-10.284.497-13.637-1.2-2.667-1.35-2.885-4.722-3.03-8.775-.281-7.93.452-15.231.632-22.73.043-1.793.04-3.87.126-5.745.099-2.167.342-4.345 1.262-5.114.93-.775 3.425-.82 5.556-.82 2.227 0 4.364.08 6.251.126 12.373.297 25.238-.252 37.628-.254.043 0 .085.002.127 0z"/></g><g><g><g><path fill="#fff" d="M59.272 47.92c-.617.284-.568-1.475.023-1.163"/></g><g><path fill="#fff" d="M58.598 48.893c.058-.13.247-.369.503-.232.334.177.365.935.433 1.233.084.362.406 1.006.097 1.29-.438.406-.763-.627-.859-.987-.05-.191-.083-.383-.118-.548-.06-.28-.166-.502-.056-.756z"/></g></g><g><g><path fill="#fff" d="M71.74 52.981c.472-.136 1.272.085 2.043.348.332.112.864.304.796.61-.08.37-.72.249-.947.205-.723-.14-1.568-.456-1.968-.755-.055-.103-.01-.305.077-.408z"/></g><g><path fill="#fff" d="M75.47 52.565c.02-.793 1.721-.46 1.523.168-.086.272-.967.419-1.34.203-.133-.077-.185-.234-.183-.371z"/></g><g><path fill="#fff" d="M77.21 53.725c-.02-.28.34-.468.747-.509.328-.032.966.054.883.42-.036.164-.305.352-.643.394-.395.052-.955.056-.986-.305z"/></g></g><g><g><path fill="#fff" d="M102.887 49.349c.445.21 1.268.12 2.074-.018.344-.058.899-.163.882-.477-.02-.376-.672-.358-.903-.352-.737.025-1.62.202-2.063.434-.07.093-.058.299.01.413z"/></g><g><path fill="#fff" d="M105.045 50.11c-.106.784 1.626.727 1.53.075-.04-.282-.89-.566-1.29-.411-.143.054-.221.2-.24.337z"/></g></g><g><g opacity=".2"><path d="M110.538 53.883c.445-.209 1.27-.118 2.074.02.344.057.9.162.882.476-.021.378-.672.36-.904.352-.735-.024-1.62-.201-2.063-.434-.07-.092-.058-.298.011-.414z"/></g><g opacity=".2"><path d="M113.595 53.396c-.106-.785 1.626-.726 1.532-.075-.042.282-.893.566-1.291.413-.144-.056-.222-.202-.241-.338z"/></g><g opacity=".2"><path d="M116.929 53.97c-.067-.274.262-.516.655-.62.318-.085.962-.1.94.275-.011.166-.25.394-.574.49-.38.113-.935.206-1.021-.145z"/></g></g></g></g><g><g opacity=".52"><path fill="#fff" d="M65.046 13.812c1.807-.14 4.017.215 6.057.323 2.054.11 4.152 0 6.253 0 4.145 0 8.362-.193 12.566-.193 3.463 0 8.985-.13 12.373-.13 1.975 0 4.133.065 6.317.065 2 0 4.29-.134 5.993.323 1.155.309 2.904 1.273 3.479 2.706.793 1.974.481 5.304.387 7.927-.097 2.747-.258 5.423-.258 8.25 0 2.635-.14 5.532-.257 8.314-.128 3.015-.116 5.946-2.19 6.83-1.585.675-4.47-.027-6.51-.128-6.988-.349-13.456-.58-20.817-.58-4.344 0-9.036.064-14.178.064-3.57 0-6.8.13-10.119-.321-1.128-.156-2.178-.458-2.641-.904-1.191-1.144-.968-4.574-.968-7.152 0-5.587.141-10.115-.128-15.92-.061-1.319-.132-2.73 0-3.995.237-2.254.536-4.127 2.061-4.963.69-.376 1.877-.46 2.58-.516z"/></g><g><g><g><path fill="#fff" d="M106.078 14.02c.444.208 1.268.118 2.073-.019.344-.058.9-.163.883-.476-.02-.378-.672-.36-.904-.352-.735.023-1.619.2-2.063.434-.07.09-.058.297.011.413z"/></g><g><path fill="#fff" d="M108.235 14.792c-.108.784 1.624.726 1.53.075-.042-.283-.89-.568-1.29-.414-.144.056-.221.202-.24.34z"/></g><g><path fill="#fff" d="M112.649 13.927c-.067.274.261.516.655.622.317.085.96.1.937-.276-.008-.167-.244-.395-.57-.492-.383-.111-.937-.205-1.022.146z"/></g></g><g><g><path fill="#fff" d="M73.527 14.51c-.446.207-1.27.118-2.075-.02-.343-.058-.9-.162-.882-.476.022-.377.672-.36.904-.35.736.023 1.62.2 2.062.431.07.092.06.298-.009.414z"/></g><g><path fill="#fff" d="M71.363 15.272c.107.786-1.626.726-1.53.075.041-.283.89-.568 1.29-.414.144.057.22.202.24.339z"/></g><g><path fill="#fff" d="M66.955 14.408c.067.274-.262.516-.657.62-.316.084-.961.102-.937-.275.009-.167.246-.394.572-.492.38-.112.935-.205 1.022.147z"/></g></g><g><g><path fill="#fff" d="M63.588 44.914c.444-.209 1.269-.12 2.072.019.344.057.901.163.884.477-.023.376-.673.357-.903.35-.737-.024-1.62-.2-2.064-.432-.07-.094-.058-.299.01-.414z"/></g><g><path fill="#fff" d="M66.645 44.425c-.106-.784 1.626-.725 1.53-.074-.041.284-.89.567-1.29.412-.143-.055-.221-.2-.24-.338z"/></g><g><path fill="#fff" d="M69.98 45c-.07-.274.26-.516.654-.62.317-.084.96-.101.939.274-.01.168-.247.397-.572.492-.381.112-.937.206-1.022-.146z"/></g></g></g></g></g></g><g><g><g><path fill="#fff" d="M93.604 36.26c.001-.387-.488-.75-.928-1.116-1.102-.914-2.419-2.056-3.477-2.951-.265-.225-.495-.432-.845-.702-.306-.237-.665-.44-.916-.29-.293.176-.277.65-.278.934-.003 1.016.192 2.022.27 3.024.076.966.077 1.953.21 3.01.038.3.065.808.35 1.023.341.256 1.36-.35 1.81-.578.522-.262 3.804-1.596 3.804-2.354z"/></g><g><path fill="#fff" d="M92.832 39.134a.95.95 0 0 1-.374 1.29l-.238.128a.948.948 0 0 1-1.288-.374l-1.155-2.102a.95.95 0 0 1 .375-1.29l.238-.128a.948.948 0 0 1 1.289.374z"/></g></g><g><path fill="#fff" d="M112.877 41.516c-.703.421-1.333 1.088-2.055 1.442.784 1.821-2.19 3.102-2.922 1.076-1.8.05-3.633.007-5.44.033-1.186 2.3-4.365-.73-1.86-2.067.084-1.496-.068-2.924.186-4.471-2.503-.73-.685-4.536 1.356-3.095.73-.174 1.268-.99 1.965-1.276-.233-.75-.258-1.488.277-2.084.772-.857 2.628-.185 2.601 1.087 1.841.157 3.548-.132 5.397.05 1.166-2.792 4.756.74 2.192 2.037-.135 1.582-.123 3.12-.19 4.681 1.595.873.283 3.733-1.507 2.587zm.712-7.802c1.059.406 1.77-1.55.305-1.747zm-1.518-.926c-1.7.16-3.47.09-5.233.04-.277.689-.774.638-1.16.967a11.794 11.794 0 0 1-.181 1.71c.93.034 1.842.004 2.762.004.548-.941 1.313-1.145 2.32-.552.587-.494 1.222-.84 1.8-1.365-.11-.265.047-.613-.308-.804zm1.826 1.73c-.331-.106-.659-.208-1.03-.451-.576.544-1.223.838-1.803 1.366.437.787-.177 1.982-.998 2.436.105.636-.15 1.378.104 1.97.684-.097 1.402-.083 2.134-.016.326-.832.866-.955 1.414-1.041-.058-1.386.079-2.831.179-4.264zm-8.738-1.535c.775.308 1.734-1.29.383-1.494zm3.933 3.933c.861.603 2.096-.951.883-1.435zm-4.41-3.447c-.62.614-1.329.934-1.933 1.612.094.11.132.237.114.381.723.188 1.379.149 2.007.022.023-.582.05-1.163.225-1.791-.138-.076-.275-.15-.413-.224zm.876 2.708c-.248.833-.021 1.522-.2 2.335.869.317.94.87 1.295 1.339.888-.036 1.76-.117 2.68-.039.052-.729.21-1.489-.015-2.135-.925-.07-1.165-.94-1.333-1.465-.8.02-1.605.018-2.427-.035zm7.63 4.762c.817.554 1.893-1.012.585-1.276zm-8.346-4.618c-.67-.17-1.257-.056-1.88-.06-.372 1.065-1.058 1.083-1.637 1.452.054 1.34.038 2.701-.09 4.099.294.215.48.07.785.317.544-.489 1.072-1.037 1.638-1.453-.277-.782.215-1.939 1.073-2.185a8.4 8.4 0 0 1 .111-2.17zm5.306 4.144c-.112.747-.324 1.525.27 2.061.604-.597 1.3-.885 1.889-1.53-.062-.985-1.458-.287-2.159-.53zm-9.839-5.001c-.457 1.03 1.165 1.97 1.81.978.375-.576.24-1.244-.58-1.485-.563-.164-.973-.073-1.23.507zm6.116 5.007c-.53 1.078-1.344 1.204-2.364.637-.49.667-1.099.942-1.599 1.58.172.201.1.475.272.678 1.688-.045 3.378-.084 5.104-.004.343-1.01.962-1.092 1.51-1.415-.01-.503.101-1.042-.035-1.508-.963.008-1.904.094-2.888.032zm-2.115-.61c-.25 1.093 1.864 1.156 1.471-.162zm4.71 4.46c.784.388 1.99-1.201.466-1.448zm-8.579-1.238c-.39.862 1.076 1.628 1.487.591.213-.535-.128-.89-.639-.982-.582-.107-.736.144-.848.39z"/></g><g><g><path fill="#fff" d="M68.66 22.541c-.078-.865-.16-1.728-.255-2.592-.039-.374.544-.37.584 0 .093.856.177 1.715.255 2.573l2.714-.09c4.623-.152 9.25-.306 13.873-.457l1.562-1.514c.271-.26.684.153.414.414l-1.107 1.07c.332-.008.663-.02.994-.032.376-.012.375.571 0 .583-.539.019-1.078.037-1.619.054l-2.354 2.281-13.916 13.472c-.023 1.264-.06 2.528-.116 3.79-.016.376-.6.376-.584 0 .05-1.096.081-2.192.106-3.29-.241.04-.482-.272-.259-.486l.273-.264c.005-.295.016-.59.019-.885.05-4.688-.13-9.375-.535-14.045l-1.268.042c-.376.011-.374-.571 0-.584l1.219-.04zm14.519.105l-11.165.368v1.202a.25.25 0 0 1-.018.087.26.26 0 0 1 .02.09.296.296 0 0 1-.293.292l-2.217-.056a.371.371 0 0 1-.089-.02l.022.246c.312 4.2.436 8.412.38 12.622l3.22-3.116 12.17-11.782zm-11.749.388c-.712.022-1.424.046-2.136.07l.08.976a.251.251 0 0 1 .131-.035c.642.016 1.284.032 1.925.05z"/></g><g><path fill="#fff" d="M63.723 30.85c-.023.373-.606.374-.582-.001.05-.8.157-1.595.32-2.378a.3.3 0 0 1-.164-.182c-.05-.15.055-.322.202-.36l.087-.021c.184-.756.42-1.498.71-2.223a.295.295 0 0 1 .082-.115c.041-.28.491-.366.565-.042.147.648.32 1.287.516 1.922.128 0 .24.08.28.206a.292.292 0 0 1-.11.312c.179.538.37 1.072.584 1.596.061.144-.064.322-.204.359-.164.042-.297-.058-.358-.205-.213-.52-.402-1.05-.58-1.583-.334.083-.668.167-.999.252-.18.808-.297 1.632-.35 2.462zm.504-3.104l.662-.168c-.106-.34-.203-.686-.295-1.03-.137.394-.26.794-.367 1.198z"/></g><g><path fill="#fff" d="M76.124 17.477a.362.362 0 0 1 .043-.236c-.055-.131.009-.274.12-.356.236-.172.545-.25.835-.232.56.035 1.062.379 1.224.928.094.323.062.69-.084.998.032.012.062.022.091.034.632.268.81.998.556 1.597-.263.618-.9.952-1.538 1.053-.155.024-.312-.04-.358-.204-.003-.01 0-.021-.001-.03l-.011.005c-.14.039-.335-.048-.36-.205l-.517-3.352zm.616-.183l-.036.018-.016.009c.174 1.118.345 2.235.517 3.353.003.01 0 .02 0 .031.006-.001.008-.006.013-.007.315-.048.604-.138.84-.318a.998.998 0 0 0 .337-.447c.013-.039.023-.079.033-.118.004-.02.008-.039.01-.059a.772.772 0 0 0 .006-.104c0-.01-.006-.098-.003-.084a.602.602 0 0 0-.017-.076c-.002-.011-.033-.099-.024-.078-.014-.032-.032-.06-.05-.09-.005-.01-.003-.011-.006-.015-.003-.001-.003-.001-.012-.01a1.052 1.052 0 0 0-.074-.074c-.007-.004-.005-.004-.008-.007-.012-.008-.025-.019-.038-.025l-.068-.04-.019-.008-.033-.012-.075-.02c-.01-.004-.024-.005-.034-.007l-.016-.001h-.081a.319.319 0 0 0-.044.006c-.01.002-.062.024-.066.024a.538.538 0 0 0-.072.042c-.13.088-.325.022-.4-.104-.083-.144-.025-.311.104-.4a.596.596 0 0 1 .092-.052l.007-.01a1.02 1.02 0 0 0 .129-.12l.017-.021c.015-.024.033-.046.045-.072a.635.635 0 0 0 .039-.067l.013-.028.002-.003a1.398 1.398 0 0 0 .057-.21v-.004c0-.015.004-.03.005-.045a1.33 1.33 0 0 0 0-.132c0-.02-.003-.037-.005-.056v-.006l-.007-.036c-.01-.048-.026-.092-.039-.138l-.003-.006c-.005-.008-.008-.016-.012-.025a.845.845 0 0 0-.067-.114v-.004c-.008-.005-.013-.013-.016-.017-.03-.036-.065-.068-.1-.102l-.006-.004-.015-.01a1.038 1.038 0 0 0-.177-.099l-.04-.012a.462.462 0 0 0-.063-.019c-.026-.008-.05-.012-.076-.018a.047.047 0 0 0-.016-.003h-.005a1.29 1.29 0 0 0-.222 0c-.005 0-.002-.002-.005 0h-.004a1.33 1.33 0 0 0-.193.052s-.002 0-.003.002zm1.663 2.124zm.04.161z"/></g><g><path fill="#fff" d="M80.744 35.705a1.37 1.37 0 0 0 1.046.15.294.294 0 0 0 .204-.358.296.296 0 0 0-.36-.204.985.985 0 0 1-.09.021c-.008-.002-.067.005-.075.005a.909.909 0 0 1-.11-.004h-.004l-.053-.011a.777.777 0 0 1-.106-.03c-.02-.005-.036-.01-.052-.017-.004-.002-.004-.001-.008-.005a1.283 1.283 0 0 1-.19-.11c-.008-.004-.008-.004-.012-.01l-.04-.031c-.027-.024-.053-.052-.078-.078a.772.772 0 0 1-.053-.062c.033.042-.03-.044-.035-.053-.02-.032-.037-.064-.054-.096-.005-.013-.01-.016-.01-.02a.605.605 0 0 1-.05-.178l-.001-.022v-.115c.001-.017.002-.026.001-.029a.896.896 0 0 1 .037-.143l.014-.04a.857.857 0 0 1 .24-.32l.04-.036.013-.009c.03-.02.062-.042.096-.061.032-.02.067-.036.1-.052-.046.022.053-.018.064-.021a.692.692 0 0 1 .347-.026c.155.03.314-.044.358-.204.041-.144-.047-.327-.203-.36-.674-.135-1.345.267-1.602.895-.253.623.066 1.308.626 1.634z"/></g></g><g><g><path fill="#fff" d="M91.464 26.64c.112-.603.248-1.203.393-1.798.01-.006.023-.006.034-.014.042-.026.087-.05.132-.074l.054-.025a.213.213 0 0 1 .033-.016c.028-.012.023-.01-.014.004.026-.022.093-.033.126-.045.045-.013.092-.026.138-.036l.065-.015c.015-.002.064-.019.077-.012l.077-.005c.095-.006.19-.003.285.007.146.015.284-.138.278-.28-.007-.163-.122-.261-.278-.277-.28-.03-.567.013-.835.103.161-.6.345-1.195.54-1.787l1.133 3.75c.103.343.643.198.537-.146l-1.37-4.54c-.1-.325-.581-.208-.543.1a.256.256 0 0 0-.114.14 32.637 32.637 0 0 0-1.287 4.82c-.065.348.472.499.539.147z"/></g><g><path fill="#fff" d="M93.208 20.48a.736.736 0 0 1 .091-.002c.017 0 .108.015.039 0 .029.007.06.012.088.02.01.004.058.026.06.025.02.008.04.018.06.031.008.004.05.037.052.037a.869.869 0 0 1 .075.075l.002.002c.017.027.032.053.048.083a.445.445 0 0 0 .017.043c.01.03.015.061.024.093 0 .015 0 .03.002.045l-.002.097c.003-.068-.007.028-.011.043a.44.44 0 0 1-.023.072c-.005.004-.026.052-.03.06-.113.195.033.4.24.42l.812.073c.146.014.285-.137.279-.277-.008-.164-.123-.266-.28-.28l-.44-.04a1.012 1.012 0 0 0-.155-.713 1.061 1.061 0 0 0-.948-.463c-.144.014-.286.117-.278.278.007.14.124.293.279.278z"/></g><g><path fill="#fff" d="M97.012 24.392c.299-.095.604-.162.911-.205l.074.64c.018.15.115.278.28.278.136 0 .294-.128.277-.279l-.08-.69c.172-.008.345-.007.518.002.151.009.28-.134.28-.278 0-.158-.13-.272-.28-.28a6.693 6.693 0 0 0-.582 0l-.094-.81c-.017-.151-.115-.28-.279-.28-.137 0-.295.128-.278.28l.099.862c-.336.047-.67.119-.994.222a.284.284 0 0 0-.194.343c.038.141.2.24.342.195z"/></g><g><path fill="#fff" d="M101.572 21.534c.212-.28.514-.472.867-.525.314-.048.636-.007.918.144.278.15.479.408.579.704.141.414.062.88-.177 1.235.103.024.207.06.305.112.273.146.486.414.547.72.067.323.005.67-.174.948-.4.618-1.21.743-1.848.445a.235.235 0 0 1-.122-.158c-.122 0-.258-.073-.275-.199-.149-1.005-.294-2.013-.44-3.02-.027-.005-.053-.01-.081-.024-.123-.066-.19-.265-.1-.382zm.726.094a.67.67 0 0 0-.063.034l-.015.012a.21.21 0 0 1 .068.12l.44 3.014a.37.37 0 0 1 .162.036l.008.004c.01.003.023.01.035.013a1.599 1.599 0 0 0 .207.053l.009.002h.006c.014 0 .024.001.038.003.072.005.142-.001.214-.003.003-.002.002 0 .003 0 .002-.002.002-.002.01-.004l.049-.008a.924.924 0 0 0 .096-.027c.02-.004.04-.014.06-.018l.001-.002c.028-.013.054-.025.08-.04.025-.013.05-.029.075-.045.004-.001.007-.005.01-.008-.001 0 .002 0 .011-.007l.007-.005.001-.001c.043-.04.08-.08.119-.123.005-.009.021-.028.025-.036a.603.603 0 0 0 .043-.071l.026-.055c.01-.024.017-.047.025-.07a.64.64 0 0 0 .03-.12 1.28 1.28 0 0 0 .003-.165v-.003l-.004-.025c-.005-.026-.012-.051-.019-.076l-.016-.051-.035-.068a.912.912 0 0 0-.03-.045l-.003-.003-.027-.031a.879.879 0 0 0-.063-.059c0-.002 0-.002-.002-.002l-.026-.019a1.07 1.07 0 0 0-.116-.063l-.05-.019c-.027-.008-.055-.014-.083-.02l-.019-.004c-.024.002-.05-.003-.075-.003-.018 0-.036.002-.055.004.002 0-.046.007-.057.012l-.048.013s-.003 0-.005.002l-.037.02a.283.283 0 0 1-.382-.1c-.067-.104-.038-.248.047-.335-.002-.099.05-.2.136-.256.008-.004.017-.011.026-.017-.006.003.008-.004.015-.01l.003-.003-.002.001.004-.003.004-.002a.817.817 0 0 0 .059-.058c.021-.021.04-.045.061-.068-.049.053.015-.023.027-.043a.917.917 0 0 0 .042-.07c.009-.02.045-.113.022-.046.02-.058.042-.115.055-.176a1.14 1.14 0 0 0 .01-.05v-.005a1.205 1.205 0 0 0 .006-.218l-.003-.046-.004-.003a.973.973 0 0 0-.036-.147c-.003-.01-.025-.066-.02-.058l-.01-.017a2.083 2.083 0 0 1-.018-.037l-.044-.07c-.004-.008-.01-.014-.016-.022l-.001-.002-.05-.053a1.375 1.375 0 0 0-.069-.063c.05.046-.01-.005-.026-.017a1.193 1.193 0 0 0-.129-.07.66.66 0 0 0-.127-.038c-.026-.009-.053-.013-.079-.018h-.002l-.027-.003a1.091 1.091 0 0 0-.22.002c-.01.001-.052.01-.014.001.04-.01-.046.01-.055.01-.05.014-.102.032-.15.048a.681.681 0 0 0-.046.02zm1.505 3.128l.009-.005h-.003c0 .002-.003.003-.006.005zm0 0z"/></g><g><path fill="#fff" d="M103.14 22.97l.015-.01c-.007.005-.013.01-.015.01z"/></g><g><path fill="#fff" d="M104.07 20.02h.025c.017.005.043.009.055.013l.004.001c.012.01.05.026.056.03.004.003.012.007.017.012a.358.358 0 0 1 .076.087c.002.007.007.014.009.02l.02.06v.08l-.001.011a.167.167 0 0 1-.005.026l-.014.067a3.691 3.691 0 0 0-.034.219c-.026.236.06.511.284.625.257.13.581.024.672-.258.045-.139-.052-.311-.194-.343a.297.297 0 0 0-.208.027l.001-.025.002-.014a.168.168 0 0 1 .007-.037c.021-.117.05-.236.048-.355a.837.837 0 0 0-.82-.806c-.146 0-.287.13-.28.28a.284.284 0 0 0 .28.28z"/></g><g><path fill="#fff" d="M108.754 21.98h-.385a.295.295 0 0 0-.196.08.222.222 0 0 0-.058.09.213.213 0 0 0-.025.108.284.284 0 0 0 .083.198c.053.05.12.08.196.08h.385c.073 0 .146-.03.197-.08a.215.215 0 0 0 .059-.09.278.278 0 0 0-.059-.306.292.292 0 0 0-.197-.08z"/></g><g><path fill="#fff" d="M108.757 23.07h-.578a.289.289 0 0 0-.196.082.288.288 0 0 0-.083.196c.007.152.123.28.28.28h.577a.28.28 0 0 0 .278-.28.281.281 0 0 0-.278-.278z"/></g><g><path fill="#fff" d="M112.495 24.034c.54.206 1.167.16 1.67-.126.31-.18.03-.663-.282-.483-.633.364-1.519.157-1.88-.49-.37-.662-.142-1.525.532-1.882.351-.185.805-.23 1.174-.072.138.057.299.039.381-.101.07-.117.04-.323-.1-.382-.97-.412-2.165.003-2.576 1.003a1.988 1.988 0 0 0-.002 1.48c.201.497.585.863 1.083 1.053z"/></g><g><path fill="#fff" d="M108.85 26.168a71.133 71.133 0 0 0-11.305 3.59c-.328.134-.184.674.148.538a71.16 71.16 0 0 1 11.305-3.59c.35-.08.202-.617-.147-.538z"/></g></g></g></g><g><g><g><g><path fill="#892" d="M148.32 32.973c5.052-.359 7.112 3.577 9.705 6.42.727.796 2.196 2.042 1.943 3.363-.182.961-1.653 1.158-2.854.773-1.146-.368-2.122-1.15-3.074-1.892-.884-.687-1.829-1.393-2.822-2.135-.976-.73-1.906-1.334-3.198-1.768-1.245-.419-3.057-.605-3.26-1.706-.217-1.175.801-2.23 1.45-2.58.558-.305 1.34-.422 2.11-.475z"/></g><g><path fill="#892" d="M159.593 42.642c0-.002.008-.003.006-.006-.294-.408-1.465-1.976-1.582-2.201-.042-.081.183.013.273.022.085.009.168.02.253.03l.096.009c.151.01.488.18.455.032-.06-.284-.383-.438-.587-.645-.012-.012-.035 0-.052-.001a5.915 5.915 0 0 1-.248-.028c-.148-.021-.295-.05-.444-.07-.119-.016-.267.042-.357-.037-.844-.742-1.752-1.453-2.388-2.379-.17-.249 1.386.304 1.39.101.007-.296-.302-.558-.572-.681-.312-.143-.686-.033-1.03-.051-.015-.001-.03-.005-.047-.007-.125-.019-.25-.036-.376-.056a1.028 1.028 0 0 1-.095-.02c-.125-.032-.26-.04-.374-.102-.424-.227-.81-.52-1.229-.756-.442-.249-.992-.341-1.354-.697-.123-.122.336-.09.501-.142.057-.017.11-.043.166-.065.102-.042.205-.08.306-.125.077-.035.15-.078.225-.117.072-.037.145-.071.215-.11.106-.058.209-.12.313-.182.027-.015.053-.032.08-.048.02-.012.08-.021.06-.036-.185-.143-.367-.318-.595-.375-.106-.026-.191.104-.287.155-.135.07-.281.142-.42.204-.088.04-.176.079-.265.114-.075.031-.153.057-.23.085-.072.026-.144.055-.218.077-.944.282-1.962.478-2.938-.148-.099-.063.94-.624 1.249-.82.111-.07.22-.146.33-.219v-.001c.001 0 0 0 0 0 .07-.11.316-.251.213-.331-.192-.149-.49-.122-.725-.065-.191.047-.314.238-.472.356-.039.03-.078.058-.119.087l-.14.094c-.154.105-.255.173-.406.27a18.663 18.663 0 0 1-.295.18c-.087.051-.21.12-.29.164-.091.05-.193.098-.284.142-.11.054-.144.08-.298.13-.172.057-.349.101-.523.151a.842.842 0 0 1-.063.016c-.14.029-.281.052-.42.083-.41.09-1.045-.097-1.227.28-1.787 3.69-3.188 7.563-4.46 11.46-.256.784-.154 1.651-.089 2.474.045.554-.074 1.874.417 1.614.355-.188.278-4.13.292-4.204.589-3.133 1.069-6.32 2.147-9.32.234-.65 1.085-.857 1.653-1.251.101-.07.23-.089.345-.133a.991.991 0 0 1 .05-.017c.267-.086.28-.092.486-.148.102-.029.205-.058.308-.084.172-.044.34-.14.518-.125.109.01.18.125.267.19.056.043.22.207.24.227.088.088.152.18.23.28.015.02.032.04.045.063.117.209.23.42.345.632l.004.013c.125.376.232.758.376 1.127.009.024.05.014.074.023.232.088.531.454.694.267.18-.206-.163-.522-.243-.784h.004c-.019-.053-.04-.104-.06-.157-.079-.213-.126-.358-.212-.554-.055-.128-.114-.255-.17-.382-.015-.032-.027-.064-.043-.095a19.996 19.996 0 0 0-.234-.426c-.02-.034-.04-.069-.064-.102-.085-.125-.412-.37-.261-.371.913-.012 1.828.14 2.719.34.127.029.148.213.219.323.02.032.037.067.055.102.047.093.093.188.138.283.019.04.036.08.052.12.042.111.082.222.122.333.013.034.026.066.035.1.143.572.196.716.26 1.13.003.018.072.465.08.557.032.357.052.714.087 1.07 0 .009.014.01.02.015.204.152.44.647.61.457.247-.277-.018-.742-.024-1.114 0-.001.005.004.005.002-.003-.044-.009-.087-.012-.131-.013-.16-.024-.32-.038-.48-.007-.088-.011-.177-.025-.264-.035-.232-.057-.467-.12-.694-.137-.502-.988-1.377-.479-1.489.775-.17 1.434.693 2.093 1.137.135.09.157.284.232.429.046.09.197.476.2.487.069.176.129.395.18.565.08.27.078.3.165.701a43.43 43.43 0 0 1 .102.6c.024.152.076.583.084.646.052.438.091 1.43.116 1.49.103.25.502.72.649.492.257-.401-.032-.953-.047-1.429v-.016a165.05 165.05 0 0 0-.087-.924c-.038-.26-.078-.52-.119-.78-.001-.012-.005-.023-.007-.035-.052-.214-.103-.43-.157-.643a1.813 1.813 0 0 0-.046-.16c-.072-.204-.398-.736-.224-.607.75.556 1.377 1.263 2.021 1.94.045.046.144.346.179.464.023.079.046.157.066.236.034.13.064.29.088.42l.03.17.043.335.011.102.04.48v.027c.008.156.015.313.02.47v.05c0 .322-.098.658-.001.964.037.118.23.09.348.13.081.026.213.146.247.068.084-.198 0-.431 0-.646h.002l-.001-.036-.005-.303c-.004-.2-.008-.49-.02-.701-.008-.158-.02-.315-.03-.472-.005-.066-.008-.132-.016-.197-.024-.208-.233-.767-.083-.622.667.64 1.142 1.453 1.708 2.183.04.05.072.106.108.16l.065.093c.009.013.016.025.026.037l.003-.002c.148.094.276.23.442.283.05.016.12-.05.121-.103.01-.209-.062-.413-.09-.62z"/></g><g opacity=".2"><path d="M159.593 42.642c0-.002.008-.003.006-.006-.294-.408-1.465-1.976-1.582-2.201-.042-.081.183.013.273.022.085.009.168.02.253.03l.096.009c.151.01.488.18.455.032-.06-.284-.383-.438-.587-.645-.012-.012-.035 0-.052-.001a5.915 5.915 0 0 1-.248-.028c-.148-.021-.295-.05-.444-.07-.119-.016-.267.042-.357-.037-.844-.742-1.752-1.453-2.388-2.379-.17-.249 1.386.304 1.39.101.007-.296-.302-.558-.572-.681-.312-.143-.686-.033-1.03-.051-.015-.001-.03-.005-.047-.007-.125-.019-.25-.036-.376-.056a1.028 1.028 0 0 1-.095-.02c-.125-.032-.26-.04-.374-.102-.424-.227-.81-.52-1.229-.756-.442-.249-.992-.341-1.354-.697-.123-.122.336-.09.501-.142.057-.017.11-.043.166-.065.102-.042.205-.08.306-.125.077-.035.15-.078.225-.117.072-.037.145-.071.215-.11.106-.058.209-.12.313-.182.027-.015.053-.032.08-.048.02-.012.08-.021.06-.036-.185-.143-.367-.318-.595-.375-.106-.026-.191.104-.287.155-.135.07-.281.142-.42.204-.088.04-.176.079-.265.114-.075.031-.153.057-.23.085-.072.026-.144.055-.218.077-.944.282-1.962.478-2.938-.148-.099-.063.94-.624 1.249-.82.111-.07.22-.146.33-.219v-.001c.001 0 0 0 0 0 .07-.11.316-.251.213-.331-.192-.149-.49-.122-.725-.065-.191.047-.314.238-.472.356-.039.03-.078.058-.119.087l-.14.094c-.154.105-.255.173-.406.27a18.663 18.663 0 0 1-.295.18c-.087.051-.21.12-.29.164-.091.05-.193.098-.284.142-.11.054-.144.08-.298.13-.172.057-.349.101-.523.151a.842.842 0 0 1-.063.016c-.14.029-.281.052-.42.083-.41.09-1.045-.097-1.227.28-1.787 3.69-3.188 7.563-4.46 11.46-.256.784-.154 1.651-.089 2.474.045.554-.074 1.874.417 1.614.355-.188.278-4.13.292-4.204.589-3.133 1.069-6.32 2.147-9.32.234-.65 1.085-.857 1.653-1.251.101-.07.23-.089.345-.133a.991.991 0 0 1 .05-.017c.267-.086.28-.092.486-.148.102-.029.205-.058.308-.084.172-.044.34-.14.518-.125.109.01.18.125.267.19.056.043.22.207.24.227.088.088.152.18.23.28.015.02.032.04.045.063.117.209.23.42.345.632l.004.013c.125.376.232.758.376 1.127.009.024.05.014.074.023.232.088.531.454.694.267.18-.206-.163-.522-.243-.784h.004c-.019-.053-.04-.104-.06-.157-.079-.213-.126-.358-.212-.554-.055-.128-.114-.255-.17-.382-.015-.032-.027-.064-.043-.095a19.996 19.996 0 0 0-.234-.426c-.02-.034-.04-.069-.064-.102-.085-.125-.412-.37-.261-.371.913-.012 1.828.14 2.719.34.127.029.148.213.219.323.02.032.037.067.055.102.047.093.093.188.138.283.019.04.036.08.052.12.042.111.082.222.122.333.013.034.026.066.035.1.143.572.196.716.26 1.13.003.018.072.465.08.557.032.357.052.714.087 1.07 0 .009.014.01.02.015.204.152.44.647.61.457.247-.277-.018-.742-.024-1.114 0-.001.005.004.005.002-.003-.044-.009-.087-.012-.131-.013-.16-.024-.32-.038-.48-.007-.088-.011-.177-.025-.264-.035-.232-.057-.467-.12-.694-.137-.502-.988-1.377-.479-1.489.775-.17 1.434.693 2.093 1.137.135.09.157.284.232.429.046.09.197.476.2.487.069.176.129.395.18.565.08.27.078.3.165.701a43.43 43.43 0 0 1 .102.6c.024.152.076.583.084.646.052.438.091 1.43.116 1.49.103.25.502.72.649.492.257-.401-.032-.953-.047-1.429v-.016a165.05 165.05 0 0 0-.087-.924c-.038-.26-.078-.52-.119-.78-.001-.012-.005-.023-.007-.035-.052-.214-.103-.43-.157-.643a1.813 1.813 0 0 0-.046-.16c-.072-.204-.398-.736-.224-.607.75.556 1.377 1.263 2.021 1.94.045.046.144.346.179.464.023.079.046.157.066.236.034.13.064.29.088.42l.03.17.043.335.011.102.04.48v.027c.008.156.015.313.02.47v.05c0 .322-.098.658-.001.964.037.118.23.09.348.13.081.026.213.146.247.068.084-.198 0-.431 0-.646h.002l-.001-.036-.005-.303c-.004-.2-.008-.49-.02-.701-.008-.158-.02-.315-.03-.472-.005-.066-.008-.132-.016-.197-.024-.208-.233-.767-.083-.622.667.64 1.142 1.453 1.708 2.183.04.05.072.106.108.16l.065.093c.009.013.016.025.026.037l.003-.002c.148.094.276.23.442.283.05.016.12-.05.121-.103.01-.209-.062-.413-.09-.62z"/></g></g><g><g><path fill="#892" d="M124.458 32.973c-5.053-.359-7.113 3.577-9.706 6.42-.727.796-2.196 2.042-1.943 3.363.183.961 1.653 1.158 2.855.773 1.145-.368 2.12-1.15 3.073-1.892.884-.687 1.83-1.393 2.823-2.135.976-.73 1.905-1.334 3.198-1.768 1.246-.419 3.056-.605 3.26-1.706.216-1.175-.801-2.23-1.451-2.58-.558-.305-1.34-.422-2.11-.475z"/></g><g><path fill="#892" d="M113.186 42.653c0-.003-.008-.004-.006-.007.297-.412 1.463-1.97 1.583-2.201.042-.081-.183.013-.274.022l-.252.03-.097.009s.001 0 0 0c-.151.01-.487.18-.455.032.061-.285.384-.438.589-.645.011-.011.033 0 .05-.001.083-.008.166-.017.248-.028.149-.021.296-.05.444-.07.119-.016.268.042.358-.037.843-.742 1.751-1.453 2.387-2.379.171-.25-1.385.304-1.39.101-.006-.296.303-.558.572-.681.313-.143.687-.033 1.03-.051.015-.001.031-.005.047-.007.125-.019.251-.036.376-.056.032-.005.064-.011.096-.02.125-.032.26-.04.374-.102.424-.227.81-.52 1.23-.756.441-.249.99-.341 1.353-.697.123-.122-.336-.09-.501-.142-.057-.017-.111-.043-.167-.065-.102-.042-.205-.08-.305-.125-.077-.035-.15-.078-.226-.117-.071-.037-.144-.071-.214-.11-.106-.058-.21-.12-.314-.182-.027-.015-.053-.032-.08-.048h.001c-.02-.012-.08-.021-.062-.036.186-.143.368-.318.596-.375.106-.026.191.104.288.155.14.072.276.14.42.204.087.04.175.079.264.115.076.03.154.056.23.084.073.026.144.055.218.077.943.283 1.964.477 2.938-.148.095-.061-.94-.624-1.249-.82-.111-.07-.22-.146-.33-.219v-.001c-.07-.11-.315-.251-.212-.331.192-.148.488-.122.723-.065.005.001.438.336.59.443l.142.094c.173.117.241.165.405.27l.114.07c.081.05.191.116.28.166l.192.108c.118.065.128.065.284.142.115.057.12.072.298.13.172.057.348.101.523.151.02.006.041.012.062.016.14.029.282.052.421.083.41.09 1.044-.097 1.227.28 1.786 3.69 3.186 7.563 4.458 11.46.256.784.156 1.651.09 2.474-.044.554.075 1.875-.415 1.614-.353-.187-.28-4.132-.293-4.204-.59-3.133-1.07-6.32-2.148-9.32-.234-.65-1.084-.857-1.652-1.251-.102-.07-.23-.089-.345-.133a.996.996 0 0 0-.05-.017l-.347-.11c-.046-.014-.092-.026-.139-.038-.102-.029-.205-.058-.308-.084-.172-.044-.34-.14-.518-.125-.108.01-.178.125-.265.19-.066.05-.206.19-.243.227-.088.089-.149.176-.228.28-.015.02-.032.04-.045.063-.117.209-.23.42-.345.632l-.005.013c-.125.376-.23.758-.375 1.127-.01.024-.05.014-.074.023-.232.088-.531.454-.694.267-.18-.206.163-.522.243-.784h-.004c.019-.053.04-.104.06-.157.068-.185.132-.373.21-.554.056-.128.115-.255.172-.382.015-.032.028-.064.044-.095.022-.042.204-.393.296-.528.086-.124.413-.37.261-.371-.912-.012-1.827.14-2.717.34-.127.029-.15.213-.22.323-.02.032-.038.067-.055.102-.048.093-.094.188-.139.283-.018.04-.036.08-.051.12-.043.111-.083.222-.123.333-.012.034-.026.066-.035.1-.116.464-.198.734-.26 1.13 0 .002-.073.474-.08.557-.032.357-.052.714-.087 1.07 0 .009-.013.01-.02.015-.203.152-.44.647-.61.457-.247-.277.018-.742.024-1.114 0-.001-.004.004-.004.002.003-.044.009-.087.012-.131l.037-.48c.008-.088.013-.177.026-.264.035-.232.057-.467.12-.694.137-.502.987-1.377.478-1.489-.775-.17-1.434.693-2.092 1.137-.135.09-.158.284-.232.429-.05.096-.19.462-.2.487-.079.206-.11.326-.18.565-.074.25-.096.384-.165.701a40.74 40.74 0 0 0-.102.6c-.02.13-.082.638-.083.646-.052.432-.112 1.478-.117 1.49-.103.25-.501.72-.648.492-.258-.4.03-.953.045-1.429 0-.005.003-.01.003-.016.024-.268.046-.536.071-.804.004-.04.008-.08.014-.12.038-.26.079-.52.12-.78a.427.427 0 0 1 .006-.035c.052-.214.102-.43.157-.643.013-.054.028-.108.047-.16.071-.204.396-.736.223-.607-.75.556-1.377 1.263-2.021 1.94-.044.046-.144.347-.18.465-.04.138-.076.264-.105.405-.014.066-.063.33-.076.42l-.045.335a2.49 2.49 0 0 0-.01.102c-.015.16-.027.32-.04.48l-.001.027-.02.47v.05c.001.322.1.658.002.964-.037.118-.231.09-.35.13-.08.026-.21.146-.244.068-.084-.198-.001-.431-.002-.646v-.036l.005-.303c.003-.148.01-.522.02-.701.008-.158.02-.315.03-.472.006-.066.008-.132.016-.197.025-.208.234-.767.083-.622-.667.64-1.142 1.453-1.708 2.183-.04.05-.072.106-.108.16l-.065.093-.026.037-.002-.002c-.148.094-.277.23-.443.283-.05.016-.118-.05-.12-.103-.01-.208.06-.413.087-.62z"/></g><g opacity=".2"><path d="M113.186 42.653c0-.003-.008-.004-.006-.007.297-.412 1.463-1.97 1.583-2.201.042-.081-.183.013-.274.022l-.252.03-.097.009s.001 0 0 0c-.151.01-.487.18-.455.032.061-.285.384-.438.589-.645.011-.011.033 0 .05-.001.083-.008.166-.017.248-.028.149-.021.296-.05.444-.07.119-.016.268.042.358-.037.843-.742 1.751-1.453 2.387-2.379.171-.25-1.385.304-1.39.101-.006-.296.303-.558.572-.681.313-.143.687-.033 1.03-.051.015-.001.031-.005.047-.007.125-.019.251-.036.376-.056.032-.005.064-.011.096-.02.125-.032.26-.04.374-.102.424-.227.81-.52 1.23-.756.441-.249.99-.341 1.353-.697.123-.122-.336-.09-.501-.142-.057-.017-.111-.043-.167-.065-.102-.042-.205-.08-.305-.125-.077-.035-.15-.078-.226-.117-.071-.037-.144-.071-.214-.11-.106-.058-.21-.12-.314-.182-.027-.015-.053-.032-.08-.048h.001c-.02-.012-.08-.021-.062-.036.186-.143.368-.318.596-.375.106-.026.191.104.288.155.14.072.276.14.42.204.087.04.175.079.264.115.076.03.154.056.23.084.073.026.144.055.218.077.943.283 1.964.477 2.938-.148.095-.061-.94-.624-1.249-.82-.111-.07-.22-.146-.33-.219v-.001c-.07-.11-.315-.251-.212-.331.192-.148.488-.122.723-.065.005.001.438.336.59.443l.142.094c.173.117.241.165.405.27l.114.07c.081.05.191.116.28.166l.192.108c.118.065.128.065.284.142.115.057.12.072.298.13.172.057.348.101.523.151.02.006.041.012.062.016.14.029.282.052.421.083.41.09 1.044-.097 1.227.28 1.786 3.69 3.186 7.563 4.458 11.46.256.784.156 1.651.09 2.474-.044.554.075 1.875-.415 1.614-.353-.187-.28-4.132-.293-4.204-.59-3.133-1.07-6.32-2.148-9.32-.234-.65-1.084-.857-1.652-1.251-.102-.07-.23-.089-.345-.133a.996.996 0 0 0-.05-.017l-.347-.11c-.046-.014-.092-.026-.139-.038-.102-.029-.205-.058-.308-.084-.172-.044-.34-.14-.518-.125-.108.01-.178.125-.265.19-.066.05-.206.19-.243.227-.088.089-.149.176-.228.28-.015.02-.032.04-.045.063-.117.209-.23.42-.345.632l-.005.013c-.125.376-.23.758-.375 1.127-.01.024-.05.014-.074.023-.232.088-.531.454-.694.267-.18-.206.163-.522.243-.784h-.004c.019-.053.04-.104.06-.157.068-.185.132-.373.21-.554.056-.128.115-.255.172-.382.015-.032.028-.064.044-.095.022-.042.204-.393.296-.528.086-.124.413-.37.261-.371-.912-.012-1.827.14-2.717.34-.127.029-.15.213-.22.323-.02.032-.038.067-.055.102-.048.093-.094.188-.139.283-.018.04-.036.08-.051.12-.043.111-.083.222-.123.333-.012.034-.026.066-.035.1-.116.464-.198.734-.26 1.13 0 .002-.073.474-.08.557-.032.357-.052.714-.087 1.07 0 .009-.013.01-.02.015-.203.152-.44.647-.61.457-.247-.277.018-.742.024-1.114 0-.001-.004.004-.004.002.003-.044.009-.087.012-.131l.037-.48c.008-.088.013-.177.026-.264.035-.232.057-.467.12-.694.137-.502.987-1.377.478-1.489-.775-.17-1.434.693-2.092 1.137-.135.09-.158.284-.232.429-.05.096-.19.462-.2.487-.079.206-.11.326-.18.565-.074.25-.096.384-.165.701a40.74 40.74 0 0 0-.102.6c-.02.13-.082.638-.083.646-.052.432-.112 1.478-.117 1.49-.103.25-.501.72-.648.492-.258-.4.03-.953.045-1.429 0-.005.003-.01.003-.016.024-.268.046-.536.071-.804.004-.04.008-.08.014-.12.038-.26.079-.52.12-.78a.427.427 0 0 1 .006-.035c.052-.214.102-.43.157-.643.013-.054.028-.108.047-.16.071-.204.396-.736.223-.607-.75.556-1.377 1.263-2.021 1.94-.044.046-.144.347-.18.465-.04.138-.076.264-.105.405-.014.066-.063.33-.076.42l-.045.335a2.49 2.49 0 0 0-.01.102c-.015.16-.027.32-.04.48l-.001.027-.02.47v.05c.001.322.1.658.002.964-.037.118-.231.09-.35.13-.08.026-.21.146-.244.068-.084-.198-.001-.431-.002-.646v-.036l.005-.303c.003-.148.01-.522.02-.701.008-.158.02-.315.03-.472.006-.066.008-.132.016-.197.025-.208.234-.767.083-.622-.667.64-1.142 1.453-1.708 2.183-.04.05-.072.106-.108.16l-.065.093-.026.037-.002-.002c-.148.094-.277.23-.443.283-.05.016-.118-.05-.12-.103-.01-.208.06-.413.087-.62z"/></g></g><g><g><path fill="#892" d="M146.544 9.258c.662-.061 1.699.22 2.03 1.137.32.889-.112 2.192-.406 3.151-.309 1.004-.768 1.96-1.022 2.772-.925 2.972-1.583 5.856-2.694 8.63-.744 1.858-1.427 3.37-2.532 5.047-.476.724-1.2 1.73-2.06 1.647-.936-.093-1.335-1.534-1.39-2.8-.088-1.954.432-4.163.807-5.93.412-1.938.925-3.606 1.48-5.243.49-1.44 1.194-3.295 1.973-4.74.812-1.511 2.009-3.501 3.814-3.671z"/></g><g><path fill="#892" d="M146.907 13.487a4.834 4.834 0 0 0-.128.057c-.324.153-.721.717-.97.46-.257-.265.282-.682.427-1.021.07-.165.144-.328.216-.492.074-.169.147-.337.222-.505.129-.286.26-.571.39-.856l.04-.087c.147-.311.292-.623.437-.935.036-.076.068-.154.107-.228.061-.115.269-.23.195-.338-.117-.173-.407-.345-.583-.232-.274.176-.285.587-.428.88l-.001.001c-.107.213-.212.427-.318.64-.034.067-.067.135-.103.2-.128.23-.183.523-.39.685-.093.073-.024-.234-.037-.35-.015-.136-.071-.338-.095-.433a1.087 1.087 0 0 0-.022-.078l-.104-.311c-.01-.03-.018-.059-.03-.087-.044-.116-.091-.23-.137-.345l-.02-.052h-.002c-.063-.143-.034-.414-.189-.427-.213-.017-.412.187-.524.369-.054.087.087.186.123.282.07.188.132.38.195.57.025.076.049.153.07.23.194.748.355 1.321.135 2.173-.052.203-.15-.391-.229-.586a23.442 23.442 0 0 0-.288-.616c-.044-.092-.093-.182-.14-.272a19.28 19.28 0 0 0-.142-.267s-.001.003-.002.002c-.15-.262-.153-.716-.446-.789-.232-.058-.4.334-.435.57-.002.02.286.542.374.696l.111.193.06.106.107.19c.044.08.119.221.16.301.037.074.114.227.149.307.016.038.105.257.124.313.022.064.04.129.06.193.012.041.026.082.035.124.015.072.024.145.036.218.006.034.014.068.016.102.005.108.036.22.005.323-.118.4-.285.786-.447 1.171-.157.374-.23 1.403-.509 1.107-.685-.727-.701-1.871-1.082-2.795-.09-.219-.096-.674-.329-.63-.278.054-.348.482-.373.764-.016.18.176.318.263.477.12.222.15.279.265.503l.092.178a13.362 13.362 0 0 1 .286.607c.028.065.141.34.17.423.03.08.056.162.082.243.02.062.04.123.057.185.022.084.04.17.06.254.013.059.028.117.037.176.014.093.02.186.03.28.018.177.043.41-.004.569-.116.38-.289.742-.446 1.107-.16.374-.198.845-.506 1.11-.134.115-.148-.322-.224-.482-.02-.041-.041-.08-.064-.12-.078-.14-.158-.277-.238-.415l-.022-.037c-.391-.564-.708-1.188-1.175-1.692-.074-.08-.073.207-.108.31-.055.166-.207.328-.162.496.066.25.305.416.46.624.041.056.084.112.127.168l.04.05.147.196c.047.063.162.221.191.263l.077.112.117.174c.059.09.128.207.18.297.024.042.048.084.07.128.03.058.057.118.085.177.019.04.04.079.055.12.023.062.04.125.06.188.034.105.087.27.064.366-.055.235-.166.453-.254.678-.274.7-.378 1.494-.83 2.093-.13.173-.21-.377-.324-.561-.043-.07-.094-.133-.142-.2-.081-.111-.16-.225-.245-.334a28.602 28.602 0 0 0-.427-.51c-.081-.093-.165-.183-.246-.275l-.096-.109v.003c-.045-.05-.104-.212-.135-.152-.117.222-.207.485-.17.733.026.172.226.264.338.398.165.196.226.28.4.51.05.066.102.13.147.197.083.123.16.25.238.375.038.06.08.12.113.184.102.2.335.386.293.606-.168.878-.175 1.995-.893 2.527-9.365 6.942 2.873-4.268-1.278-1.702-.236.145-.126.543-.13.82 0 .057.079.082.116.125.042.047.138.165.19.228l.101.123.028.035.126.164.03.042c.08.112.095.127.15.215.006.012.105.17.131.22.026.05.05.1.074.15.011.024.023.046.032.07.02.051.035.103.053.154.007.022.016.043.02.065.015.071.053.144.037.215-.124.562-.346 1.1-.453 1.665-.792 4.192-1.753 8.361-2.242 12.599-.289 2.5-.177 5.033-.084 7.547.018.496-.06 1.292.416 1.428.405.115.244-.815.26-1.235.072-1.896-.183-3.805.003-5.693.428-4.334 1.198-8.628 1.837-12.936.033-.222.115-.433.177-.65.124-.433.178-.895.379-1.3.091-.183.31-.267.466-.399.034-.029.07-.058.107-.082.374-.231.752-.455 1.128-.682a.439.439 0 0 1 .041-.022c.216-.1.43-.205.65-.299.274-.117.616-.124.83-.333.237-.233.505-.576.43-.9-.047-.204-.396.135-.59.214-.259.105-.51.226-.766.338v-.002l-.674.342-.125.067c-.191.102-.382.207-.574.308-.179.095-.6.472-.538.28.54-1.682.791-1.88 1.796-2.73.089-.074.178-.15.276-.212.783-.5 1.674-.853 2.366-1.473.247-.222.61-.77.325-.942-.325-.196-.672.354-1.009.53v-.002l-.127.073-.505.293c-.079.046-.159.091-.235.14-.228.148-.458.293-.679.45-.42.297-1.043 1.387-1.247.914-.287-.665.51-1.355.764-2.033.255-.678.307-1.473.764-2.034.333-.409.947-.462 1.433-.664.111-.046.723-.238.994-.315.239-.068.543-.024.717-.2.181-.185.344-.523.214-.747-.096-.166-.365.116-.548.173 0 0 0-.001 0 0l-.062.02c-.365.123-.73.244-1.094.368-.086.03-.172.06-.257.092-.36.136-.896.751-1.076.412-.23-.434.29-.956.574-1.357.116-.165.368-.165.554-.244.164-.07.445-.17.59-.217.17-.056.34-.11.512-.16.385-.109.84-.07 1.158-.313.201-.154.172-.48.211-.73.005-.035-.068.016-.102.025-.646.187-1.293.377-1.94.565l-.041.012c-.187.046-.604.326-.561.138.259-1.139.733-2.229 1.272-3.264.105-.202.397-.224.599-.33.101-.053.206-.1.31-.15.104-.05.209-.102.315-.15.101-.047.453-.203.62-.274l.586-.245c.087-.037.188-.05.263-.11.037-.029.032-.088.046-.133.07-.228.446-.676.207-.686-.532-.02-.977.425-1.465.638z"/></g><g opacity=".2"><path d="M146.907 13.487a4.834 4.834 0 0 0-.128.057c-.324.153-.721.717-.97.46-.257-.265.282-.682.427-1.021.07-.165.144-.328.216-.492.074-.169.147-.337.222-.505.129-.286.26-.571.39-.856l.04-.087c.147-.311.292-.623.437-.935.036-.076.068-.154.107-.228.061-.115.269-.23.195-.338-.117-.173-.407-.345-.583-.232-.274.176-.285.587-.428.88l-.001.001c-.107.213-.212.427-.318.64-.034.067-.067.135-.103.2-.128.23-.183.523-.39.685-.093.073-.024-.234-.037-.35-.015-.136-.071-.338-.095-.433a1.087 1.087 0 0 0-.022-.078l-.104-.311c-.01-.03-.018-.059-.03-.087-.044-.116-.091-.23-.137-.345l-.02-.052h-.002c-.063-.143-.034-.414-.189-.427-.213-.017-.412.187-.524.369-.054.087.087.186.123.282.07.188.132.38.195.57.025.076.049.153.07.23.194.748.355 1.321.135 2.173-.052.203-.15-.391-.229-.586a23.442 23.442 0 0 0-.288-.616c-.044-.092-.093-.182-.14-.272a19.28 19.28 0 0 0-.142-.267s-.001.003-.002.002c-.15-.262-.153-.716-.446-.789-.232-.058-.4.334-.435.57-.002.02.286.542.374.696l.111.193.06.106.107.19c.044.08.119.221.16.301.037.074.114.227.149.307.016.038.105.257.124.313.022.064.04.129.06.193.012.041.026.082.035.124.015.072.024.145.036.218.006.034.014.068.016.102.005.108.036.22.005.323-.118.4-.285.786-.447 1.171-.157.374-.23 1.403-.509 1.107-.685-.727-.701-1.871-1.082-2.795-.09-.219-.096-.674-.329-.63-.278.054-.348.482-.373.764-.016.18.176.318.263.477.12.222.15.279.265.503l.092.178a13.362 13.362 0 0 1 .286.607c.028.065.141.34.17.423.03.08.056.162.082.243.02.062.04.123.057.185.022.084.04.17.06.254.013.059.028.117.037.176.014.093.02.186.03.28.018.177.043.41-.004.569-.116.38-.289.742-.446 1.107-.16.374-.198.845-.506 1.11-.134.115-.148-.322-.224-.482-.02-.041-.041-.08-.064-.12-.078-.14-.158-.277-.238-.415l-.022-.037c-.391-.564-.708-1.188-1.175-1.692-.074-.08-.073.207-.108.31-.055.166-.207.328-.162.496.066.25.305.416.46.624.041.056.084.112.127.168l.04.05.147.196c.047.063.162.221.191.263l.077.112.117.174c.059.09.128.207.18.297.024.042.048.084.07.128.03.058.057.118.085.177.019.04.04.079.055.12.023.062.04.125.06.188.034.105.087.27.064.366-.055.235-.166.453-.254.678-.274.7-.378 1.494-.83 2.093-.13.173-.21-.377-.324-.561-.043-.07-.094-.133-.142-.2-.081-.111-.16-.225-.245-.334a28.602 28.602 0 0 0-.427-.51c-.081-.093-.165-.183-.246-.275l-.096-.109v.003c-.045-.05-.104-.212-.135-.152-.117.222-.207.485-.17.733.026.172.226.264.338.398.165.196.226.28.4.51.05.066.102.13.147.197.083.123.16.25.238.375.038.06.08.12.113.184.102.2.335.386.293.606-.168.878-.175 1.995-.893 2.527-9.365 6.942 2.873-4.268-1.278-1.702-.236.145-.126.543-.13.82 0 .057.079.082.116.125.042.047.138.165.19.228l.101.123.028.035.126.164.03.042c.08.112.095.127.15.215.006.012.105.17.131.22.026.05.05.1.074.15.011.024.023.046.032.07.02.051.035.103.053.154.007.022.016.043.02.065.015.071.053.144.037.215-.124.562-.346 1.1-.453 1.665-.792 4.192-1.753 8.361-2.242 12.599-.289 2.5-.177 5.033-.084 7.547.018.496-.06 1.292.416 1.428.405.115.244-.815.26-1.235.072-1.896-.183-3.805.003-5.693.428-4.334 1.198-8.628 1.837-12.936.033-.222.115-.433.177-.65.124-.433.178-.895.379-1.3.091-.183.31-.267.466-.399.034-.029.07-.058.107-.082.374-.231.752-.455 1.128-.682a.439.439 0 0 1 .041-.022c.216-.1.43-.205.65-.299.274-.117.616-.124.83-.333.237-.233.505-.576.43-.9-.047-.204-.396.135-.59.214-.259.105-.51.226-.766.338v-.002l-.674.342-.125.067c-.191.102-.382.207-.574.308-.179.095-.6.472-.538.28.54-1.682.791-1.88 1.796-2.73.089-.074.178-.15.276-.212.783-.5 1.674-.853 2.366-1.473.247-.222.61-.77.325-.942-.325-.196-.672.354-1.009.53v-.002l-.127.073-.505.293c-.079.046-.159.091-.235.14-.228.148-.458.293-.679.45-.42.297-1.043 1.387-1.247.914-.287-.665.51-1.355.764-2.033.255-.678.307-1.473.764-2.034.333-.409.947-.462 1.433-.664.111-.046.723-.238.994-.315.239-.068.543-.024.717-.2.181-.185.344-.523.214-.747-.096-.166-.365.116-.548.173 0 0 0-.001 0 0l-.062.02c-.365.123-.73.244-1.094.368-.086.03-.172.06-.257.092-.36.136-.896.751-1.076.412-.23-.434.29-.956.574-1.357.116-.165.368-.165.554-.244.164-.07.445-.17.59-.217.17-.056.34-.11.512-.16.385-.109.84-.07 1.158-.313.201-.154.172-.48.211-.73.005-.035-.068.016-.102.025-.646.187-1.293.377-1.94.565l-.041.012c-.187.046-.604.326-.561.138.259-1.139.733-2.229 1.272-3.264.105-.202.397-.224.599-.33.101-.053.206-.1.31-.15.104-.05.209-.102.315-.15.101-.047.453-.203.62-.274l.586-.245c.087-.037.188-.05.263-.11.037-.029.032-.088.046-.133.07-.228.446-.676.207-.686-.532-.02-.977.425-1.465.638z"/></g></g><g><g><path fill="#fff" d="M135.12 24.227c-.264.345-.696.98-.758 1.352-.072.46.213.969.108 1.548.585-1.12 1.452-2.045 2.35-2.961-.006-.214-.015-.416-.022-.603-.014-.331-.036-.656-.055-.983-.562.492-1.14 1.016-1.623 1.647z"/></g><g><path fill="#fff" d="M134.706 33.252c.574-.607 1.249-1.506 1.98-2.24l.03-.337c.027-.358.05-.727.068-1.095l-.058.043c-.937.751-2.34 1.782-2.02 3.629z"/></g><g><path fill="#fff" d="M131.177 28.324c1.078 1.104 2.154 2.443 2.801 3.992-.029-.808.148-1.702.027-2.413-.102-.612-.598-1.2-.97-1.744-.893-1.304-1.87-2.25-2.935-3.369.054.918.121 1.86.22 2.787.341.16.629.514.857.747z"/></g><g><path fill="#fff" d="M130.44 28.58c.276 2.065.74 3.987 1.603 5.32.517.793 1.218 1.542 2.018 1.674-.01-.89-.093-1.716-.34-2.4-.678-1.88-2.01-3.25-3.281-4.594z"/></g><g><path fill="#fff" d="M134.572 28.732c-.061.57.13 1.251.102 1.98a16.585 16.585 0 0 1 1.689-1.65c.136-.115.296-.27.461-.357.043-1.308.04-2.605.015-3.705a10.042 10.042 0 0 0-1.568 2.131c-.28.5-.643 1.06-.699 1.6z"/></g><g><path fill="#fff" d="M134.696 34.555c-.07.315-.043.66-.025 1.005 1.159-.263 1.65-1.725 1.893-3.44a12.52 12.52 0 0 0-1.175 1.327c-.25.332-.613.749-.693 1.108z"/></g><g><path fill="#fff" d="M130.783 24.551c1.083 1.106 2.264 2.317 3.116 3.683-.143-1.366-.05-2.502-.333-3.467-.261-.892-.86-1.699-1.397-2.364-.69-.863-1.547-1.625-2.419-2.373.113 1.331.222 2.592.287 3.73.3.187.524.563.746.791z"/></g><g><g><path fill="#892" d="M131.274 8.586c1.497-.117 2.799 1.534 3.372 2.697.82 1.659 1.12 3.615 1.482 5.77.359 2.125.579 4.253.672 6.503.069 1.715.122 4.586-.078 7.114-.194 2.417-.624 4.84-2.346 4.925-.93.043-1.75-.8-2.332-1.697-1.506-2.324-1.801-6.448-1.994-9.983-.17-3.178-.721-7.377-.678-11.267.022-2.087.073-3.922 1.902-4.062z"/></g><g><path fill="#892" d="M135.327 30.012a74.586 74.586 0 0 0-.227.232l-.036.038-.177.187c-.058.063-.214.249-.215.239-.104-.653-.21-1.329-.102-1.98.096-.575.447-1.076.699-1.6.099-.207.232-.395.351-.59.037-.06.079-.117.118-.175.208-.3.213-.315.41-.566.162-.205.24-.3.414-.496.09-.103.245-.171.275-.305.06-.273.225-.707-.022-.839-.224-.119-.351.365-.527.547 0 0 0-.001 0 0l-.064.068c-.22.24-.338.36-.512.569-.122.145-.243.29-.364.437a2.213 2.213 0 0 0-.08.103 42.11 42.11 0 0 0-.381.533c-.125.177-.415.72-.423.704-.57-1.199.064-1.96.65-2.9.057-.09.44-.527.564-.647.35-.337.815-.58 1.06-.999.124-.214.187-.83-.044-.741-.6.23-.948.866-1.42 1.3l-.054.057c-.094.1-.19.2-.283.302-.123.134-.199.233-.324.389-.032.039-.064.077-.093.117-.093.131-.235.553-.273.397-.231-.95-.451-1.94-.34-2.91.057-.489.538-.823.819-1.226.12-.172.255-.333.383-.498l.057-.072c.214-.263.232-.296.365-.445.263-.295.645-.518.79-.886.1-.255.107-.665-.124-.811-.177-.113-.284.31-.426.463v-.001l-.076.082-.288.32c-.144.16-.47.527-.628.713-.127.151-.252.304-.377.456-.07.086-.142.17-.208.257-.178.237-.4.988-.523.718-.442-.977-.536-2.092-.584-3.164-.012-.259.274-.44.412-.66.021-.032.043-.064.066-.094l.458-.61a.945.945 0 0 1 .047-.057l1.071-1.2c.157-.166.421-.275.474-.498.059-.252.079-.753-.18-.756-.346-.005-.48.497-.72.745l-.002-.002-.092.1-.274.297c-.056.06-.112.12-.167.182-.151.172-.306.342-.451.52-.298.364-.44 1.27-.88 1.103-.49-.187-.378-1.03-.291-1.549.086-.517 1.197-1.757 1.538-2.168v-.003c.272-.283.678-.481.815-.849.078-.208-.18-.405-.271-.607-.005-.01-.008-.04-.016-.031-.21.21-.402.435-.606.651-.001.002 0-.007-.002-.006-.032.034-.06.07-.091.106-.05.057-.102.114-.15.172-.214.253-.424.508-.637.762-.292.347-.524 1.326-.879 1.042-1.418-1.135-.633-2.038-.075-2.874.1-.15.468-.635.51-.686.232-.29.65-.493.713-.86.037-.213-.279-.453-.493-.421-.246.036-.325.378-.489.566v-.002l-.309.378c-.23.286-.36 1.02-.69.858-.45-.22-.304-.957-.478-1.428-.098-.263-.08-.658-.336-.77-.205-.09-.406.212-.546.385-.044.054.053.127.079.191l.16.397.03.072c.077.188.158.375.234.563.07.171.136.344.203.516.076.197.197.58.23.68.01.029.017.058.024.087.047.2.334.674.139.604-.631-.224-1.101-.762-1.652-1.142v.002c-.03-.019-.08-.094-.087-.06-.046.245-.093.502-.043.745.018.089.152.099.228.149.252.166.646.42.87.608.802.676 1.828 1.37 1.455 2.74-.092.337-.53-.457-.795-.685a45.302 45.302 0 0 0-.997-.829l-.17-.133c-.056-.045-.11-.092-.168-.135-.002-.001.001.008 0 .007-.147-.108-.322-.468-.436-.327-.519.64.035.873.354 1.11.184.137.38.259.548.416.67.629 1.537 1.122 1.958 1.939.485.938.517 2.053.645 3.1.02.162-.205-.253-.31-.378-.042-.049-.086-.096-.13-.144-.067-.074-.133-.15-.202-.224-.063-.067-.128-.131-.193-.197-.052-.054-.103-.108-.157-.16a48.66 48.66 0 0 0-.363-.35c-.084-.078-.17-.154-.254-.231l-.122-.11a39.713 39.713 0 0 0-.574-.499l-.237-.198-.036-.03-.256-.212.001.002c-.035-.028-.07-.056-.104-.086-.152-.133-.333-.563-.454-.402-.538.718.385 1.188.72 1.473.367.313.729.633 1.092.95.016.013.03.028.045.043.073.07.146.142.218.214.073.072.23.241.264.276.063.069.238.272.255.292l.048.06.321.434c.09.122.102.15.187.293.034.058.07.115.102.174.032.057.06.116.09.174.084.17.103.205.17.374.04.099.113.289.147.398.025.08.094.322.116.423.021.098.04.198.059.297.026.138.117.634.078.63-.204-.02-.228-.34-.347-.506-.05-.07-.104-.134-.156-.2-.077-.1-.15-.2-.229-.296-.069-.085-.141-.166-.212-.25-.066-.077-.131-.156-.2-.233-.084-.095-.17-.187-.257-.28-.058-.064-.116-.128-.175-.19l-.298-.302c-.187-.19-.255-.252-.481-.47-.04-.04-.08-.078-.122-.117-.117-.11-.235-.218-.353-.327-.035-.033-.07-.066-.107-.098-.114-.104-.23-.206-.345-.31l-.06-.055-.203-.178c-.063-.057-.175-.26-.186-.175-.042.326-.042.678.082.983.002.005.519.448.661.577.022.02.592.543.63.58.109.105.214.215.321.323.09.09.182.177.267.27.185.204.391.392.54.623.5.768 1.137 1.486 1.398 2.364.33 1.113.327 2.306.332 3.467.001.192-.21-.322-.318-.48-.067-.098-.14-.193-.21-.29-.043-.06-.085-.12-.13-.178-.082-.107-.166-.212-.25-.317l-.11-.139-.27-.322c-.035-.04-.068-.081-.103-.12-.094-.108-.19-.214-.284-.32-.035-.04-.069-.08-.104-.118-.095-.104-.192-.207-.288-.31l-.11-.115-.281-.297-.135-.14a66.604 66.604 0 0 0-.237-.245l-.068-.068c-.072-.075-.146-.149-.217-.224-.25-.263-.47-.555-.746-.79-.041-.036.007.108.01.163.017.29-.094.618.051.87.277.478.765.798 1.147 1.198v.003l.461.5.016.017.392.451.099.12.313.39c.158.2.418.542.506.69.34.571.824 1.095.971 1.744.178.784.676 2.805-.027 2.413-1.419-.793-1.857-2.669-2.8-3.993-.054-.074-.125-.133-.188-.199 0 0 0 .001 0 0-.224-.182-.448-.733-.67-.548-.26.216.033.68.12 1.007.025.097.138.145.206.218v.002l.378.4.157.172.295.322c.09.1.382.437.446.513.077.092.369.455.429.534.068.09.132.181.197.272.068.096.139.19.204.288.068.101.132.206.197.31.058.092.117.182.17.277.072.126.136.255.203.384.178.34.238.456.4.903.05.138.134.429.17.623.027.147.052.295.077.442.07.408.092 1.284.092 1.327-.01 1.782-.098 3.563-.115 5.346-.002.146.047.289.058.435.204 2.744.574 5.482.587 8.234.003.544-.25-1.084-.556-1.534-.158-.231.088.557.082.838-.008.341-.274.711-.123 1.018.19.387.616.644 1.019.797.155.06.44-.076.436-.243-.11-4.794-.524-9.576-.77-14.364-.019-.375-.019-.751-.026-1.126 0-.027.001-.055.004-.081.012-.113-.011-.237.04-.338.384-.759.625-1.03 1.096-1.605.027-.033.054-.065.082-.096.135-.148.27-.297.407-.443.092-.099.245-.161.283-.29.104-.357.47-1.245.126-1.107-.674.269-.961 1.086-1.44 1.63-.059.067-.115.135-.173.201l-.106.122c-.086.096-.137.325-.26.286-.121-.038-.03-.254-.04-.381-.004-.04-.002-.08-.002-.12.001-.08.002-.162.007-.243.005-.094.04-.28.054-.351.03-.16.049-.19.113-.391.002-.007.003-.015.007-.022.042-.096.085-.191.13-.285a7.124 7.124 0 0 1 .16-.27 3.924 3.924 0 0 1 .381-.49c.399-.363.805-.718 1.21-1.075.018-.016.056-.019.059-.043.03-.29.222-.648.038-.873-.123-.15-.315.228-.462.356-.353.31-.691.636-1.036.954z"/></g><g opacity=".2"><path d="M135.327 30.012a74.586 74.586 0 0 0-.227.232l-.036.038-.177.187c-.058.063-.214.249-.215.239-.104-.653-.21-1.329-.102-1.98.096-.575.447-1.076.699-1.6.099-.207.232-.395.351-.59.037-.06.079-.117.118-.175.208-.3.213-.315.41-.566.162-.205.24-.3.414-.496.09-.103.245-.171.275-.305.06-.273.225-.707-.022-.839-.224-.119-.351.365-.527.547 0 0 0-.001 0 0l-.064.068c-.22.24-.338.36-.512.569-.122.145-.243.29-.364.437a2.213 2.213 0 0 0-.08.103 42.11 42.11 0 0 0-.381.533c-.125.177-.415.72-.423.704-.57-1.199.064-1.96.65-2.9.057-.09.44-.527.564-.647.35-.337.815-.58 1.06-.999.124-.214.187-.83-.044-.741-.6.23-.948.866-1.42 1.3l-.054.057c-.094.1-.19.2-.283.302-.123.134-.199.233-.324.389-.032.039-.064.077-.093.117-.093.131-.235.553-.273.397-.231-.95-.451-1.94-.34-2.91.057-.489.538-.823.819-1.226.12-.172.255-.333.383-.498l.057-.072c.214-.263.232-.296.365-.445.263-.295.645-.518.79-.886.1-.255.107-.665-.124-.811-.177-.113-.284.31-.426.463v-.001l-.076.082-.288.32c-.144.16-.47.527-.628.713-.127.151-.252.304-.377.456-.07.086-.142.17-.208.257-.178.237-.4.988-.523.718-.442-.977-.536-2.092-.584-3.164-.012-.259.274-.44.412-.66.021-.032.043-.064.066-.094l.458-.61a.945.945 0 0 1 .047-.057l1.071-1.2c.157-.166.421-.275.474-.498.059-.252.079-.753-.18-.756-.346-.005-.48.497-.72.745l-.002-.002-.092.1-.274.297c-.056.06-.112.12-.167.182-.151.172-.306.342-.451.52-.298.364-.44 1.27-.88 1.103-.49-.187-.378-1.03-.291-1.549.086-.517 1.197-1.757 1.538-2.168v-.003c.272-.283.678-.481.815-.849.078-.208-.18-.405-.271-.607-.005-.01-.008-.04-.016-.031-.21.21-.402.435-.606.651-.001.002 0-.007-.002-.006-.032.034-.06.07-.091.106-.05.057-.102.114-.15.172-.214.253-.424.508-.637.762-.292.347-.524 1.326-.879 1.042-1.418-1.135-.633-2.038-.075-2.874.1-.15.468-.635.51-.686.232-.29.65-.493.713-.86.037-.213-.279-.453-.493-.421-.246.036-.325.378-.489.566v-.002l-.309.378c-.23.286-.36 1.02-.69.858-.45-.22-.304-.957-.478-1.428-.098-.263-.08-.658-.336-.77-.205-.09-.406.212-.546.385-.044.054.053.127.079.191l.16.397.03.072c.077.188.158.375.234.563.07.171.136.344.203.516.076.197.197.58.23.68.01.029.017.058.024.087.047.2.334.674.139.604-.631-.224-1.101-.762-1.652-1.142v.002c-.03-.019-.08-.094-.087-.06-.046.245-.093.502-.043.745.018.089.152.099.228.149.252.166.646.42.87.608.802.676 1.828 1.37 1.455 2.74-.092.337-.53-.457-.795-.685a45.302 45.302 0 0 0-.997-.829l-.17-.133c-.056-.045-.11-.092-.168-.135-.002-.001.001.008 0 .007-.147-.108-.322-.468-.436-.327-.519.64.035.873.354 1.11.184.137.38.259.548.416.67.629 1.537 1.122 1.958 1.939.485.938.517 2.053.645 3.1.02.162-.205-.253-.31-.378-.042-.049-.086-.096-.13-.144-.067-.074-.133-.15-.202-.224-.063-.067-.128-.131-.193-.197-.052-.054-.103-.108-.157-.16a48.66 48.66 0 0 0-.363-.35c-.084-.078-.17-.154-.254-.231l-.122-.11a39.713 39.713 0 0 0-.574-.499l-.237-.198-.036-.03-.256-.212.001.002c-.035-.028-.07-.056-.104-.086-.152-.133-.333-.563-.454-.402-.538.718.385 1.188.72 1.473.367.313.729.633 1.092.95.016.013.03.028.045.043.073.07.146.142.218.214.073.072.23.241.264.276.063.069.238.272.255.292l.048.06.321.434c.09.122.102.15.187.293.034.058.07.115.102.174.032.057.06.116.09.174.084.17.103.205.17.374.04.099.113.289.147.398.025.08.094.322.116.423.021.098.04.198.059.297.026.138.117.634.078.63-.204-.02-.228-.34-.347-.506-.05-.07-.104-.134-.156-.2-.077-.1-.15-.2-.229-.296-.069-.085-.141-.166-.212-.25-.066-.077-.131-.156-.2-.233-.084-.095-.17-.187-.257-.28-.058-.064-.116-.128-.175-.19l-.298-.302c-.187-.19-.255-.252-.481-.47-.04-.04-.08-.078-.122-.117-.117-.11-.235-.218-.353-.327-.035-.033-.07-.066-.107-.098-.114-.104-.23-.206-.345-.31l-.06-.055-.203-.178c-.063-.057-.175-.26-.186-.175-.042.326-.042.678.082.983.002.005.519.448.661.577.022.02.592.543.63.58.109.105.214.215.321.323.09.09.182.177.267.27.185.204.391.392.54.623.5.768 1.137 1.486 1.398 2.364.33 1.113.327 2.306.332 3.467.001.192-.21-.322-.318-.48-.067-.098-.14-.193-.21-.29-.043-.06-.085-.12-.13-.178-.082-.107-.166-.212-.25-.317l-.11-.139-.27-.322c-.035-.04-.068-.081-.103-.12-.094-.108-.19-.214-.284-.32-.035-.04-.069-.08-.104-.118-.095-.104-.192-.207-.288-.31l-.11-.115-.281-.297-.135-.14a66.604 66.604 0 0 0-.237-.245l-.068-.068c-.072-.075-.146-.149-.217-.224-.25-.263-.47-.555-.746-.79-.041-.036.007.108.01.163.017.29-.094.618.051.87.277.478.765.798 1.147 1.198v.003l.461.5.016.017.392.451.099.12.313.39c.158.2.418.542.506.69.34.571.824 1.095.971 1.744.178.784.676 2.805-.027 2.413-1.419-.793-1.857-2.669-2.8-3.993-.054-.074-.125-.133-.188-.199 0 0 0 .001 0 0-.224-.182-.448-.733-.67-.548-.26.216.033.68.12 1.007.025.097.138.145.206.218v.002l.378.4.157.172.295.322c.09.1.382.437.446.513.077.092.369.455.429.534.068.09.132.181.197.272.068.096.139.19.204.288.068.101.132.206.197.31.058.092.117.182.17.277.072.126.136.255.203.384.178.34.238.456.4.903.05.138.134.429.17.623.027.147.052.295.077.442.07.408.092 1.284.092 1.327-.01 1.782-.098 3.563-.115 5.346-.002.146.047.289.058.435.204 2.744.574 5.482.587 8.234.003.544-.25-1.084-.556-1.534-.158-.231.088.557.082.838-.008.341-.274.711-.123 1.018.19.387.616.644 1.019.797.155.06.44-.076.436-.243-.11-4.794-.524-9.576-.77-14.364-.019-.375-.019-.751-.026-1.126 0-.027.001-.055.004-.081.012-.113-.011-.237.04-.338.384-.759.625-1.03 1.096-1.605.027-.033.054-.065.082-.096.135-.148.27-.297.407-.443.092-.099.245-.161.283-.29.104-.357.47-1.245.126-1.107-.674.269-.961 1.086-1.44 1.63-.059.067-.115.135-.173.201l-.106.122c-.086.096-.137.325-.26.286-.121-.038-.03-.254-.04-.381-.004-.04-.002-.08-.002-.12.001-.08.002-.162.007-.243.005-.094.04-.28.054-.351.03-.16.049-.19.113-.391.002-.007.003-.015.007-.022.042-.096.085-.191.13-.285a7.124 7.124 0 0 1 .16-.27 3.924 3.924 0 0 1 .381-.49c.399-.363.805-.718 1.21-1.075.018-.016.056-.019.059-.043.03-.29.222-.648.038-.873-.123-.15-.315.228-.462.356-.353.31-.691.636-1.036.954z"/></g></g></g></g><g><g><g><path fill="#ff5000" d="M146.525 49.673c-.025-.715-.003-1.679-.448-1.929-.162-.091-.48-.126-.844-.139v-.004l-.241-.001h-.006l-16.076-.179v.002a6.845 6.845 0 0 0-.89.028c-.922.1-.88.83-.865 1.818.016.875-.11 1.887.398 2.21.421.267 1.5.204 1.5.204.27 3.298.663 6.665.967 10.051.09 1.001.102 2.724.574 3.147.449.401 11.928.569 12.383.185.305-.256.321-.772.39-1.45a976.75 976.75 0 0 1 1.304-11.807c.639-.027 1.132.04 1.458-.17.437-.285.418-1.292.396-1.966z"/></g><g opacity=".2"><path d="M144.668 51.807l-15.531.893-.087-1.02z"/></g></g><g><g><path fill="#fff" d="M141.589 58.077c-.378.604-.39 1.804-.334 2.985.025.504.08 1.322.534 1.351.545.035.632-.903.661-1.238.094-1.061-.007-2.364-.264-3.041-.12-.117-.42-.134-.597-.057z"/></g><g><path fill="#fff" d="M140.106 61.053c-1.11-.29-1.326 2.21-.373 2.186.412-.009.968-1.18.817-1.781-.055-.217-.251-.354-.444-.404z"/></g></g></g></g></g><g><g><g><path fill="#ff5000" d="M95.14 75.928c.483.483 1.217.574 1.813.815 1.75.709 3.633 1.497 5.501 2.263 2.43.994 4.858 2.112 7.377 2.898 5.109 1.596 10.067 3.65 14.764 5.879.685-.577.868-1.464 1.28-2.21.413-.74.882-1.455 1.283-2.211 2.343-4.418 5.165-8.73 7.424-13.317-4.307-2.139-9.105-3.434-13.884-4.955-2.347-.75-4.738-1.498-7.125-2.242-2.507-.78-4.979-1.548-7.54-2.108-3.69 5.016-7.394 10.023-10.893 15.188z"/></g><g><path fill="#fff" d="M96.96 75.369c3.48.535 6.522 1.928 9.283 3.785.757.51 1.527 1.464 2.167 1.63.767.2 1.668-.022 2.408.059 4.361.464 8.768 2.406 11.874 4.678.221.16.385.574.748.511 1.478-3.004 3.207-5.795 5.081-8.494 1.886-2.714 3.291-5.696 4.987-8.569-1.78-1.559-3.882-2.771-6.105-3.736-2.284-.988-4.893-1.437-8.19-1.083-.68-.557-1.24-1.13-1.914-1.66-.658-.52-1.295-.968-2.209-1.282-1.697-.58-4.011-.977-5.943-.923-.429.01-1.027.026-1.351.16-.437.176-1.069 1.225-1.503 1.808-2.767 3.709-5.419 7.426-8.107 11.169-.442.613-1.162 1.127-1.226 1.947z"/></g><g><g><path fill="#4d3d87" d="M118.641 64.39c-.1-.002-.148.037-.16.104-2.682 3.829-5.12 7.981-7.67 11.975-.628.983-1.327 1.92-1.96 2.977-.183.302-.586.653-.304 1.066.468-.086.539-.625.746-.947 3.102-4.855 6.42-9.902 9.558-14.858.033-.238-.188-.15-.21-.317z"/></g><g><g><path fill="#4d3d87" d="M104.62 67.686c.5.485 1.781.857 2.575.725"/></g><g><path fill="#4d3d87" d="M103 69.932c.128.61.943.56 1.37.694.966.303 1.858.684 2.792 1.128.402.188.958.592 1.414.344-.663-.685-1.704-1.042-2.654-1.398-.924-.346-1.94-.865-2.922-.768z"/></g><g><path fill="#4d3d87" d="M100.616 72.186c-.075.502.573.432.83.5 2.24.595 4.326 1.447 6.367 2.333.288.125.665.332.972.228.174-.447-.464-.5-.675-.606-.865-.446-1.872-.878-2.894-1.286a26.987 26.987 0 0 0-4.273-1.295c-.132.024-.325-.002-.327.126z"/></g><g><path fill="#fff" d="M99.69 73.838c.124.57.828.455 1.18.546 2.313.586 4.818 1.825 6.72 3.147.317.218.64.614 1.097.558-.08-.72-1.083-1.127-1.724-1.513-1.97-1.18-4.465-2.362-6.943-2.865-.182-.013-.22.086-.33.127z"/></g></g><g><g><path fill="#4d3d87" d="M118.78 67.031c.285.537.982.431 1.433.515 2.957.566 6.06 1.756 8.442 3.2.358.217.68.738 1.18.548-.478-.746-1.414-1.197-2.25-1.62-1.66-.843-3.382-1.623-5.322-2.2-1.122-.331-2.386-.613-3.483-.443z"/></g><g><path fill="#4d3d87" d="M116.624 69.778c.114.645.978.438 1.434.515 3.197.53 6.463 1.75 9.043 3.214.385.22.859.611 1.349.526-.018-.514-.69-.69-1.05-.906-2.803-1.668-6.726-2.883-10.362-3.487.035.007-.468-.016-.414.138z"/></g><g><path fill="#4d3d87" d="M115.57 72.467c.397.491 1.103.324 1.594.41 3.116.56 6.202 2.077 8.66 3.605.422.259.845.646 1.37.696.063-.559-.596-.764-.976-1-2.108-1.31-4.24-2.36-6.984-3.201-1.066-.328-2.263-.81-3.177-.74-.122.01-.442-.028-.487.23z"/></g><g><path fill="#4d3d87" d="M113.77 75.34c.409.487 1.073.264 1.581.326 3.1.37 6.052 1.64 8.507 3.022.362.204.861.582 1.33.355-.154-.5-.727-.578-1.126-.81-2.8-1.612-5.958-2.85-9.974-3.103-.196-.001-.316.058-.318.21z"/></g><g><path fill="#4d3d87" d="M112.51 77.726c.138.52.99.33 1.51.421 2.98.53 5.78 1.69 8.018 3.252.365.254.8.593 1.275.619-.012-.469-.526-.826-.902-1.094-1.774-1.263-3.993-2.163-6.417-2.755-1.17-.286-2.314-.713-3.484-.443z"/></g></g></g></g><g><g><g><g><g><g><g><path fill="#f7c4ad" d="M74.223 130.762c-3.239-1.12-6.91-3.131-9.914-3.662-1.172 3.298-1.875 6.387-2.8 9.965-.377 1.46-.871 3.158-1.218 5.016-.3 1.613-.76 4.074-.346 5.396.43 1.384 1.542 2.846 2.485 4.163 1.742 2.426 3.456 4.732 5.598 6.598.896.78 2.388 1.946 3.078 1.365 1.006-.842-.366-3.704-.915-5.21-.934-2.558-1.677-4.691-1.437-6.728.164-1.416.758-2.867 1.238-4.303 1.413-4.23 3.015-8.406 4.231-12.6z"/></g><g><path fill="#892" d="M59.945 147.477c-.414-1.321.045-3.783.346-5.396.315-1.697.759-3.26 1.117-4.631l9.833 2.278c-.422 1.209-.842 2.42-1.25 3.634-.479 1.436-1.073 2.887-1.237 4.303-.24 2.037.503 4.17 1.437 6.728.55 1.506 1.921 4.368.915 5.21-.69.581-2.182-.586-3.078-1.365-2.141-1.866-3.856-4.172-5.598-6.598-.943-1.317-2.055-2.78-2.485-4.163z"/></g></g><g><g><path fill="#fff" d="M64.441 151.416c.153-.327-.062-.609-.252-.88-.147-.209-.357-.457-.6-.456-.342.007-.325.552-.185.844.045.095.207.303.301.408.194.22.57.444.736.084z"/></g><g><path fill="#fff" d="M63.869 148.517c.18-.437-.098-.773-.357-1.032-.335-.335-.852-.712-1.29-1.012-.537-.369-1.534-.678-1.705.103-.179.82 1.126 1.521 1.785 1.904.482.277 1.307.664 1.567.037z"/></g></g></g><g><g><path fill="#ff5000" d="M34.94 92.551c.33-.057.47.105.422.484 3.195-.684 13.88.557 17.414.684 3.399.124 6.884.167 10.127.605 6.388.867 14.053 2.266 16.773 7.265 2.845 5.234.854 13.373-.632 19.01-1.662 6.3-3.492 11.684-5.381 16.83-5.134-.282-9.394-1.57-13.292-3.268 1.683-7.15 3.418-14.239 5.591-20.827-4.927-.259-18.168-1.625-23.32-2.742-6.015-1.303-10.462-3.753-9.917-11.867.143-2.14 1.048-4.556 1.9-5.932a.733.733 0 0 1 .315-.242z"/></g></g></g><g><g><g><g><path fill="#f7c4ad" d="M92.735 129.786c-3.345-.583-7.226-1.979-10.267-2.016-.754 3.455-1.069 6.626-1.544 10.32-.192 1.505-.474 3.265-.589 5.161-.099 1.647-.25 4.157.321 5.399.596 1.3 1.877 2.567 2.974 3.718 2.022 2.119 4.004 4.124 6.354 5.624.983.626 2.604 1.54 3.214.852.892-.997-.817-3.609-1.546-5.01-1.241-2.38-2.239-4.372-2.251-6.426-.012-1.43.397-2.961.695-4.462.88-4.415 1.95-8.81 2.64-13.16z"/></g><g><path fill="#892" d="M80.656 148.655c-.571-1.243-.42-3.752-.321-5.399.104-1.731.35-3.35.537-4.766l10.015.66c-.27 1.266-.536 2.535-.79 3.801-.299 1.5-.708 3.032-.696 4.461.012 2.055 1.01 4.048 2.251 6.427.73 1.401 2.439 4.012 1.546 5.01-.61.688-2.231-.227-3.213-.852-2.35-1.5-4.333-3.506-6.355-5.625-1.097-1.15-2.378-2.418-2.974-3.717z"/></g></g><g><g><path fill="#fff" d="M85.6 151.82c.11-.348-.137-.592-.359-.83-.17-.183-.409-.395-.649-.355-.338.064-.254.6-.08.866.057.085.243.268.348.355.22.186.62.346.74-.035z"/></g><g><path fill="#fff" d="M84.671 149.047c.125-.462-.192-.75-.48-.964-.372-.275-.932-.566-1.403-.792-.576-.28-1.601-.423-1.675.378-.075.841 1.304 1.323 2.001 1.595.513.196 1.378.447 1.557-.217z"/></g></g></g><g><g><g><path fill="#ff5000" d="M61.5 93.601c.33-.057.47.105.422.483 3.194-.684 6.698-.49 10.233-.363 3.4.124 6.885.167 10.128.606 6.387.866 14.052 2.265 16.771 7.265 2.846 5.233.855 13.372-.632 19.009-1.66 6.3-3.491 11.684-5.38 16.83-5.134-.282-9.393-1.57-13.292-3.268 1.682-7.15 3.419-14.239 5.591-20.826-4.928-.26-10.986-.578-16.14-1.695-6.013-1.303-10.46-3.755-9.916-11.867.144-2.14 1.048-4.558 1.898-5.933a.76.76 0 0 1 .316-.241z"/></g><g opacity=".2"><path d="M85.338 113.337s1.904-4.126 1.432-4.532c-.66-.567-3.71 4.41-3.71 4.41z"/></g></g><g><g><path fill="#fff" d="M94.98 102.921c.448-1.84 3.662 1.461 2.14 2.163"/></g><g><path fill="#fff" d="M94.233 99.701c.155.364.3 1.204-.359 1.504-.86.395-2.326-.918-2.993-1.312-.812-.479-2.527-.96-2.57-2.14-.062-1.68 2.384-.497 3.21-.05.439.238.849.52 1.213.741.62.382 1.202.558 1.5 1.257z"/></g></g></g></g></g><g><g><g><g><g><g><path fill="#f7c4ad" d="M56.98 45.387s.42 5.97.309 6.444c-.255 1.027-2.305 1.88-4.66 1.866-1.348-.008-3.966-1.708-4.594-2.867-.309-1.418-1.04-7.241-1.19-7.61-.195-.494-.857-.958-1.3-1.407-1.455-1.46-2.91-3.454-2.992-6.793-.117-4.67 3.208-8.803 8.65-8.919 1.428-.03 3.366.439 4.687 1.162 1.877 1.027 2.741 3.466 3.437 5.858 1.49 5.096 2.954 11.145-2.346 12.266z"/></g><g><g><g><g><path fill="#fff" d="M53.43 33.807c.776.47 1.444.602 2 .557 1.188-.408 1.541-1.145 1.541-1.145s-.262-.244-1.261-.539a3.97 3.97 0 0 0-.428.022c-1.044.113-1.852 1.105-1.852 1.105z"/></g><g><path fill="#4d3d87" d="M57.404 33.196s-.668 1.06-1.976 1.168c-.066-.088-.208-.259-.238-.366-.159-.481.071-1.01.517-1.318 1.124.006 1.697.516 1.697.516z"/></g></g><g><path fill="#4d3d87" d="M52.635 33.224l-.555-.358c1.186-1.874 3.53-2.303 4.817-2.014l-.15.649c-.826-.186-3.01-.019-4.112 1.723z"/></g></g><g><g><path fill="#f7c4ad" d="M60.285 37.277c-1.433-.426-2.993-5.71-1.579-5.605.745.055 1.225 1.178 2.053 2.048.578.615 1.861 1.409 1.89 2.173.028.726-1.208 1.4-2.364 1.384z"/></g><g opacity=".13"><path d="M60.285 37.277c-1.433-.426-2.993-5.71-1.579-5.605.745.055 1.225 1.178 2.053 2.048.578.615 1.861 1.409 1.89 2.173.028.726-1.208 1.4-2.364 1.384z"/></g><g opacity=".13"><path d="M52.554 37.25a1.704 1.704 0 0 0 2.014 1.332 1.705 1.705 0 0 0 1.335-2.012 1.711 1.711 0 0 0-2.011-1.336 1.712 1.712 0 0 0-1.338 2.017z"/></g></g></g></g><g><g><path fill="#fff" d="M53.993 40.211c-.104 1.654 2.184 2.63 4.195 1.98.723-.238 1.834-1.039 1.774-1.889-.117-1.487-1.431-1.01-2.643-.854-1.177.152-3.236-.623-3.326.763z"/></g><g opacity=".2"><path d="M56.975 45.386c-2.749.446-5.015-.766-5.015-.766s1.735 3.583 5.187 3.432z"/></g></g></g><g><path fill="#4d3d87" d="M54.53 25.981c1.113-.636 4.377-1.91 4.241-2.913-.26-2-5.724.103-8.624.935-2.723.784-5.82 1.573-7.749 3.025-1.487 1.124-2.779 3.567-2.737 6.103.05 3.116 3.297 9.732 5.876 10.916.946.435 2.175.959 2.913.004 1.053-1.366-3.147-2.84-2.524-6.542.208-1.228.777-1.885 1.66-1.749 1.145.174 1.578 2.092 2.177 3.253 1.179 2.263 1.809.247 1.912-2.125.047-.92.088-1.977.106-2.995.02-1.081-.19-2.37.272-3.09.512-.802 2.196-.896 3.26-1.1 2.375-.46 4.588-.835 6.853-1.49.995-.29 3.167-.567 2.924-1.806-.296-1.534-3.65-1.107-5.358-1.071-1.842.037-3.637.311-5.201.645z"/></g></g><g><g><path fill="#fff" d="M42.72 30.31c-1.075.26-.448-2.535.399-1.852"/></g><g><path fill="#fff" d="M41.335 31.647c.132-.19.51-.514.876-.217.477.388.29 1.608.308 2.105.02.606.333 1.736-.248 2.095-.828.51-1.023-1.24-1.066-1.847-.021-.32-.012-.638-.018-.911-.01-.467-.11-.855.148-1.225z"/></g></g></g><g><g><g><path fill="#f7c4ad" d="M28.034 64.34s-11.68 17.448-5.254 21.249c6.038 3.57 13.276-16.494 13.276-16.494z"/></g><g><path fill="#892" d="M38.533 75.18c-5.187-1.795-10.178-3.887-14.323-7.272 1.611-3.003 3.745-5.904 6.399-8.648 2.54-2.625 5.573-5.487 9.785-6.333 3.415-.685 6.164 1.225 5.91 5.134-.098 1.499-.697 3.27-1.273 4.787-1.561 4.12-4.219 9.078-6.498 12.332z"/></g></g><g><path fill="#892" d="M72.286 97.373c-9.978 5.891-27.198 10.05-41.352 6.322-1.072-18.916-1.372-39.161 7.069-47.56 2.691-2.68 7.455-4.27 12.13-4.665 4.1-.349 7.525.472 10.022 1.943 5.528 3.254 7.088 10.893 8.229 19.698 1.103 8.51 2.132 17.087 3.902 24.262z"/></g><g><g><path fill="#892" d="M62.388 53.756c.702-2.245-15.786-8.596-17.4-7.03-1.082 1.051-3.016 4.506-2.368 5.704 2.004 3.712 19.37 2.6 19.768 1.326z"/></g><g opacity=".2"><path d="M62.388 53.756c.702-2.245-15.786-8.596-17.4-7.03-1.082 1.051-3.016 4.506-2.368 5.704 2.004 3.712 19.37 2.6 19.768 1.326z"/></g></g><g><g><g><path fill="#892" d="M104.539 50.824c-.065-.017-.45-.074-.68-.023-.307.07-.634.258-.923.433-.272.164-.543.353-.826.546-.26.174-.537.334-.804.571-.433.39-.742.918-.4 1.573.101.195.258.364.355.55.106.206.184.427.27.622.442 1.005 1.04 2.1 1.492 2.994 1.189 2.352 2.4 4.71 3.722 7.037.424.745.928 1.45 1.419 2.175.7 1.026 1.452 2.133 2.378 3.081.286.294.712.74 1.158.687.667-.08.658-1.665.601-2.53-.055-.834-.112-1.95-.277-2.748-.174-.84-.507-1.512-.836-2.264-1.263-2.9-2.62-5.716-4.04-8.45-.177-.342-.34-.695-.53-1.034-.182-.328-.4-.645-.56-.985-.181-.385-.351-.834-.566-1.248-.217-.417-.403-.844-.953-.987z"/></g><g><path fill="#fff" d="M104.188 55.02c-.259.225.017.526.107.718.766 1.626 1.639 3.242 2.49 4.82.858 1.595 1.687 3.188 2.544 4.802.109.203.205.522.485.559.125-.262-.032-.556-.128-.796-.66-1.688-1.463-3.236-2.303-4.863a60.77 60.77 0 0 0-2.21-3.962c-.109-.176-.256-.395-.401-.633-.17-.281-.268-.62-.584-.645z"/></g><g><path fill="#efad1b" d="M101.261 54.475c-.097-.187-.253-.356-.354-.551-.343-.655-.034-1.183.4-1.573.266-.237.544-.397.803-.571.284-.193.554-.382.826-.546.29-.175.616-.363.923-.433.23-.051.615.006.68.023.55.143.736.57.953.987.18.346.33.714.478 1.051l-.002.007c-.08.105-.239.246-.368.367-.244.232-.6.453-.941.695-.319.221-.657.45-1.017.635-.597.304-1.316.611-2.052.661a23.88 23.88 0 0 1-.06-.13c-.085-.196-.163-.417-.269-.622z"/></g><g><path fill="#efad1b" d="M110.267 66.588c.218-.44.163-1.198.714-1.156.329.024.725.293 1.066.452.152.791.207 1.855.26 2.66.057.864.066 2.45-.601 2.53-.446.052-.872-.394-1.158-.688-.926-.948-1.678-2.055-2.378-3.08-.045-.072-.093-.138-.14-.208.067-.223.15-.427.275-.572.463-.544 1.242-.084 1.962.062z"/></g><g><path fill="#4d3d87" d="M110.68 69.612c.547-.213 1.103-.402 1.647-.622.024.874-.056 2.016-.62 2.083-.447.053-.873-.393-1.159-.687-.16-.165-.315-.336-.468-.51.198-.094.398-.183.6-.264z"/></g></g><g><g><g><g><path fill="#f7c4ad" d="M77.735 67.01l5.377 6.518c5.85-5.416 14.218-9.988 18.364-13.324 1.587-1.276 2.748-1.378 4.606-1.12.609.087 1.739.528 1.792 1.346.04.59-1.443 2.388-2.222 3.348-1.008 1.242-1.958 2.26-2.902 3.37-3.867 4.554-8.038 8.926-11.863 13.4-.952 1.111-2.082 2.108-3.17 3.038-1.05.896-2.206 1.846-3.232 2.4-1.533.83-3.622 1.23-5.128.551-.726-.328-1.821-1.131-2.485-1.747-1.592-1.478-7.622-8.765-7.912-9.52z"/></g><g opacity=".13"><path d="M79.549 77.513c.657.722 3.716-4.13 3.56-3.986l-1.193-1.447c-.261.284-3.094 4.634-2.367 5.433z"/></g></g><g><path fill="#f7c4ad" d="M107.226 60.355c.612-.093 2.593-.799 3.61-.793.393.003.858.122.932.462.16.723-1.454 1.136-1.997 1.356-.938.385-1.57.711-2.38 1.014.716-.013 2.634-.707 3.881-.768.52-.022 1.123.045 1.202.49.1.566-1.189 1.057-1.616 1.234-2.056.861-4.994 1.673-6.485 2.687-2.042 1.39-5.558 5.603-5.558 5.603-.664-.421-5.465-5.833-5.465-5.833 2.773-1.719 3.695-3.396 4.308-4.45.535-.916 1.094-1.875 1.595-2.762.471-.84 2.007-3.607 3.16-3.13.948.395-.86 2.894-1.02 3.682 1.077-.87 3.04-1.993 5.271-2.635.584-.167 1.797-.583 2.047-.098.345.659-.608 1.026-1.01 1.279-.557.35-.936.663-1.468.88.844-.09 2.61-.768 3.62-.73.33.01.721.151.79.416.162.612-.818.858-1.427 1.14-.833.387-1.345.695-1.925.949-.02.001-.043.005-.065.007z"/></g></g><g><path fill="#892" d="M79.665 65.169c-2.809 4.716-5.87 9.18-10.021 12.553-2.617-2.185-5.025-4.862-7.174-8.017-2.055-3.02-4.245-6.569-4.22-10.865.021-3.486 2.448-5.79 6.225-4.748 1.449.4 3.061 1.346 4.43 2.215 3.719 2.365 8.034 5.971 10.76 8.862z"/></g><g opacity=".2"><path d="M69.646 77.726c-2.616-2.185-5.024-4.863-7.174-8.018-2.055-3.02-4.055-8.131-4.03-12.428 0 0-2.591 6.015 2.042 12.48 4.437 6.193 9.162 7.966 9.162 7.966z"/></g></g><g><g><path fill="#fff" d="M62.37 56.069c.511.678 1.841 1.206 3.18 1.644.572.187 1.505.475 1.73-.016.271-.593-.735-1.089-1.095-1.266-1.143-.556-2.633-1-3.496-1.001-.182.083-.329.408-.319.639z"/></g><g><path fill="#fff" d="M65.046 58.978c-.796 1.112 1.898 2.417 2.275 1.347.164-.465-.902-1.582-1.636-1.671-.264-.03-.5.13-.639.324z"/></g><g><path fill="#fff" d="M72.483 61.211c-.324.362-.016.997.5 1.473.414.385 1.386.93 1.652.337.12-.261-.057-.802-.478-1.21-.49-.478-1.26-1.068-1.674-.6z"/></g></g></g><g><g opacity=".2"><path d="M38.002 55.246c1.2-.972 2.814-1.768 4.646-2.38a6.263 6.263 0 0 0-2.255.058c-4.213.845-11.811 7.925-9.567 19.136.795-7.187 2.82-13.286 7.176-16.814z"/></g><g><g><path fill="#fff" d="M34.422 61.797c-.892-.944-2.064 2.206-.793 2.077"/></g><g><path fill="#fff" d="M33.92 59.582c.009.274.175.832.725.774.717-.077 1.312-1.398 1.648-1.877.407-.582 1.44-1.496 1.095-2.22-.488-1.032-1.802.568-2.23 1.137-.226.301-.42.62-.6.886-.308.455-.653.771-.638 1.3z"/></g></g></g></g></g></g><g><g><path fill="#4d3d87" d="M86.282 163.302h-2.494c-.574-1.703-1.13-3.343-1.587-4.738-3.752-11.418-7.708-23.463-11.344-34.057-5.904-.414-12.499-.733-18.445-.658 1.194 12.946 2.529 26.435 3.794 39.453H53.77a7180.852 7180.852 0 0 0-4.911-33.668c-.295-1.99-.335-4.02-.917-5.916-6.951-.13-14.46-.324-20.963-.527-1.883 12.684-3.945 25.943-5.845 38.529-.08.523-.131 1.057-.184 1.582h-2.627c.088-.715.207-1.423.289-2.108 1.538-12.643 2.995-25.517 4.47-38.135-.943.116-1.565-.135-1.948-.657-.31-5.192-.792-12.117 4.008-12.228-3.07-8.355-7.5-18.557-10.194-28.273-.911-3.288-2.205-7.435-1.834-11.31.474-4.93 4.46-5.988 9.394-5.655 5.707.384 10.493 1.837 13.863 4.866 3.374 3.032 5.474 7.112 7.563 11.704 3.66 8.052 7.303 17.578 10.081 26.563.198.64.135 1.436.687 1.84 2.899.01 6.384.632 9.853 1.051 3.325.404 6.639.604 9.166 1.841 2.328 1.144 3.993 4.22 4.926 6.97.396 1.173 1.278 3.46.801 4.47-.578 1.224-2.875.423-4.351.527a9582.558 9582.558 0 0 0 11.184 38.534zm-54.034-53.655c-4.664-13.759-8.634-28.314-14.32-40.897-2.425.392-1.799 4.607-1.26 7.496.982 5.275 2.98 10.515 4.582 14.86 2.475 6.712 4.884 12.74 6.988 18.67 1.463.102 2.603-.165 4.01-.129zm5.386-.134C33.77 95.537 29.46 82.075 25.03 68.75c-1.412-.003-2.5-.373-4.011-.263 5.856 12.479 9.749 27.208 14.437 41.026zm4.696 0c-3.075-13.433-7.434-25.393-10.541-38.79-.915-.528-1.997-.867-3.093-1.186-.504.243.045.813.115 1.054.82 2.84 1.9 5.71 2.864 8.678 3.14 9.66 6.422 19.999 9.166 30.244zm9.051.134c-2.25-6.416-4.463-12.981-6.989-19.2-2.494-6.146-4.991-12.263-8.823-16.964 3.087 11.756 7.096 23.595 9.971 36.03 2.052-.078 3.769.232 5.841.134z"/></g><g><g><path fill="#fff" d="M32.55 113.65c-1.033-1.723 3.64-2.51 3.088-.547"/></g><g><path fill="#fff" d="M29.66 112.112c.373.105 1.092.556.85 1.403-.314 1.107-2.305 1.602-3.062 1.969-.919.448-2.477 1.767-3.371.981-1.275-1.12 1.308-2.651 2.216-3.135.483-.256.975-.455 1.394-.65.715-.332 1.251-.771 1.973-.568z"/></g></g></g></g></g></g></g></g></g></svg>