<svg xmlns="http://www.w3.org/2000/svg" width="152" height="173" viewBox="0 0 152 173"><g><g><path fill="#eff2fd" d="M3 74.5C3 33.355 36.355 0 77.5 0S152 33.355 152 74.5 118.645 149 77.5 149 3 115.645 3 74.5z"/></g><g><g/><g><g><g><g><g><g><path fill="#4d3d87" d="M138.017 57.12a159.838 159.838 0 0 0-1.963-12.845c-.411-2.084-.74-4.103-1.34-6.019-.577-1.85-1.084-3.767-1.777-5.347-.035-.028-.068-.091-.097-.131-1.292-1.85-2.737-5.126-6.067-4.94-2.408.133-4.17 2.92-5.265 5.03-.704 1.352-1.23 2.76-1.688 4.193a.739.739 0 0 0 .348.028c1.983 2.804 3.073 7.183 3.927 11.497 1.608 8.133 2.119 16.67 2.678 25.688.809 13.108 2.101 27.843.447 40.866-1.445 11.355-1.94 16.861-13.47 23.582 9.43 1.223 19.711-3.296 22.213-13.162 1.01-3.978 1.763-8.32 2.232-12.577.987-8.98 1.517-18.145 1.517-28.023-.002-9.661-.698-18.984-1.695-27.84z"/></g><g><g><path fill="#8f7ece" d="M126.769 27.84c3.33-.187 4.774 3.089 6.067 4.939.029.04.061.103.097.132.028.024.056.023.081-.043-1.507-3.536-2.561-6.02-4.64-8.353a13.804 13.804 0 0 0-6.003-3.92c-.494-.159-1.891.734-2.407.637-.658-.124-.44-1.219-1.124-1.23a11.7 11.7 0 0 0-4.297.74c-3.877 1.442-7.437 5.18-9.192 9.432-.885 2.15-1.608 4.519-2.23 7.096-.643 2.66-1.341 5.501-1.072 8.263.288 2.957 1.948 4.885 3.748 6.558 1.168 1.085 2.55 2.416 4.552 2.425 3.654.017 5.114-3.497 6.067-6.287.866-2.53 1.651-5.149 2.41-7.815.32-1.124.636-2.245.99-3.352.459-1.432.984-2.84 1.688-4.193 1.095-2.109 2.857-4.896 5.265-5.03z"/></g><g><path fill="#efad1b" d="M112.669 34.123c1.138-3.009 2.604-5.845 4.55-8.444 1.391-1.857 3.214-3.26 4.908-4.85.066-.062.147-.143.235-.24a12.222 12.222 0 0 0-3.55-.589c-1.391.872-2.577 1.977-3.645 3.074-5.052 5.195-7.548 11.348-9.28 19.582-.561 2.666-1.017 4.846-.803 7.994.016.256.047.542.09.838.205.204.413.404.623.6.485.45 1.008.941 1.595 1.364.144-.39.25-.88.37-1.365 1.529-6.206 2.9-12.659 4.907-17.964z"/></g></g></g><g><g><path fill="#fff" d="M127.12 32.41c.598-.54 1.512.255 1.963.808.538.662 1.095 1.859 1.427 2.874.394 1.209.757 2.542.623 3.594-.081.662-.527 1.141-.89 1.167-1.09.077-1.938-2.99-2.232-3.773-.579-1.543-1.247-3.067-.892-4.67z"/></g><g><path fill="#fff" d="M131.398 44.886c1.5-.693 2.273 4.294.892 4.221"/></g></g></g><g><g><g><path fill="#4d3d87" d="M20.775 57.12c.489-4.334 1.15-8.716 1.964-12.845.41-2.084.74-4.103 1.338-6.019.577-1.85 1.085-3.767 1.779-5.347.033-.028.067-.091.096-.131 1.29-1.85 2.738-5.126 6.068-4.94 2.408.133 4.167 2.92 5.264 5.03.703 1.352 1.23 2.76 1.688 4.193a.747.747 0 0 1-.349.028c-1.983 2.804-3.073 7.183-3.927 11.497-1.61 8.133-2.12 16.67-2.676 25.688-.811 13.108-2.102 27.843-.447 40.866 1.442 11.355 1.938 16.861 13.468 23.582-9.43 1.223-19.71-3.296-22.214-13.162-1.009-3.978-1.762-8.32-2.23-12.577A254.004 254.004 0 0 1 19.08 84.96c0-9.661.696-18.984 1.695-27.84z"/></g><g><g><path fill="#8f7ece" d="M32.026 27.84c-3.33-.187-4.777 3.089-6.068 4.94-.028.04-.063.102-.096.13-.03.025-.058.025-.082-.041 1.506-3.537 2.56-6.02 4.639-8.354a13.807 13.807 0 0 1 5.977-3.912c.549-.177 2.125.35 2.7.248.604-.107.209-.837.835-.849 1.41-.027 2.864.2 4.32.74 3.877 1.442 7.437 5.18 9.19 9.432.888 2.15 1.61 4.519 2.233 7.096.64 2.661 1.339 5.501 1.069 8.263-.287 2.957-1.947 4.885-3.748 6.558-1.166 1.085-2.548 2.416-4.55 2.425-3.654.017-5.114-3.497-6.069-6.287-.863-2.53-1.648-5.149-2.408-7.815-.321-1.124-.637-2.245-.99-3.352-.458-1.432-.985-2.84-1.688-4.193-1.096-2.109-2.856-4.896-5.264-5.03z"/></g><g><path fill="#efad1b" d="M46.123 34.123c-1.138-3.009-2.606-5.845-4.551-8.444-1.392-1.857-3.214-3.26-4.909-4.85a5.157 5.157 0 0 1-.233-.24A12.202 12.202 0 0 1 39.98 20c1.39.872 2.578 1.977 3.643 3.074 5.053 5.195 7.55 11.348 9.28 19.582.562 2.666 1.018 4.846.805 7.994-.018.256-.048.542-.091.838-.205.204-.412.404-.624.6-.485.45-1.006.941-1.594 1.364-.143-.39-.249-.88-.369-1.365-1.53-6.206-2.9-12.659-4.907-17.964z"/></g></g></g><g><g><path fill="#fff" d="M31.674 32.41c-.6-.54-1.513.255-1.964.808-.538.662-1.095 1.859-1.428 2.874-.395 1.209-.757 2.542-.624 3.594.084.662.529 1.141.893 1.167 1.089.077 1.936-2.99 2.23-3.773.58-1.543 1.247-3.067.893-4.67z"/></g><g><path fill="#fff" d="M27.393 44.886c-1.501-.693-2.272 4.294-.893 4.221"/></g></g></g><g><g><g><path fill="#4d3d87" d="M98.809 45.727c-.124.28-4.024-1.294-5.166-1.298.013-1.71.094-6.69-.013-8.267-.096-1.41-.222-2.98-.95-3.613-.854-.74-3.724-.844-5.7-.956-4.5-.256-8.21-.319-12.985-.319-2.263 0-4.661.039-5.807.744-1.836 1.131-2.43 8.82-3.277 11.026-1.829 0-3.606-.053-5.278-.212-.068-3.872 1.095-10.696 2.432-12.94 1.681-2.814 4.63-3.88 9.05-4.202.252-.018.508 1.46.768 1.446 1.926-.101 4.647.031 7.284.213 3.968.272 8.483-1.471 12.21-.85 2.452.41 4.562 1.196 5.95 2.756 2.146 2.415 2.064 12.144 1.482 16.472z"/></g><g><path fill="#8f7ece" d="M72.103 28.834c.737.566 2.672.607 4.328.53 3.403-.155 6.308-.106 9.607-.106 1.695 0 3.69.115 4.433-.425.576-.418.81-1.404.845-2.34-3.713-.608-8.198-.365-12.14-.635-2.638-.182-5.359-.314-7.285-.213a36.69 36.69 0 0 0-.79.051c-.082 1.05.283 2.584 1.002 3.138z"/></g></g><g><g><g><g><path fill="#ff5000" d="M79.284 35.324c7.95-.38 15.376.74 21.43 2.553 1.512.453 2.953 1.042 4.353 1.66 1.384.61 2.749 1.248 4.016 1.957 2.574 1.438 4.671 3.411 6.383 5.616.89 1.147 1.713 2.305 2.408 3.616 2.054 3.88 3.45 8.56 4.27 13.742 1.08 6.823 1.332 15.134 1.015 22.713-.159 3.761-.56 7.459-.888 11.147-.325 3.643-.709 7.314-1.016 11.02-.622 7.524-.758 15.337-2.156 21.911-.357 1.685-.825 3.193-1.478 4.552-.659 1.371-1.372 2.613-2.368 3.617-1.03 1.038-2.245 1.738-3.719 2.298-.731.277-1.44.575-2.24.765-.793.189-1.625.311-2.536.425-5.184.657-11.074.937-17.034.937-1.941 0-3.872.17-5.79.17-1.943 0-3.934.043-5.96-.044-1.93-.081-3.915-.126-5.876-.126-3.917 0-7.817-.204-11.453-.511-1.909-.161-3.722-.317-5.412-.596a17.61 17.61 0 0 1-4.563-1.403c-2.776-1.299-4.334-3.652-5.496-6.51-1.168-2.872-1.618-6.36-2.028-9.999-.203-1.796-.434-3.634-.55-5.488-.12-1.9-.187-3.804-.297-5.701-.21-3.65-.654-7.43-.971-11.062-.66-7.567-1.437-14.566-1.438-22.549 0-3.9.246-7.768.635-11.396.39-3.634.981-7.087 1.86-10.17.892-3.13 1.916-6.072 3.423-8.594 2.246-3.758 5.206-6.842 9.172-8.85 1.297-.656 2.638-1.343 4.057-1.914 2.848-1.144 5.966-1.977 9.342-2.638 3.357-.656 6.93-1.148 10.822-1.148h.083z"/></g><g><path fill="#ff5000" d="M79.284 35.324c7.95-.38 15.376.74 21.43 2.553 1.512.453 2.953 1.042 4.353 1.66 1.384.61 2.749 1.248 4.016 1.957 2.574 1.438 4.671 3.411 6.383 5.616.89 1.147 1.713 2.305 2.408 3.616 2.054 3.88 3.45 8.56 4.27 13.742 1.08 6.823 1.332 15.134 1.015 22.713-.159 3.761-.56 7.459-.888 11.147-.325 3.643-.709 7.314-1.016 11.02-.622 7.524-.758 15.337-2.156 21.911-.357 1.685-.825 3.193-1.478 4.552-.659 1.371-1.372 2.613-2.368 3.617-1.03 1.038-2.245 1.738-3.719 2.298-.731.277-1.44.575-2.24.765-.793.189-1.625.311-2.536.425-5.184.657-11.074.937-17.034.937-1.941 0-3.872.17-5.79.17-1.943 0-3.934.043-5.96-.044-1.93-.081-3.915-.126-5.876-.126-3.917 0-7.817-.204-11.453-.511-1.909-.161-3.722-.317-5.412-.596a17.61 17.61 0 0 1-4.563-1.403c-2.776-1.299-4.334-3.652-5.496-6.51-1.168-2.872-1.618-6.36-2.028-9.999-.203-1.796-.434-3.634-.55-5.488-.12-1.9-.187-3.804-.297-5.701-.21-3.65-.654-7.43-.971-11.062-.66-7.567-1.437-14.566-1.438-22.549 0-3.9.246-7.768.635-11.396.39-3.634.981-7.087 1.86-10.17.892-3.13 1.916-6.072 3.423-8.594 2.246-3.758 5.206-6.842 9.172-8.85 1.297-.656 2.638-1.343 4.057-1.914 2.848-1.144 5.966-1.977 9.342-2.638 3.357-.656 6.93-1.148 10.822-1.148h.083z"/></g><g><path fill="#efad1b" d="M113.76 126.352c-.275 3.291-.648 6.47-1.271 9.405-.358 1.685-.824 3.192-1.478 4.551-.342.71-.7 1.386-1.101 2.011.555-.174 1.081-.389 1.617-.59 1.474-.56 2.69-1.26 3.72-2.298.995-1.004 1.708-2.246 2.367-3.617.653-1.36 1.12-2.868 1.478-4.552.419-1.964.72-4.039.96-6.182-2.025 0-4.895.595-6.291 1.272z"/></g><g opacity=".21"><path d="M115.255 139.428c.996-1.004 1.709-2.246 2.368-3.617.653-1.36 1.12-2.868 1.478-4.552 1.398-6.574 1.534-14.387 2.155-21.911.308-3.706.692-7.377 1.016-11.02.328-3.689.73-7.386.888-11.147.318-7.58.065-15.89-1.015-22.713-.82-5.182-2.216-9.862-4.27-13.742-.694-1.312-1.518-2.469-2.408-3.616-1.712-2.205-3.809-4.179-6.383-5.617-1.267-.708-2.631-1.347-4.016-1.957-1.4-.617-2.84-1.207-4.353-1.659-6.053-1.813-13.48-2.934-21.43-2.553h-.083c-3.891 0-7.465.492-10.821 1.149-3.376.66-6.494 1.493-9.342 2.638-1.42.57-2.76 1.257-4.058 1.914a20.855 20.855 0 0 0-5.301 3.842c.89-.443 1.805-.879 2.756-1.261 2.847-1.145 5.965-1.977 9.341-2.638 3.355-.657 6.93-1.15 10.82-1.15.029 0 .057.002.086 0 7.949-.38 15.376.741 21.43 2.554 1.513.452 2.952 1.042 4.352 1.66 1.384.61 2.748 1.248 4.016 1.956 2.573 1.438 4.671 3.411 6.382 5.616.891 1.147 1.715 2.305 2.41 3.616 2.053 3.88 3.45 8.56 4.269 13.743 1.08 6.82 1.33 15.132 1.013 22.714-.157 3.76-.558 7.456-.886 11.145-.325 3.643-.709 7.316-1.015 11.02-.622 7.525-.76 15.337-2.156 21.911-.358 1.686-.824 3.192-1.478 4.552-.342.71-.7 1.386-1.1 2.011.554-.175 1.08-.389 1.616-.591 1.474-.559 2.69-1.259 3.719-2.297z"/></g></g><g><path fill="#ff5000" d="M72.675 39.814c7.949-.38 15.376.74 21.43 2.553 1.513.453 2.952 1.043 4.352 1.66 1.384.61 2.749 1.248 4.016 1.957 2.573 1.437 4.672 3.41 6.382 5.615.891 1.148 1.715 2.306 2.41 3.617 2.054 3.88 3.45 8.56 4.269 13.742 1.08 6.82 1.33 15.132 1.014 22.714-.158 3.761-.56 7.457-.887 11.146-.325 3.643-.709 7.315-1.015 11.02-.345 4.167-.54 8.422-.883 12.507-.828 2.973-1.367 5.934-1.99 8.868-.358 1.686-1.207 2.915-1.862 4.274-.66 1.371-1.053 2.387-2.049 3.39-1.03 1.038-1.82 1.697-3.291 2.256-.731.279-1.03.571-1.83.761-.793.19-1.7.753-2.61.867-1.533.194-3.11 1-4.752 1.131-3.905.311-8.068.449-12.265.451-1.94 0-3.873.168-5.791.17-1.943 0-3.932.044-5.959-.043a139.413 139.413 0 0 0-5.876-.127c-3.714 0-7.413-.182-10.888-.463-.19-.016-1.18-.91-1.368-.926-1.907-.161-2.772-.388-4.46-.667-1.692-.278-2.483-.526-3.801-1.143-2.775-1.298-3.925-3.371-5.087-6.228-1.169-2.873-2.24-5.825-2.65-9.463-.11-.982-.929-2.106-1.033-3.109a61.408 61.408 0 0 1-.214-2.509c-.12-1.898-.188-3.804-.297-5.7-.21-3.65-.655-7.43-.972-11.063-.662-7.567-1.437-14.564-1.438-22.548 0-3.903.245-7.77.635-11.399.388-3.631.98-7.084 1.858-10.167.893-3.13 1.918-6.071 3.424-8.594 2.247-3.758 5.207-6.842 9.173-8.85 1.297-.655 2.637-1.343 4.058-1.914 2.847-1.144 5.965-1.977 9.34-2.638 3.356-.657 6.93-1.149 10.82-1.149.03.001.058.003.087.001z"/></g><g><g><path fill="#efad1b" d="M44.404 128.935c-2.032-1.278-4.825-2.558-8.194-2.585.103 1.004.222 2 .332 2.98.41 3.638.861 7.125 2.03 9.999 1.162 2.857 2.72 5.21 5.495 6.508a17.566 17.566 0 0 0 4.566 1.404c1.687.28 3.501.436 5.408.597l.567.044c-.558-5.292-1.907-9.289-4.37-12.95-1.61-2.392-3.337-4.429-5.834-5.997z"/></g><g><path fill="#efad1b" d="M102.685 146.985c.8-.19 1.51-.487 2.24-.766 1.473-.56 2.69-1.26 3.72-2.298.996-1.002 1.707-2.246 2.368-3.617.654-1.36 1.12-2.866 1.478-4.551.623-2.934.996-6.114 1.272-9.403-3.361.03-6.15 1.308-8.179 2.584-2.497 1.568-4.221 3.604-5.832 5.997-2.465 3.664-3.815 7.664-4.372 12.963 1.64-.13 3.236-.29 4.77-.484.91-.114 1.742-.235 2.535-.425z"/></g></g><g><g><g><g><path fill="#fff" d="M52.754 48.69c-1.59-.997 2.532-3.579 2.713-1.73"/></g><g><path fill="#fff" d="M49.491 48.61c.391-.068 1.229.007 1.302.807.1 1.044-1.6 2.275-2.18 2.892-.706.75-1.7 2.483-2.824 2.203-1.603-.397.283-2.73.965-3.505.363-.411.757-.78 1.08-1.113.557-.57.904-1.155 1.657-1.285z"/></g></g><g><g><path fill="#fff" d="M107.764 65.607c-.86-.714-1.475-2.5-1.973-4.293-.215-.768-.538-2.016.123-2.284.792-.325 1.384 1.034 1.593 1.518.667 1.542 1.16 3.537 1.115 4.676-.122.236-.555.412-.858.383z"/></g><g><path fill="#fff" d="M103.802 59.77c-1.507.986-3.065-2.645-1.64-3.083.62-.19 2.025 1.283 2.099 2.258.024.35-.199.653-.46.825z"/></g><g><path fill="#fff" d="M101.753 52.348c-.495.404-1.31-.037-1.907-.747-.48-.572-1.14-1.883-.347-2.203.35-.143 1.05.124 1.56.7.6.677 1.33 1.728.694 2.25z"/></g></g></g><g><g><path fill="#fff" d="M118.034 71.836c-.76-.191-1.472.868-2.242.717-.373-.074.093-.774.28-1.104.316-.557.837-.974 1.197-1.503.675-.991 1.469-1.935 1.904-3.052.142-.367.09-.991-.27-1.15-.892-.39-1.938-.202-2.91-.246-.728-.034-1.696.553-2.186.013-.602-.662.687-1.685.945-2.29.514-1.202 1.249-2.356 1.439-3.65.055-.381-.406-.758-.78-.852-.29-.073-3.598.297-3.98.288-.074-.002-.113-.134-.092-.206.3-1.027.427-1.116.795-1.82.073-.14.15-.28.213-.424.42-.964 2.027-3.61.422-4.747-.746-.53-2.109.116-2.974.466-.092.038-.182.083-.277.11-.372.104-.93.617-1.123.283-.26-.449.27-1.001.42-1.497.043-.141.108-.276.162-.414.358-.914.698-1.683.684-2.787-.004-.294-.242-.62-.522-.713-.212-.069-1.2-.092-1.706.084-.255.09-.502.204-.762.276-.54.15-1.143.657-1.636.391-.435-.234-.282-.953-.318-1.445-.019-.258.148-.501.156-.76.04-1.27.033-2.54-.014-3.81-.002-.062-.092-.083-.133-.13-.005-.005.006-.017 0-.022-.012-.012-.03-.014-.046-.021-.06-.027-.118-.105-.18-.082a52.82 52.82 0 0 0-3.521 1.4c-.236.104-.398.351-.643.43-.467.148-1.077.554-1.45.237-.431-.363-.185-1.112-.247-1.672-.03-.27-.015-.544-.028-.817-.025-.534-.435-1.478-.556-1.624-.187-.226-.577-.33-.85-.224-1.04.402-1.607.999-2.318 1.674-.107.101-.207.211-.322.304-.401.325-.714 1.024-1.225.948-.384-.057-.114-.768-.155-1.154-.011-.1-.002-.2-.002-.3.004-.939.098-2.448-.672-2.952-.702-.46-1.736.034-2.484.415-.73.373-1.166 1.154-1.74 1.74-.11.113-.21.236-.312.357-.108.128-.2.268-.317.388-.345.353-.678.724-1.066 1.03-.059.047-.195.06-.225-.01-.25-.586-.367-1.22-.56-1.829-.211-.668-.243-1.428-.651-1.998-.223-.311-.743-.604-1.074-.41-1.127.658-1.917 1.771-2.836 2.698-.46.463-.93 2.048-1.761 1.732-.685-.26-.498-1.38-.798-2.047-.402-.892-.614-1.939-1.308-2.629-.278-.275-.876-.094-1.16.175-.872.823-1.445 1.914-2.11 2.912-.355.534-.545 1.174-.943 1.676-.235.297-.727 1-.915.672-.419-.729-.127-1.677-.146-2.517-.004-.186.136-.378.075-.554-.258-.754-.618-.695-1.005-.097-.091.14-.095.332-.07.498.189 1.204-.191 2.763.707 3.586.58.531 1.562-.447 2.153-.966.532-.468.668-1.253 1.051-1.85a37.377 37.377 0 0 1 1.744-2.502c.052-.068.2-.166.239-.09.49.953 1.286 4.424 2.27 4.727.919.283 1.652-.994 2.415-1.58.187-.143.246-.405.402-.581.677-.77 1.333-1.563 2.092-2.252.07-.064.225.029.26.117.187.46.21.973.373 1.442.096.276.507 3.381 2.036 2.662.638-.3 1.082-.905 1.601-1.381.11-.1.186-.232.282-.345.519-.615 1.56-1.718 1.903-1.96.365-.257.922-.694 1.27-.416.435.347.205 1.095.273 1.648.021.174-.004.351-.004.526-.004.853.05 2.125 1.046 2.428.582.178 1.722-.915 2.327-1.488.148-.14.284-.293.443-.422.433-.35.874-.693 1.33-1.014.028-.02.09-.028.101.004.03.084.175.678.188.946.01.236-.017.475.021.709.125.772-.167 1.837.464 2.3 1.78 1.304 2.368.109 3.464-.465.848-.443 1.796-1.79 2.585-1.25.787.54-.144 1.903-.253 2.85-.14 1.226-.94 2.273.858 3.411.502.318 2.176-.389 2.957-.661.262-.092.805-.172.94-.177.035-.002.05.06.043.093a25.356 25.356 0 0 1-.442 1.62c-.06.196-.15.38-.225.57-.305.78-.884 2.258-.51 2.728.655.825 1.842.396 2.629.076.161-.066.315-.155.483-.199.535-.14 1.142-.632 1.622-.355.388.224.19.905.088 1.34-.097.42-.726 1.791-1.102 2.507-.07.131-.162.252-.214.392-.247.663-.64 1.303-.68 2.01-.02.348.18.814.516.91.864.247 1.799.045 2.697.006.493-.022.974-.192 1.468-.19.094.002.235.111.203.2-.353.964-.842 1.874-1.3 2.793-.105.21-.325.363-.388.59-.257.932-1.163 2.09-.56 2.845.645.807 4.138.262 5.204.367.084.009.047.182.004.256a37.436 37.436 0 0 1-1.661 2.559c-.399.565-2.859 2.884-1.41 4.038 2.912 2.32 3.331-1.366 2.926-1.467z"/></g><g><path fill="#efad1b" d="M117.918 71.585c.82-.095 1.443.232 1.538 1.711.053.825-.363 1.42-.335 1.841.047.743.557 1.527.699 2.246.12.601.11 1.417-.303 1.75-.612.493-1.604.296-1.898-.229-.394-.707-.277-1.546-.21-2.168.033-.32.249-1.14-.1-1.823-.2-.388-.472-.754-.595-1.582-.206-1.345.572-1.672 1.204-1.746z"/></g></g></g></g><g><g><path fill="#4d3d87" d="M71.66 81.117a88.045 88.045 0 0 1 14.074.468c2.154.248 4.28.546 6.214 1.064 1.973.526 3.776 1.05 5.368 1.871 2.483 1.282 4.38 2.878 5.79 5.148 1.41 2.27 2.208 4.899 2.578 8.34.238 2.208.235 4.57.338 6.934.43 9.84.072 19.286-4.776 24.166-2.347 2.363-6.08 3.657-9.933 4.595-3.014.735-6.097 1.117-9.552 1.362-3.398.24-7.051.128-10.566.128-2.323 0-4.6-.254-6.764-.511-4.381-.524-8.27-1.481-11.54-2.978-1.742-.799-3.191-1.7-4.352-2.937-1.133-1.206-2.022-2.788-2.705-4.552-1.338-3.458-1.704-7.827-1.818-12.763-.054-2.35.041-4.55.127-6.851.089-2.382.063-4.715.337-6.977.27-2.21.803-4.148 1.48-5.829 1.367-3.394 3.867-5.84 7.142-7.404 3.244-1.545 7.331-2.349 11.667-2.849 2.171-.251 4.417-.307 6.89-.425z"/></g><g opacity=".21"><path d="M75.032 95.24c2.277-.11 4.978-.002 7.354 0 3.678 0 7.16.083 10.947.083 2.753 0 4.556.108 7.186.17.792.02 1.173.043 1.691.129.542.09 1.124.26 1.184.638.163 1.035-1.673 1.363-2.707 1.446-1.38.113-2.848.085-4.057.085-2.82 0-5.573-.042-8.116-.042-2.773 0-5.44-.102-7.947.127-2.507.23-4.912.594-7.015 1.234-1.985.605-3.998 1.564-6.298 2-4.967.943-10.09.005-14.667-.895-1.046-.204-2.295-.366-3.466-.679-.876-.235-2.6-.683-2.62-1.49-.035-1.305 2.88-1.474 4.268-1.616 2.99-.306 6.015-.495 9.089-.681 3.606-.22 7.46-.426 11.284-.426 1.262 0 2.585-.022 3.89-.084z"/></g><g><path fill="#fff" d="M102.735 95.598c.82.066 1.369.509 1.177 1.98-.107.82-.63 1.323-.683 1.74-.097.739.25 1.608.253 2.341.001.613-.165 1.414-.634 1.66-.696.364-1.633-.024-1.818-.597-.25-.768.027-1.57.211-2.17.096-.306.466-1.069.253-1.808-.12-.42-.316-.832-.28-1.669.059-1.358.885-1.529 1.52-1.477z"/></g><g><g><g><path fill="#8f7ece" d="M83.986 85.502c-.917 1.081-1.773 2.648-2.581 4.224.217-1.318.391-2.593.263-3.733-.101-.875-.685-1.442-.771-2.383-.128-1.353.195-2.811.208-4.175.009-1.331.115-2.721-.25-3.763-.326-.928-1.026-1.255-1.64-1.842-1.37-1.307-2.611-3.054-2.475-5.605.213-3.91 2.963-7.081 6.35-6.57 4.004.603 6.072 6.19 3.447 10.276-.777 1.208-2.328 1.852-2.81 3.442-.337 1.11-.3 2.447-.35 3.857-.042 1.18-.195 2.635.108 3.446.3.808 1.214 1.067 1.804 1.696-.43.397-.98.752-1.303 1.13zm-.615-21.45c-2.356-.894-4.102 1.458-4.325 3.777-.2 2.084.57 4.346 2.742 4.573 3.84.403 5.133-7.002 1.583-8.35z"/></g><g><path fill="#8f7ece" d="M85.838 88c-.875 1.373-1.658 3.392-2.247 4.59A2157.03 2157.03 0 0 1 81 97.847c.864-.067 1.746-.1 2.645-.112.333-1.518.665-3.02 1.002-4.477.379-1.635.955-3.554 1.19-5.258z"/></g><g><path fill="#8f7ece" d="M95.495 77.743c-1.567 2.387-3.1 4.165-5.478 4.266-.386.017-.742-.196-1.072.015-1.209.776.016 2.714-.476 4.034-.32.43-1.143.412-1.579.713-.361.25-.714.688-1.054 1.221-.875 1.373-1.659 3.393-2.247 4.59-.707 1.438-1.618 3.29-2.591 5.257-.142.01-.285.02-.426.032l-.362.036c-1.027.1-2.035.225-3.01.381.39-.812.782-1.607 1.163-2.374.908-1.82 1.765-3.667 2.656-5.43.127-.253.256-.507.387-.76.808-1.577 1.665-3.144 2.582-4.225.322-.378.871-.734 1.301-1.13.268-.248.49-.512.576-.806.212-.707-.102-1.78-.139-2.668-.187-4.508 1.32-9.987 3.638-13.093 1.14-1.528 3.162-3.435 5.792-2.649 1.434.429 2.468 1.687 2.855 2.734 1.185 3.202-.707 7.1-2.516 9.856zm-11.64 9.927a.95.95 0 0 0-1.091.785.956.956 0 0 0 .78 1.102.95.95 0 0 0 1.092-.785.957.957 0 0 0-.78-1.102zm10.243-20.835c-.876-.082-1.91.614-2.54 1.238-2.302 2.276-5.351 10.256-3.227 11.793 1.914 1.382 4.025-.67 5.27-2.442 1.326-1.884 2.53-4.185 2.814-6.38.263-2.04-.334-4.019-2.317-4.21z"/></g><g opacity=".62"><path fill="#fff" d="M95.495 77.743c-1.567 2.387-3.1 4.165-5.478 4.266-.386.017-.742-.196-1.072.015-1.209.776.016 2.714-.476 4.034-.32.43-1.143.412-1.579.713-.361.25-.714.688-1.054 1.221-.875 1.373-1.659 3.393-2.247 4.59-.707 1.438-1.618 3.29-2.591 5.257-.142.01-.285.02-.426.032l-.362.036c-1.027.1-2.035.225-3.01.381.39-.812.782-1.607 1.163-2.374.908-1.82 1.765-3.667 2.656-5.43.127-.253.256-.507.387-.76.808-1.577 1.665-3.144 2.582-4.225.322-.378.871-.734 1.301-1.13.268-.248.49-.512.576-.806.212-.707-.102-1.78-.139-2.668-.187-4.508 1.32-9.987 3.638-13.093 1.14-1.528 3.162-3.435 5.792-2.649 1.434.429 2.468 1.687 2.855 2.734 1.185 3.202-.707 7.1-2.516 9.856zm-11.64 9.927a.95.95 0 0 0-1.091.785.956.956 0 0 0 .78 1.102.95.95 0 0 0 1.092-.785.957.957 0 0 0-.78-1.102zm10.243-20.835c-.876-.082-1.91.614-2.54 1.238-2.302 2.276-5.351 10.256-3.227 11.793 1.914 1.382 4.025-.67 5.27-2.442 1.326-1.884 2.53-4.185 2.814-6.38.263-2.04-.334-4.019-2.317-4.21z"/></g><g><path fill="#4d3d87" d="M83.544 89.56a.95.95 0 0 0 1.091-.785.957.957 0 0 0-.78-1.102.95.95 0 0 0-1.092.785.956.956 0 0 0 .78 1.103z"/></g></g><g><g><g><path fill="#b1bc00" d="M93.748 97.782l1.208-4.655-2.206-.487-1.33 5.126c.764.004 1.54.01 2.328.016z"/></g><g><path fill="#b1bc00" d="M91.946 92.46l-1.186-.26c-.51 1.844-.987 3.696-1.45 5.55l1.263.005z"/></g><g><path fill="#b1bc00" d="M97.028 93.609c.001-.009-.003-.016 0-.025l-1.282-.284-1.166 4.487c.457.003.922.004 1.385.004.262-1.008.513-2.01.73-2.979.093-.421.312-.849.333-1.203z"/></g></g><g><path fill="#efad1b" d="M96.964 93.086c-.011-.178-.005-.353-.002-.519.042-1.756.034-3.304-.158-5.066l-2.637-.84c.1-.123.202-.251.311-.381-1.1 1.308-1.763 2.352-2.485 3.533-.377.603-.835 1.187-1.091 1.773-.073.166-.073.381-.132.598-.003.003-.003.008-.003.013l1.186.26-1.373 5.295.839.006 1.33-5.126 2.206.487-1.208 4.655.836.005 1.167-4.487 1.281.284c0-.15-.059-.327-.067-.49z"/></g><g><path fill="#fff" d="M96.797 87.501l-.016-.161c-.063-.552-.166-1.787-.722-2.067-.409-.205-1.042.36-1.588 1.007-.11.13-.211.258-.311.38z"/></g></g><g><g><path fill="#efad1b" d="M69.893 67.603a1.354 1.354 0 0 0-2.706-.048l-.027 1.451 2.704.039z"/></g><g><path fill="#b1bc00" d="M65.25 86.01l-.31 15.4a21.89 21.89 0 0 0 2.32-.306c1.165-.222 2.257-.575 3.309-.951l.284-14.06z"/></g><g><path fill="#fff" d="M65.25 86.018l5.605.084.019-1.641-5.598-.081z"/></g><g><g><path fill="#b1bc00" d="M71.08 69.89l-.213 14.57-5.597-.081.219-15.389h.001l-.012.818 1.666.024 2.706.04zm-2.245 6.108c-.704.342-.618 2.285.27 2.326zm.218-4.159c-.04.028-.077.044-.104.084-.418.646-.661 2.906.546 2.725 1.03-.154.72-3.592-.442-2.809z"/></g><g><path fill="#fff" d="M69.867 69.05v.003l-2.705-.04-1.67-.023-.012.818 1.665.024 2.707.04 1.23.018.769.012-.219 15.425 1.165.02.222-15.428.01-.821z"/></g><g><g><path fill="#fff" d="M69.056 71.836c-.04.028-.077.044-.105.084-.417.646-.66 2.906.547 2.724 1.03-.153.719-3.592-.442-2.808z"/></g><g><path fill="#fff" d="M68.84 75.989c-.705.341-.618 2.285.27 2.326"/></g></g></g></g><g><g><path fill="#efad1b" d="M65.157 99.144a.285.285 0 0 0 .222-.213l.412 2.397c-3.922.466-7.9-.108-11.589-.803L47.5 61.546l11.119-1.936 4.696 27.309a.277.277 0 0 0-.323-.225l-2.143.375a.282.282 0 0 0 .099.555l2.142-.378a.284.284 0 0 0 .226-.323l.506 2.952a.279.279 0 0 0-.316-.208l-2.139.379a.28.28 0 0 0 .096.551l2.142-.38a.271.271 0 0 0 .224-.297l.5 2.901a.276.276 0 0 0-.304-.18l-2.142.379a.28.28 0 0 0 .098.552l2.139-.377a.28.28 0 0 0 .228-.27l.488 2.843a.279.279 0 0 0-.294-.154l-2.139.378a.282.282 0 0 0 .093.555l2.142-.38a.273.273 0 0 0 .224-.239l.48 2.784a.277.277 0 0 0-.281-.12l-2.143.374a.284.284 0 0 0-.224.327c.026.152.169.253.323.226zM50.512 64.951c.41-.27.253-.616.113-1.25-.135-.601-.145-1.171-.633-1.176-1.469-.02-.646 3.192.52 2.426zm1.603 2.92c-.193-.53-.632-1.517-.873-1.606-1.128-.404-.875 1.758-.675 2.629.237 1.033.633 1.84 1.407 1.382.563-.33.517-1.37.14-2.405zm.786-4.045c-.846.196-.595 2.702.517 2.043a.682.682 0 0 0 .342-.493c.086-.564-.36-1.667-.86-1.55zm3.9.01l2.143-.378a.28.28 0 0 0-.099-.551l-2.138.379a.278.278 0 0 0-.225.323.278.278 0 0 0 .32.228zm.521 2.974l2.14-.379a.28.28 0 1 0-.097-.55l-2.138.377a.281.281 0 0 0-.228.324c.027.155.17.254.323.228zm.519 2.973l2.139-.377a.279.279 0 0 0 .226-.323.283.283 0 0 0-.322-.23l-2.142.38a.28.28 0 0 0 .099.55zm.514 2.976l2.142-.379a.277.277 0 0 0 .226-.323.278.278 0 0 0-.323-.231l-2.137.378a.282.282 0 0 0 .093.555zm.52 2.97l2.14-.376a.283.283 0 0 0 .227-.328.278.278 0 0 0-.322-.223l-2.141.373a.287.287 0 0 0-.227.328.277.277 0 0 0 .324.226zm.515 2.974l2.146-.38a.279.279 0 1 0-.099-.549l-2.138.376a.28.28 0 0 0 .091.553zm.52 2.972l2.144-.377a.283.283 0 0 0 .224-.325.278.278 0 0 0-.321-.227l-2.142.376a.28.28 0 0 0-.223.324.273.273 0 0 0 .319.229zm.519 2.977l2.143-.38a.282.282 0 0 0 .225-.327.282.282 0 0 0-.323-.226l-2.14.378a.282.282 0 0 0 .095.554z"/></g><g><g><path fill="#fff" d="M59.173 63.133a.28.28 0 0 0-.325-.229l-2.139.379a.278.278 0 0 0-.224.323.279.279 0 0 0 .32.228l2.142-.378a.28.28 0 0 0 .226-.323z"/></g><g><path fill="#fff" d="M59.695 66.113a.282.282 0 0 0-.325-.229l-2.139.378a.28.28 0 0 0-.227.324c.027.155.169.254.323.228l2.14-.38a.28.28 0 0 0 .228-.32z"/></g><g><path fill="#fff" d="M60.203 69.084a.283.283 0 0 0-.321-.23l-2.143.38a.28.28 0 0 0 .1.55l2.138-.377a.278.278 0 0 0 .226-.323z"/></g><g><path fill="#fff" d="M60.724 72.055a.278.278 0 0 0-.324-.231l-2.137.378a.281.281 0 0 0 .093.555l2.141-.379a.277.277 0 0 0 .227-.323z"/></g><g><path fill="#fff" d="M61.244 75.027a.278.278 0 0 0-.322-.222l-2.142.372a.287.287 0 0 0-.226.328.278.278 0 0 0 .324.226l2.14-.375a.283.283 0 0 0 .226-.33z"/></g><g><path fill="#fff" d="M61.766 78.002a.282.282 0 0 0-.325-.228l-2.138.376a.281.281 0 0 0 .091.553l2.146-.38a.279.279 0 0 0 .226-.321z"/></g><g><path fill="#fff" d="M62.282 80.97a.278.278 0 0 0-.322-.226l-2.142.376a.28.28 0 0 0-.223.324.273.273 0 0 0 .319.229l2.143-.377a.283.283 0 0 0 .225-.325z"/></g><g><path fill="#fff" d="M62.794 83.95a.282.282 0 0 0-.324-.226l-2.138.378a.282.282 0 0 0 .094.554l2.143-.38a.281.281 0 0 0 .225-.326z"/></g><g><path fill="#fff" d="M62.992 86.695l-2.143.375a.282.282 0 0 0 .099.555l2.142-.378a.284.284 0 0 0 .226-.323l-.001-.004a.277.277 0 0 0-.323-.225z"/></g><g><path fill="#fff" d="M63.509 89.664l-2.139.38a.28.28 0 0 0 .096.55l2.142-.38a.271.271 0 0 0 .224-.296l-.007-.045a.278.278 0 0 0-.316-.209z"/></g><g><path fill="#fff" d="M64.021 92.644l-2.142.378a.281.281 0 0 0-.225.326.277.277 0 0 0 .323.226l2.139-.377a.28.28 0 0 0 .228-.27l-.02-.104a.277.277 0 0 0-.303-.18z"/></g><g><path fill="#fff" d="M64.542 95.613l-2.139.379a.282.282 0 0 0 .093.555l2.142-.38a.273.273 0 0 0 .225-.24l-.027-.16a.279.279 0 0 0-.294-.154z"/></g><g><path fill="#fff" d="M65.061 98.595l-2.142.374a.284.284 0 0 0-.225.326c.027.153.17.254.324.227l2.14-.376a.285.285 0 0 0 .222-.213l-.037-.218a.277.277 0 0 0-.282-.12z"/></g></g><g><g><path fill="#fff" d="M51.238 66.27c-1.127-.404-.874 1.758-.674 2.629.237 1.033.633 1.84 1.407 1.382.563-.33.517-1.37.14-2.406-.192-.53-.631-1.516-.873-1.605z"/></g><g><path fill="#fff" d="M52.903 63.829c-.845.196-.594 2.702.518 2.043a.68.68 0 0 0 .342-.493c.086-.563-.36-1.667-.86-1.55z"/></g><g><path fill="#fff" d="M50.621 63.707c-.135-.602-.144-1.172-.632-1.177-1.469-.02-.647 3.192.52 2.426.41-.27.252-.616.112-1.25z"/></g></g></g></g></g></g></g></g><g><g><g><path fill="#8f7ece" d="M68.7 153.844l6.638 2.016 4.3 1.043-4.154-1.526-6.639-2.017z"/></g><g><g><path fill="#ff5000" d="M71.46 152.706l-5.786-1.756-.934 3.116 5.763 1.75c.183.811.65 1.594 1.335 2.246l1.961-6.452c-.922.154-1.738.534-2.339 1.096z"/></g><g><path fill="#ff5000" d="M65.702 149.511c.258.078.403.351.325.61l-1.436 4.79a.483.483 0 0 1-.606.326.491.491 0 0 1-.325-.61l1.437-4.789a.485.485 0 0 1 .605-.327z"/></g></g></g><g><g><g><path fill="#8f7ece" d="M12.339 148.72c-.077-.041-.049-.09-.012-.142 1.362-.485 2.709-1.139 4.072-1.618.78 1.133 2.053 1.088 2.886.107.958.26 4.73 1.209 5.694 1.539-.796 1.252-2.226 1.797-3.272 2.822-2.187-.697-7.171-1.881-9.368-2.709z"/></g><g opacity=".62"><path fill="#fff" d="M12.339 148.72c-.077-.041-.049-.09-.012-.142 1.362-.485 2.709-1.139 4.072-1.618.78 1.133 2.053 1.088 2.886.107.958.26 4.73 1.209 5.694 1.539-.796 1.252-2.226 1.797-3.272 2.822-2.187-.697-7.171-1.881-9.368-2.709z"/></g></g><g><g><path fill="#ff5000" d="M18.484 149.32c.822-1.745 3.305-2.947 4.712-3.024 1.625-.089 3.674.801 5.564 1.432 1.99.664 3.798 1.184 5.527 1.73 3.681 1.16 7.044 2.147 11.056 3.46 3.943 1.292 7.741 2.65 11.076 3.698 1.742.55 3.57 1.253 5.55 1.968 1.71.616 3.493 1.213 4.993 2.298.215.156.262 1.046.464 1.222 2.54 2.222 3.343 4.8 3.6 7.51.09.932.112 1.851-.408 2.465-.719.845-1.687.252-2.747 0-1.157-.276-2.319.046-3.369-.32-1.241-.434-2.462-.914-3.789-1.4-1.549-.566-2.964-.894-4.266-2.194-.858-.859-1.098-1.925-2.01-2.805-1.263-1.224-2.994-1.696-4.512-2.295-1.567-.617-2.958-1.082-4.451-1.584-6.143-2.07-11.617-3.769-17.711-5.93-1.389-.49-2.743-.904-4.452-1.584-1.209-.483-3.532-1.226-4.448-2.24-.466-.515-.758-1.608-.38-2.408z"/></g><g><path fill="#efad1b" d="M71.179 172.444c.52-.613.5-1.901.41-2.834-.256-2.708-1.465-6.008-4.005-8.23a8.416 8.416 0 0 0-.502-.4c-1.148.805-1.1 2.234-1.384 3.3-.665 2.5-1.345 5.26-1.198 7.477 1.05.367 2.114.702 3.271.978 1.06.252 2.689.554 3.408-.29z"/></g><g><g><g><path fill="#8f7ece" d="M20.324 150.116c-.09-.632 1.49-1.59 2.219-1.737 1.18-.24 3.596.692 5.062 1.116 5.054 1.456 10.26 3.1 15.298 4.646 5.45 1.673 9.868 2.975 15.327 5.002 1.626.603 4.035 1.454 5.093 2.898.63.864 1 3.308.07 4.34-1.135 1.262-3.85.355-5.194-.568-.74-.51-1.334-1.26-2.049-1.848-1.445-1.193-3.02-1.795-4.574-2.349-4.306-1.535-9.15-3.104-13.462-4.625-3.038-1.07-6.05-2.15-9.028-3.276-1.469-.557-2.992-1.048-4.507-1.52-1.456-.455-3.21-.75-4.255-2.079z"/></g><g opacity=".62"><path fill="#fff" d="M20.324 150.116c-.09-.632 1.49-1.59 2.219-1.737 1.18-.24 3.596.692 5.062 1.116 5.054 1.456 10.26 3.1 15.298 4.646 5.45 1.673 9.868 2.975 15.327 5.002 1.626.603 4.035 1.454 5.093 2.898.63.864 1 3.308.07 4.34-1.135 1.262-3.85.355-5.194-.568-.74-.51-1.334-1.26-2.049-1.848-1.445-1.193-3.02-1.795-4.574-2.349-4.306-1.535-9.15-3.104-13.462-4.625-3.038-1.07-6.05-2.15-9.028-3.276-1.469-.557-2.992-1.048-4.507-1.52-1.456-.455-3.21-.75-4.255-2.079z"/></g></g><g><g><path fill="#8f7ece" d="M26.229 149.067a98.99 98.99 0 0 0-.536-.167c-1.136.798-2.264 1.699-3.393 2.585.184.073.37.138.559.2.582-.428 1.163-.886 1.741-1.338.544-.425 1.098-.844 1.629-1.28z"/></g><g><path fill="#8f7ece" d="M30.787 150.43c-.183.142-.35.325-.517.448-.923.673-1.973 1.453-2.88 2.231.207.07.413.138.619.212 1.049-.817 2.077-1.867 3.118-2.79-.114-.035-.226-.068-.34-.101z"/></g><g><path fill="#8f7ece" d="M36.815 152.26c-1.282.879-2.672 1.84-3.905 2.869l.456.166a72.363 72.363 0 0 0 3.867-2.905c-.14-.042-.279-.087-.418-.13z"/></g><g><path fill="#8f7ece" d="M41.672 153.76a33.032 33.032 0 0 0-3.662 3.19c.035.012.069.026.102.036.094.035.193.069.29.101a59.539 59.539 0 0 0 3.658-3.21l-.388-.117z"/></g><g><path fill="#8f7ece" d="M46.773 155.33c-1.278.916-2.539 2.029-3.783 3.343l.43.144c1.239-1.072 2.528-2.284 3.718-3.374-.122-.037-.243-.074-.365-.113z"/></g><g><path fill="#8f7ece" d="M51.8 156.91c-1.223.954-2.767 2.177-3.98 3.4.159.054.316.109.474.161 1.277-1.108 2.543-2.356 3.822-3.458-.105-.033-.212-.07-.316-.103z"/></g><g><path fill="#8f7ece" d="M56.568 158.538c-.15-.053-.3-.107-.448-.158-1.288 1.075-2.591 2.283-3.84 3.496.2.074.4.152.6.232.067-.068.133-.135.2-.2a116.285 116.285 0 0 1 3.488-3.37z"/></g><g><path fill="#8f7ece" d="M60.711 160.141a25.427 25.427 0 0 0-.354-.161c-.33.362-.665.731-1.018 1.093-.966.988-2.055 2.067-2.849 3.189.123.114.246.232.367.35 1.294-1.368 2.568-2.983 3.854-4.47z"/></g><g><path fill="#8f7ece" d="M61.03 166.934c.137.022.274.037.41.048.83-.939 1.664-1.997 2.488-2.979a4.884 4.884 0 0 0-.039-.333c-.954 1.07-1.903 2.213-2.859 3.264z"/></g></g></g><g><g><path fill="#fff" d="M61.988 168.956c.765-.27 2.101.02 3.398.383.554.157 1.448.422 1.366.94-.1.617-1.161.475-1.542.424-1.202-.164-2.623-.607-3.31-1.066-.098-.165-.043-.502.088-.681z"/></g><g><path fill="#fff" d="M65.65 168.063c-.041-1.315 2.79-.923 2.524.137-.116.458-1.554.783-2.187.461-.226-.116-.329-.371-.337-.598z"/></g></g></g></g><g><path fill="#b1bc00" d="M21.81 168.477a2.883 2.883 0 0 0 3.654 1.827l6.917-2.338a.406.406 0 0 0 .255-.517.403.403 0 0 0-.516-.258l-6.916 2.338a2.068 2.068 0 0 1-2.62-1.311 2.087 2.087 0 0 1 1.301-2.639l7.99-2.703a1.446 1.446 0 0 1 1.833.918 1.457 1.457 0 0 1-.911 1.84l-6.604 2.235a.851.851 0 0 1-1.08-.54.864.864 0 0 1 .537-1.088l4.887-1.65a.407.407 0 0 0 .255-.52.403.403 0 0 0-.514-.257l-4.887 1.65a1.686 1.686 0 0 0-1.048 2.128 1.67 1.67 0 0 0 2.11 1.057l6.604-2.233a2.283 2.283 0 0 0 1.422-2.882 2.259 2.259 0 0 0-2.86-1.436l-7.993 2.703c-1.508.51-2.321 2.157-1.816 3.676z"/></g><g><g><path fill="#4d3d87" d="M116.736 160.155a.68.68 0 0 1-.402-.003.682.682 0 0 1-.433-.44l-2.931-9.57a.675.675 0 0 1 .44-.84l20.418-5.631a.665.665 0 0 1 .835.446l2.536 8.278a.671.671 0 0 1-.44.84l-19.257 6.655z"/></g><g><path fill="#b1bc00" d="M103.995 159.86l-8.251 2.562-1.652-1.694-.922-.947 9.864-3.061z"/></g><g><path fill="#4d3d87" d="M109.538 163.934l-4.328 1.343a.84.84 0 0 1-1.051-.56l-1.005-3.274a.84.84 0 0 0-1.053-.56l-2.817.872a.84.84 0 0 1-1.054-.56l-.693-2.265a.853.853 0 0 1 .556-1.06l2.819-.874a.85.85 0 0 0 .557-1.06l-1.005-3.273a.855.855 0 0 1 .557-1.062l4.327-1.343a.843.843 0 0 1 1.054.56l3.693 12.054a.847.847 0 0 1-.557 1.062z"/></g><g><path fill="#b1bc00" d="M109.386 164.149a.872.872 0 0 1-.516-.003.872.872 0 0 1-.558-.57l-3.774-12.32a.88.88 0 0 1 .142-.788.886.886 0 0 1 .426-.295l26.293-7.254a.856.856 0 0 1 1.074.575l3.266 10.659a.868.868 0 0 1-.566 1.087l-24.8 8.566z"/></g><g><g><g><path fill="#fff" d="M126.56 145.712c.688.322 1.96.178 3.203-.04.53-.094 1.387-.259 1.356-.749-.034-.581-1.037-.551-1.395-.538-1.136.041-2.5.323-3.181.685-.11.145-.089.464.018.642z"/></g><g><path fill="#fff" d="M129.897 146.887c-.16 1.22 2.514 1.118 2.362.107-.066-.44-1.378-.876-1.995-.635-.221.087-.34.313-.367.528z"/></g></g><g><g><path fill="#fff" d="M108.48 156.53c.724.45 1.373 1.74 1.936 3.047.24.56.614 1.469.14 1.743-.565.327-1.154-.639-1.363-.984-.662-1.098-1.241-2.559-1.323-3.428.067-.19.377-.366.61-.378z"/></g><g><path fill="#fff" d="M111.637 158.95c1.039-.904 2.592 1.683 1.557 2.164-.449.208-1.664-.76-1.822-1.49-.055-.264.085-.515.265-.674z"/></g></g></g><g><g><g><path fill="#4d3d87" d="M93.952 168.941l-1.009.278-5.962.981a.861.861 0 0 1-1.077-.576l-3.265-10.659a.868.868 0 0 1 .568-1.087l6.463-2.911a.857.857 0 0 1 1.073.573l3.776 12.32a.878.878 0 0 1-.142.788.868.868 0 0 1-.425.294z"/></g></g><g><g><path fill="#fff" d="M86.643 166.22c-.74-.412-1.763-3.717-.624-3.997.929-.228 1.765 2.709 1.338 3.617-.11.236-.25.344-.714.38z"/></g><g><path fill="#fff" d="M88.29 161.767c-.967.6-1.413-1.074-.828-1.42"/></g><g><path fill="#fff" d="M85.436 160.835c-1.01.378-1.67-2.174-.706-2.396.407-.093.58.157.833.63.374.695.579 1.502-.127 1.766z"/></g></g></g></g></g></g><g><g><g><path fill="#fff" d="M98.79 126.617c.068-1.218 1.23-2.907 2.47-4.498.53-.681 1.409-1.769 2.066-1.36.793.491-.01 1.888-.297 2.383-.915 1.578-2.334 3.294-3.356 3.986-.281.044-.713-.226-.883-.51z"/></g><g><path fill="#fff" d="M101.324 119.378c-1.827-.695.332-4.401 1.63-3.425.563.425.183 2.608-.618 3.3-.288.247-.695.244-1.012.125z"/></g><g><path fill="#fff" d="M101.481 109.444c-.67-.178-.81-1.18-.575-2.162.188-.79.908-2.214 1.694-1.72.35.218.567 1.005.393 1.826-.202.964-.65 2.283-1.512 2.056z"/></g></g><g><g><path fill="#fff" d="M49.185 112.238c-2.057.95-1.897-4.949.074-3.903"/></g><g><path fill="#fff" d="M46.933 115.5c.191-.44.825-1.24 1.675-.784 1.11.595 1.213 3.138 1.443 4.138.281 1.217 1.353 3.378.326 4.333-1.466 1.36-2.545-2.107-2.868-3.314-.17-.642-.276-1.287-.394-1.837-.2-.942-.554-1.686-.182-2.535z"/></g></g></g></g></g></g></svg>