<svg xmlns="http://www.w3.org/2000/svg" width="117" height="161" viewBox="0 0 117 161"><g><g><g/><g><g opacity=".35"><g opacity=".07"><path fill="#000072" d="M58.502 160.998c26.544 0 48.062-6.245 48.062-13.949S85.046 133.1 58.502 133.1c-26.544 0-48.062 6.245-48.062 13.95 0 7.703 21.518 13.948 48.062 13.948z"/></g></g><g><g><path fill="#60547b" d="M75 128.508l7.635-.234.755 7.393c-1.47-22.304 20.848-15.904 14.122 0-3.683 10.586-13.835 12.534-22.511 6.716z"/></g></g><g><g><path fill="#60547b" d="M42.009 128.508v13.876c-8.535 5.718-18.489 3.934-22.318-6.194-.067-.172-.13-.349-.193-.525-6.644-15.702 15.034-22.139 14.162-.825v.003a33.9 33.9 0 0 1-.042.821l.095-.92.661-6.472z"/></g></g><g opacity=".3"><g opacity=".09"><path fill="#760153" d="M62.39 141.474l.011-.004v.004a11.89 11.89 0 0 0-.011.01z"/></g><g opacity=".09"><path fill="#000072" d="M62.26 141.828l-.01-.453.11-.048.195-.067v.268l-.043.047z"/></g></g><g opacity=".3"><g opacity=".09"><path fill="#000072" d="M42.008 134v8.383c-8.535 5.718-18.488 3.934-22.318-6.194 5.133 3.984 10.045 5.916 13.97-1.346v-.003l.052-.096c.043-.081.088-.166.13-.25z"/></g></g><g opacity=".3"><g opacity=".09"><path fill="#000072" d="M75 134v8.383c8.535 5.718 18.488 3.934 22.318-6.194-5.133 3.984-10.045 5.916-13.97-1.346v-.003l-.053-.096-.13-.25z"/></g></g><g><g><path fill="#fff" d="M82.167 114.531l-9.455 8.126-3.057 2.627-17.753 2.714-7.614-5.062-11.398-7.58 3.542-9.17 2.276-5.886.71-1.84 38.392 1.537.123.405 1.855 6.19z"/></g><g><path fill="#000072" d="M51.868 128.155L32.71 115.416l6.61-17.106.105.004 38.496 1.541.154.506 4.261 14.222-12.616 10.842-.042.006zM33.071 115.3l18.865 12.544 17.656-2.7 12.407-10.66-4.3-14.342-38.181-1.53z"/></g></g><g><g><path fill="#0399ff" d="M62.407 147.05c-2.6 2.251-5.198 2.251-7.797 0v-24.41c2.599 1.898 5.198 1.898 7.797 0z"/></g></g><g><g><path fill="#0399ff" d="M42 142.57l12.604 4.48v-24.41L42 118.16z"/></g></g><g><g><path fill="#fff" d="M74.992 118.16l-2.729-3.837s-7.967-3.08-11.974 6.004a6.336 6.336 0 0 0-3.584.004c-4.007-9.09-11.976-6.008-11.976-6.008L42 118.16l12.678 3.942c-.046.17-.074.348-.074.539h1.57l2.323.868 2.119-.868h1.785c0-.246-.044-.472-.119-.683l.395-.162z"/></g><g><path fill="#000072" d="M58.507 123.669l-2.351-.88h-1.69v-.148c0-.147.014-.291.045-.438L41.77 118.24l2.873-4.039.041-.016c.081-.032 8.078-3 12.112 5.967a6.574 6.574 0 0 1 3.42-.003c4.034-8.965 12.03-5.995 12.11-5.964l.04.016 2.875 4.042-12.514 3.694-.254.105c.056.197.083.394.083.598v.148h-1.903zm-2.273-1.167l2.268.849 2.122-.858h1.632a1.877 1.877 0 0 0-.104-.486l-.047-.133.525-.215 12.13-3.582-2.582-3.63c-.68-.25-7.948-2.67-11.745 5.94l-.054.12-.125-.038c-1.08-.333-2.42-.332-3.497.004l-.126.04-.053-.121c-3.759-8.529-11.134-6.16-11.748-5.944l-2.583 3.632 12.618 3.924-.037.138c-.032.119-.053.235-.062.35z"/></g></g><g opacity=".2"><g opacity=".04"><path fill="#000072" d="M74.992 118.16l-2.729-3.837s-7.967-3.08-11.974 6.004a6.336 6.336 0 0 0-3.584.004c-4.007-9.09-11.976-6.008-11.976-6.008L42 118.16l12.678 3.942c-.046.17-.074.348-.074.539h1.57l2.323.868 2.119-.868h1.785c0-.246-.044-.472-.119-.683l.395-.162z"/></g></g><g><g><path fill="#0399ff" d="M74.994 142.57l-12.604 4.48v-24.41l12.604-4.48z"/></g></g><g opacity=".55"><g opacity=".3"><path fill="#fff" d="M62.407 122.64v2.82c-.004.004-.008.004-.01.007-2.594 1.894-5.19 1.89-7.787-.007v-2.82c2.597 1.897 5.193 1.9 7.786.007l.01-.007z"/></g></g><g opacity=".55"><g opacity=".3"><path fill="#fff" d="M54.603 122.64v2.82L42 120.98v-2.82z"/></g></g><g opacity=".55"><g opacity=".3"><path fill="#fff" d="M74.993 118.16v2.82l-12.592 4.477v.004c-.004.003-.008.003-.011.007v-2.828z"/></g></g><g opacity=".55"><g opacity=".3"><path fill="#fff" d="M62.401 125.46v.004c-.003.003-.007.003-.011.007v-.007z"/></g><g opacity=".3"><path fill="#000072" d="M62.25 125.821v-.462l.295-.109.01.268z"/></g></g><g><g><path fill="#000072" d="M58.508 149.986c-1.582 0-3.164-.666-4.702-1.998a1.235 1.235 0 0 1-.426-.934v-24.41c0-.464.26-.89.672-1.1.412-.21.907-.171 1.282.102 2.166 1.582 4.184 1.582 6.349 0 .374-.273.869-.312 1.281-.102.413.21.672.636.672 1.1v24.41c0 .358-.155.7-.426.934-1.538 1.332-3.12 1.998-4.702 1.998zm-2.668-3.52c1.829 1.391 3.507 1.391 5.337 0v-21.714c-1.769.727-3.57.727-5.337 0z"/></g></g><g><g><path fill="#000072" d="M54.604 148.287c-.138 0-.278-.023-.41-.07l-12.605-4.48a1.233 1.233 0 0 1-.819-1.164v-24.41A1.227 1.227 0 0 1 42.41 117l12.605 4.48c.491.176.819.641.819 1.164v24.41a1.235 1.235 0 0 1-1.23 1.233zm-11.374-6.585l10.144 3.606v-21.792l-10.144-3.607z"/></g></g><g><g><path fill="#60547b" d="M44.289 122.936c.024 2.45-1.346 4.608-3.697 5.534l-6.226-.193a14.23 14.23 0 0 1-1.475-.624c-1.377-4.509-4.35-6.445-7.263-6.406-4.082-6.535-1.971-14.002 1.31-19.276 1.023-1.64 2.158-3.07 3.254-4.191l8.517 2.52 4.375 1.294-4.396 5.14c-.028.04-.053.082-.08.12-2.422 3.702-1.34 7.396 3.253 11.094 1.282 1.033 2.178 2.552 2.382 4.237.028.254.046.5.046.75z"/></g></g><g opacity=".55"><g opacity=".3"><path fill="#fff" d="M18.379 131.827c1.05-9.398 14.047-11.376 15.294 2.668"/></g></g><g><g><path fill="#000072" d="M37.952 130.178c-1.75 0-3.654-.472-5.598-1.415a1.236 1.236 0 0 1-.571-1.648 1.228 1.228 0 0 1 1.642-.574c3.054 1.483 5.883 1.56 7.762.21 1.367-.982 2.053-2.633 1.835-4.417-.162-1.316-.867-2.566-1.934-3.428-6.48-5.22-5.434-9.878-3.418-12.864a1.228 1.228 0 0 1 1.708-.33c.563.383.71 1.15.329 1.714-1.353 2.002-2.521 5.17 2.921 9.557 1.562 1.262 2.595 3.102 2.835 5.05.33 2.694-.733 5.208-2.844 6.724-1.319.947-2.915 1.42-4.667 1.42z"/></g></g><g><g><path fill="#000072" d="M32.228 146.838c-1.556 0-3.073-.237-4.51-.72-4.292-1.44-7.62-4.993-9.375-10.004-2.267-5.391-1.66-10.511 1.627-13.704 2.476-2.403 5.987-3.068 8.947-1.692 2.017.937 6.632 4.278 5.923 15.031a1.225 1.225 0 0 1-1.308 1.15 1.232 1.232 0 0 1-1.146-1.312c.428-6.498-1.213-11.101-4.503-12.631-2.03-.943-4.463-.462-6.202 1.227-2.535 2.462-2.93 6.576-1.058 11.003.01.025.02.05.028.075 1.517 4.357 4.23 7.302 7.846 8.516 3.901 1.31 8.575.429 12.822-2.419a1.226 1.226 0 0 1 1.705.34 1.237 1.237 0 0 1-.339 1.712c-3.366 2.258-7.005 3.428-10.457 3.428z"/></g></g><g><g><path fill="#000072" d="M25.638 122.484c-.41 0-.81-.205-1.042-.579-2.563-4.1-3.116-9.002-1.6-14.177 1.137-3.88 3.501-7.921 6.323-10.808a1.227 1.227 0 0 1 1.739-.017c.485.477.492 1.258.016 1.745-4.441 4.542-9.277 14.136-4.396 21.946.361.577.187 1.339-.388 1.701a1.222 1.222 0 0 1-.652.189z"/></g></g><g><g><path fill="#000072" d="M62.406 123.878c-.68 0-1.23-.552-1.23-1.234 0-.138 0-.505-.609-.862-.514-.301-1.265-.474-2.06-.474-1.31 0-2.668.5-2.668 1.336 0 .682-.55 1.234-1.23 1.234-.679 0-1.229-.552-1.229-1.234 0-2.24 2.108-3.804 5.128-3.804s5.128 1.564 5.128 3.804c0 .682-.551 1.234-1.23 1.234z"/></g></g><g><g><path fill="#000072" d="M56.706 121.568a1.23 1.23 0 0 1-1.126-.735c-3.073-6.973-8.659-5.874-10.085-5.46l-2.494 3.506a1.228 1.228 0 0 1-1.715.288 1.237 1.237 0 0 1-.287-1.721l2.728-3.837c.14-.196.335-.348.56-.435.09-.034 9.114-3.388 13.542 6.66a1.235 1.235 0 0 1-1.123 1.734z"/></g></g><g><g><path fill="#a36997" d="M82.636 128.28c-2.46.885-4.582.842-6.226.194"/></g><g><path fill="#000072" d="M79.05 129.099a7.333 7.333 0 0 1-2.703-.49l-.667-.264 7.875-.245-.878.316c-1.263.454-2.484.683-3.626.683zm-1.784-.507c1.289.321 2.743.275 4.286-.134z"/></g></g><g opacity=".55"><g opacity=".3"><path fill="#fff" d="M98.627 131.827c-1.05-9.398-14.046-11.376-15.294 2.668"/></g></g><g><g><path fill="#000072" d="M62.39 148.287a1.235 1.235 0 0 1-1.23-1.234v-24.41c0-.522.328-.988.819-1.162L74.583 117a1.229 1.229 0 0 1 1.64 1.162v24.41c0 .523-.327.989-.818 1.163l-12.604 4.48c-.134.048-.273.071-.41.071zm1.23-24.772v21.793l10.144-3.606V119.91z"/></g></g><g><g><path fill="#60547b" d="M91.372 121.247c-2.913-.039-5.885 1.897-7.262 6.406-.506.246-.998.454-1.476.624-2.46.884-4.582.842-6.226.194-2.439-.96-3.823-3.247-3.69-5.813.008-.16.022-.314.04-.473.203-1.685 1.1-3.204 2.382-4.238 4.54-3.655 5.65-7.307 3.334-10.967-.052-.08-.105-.165-.161-.246l-4.396-5.14 4.023-1.191 8.868-2.623c1.146 1.17 2.334 2.68 3.388 4.41 3.207 5.26 5.206 12.61 1.176 19.057z"/></g></g><g><g><path fill="#000072" d="M60.29 121.568a1.235 1.235 0 0 1-1.124-1.733c4.428-10.05 13.453-6.695 13.542-6.66.225.086.42.238.56.434l2.728 3.837a1.236 1.236 0 0 1-.287 1.721 1.228 1.228 0 0 1-1.715-.288l-2.495-3.507c-1.418-.412-7.01-1.517-10.085 5.461-.202.46-.652.735-1.124.735z"/></g></g><g><g><path fill="#000072" d="M84.775 146.838c-3.453 0-7.091-1.17-10.459-3.428a1.236 1.236 0 0 1-.339-1.712 1.226 1.226 0 0 1 1.706-.34c4.247 2.848 8.92 3.73 12.822 2.42 3.616-1.215 6.329-4.16 7.845-8.517l.03-.075c1.872-4.428 1.476-8.541-1.059-11.003-1.738-1.688-4.173-2.17-6.202-1.227-3.29 1.53-4.931 6.133-4.504 12.631a1.23 1.23 0 0 1-2.453.162c-.709-10.753 3.906-14.094 5.923-15.031 2.961-1.376 6.472-.712 8.947 1.693 3.287 3.192 3.894 8.312 1.626 13.703-1.754 5.011-5.081 8.564-9.374 10.004-1.436.483-2.954.72-4.51.72z"/></g></g><g><g><path fill="#000072" d="M79.04 130.177c-1.752 0-3.348-.473-4.666-1.42-2.112-1.516-3.175-4.03-2.845-6.724.24-1.948 1.272-3.789 2.833-5.05 5.444-4.386 4.276-7.555 2.923-9.557a1.236 1.236 0 0 1 .329-1.714 1.227 1.227 0 0 1 1.708.33c2.017 2.987 3.061 7.643-3.419 12.865-1.066.86-1.77 2.11-1.933 3.428-.218 1.783.467 3.433 1.835 4.416 1.879 1.35 4.708 1.273 7.762-.21a1.228 1.228 0 0 1 1.642.574c.296.614.04 1.351-.572 1.648-1.941.942-3.847 1.414-5.597 1.414z"/></g></g><g><g><path fill="#000072" d="M91.369 122.484a1.237 1.237 0 0 1-1.04-1.89c4.88-7.81.044-17.404-4.397-21.946a1.237 1.237 0 0 1 .017-1.745 1.227 1.227 0 0 1 1.738.017c2.823 2.887 5.186 6.927 6.323 10.808 1.516 5.175.964 10.078-1.6 14.177a1.227 1.227 0 0 1-1.041.579z"/></g></g><g><g><path fill="#60547b" d="M38.691 14.432L23.386 31.903 12.695 44.104A20.478 20.478 0 0 1 1.23 25.695c0-2.595.482-5.08 1.36-7.364C5.538 10.657 12.958 5.21 21.647 5.21c7.126 0 13.394 3.67 17.044 9.222z"/></g></g><g><g><path fill="#60547b" d="M104.308 44.102a20.474 20.474 0 0 0 11.465-18.408c0-11.31-9.138-20.484-20.416-20.484-7.126 0-13.396 3.667-17.047 9.221"/></g></g><g opacity=".55"><g opacity=".3"><path fill="#fff" d="M115.518 22.47c-2.934-7.69-10.363-13.148-19.063-13.148-6.435 0-12.172 2.991-15.907 7.66l-2.238-2.55c3.65-5.555 9.92-9.222 17.047-9.222 10.184 0 18.626 7.481 20.161 17.26z"/></g></g><g opacity=".3"><g opacity=".09"><path fill="#000072" d="M23.386 26.773v5.13l-10.691 12.2A20.479 20.479 0 0 1 1.23 25.695c0-2.594.482-5.08 1.36-7.364 4.8 11.623 13.01 13.678 20.796 8.443z"/></g></g><g opacity=".3"><g opacity=".09"><path fill="#000072" d="M90.19 102.19c-3.17 1.802-6.658 3.272-10.4 4.403a41.08 41.08 0 0 1-1.321.388c-6.047 1.685-12.712 2.531-19.71 2.531-7.172 0-13.988-.888-20.15-2.658a52.61 52.61 0 0 1-2.176-.666c-3.404-1.121-6.587-2.528-9.493-4.217 1.023-1.64 2.157-3.07 3.254-4.191l8.516 2.52.71-1.84 38.392 1.537.123.406 8.868-2.623c1.145 1.17 2.333 2.68 3.387 4.41z"/></g></g><g opacity=".3"><g opacity=".09"><path fill="#000072" d="M93.61 26.773v5.13l10.692 12.2a20.477 20.477 0 0 0 11.464-18.409c0-2.594-.481-5.08-1.36-7.364-4.799 11.623-13.01 13.678-20.796 8.443z"/></g></g><g opacity=".55"><g opacity=".3"><path fill="#fff" d="M1.36 22.47C4.295 14.78 11.723 9.322 20.423 9.322c6.435 0 12.172 2.991 15.907 7.66l2.238-2.55c-3.65-5.555-9.92-9.222-17.047-9.222-10.184 0-18.626 7.481-20.161 17.26z"/></g></g><g><g><path fill="#fff" d="M108.432 64.078c0 25.895-22.355 39.015-49.93 39.015-27.577 0-49.932-13.12-49.932-39.015C8.57 38.183 30.925 9.32 58.501 9.32c27.576 0 49.931 28.864 49.931 54.758z"/></g><g><path fill="#000072" d="M23.105 93.414C13.498 86.484 8.42 76.34 8.42 64.076c0-12.665 5.48-26.567 14.66-37.186C32.959 15.462 45.538 9.17 58.5 9.17c12.962 0 25.54 6.293 35.418 17.72 9.18 10.619 14.66 24.52 14.66 37.186 0 12.264-5.078 22.409-14.685 29.338-8.912 6.427-21.151 9.824-35.393 9.824s-26.482-3.397-35.393-9.824zM58.5 9.466c-28.038 0-49.784 29.356-49.784 54.61 0 23.61 19.541 38.867 49.784 38.867 30.242 0 49.784-15.256 49.784-38.867 0-25.254-21.747-54.61-49.784-54.61z"/></g></g><g opacity=".3"><g opacity=".09"><path fill="#000072" d="M108.431 64.08c0 25.893-22.353 39.015-49.93 39.015-27.578 0-49.931-13.122-49.931-39.015 0-2.495.208-5.016.608-7.54 3.745 21.173 24.401 31.89 49.323 31.89s45.577-10.717 49.323-31.89c.4 2.524.607 5.044.607 7.54z"/></g></g><g><g><path fill="#000072" d="M58.501 104.33c-14.47 0-26.927-3.468-36.024-10.029C12.574 87.16 7.34 76.71 7.34 64.081c0-12.919 5.58-27.086 14.925-37.897 4.786-5.537 10.247-9.924 16.234-13.04C44.939 9.79 51.668 8.09 58.5 8.09c6.832 0 13.562 1.7 20.001 5.053 5.987 3.117 11.449 7.505 16.234 13.04 9.346 10.812 14.925 24.98 14.925 37.899 0 12.628-5.234 23.077-15.136 30.22-9.096 6.56-21.553 10.028-36.024 10.028zm0-93.772C31.074 10.558 9.8 39.33 9.8 64.082c0 22.95 19.116 37.78 48.701 37.78s48.702-14.83 48.702-37.78c0-24.752-21.275-53.524-48.702-53.524z"/></g></g><g><g><g><path fill="#000072" d="M67.132 64.002c0 2.654-3.867 4.805-8.636 4.805-4.77 0-8.636-2.151-8.636-4.805s3.867-3.702 8.636-3.702c4.77 0 8.636 1.048 8.636 3.702z"/></g></g><g><g><path fill="#000072" d="M51.217 76.897a8.405 8.405 0 0 1-3.507-.761c-2.688-1.23-4.469-3.762-5.014-7.13a1.234 1.234 0 0 1 1.017-1.416 1.231 1.231 0 0 1 1.411 1.02c.409 2.529 1.69 4.404 3.606 5.28 2.786 1.277 6.16.236 7.68-2.37.57-.968.859-2.104.859-3.379 0-.472-.043-.978-.126-1.502a1.234 1.234 0 0 1 1.02-1.413 1.23 1.23 0 0 1 1.409 1.023c.104.652.157 1.289.157 1.892 0 1.722-.403 3.28-1.198 4.63-1.53 2.622-4.382 4.126-7.314 4.126z"/></g></g><g><g><path fill="#000072" d="M69.66 75.652s-.193 5.818-2.765 7.755c-4.291-5.416-12.502-5.416-16.793 0l-2.242-4.735v-3.02l.363-.643c3.24 1.484 7.367.359 9.251-2.869.693.004 1.385.004 2.059.004 1.917 3.28 6.152 4.387 9.411 2.784.424.426.716.724.716.724z"/></g></g><g><g><path fill="#ff2c4b" d="M66.456 83.914c-4.234 4.746-11.691 4.746-15.926 0 1.357-3.052 4.414-5.184 7.96-5.184 3.552 0 6.61 2.132 7.966 5.184z"/></g></g><g><g><path fill="#000072" d="M65.82 76.883c-2.936 0-5.824-1.5-7.35-4.11-.794-1.341-1.2-2.902-1.2-4.632 0-.603.053-1.24.157-1.892a1.23 1.23 0 1 1 2.429.39 9.628 9.628 0 0 0-.126 1.502c0 1.28.289 2.416.858 3.377 1.541 2.637 5.045 3.669 7.814 2.307 1.303-.64 2.963-2.064 3.473-5.215a1.23 1.23 0 1 1 2.427.395c-.529 3.271-2.24 5.77-4.818 7.036a8.293 8.293 0 0 1-3.664.842z"/></g></g><g><g><path fill="#000072" d="M58.501 88.702a11.909 11.909 0 0 1-8.879-3.97c-2.296-2.556-3.512-6.091-3.512-10.218 0-.682.55-1.234 1.23-1.234.679 0 1.229.552 1.229 1.234 0 3.507.997 6.47 2.882 8.57a9.454 9.454 0 0 0 7.05 3.15 9.452 9.452 0 0 0 7.047-3.147c1.888-2.102 2.885-5.065 2.885-8.573 0-.681.55-1.233 1.23-1.233.679 0 1.23.552 1.23 1.233 0 4.128-1.216 7.663-3.515 10.222a11.911 11.911 0 0 1-8.877 3.966z"/></g></g><g><g><path fill="#000072" d="M66.893 84.64c-.362 0-.72-.16-.963-.465a9.435 9.435 0 0 0-7.434-3.597 9.433 9.433 0 0 0-7.434 3.596 1.226 1.226 0 0 1-1.727.198 1.237 1.237 0 0 1-.198-1.733 11.879 11.879 0 0 1 9.359-4.529c3.668 0 7.079 1.65 9.36 4.528a1.236 1.236 0 0 1-.963 2.003z"/></g></g></g><g><g><path fill="#60547b" d="M41.852 66.557c-.146.813-.243 1.62-.294 2.415-.192 2.97-2.565 5.305-5.256 4.994-.263-.03-.527-.069-.79-.116-7.546-1.361-12.426-9.35-10.904-17.847 1.522-8.492 8.87-14.275 16.414-12.915 3.195.577 5.912 2.341 7.868 4.83 1.776 2.259 1.345 5.73-.918 7.555-2.952 2.38-5.27 6.34-6.12 11.084z"/></g></g><g><g><path fill="#60547b" d="M75.146 65.207c.145.813.243 1.62.294 2.415.192 2.97 2.565 5.305 5.256 4.994.263-.03.526-.069.79-.116 7.546-1.361 12.426-9.35 10.903-17.847-1.521-8.492-8.869-14.275-16.414-12.915-3.195.577-5.912 2.341-7.868 4.83-1.775 2.259-1.344 5.73.918 7.555 2.953 2.38 5.27 6.34 6.12 11.084z"/></g></g><g><g><path fill="#fff" d="M48.801 16.365C46.615-.521 63.987-3.924 59.604 9.438c2.108-3.954 8.726-3.415 3.392 3.938 5.33-6.038 9.15-.141 4.675 3.07"/></g><g><path fill="#000072" d="M67.756 16.569l-.172-.241c1.642-1.179 2.044-2.654 1.872-3.642-.144-.836-.69-1.465-1.459-1.683-1.375-.391-3.16.51-4.892 2.474l-.23-.186C65.19 10.1 65.01 8.568 64.697 7.94c-.25-.5-.758-.781-1.43-.79h-.033c-1.086 0-2.634.734-3.501 2.361l-.27-.116c1.113-3.393.89-6.055-.609-7.302-1.142-.952-2.94-.941-4.689.027-3.04 1.681-6.23 6.416-5.22 14.23l-.292.038c-1.03-7.961 2.248-12.801 5.37-14.527 1.858-1.028 3.781-1.026 5.02.004 1.451 1.208 1.794 3.612.98 6.678.946-1.158 2.246-1.689 3.212-1.689h.035c.788.01 1.388.35 1.69.954.488.98.13 2.515-1.008 4.4 1.467-1.291 2.925-1.829 4.125-1.488.88.25 1.504.967 1.669 1.916.188 1.077-.237 2.675-1.99 3.933z"/></g></g><g><g><path fill="#000072" d="M67.673 17.68a1.237 1.237 0 0 1-.717-2.237c1.234-.887 1.55-1.911 1.436-2.574-.043-.247-.19-.682-.688-.824-.73-.208-2.109.246-3.788 2.148a1.227 1.227 0 0 1-1.69.144 1.236 1.236 0 0 1-.224-1.688c1.794-2.475 1.931-3.821 1.728-4.227-.061-.123-.221-.187-.476-.191-.79-.012-1.939.612-2.565 1.787-.3.564-.982.804-1.569.553a1.235 1.235 0 0 1-.684-1.52c.952-2.903.851-5.194-.271-6.128-.792-.66-2.125-.605-3.476.143-2.742 1.516-5.61 5.867-4.669 13.14a1.23 1.23 0 0 1-2.439.317C46.482 8.02 50.084 2.795 53.503.905c2.257-1.248 4.646-1.202 6.234.12.844.703 1.966 2.191 1.8 5.078a4.573 4.573 0 0 1 1.751-.339c1.195.016 2.158.583 2.643 1.554.337.675.419 1.466.248 2.369.938-.25 1.69-.16 2.197-.016 1.29.367 2.203 1.404 2.44 2.775.31 1.789-.62 3.706-2.427 5.003-.217.156-.467.23-.715.23z"/></g></g><g><g><path fill="#000072" d="M12.694 45.33c-.181 0-.365-.04-.539-.125C4.658 41.532 0 34.053 0 25.687 0 13.712 9.71 3.97 21.645 3.97c7.293 0 14.05 3.654 18.074 9.776a1.236 1.236 0 0 1-.35 1.709 1.227 1.227 0 0 1-1.703-.351c-3.567-5.427-9.557-8.667-16.021-8.667-10.58 0-19.186 8.636-19.186 19.25 0 7.415 4.129 14.044 10.775 17.3a1.236 1.236 0 0 1-.54 2.343z"/></g></g><g><g><path fill="#000072" d="M104.308 45.33a1.235 1.235 0 0 1-.54-2.343c6.646-3.256 10.775-9.885 10.775-17.3 0-10.614-8.607-19.25-19.186-19.25-6.464 0-12.453 3.24-16.02 8.667a1.227 1.227 0 0 1-1.704.35 1.236 1.236 0 0 1-.35-1.708c4.024-6.121 10.78-9.776 18.074-9.776 11.935 0 21.645 9.742 21.645 21.717 0 8.366-4.658 15.845-12.156 19.518a1.234 1.234 0 0 1-.538.124z"/></g></g><g><g><path fill="#000072" d="M83.14 58.444c0 3.655-2.414 6.616-5.397 6.616-2.98 0-5.393-2.96-5.393-6.617 0-3.652 2.414-6.613 5.393-6.613 2.983 0 5.397 2.961 5.397 6.614zm-2-1.136c0-1.082-.628-1.96-1.394-1.96-.773 0-1.402.878-1.402 1.96 0 1.085.63 1.963 1.402 1.963.766 0 1.395-.877 1.395-1.963z"/></g></g><g><g><path fill="#fff" d="M81.137 57.3c0 1.086-.629 1.964-1.395 1.964-.773 0-1.402-.878-1.402-1.964 0-1.082.63-1.96 1.402-1.96.766 0 1.395.878 1.395 1.96z"/></g><g><path fill="#000072" d="M79.75 59.333c-.81 0-1.47-.912-1.47-2.033 0-1.12.66-2.03 1.47-2.03.808 0 1.465.91 1.465 2.03 0 1.12-.657 2.033-1.464 2.033zm0-3.924c-.734 0-1.331.848-1.331 1.89 0 1.045.597 1.895 1.332 1.895.73 0 1.325-.85 1.325-1.894 0-1.042-.594-1.89-1.325-1.89z"/></g></g><g><g><path fill="#000072" d="M44.65 58.444c0 3.655-2.414 6.616-5.397 6.616-2.98 0-5.393-2.96-5.393-6.617 0-3.652 2.414-6.613 5.393-6.613 2.983 0 5.396 2.961 5.397 6.614zm-2-1.136c0-1.082-.629-1.96-1.395-1.96-.772 0-1.402.878-1.402 1.96 0 1.085.63 1.963 1.402 1.963.767 0 1.395-.877 1.395-1.963z"/></g></g><g><g><path fill="#fff" d="M42.647 57.3c0 1.086-.629 1.964-1.395 1.964-.773 0-1.402-.878-1.402-1.964 0-1.082.63-1.96 1.402-1.96.766 0 1.395.878 1.395 1.96z"/></g><g><path fill="#000072" d="M41.25 59.333c-.81 0-1.47-.912-1.47-2.033 0-1.12.66-2.03 1.47-2.03.808 0 1.465.91 1.465 2.03 0 1.12-.657 2.033-1.464 2.033zm0-3.924c-.734 0-1.331.848-1.331 1.89 0 1.045.597 1.895 1.332 1.895.73 0 1.325-.85 1.325-1.894 0-1.042-.594-1.89-1.325-1.89z"/></g></g><g opacity=".3"><g opacity=".09"><path fill="#000072" d="M23.612 110.51c4.165 11.653 13.393 9.215 14.13 2.306 5.472 5.344 8.354 10.23 5.143 14.037-2.925 2.173-6.02 2.017-9.208.57-1.963-3.445-4.508-5.72-7.728-6.64l-2.569-4.054z"/></g></g><g opacity=".3"><g opacity=".09"><path fill="#000072" d="M93.504 110.51c-4.164 11.653-13.392 9.215-14.13 2.306-5.471 5.344-8.353 10.23-5.143 14.037 2.926 2.173 6.02 2.017 9.209.57 1.963-3.445 4.508-5.72 7.728-6.64l2.569-4.054z"/></g></g><g><g><path fill="#000072" d="M37.384 67.361c-4.197 0-7.94-1.377-10.825-3.983-3.362-3.039-5.45-7.59-6.207-13.527-.22-1.723.26-3.356 1.35-4.598 1.087-1.24 2.638-1.923 4.365-1.923H48.7c1.728 0 3.278.683 4.365 1.922 1.09 1.242 1.57 2.875 1.35 4.598-.757 5.937-2.845 10.489-6.208 13.527-2.883 2.607-6.626 3.984-10.823 3.984zM26.067 45.798c-1.01 0-1.905.386-2.52 1.085-.616.702-.884 1.645-.755 2.655 1.242 9.759 6.561 15.356 14.591 15.356s13.35-5.598 14.591-15.356c.13-1.01-.14-1.953-.755-2.655-.614-.7-1.509-1.085-2.52-1.085z"/></g></g><g><g><path fill="#000072" d="M79.934 67.36c-4.197 0-7.94-1.377-10.824-3.983-3.363-3.038-5.451-7.59-6.208-13.527-.22-1.723.26-3.356 1.35-4.598 1.088-1.24 2.638-1.922 4.365-1.922H91.25c1.727 0 3.277.682 4.365 1.922 1.09 1.242 1.57 2.875 1.35 4.598-.756 5.937-2.844 10.489-6.207 13.527-2.884 2.606-6.627 3.984-10.824 3.984zM68.617 45.798c-1.01 0-1.905.386-2.519 1.086-.616.702-.884 1.644-.756 2.654 1.243 9.759 6.562 15.356 14.592 15.356 8.03 0 13.349-5.597 14.591-15.356.129-1.01-.14-1.952-.756-2.654-.614-.7-1.508-1.086-2.519-1.086z"/></g></g><g><g><path fill="#000072" d="M64.478 53.13c-.36 0-.717-.158-.96-.462-1.688-2.117-3.324-3.19-4.864-3.19s-3.177 1.073-4.864 3.19a1.227 1.227 0 0 1-1.728.193 1.237 1.237 0 0 1-.193-1.734c2.177-2.732 4.46-4.117 6.785-4.117 2.324 0 4.607 1.385 6.784 4.117a1.236 1.236 0 0 1-.96 2.004z"/></g></g><g><g><path fill="#000072" d="M101.395 51.297H95.69c-.68 0-1.23-.552-1.23-1.233 0-.682.55-1.234 1.23-1.234h5.705c.679 0 1.23.552 1.23 1.234 0 .681-.55 1.233-1.23 1.233z"/></g></g><g><g><path fill="#000072" d="M21.304 51.297H15.6c-.68 0-1.23-.552-1.23-1.233 0-.682.55-1.234 1.23-1.234h5.704c.68 0 1.23.552 1.23 1.234 0 .681-.55 1.233-1.23 1.233z"/></g></g><g opacity=".3"><g opacity=".09"><path fill="#000072" d="M62.407 141.47v5.584c-2.597 2.25-5.197 2.25-7.797 0v-5.58c2.597 2.249 5.193 2.252 7.786.01v-.01z"/></g></g><g opacity=".3"><g opacity=".09"><path fill="#000072" d="M54.603 141.47v5.581L42 142.571v-5.581z"/></g></g><g opacity=".3"><g opacity=".09"><path fill="#000072" d="M74.993 136.99v5.58l-12.592 4.477-.011.004v-5.58l.01-.004z"/></g></g></g></g></g></svg>