<svg xmlns="http://www.w3.org/2000/svg" width="149" height="169" viewBox="0 0 149 169"><g><g><g/><g><g opacity=".2"><g opacity=".04"><path fill="#000072" d="M85.61 169.001c34.65 0 62.74-5.34 62.74-11.925 0-6.587-28.09-11.926-62.74-11.926-34.65 0-62.74 5.34-62.74 11.926S50.96 169 85.61 169z"/></g></g><g><g><g><path fill="#60547b" d="M67.533 9.366l-28.49 25.848c-3.318-3.404-5.246-7.003-6.072-10.535-2.62-11.185 5.834-21.701 16.25-23.251 6.038-.903 12.73 1.207 18.312 7.938z"/></g></g><g opacity=".5"><g opacity=".25"><path fill="#fff" d="M34.794 26.824c-2.62-11.185 5.834-21.701 16.25-23.252 5.472-.817 11.483.84 16.717 6.169l.072-.065C62.252 2.946 55.559.836 49.52 1.738c-10.416 1.55-18.87 12.066-16.25 23.251.762 3.262 2.469 6.581 5.339 9.751-1.967-2.603-3.2-5.278-3.816-7.916z"/></g></g><g><g><path fill="#60547b" d="M63.877 153.133c-17.192 2.577-26.495-5.29-28.844-13.342-2.267-7.748 1.907-15.671 11.68-14.616l8.637 14.066z"/></g></g><g opacity=".55"><g opacity=".3"><path fill="#fff" d="M63.877 153.132c-.058.01-.116.019-.171.025l-15.85-25.82c-10.608-1.144-14.617 8.283-10.959 16.588-5.456-8.724-1.724-19.995 9.816-18.75z"/></g></g><g><g><path fill="#000072" d="M51.895 143.867c-.314 1.068-.957 1.964-1.898 2.51-2.285 1.325-5.462.086-7.101-2.76-1.64-2.85-1.118-6.232 1.166-7.556 1.112-.645 2.44-.682 3.699-.22a24.796 24.796 0 0 0 4.134 8.026z"/></g></g><g><g><path fill="#000072" d="M42.628 133.37c1.038 0 1.879-.999 1.879-2.23 0-1.232-.841-2.23-1.879-2.23-1.037 0-1.878.998-1.878 2.23 0 1.231.841 2.23 1.878 2.23z"/></g></g><g><g><path fill="#000072" d="M40.188 136.504c.635-.368.805-1.263.381-2-.423-.737-1.281-1.036-1.916-.669-.634.368-.805 1.263-.38 2 .423.737 1.28 1.036 1.915.669z"/></g></g><g><g><path fill="#000072" d="M57.405 154.863c-13.15.001-19.153-6.67-21.276-9.876-3.423-5.168-3.885-11.401-1.178-15.88 2.321-3.836 6.656-5.714 11.894-5.148a1.222 1.222 0 0 1 1.081 1.347 1.218 1.218 0 0 1-1.342 1.085c-4.32-.465-7.713.95-9.55 3.986-2.185 3.614-1.733 8.94 1.125 13.256 2.195 3.314 9.078 10.758 25.54 8.29.667-.099 1.285.361 1.384 1.03.1.668-.36 1.29-1.026 1.39-2.396.36-4.611.52-6.652.52z"/></g></g><g opacity=".3"><g opacity=".09"><path fill="#000072" d="M63.873 153.132c-17.19 2.577-26.494-5.29-28.843-13.342 0 0 4.244 8.666 19.323 0 .339-.195.67-.379.994-.55z"/></g></g><g opacity=".3"><g opacity=".09"><path fill="#000072" d="M67.532 9.366l-28.49 25.848c-3.318-3.404-5.246-7.003-6.072-10.535 14.023-.96 19.448-8.702 16.25-23.251 6.038-.903 12.73 1.207 18.312 7.938z"/></g></g><g><g><path fill="#60547b" d="M58.079 96.47c-5.143 2.494-10.516 2.464-16.06.59-1.546-.522-3.25-.4-4.678.394-3.833 2.13-6.13 7.268-2.35 12.371 1.975 2.666 5.004 4.346 8.286 4.773l5.457.71"/></g></g><g opacity=".3"><g opacity=".09"><path fill="#000072" d="M52.518 107.673l-3.786 7.636-5.456-.713c-3.282-.425-6.31-2.104-8.284-4.77-1.794-2.422-2.22-4.853-1.76-6.966.572 1.235 1.513 2.428 2.897 3.492a11.618 11.618 0 0 0 3.305 1.777c-1.316-1.85-.268-3.902-.268-3.902-.335 3.07 6.403 3.235 6.403 3.235l1.865.9 3.406-.512z"/></g></g><g opacity=".55"><g opacity=".3"><path fill="#fff" d="M58.088 96.47l-1.609 3.241c-4.432 1.499-9.026 1.236-13.74-.357-1.547-.523-3.25-.401-4.679.394-2.775 1.541-4.743 4.66-4.185 8.201-2.066-4.443.115-8.63 3.476-10.494 1.425-.795 3.131-.918 4.676-.395 5.544 1.875 10.918 1.905 16.06-.59z"/></g></g><g><g><path fill="#60547b" d="M130.528 132.045c5.688-4.972 11.903-2.968 13.092 3.486.562 3.056-.524 6.235-3.034 8.053-3.657 2.647-8.887 1.709-10.926-2.92"/></g></g><g opacity=".55"><g opacity=".3"><path fill="#fff" d="M143.013 137.672a8.7 8.7 0 0 1 .056 2.813c.668-1.52.866-3.256.553-4.954-1.189-6.454-7.404-8.458-13.092-3.486l-.18 1.782c5.568-4.507 11.504-2.447 12.663 3.845z"/></g></g><g opacity=".3"><g opacity=".09"><path fill="#000072" d="M140.588 143.581c-3.66 2.648-8.887 1.71-10.928-2.92l.615-6.097c2.337 3.626 6.977 4.192 10.313 1.78a7.485 7.485 0 0 0 2.403-2.924c.277.636.49 1.342.63 2.11.564 3.055-.523 6.235-3.034 8.051z"/></g></g><g><g><path fill="#fff" d="M57.34 90.984c1.16.454 2.364.876 3.617 1.261-.456.643-.898 1.279-1.33 1.912-7.008 10.259-10.889 19.16-12.342 26.792 0 .006-.003.016-.006.028-4.694 24.726 16.073 36.144 38.556 37.217a62511.3 62511.3 0 0 0 26.23-1.691c6.58-.422 12.545-4.205 15.54-10.088l.075-.15c5.036-10.112 3.196-25.63-3.88-40.14a77.01 77.01 0 0 0-7.964-12.907c-.25-.327-.5-.652-.756-.973a44.551 44.551 0 0 0 10.303-6.299 40.977 40.977 0 0 0 4.8-4.636c-4.065 4.361-22.81 20.25-72.843 9.674z"/></g></g><g><g><path fill="#fff" d="M141.22 7.716c-7.503-7.002-20.448-8.513-33.55 2.985-6.37-2.541-12.503-3.939-18.322-4.376l-.003-.003h-.003C41.565 2.717 14.76 63.678 48.904 86.618c2.483 1.67 5.293 3.135 8.437 4.362 50.033 10.576 68.778-5.313 72.843-9.674 8.088-9.22 11.907-22.36 5.97-38.091 15.201-11.195 13.958-27.206 5.066-35.499z"/></g></g><g><g><path fill="#60547b" d="M147.28 18.317a20.686 20.686 0 0 0-.917-3.006c-1.904-4.531-6.254-8.926-14.52-12.542l-.05-.012-.039-.009-.194-.04c-1.19-.235-6.03-.984-12.044.878-3.833 1.296-7.832 3.596-11.846 7.118h-.002l-1.638.821s24.676 16.207 29.55 33.942l.806-1.602c-.078-.216-.15-.43-.232-.647.31-.228.609-.458.905-.69 0 0 12.609-12.09 10.22-24.211z"/></g></g><g opacity=".5"><g opacity=".25"><path fill="#fff" d="M108.162 11.828h1.691s15.674-14.983 33.039-1.223l-.38-2.295-3.945-3.519-3.352-.395-7.235-2.136-7.884 1.132s-2.383.686-2.97 1.121c-.586.435-5.594 3.162-5.594 3.162l-2.601 1.96-1.261 1.066z"/></g></g><g><g><path fill="#60547b" d="M51.23 108.844c9.513-12.865 39.42-9.215 50.724 4.316 7.21 7.634 17.365.994 25.495 1.875l-2.876-9.572-18.127-15.083c-3.265 3.274-8.6 4.293-14.926 4.235-8.553-.125-16.67-.543-24.068-1.444l-6.497-.397z"/></g></g><g><g><path fill="#60547b" d="M127.609 146.415c-2.995 5.884-8.96 9.666-15.54 10.088-5.934.385-12.198.79-18.711 1.208l-1.904.122c-.061.003-.122.01-.186.01-3.982.207-7.893-1.23-10.76-4.019-20.49-19.912 6.967-40.7 18.126-20.193l4.46-.322 7.534-.544c.186.052.369.107.545.165 12.012 3.893 7.952 18.366 16.283 13.033l.153.452z"/></g></g><g opacity=".55"><g opacity=".3"><path fill="#fff" d="M98.633 133.63c-9.791-17.991-32.127-4.194-23.618 12.909-5.737-16.069 15.153-28.002 24.532-10.768"/></g></g><g><g><path fill="#3757a0" d="M111.32 132.71l-.155.217c-.176-.058-.36-.113-.545-.165z"/></g></g><g><g><path fill="#3757a0" d="M91.26 157.84c.064 0 .125-.007.186-.01-.061.003-.125.01-.186.012z"/></g></g><g><g><path fill="#3757a0" d="M110.624 132.763l-7.534.544v-.003l7.528-.544c.003 0 .003 0 .006.003z"/></g></g><g><g><path fill="#60547b" d="M118.36 66.595c2.05-3.932 3.12-8.465 2.716-12.56-.391-3.957-3.283-7.211-7.114-8.223-6.739-1.778-13.339-2.964-19.716-3.175-1.13-.037-2.266.074-3.351.393-1.93.566-3.37 1.6-4.262 4.098-.308.863-.48 1.768-.555 2.681-.571 6.93 1.138 13.89 4.773 18.971 7.018 9.81 21.93 8.513 27.508-2.185z"/></g></g><g opacity=".3"><g opacity=".09"><path fill="#000072" d="M136.15 43.21c8.986 23.814-4.378 41.69-21.073 49.026.256.321.506.645.756.972l-4.43 1.297-4.96-4.128c-3.262 3.275-8.6 4.293-14.924 4.235-8.554-.125-16.67-.541-24.07-1.443l-6.494-.398-.884 1.462-.448-.086c.433-.633.875-1.269 1.332-1.91-4.65-1.429-8.655-3.337-12.055-5.624 76.53 18.842 91.968-47.106 40.444-80.293l18.321 4.376s14.911 7.054 21.482 17.306c1.616 2.522 5.138 2.885 7.191.707 4.85-5.141 7.968-11.282 4.878-20.998 8.892 8.293 10.135 24.304-5.067 35.499z"/></g></g><g><g><path fill="#60547b" d="M54.987 71.51c6.448-5.449 13.158-15.722 12.438-22.894a5.961 5.961 0 0 0-5.302-5.325c-5.262-.559-10.607.563-16.02 3.04-3.225 1.476-5.586 4.402-6.248 7.897-.933 4.926.292 10.694 3.45 15.541 2.584 3.968 8.069 4.794 11.682 1.74z"/></g></g><g><g><path fill="#000072" d="M85.776 159.408c-8.405-.402-16.2-2.21-22.542-5.23-7.157-3.407-12.255-8.17-15.153-14.158-2.854-5.896-3.44-12.801-1.745-20.524 1.765-8.036 6.026-16.979 12.672-26.603-14.097-4.82-23.276-14.637-25.924-27.792-3.316-16.476 4.224-35.737 18.763-47.927 7.168-6.01 15.722-9.99 24.736-11.51 9.939-1.675 20.312-.455 30.845 3.625 8.937-7.588 18.932-10.096 27.52-6.878 7.438 2.788 12.742 9.459 13.841 17.41 1.208 8.744-2.86 17.382-11.181 23.821 8.301 23.23-4.102 41.14-20.623 49.066 6.33 8.359 11.024 18.163 13.278 27.769 2.399 10.227 1.87 19.576-1.493 26.328-3.122 6.271-9.495 10.452-16.63 10.912l-26.228 1.69-.078.002-.058-.001zm-.55-152.077c-14.993 0-25.79 6.667-31.816 11.72-13.873 11.631-21.081 29.942-17.936 45.565 2.56 12.722 11.737 22.117 25.839 26.453a1.227 1.227 0 0 1 .636 1.879c-13.198 18.609-17.235 34.516-11.675 46.003 5.054 10.442 18.34 17.171 35.551 18.01l26.16-1.686c6.272-.404 11.869-4.069 14.606-9.565 6.433-12.916 1.074-35.578-12.465-52.712a1.226 1.226 0 0 1 .466-1.88c16.367-7.193 29.03-24.662 20.421-47.474a1.225 1.225 0 0 1 .419-1.42c8.071-5.944 12.06-13.987 10.943-22.067-.975-7.06-5.68-12.981-12.278-15.454-4.644-1.74-14.15-3.156-25.627 6.914a1.216 1.216 0 0 1-1.252.216c-8.1-3.231-15.446-4.502-21.991-4.502z"/></g></g><g><g><path fill="#000072" d="M118.963 17.323c4.742 4.029 8.684 8.707 11.883 13.989a1.426 1.426 0 0 0 2.175.328c8.205-7.443.093-23.03-13.722-16.737a1.444 1.444 0 0 0-.336 2.42z"/></g></g><g><g><path fill="#000072" d="M38.168 36.074c-6.16-6.32-8.304-13.858-6.038-21.224C34.374 7.558 40.635 1.882 48.08.388c7.512-1.507 14.752 1.405 20.386 8.2l-1.873 1.564C61.558 4.08 55.154 1.464 48.557 2.787c-6.58 1.32-12.114 6.338-14.098 12.785-1.99 6.468-.055 13.142 5.45 18.792z"/></g></g><g><g><path fill="#000072" d="M58.772 13.677c-6.145-10.01-25.246.835-14.913 13.764"/></g></g><g><g><path fill="#000072" d="M61.13 91.026l7.355 1.827a.461.461 0 0 1-.129.908l-7.571-.313c-.676-.028-1.201-.6-1.174-1.28a1.227 1.227 0 0 1 1.518-1.142z"/></g></g><g><g><path fill="#60547b" d="M128.159 101.929c-1.213 1.422-2.687 2.816-4.357 4.195-2.638 2.18-5.754 4.315-9.069 6.431l-6.108-5.626-10.245-9.434c4.286-3.091 8.326-6.85 12.055-11.424 2.866-3.513 7.524-5.137 11.875-3.899a12.294 12.294 0 0 1 4.597 2.465c4.383 3.73 6.105 10.522 1.252 17.292z"/></g></g><g opacity=".55"><g opacity=".3"><path fill="#fff" d="M128.759 86.61a12.32 12.32 0 0 0-4.518-2.398c-4.353-1.239-9.011.385-11.875 3.899-3.007 3.686-6.212 6.84-9.586 9.543a3.376 3.376 0 0 1-4.4-.159c4.286-3.091 8.326-6.85 12.055-11.424 2.866-3.513 7.524-5.137 11.875-3.899a12.259 12.259 0 0 1 6.449 4.437z"/></g></g><g><g><path fill="#000072" d="M98.112 97.123c3.421-2.93 6.606-6.067 9.472-9.475.36-.425.715-.853 1.064-1.287.177-.214.347-.434.52-.653.172-.219.334-.43.549-.677a12.782 12.782 0 0 1 2.784-2.495 12.415 12.415 0 0 1 7.138-2.052c5.098.175 9.697 3.507 11.674 8.129.488 1.155.817 2.382.958 3.632.137 1.25.088 2.518-.136 3.746-.432 2.467-1.557 4.726-2.989 6.654l-.03.04a.528.528 0 0 1-.033.04 32.637 32.637 0 0 1-3.217 3.08 48.336 48.336 0 0 1-3.49 2.646 69.25 69.25 0 0 1-3.646 2.356c-1.243.733-2.483 1.462-3.755 2.136a.458.458 0 0 1-.62-.192.461.461 0 0 1 .13-.581c1.14-.868 2.296-1.707 3.417-2.586a115.592 115.592 0 0 0 3.339-2.643c1.085-.905 2.155-1.82 3.16-2.788 1.01-.961 1.973-1.96 2.83-3.018l-.063.08c1.188-1.755 2.077-3.677 2.453-5.683.181-1.002.236-2.02.149-3.027a10.171 10.171 0 0 0-.728-2.93c-.76-1.878-2.121-3.51-3.8-4.656a10.864 10.864 0 0 0-2.718-1.357 9.82 9.82 0 0 0-2.946-.504c-1.997-.05-3.992.56-5.698 1.629-.85.54-1.637 1.191-2.311 1.95-.164.175-.36.402-.548.619-.19.216-.376.435-.57.648-.383.43-.773.854-1.168 1.274-3.16 3.349-6.727 6.32-10.638 8.69a.458.458 0 0 1-.63-.156.463.463 0 0 1 .097-.589z"/></g></g><g><g><path fill="#000072" d="M90.665 94.228c1.5-.004 2.99-.043 4.457-.195 1.467-.15 2.911-.416 4.294-.844a16.911 16.911 0 0 0 3.917-1.768 18.294 18.294 0 0 0 3.338-2.669l.009-.009a1.064 1.064 0 0 1 1.51.001 1.074 1.074 0 0 1-.054 1.564 20.23 20.23 0 0 1-3.903 2.71 18.59 18.59 0 0 1-4.42 1.648c-1.523.36-3.072.534-4.606.588-1.536.054-3.06-.01-4.57-.108a.458.458 0 0 1-.426-.488.457.457 0 0 1 .454-.43z"/></g></g><g><g><path fill="#000072" d="M111.356 133.16l-12.638 1.68a1.095 1.095 0 0 1-1.056-.48l-.102-.154c-1.276-2.358-2.99-4.457-5.126-5.901-1.074-.703-2.239-1.26-3.47-1.567-.304-.09-.617-.138-.927-.201-.314-.039-.627-.096-.943-.11a10.152 10.152 0 0 0-1.899.027c-2.53.253-4.967 1.414-6.847 3.172-1.886 1.754-3.224 4.1-3.738 6.632-.269 1.263-.328 2.57-.225 3.867.12 1.297.413 2.585.854 3.83.881 2.495 2.351 4.798 4.115 6.853.214.262.444.513.676.762.23.25.456.503.7.742.24.237.481.494.72.717.236.22.473.439.726.64.243.212.513.391.768.588.272.174.533.365.816.521.552.337 1.136.616 1.732.865.595.252 1.216.437 1.84.601.629.152 1.267.259 1.91.325.644.05 1.291.083 1.937.042.67-.033 1.398-.087 2.095-.13h.008a1.22 1.22 0 0 1 1.29 1.146c.041.675-.47 1.254-1.142 1.295-.711.044-1.39.096-2.13.132-.762.048-1.528.012-2.289-.05a16.837 16.837 0 0 1-2.26-.384 15.986 15.986 0 0 1-2.18-.712 15.121 15.121 0 0 1-2.053-1.025c-.335-.187-.647-.41-.968-.62-.306-.23-.624-.447-.914-.698-.3-.239-.584-.498-.864-.76-.278-.26-.521-.52-.783-.78-.261-.256-.507-.528-.755-.8-.25-.268-.497-.539-.73-.824-1.91-2.228-3.55-4.771-4.561-7.624a18.33 18.33 0 0 1-.986-4.439c-.123-1.523-.052-3.075.267-4.582.615-3.023 2.213-5.83 4.465-7.922 2.245-2.097 5.164-3.5 8.259-3.813a12.578 12.578 0 0 1 2.326-.031c.389.018.773.083 1.158.134.382.076.765.139 1.14.246 1.51.379 2.928 1.056 4.213 1.9 2.558 1.73 4.5 4.158 5.913 6.764v.001l-1.156-.633 12.748-.155a.458.458 0 0 1 .066.913z"/></g></g><g><g><path fill="#000072" d="M99.809 133.305c.063.317.102.575.14.857.038.275.068.549.095.822a24.692 24.692 0 0 1-.009 4.901 19.997 19.997 0 0 1-.578 3.203l-.22.782-.27.767-.135.382-.164.372-.326.74a.456.456 0 0 1-.854-.316l.011-.036.22-.729.108-.363.083-.37.163-.74.115-.75c.135-1 .201-2.007.173-3.015a22.792 22.792 0 0 0-.537-4.476c-.054-.243-.11-.484-.174-.722a10.78 10.78 0 0 0-.195-.675l-.002-.004a1.22 1.22 0 1 1 2.356-.63z"/></g></g><g><g><path fill="#000072" d="M87.49 150.366c2.517-.789 3.766-3.973 2.79-7.114-.977-3.14-3.809-5.047-6.325-4.259-2.517.789-3.766 3.974-2.79 7.114.977 3.14 3.809 5.047 6.325 4.259z"/></g></g><g><g><path fill="#000072" d="M86.739 133.716c.287-1.55-.553-3.007-1.876-3.254-1.324-.247-2.63.81-2.916 2.36-.288 1.55.553 3.006 1.876 3.253 1.323.247 2.629-.81 2.916-2.36z"/></g></g><g><g><path fill="#000072" d="M90.992 136.613c.589-1.136.32-2.447-.6-2.928-.92-.481-2.143.05-2.732 1.186-.59 1.136-.322 2.446.599 2.927.92.481 2.143-.05 2.733-1.185z"/></g></g><g><g><path fill="#000072" d="M80.019 139.33c.99-.31 1.485-1.552 1.105-2.775-.38-1.223-1.491-1.962-2.481-1.652-.99.31-1.485 1.553-1.105 2.775.38 1.223 1.49 1.963 2.481 1.653z"/></g></g><g><g><path fill="#000072" d="M136.168 146.267a8.289 8.289 0 0 1-2.182-.291c-2.431-.662-4.364-2.375-5.442-4.821a1.225 1.225 0 0 1 .622-1.614 1.216 1.216 0 0 1 1.607.624c.775 1.76 2.143 2.985 3.851 3.45 1.77.481 3.682.107 5.248-1.027 2.04-1.477 3.041-4.161 2.548-6.838-.46-2.503-1.814-4.32-3.71-4.984-2.209-.773-4.9.027-7.383 2.198a1.215 1.215 0 0 1-1.72-.12 1.226 1.226 0 0 1 .12-1.725c3.161-2.764 6.727-3.734 9.785-2.663 2.747.962 4.68 3.459 5.305 6.85.664 3.601-.717 7.239-3.519 9.267-1.539 1.113-3.33 1.694-5.13 1.694z"/></g></g><g><g><path fill="#000072" d="M48.735 116.535a1.26 1.26 0 0 1-.159-.01l-5.456-.71c-3.667-.478-6.986-2.393-9.107-5.255-2.36-3.188-2.378-6.08-1.976-7.943.56-2.606 2.28-4.876 4.713-6.23 1.703-.945 3.765-1.12 5.657-.482 5.57 1.882 10.522 1.708 15.141-.533a1.217 1.217 0 0 1 1.628.57c.292.608.039 1.339-.568 1.633-5.15 2.497-10.861 2.716-16.978.649-1.245-.422-2.594-.31-3.7.304-1.792.996-3.105 2.717-3.51 4.605-.424 1.963.112 4.026 1.55 5.967 1.728 2.333 4.448 3.897 7.463 4.289l5.457.71c.667.087 1.138.7 1.051 1.37a1.22 1.22 0 0 1-1.206 1.066z"/></g></g><g><g><path fill="#000072" d="M43.544 101.983c-.599-.111-1.164-.198-1.668-.159-.501.036-.927.171-1.196.414-.28.228-.442.542-.517.908-.052.372-.016.79.164 1.185.353.8 1.178 1.467 2.191 1.885 1.023.422 2.204.622 3.43.759h.008a.465.465 0 0 1 .056.915 8.794 8.794 0 0 1-4.037.03 6.046 6.046 0 0 1-2.005-.903 4.746 4.746 0 0 1-1.55-1.786 3.98 3.98 0 0 1-.338-2.503c.101-.433.267-.86.53-1.234.268-.366.6-.701.997-.917.782-.473 1.682-.51 2.42-.354a4.6 4.6 0 0 1 1.92.937.47.47 0 0 1-.378.827z"/></g></g><g><g><path fill="#000072" d="M120.096 99.455c2.071-1.074 2.687-4.01 1.375-6.559-1.312-2.548-4.054-3.743-6.126-2.668-2.071 1.074-2.687 4.01-1.375 6.56 1.312 2.547 4.055 3.742 6.126 2.667z"/></g></g><g><g><path fill="#000072" d="M124.946 90.87c.944-.49 1.224-1.828.626-2.988-.597-1.16-1.846-1.705-2.79-1.216-.943.49-1.224 1.827-.626 2.988.597 1.16 1.847 1.705 2.79 1.215z"/></g></g><g><g><path fill="#000072" d="M127.158 95.272c-.58 1.17-1.82 1.732-2.771 1.257-.951-.475-1.252-1.808-.672-2.978.58-1.17 1.815-1.197 2.767-.722.95.475 1.256 1.273.676 2.443z"/></g></g><g><g><path fill="#000072" d="M120.838 87.342c-.58 1.17-1.82 1.732-2.771 1.257-.951-.475-1.252-1.808-.672-2.978.58-1.17 1.815-1.197 2.767-.722.95.475 1.257 1.273.676 2.443z"/></g></g><g><g><path fill="#000072" d="M52.28 33.123c.495-1.192 1.468-2.114 2.55-2.759a7.914 7.914 0 0 1 3.65-1.094c1.296-.067 2.668.206 3.829.902 1.16.69 2.04 1.797 2.383 3a.537.537 0 0 1-.848.568l-.021-.018c-.846-.686-1.66-1.159-2.521-1.419-.855-.267-1.752-.347-2.675-.291-.92.06-1.86.248-2.79.536a13.22 13.22 0 0 0-2.755 1.222l-.037.022a.533.533 0 0 1-.732-.192.54.54 0 0 1-.033-.477z"/></g></g><g><g><path fill="#000072" d="M100.61 33.324a13.259 13.259 0 0 0-2.847-.99c-.949-.21-1.9-.32-2.824-.303-.924.02-1.811.173-2.641.51-.837.331-1.61.87-2.396 1.623l-.018.017a.534.534 0 0 1-.894-.494c.243-1.227 1.03-2.403 2.129-3.187 1.1-.788 2.444-1.174 3.742-1.215a7.92 7.92 0 0 1 3.726.79c1.131.553 2.177 1.391 2.768 2.538a.538.538 0 0 1-.23.723.533.533 0 0 1-.473.008z"/></g></g><g><g><path fill="#000072" d="M38 102.41c-.876-1.723-1.793-3.404-2.835-4.993-1.04-1.589-2.209-3.083-3.544-4.418a23.446 23.446 0 0 0-4.46-3.498c-1.626-.988-3.374-1.79-5.183-2.449l-.006-.002a.46.46 0 0 1 .283-.872c1.898.553 3.765 1.264 5.54 2.19a24.94 24.94 0 0 1 4.969 3.4c1.519 1.333 2.873 2.85 4.08 4.458 1.212 1.608 2.28 3.302 3.29 5.003a1.226 1.226 0 0 1-.424 1.678 1.217 1.217 0 0 1-1.71-.496z"/></g></g><g><g><path fill="#05cc0a" d="M23.698 85.244c-7.248-3.396-13.38-4.022-17.488.388a1.414 1.414 0 0 0 .065 1.994c4.349 4.01 11.84-.955 19.39-.222"/></g></g><g><g><path fill="#05cc0a" d="M19.706 68.937c-2.1 8.308 2.09 16.53 8.594 19.928 1.824-8.3.63-15.51-5.71-20.862-1.01-.854-2.56-.351-2.884.934z"/></g></g><g><g><path fill="#000072" d="M28.294 89.78a.914.914 0 0 1-.422-.104c-7.348-3.838-11.158-12.656-9.059-20.967.23-.911.9-1.628 1.792-1.917.89-.288 1.85-.099 2.567.506 6.128 5.171 8.095 12.29 6.014 21.761a.916.916 0 0 1-.892.72zM21.44 68.496a.909.909 0 0 0-.275.043.865.865 0 0 0-.58.621c-1.759 6.96 1.257 14.585 7.064 18.273 1.496-8.126-.36-14.263-5.654-18.73a.845.845 0 0 0-.555-.207z"/></g></g><g><g><path fill="#000072" d="M27.61 89.191a118.989 118.989 0 0 1-2.606-6.89c-.787-2.325-1.479-4.686-1.974-7.081.74 2.33 1.667 4.587 2.681 6.798a117.293 117.293 0 0 0 3.275 6.519c.2.372.063.836-.309 1.037a.762.762 0 0 1-1.067-.383z"/></g></g><g><g><path fill="#000072" d="M10.833 90.124c-1.935 0-3.7-.456-5.183-1.823a2.293 2.293 0 0 1-.738-1.612 2.325 2.325 0 0 1 .624-1.684c4.05-4.348 10.114-4.542 18.543-.593a.92.92 0 0 1 .441 1.22.913.913 0 0 1-1.215.443c-7.616-3.57-12.993-3.51-16.434.183a.5.5 0 0 0-.133.362.471.471 0 0 0 .149.33c2.232 2.058 5.646 1.338 9.598.505 2.835-.598 6.05-1.277 9.262-.964a.917.917 0 0 1-.176 1.826c-2.935-.285-5.871.334-8.71.933-2.102.442-4.146.874-6.028.874z"/></g></g><g><g><path fill="#000072" d="M24.398 87.513c-2.14-.524-4.304-.94-6.5-1.18a38.448 38.448 0 0 0-6.648-.16 38.826 38.826 0 0 1 6.684-.756c2.256-.064 4.524.055 6.773.288h.002a.919.919 0 0 1 .817 1.01.917.917 0 0 1-1.128.798z"/></g></g><g><g><path fill="#05cc0a" d="M32.054 92.241c-.671-6.6 1.584-11.606 7.683-14.521"/></g></g><g><g><path fill="#000072" d="M32.057 93.155a.914.914 0 0 1-.909-.824c-.742-7.292 2.017-12.487 8.2-15.442a.914.914 0 0 1 1.293.67c1.544 8.859-1.282 14.1-8.398 15.577a.958.958 0 0 1-.186.019zm6.975-14.035c-4.422 2.52-6.44 6.453-6.147 11.971z"/></g></g><g><g><path fill="#000072" d="M31.706 91.477c.715-1.363 1.444-2.732 2.25-4.06a26.34 26.34 0 0 1 1.287-1.941c.46-.624.96-1.222 1.52-1.746a12.554 12.554 0 0 0-1.128 1.981c-.32.687-.598 1.392-.856 2.105-.515 1.426-.95 2.883-1.38 4.35a.918.918 0 1 1-1.762-.517.937.937 0 0 1 .068-.172z"/></g></g><g><g><path fill="#05cc0a" d="M23.2 91.83c3.259 5.771 3.198 11.266-1.219 16.396"/></g></g><g><g><path fill="#000072" d="M21.98 109.141c-.019 0-.038 0-.057-.002a.914.914 0 0 1-.704-.407c-4.961-7.49-4.473-13.429 1.45-17.653a.91.91 0 0 1 1.324.296c3.6 6.377 3.156 12.248-1.322 17.449a.908.908 0 0 1-.69.317zm.92-15.93c-4.052 3.357-4.318 7.672-.832 13.441z"/></g></g><g><g><path fill="#000072" d="M23.826 92.377c-.11 1.538-.229 3.085-.434 4.626-.104.77-.23 1.54-.402 2.297-.172.758-.39 1.507-.692 2.212.157-.752.22-1.51.238-2.268.018-.759-.009-1.516-.058-2.273-.1-1.514-.286-3.023-.48-4.54a.919.919 0 1 1 1.828-.053z"/></g></g><g><g><path fill="#05cc0a" d="M14.708 97.384c-2.644 6.08-7.059 9.329-13.798 8.861"/></g></g><g><g><path fill="#000072" d="M2.162 107.203c-.43 0-.866-.015-1.312-.046a.91.91 0 0 1-.7-.412.922.922 0 0 1-.098-.81c2.991-8.477 8.016-11.65 14.938-9.428a.916.916 0 0 1 .56 1.241c-2.732 6.28-7.233 9.455-13.388 9.455zm8.787-9.549c-3.821 0-6.652 2.52-8.731 7.715 5.084-.016 8.767-2.447 11.212-7.398a10.527 10.527 0 0 0-2.48-.317z"/></g></g><g><g><path fill="#000072" d="M14.646 98.218c-1.292.835-2.596 1.667-3.947 2.428-.676.379-1.365.738-2.071 1.056-.707.316-1.435.592-2.178.772.694-.325 1.336-.731 1.952-1.17.614-.441 1.202-.918 1.776-1.412 1.146-.989 2.238-2.044 3.33-3.11a.916.916 0 0 1 1.298.016.925.925 0 0 1-.16 1.42z"/></g></g><g><g><path fill="#000072" d="M14.716 98.253a1.06 1.06 0 0 1-.757-.317 1.073 1.073 0 0 1 .006-1.514c4.437-4.417 9.586-8.234 17.16-6.257.57.149.912.733.764 1.305a1.064 1.064 0 0 1-1.3.767c-6.177-1.612-10.512 1.115-15.122 5.704a1.06 1.06 0 0 1-.751.312z"/></g></g><g><g><g><path fill="#e43841" d="M80.168 69.43c0 6.86-11.448 7.419-11.448-.229"/></g></g><g><g><path fill="#000072" d="M78.687 56.294c-.455 1.992-1.576 3.21-3.127 3.929a3.826 3.826 0 0 1-3.21 0c-1.55-.72-2.67-1.938-3.126-3.93-.228-1.002.457-1.987 1.465-2.158a19.547 19.547 0 0 1 6.532 0c1.009.171 1.694 1.156 1.466 2.159z"/></g></g><g><g><path fill="#000072" d="M75.171 59.914v4.243c0 .076-.007.15-.02.222l-.004.018a6.713 6.713 0 0 1-.95 2.339 7.987 7.987 0 0 1-1.602 1.826c-1.226 1.03-2.707 1.66-4.247 1.917a8.124 8.124 0 0 1-2.353.062 6.256 6.256 0 0 1-2.29-.717 5.11 5.11 0 0 1-1.775-1.615 5.576 5.576 0 0 1-.853-2.124.461.461 0 0 1 .869-.279l.007.015c.275.583.609 1.112 1.037 1.52.424.409.912.712 1.447.9 1.07.378 2.29.312 3.43-.004a8.772 8.772 0 0 0 3.102-1.644 6.036 6.036 0 0 0 1.153-1.225c.31-.453.525-.945.635-1.452l-.024.24v-4.243a1.22 1.22 0 0 1 1.218-1.223c.673 0 1.22.55 1.22 1.224z"/></g></g><g><g><path fill="#000072" d="M75.177 59.923v4.243l-.024-.24c.108.506.325.998.633 1.451.31.453.71.86 1.155 1.225a8.958 8.958 0 0 0 3.106 1.629c1.137.312 2.351.38 3.42.006a3.949 3.949 0 0 0 1.445-.894c.423-.409.769-.93 1.046-1.513l.007-.014a.46.46 0 0 1 .868.278 5.479 5.479 0 0 1-.843 2.132 5.142 5.142 0 0 1-1.779 1.62 6.22 6.22 0 0 1-2.294.72c-.791.1-1.586.069-2.357-.063-1.544-.254-3.023-.897-4.245-1.932a8.018 8.018 0 0 1-1.601-1.827 6.69 6.69 0 0 1-.95-2.338l-.003-.01a1.28 1.28 0 0 1-.021-.23v-4.243a1.22 1.22 0 0 1 1.219-1.223 1.22 1.22 0 0 1 1.218 1.223z"/></g></g><g><g><path fill="#000072" d="M74.35 75.68c-1.71 0-3.3-.563-4.473-1.584-1.352-1.177-2.067-2.867-2.067-4.889 0-.506.409-.917.914-.917.505 0 .914.411.914.917 0 1.473.496 2.684 1.437 3.502.841.732 2.004 1.136 3.274 1.136 2.439 0 4.908-1.514 4.908-4.408 0-.506.408-.917.914-.917.505 0 .913.41.913.917 0 4.055-3.47 6.243-6.735 6.243z"/></g></g><g><g><path fill="#000072" d="M75.018 65.175l-.61 5.963a.46.46 0 0 1-.913 0l-.61-5.963a1.073 1.073 0 1 1 2.132 0z"/></g></g><g><g><path fill="#000072" d="M64.212 76.289a.766.766 0 0 1-.376-1.43c6.626-3.766 12.888-4.79 19.147-3.132a.765.765 0 0 1-.39 1.478c-5.854-1.551-11.744-.575-18.006 2.984a.754.754 0 0 1-.375.1z"/></g></g><g><g><path fill="#05cc0a" d="M53.33 81.937c5.888.686 11.14-2.963 12.871-7.766-5.857-.497-10.69.989-13.776 5.86-.491.776-.005 1.8.906 1.906z"/></g></g><g><g><path fill="#000072" d="M54.757 82.935c-.506 0-1.015-.03-1.527-.089a2.147 2.147 0 0 1-1.7-1.22 2.158 2.158 0 0 1 .129-2.09c3.043-4.803 7.825-6.859 14.624-6.281a.92.92 0 0 1 .782 1.226c-1.83 5.077-6.858 8.453-12.308 8.454zm9.409-7.938c-5.019 0-8.617 1.817-10.965 5.523a.32.32 0 0 0-.02.318.32.32 0 0 0 .259.185c4.668.544 9.354-1.992 11.407-6.016-.23-.007-.457-.01-.681-.01z"/></g></g><g><g><path fill="#000072" d="M66.54 74.676a81.785 81.785 0 0 1-4.508 2.4c-1.53.745-3.09 1.428-4.692 1.978 1.524-.738 2.979-1.597 4.394-2.512a80.915 80.915 0 0 0 4.143-2.892.609.609 0 0 1 .854.13.614.614 0 0 1-.19.896z"/></g></g><g><g><path fill="#05cc0a" d="M65.168 87.314c3.545-3.673 3.811-9.177 1.451-12.874-3.4 3.75-4.917 7.838-3.22 12.497.27.743 1.22.945 1.769.377z"/></g></g><g><g><path fill="#000072" d="M64.408 88.438a1.843 1.843 0 0 1-1.744-1.221c-1.673-4.596-.569-8.946 3.378-13.299a.784.784 0 0 1 1.243.105c2.725 4.27 2.074 10.095-1.55 13.849a1.84 1.84 0 0 1-1.327.566zm2.075-12.621c-2.927 3.592-3.692 7.153-2.343 10.858a.273.273 0 0 0 .205.179.274.274 0 0 0 .262-.08c2.812-2.913 3.537-7.447 1.876-10.957z"/></g></g><g><g><path fill="#000072" d="M67.145 74.489a70.727 70.727 0 0 1-.726 4.342c-.293 1.437-.645 2.864-1.109 4.248.295-1.43.472-2.875.59-4.322a70.04 70.04 0 0 0 .2-4.35.525.525 0 1 1 1.045.082z"/></g></g></g><g opacity=".3"><g opacity=".09"><path fill="#000072" d="M123.8 106.118c7.076 14.51 8.916 30.028 3.88 40.14-.024.052-.052.101-.076.15-2.994 5.884-8.96 9.666-15.54 10.088a62692.162 62692.162 0 0 1-26.23 1.691c-22.482-1.073-43.25-12.491-38.555-37.217.003-.012.006-.021.006-.027l.003-.01c3.674 20.635 14.955 21.307 26.306 21.8l1.295 3.547c9.444 12.317 22.04 6.48 22.135-15.188l2.2 5.155-.652 7.785c19.147 4.37 27.32-19.322 14.994-27.156-6.997 1.345-10.52-7.966-10.52-7.966 1.887-.346 3.76-1.04 5.576-1.988 3.997-2.076 7.704-5.372 10.614-8.88 3.613-4.354 5.992-9.032 6.147-12.103.058-1.146-.192-2.073-.807-2.669l1.252.541 1.338.578-.262.242c4.383 3.73 6.105 10.522 1.252 17.292-1.213 1.422-2.687 2.816-4.357 4.195z"/></g></g><g><g><g><g><g><path fill="#000072" d="M58.78 45.556c-3.673-.705-7.38 2.56-8.281 7.292-.901 4.732 1.346 9.14 5.018 9.844 3.673.704 7.381-2.56 8.282-7.293.901-4.732-1.346-9.139-5.019-9.843z"/></g></g></g></g><g><g><g><g><path fill="#fff" d="M58.36 47.537c-1.215.32-1.854 1.899-1.428 3.524.426 1.625 1.755 2.683 2.97 2.362 1.214-.32 1.854-1.898 1.428-3.523-.427-1.626-1.756-2.684-2.97-2.363z"/></g></g></g></g><g><g><g><g><path fill="#b199c5" d="M53.562 57.428c-.588.312-.728 1.203-.314 1.99.414.787 1.227 1.172 1.815.859.588-.312.728-1.203.314-1.99-.415-.786-1.227-1.17-1.815-.859z"/></g></g></g></g></g><g><g><path fill="#000072" d="M103.757 52.099c-.97.31-1.952.67-2.862 1.079-.915.411-1.778.882-2.58 1.412-.409.255-.779.556-1.16.838l-.532.466c-.086.08-.182.15-.264.234l-.246.252c-.685.646-1.226 1.419-1.76 2.2l-1.82-2.002c.091-.041.148-.062.21-.086a6.235 6.235 0 0 1 .531-.179c.231-.072.462-.127.692-.183.46-.108.926-.174 1.39-.222.93-.092 1.87-.06 2.785.097.913.16 1.807.423 2.625.831.83.38 1.567.92 2.229 1.5a.49.49 0 0 1 .047.69.487.487 0 0 1-.506.148l-.056-.017c-.396-.118-.762-.273-1.144-.379-.385-.098-.755-.214-1.139-.273a10.34 10.34 0 0 0-2.257-.215c-.747-.004-1.487.08-2.209.23-.18.035-.358.085-.537.125l-.526.15c-.172.057-.344.11-.508.175-.084.03-.162.064-.24.097-.04.016-.078.031-.11.047l-.08.036-.028.014a1.406 1.406 0 0 1-1.867-.7 1.433 1.433 0 0 1 .075-1.316c.613-1.021 1.296-2.028 2.184-2.842.41-.442.908-.781 1.374-1.153.503-.318.994-.656 1.534-.899a11.955 11.955 0 0 1 3.305-1.088c1.14-.187 2.269-.238 3.433-.038a.492.492 0 0 1 .068.953z"/></g></g></g></g></g></g></svg>