<svg xmlns="http://www.w3.org/2000/svg" width="153" height="167" viewBox="0 0 153 167"><g><g opacity=".35"><g opacity=".07"><path fill="#000072" d="M76.5 166.898c42.25 0 76.5-6.245 76.5-13.949S118.75 139 76.5 139 0 145.245 0 152.95c0 7.703 34.25 13.948 76.5 13.948z"/></g></g><g><g/><g><g><g><path fill="#fff" d="M120.835 134.716H33.11c1.15-6.652 2.82-13.456 4.73-20.025a259.047 259.047 0 0 1 3.08-9.851 324.334 324.334 0 0 1 6.455-17.584c.135-.343.273-.682.405-1.016a333.439 333.439 0 0 1 2.835-6.815c2.285-5.34 3.83-8.555 3.83-8.555H99.5s1.545 3.215 3.833 8.558c.836 1.95 1.771 4.186 2.768 6.648l.411 1.034a323.792 323.792 0 0 1 6.515 17.73 265.82 265.82 0 0 1 3.08 9.852c1.907 6.569 3.58 13.373 4.728 20.024z"/></g></g><g><g><path fill="#61547a" d="M113.035 102.66s-1.974-1.86-6.256-3.985c-5.713-2.84-15.537-6.151-30.278-6.151-8.923 0-15.93 1.211-21.279 2.802-4.521 1.34-7.859 2.948-10.165 4.315-2.76 1.642-4.049 2.936-4.127 3.015.33-.998.665-1.982 1-2.954a327.954 327.954 0 0 1 5.45-14.626c.134-.343.275-.682.406-1.016.11-.275.221-.547.329-.813l.157-.387a309.82 309.82 0 0 1 1.869-4.488c.16-.386.32-.761.478-1.127 2.286-5.34 3.833-8.555 3.833-8.555h45.054s1.09 2.269 2.795 6.16a333.457 333.457 0 0 1 3.804 9.047c.032.084.068.166.1.251l.119.296.192.486a322.146 322.146 0 0 1 6.519 17.73z"/></g></g><g><g><path fill="#000072" d="M120.834 135.89H33.106c-.344 0-.67-.152-.892-.417a1.177 1.177 0 0 1-.257-.954c5.215-30.166 21.274-63.82 21.435-64.157.279-.582.977-.826 1.556-.545.58.28.824.98.544 1.563-.158.329-15.596 32.69-20.993 62.168h84.941c-5.396-29.478-20.835-61.84-20.993-62.168a1.173 1.173 0 0 1 .544-1.563 1.164 1.164 0 0 1 1.557.545c.161.337 16.22 33.992 21.434 64.157.06.34-.035.69-.257.954a1.162 1.162 0 0 1-.89.418z"/></g></g><g><g><path fill="#61547a" d="M114.08 114.288s3.787-6.255 8.597-6.918c5.305-.732 10.864 3.619 9.704 11.108-1.358 8.77-13.291 7.637-13.291 7.637z"/></g></g><g opacity=".3"><g opacity=".09"><path fill="#fff" d="M122.682 107.37c-3.356.462-6.211 3.644-7.632 5.528 1.53-1.579 3.594-3.174 5.893-3.491 5.306-.732 10.865 3.619 9.705 11.108-.177 1.143-.535 2.116-1.021 2.946 1.363-1.132 2.41-2.73 2.76-4.983 1.16-7.49-4.4-11.84-9.705-11.108z"/></g></g><g opacity=".3"><g opacity=".09"><path fill="#000072" d="M132.417 118.22c-1.161 9.05-13.327 7.894-13.327 7.894l-5.01-11.827s1.68-2.777 4.226-4.827l2.652 6.64c1.83 4.582 7.776 5.89 11.223 2.37.08-.082.158-.165.236-.25z"/></g></g><g><g><path fill="#000072" d="M120.602 127.354c-.584 0-1.131-.026-1.626-.073a1.167 1.167 0 0 1-.963-.708l-5.01-11.826a1.175 1.175 0 0 1 .077-1.067c.166-.275 4.136-6.74 9.434-7.47a9.782 9.782 0 0 1 8.295 2.84c2.343 2.396 3.308 5.808 2.72 9.609-1.075 6.941-8.198 8.695-12.927 8.695zm-.727-2.365c2.412.083 10.336-.147 11.35-6.69.472-3.052-.266-5.753-2.08-7.608a7.447 7.447 0 0 0-6.314-2.16c-3.465.477-6.474 4.467-7.437 5.877z"/></g></g><g><g><path fill="#61547a" d="M45.206 132.104c-3.605-10.259-19.095-12.974-23.15 3.696-3.108 12.775 6.759 15.715 6.759 15.715h98.127s9.868-2.94 6.76-15.715c-4.056-16.67-19.546-13.955-23.15-3.696"/></g></g><g><g><path fill="#000072" d="M126.948 152.688H28.821a1.16 1.16 0 0 1-.331-.048c-.11-.033-10.894-3.416-7.56-17.116 1.88-7.733 6.577-12.53 12.562-12.829 5.582-.279 10.855 3.43 12.82 9.02a1.172 1.172 0 0 1-.712 1.495 1.164 1.164 0 0 1-1.487-.715c-1.624-4.622-5.938-7.692-10.505-7.461-4.97.249-8.767 4.274-10.414 11.045-1.192 4.9-.536 8.8 1.95 11.589 1.565 1.755 3.356 2.493 3.867 2.677h97.75c1.169-.414 8.443-3.462 5.814-14.266-1.647-6.77-5.443-10.797-10.414-11.045-4.567-.233-8.881 2.84-10.504 7.46a1.166 1.166 0 1 1-2.2-.779c1.965-5.59 7.24-9.303 12.82-9.02 5.986.3 10.682 5.095 12.564 12.829 3.333 13.7-7.452 17.083-7.561 17.116a1.165 1.165 0 0 1-.332.048z"/></g></g><g><g><path fill="#61547a" d="M116.088 138.829c.676-6.357 3.044-10.87 6.853-11.667 2.271-.476 4.114.943 4.114.943s1.691-2.087 5.005-1.1c1.911.57 3.016 2.895 3.016 2.895s1.763-.25 3.261 1.625c1.657 2.075 1.662 5.468 1.329 7.886-2.113 15.352-15.526 15.352-20.241 15.352H34.534c-4.715 0-18.128 0-20.241-15.352-.333-2.418-.328-5.811 1.329-7.886 1.498-1.875 3.261-1.625 3.261-1.625s1.105-2.326 3.017-2.895c3.313-.987 5.004 1.1 5.004 1.1s1.843-1.419 4.114-.943c3.81.797 6.177 5.31 6.853 11.667"/></g></g><g opacity=".3"><g opacity=".09"><path fill="#fff" d="M15.036 133.921c1.498-1.876 3.26-1.626 3.26-1.626s1.106-2.325 3.017-2.894c3.313-.988 5.004 1.099 5.004 1.099s1.844-1.419 4.114-.943c3.81.797 6.177 5.31 6.854 11.667h78.217c.089-.832.207-1.631.352-2.395h-77.99c-.676-6.357-3.044-10.87-6.853-11.667-2.27-.475-4.114.943-4.114.943s-1.691-2.087-5.004-1.1c-1.912.57-3.017 2.895-3.017 2.895s-1.763-.25-3.26 1.625c-.839 1.05-1.253 2.436-1.416 3.863.214-.532.486-1.03.836-1.467z"/></g></g><g opacity=".3"><g opacity=".09"><path fill="#fff" d="M138.33 131.525c-1.498-1.876-3.261-1.625-3.261-1.625s-1.105-2.326-3.016-2.895c-3.313-.987-5.005 1.1-5.005 1.1s-1.843-1.419-4.114-.943c-3.325.696-5.552 4.224-6.514 9.338 1.148-3.805 3.158-6.362 5.935-6.943 2.27-.476 4.114.943 4.114.943s1.691-2.087 5.004-1.1c1.911.57 3.017 2.895 3.017 2.895s1.762-.25 3.26 1.626c1.657 2.074 1.662 5.468 1.33 7.885-.057.412-.123.81-.196 1.2.332-1.094.595-2.287.775-3.595.333-2.417.328-5.811-1.329-7.886z"/></g></g><g><g><path fill="#000072" d="M119.42 155.93H34.53c-4.735 0-19.144 0-21.396-16.364-.299-2.169-.491-6.193 1.574-8.779 1.129-1.414 2.49-1.932 3.48-2.05.543-.878 1.674-2.353 3.375-2.86 2.668-.796 4.508.074 5.467.778.904-.463 2.449-1.017 4.221-.646 4.176.874 7.01 5.5 7.775 12.69a1.17 1.17 0 0 1-1.036 1.289 1.167 1.167 0 0 1-1.283-1.04c-.65-6.113-2.813-9.993-5.932-10.646-1.695-.355-3.158.72-3.173.73a1.17 1.17 0 0 1-1.607-.194c-.041-.048-1.29-1.455-3.768-.716-1.145.341-2.047 1.762-2.297 2.28-.23.474-.7.748-1.214.651-.023 0-1.156-.095-2.189 1.2-1.575 1.971-1.282 5.546-1.083 6.991 1.974 14.342 14.406 14.342 19.086 14.342h84.891c4.68 0 17.111 0 19.086-14.342.199-1.445.492-5.02-1.083-6.992-1.034-1.294-2.167-1.2-2.213-1.195a1.125 1.125 0 0 1-1.191-.659c-.25-.515-1.151-1.935-2.296-2.276-2.481-.74-3.727.668-3.778.729a1.148 1.148 0 0 1-1.603.177c-.009-.006-1.469-1.082-3.167-.726-3.12.653-5.282 4.533-5.932 10.645a1.167 1.167 0 0 1-1.283 1.04 1.17 1.17 0 0 1-1.036-1.289c.765-7.19 3.599-11.815 7.775-12.689 1.773-.371 3.318.183 4.221.646.959-.703 2.799-1.574 5.467-.778 1.702.507 2.832 1.982 3.375 2.86.99.118 2.351.636 3.48 2.05 2.065 2.586 1.873 6.61 1.574 8.78-2.253 16.363-16.661 16.363-21.397 16.363z"/></g></g><g opacity=".3"><g opacity=".09"><path fill="#000072" d="M139.665 139.409c-2.113 15.354-15.524 15.354-20.24 15.354h-84.89c-4.716 0-18.13 0-20.242-15.354-.212-1.537-.286-3.471.112-5.207 2.435 14.615 10.195 16.852 16.495 16.19 4.228-.445 6.272-1.641 9.56-3.076 2.806-1.224 4-2.378 4.805-2.382 1.031-.007 4.749 3.36 11.78 3.883h41.657c7.031-.523 10.748-3.89 11.78-3.883.804.005 1.998 1.158 4.805 2.382 2.764 1.206 5.272 2.105 7.937 2.56 7.179 1.227 14.112-2.356 16.329-15.676.401 1.738.324 3.673.112 5.209z"/></g></g><g opacity=".3"><g opacity=".09"><path fill="#000072" d="M78.63 128.482s.8 3.7-1.851 5.462c-3.51 2.332-6.673.225-6.673.225s-4.651 3.59-8.023-.129c-6.53-7.214-14.133-14.78-15.453-24.22 1.655 2.498 4.45 6.575 7.018 9.621 3.309 3.93 7.53 10.504 10.853 11.84 1.55.624 3.261-.01 4.269-.53a2.02 2.02 0 0 1 1.792-.043c.91.432 2.353.97 3.603.79 1.59-.228 2.177-1.412 2.38-2.461.181-.934.945-1.631 1.891-1.69.885-.054 1.947-.222 2.85-.658-.984 1.431-2.657 1.793-2.657 1.793z"/></g></g><g opacity=".3"><g opacity=".09"><path fill="#000072" d="M122.794 99.58c-.74 8.324-8.608 12.401-8.608 12.401 1.42-3.217-5.16-1.123-8.629-6.09a5.337 5.337 0 0 1-.897-2.304c1.28 1.817 3.348 3.12 6.652 3.083 7.636-.08 10.48-4.533 11.482-7.09z"/></g></g><g opacity=".3"><g opacity=".09"><path fill="#000072" d="M120.686 101.059l-1.001 22.938a4.751 4.751 0 0 1-.057.555c-1.508-1.07-6.985 1.154-11.408-2.082a5.233 5.233 0 0 1-1.7-2.079c-1.893-4.161-.792-6.997-.792-6.997s-2.243-3.33-1.184-8.01c.834-3.677 4.236-3.659 4.236-3.659s.642-2.188 3.018-3.037c3.146-1.12 6.483.498 8.888 2.37z"/></g></g><g><g><path fill="#61547a" d="M54.658 93.981l-11.025 7.867a42.65 42.65 0 0 1-1.711.035c-24.293.15-37.982-16.708-40.51-33.267-.611-4.017-.125-7.164 1.604-9.354 1.286-1.628 2.83-1.865 2.83-1.865s.394-2.714 2.802-3.794c2.137-.955 4.777-.161 4.777-.161s1.644-1.321 3.74-1.121c2.904.275 5.664 3.202 7.647 7.178 2.3 4.611 5.314 8.294 8.468 11.21 7.016 6.494 14.73 9.187 16.854 9.843.368.111.569.164.569.164l1.862 6.245z"/></g></g><g><g><path fill="#686779" d="M125.064 109.453h-17.88s-.156-4.142-.412-8.601c-.212-3.692-.495-7.597-.821-9.562 0 0-3.059-.436-4.851-2.93-.571-.793-1.014-1.797-1.186-3.062-.624-4.538 1.743-7.55 2.381-8.271.1-.111.158-.167.158-.167s3.653 3.206 8.02 7.884c6.422 6.88 14.395 16.948 14.59 24.71z"/></g></g><g><g><path fill="#61547a" d="M125.064 109.454h-17.88s-.155-4.142-.411-8.601c-.213-3.692-.496-7.598-.822-9.562 0 0-3.058-.436-4.85-2.93a2.489 2.489 0 0 1-.123-.182c-.512-.764-.903-1.71-1.064-2.881-.017-.126-.031-.252-.046-.375-.446-4.33 1.808-7.196 2.428-7.896.1-.111.158-.167.158-.167s3.49 3.062 7.721 7.571c.102.103.198.208.298.313 6.423 6.88 14.396 16.949 14.591 24.71z"/></g></g><g opacity=".3"><g opacity=".09"><path fill="#000072" d="M119.117 109.458H107.18s-.154-4.143-.41-8.602c-.213-3.692-1.759-6.923-2.085-8.887 0 0-1.084-3.468 1.403-.8 4.757 5.094 10.36 11.933 13.03 18.289z"/></g></g><g><g><path fill="#000072" d="M102.575 76.728c1.445.92 2.796 1.953 4.115 3.027l.98.815.96.839c.643.558 1.259 1.143 1.876 1.729 2.479 2.332 4.703 4.928 6.765 7.653 2.076 2.713 4.074 5.511 5.738 8.557.833 1.521 1.578 3.107 2.165 4.78.585 1.67 1.006 3.44 1.07 5.301a1.166 1.166 0 0 1-1.121 1.209H125.07c-2.98.022-5.96.022-8.94.061-2.98.033-5.96.07-8.94.07a1.306 1.306 0 0 1-1.292-1.122c-.222-1.555-.45-3.11-.655-4.667l-.315-2.336-.296-2.339c-.197-1.558-.417-3.114-.499-4.69-.086-1.575-.104-3.158.094-4.781a.186.186 0 0 1 .353-.059c.706 1.48 1.161 3.004 1.547 4.536.387 1.533.63 3.087.894 4.638l.391 2.327.368 2.33c.25 1.552.475 3.108.702 4.665l-1.291-1.123c2.98.002 5.96.038 8.94.07 2.98.04 5.96.04 8.94.061l-1.174 1.21c-.026-1.522-.397-3.077-.923-4.587-.531-1.514-1.223-2.993-2.009-4.43-1.578-2.874-3.482-5.606-5.568-8.192-1.049-1.29-2.148-2.541-3.24-3.8a473.377 473.377 0 0 1-3.274-3.787c-2.18-2.538-4.394-5.062-6.542-7.695l-.001-.002a.182.182 0 0 1 .025-.256.177.177 0 0 1 .209-.012z"/></g></g><g opacity=".3"><g opacity=".09"><path fill="#fff" d="M49.68 82.367s-12.245-2.916-19.643-10.534c-2.568-2.643-4.97-5.832-6.88-9.66-1.981-3.977-4.742-6.904-7.646-7.18-2.096-.199-3.74 1.121-3.74 1.121s-2.64-.793-4.777.162a4.5 4.5 0 0 0-1.044.655c.23-.822.906-2.526 2.696-3.328 2.137-.955 4.778-.161 4.778-.161s1.644-1.321 3.74-1.121c2.904.275 5.664 3.202 7.646 7.178 1.91 3.83 4.311 7.018 6.88 9.662 7.398 7.617 16.154 10.686 18.443 11.391.367.111.569.164.569.164z"/></g></g><g><g><path fill="#686779" d="M5.949 56.93c-.079.287-.105.466-.105.466s-.187.029-.484.134c.17-.208.365-.41.589-.6z"/></g></g><g opacity=".3"><g opacity=".09"><path fill="#000072" d="M56.156 104.147c-.633 5.923-7.416-2.162-11.105-2.32C18.77 104.513-3.877 80.151 2.54 59.95c1.943 17.973 9.858 29.11 42.986 35.242 6.04 1.117 10.995 7.111 10.631 8.955z"/></g></g><g><g><path fill="#000072" d="M41.625 103.056c-11.112 0-20.901-3.517-28.415-10.232C6.28 86.631 1.682 78.096.263 68.792-.41 64.382.21 60.93 2.105 58.533c.963-1.219 2.05-1.801 2.772-2.072.327-1.07 1.189-2.982 3.299-3.927 1.884-.844 4.028-.56 5.024-.352.75-.46 2.267-1.198 4.076-1.027 3.12.296 6.248 3.146 8.58 7.82 7.964 15.954 24.97 20.562 25.14 20.607a1.172 1.172 0 0 1-.585 2.267c-.739-.192-18.19-4.896-26.64-21.824-1.935-3.879-4.445-6.323-6.714-6.537-1.581-.152-2.896.862-2.91.873a1.174 1.174 0 0 1-1.055.202c-.019-.006-2.265-.65-3.967.111-1.774.794-2.122 2.871-2.125 2.891-.074.51-.47.91-.977.99-.03.005-1.132.22-2.092 1.435-1.475 1.867-1.934 4.71-1.364 8.448 2.469 16.19 16.361 33.184 41.022 32.239a1.168 1.168 0 0 1 1.21 1.126 1.17 1.17 0 0 1-1.121 1.214c-.688.025-1.373.039-2.053.039z"/></g></g><g><g><path fill="#fff" d="M15.22 74.585c2.32-.424 3.807-2.942 3.321-5.624-.485-2.682-2.759-4.514-5.079-4.09-2.32.423-3.807 2.941-3.322 5.623.486 2.683 2.76 4.514 5.08 4.09z"/></g></g><g><g><path fill="#fff" d="M8.074 67.087c.867-.24 1.345-1.257 1.068-2.273-.278-1.017-1.206-1.647-2.073-1.409-.867.24-1.345 1.257-1.068 2.273.277 1.017 1.205 1.647 2.073 1.409z"/></g></g><g><g><path fill="#fff" d="M11.879 63.066c.867-.24 1.345-1.257 1.068-2.273-.278-1.017-1.206-1.647-2.073-1.408-.867.238-1.346 1.256-1.068 2.272.277 1.017 1.205 1.647 2.073 1.409z"/></g></g><g><g><path fill="#fff" d="M17.244 63.212c.867-.238 1.346-1.256 1.068-2.272-.277-1.017-1.205-1.647-2.073-1.409-.867.24-1.345 1.257-1.068 2.273.278 1.017 1.206 1.647 2.073 1.408z"/></g></g><g><g><g><path fill="#3bb2ed" d="M113.125 154.828h-72.06c-2.333 0-4.225-1.9-4.225-4.243 0-1.35 1.09-2.445 2.434-2.445h75.641a2.439 2.439 0 0 1 2.434 2.445c0 2.343-1.891 4.243-4.224 4.243z"/></g></g><g opacity=".3"><g opacity=".09"><path fill="#fff" d="M117.348 150.586c0 .464-.075.908-.212 1.327a2.426 2.426 0 0 0-2.22-1.448h-75.64c-.672 0-1.282.272-1.722.717-.21.21-.381.455-.502.73a4.256 4.256 0 0 1-.212-1.326c0-.674.271-1.287.714-1.729a2.415 2.415 0 0 1 1.721-.717h75.64a2.438 2.438 0 0 1 2.433 2.446z"/></g></g><g opacity=".25"><g opacity=".06"><path fill="#000072" d="M117.349 150.588a4.23 4.23 0 0 1-1.238 2.999 4.196 4.196 0 0 1-2.986 1.243H41.066a4.234 4.234 0 0 1-4.226-4.242c0-.45.121-.874.336-1.238a4.224 4.224 0 0 0 3.89 2.586h72.06a4.194 4.194 0 0 0 2.985-1.243c.381-.383.69-.839.902-1.343.215.364.336.787.336 1.238z"/></g></g><g><g><path fill="#000072" d="M41.06 156c-2.972 0-5.39-2.43-5.39-5.414 0-1.994 1.615-3.616 3.6-3.616h75.64c1.986 0 3.6 1.622 3.6 3.616.001 2.985-2.417 5.414-5.39 5.414zm-1.79-6.688c-.7 0-1.268.572-1.268 1.274a3.07 3.07 0 0 0 3.059 3.072h72.06a3.07 3.07 0 0 0 3.058-3.072c0-.703-.568-1.274-1.268-1.274z"/></g></g><g><g><path fill="#ff66ac" d="M121.55 100.37l-7.047 47.77H39.677l-.255-1.729-6.796-46.042a2.5 2.5 0 0 1 2.465-2.869h83.993a2.499 2.499 0 0 1 2.466 2.87z"/></g></g><g><g><path fill="#3bb2ed" d="M121.55 100.37l-7.047 47.77H39.677l-.255-1.729-6.796-46.042a2.5 2.5 0 0 1 2.465-2.869h83.993a2.499 2.499 0 0 1 2.466 2.87z"/></g></g><g opacity=".4"><g opacity=".16"><path fill="#fff" d="M35.235 103.28a2.5 2.5 0 0 1 2.465-2.87h83.844l.006-.04a2.498 2.498 0 0 0-2.465-2.87H35.092a2.5 2.5 0 0 0-2.465 2.87l6.796 46.04.255 1.73h2.179z"/></g></g><g opacity=".25"><g opacity=".06"><path fill="#000072" d="M121.558 100.37l-7.049 47.769H39.685l-.255-1.729c6.93-.275 39.571-.197 57.683-12.388 14.428-9.711 15.662-28.293 13.425-36.522h8.555a2.498 2.498 0 0 1 2.465 2.87z"/></g></g><g><g><path fill="#000072" d="M115.513 149.312H38.677l-7.197-48.771a3.682 3.682 0 0 1 .848-2.938 3.647 3.647 0 0 1 2.769-1.273h83.995c1.064 0 2.073.464 2.769 1.273a3.68 3.68 0 0 1 .848 2.938zm-74.824-2.342H113.5l6.903-46.772a1.315 1.315 0 0 0-.308-1.065 1.305 1.305 0 0 0-1.003-.461H35.097c-.39 0-.747.163-1.003.461a1.317 1.317 0 0 0-.307 1.065z"/></g></g><g><g><path fill="#fff" d="M81.357 126.466c.185 0 .368-.02.542-.06a5.688 5.688 0 0 1-5.099 3.172c-3.147 0-5.7-2.562-5.7-5.725 0-3.16 2.553-5.723 5.7-5.723a5.69 5.69 0 0 1 5.1 3.172 2.421 2.421 0 0 0-.543-.06c-1.437 0-2.6 1.17-2.6 2.61a2.606 2.606 0 0 0 2.6 2.614z"/></g></g><g opacity=".3"><g opacity=".09"><path fill="#fff" d="M45.315 136.717c-2.838-6.284-4.905-17.011-4.44-23.325.466-6.313 4.112-4.381 5.242 3.706 3.008 21.522.466 22.424-.802 19.619z"/></g></g></g><g><g><path fill="#61547a" d="M124.869 107.95v.003c1.614 8.776-5.317 15.234-5.317 15.234.543-3.718-5.628.33-10.614-3.782a5.68 5.68 0 0 1-1.58-2.112c-.96-2.144-.61-4.452-.61-4.452s-1.809-3.996-1.34-6.51c.67-3.611 3.37-4.599 3.37-4.599s1.124-3.032 3.221-3.802c4.38-1.605 8.818 1.538 10.238 3.692 1.447 2.198 2.262 4.325 2.632 6.328z"/></g></g><g opacity=".3"><g opacity=".09"><path fill="#fff" d="M124.716 114.07a14.67 14.67 0 0 0-.224-3.454v-.003c-.37-2.003-1.186-4.13-2.632-6.33-1.42-2.152-5.856-5.296-10.237-3.692-.633.231-1.665.606-2.793 1.019.233-.565 1.327-3.001 3.175-3.68 4.38-1.604 8.818 1.537 10.237 3.692 1.446 2.199 2.262 4.324 2.632 6.326v.003c.405 2.208.27 4.272-.158 6.12z"/></g></g><g opacity=".3"><g opacity=".09"><path fill="#000072" d="M124.984 112.551c-.824 6.341-5.433 10.633-5.433 10.633.545-3.718-5.629.328-10.613-3.782a5.695 5.695 0 0 1-1.58-2.112c-.96-2.146-.612-4.453-.612-4.453s-1.808-3.996-1.338-6.51c.312-1.693 1.073-2.809 1.792-3.517.312 2.187 1.33 4.442 1.33 4.442s-.35 2.307.612 4.45c.335.761.84 1.501 1.58 2.114 4.984 4.11 11.155.061 10.613 3.782 0 0 2.043-1.903 3.65-5.047z"/></g></g><g><g><path fill="#000072" d="M119.557 124.356c-.185 0-.372-.044-.543-.134a1.173 1.173 0 0 1-.61-1.207c.023-.159.023-.26.019-.317-.317-.116-1.218-.101-1.888-.09-2.162.036-5.43.09-8.33-2.301-2.82-2.326-2.745-6.1-2.644-7.283-.454-1.073-1.753-4.447-1.295-6.912.605-3.254 2.648-4.72 3.61-5.243.448-1.007 1.662-3.284 3.73-4.041 5.054-1.853 10.054 1.787 11.608 4.146 4.302 6.538 3.286 12.48 1.676 16.316-1.721 4.1-4.426 6.648-4.54 6.754-.22.206-.506.312-.793.312zm-2.33-4.097c1.127 0 2.102.09 2.784.697 2.383-2.933 6.839-10.208 1.258-18.69-1.162-1.765-5.077-4.625-8.863-3.238-1.296.475-2.267 2.41-2.532 3.114-.12.32-.374.572-.692.69-.074.029-2.091.85-2.623 3.71-.326 1.759.797 4.794 1.257 5.815.093.206.125.436.09.66-.004.032-.491 3.608 1.779 5.48 2.238 1.846 4.775 1.803 6.811 1.77.25-.004.494-.008.73-.008z"/></g></g><g><g><path fill="#61547a" d="M126.898 23.768c-1.835 1.865-3.983 2.98-5.8 1.099-.496-.513-.946-1.161-1.508-1.94-.87-1.203-2.005-2.724-3.984-4.558-4.15-3.848-7.514-4.713-9.252-5.68-.856-.48-1.315-.98-1.282-1.876.171-4.536 3.3-7.834 10.425-9.002 3.717-.61 7.53.291 10.231 1.977.245.15.48.31.706.474.068.051.137.1.203.154.067.052.134.103.198.156a11.603 11.603 0 0 1 .235.194 16.604 16.604 0 0 1 .324.292c.058.056.117.11.173.166a7.063 7.063 0 0 1 1.352 1.817c3.735 7.393 1.153 13.502-2.021 16.727z"/></g></g><g opacity=".3"><g opacity=".09"><path fill="#fff" d="M125.728 3.788c-10.854-4.082-17.524 5.683-19.374 8.9-.856-.478-1.315-.98-1.282-1.875.171-4.536 3.3-7.834 10.425-9.002 3.718-.61 7.53.291 10.231 1.977z"/><path fill="none" d="M125.728 3.788c-10.854-4.082-17.524 5.683-19.374 8.9-.856-.478-1.315-.98-1.282-1.875.171-4.536 3.3-7.834 10.425-9.002 3.718-.61 7.53.291 10.231 1.977z"/></g></g><g opacity=".3"><g opacity=".09"><path fill="#000072" d="M126.897 23.767c-1.835 1.865-3.982 2.979-5.798 1.098-.497-.513-.947-1.16-1.509-1.94a5.27 5.27 0 0 0 3.61-1.583c3.334-3.388 6.096-9.552 3.234-17.082.069.051.137.1.204.154a11.607 11.607 0 0 1 .433.35 16.857 16.857 0 0 1 .323.292c.058.056.117.11.173.166a7.064 7.064 0 0 1 1.352 1.817c3.734 7.393 1.152 13.503-2.022 16.728z"/></g></g><g><g><path fill="#000072" d="M122.893 27.095a1.168 1.168 0 0 1-1.165-1.122 1.17 1.17 0 0 1 1.117-1.22c1.107-.046 3.523-1.445 5.189-4.303 1.27-2.178 2.94-6.748-.154-12.877-1.709-3.383-6.003-5.475-10.69-5.208-5.309.303-9.6 3.518-11.48 8.6a1.164 1.164 0 0 1-1.5.69 1.173 1.173 0 0 1-.687-1.506c2.214-5.98 7.273-9.765 13.535-10.123 5.595-.318 10.78 2.288 12.902 6.488 3.595 7.12 1.597 12.529.086 15.12-1.787 3.066-4.775 5.362-7.104 5.46h-.05z"/></g></g><g><g><path fill="#61547a" d="M51.462 11.37c.053 3.66-3.783 1.8-9.874 7.648-3.204 3.076-3.305 4.116-4.544 5.446a4.64 4.64 0 0 1-6.65.153c-3.23-3.17-5.918-9.233-2.314-16.691 1.728-3.575 7.61-6.299 13.33-5.465 7.141 1.043 9.985 4.37 10.052 8.909z"/></g></g><g opacity=".3"><g opacity=".09"><path fill="#343c47" d="M38.373 22.69c-.462.665-.788 1.19-1.329 1.773a4.64 4.64 0 0 1-6.65.152c-3.23-3.168-5.918-9.232-2.314-16.69.486-1.006 1.3-1.944 2.348-2.755-2.801 7.256-.084 13.12 3.141 16.284a4.944 4.944 0 0 0 4.804 1.236z"/><path fill="none" d="M38.373 22.69c-.462.665-.788 1.19-1.329 1.773a4.64 4.64 0 0 1-6.65.152c-3.23-3.168-5.918-9.232-2.314-16.69.486-1.006 1.3-1.944 2.348-2.755-2.801 7.256-.084 13.12 3.141 16.284a4.944 4.944 0 0 0 4.804 1.236z"/></g></g><g opacity=".3"><g opacity=".09"><path fill="#fff" d="M31.02 4.619C41.8.346 48.64 9.992 50.546 13.176c.848-.493 1.299-1.002 1.25-1.897-.25-4.533-3.437-7.775-10.58-8.817-3.729-.545-7.524.423-10.196 2.157z"/><path fill="none" d="M31.02 4.619C41.8.346 48.64 9.992 50.546 13.176c.848-.493 1.299-1.002 1.25-1.897-.25-4.533-3.437-7.775-10.58-8.817-3.729-.545-7.524.423-10.196 2.157z"/></g></g><g><g><path fill="#000072" d="M34.43 27.87h-.03c-2.33-.057-5.357-2.3-7.198-5.334-1.556-2.564-3.647-7.937-.177-15.119C29.072 3.18 34.215.481 39.812.703c6.267.247 11.392 3.942 13.708 9.884a1.173 1.173 0 0 1-.66 1.517 1.165 1.165 0 0 1-1.511-.663C49.38 6.392 45.033 3.253 39.72 3.043c-4.697-.187-8.948 1.983-10.597 5.396-2.987 6.181-1.238 10.722.07 12.878 1.716 2.827 4.156 4.185 5.264 4.211a1.168 1.168 0 0 1 1.137 1.2 1.168 1.168 0 0 1-1.165 1.142z"/></g></g><g opacity=".3"><g opacity=".09"><path fill="#000072" d="M110.175 84.436c-1.052.594-2.39 1.241-3.976 1.894a59.494 59.494 0 0 1-5.221 1.853c-5.833 1.789-13.4 3.255-21.757 3.314-10.9.114-20.501-2.192-26.655-4.535-1.717-.656-3.166-1.312-4.3-1.92-.19-.1-.37-.2-.542-.3-5.256-3.02-8.567-5.802-11.32-9.319a36.246 36.246 0 0 1-3.124-4.713c7.016 6.494 14.73 9.187 16.855 9.843.16-.387.32-.761.478-1.127 2.285-5.34 3.833-8.555 3.833-8.555H99.5s1.09 2.268 2.795 6.16c.1-.112.158-.168.158-.168s3.49 3.064 7.722 7.573z"/></g></g><g><g><path fill="#fff" d="M130.137 54.521c-.035.62-.091 1.194-.169 1.722-.799 5.422-2.402 11.48-8.177 17.05-2.693 2.6-5.964 4.676-11.173 6.956-4.845 2.114-16.945 5.285-31.395 5.393-14.446.147-26.599-2.81-31.478-4.843-5.25-2.186-8.556-4.204-11.296-6.756-5.87-5.466-7.576-11.497-8.468-16.905a21.412 21.412 0 0 1-.238-2.388c-.458-8.947 2.798-25.831 8.78-33.443 2.518-3.2 5.086-6.186 8.181-8.83 6.541-5.583 15.42-9.618 31.063-10.841.906-.07 1.816-.108 2.725-.114.91-.009 1.82.012 2.728.067 15.82.958 24.792 4.907 31.453 10.464 3.049 2.547 5.612 5.428 8.127 8.513 6.27 7.697 9.841 25.195 9.337 33.955z"/><path fill="none" d="M130.137 54.521c-.035.62-.091 1.194-.169 1.722-.799 5.422-2.402 11.48-8.177 17.05-2.693 2.6-5.964 4.676-11.173 6.956-4.845 2.114-16.945 5.285-31.395 5.393-14.446.147-26.599-2.81-31.478-4.843-5.25-2.186-8.556-4.204-11.296-6.756-5.87-5.466-7.576-11.497-8.468-16.905a21.412 21.412 0 0 1-.238-2.388c-.458-8.947 2.798-25.831 8.78-33.443 2.518-3.2 5.086-6.186 8.181-8.83 6.541-5.583 15.42-9.618 31.063-10.841.906-.07 1.816-.108 2.725-.114.91-.009 1.82.012 2.728.067 15.82.958 24.792 4.907 31.453 10.464 3.049 2.547 5.612 5.428 8.127 8.513 6.27 7.697 9.841 25.195 9.337 33.955z"/></g></g><g opacity=".3"><g opacity=".09"><path fill="#000072" d="M130.134 54.517c-.034.62-.09 1.194-.169 1.721-.798 5.423-2.402 11.48-8.176 17.051-2.694 2.6-5.964 4.676-11.173 6.956-4.845 2.114-16.946 5.284-31.395 5.392-14.447.147-26.6-2.81-31.479-4.842-5.25-2.187-8.555-4.204-11.295-6.757-5.87-5.466-7.576-11.497-8.468-16.904a21.41 21.41 0 0 1-.239-2.389c.029-.72.076-1.47.137-2.24l.029.185c.892 5.404 2.6 11.435 8.468 16.904 2.743 2.553 6.048 4.57 11.298 6.754 4.88 2.035 17.029 4.989 31.479 4.846 14.45-.112 26.55-3.28 31.392-5.399 5.212-2.274 8.48-4.35 11.176-6.95 5.774-5.571 7.377-11.631 8.173-17.053.012-.06.017-.12.026-.182.103 1.01.175 1.982.216 2.907z"/></g></g><g><g><path fill="#000072" d="M78.178 86.822c-15.01 0-26.713-3.204-30.876-4.938-5.26-2.19-8.742-4.278-11.643-6.98-6.173-5.75-7.926-12.11-8.826-17.572-1.377-8.35 2.008-28.135 8.777-36.747 4.274-5.436 8.332-9.759 14.256-13.189C56.55 3.526 64.752 1.326 75.68.472a41.04 41.04 0 0 1 5.611-.05c10.94.662 19.18 2.718 25.93 6.47 5.983 3.325 10.118 7.577 14.485 12.937 6.918 8.491 10.647 28.213 9.416 36.587-.805 5.478-2.447 11.867-8.518 17.724-2.854 2.752-6.299 4.901-11.52 7.183-4.229 1.85-16.327 5.377-31.847 5.494-.354.003-.708.005-1.06.005zm.68-84.13l-.353.001a38.57 38.57 0 0 0-2.644.113C52.898 4.6 44.874 12.577 37.44 22.036c-6.304 8.02-9.587 27.15-8.307 34.913.836 5.072 2.454 10.968 8.111 16.237 2.687 2.502 5.962 4.456 10.95 6.534 4.11 1.712 15.883 4.908 31.023 4.754 15.145-.114 26.859-3.516 30.937-5.299 4.952-2.165 8.193-4.176 10.835-6.725 5.565-5.368 7.079-11.29 7.827-16.377 1.144-7.785-2.47-26.854-8.914-34.762-7.6-9.327-15.76-17.16-38.75-18.552a38.215 38.215 0 0 0-2.293-.067z"/></g></g><g><g><path fill="#61547a" d="M44.365 61.386s-6.951-1.429-4.834-10.097c2.118-8.668 16.373-14.534 20.51-13.914 4.135.62 5.62 3.88 6.028 6.104.408 2.225 1.187 12.614-4.721 15.826-5.907 3.212-13.317 2.955-16.983 2.081z"/></g></g><g><g><g><path fill="#000072" d="M62.702 50.522c.693-4.692-1.553-8.914-5.016-9.43s-6.833 2.869-7.526 7.56c-.693 4.692 1.552 8.914 5.016 9.43 3.463.516 6.832-2.869 7.526-7.56z"/></g></g><g><g><path fill="#fff" d="M60.557 48.487c.224-1.62-.349-3.04-1.278-3.169-.93-.129-1.865 1.08-2.088 2.701-.223 1.62.35 3.04 1.279 3.169.93.129 1.864-1.08 2.087-2.701z"/></g></g><g><g><path fill="#fff" d="M53.908 51.51c.157-.803-.088-1.527-.549-1.618-.46-.091-.96.485-1.118 1.288-.158.802.088 1.526.548 1.618.46.09.961-.486 1.119-1.288z"/></g></g></g><g><g><path fill="#61547a" d="M96.795 62.02s-9.813-1.173-8.182-12.553c1.631-11.38 4.225-12.154 10.01-11.965 5.787.19 14.74 5.422 17.807 9.34 3.068 3.92 3.599 10.985 2.194 13.654-1.153 2.19-5.032 3.56-10.734 3.267-5.701-.292-8.935-1.149-11.095-1.742z"/></g></g><g><g><path fill="#fff" d="M77.46 62.073c1.154 3.204 6.588 6.037 8.008-.833"/><path fill="none" d="M77.46 62.073c1.154 3.204 6.588 6.037 8.008-.833"/></g></g><g><g><path fill="#fff" d="M76.88 61.896c.06 3.437-5.952 6.051-6.93-.636"/></g></g><g><g><path fill="#000072" d="M70.083 61.217c.15.441.304.877.497 1.274.187.402.402.773.653 1.077.25.304.523.546.81.695.287.147.582.215.902.204.639-.019 1.363-.362 1.966-.879.6-.516 1.093-1.207 1.334-1.886l1.085-3.052 1.115 3.032c.25.678.765 1.35 1.37 1.86.61.506 1.336.843 1.979.86.322.013.622-.053.916-.204a2.75 2.75 0 0 0 .831-.701c.13-.151.242-.332.365-.506.106-.19.223-.374.314-.582.207-.4.368-.841.535-1.287l.012-.03a.616.616 0 0 1 1.192.281 9.064 9.064 0 0 1-.277 1.582c-.147.526-.344 1.062-.657 1.57-.306.505-.714 1.005-1.269 1.375a3.738 3.738 0 0 1-1.894.648 4.786 4.786 0 0 1-1.898-.304 5.876 5.876 0 0 1-1.576-.894c-.938-.73-1.691-1.68-2.137-2.87l2.2-.02c-.42 1.201-1.168 2.154-2.088 2.906a5.905 5.905 0 0 1-1.557.924 4.783 4.783 0 0 1-1.893.349 3.743 3.743 0 0 1-1.922-.598 4.407 4.407 0 0 1-1.327-1.345 6.236 6.236 0 0 1-.727-1.556c-.181-.526-.278-1.055-.366-1.579a.776.776 0 1 1 1.499-.38z"/></g></g><g><g><path fill="#000072" d="M77.497 56.48l1.024 6.374-2.331.048.605-6.38z"/></g></g><g><g><path fill="#000072" d="M83.906 55.17c.04 2.22-2.924 4.075-6.62 4.142-3.696.068-6.725-1.677-6.766-3.897-.04-2.22 2.959-2.119 6.655-2.187 3.696-.068 6.69-.278 6.73 1.942z"/></g></g><g opacity=".3"><g opacity=".09"><path fill="#fff" d="M79.922 54.83c.01.582-1.087 1.073-2.452 1.098-1.365.025-2.48-.426-2.49-1.007-.01-.581 1.097-.561 2.461-.586 1.365-.025 2.47-.086 2.481.495z"/><path fill="none" d="M79.922 54.83c.01.582-1.087 1.073-2.452 1.098-1.365.025-2.48-.426-2.49-1.007-.01-.581 1.097-.561 2.461-.586 1.365-.025 2.47-.086 2.481.495z"/></g></g><g><g><g><path fill="#000072" d="M100.282 58.086c3.464-.516 5.71-4.738 5.016-9.43-.693-4.692-4.063-8.077-7.526-7.56-3.464.516-5.71 4.738-5.016 9.43.693 4.691 4.063 8.076 7.526 7.56z"/></g></g><g><g><path fill="#fff" d="M96.986 51.2c.93-.13 1.502-1.549 1.279-3.17-.224-1.62-1.158-2.83-2.088-2.7-.93.129-1.502 1.548-1.279 3.168.224 1.621 1.158 2.83 2.088 2.701z"/></g></g><g><g><path fill="#fff" d="M102.661 52.793c.46-.091.706-.815.549-1.618-.158-.802-.659-1.379-1.119-1.288-.46.092-.706.816-.548 1.618.157.803.658 1.38 1.118 1.288z"/></g></g></g><g><g><g><path fill="#fff" d="M131.54 143.052c.3-2.695-1.348-5.09-3.679-5.351-2.33-.26-4.462 1.713-4.76 4.408-.3 2.694 1.348 5.09 3.679 5.35 2.33.261 4.462-1.712 4.76-4.407z"/></g></g><g><g><path fill="#fff" d="M135.038 138.539c.206-1.028-.338-2.004-1.215-2.182-.877-.177-1.755.512-1.961 1.54-.206 1.028.338 2.005 1.215 2.182.877.177 1.755-.512 1.96-1.54z"/></g></g><g><g><path fill="#fff" d="M130.988 134.811c.206-1.027-.338-2.004-1.215-2.182-.877-.177-1.755.513-1.961 1.54-.206 1.028.338 2.005 1.215 2.182.877.177 1.755-.512 1.961-1.54z"/></g></g><g><g><path fill="#fff" d="M125.674 135.327c.206-1.028-.338-2.005-1.215-2.182-.877-.178-1.755.512-1.961 1.54-.206 1.027.338 2.004 1.215 2.181.877.178 1.755-.512 1.96-1.54z"/></g></g></g><g><g><g><path fill="#fff" d="M27.878 147.463c2.33-.26 3.978-2.656 3.68-5.351-.3-2.695-2.43-4.668-4.761-4.408-2.331.26-3.979 2.656-3.68 5.351.299 2.695 2.43 4.669 4.76 4.408z"/></g></g><g><g><path fill="#fff" d="M21.59 140.084c.877-.177 1.42-1.154 1.215-2.181-.206-1.028-1.084-1.718-1.961-1.54-.877.177-1.421 1.154-1.215 2.182.206 1.027 1.084 1.717 1.96 1.54z"/></g></g><g><g><path fill="#fff" d="M25.638 136.356c.877-.177 1.421-1.154 1.215-2.182-.206-1.027-1.084-1.717-1.96-1.54-.878.178-1.422 1.154-1.216 2.182.206 1.028 1.084 1.717 1.961 1.54z"/></g></g><g><g><path fill="#fff" d="M30.953 136.87c.877-.176 1.42-1.153 1.215-2.18-.206-1.029-1.084-1.718-1.96-1.54-.878.177-1.422 1.153-1.216 2.181.206 1.028 1.084 1.717 1.96 1.54z"/></g></g></g></g></g></g></svg>