<svg xmlns="http://www.w3.org/2000/svg" width="34" height="34" viewBox="0 0 34 34"><g><g><g/><g><path fill="#039be5" d="M17 34c9.389 0 17-7.611 17-17S26.389 0 17 0 0 7.611 0 17s7.611 17 17 17z"/></g><g><path fill="#fff" d="M7.78 16.627l16.391-6.32c.761-.274 1.426.186 1.18 1.336v-.001l-2.79 13.148c-.207.932-.761 1.159-1.536.72l-4.25-3.133-2.05 1.975c-.227.227-.418.418-.857.418l.302-4.325 7.876-7.116c.343-.302-.076-.472-.528-.171l-9.734 6.128-4.196-1.309c-.911-.289-.93-.91.193-1.35z"/></g></g></g></svg>