<svg xmlns="http://www.w3.org/2000/svg" width="34" height="34" viewBox="0 0 34 34"><g><g><g/><g><g><g><path fill="#6f3faa" d="M17 34c9.389 0 17-7.611 17-17S26.389 0 17 0 0 7.611 0 17s7.611 17 17 17z"/></g><g><g><path fill="#fff" d="M26.824 11.484c.61 2.782.607 5.663-.01 8.444v.023c-.494 2.005-2.731 4.157-4.784 4.605h-.024a26.681 26.681 0 0 1-6.48.433l-2.269 2.357a.9.9 0 0 1-1.545-.624v-2.237a5.796 5.796 0 0 1-1.505-.697c-1.426-.908-2.662-2.411-3.018-3.84v-.024a19.618 19.618 0 0 1 0-8.44v-.025c.499-2.005 2.734-4.158 4.793-4.604h.023a26.597 26.597 0 0 1 10.011 0h.023c1.109.24 2.27.98 3.182 1.922.78.804 1.375 1.758 1.603 2.682zm-1.794.404c-.155-.588-.574-1.24-1.12-1.807-.665-.695-1.515-1.261-2.26-1.427a24.727 24.727 0 0 0-9.293 0c-1.34.301-3.047 1.926-3.377 3.228a17.773 17.773 0 0 0 0 7.629c.267 1.062 1.424 2.318 2.571 2.93.255.138.526.242.808.31a.128.128 0 0 1 .104.125v3.709a.204.204 0 0 0 .354.14l1.761-1.805 1.656-1.7a.114.114 0 0 1 .093-.039c1.785.047 3.57-.099 5.324-.435 1.35-.3 3.046-1.928 3.379-3.235a17.771 17.771 0 0 0 0-7.623z"/></g><g><path fill="#fff" d="M21.69 19.701a2.865 2.865 0 0 1-1.228 1.353c-.171.072-.35.129-.531.168-.207-.062-.404-.105-.58-.18a14.657 14.657 0 0 1-4.037-2.374c-.36-.307-.697-.638-1.01-.991a13.098 13.098 0 0 1-1.933-2.948c-.247-.504-.455-1.026-.668-1.546-.193-.473.093-.966.386-1.32a3.09 3.09 0 0 1 1.038-.772.668.668 0 0 1 .832.193 10.79 10.79 0 0 1 1.299 1.803.858.858 0 0 1-.242 1.159 2.879 2.879 0 0 0-.276.22.871.871 0 0 0-.209.22.605.605 0 0 0-.046.535c.373 1.026.939 1.882 1.785 2.483.286.202.595.371.92.504a1.4 1.4 0 0 0 .691.17c.421-.05.56-.516.854-.755a.81.81 0 0 1 .966-.045c.313.193.614.412.915.624.298.204.585.423.86.657a.68.68 0 0 1 .215.842z"/></g><g><path fill="#fff" d="M17.222 10.43h-.112"/></g><g><path fill="#fff" d="M17.557 10.452h-.247c.08-.004.162 0 .247 0z"/></g><g><path fill="#fff" d="M21.83 16.237c-.192 0-.287-.164-.3-.344-.026-.353-.045-.709-.093-1.06a4.443 4.443 0 0 0-3.582-3.715c-.278-.05-.562-.062-.842-.091-.178-.02-.412-.03-.45-.251a.303.303 0 0 1 .3-.344 5.135 5.135 0 0 1 4.39 2.318c.364.57.612 1.206.729 1.872.073.417.1.846.133 1.271a.297.297 0 0 1-.284.344z"/></g><g><path fill="#fff" d="M20.783 15.338a.738.738 0 0 1-.023.17.284.284 0 0 1-.534.029.83.83 0 0 1-.029-.24 3.112 3.112 0 0 0-.25-1.258 2.813 2.813 0 0 0-1.31-1.362 3.477 3.477 0 0 0-.94-.29c-.142-.022-.285-.036-.428-.055a.272.272 0 0 1-.257-.304.269.269 0 0 1 .3-.266 3.914 3.914 0 0 1 1.628.425c.617.31 1.12.808 1.439 1.422.18.358.3.743.355 1.14.01.051.019.103.024.156.01.116.013.232.023.375l.002.058z"/></g><g><path fill="#fff" d="M19.46 15.065a.251.251 0 0 1-.205.193h-.043a.292.292 0 0 1-.294-.193.386.386 0 0 1-.023-.099c-.01-.13-.03-.26-.058-.386a1.122 1.122 0 0 0-.413-.648 1.093 1.093 0 0 0-.334-.162c-.153-.044-.313-.033-.464-.07a.286.286 0 0 1-.232-.33.3.3 0 0 1 .315-.24c.885.065 1.546.49 1.716 1.438.017.088.03.177.036.267.011.076.01.153-.002.23z"/></g></g></g></g></g></g></svg>