<svg xmlns="http://www.w3.org/2000/svg" width="22" height="22" viewBox="0 0 22 22"><g><g><g/><g><g><g><g><path fill="#67d449" d="M13.69 12.898c-.114.318-.658.608-.92.647-.235.035-.532.05-.858-.053a7.937 7.937 0 0 1-.777-.288c-1.366-.59-2.26-1.965-2.327-2.056-.069-.09-.557-.738-.557-1.409 0-.67.352-1 .477-1.136a.5.5 0 0 1 .363-.17c.091 0 .182 0 .262.004.084.004.196-.031.306.234.114.273.386.943.42 1.011.034.068.057.148.011.239-.045.09-.068.148-.136.227-.068.08-.143.178-.204.239-.068.067-.14.141-.06.278.08.136.353.582.758.943.52.464.96.608 1.096.676.136.068.216.057.295-.034.08-.09.34-.397.431-.534.091-.136.182-.114.307-.068.125.045.795.374.931.443.136.068.227.102.261.159.034.057.034.33-.08.648zM11.023 6.42a4.538 4.538 0 0 0-4.534 4.53c0 .856.24 1.69.693 2.411l.108.171-.458 1.672 1.715-.45.165.098a4.519 4.519 0 0 0 2.307.632h.002a4.538 4.538 0 0 0 4.532-4.53c0-1.211-.47-2.35-1.326-3.206a4.502 4.502 0 0 0-3.204-1.328z"/></g><g><g><path fill="#67d449" d="M11.02 16.405a5.44 5.44 0 0 1-2.605-.663l-2.89.758.773-2.825a5.436 5.436 0 0 1-.728-2.725 5.459 5.459 0 0 1 5.453-5.45c1.458 0 2.827.568 3.857 1.598a5.417 5.417 0 0 1 1.595 3.857 5.46 5.46 0 0 1-5.452 5.45zM11 0C4.925 0 0 4.925 0 11s4.925 11 11 11 11-4.925 11-11S17.075 0 11 0z"/></g></g></g></g></g></g></g></svg>