<svg xmlns="http://www.w3.org/2000/svg" width="34" height="34" viewBox="0 0 34 34"><g><g><g/><g><g><g><g><path fill="#67d449" d="M21.157 19.93c-.176.493-1.017.941-1.422 1.002a2.898 2.898 0 0 1-1.326-.083 12.271 12.271 0 0 1-1.2-.444c-2.112-.912-3.492-3.038-3.597-3.178-.106-.14-.86-1.141-.86-2.177s.544-1.546.737-1.757a.773.773 0 0 1 .561-.263c.14 0 .281.001.404.007.13.007.303-.048.474.362.175.421.596 1.457.65 1.563.051.105.086.228.016.368-.07.14-.105.229-.21.352-.105.122-.221.274-.316.369-.105.104-.215.218-.092.429.123.21.545.9 1.17 1.458.805.717 1.484.939 1.694 1.045.21.105.334.087.456-.053.123-.14.527-.614.667-.826.14-.21.281-.175.474-.105.193.07 1.229.58 1.439.686.21.105.35.157.404.245.052.088.052.509-.124 1zm-4.12-10.01c-3.863 0-7.006 3.14-7.007 7 0 1.324.37 2.612 1.071 3.727l.167.265-.708 2.584 2.651-.695.255.15a6.983 6.983 0 0 0 3.565.977h.003c3.86 0 7.002-3.14 7.004-7.002a6.96 6.96 0 0 0-2.05-4.953z"/></g><g><g><path fill="#67d449" d="M17.032 25.353a8.408 8.408 0 0 1-4.027-1.025L8.537 25.5l1.197-4.366a8.401 8.401 0 0 1-1.126-4.212C8.61 12.278 12.39 8.5 17.035 8.5c2.254 0 4.37.878 5.96 2.47a8.37 8.37 0 0 1 2.467 5.96c-.002 4.644-3.783 8.423-8.427 8.423zM17 0C7.61 0 0 7.61 0 17c0 9.388 7.61 17 17 17 9.388 0 17-7.612 17-17 0-9.39-7.612-17-17-17z"/></g></g></g></g></g></g></g></svg>