<svg xmlns="http://www.w3.org/2000/svg" width="34" height="34" viewBox="0 0 34 34"><g><g><path fill="#ea412c" d="M25.5 17.642c0 1.376-.17 2.752-.17 2.752s-.166 1.17-.676 1.687c-.646.677-1.37.68-1.703.72-2.379.171-5.951.177-5.951.177s-4.42-.04-5.78-.17c-.378-.072-1.228-.05-1.874-.727-.51-.517-.676-1.687-.676-1.687s-.17-1.376-.17-2.752v-1.29c0-1.376.17-2.75.17-2.75s.166-1.173.676-1.69c.646-.676 1.37-.68 1.703-.719 2.379-.172 5.948-.172 5.948-.172h.006s3.57 0 5.948.172c.333.04 1.057.043 1.703.72.51.516.676 1.688.676 1.688s.17 1.375.17 2.75zM17 0C7.61 0 0 7.61 0 17c0 9.388 7.61 17 17 17s17-7.612 17-17c0-9.39-7.61-17-17-17z"/></g><g><path fill="#ea412c" d="M15.241 19.207l4.593-2.38-4.594-2.397z"/></g></g></svg>