<svg width="429" height="520" viewBox="0 0 429 520" fill="none" xmlns="http://www.w3.org/2000/svg">
<path d="M243.14 47.373L241.164 49.4404L239.692 50.9458L201.157 25.4242C201.157 25.4242 202.501 23.6077 204.24 21.3095C207.362 17.1947 211.769 11.5344 212.045 12.0161C212.47 12.7488 243.19 47.373 243.19 47.373" fill="#864FF1"/>
<path d="M238.211 57.2766C238.736 56.8682 256.492 48.4749 257.334 48.9692C258.177 49.4636 258.325 50.9897 258.117 51.1186C257.909 51.2476 239.608 59.6517 238.796 58.8886C238.569 58.7133 238.394 58.4714 238.29 58.1914C238.187 57.9115 238.159 57.6052 238.211 57.3088" fill="#864FF1"/>
<g style="mix-blend-mode:multiply" opacity="0.36">
<g style="mix-blend-mode:multiply" opacity="0.36">
<g style="mix-blend-mode:multiply" opacity="0.36">
<path d="M241.506 49.0413L240.021 50.5306L201.157 25.2809C201.157 25.2809 202.512 23.4837 204.266 21.21L241.506 49.0413Z" fill="#2D7F75"/>
</g>
</g>
</g>
<path d="M262.204 60.3617C261.952 61.1125 233.924 72.5367 233.541 71.8975C233.541 71.8975 232.694 70.5887 232.019 69.2495C231.344 67.9102 230.9 66.7434 231.384 66.4796C232.392 65.9419 259.161 54.7511 260.048 54.9439C260.491 55.0352 261.055 56.1918 261.539 57.4296C261.955 58.3519 262.181 59.3492 262.204 60.3617Z" fill="#864FF1"/>
<path d="M233.266 59.6551C228.397 61.0412 221.824 59.7244 218.221 55.9325C214.618 52.1406 215.066 46.23 217.111 41.7153C218.456 38.963 220.346 36.5228 222.661 34.5473C223.635 33.6959 221.931 30.1218 220.763 31.1514C216.04 35.3394 212.885 41.2797 213.186 47.725C213.278 51.0384 214.349 54.2469 216.259 56.9329C218.17 59.6188 220.832 61.6576 223.898 62.7837C227.355 64.0754 231.114 64.2824 234.688 63.3777C235.934 63.0312 234.6 59.269 233.227 59.6551" fill="#FFC652"/>
<path d="M232.181 50.765L243.561 38.9585L245.191 40.4685L233.822 51.9447L232.181 50.765Z" fill="#FFC652"/>
<g style="mix-blend-mode:multiply" opacity="0.36">
<g style="mix-blend-mode:multiply" opacity="0.36">
<g style="mix-blend-mode:multiply" opacity="0.36">
<path d="M262.205 60.6088C261.955 61.3435 234.242 72.5237 233.863 71.8982C233.863 71.8982 233.026 70.6173 232.358 69.3067L232.707 69.1776C235.916 68.0358 259.614 59.5166 261.547 57.7393C261.958 58.6419 262.182 59.6179 262.205 60.6088Z" fill="#2D7F75"/>
</g>
</g>
</g>
<path d="M226.692 33.3406C226.088 34.7328 224.981 35.8452 223.592 36.4547C222.203 37.0641 220.635 37.1255 219.202 36.6266C217.77 36.1276 216.579 35.1052 215.868 33.7645C215.158 32.4237 214.98 30.8637 215.371 29.3974C215.448 29.1361 215.54 28.8793 215.647 28.6285C216.135 27.4806 216.968 26.5131 218.03 25.8606C219.093 25.2081 220.332 24.9029 221.576 24.9874C222.82 25.072 224.006 25.5421 224.971 26.3324C225.935 27.1227 226.63 28.194 226.958 29.3974C227.324 30.7035 227.23 32.0956 226.692 33.3406Z" fill="#FFCD69"/>
<path d="M227.177 29.4747C226.83 30.7084 226.098 31.8042 225.084 32.6078C224.07 33.4114 222.824 33.8824 221.523 33.9544C220.222 34.0264 218.931 33.6958 217.831 33.0091C216.731 32.3225 215.879 31.3143 215.393 30.1267C215.311 29.906 215.229 29.6954 215.168 29.4747C215.248 29.2088 215.344 28.9476 215.454 28.6923C215.959 27.5243 216.823 26.54 217.924 25.8761C219.025 25.2122 220.31 24.9017 221.599 24.9877C222.888 25.0737 224.118 25.552 225.118 26.3562C226.117 27.1603 226.837 28.2503 227.177 29.4747Z" fill="#FFC652"/>
<path d="M238.733 66.5333C237.722 66.9383 236.614 67.0348 235.549 66.8107C234.483 66.5866 233.508 66.0519 232.747 65.2743C231.986 64.4966 231.473 63.5111 231.274 62.4423C231.074 61.3735 231.196 60.2696 231.625 59.2703C232.054 58.271 232.77 57.4212 233.683 56.8286C234.596 56.2359 235.665 55.927 236.754 55.9409C237.842 55.9548 238.903 56.2909 239.8 56.9068C240.697 57.5226 241.392 58.3904 241.795 59.4003C241.857 59.5439 241.909 59.6913 241.953 59.8416C242.352 61.1569 242.242 62.5737 241.646 63.8125C241.05 65.0513 240.011 66.022 238.733 66.5333Z" fill="#FFCD69"/>
<path d="M241.188 59.9331C240.874 61.0496 240.246 62.0335 239.39 62.7488C238.535 63.4642 237.494 63.8758 236.411 63.9266C235.329 63.9774 234.259 63.665 233.349 63.0326C232.439 62.4001 231.733 61.4789 231.33 60.3961L231.18 59.9331C231.495 58.8172 232.124 57.8341 232.981 57.1198C233.837 56.4055 234.878 55.9952 235.96 55.9455C237.042 55.8959 238.112 56.2094 239.022 56.8427C239.931 57.476 240.636 58.3979 241.038 59.4809C241.097 59.6281 241.147 59.7791 241.188 59.9331Z" fill="#FFC652"/>
<path d="M409.933 37.0559C409.621 35.1216 408.94 33.2646 407.925 31.5856C406.022 28.1167 403.352 25.1232 400.115 22.8312C398.086 21.534 395.946 20.4183 393.72 19.4971C383.139 14.8055 370.54 16.5024 363.603 26.4847C357.73 34.9596 357.409 48.3558 363.031 57.0604C364.624 59.7186 367.015 61.8133 369.867 63.0497C371.354 63.573 372.91 63.8757 374.485 63.9481C378.501 64.2276 383.018 63.439 385.127 60.085C386.452 57.9687 386.472 55.3234 387.024 52.8878C387.576 50.4521 389.102 47.8368 391.602 47.5772C392.963 47.6042 394.306 47.8923 395.557 48.4257C397.311 48.9335 399.159 49.0301 400.956 48.708C402.754 48.3858 404.452 47.6537 405.917 46.569C407.349 45.4505 408.469 43.9867 409.172 42.3165C409.875 40.6462 410.137 38.8251 409.933 37.026" fill="#C6C6C6"/>
<path d="M389.461 34.7067C390.257 34.9976 391.122 35.074 391.96 34.9275C392.799 34.781 393.58 34.4173 394.22 33.8755C394.883 33.3059 395.387 32.5861 395.687 31.7815C395.987 30.9769 396.073 30.1129 395.938 29.2681C395.817 28.6273 395.579 28.0122 395.233 27.4518C395.073 27.0731 394.884 26.7061 394.668 26.3539C394.225 25.5868 393.562 24.9585 392.758 24.5437C391.954 24.1289 391.042 23.9451 390.133 24.0142C389.763 24.0792 389.403 24.1931 389.066 24.3529C388.574 24.4159 388.099 24.5692 387.668 24.8044C387.551 24.8797 387.47 24.9955 387.44 25.1274C387.41 25.2594 387.434 25.3973 387.508 25.5124C387.147 25.9106 386.843 26.3521 386.601 26.8259C385.182 29.6478 386.323 33.5882 389.535 34.7067" fill="#FFC652"/>
<path d="M375.717 39.9948C380.207 40.196 382.047 34.5118 380.411 31.1113C379.545 29.3259 377.998 27.9486 376.106 27.2782C374.183 26.6142 371.944 27.1072 371.125 29.0992C371.1 29.205 371.1 29.3153 371.125 29.4211C370.845 29.5938 370.587 29.8 370.358 30.0348C369.854 30.5523 369.474 31.1742 369.246 31.8548C369.018 32.5354 368.947 33.2575 369.039 33.9685C369.15 34.6924 369.43 35.3811 369.857 35.9806C370.052 36.2704 370.302 36.5199 370.594 36.715C370.693 37.072 370.848 37.4115 371.054 37.7211C371.641 38.3912 372.362 38.9365 373.17 39.324C373.979 39.7114 374.859 39.9328 375.758 39.9747" fill="#E76166"/>
<path d="M405.835 46.55C404.373 47.6359 402.678 48.3688 400.884 48.6913C399.09 49.0138 397.245 48.9171 395.495 48.4087C394.246 47.8747 392.906 47.5863 391.547 47.5593C389.052 47.8091 387.539 50.4373 386.978 52.8757C386.417 55.314 386.407 57.9622 385.085 60.0807C382.98 63.4384 378.422 64.2279 374.464 63.948C372.892 63.8755 371.339 63.5725 369.855 63.0487C367.008 61.8109 364.622 59.714 363.032 57.0528C359.024 50.8171 358.022 42.203 359.946 34.6882C360.491 38.0824 361.71 41.3339 363.533 44.2516C365.124 46.9152 367.514 49.0127 370.366 50.2475C371.846 50.7716 373.396 51.0747 374.965 51.1468C378.973 51.4267 383.481 50.6372 385.586 47.2795C386.918 45.161 386.938 42.5228 387.479 40.0844C388.02 37.6461 389.553 35.0179 392.048 34.7581C393.427 34.7786 394.788 35.0671 396.056 35.6075C397.804 36.1182 399.648 36.216 401.441 35.8934C403.234 35.5708 404.927 34.8366 406.386 33.7488C407.045 33.2383 407.64 32.6512 408.159 32C409.053 33.5428 409.654 35.2366 409.933 36.9966C410.137 38.7976 409.875 40.6208 409.174 42.2928C408.472 43.9649 407.354 45.4303 405.925 46.55" fill="#B7B7B7"/>
<path d="M373.257 57.9952C374.76 58.0495 376.38 57.6587 377.16 56.1067C377.612 55.6654 377.892 55.0468 377.941 54.3809C378.058 53.5637 378.001 52.7275 377.775 51.9389C377.542 51.1528 377.16 50.4313 376.655 49.8229C376.15 49.2146 375.534 48.7333 374.848 48.4115C374.125 48.1096 373.356 47.9714 372.585 48.0049C371.814 48.0385 371.057 48.2431 370.359 48.6068C368.904 49.3015 367.255 50.4194 367.031 52.3296C366.611 55.9547 370.583 57.9192 373.237 57.9952" fill="#864FF1"/>
<path d="M397.507 26.9906C397.201 26.2201 396.74 25.5165 396.149 24.921C395.558 24.3255 394.85 23.85 394.066 23.5227C393.1 23.122 392.019 23.0644 391.014 23.3599C390.998 23.317 390.973 23.2776 390.94 23.2444C390.907 23.2112 390.868 23.1848 390.825 23.1667C390.14 22.9759 389.417 22.9484 388.719 23.0866C388.021 23.2247 387.367 23.5244 386.815 23.96C385.622 24.8007 384.738 25.9869 384.29 27.3465C383.881 28.6848 383.905 30.1117 384.358 31.4365C384.812 32.7613 385.672 33.9208 386.826 34.7603C388.035 35.5676 389.47 36 390.94 36C392.41 36 393.845 35.5676 395.055 34.7603C396.31 33.9114 397.237 32.6833 397.691 31.2693C398.144 29.8554 398.098 28.3358 397.56 26.9499L397.507 26.9906ZM394.676 33.428C393.771 34.1367 392.666 34.5669 391.505 34.663C390.344 34.759 389.179 34.5166 388.162 33.967C387.192 33.4008 386.42 32.5656 385.947 31.5699C385.474 30.5742 385.322 29.4641 385.51 28.3838C385.757 27.1707 386.453 26.0861 387.468 25.3329C387.95 24.9753 388.472 24.6717 389.025 24.4278C389.214 24.3461 389.407 24.2748 389.604 24.2142L389.478 24.3261C389.288 24.5397 389.551 24.9261 389.825 24.7939C390.387 24.5278 390.999 24.3735 391.624 24.3402C392.249 24.307 392.874 24.3954 393.463 24.6003C394.052 24.8052 394.592 25.1224 395.052 25.533C395.512 25.9436 395.881 26.4392 396.139 26.9906C396.676 28.0652 396.826 29.2826 396.565 30.4491C396.304 31.6156 395.646 32.6642 394.697 33.428" fill="white"/>
<path d="M380.587 37.028C381.122 36.4071 381.519 35.6858 381.754 34.909C381.989 34.1322 382.056 33.3167 381.953 32.5132C381.678 30.9507 381.05 29.4668 380.115 28.1682C379.66 27.5506 379.071 27.038 378.389 26.6669C377.708 26.2957 376.95 26.0751 376.171 26.0207C375.395 25.9495 374.613 26.0626 373.891 26.3503C373.645 26.4697 373.408 26.6066 373.183 26.7598C370.441 27.1694 368.305 29.9562 368.048 32.5332C367.873 33.9728 368.178 35.429 368.917 36.6876C369.657 37.9462 370.792 38.9408 372.156 39.5252C373.656 40.0921 375.308 40.1532 376.848 39.6986C378.387 39.2441 379.726 38.3002 380.649 37.018L380.587 37.028ZM369.599 33.4422C369.59 32.2033 370.03 31.001 370.841 30.0461C371.803 29.0739 372.951 28.2936 374.22 27.7487C374.328 27.6985 374.415 27.6139 374.467 27.509C374.852 27.434 375.244 27.3939 375.637 27.3891C376.686 27.3777 377.697 27.7689 378.451 28.4779C379.288 29.4446 379.891 30.5811 380.218 31.804C380.453 32.4094 380.545 33.0584 380.489 33.7032C380.432 34.348 380.227 34.9722 379.889 35.5298C379.286 36.6467 378.317 37.5366 377.137 38.0593C375.956 38.5819 374.63 38.7076 373.368 38.4164C372.267 38.0953 371.304 37.4342 370.624 36.533C369.944 35.6319 369.584 34.5399 369.599 33.4222" fill="white"/>
<path d="M377.299 48.8389C376.293 47.8014 374.964 47.1618 373.547 47.0316C372.999 46.9704 372.445 46.9982 371.905 47.1138C369.327 46.8262 366.56 49.4037 366.033 51.8682C365.954 52.599 366.018 53.3386 366.219 54.0439C366.421 54.7491 366.757 55.4058 367.207 55.9757C367.975 57.268 369.164 58.2362 370.561 58.7072C372.023 59.0976 373.558 59.0976 375.02 58.7072C375.726 58.5624 376.392 58.2555 376.967 57.8094C377.542 57.3632 378.013 56.7891 378.344 56.1297C378.914 54.9414 379.12 53.6021 378.933 52.2903C378.746 50.9785 378.176 49.7566 377.299 48.7876V48.8389ZM375.498 57.3209C374.366 57.7213 373.16 57.8443 371.975 57.6803C370.745 57.5463 369.618 56.9148 368.839 55.9243C368.021 55.0231 367.505 53.875 367.366 52.6486C367.456 52.0357 367.67 51.4493 367.994 50.9274C368.318 50.4054 368.745 49.9598 369.247 49.6193C369.881 49.1409 370.546 48.7086 371.238 48.3255C372.011 48.1287 372.815 48.0964 373.6 48.2306C374.385 48.3648 375.136 48.6626 375.806 49.1059C376.616 49.7372 377.224 50.6024 377.556 51.5916C377.887 52.5807 377.926 53.6492 377.668 54.6613C377.542 55.25 377.281 55.7989 376.907 56.2618C376.533 56.7247 376.057 57.0879 375.518 57.3209" fill="white"/>
<path d="M410.797 18.2727L409.974 17.8788L408.299 19C406.14 18.5397 404.093 17.6147 402.288 16.2828C401.721 15.6888 401.295 14.9621 401.044 14.1616C400.278 12 400.173 9.64646 399.647 7.41414C399.12 5.18182 397.991 2.90909 396 2L399.426 2.36364C400.383 2.46465 401.408 2.57576 402.393 2.72727C403.826 2.92496 405.23 3.30483 406.576 3.85859C407.726 4.29496 408.774 4.98448 409.652 5.88137C410.53 6.77826 411.217 7.86199 411.668 9.0606C412.5 11.7172 411.601 15.6162 410.806 18.2828" fill="#FFC652"/>
<path d="M428.419 47.709C428.057 47.9096 427.646 48.0099 427.23 47.9992C426.814 47.9886 426.409 47.8674 426.057 47.6485C422.976 46.2571 420.706 43.5449 418.991 40.5906C418.744 40.1672 418.508 39.7336 418.282 39.3001C416.817 36.3905 415.514 33.405 414.379 30.3567C413.249 27.4731 412.13 24.5995 411 21.726L411.801 21.363L412.623 21C415.601 25.0331 418.878 28.2898 421.959 32.2018C425.04 36.1139 427.731 40.4596 428.83 45.3093C428.992 45.7113 429.039 46.1489 428.967 46.5752C428.895 47.0015 428.705 47.4005 428.419 47.7292" fill="#C6C6C6"/>
<path d="M428.426 47.709C428.068 47.9096 427.661 48.0099 427.25 47.9992C426.839 47.9886 426.438 47.8674 426.091 47.6485C423.046 46.2571 420.802 43.5449 419.106 40.5906C419.586 39.8356 419.817 38.9511 419.766 38.0599C419.735 35.3618 419.008 32.7168 417.655 30.3769C416.152 27.7453 414.355 25.265 412.792 22.6636L412 21.363L412.812 21C415.756 25.0331 418.995 28.2898 422.04 32.2018C425.086 36.1139 427.746 40.4596 428.832 45.3093C428.992 45.7113 429.039 46.1489 428.967 46.5752C428.896 47.0015 428.709 47.4005 428.426 47.7292" fill="#B7B7B7"/>
<path d="M402.566 15.854C401.974 15.2778 401.529 14.5729 401.267 13.7964C400.467 11.6997 400.357 9.41686 399.808 7.25157C399.258 5.08628 398.079 2.88179 396 2L399.578 2.35272C400.577 2.4507 401.646 2.55847 402.666 2.70544C403.045 2.76422 403.755 4.10651 403.945 4.42003C404.323 5.05032 404.657 5.705 404.944 6.37958C407.942 13.4633 403.715 16.8337 402.616 15.8246" fill="#E76166"/>
<path d="M410.799 21.6084C411.166 21.8829 411.605 22.0196 412.049 21.9977C412.494 21.9759 412.92 21.7968 413.262 21.4876C413.605 21.1784 413.845 20.7561 413.946 20.2848C414.048 19.8136 414.005 19.3192 413.824 18.8769C413.638 18.4524 413.361 18.0829 413.016 17.7995C412.699 17.4997 412.328 17.2758 411.927 17.1423C411.525 17.0087 411.103 16.9686 410.686 17.0244C410.271 17.0915 409.885 17.2978 409.583 17.6147C409.281 17.9315 409.077 18.343 409 18.7919C409.008 19.3407 409.152 19.877 409.416 20.3444C409.681 20.8118 410.057 21.1929 410.504 21.4478C410.741 21.6653 411.021 21.8202 411.323 21.9005C411.625 21.9809 411.939 21.9844 412.242 21.9109L410.799 21.6084Z" fill="#B7B7B7"/>
<path d="M124 55.3648C111.085 63.3094 98.1404 70.0524 85.2254 77.9672L84.9292 78.1062L82.9545 79C72.6462 61.9886 63.3648 46.5761 53.0565 29.5647L52 27.6382L83.3198 8.47184L91.9989 3.14896L92.2457 3C102.524 19.9716 124 55.3648 124 55.3648Z" fill="#FFC652"/>
<path d="M54.5403 31.3657C54.0469 30.5453 52.7639 30.92 52.1224 31.315C51.2557 31.8527 50.5941 32.6782 50.2473 33.6547C50.0469 34.1311 49.9663 34.6515 50.0128 35.1683C50.0594 35.685 50.2316 36.1814 50.5138 36.6121C51.2631 37.4429 52.3031 37.9347 53.4054 37.9794C55.922 38.2022 58.0439 36.5716 60.0473 35.2549C60.5253 35.0109 60.9454 34.6622 61.2779 34.2334C61.6104 33.8047 61.8473 33.3064 61.9717 32.7735C62.1023 31.5776 61.777 30.3763 61.0638 29.4211C60.3828 28.4082 58.7742 29.4211 59.4749 30.3731C59.9776 30.9623 60.2392 31.7278 60.2052 32.5102C60.0769 33.3407 59.1097 33.7661 58.5077 34.2016C57.126 35.2144 55.6457 36.3488 53.889 36.4298C53.208 36.4298 52.1125 36.3386 51.698 35.6702C51.2835 35.0017 51.698 34.0598 52.1421 33.523C52.6195 32.9641 53.2041 32.5124 53.8594 32.1962C54.0469 32.0848 54.7476 31.6999 54.5403 31.3657Z" fill="#864FF1"/>
<path d="M58.5462 40.6146C56.642 40.944 54.6116 42.3486 55.0639 44.3539C55.5584 46.5335 58.1359 47.3084 60.2716 46.8919C61.4424 46.6102 62.5476 46.1342 63.5329 45.4873C64.6341 44.8985 65.582 44.095 66.3103 43.1333C66.6305 42.7238 66.8467 42.2533 66.943 41.7566C67.0393 41.2598 67.0133 40.7495 66.8669 40.2633C66.7205 39.7771 66.4574 39.3273 66.0971 38.9472C65.7367 38.567 65.2883 38.2662 64.7849 38.0669C63.6697 37.6407 63.1226 39.3747 64.2799 39.7622C65.8264 40.2756 64.9637 42.1452 64.2062 42.8911C63.1035 43.9726 61.7314 44.7905 60.2085 45.2741C58.925 45.6519 57.0523 45.5163 56.621 44.0633C56.1897 42.6102 57.9045 41.9708 58.9039 41.409C58.9989 41.3543 59.0698 41.2704 59.1039 41.1721C59.1381 41.0739 59.1332 40.9677 59.0903 40.8724C59.0474 40.7771 58.9692 40.6989 58.8696 40.6517C58.77 40.6045 58.6554 40.5914 58.5462 40.6146Z" fill="#864FF1"/>
<path d="M65.5469 50.323C65.0533 49.5034 63.77 49.8778 63.1284 50.323C62.2545 50.8518 61.5903 51.6794 61.2528 52.6604C61.0487 53.1338 60.966 53.6529 61.0127 54.1682C61.0593 54.6836 61.2337 55.1782 61.5194 55.605C61.8886 56.0192 62.3345 56.3541 62.8309 56.5903C63.3274 56.8265 63.8647 56.9594 64.4117 56.9812C66.9288 57.1937 69.0512 55.5645 71.0452 54.2491C71.5254 54.0082 71.9472 53.6607 72.2801 53.2319C72.6131 52.8031 72.8488 52.3037 72.9701 51.77C73.1045 50.5765 72.7825 49.376 72.0718 48.4207C71.3907 47.4088 69.7816 48.4207 70.4726 49.3718C70.979 49.9589 71.2443 50.7239 71.213 51.5069C71.0748 52.3366 70.1173 52.7717 69.5052 53.2069C68.1233 54.2187 66.6426 55.3419 64.8953 55.4229C64.2044 55.4229 63.1185 55.3419 62.7039 54.6741C62.2893 54.0063 62.7039 53.0551 63.1481 52.5188C63.6282 51.9634 64.2123 51.5126 64.8657 51.1932C65.0533 51.0819 65.7542 50.7075 65.5469 50.3635" fill="#864FF1"/>
<path d="M70.2417 58.6178C68.5055 58.9576 66.6439 60.3555 67.0586 62.3651C67.512 64.5494 69.8655 65.2775 71.8235 64.9086C72.8977 64.6283 73.9114 64.1511 74.8137 63.5009C75.8249 62.9173 76.6946 62.1148 77.3601 61.1516C77.6557 60.7416 77.8559 60.2699 77.9459 59.7715C78.0359 59.2731 78.0134 58.7607 77.88 58.2722C77.7466 57.7837 77.5058 57.3317 77.1754 56.9496C76.845 56.5674 76.4334 56.265 75.9711 56.0646C74.9487 55.6471 74.4375 57.3752 75.5081 57.7635C76.926 58.278 76.1255 60.1517 75.431 60.9089C74.4182 61.9906 73.1608 62.8099 71.7657 63.2971C70.5985 63.666 68.872 63.5398 68.4862 62.0836C68.1004 60.6274 69.6533 59.9769 70.5793 59.4139C70.6692 59.3596 70.7365 59.2743 70.7689 59.174C70.8012 59.0736 70.7963 58.9648 70.7552 58.8677C70.714 58.7707 70.6393 58.6919 70.5449 58.646C70.4505 58.6 70.3428 58.59 70.2417 58.6178Z" fill="#864FF1"/>
<path d="M75.5469 68.608C73.6423 68.9474 71.6115 70.3535 72.064 72.3511C72.5585 74.533 75.126 75.3088 77.2621 74.8918C78.4339 74.6118 79.5398 74.1352 80.5241 73.4857C81.6272 72.9027 82.576 72.1011 83.302 71.139C83.6245 70.7302 83.8429 70.2598 83.941 69.7626C84.0392 69.2654 84.0146 68.7542 83.869 68.267C83.7234 67.7798 83.4607 67.3291 83.1002 66.9483C82.7397 66.5674 82.2908 66.2663 81.7868 66.0673C80.6714 65.6406 80.1137 67.3667 81.2817 67.7546C82.8285 68.2686 81.9551 70.1401 81.1975 70.8965C80.0927 71.977 78.7209 72.7954 77.199 73.282C75.9257 73.6505 74.0422 73.5245 73.6213 72.0699C73.2004 70.6153 74.8945 69.9656 75.9047 69.4032C75.9997 69.3484 76.0706 69.2644 76.1047 69.1661C76.1389 69.0677 76.134 68.9614 76.0911 68.866C76.0482 68.7706 75.97 68.6923 75.8703 68.6451C75.7707 68.5978 75.6561 68.5847 75.5469 68.608Z" fill="#864FF1"/>
<path d="M81.516 67.1757C81.3526 67.1757 81.1783 66.9459 81.0257 66.8728C80.8732 66.7996 80.4265 66.737 80.1541 66.6116C79.8533 66.4675 79.6226 66.217 79.5108 65.9129C79.399 65.6088 79.4148 65.275 79.5548 64.9819C80.3938 63.5193 81.7339 65.149 82.5184 65.7027C82.6819 65.8281 83.0305 65.7758 82.9979 65.5147C82.9653 64.9978 82.7828 64.5 82.4709 64.0773C82.159 63.6546 81.7302 63.3238 81.2328 63.1223C80.7595 62.971 80.2496 62.9598 79.7696 63.0903C79.2896 63.2207 78.8616 63.4867 78.5415 63.8536C77.1142 65.4833 78.7049 68.607 81.0257 67.8966C81.1164 67.8717 81.1991 67.825 81.2658 67.7611C81.3325 67.6971 81.3811 67.6179 81.4071 67.5309C81.4113 67.4823 81.4286 67.4356 81.4572 67.3953C81.4858 67.3551 81.5249 67.3226 81.5705 67.3011C81.5814 67.2909 81.5888 67.2777 81.5919 67.2634C81.5949 67.2491 81.5934 67.2342 81.5875 67.2207C81.5817 67.2072 81.5717 67.1957 81.559 67.1877C81.5462 67.1797 81.5313 67.1755 81.516 67.1757Z" fill="#864FF1"/>
<path d="M75.9314 57.0631C75.2417 56.7989 73.8724 56.7807 74.2322 55.7151C74.592 54.6494 76.3112 54.9682 76.741 55.9063C76.741 55.9883 76.9509 56.0247 76.9709 55.9063C77.0489 55.5204 76.9689 55.1219 76.746 54.7861C76.5231 54.4504 76.1728 54.2008 75.7615 54.0847C75.2869 53.9519 74.7761 53.9759 74.319 54.1525C73.8619 54.3291 73.4878 54.647 73.2627 55.0502C73.032 55.4353 72.9499 55.8799 73.0297 56.3126C73.1094 56.7454 73.3463 57.1411 73.7024 57.4365C74.3421 57.9739 75.6215 58.3473 76.1213 57.5002C76.1442 57.4628 76.1574 57.4211 76.1599 57.3782C76.1625 57.3354 76.1543 57.2926 76.136 57.2531C76.1177 57.2136 76.0898 57.1784 76.0543 57.1502C76.0188 57.122 75.9768 57.1016 75.9314 57.0904" fill="#864FF1"/>
<path d="M70.8933 48.6405C70.1276 48.2905 68.8516 47.6334 69.0704 46.6604C69.135 46.4318 69.2917 46.2356 69.5076 46.1131C69.7234 45.9905 69.9816 45.9511 70.2279 46.0032C70.7182 46.1605 71.1425 46.4593 71.4401 46.8567C71.6771 47.1298 72.0417 46.8567 71.9961 46.5579C71.9168 46.1788 71.7176 45.8307 71.4245 45.5587C71.1314 45.2868 70.7578 45.1035 70.3522 45.0327C69.9466 44.9619 69.5276 45.0068 69.1496 45.1615C68.7715 45.3163 68.4518 45.5738 68.2318 45.9008C68.048 46.2451 67.9711 46.6308 68.0097 47.014C68.0484 47.3973 68.2012 47.7627 68.4506 48.0686C68.7172 48.3975 69.0714 48.655 69.4777 48.8152C69.884 48.9755 70.3281 49.033 70.7657 48.9819C70.9571 48.9819 71.0664 48.7088 70.8659 48.6149" fill="#864FF1"/>
<path d="M64.0181 38.6721C63.5357 38.4941 62.9527 38.6093 62.5809 38.1799C62.4776 38.0561 62.4004 37.9112 62.3543 37.7543C62.3081 37.5975 62.2941 37.4324 62.313 37.2695C62.332 37.1067 62.3835 36.9498 62.4643 36.809C62.545 36.6682 62.6532 36.5467 62.7819 36.4522C63.8774 35.6354 64.8925 36.7454 65.5861 37.5517C65.7268 37.7192 65.9881 37.5517 65.9981 37.3632C66.0886 34.9652 62.8522 34.2217 61.5155 35.9286C61.1813 36.3782 61 36.9307 61 37.4993C61 38.0679 61.1813 38.6204 61.5155 39.07C61.8102 39.5291 62.2671 39.8483 62.7866 39.9582C63.3062 40.068 63.8463 39.9595 64.2895 39.6564C64.3552 39.5834 64.4018 39.4941 64.425 39.397C64.4482 39.2999 64.4472 39.1982 64.422 39.1017C64.3968 39.0051 64.3483 38.9169 64.2811 38.8453C64.2139 38.7738 64.1303 38.7214 64.0382 38.6931" fill="#864FF1"/>
<path d="M60.1308 30.2175C59.7455 29.542 57.6904 29.0225 58.4611 27.9313C58.797 27.4429 59.7554 26.8194 60.3383 27.0896C60.6708 27.3523 60.9304 27.7038 61.0902 28.1077C61.25 28.5115 61.3043 28.9529 61.2473 29.3862C61.2342 29.4371 61.2409 29.4915 61.2659 29.5373C61.2909 29.5831 61.3322 29.6166 61.3807 29.6304C61.4292 29.6442 61.4809 29.6371 61.5244 29.6108C61.5679 29.5845 61.5998 29.5411 61.6129 29.4901C61.9262 28.9484 62.0551 28.3108 61.9784 27.6819C61.8268 27.1573 61.5096 26.7028 61.0793 26.3933C60.5879 26.0805 60.0115 25.9485 59.4409 26.0181C58.8703 26.0877 58.3379 26.355 57.9275 26.7778C57.7035 26.9063 57.5066 27.0812 57.3487 27.2919C57.1907 27.5027 57.0751 27.7449 57.0087 28.0041C56.9594 28.608 57.121 29.2102 57.4632 29.6979C57.9572 30.4773 59.212 31.4853 60.0617 30.7371C60.1246 30.6676 60.1652 30.579 60.1776 30.4839C60.19 30.3887 60.1737 30.2919 60.1308 30.2071" fill="#864FF1"/>
<g style="mix-blend-mode:multiply">
<g style="mix-blend-mode:multiply">
<g style="mix-blend-mode:multiply">
<path d="M124.114 55.2693C111.169 63.2472 98.1954 70.0184 85.2512 77.9664L84.9544 78.106C86.8187 76.505 88.6023 74.8109 90.2983 73.03C92.5925 70.6243 94.5865 67.9452 96.236 65.0521C98.9231 60.64 100.38 55.5791 100.452 50.4027C100.452 44.2897 98.2647 38.3462 96.2954 32.6519C95.184 29.5795 93.8305 26.6016 92.2478 23.7466C90.6348 20.7549 88.7446 17.9327 87.0721 14.9809C86.231 13.505 85.3997 11.9892 84.608 10.5133C84.222 9.77534 83.7371 8.97755 83.3809 8.15981L92.0796 2.81463L92.327 2.66504C102.629 19.7078 124.153 55.2493 124.153 55.2493" fill="#FFC652"/>
</g>
</g>
</g>
<path d="M117.793 61.9599L103.77 39.2512C99.103 31.6849 94.5959 24.0102 89.7482 16.5917L85.6617 10.3554C84.9506 9.27169 84.2295 8.19783 83.4883 7.13382C83.1277 6.62152 82.7671 6.14862 82.4166 5.60676C82.2401 5.34588 82.0353 5.10471 81.8056 4.88757L81.6854 4.72009C81.5747 4.56165 81.4224 4.43567 81.2447 4.35556L81.0644 4.19793C80.976 4.11863 80.87 4.06067 80.7548 4.02863C80.6397 3.99659 80.5185 3.99136 80.4009 4.01334C80.2833 4.03533 80.1726 4.08393 80.0774 4.15529C79.9822 4.22666 79.9052 4.31884 79.8525 4.42453C79.5626 4.46674 79.2857 4.57099 79.0412 4.72994C78.4904 5.03535 77.9195 5.2915 77.3586 5.56735C77.1952 5.6675 77.0765 5.82482 77.0263 6.00762C76.9761 6.19042 76.9982 6.38513 77.0882 6.55255C77.4988 7.23233 77.9094 7.91212 78.3802 8.52294C78.5938 8.87193 78.8385 9.20162 79.1114 9.50813C79.3197 9.69158 79.5563 9.84122 79.8125 9.95147C79.8557 9.97496 79.9042 9.98725 79.9536 9.98715C80.0029 9.98705 80.0515 9.97458 80.0946 9.95092C80.1377 9.92726 80.1739 9.89318 80.1999 9.85191C80.2259 9.81063 80.2408 9.76352 80.2431 9.71502C80.2457 9.44584 80.212 9.17752 80.143 8.91702C79.9779 8.55477 79.7906 8.20274 79.5821 7.86286C79.3417 7.40967 79.0813 6.96633 78.8209 6.52299C79.2698 6.33429 79.6882 6.08203 80.0629 5.77424C80.1298 5.99043 80.2135 6.20122 80.3133 6.40477C80.5737 6.90722 80.8541 7.38997 81.1346 7.90227C81.6754 8.88746 82.2163 9.87266 82.7872 10.8579L86.0824 16.4735C88.3259 20.3157 90.6363 24.1153 93.0134 27.8722C97.7709 35.3892 102.458 42.9555 107.156 50.5317L115.168 63.4377L115.249 63.5461C114.968 63.7333 114.247 64.2357 114.017 64.1668C113.786 64.0978 113.496 63.4574 113.386 63.2801C113.108 62.8219 112.857 62.3482 112.634 61.8614C112.264 61.0535 110.842 61.6348 111.162 62.4722C111.603 63.6052 112.294 65.7628 113.706 65.9992C114.455 66.0144 115.191 65.8085 115.819 65.4081C116.175 65.2789 116.496 65.0715 116.759 64.8017C117.021 64.532 117.217 64.207 117.332 63.8515C117.491 63.7569 117.629 63.6317 117.738 63.4834C117.847 63.335 117.925 63.1666 117.966 62.9881C118.007 62.8097 118.011 62.6248 117.978 62.4448C117.945 62.2647 117.875 62.0931 117.773 61.9402" fill="#864FF1"/>
<path d="M95.0296 1.59265C96.225 4.27779 97.5801 6.88464 99.0871 9.39836C100.54 11.9969 102.072 14.5553 103.564 17.1238C106.49 22.2306 109.582 27.2973 112.674 32.3138C114.43 35.1733 116.273 37.9524 118.097 40.7617C118.164 40.8736 118.272 40.954 118.396 40.9854C118.52 41.0169 118.651 40.9969 118.761 40.9298C118.871 40.8627 118.951 40.7539 118.984 40.6267C119.016 40.4996 118.999 40.3643 118.936 40.25C113.308 29.7955 107.232 19.602 101.126 9.44852C99.4732 6.54905 97.6286 3.77001 95.605 1.13113C95.3124 0.769939 94.8833 1.23146 95.0296 1.59265Z" fill="#C6C6C6"/>
<path d="M89.0918 79C92.5971 77.4243 95.9697 75.5405 99.1737 73.3686C102.525 71.2724 105.77 68.9936 108.896 66.5414C108.949 66.4948 108.984 66.43 108.996 66.3586C109.007 66.2871 108.995 66.2136 108.96 66.1512C108.925 66.0887 108.87 66.0412 108.805 66.0172C108.74 65.9933 108.669 65.9943 108.604 66.0202C105.11 67.8246 101.706 69.8168 98.4056 71.9889C95.0995 73.9842 91.9609 76.2715 89.0237 78.8263C88.9654 78.8263 89.0237 79 89.1015 78.9693" fill="#C6C6C6"/>
<path d="M84.0083 17.4099C89.5901 28.0202 95.6901 38.3377 102.285 48.3235C104.12 51.1879 105.973 54.0522 107.779 56.9464C107.856 57.0752 108.06 56.9464 107.983 56.8274C105.003 51.6339 102.159 46.3412 99.2471 41.1377C96.3352 35.9343 93.2389 30.7803 90.0941 25.6859C88.2984 22.7719 86.4349 19.9472 84.4936 17.1324C84.4758 17.1018 84.4522 17.0751 84.4242 17.0538C84.3963 17.0325 84.3645 17.017 84.3307 17.0083C84.2969 16.9996 84.2618 16.9977 84.2273 17.0028C84.1928 17.008 84.1596 17.02 84.1296 17.0382C84.0997 17.0564 84.0735 17.0805 84.0527 17.109C84.0318 17.1376 84.0167 17.17 84.0081 17.2045C83.9996 17.2391 83.9977 17.275 84.0028 17.3102C84.0078 17.3454 84.0196 17.3793 84.0374 17.4099" fill="white"/>
<path d="M49.0659 290.92C47.6575 291.828 45.8994 290.422 44.9205 289.474C43.5997 288.267 42.6767 286.689 42.2735 284.947C42.0863 283.952 42.1549 282.927 42.4728 281.966C42.7908 281.005 43.3477 280.14 44.0914 279.452C46.0293 277.637 49.0859 276.57 51.693 277.458L49.0659 290.92Z" fill="#C6C6C6"/>
<path d="M70.0527 285.067C69.2536 283.072 67.8851 280.958 65.8174 280.14C65.6522 280.061 65.4713 280.019 65.2878 280.018C65.1044 280.016 64.923 280.056 64.7567 280.133C64.5904 280.21 64.4433 280.324 64.3262 280.465C64.209 280.605 64.1247 280.771 64.0793 280.948C63.3601 283.321 62.7408 285.735 61.8718 288.058C60.9455 290.322 59.9019 292.535 58.7452 294.69C58.2857 295.627 57.6365 296.804 58.1559 297.801C58.156 297.869 58.176 297.935 58.2132 297.992C58.2505 298.049 58.3034 298.093 58.3657 298.12C59.1648 299.118 60.743 298.858 61.8218 298.649C62.4676 298.537 63.0872 298.307 63.6498 297.971C64.6004 297.754 65.5199 297.419 66.3868 296.974C68.4126 295.954 69.9657 294.193 70.722 292.057C71.3059 289.723 71.0696 287.258 70.0527 285.077" fill="#FFC652"/>
<path d="M72.9698 273.349L59.8543 307.734C54.4303 305.988 49.0363 300.494 47.6079 294.989C46.7383 291.575 46.8073 287.989 47.8076 284.611C48.8079 281.232 50.7024 278.186 53.2916 275.792C55.658 273.757 58.5172 272.377 61.5843 271.789C64.6514 271.201 67.8193 271.426 70.7722 272.441C71.5275 272.686 72.2623 272.989 72.9698 273.349Z" fill="#C6C6C6"/>
<path d="M72.8995 273.479L59.824 307.774C54.4 306.029 49.006 300.534 47.5776 295.029C46.7081 291.615 46.777 288.029 47.7773 284.651C48.7776 281.272 50.6721 278.226 53.2613 275.832C55.1717 274.172 57.4214 272.947 59.854 272.242C59.0349 274.187 57.8562 275.972 56.9472 277.897C56.0414 279.842 55.3449 281.878 54.8695 283.97C53.9988 287.67 53.7925 291.496 54.2602 295.268C54.42 296.475 54.5898 299.676 56.4977 299.188C58.4056 298.699 59.5743 296.545 60.4933 295.109C62.7708 291.389 64.0993 287.131 65.6076 283.082C66.4367 280.838 67.2258 278.575 68.0949 276.351C68.5698 274.815 69.5083 273.464 70.7819 272.482C71.532 272.758 72.26 273.092 72.9595 273.479" fill="#AAAAAA"/>
<path d="M20.8972 322.971C25.2923 329.952 30.7562 336.254 35.8006 342.756C40.8451 349.258 45.9394 355.82 50.784 362.552C51.4233 363.439 52.8617 362.502 52.2125 361.624C47.2713 354.903 42.2269 348.254 37.0792 341.679C32.0049 335.217 27.0903 328.486 21.2867 322.652C21.097 322.463 20.7973 322.732 20.9271 322.951" fill="#999999"/>
<path d="M24.8731 321.834C27.0007 325.195 29.5878 328.276 31.9452 331.487C34.3026 334.699 36.71 338.139 39.0773 341.46C41.4447 344.781 43.862 348.082 46.4591 351.243C47.7177 352.778 49.0063 354.294 50.3348 355.76C51.5974 357.283 53.0095 358.676 54.5502 359.919C55.2793 360.447 56.5479 359.639 55.8787 358.802C54.67 357.316 53.1917 356.02 51.8831 354.593C50.5746 353.167 49.1961 351.452 47.8875 349.827C45.3404 346.556 42.8931 343.175 40.4958 339.854C38.0984 336.534 35.6511 333.103 33.074 329.882C30.7066 326.89 28.2294 323.839 25.0828 321.645C24.923 321.525 24.7432 321.774 24.8331 321.924" fill="#999999"/>
<path d="M20.0284 312.092C20.9474 307.105 21.6466 302.039 22.6555 297.043C23.1616 294.524 23.6777 292.001 24.2038 289.474L24.9529 285.924C25.2729 284.734 25.4704 283.514 25.5423 282.284C25.5282 282.128 25.4644 281.98 25.3602 281.862C25.256 281.744 25.1169 281.663 24.9631 281.629C24.8093 281.596 24.6488 281.612 24.505 281.676C24.3613 281.74 24.2417 281.848 24.1638 281.985C23.7588 283.072 23.4675 284.198 23.2948 285.346C23.0251 286.592 22.7554 287.839 22.4957 289.085C21.9463 291.678 21.4069 294.271 20.8974 296.864C19.7741 301.838 18.9866 306.882 18.54 311.962C18.54 312.81 19.8786 312.959 20.0284 312.092Z" fill="#999999"/>
<path d="M22.4854 312.929C23.3644 312.481 23.4243 311.074 23.6341 310.227C23.9837 308.91 24.2934 307.594 24.573 306.238C25.1424 303.515 25.6718 300.783 26.1912 298.041C27.1901 292.656 28.0592 287.231 28.9682 281.816C29.108 280.988 27.8594 280.689 27.6896 281.526C26.5808 286.891 25.6019 292.297 24.6929 297.692C24.2134 300.444 23.694 303.176 23.1846 305.919C22.9349 307.185 22.7051 308.462 22.4754 309.748C22.3155 310.646 21.7062 312.052 22.3155 312.86C22.3258 312.877 22.3394 312.892 22.3556 312.904C22.3718 312.916 22.3902 312.924 22.4098 312.929C22.4294 312.934 22.4497 312.934 22.4696 312.931C22.4894 312.928 22.5084 312.92 22.5253 312.909" fill="#999999"/>
<path d="M32.6444 277.707C33.9943 278.612 35.4062 279.422 36.8697 280.13C38.368 280.988 39.8664 281.845 41.3048 282.783C43.1228 283.97 44.741 280.699 42.8331 279.652C41.3 278.781 39.7079 278.017 38.0684 277.368C36.5337 276.654 34.895 276.19 33.2138 275.992C33.025 276.014 32.8466 276.089 32.6993 276.209C32.552 276.329 32.442 276.488 32.3823 276.668C32.3225 276.848 32.3154 277.042 32.3618 277.226C32.4083 277.41 32.5063 277.577 32.6444 277.707Z" fill="#AAAAAA"/>
<path d="M83.3978 273.1C82.5443 273.493 81.7561 274.014 81.0604 274.645C80.2912 275.224 79.602 275.922 78.8728 276.56C78.1436 277.198 77.4644 277.807 76.7651 278.455C76.0121 279.076 75.3409 279.79 74.7674 280.579C74.7314 280.655 74.7183 280.74 74.7295 280.824C74.7407 280.908 74.7758 280.986 74.8306 281.05C74.8854 281.114 74.9576 281.162 75.0385 281.186C75.1194 281.21 75.2056 281.211 75.2868 281.187C76.1166 280.766 76.8887 280.24 77.5842 279.622C78.3634 279.003 79.1325 278.375 79.9017 277.747C80.6708 277.119 81.38 276.6 82.0393 275.952C82.8112 275.347 83.485 274.627 84.0371 273.818C84.0788 273.728 84.0938 273.628 84.0806 273.53C84.0673 273.432 84.0262 273.34 83.9621 273.264C83.8981 273.189 83.8137 273.133 83.719 273.104C83.6243 273.075 83.5233 273.073 83.4277 273.1" fill="#FFC652"/>
<path d="M86.5946 280.868C85.2594 281.138 83.9751 281.616 82.7888 282.284C81.5002 282.843 80.1817 283.331 78.7932 283.77C78.6104 283.828 78.4583 283.957 78.3702 284.127C78.2822 284.297 78.2655 284.495 78.3237 284.678C78.382 284.86 78.5105 285.012 78.681 285.1C78.8515 285.188 79.0499 285.205 79.2327 285.146C80.6406 284.786 82.0277 284.35 83.3881 283.84C84.7315 283.47 85.9675 282.786 86.9941 281.845C87.0762 281.761 87.131 281.654 87.1514 281.538C87.1718 281.422 87.1568 281.302 87.1083 281.195C87.0599 281.087 86.9803 280.997 86.8798 280.935C86.7793 280.873 86.6625 280.843 86.5446 280.848" fill="#FFC652"/>
<path d="M85.8952 294.34C83.6477 292.595 80.681 291.747 77.954 291.109C77.1449 290.92 76.9052 292.106 77.6743 292.346C80.2795 293.329 82.9496 294.132 85.6655 294.749C85.8852 294.749 86.085 294.49 85.8752 294.34" fill="#FFC652"/>
<path d="M77.2549 304.034C76.8332 303.258 76.3488 302.518 75.8065 301.82C75.317 301.182 74.8076 300.334 73.9286 300.155C73.8258 300.134 73.7196 300.136 73.6179 300.162C73.5162 300.187 73.4215 300.235 73.341 300.302C73.2604 300.369 73.1959 300.454 73.1524 300.549C73.1089 300.644 73.0874 300.748 73.0895 300.853C73.213 301.624 73.5603 302.341 74.0884 302.917C74.5579 303.605 74.9774 304.333 75.4369 305.031C75.8964 305.729 76.256 306.378 76.6655 307.026C77.071 307.794 77.5178 308.54 78.004 309.26C78.3137 309.668 79.0629 309.519 79.0029 308.94C78.7331 307.198 78.1258 305.525 77.2149 304.014" fill="#FFC652"/>
<path d="M65.458 304.802C65.458 306.387 65.458 307.963 65.6478 309.549C65.8376 311.134 66.2471 312.69 66.387 314.285C66.387 314.357 66.4154 314.425 66.466 314.476C66.5165 314.526 66.5851 314.555 66.6567 314.555C66.7282 314.555 66.7968 314.526 66.8474 314.476C66.898 314.425 66.9264 314.357 66.9264 314.285C66.9264 312.69 67.256 311.104 67.246 309.509C67.2113 307.919 67.0711 306.333 66.8265 304.762C66.8002 304.595 66.7131 304.443 66.582 304.336C66.4508 304.229 66.2847 304.174 66.1155 304.181C65.9462 304.189 65.7856 304.258 65.6643 304.376C65.5431 304.494 65.4696 304.653 65.458 304.822" fill="#FFC652"/>
<path d="M22.0964 281.926C20.9308 281.304 20.021 280.294 19.5262 279.07C19.0313 277.847 18.9829 276.489 19.3894 275.234C19.8504 273.999 20.6108 272.897 21.6026 272.027C22.5945 271.157 23.7868 270.546 25.0731 270.248C25.7243 270.074 26.3969 269.994 27.0708 270.009C28.0547 270.078 29.0049 270.396 29.8328 270.931C30.6606 271.467 31.3393 272.202 31.8056 273.07C32.2986 274.043 32.5659 275.115 32.5876 276.206C32.6094 277.296 32.3851 278.378 31.9313 279.37C31.4776 280.362 30.806 281.24 29.9663 281.938C29.1267 282.635 28.1405 283.136 27.0808 283.401C25.9025 283.642 24.6782 283.507 23.5811 283.015C22.484 282.523 21.5697 281.699 20.9676 280.659L22.0964 281.926Z" fill="#C6C6C6"/>
<path d="M28.7689 276.221C28.6379 275.88 28.4321 275.574 28.1667 275.323C27.9013 275.072 27.5831 274.884 27.2354 274.772C26.8876 274.66 26.5192 274.627 26.1571 274.676C25.7951 274.725 25.4485 274.854 25.143 275.054C24.8581 275.239 24.6234 275.492 24.4596 275.789C24.2958 276.087 24.208 276.42 24.204 276.759C23.5747 278.285 25.3627 279.681 26.8011 279.522C27.1686 279.473 27.5203 279.342 27.8304 279.139C28.1404 278.936 28.4009 278.666 28.5927 278.349C28.7844 278.033 28.9025 277.677 28.9382 277.309C28.9738 276.94 28.9263 276.569 28.7989 276.221H28.7689ZM26.1319 277.158C26.1319 277.158 26.1319 277.158 26.1319 277.108V277.158Z" fill="#AAAAAA"/>
<path d="M16.3223 324.058C13.6452 322.852 12.4266 319.391 13.3256 316.599C13.8373 315.218 14.6849 313.985 15.7921 313.012C16.8993 312.039 18.2314 311.356 19.6686 311.025C20.3971 310.825 21.151 310.735 21.9061 310.755C23.0013 310.832 24.0593 311.183 24.9815 311.778C25.9037 312.373 26.6601 313.191 27.1802 314.156C27.7293 315.242 28.027 316.437 28.0512 317.653C28.0755 318.869 27.8257 320.075 27.3203 321.182C26.8149 322.288 26.0669 323.268 25.1315 324.047C24.1961 324.826 23.0972 325.386 21.9161 325.684C20.6013 325.952 19.2354 325.799 18.0124 325.248C16.7894 324.697 15.7716 323.774 15.1036 322.612L16.3223 324.058Z" fill="#C6C6C6"/>
<path d="M23.7643 317.706C23.619 317.332 23.3922 316.994 23.1003 316.718C22.8084 316.441 22.4587 316.233 22.0764 316.108C21.6941 315.983 21.2888 315.945 20.8897 315.995C20.4907 316.046 20.1078 316.184 19.7687 316.4C19.4592 316.609 19.2061 316.892 19.0319 317.222C18.8577 317.553 18.7677 317.921 18.7698 318.295C18.0606 320 20.0584 321.546 21.6566 321.376C22.0628 321.318 22.4509 321.17 22.7925 320.943C23.1342 320.716 23.4207 320.416 23.6313 320.064C23.8419 319.712 23.9712 319.318 24.0097 318.91C24.0483 318.502 23.9951 318.091 23.8542 317.706H23.7643ZM20.8575 318.703C20.8528 318.687 20.8528 318.67 20.8575 318.654V318.703Z" fill="#AAAAAA"/>
<path d="M41.085 366.331C42.4258 366.199 43.7466 365.911 45.0207 365.474C46.3692 365.105 47.7077 364.716 49.0162 364.327C51.7132 363.569 54.3803 362.711 57.0074 361.894L64.8087 359.5L68.8043 358.264C70.2313 357.951 71.6022 357.423 72.8698 356.698C73.1382 356.516 73.3401 356.252 73.4453 355.945C73.5504 355.639 73.553 355.307 73.4528 354.999C73.3526 354.69 73.1549 354.423 72.8894 354.237C72.6239 354.051 72.3051 353.955 71.9808 353.966C70.6073 354.102 69.2613 354.438 67.9852 354.963L63.9896 356.269L55.9985 358.872C53.4113 359.72 50.8142 360.527 48.2471 361.425L44.2515 362.811C42.8882 363.21 41.5746 363.762 40.3359 364.456C40.1137 364.558 39.9366 364.738 39.8383 364.962C39.7399 365.185 39.7271 365.437 39.8022 365.669C39.8773 365.901 40.0351 366.098 40.2458 366.222C40.4564 366.346 40.7053 366.388 40.9452 366.341" fill="#AAAAAA"/>
<path d="M41.2147 365.374C41.1045 364.415 40.8344 363.481 40.4156 362.611C40.2058 363.04 39.9961 363.459 39.7763 363.878C45.0205 362.412 50.2547 360.886 55.4589 359.281L63.0305 356.917L67.0261 355.671C68.3027 355.311 69.6166 355.101 70.9417 355.042C71.2486 355.022 71.5378 354.892 71.7573 354.677C71.9768 354.462 72.112 354.176 72.1386 353.87C72.1651 353.564 72.0812 353.259 71.902 353.009C71.7228 352.76 71.4602 352.582 71.1615 352.509C68.7242 351.801 65.8174 353.058 63.52 353.806L55.3091 356.458C49.9051 358.204 44.541 360.058 39.1969 361.973C39.0703 362.013 38.9529 362.077 38.8515 362.162C38.7501 362.248 38.6667 362.353 38.6063 362.47C38.5458 362.588 38.5095 362.717 38.4995 362.849C38.4894 362.981 38.5058 363.114 38.5477 363.24C38.9372 364.287 39.4966 365.593 40.7053 365.832C40.7727 365.846 40.8422 365.844 40.9088 365.827C40.9754 365.81 41.0373 365.778 41.09 365.734C41.1428 365.69 41.1849 365.635 41.2134 365.573C41.2419 365.51 41.256 365.442 41.2547 365.374" fill="#AAAAAA"/>
<path d="M59.5146 155.073C59.5644 156.913 59.0523 158.725 58.0463 160.268C57.3397 161.346 56.414 162.263 55.3293 162.961L54.3304 163.629C53.0718 163.18 31.9852 151.034 21.0972 144.891C18.3403 143.325 16.2326 142.148 15.2737 141.65L15.0439 141.54L17.4013 138.11L17.4613 138.03C18.6999 136.225 19.9885 134.22 19.7787 132.046C24.7732 134.799 54.5401 152.33 59.5546 155.073" fill="#FF6551"/>
<g style="mix-blend-mode:multiply" opacity="0.36">
<g style="mix-blend-mode:multiply" opacity="0.36">
<g style="mix-blend-mode:multiply" opacity="0.36">
<path d="M58.0462 160.268C57.3396 161.346 56.4139 162.263 55.3292 162.96L54.2803 163.629C53.0317 163.18 31.9451 151.034 21.0572 144.891C19.1593 143.734 17.2115 142.657 15.2336 141.65L15.0039 141.54L17.3613 138.109L18.5999 137.192C21.9063 139.246 49.9951 155.401 58.0462 160.268Z" fill="#FF6551"/>
</g>
</g>
</g>
<path d="M19.6484 132.026C19.6484 132.026 20.917 134.16 19.3288 137.421C18.4816 139.28 16.9872 140.768 15.1234 141.61C13.4353 139.356 11.5374 137.202 9.68945 135.018C8.5607 133.692 7.45193 132.345 6.41309 130.969C8.41087 131.129 10.4087 131.209 12.4064 131.308C14.8292 131.405 17.244 131.645 19.6384 132.026" fill="#FFC652"/>
<path d="M12.4164 131.308C12.4898 132.152 12.2537 132.993 11.752 133.675C11.2503 134.358 10.5173 134.835 9.68945 135.018C8.5607 133.692 7.45193 132.345 6.41309 130.969C8.41087 131.129 10.4087 131.209 12.4064 131.308" fill="#FF6551"/>
<path d="M71.3717 150.116C71.5473 151.245 71.3297 152.399 70.7551 153.386C70.1806 154.374 69.284 155.134 68.2152 155.541L67.6957 155.731C66.597 155.282 50.7745 146.197 40.1663 140.184C35.941 137.78 32.5447 135.876 31.2462 135.198L31.0464 135.098L32.6346 132.824C33.4637 131.627 34.3128 130.291 33.7634 128.636C38.7578 131.338 71.3717 150.186 71.3717 150.186" fill="#864FF1"/>
<g style="mix-blend-mode:multiply" opacity="0.36">
<g style="mix-blend-mode:multiply" opacity="0.36">
<g style="mix-blend-mode:multiply" opacity="0.36">
<path d="M70.4227 153.906C69.8569 154.649 69.0913 155.216 68.2152 155.541L67.6957 155.731C66.597 155.282 50.7745 146.197 40.1663 140.184C37.2595 138.399 34.2728 136.734 31.2462 135.198L31.0464 135.098L32.6346 132.824L33.6335 132.296C36.6302 134.031 60.8833 148.252 70.4926 153.926" fill="#2D7F75"/>
</g>
</g>
</g>
<path d="M33.6631 128.536C34.1025 129.091 34.3897 129.751 34.4965 130.45C34.6033 131.149 34.5261 131.864 34.2725 132.525C33.9974 133.181 33.5678 133.761 33.0199 134.216C32.4721 134.671 31.8224 134.987 31.126 135.138C29.2081 133.233 27.1304 131.378 25.0727 129.503C23.8141 128.357 22.5754 127.21 21.4067 126.043C23.2847 126.422 25.1126 126.741 26.9406 127.04C29.1681 127.439 31.3757 127.868 33.6631 128.496" fill="#FFC652"/>
<path d="M26.9406 127.08C27.052 127.367 27.0876 127.678 27.0439 127.983C27.0002 128.287 26.8787 128.576 26.6911 128.82C26.5035 129.065 26.2561 129.257 25.9727 129.378C25.6892 129.499 25.3793 129.546 25.0727 129.513C23.8141 128.366 22.5754 127.22 21.4067 126.053C23.2847 126.432 25.1126 126.751 26.9406 127.05" fill="#864FF1"/>
<path d="M16.5321 86.2235C16.1712 84.6904 15.2886 83.3299 14.0349 82.3742C13.4669 81.8397 12.7703 81.4607 12.0126 81.2738C11.2549 81.0869 10.4617 81.0984 9.70969 81.3071C8.25099 81.9404 7.06259 83.0668 6.35341 84.4883C6.29471 84.5922 6.25979 84.7078 6.25115 84.8267C6.24252 84.9457 6.26038 85.0651 6.30346 85.1764C5.97261 86.1044 5.8788 87.1002 6.03054 88.0736C6.18228 89.0469 6.57479 89.9672 7.17251 90.7509C9.26019 93.4634 12.8962 92.526 15.0638 90.4219C15.652 89.9091 16.0966 89.2525 16.3541 88.5165C16.6115 87.7805 16.6728 86.9903 16.5321 86.2235ZM14.1248 89.0257C12.8362 90.4318 10.359 91.6584 8.74076 90.023C8.12661 89.3715 7.74102 88.5386 7.64199 87.6495C7.52212 86.8916 7.52212 85.5454 8.40114 85.2063C8.52491 85.1554 8.63571 85.0775 8.72548 84.9784C8.81524 84.8792 8.88169 84.7613 8.91998 84.6332C8.95827 84.5052 8.96744 84.3702 8.9468 84.2382C8.92617 84.1061 8.87624 83.9803 8.80069 83.87C9.10097 83.5657 9.43627 83.2979 9.79959 83.0722C10.2777 82.8183 10.8231 82.7193 11.3601 82.789C11.8971 82.8587 12.3991 83.0936 12.7963 83.4611C14.5843 84.7077 15.7929 87.1808 14.1248 88.9958" fill="#49B3F7"/>
<path d="M12.8065 71.235C12.6846 71.2114 12.5586 71.2201 12.4412 71.2604C12.3237 71.3006 12.2189 71.3709 12.1373 71.4643C11.7378 71.8622 11.4257 72.3388 11.2208 72.8637C11.0159 73.3886 10.9227 73.9503 10.9472 74.5131C10.9716 75.076 11.1131 75.6275 11.3627 76.1328C11.6123 76.638 11.9645 77.0858 12.397 77.4477C14.2649 78.9536 17.2316 78.445 18.9397 76.8993C23.0152 73.2294 16.0829 67.6549 12.8065 71.1851V71.235ZM17.4713 75.9619C16.9058 76.3963 16.2227 76.6513 15.5104 76.694C14.7981 76.7366 14.0893 76.565 13.4758 76.2012C12.9823 75.8351 12.6532 75.2897 12.5597 74.683C12.4662 74.0764 12.6159 73.4574 12.9763 72.9602C13.1312 72.9849 13.2899 72.963 13.4322 72.8973C13.5745 72.8316 13.694 72.725 13.7754 72.5912C15.5335 69.8887 20.6378 73.7879 17.4613 75.9619" fill="#49B3F7"/>
<path d="M5.35458 74.4663C5.1814 73.7347 4.75888 73.086 4.15936 72.6312C3.55984 72.1764 2.82062 71.9438 2.06824 71.9732C0.699753 72.1028 -0.648762 73.7582 0.340141 75.0347C0.444992 75.1782 0.591444 75.2861 0.759689 75.3438C1.04937 76.6103 1.75858 77.817 3.23694 77.7771C4.7153 77.7372 5.67423 75.8724 5.35458 74.4663ZM3.09709 76.1217C2.31796 76.0319 2.278 74.7156 2.23804 74.1272C2.23351 73.9503 2.16626 73.7806 2.04825 73.6485C2.21815 73.5897 2.39974 73.5726 2.57766 73.5987C2.87166 73.6846 3.13668 73.8489 3.34432 74.0737C3.55196 74.2986 3.6944 74.5756 3.75637 74.8751C3.84627 75.3039 3.67645 76.1516 3.09709 76.0918" fill="#49B3F7"/>
<path d="M302.953 49.0311C300.173 47.1589 296.002 47.6713 294.512 50.923C294.434 51.1192 294.434 51.3377 294.512 51.5339C293.854 52.4798 293.434 53.5684 293.287 54.7084C293.14 55.8485 293.271 57.0069 293.668 58.0866C294.228 59.3489 295.181 60.3996 296.388 61.0842C297.595 61.7689 298.991 62.0514 300.371 61.8902C301.771 61.6769 303.072 61.0445 304.099 60.0778C305.127 59.111 305.832 57.856 306.122 56.4805C306.375 55.0719 306.215 53.6206 305.66 52.2998C305.106 50.9789 304.18 49.8443 302.993 49.0311H302.953ZM303.132 58.7567C302.677 59.2338 302.129 59.6138 301.521 59.8736C300.914 60.1333 300.259 60.2673 299.597 60.2673C298.935 60.2673 298.28 60.1333 297.672 59.8736C297.064 59.6138 296.516 59.2338 296.061 58.7567C293.767 56.3327 295.118 52.9331 297.054 50.7752C297.135 50.6884 297.195 50.5853 297.231 50.4729C297.267 50.3606 297.278 50.2418 297.263 50.1248C299.031 48.9719 301.672 49.5927 303.162 51.2974C304.083 52.32 304.587 53.6457 304.578 55.0168C304.569 56.388 304.047 57.7069 303.112 58.7173" fill="#49B3F7"/>
<path d="M317.158 63.1015C316.688 62.6436 316.111 62.3043 315.477 62.1127C314.844 61.9211 314.173 61.883 313.521 62.0015C312.634 62.2513 311.834 62.7346 311.207 63.3988C311.116 63.3418 311.015 63.3034 310.908 63.2859C310.802 63.2685 310.693 63.2724 310.588 63.2974C310.483 63.3224 310.385 63.368 310.298 63.4315C310.212 63.4949 310.14 63.5748 310.086 63.6664C309.357 64.8095 309.086 66.1774 309.327 67.5049C309.568 68.8324 310.303 70.0249 311.389 70.8511C312.39 71.6365 313.661 72.0139 314.938 71.9051C316.216 71.7962 317.401 71.2095 318.249 70.2664C320.048 68.0367 319.26 64.8556 317.158 63.1015ZM316.926 69.2655C316.321 69.8929 315.489 70.2614 314.61 70.2911C313.73 70.3208 312.874 70.0093 312.228 69.4241C311.698 68.9833 311.304 68.4073 311.088 67.7601C310.872 67.1129 310.844 66.4197 311.005 65.7574C311.103 65.7477 311.198 65.719 311.285 65.6731C311.372 65.6272 311.448 65.5649 311.51 65.4898C312.733 64.0925 314.208 62.7844 315.986 64.261C317.421 65.4502 318.229 67.6799 316.926 69.2655Z" fill="#49B3F7"/>
<path d="M302.338 70.0469C301.867 69.4371 301.235 68.97 300.513 68.6981C299.791 68.4261 299.008 68.3599 298.25 68.5069C298.195 68.3473 298.094 68.2077 297.96 68.106C297.825 68.0042 297.663 67.9449 297.494 67.9357C294.234 67.7215 293.651 71.8624 294.714 74.1368C294.969 74.729 295.347 75.261 295.821 75.6983C296.296 76.1356 296.858 76.4684 297.47 76.6752C298.082 76.882 298.73 76.9581 299.374 76.8985C300.017 76.839 300.64 76.6451 301.204 76.3296C301.715 76.0116 302.155 75.5901 302.493 75.0923C302.831 74.5945 303.061 74.0315 303.168 73.4395C303.275 72.8475 303.256 72.2398 303.113 71.6554C302.971 71.0711 302.706 70.5232 302.338 70.0469ZM300.642 74.6671C300.323 74.9116 299.956 75.0854 299.564 75.1772C299.173 75.2689 298.767 75.2765 298.372 75.1993C297.978 75.1221 297.604 74.962 297.276 74.7295C296.949 74.4971 296.675 74.1977 296.472 73.8512C295.998 73.0009 295.804 72.0229 295.92 71.0566C296.068 71.1749 296.256 71.2332 296.445 71.22C296.634 71.2067 296.812 71.123 296.942 70.9853C297.183 70.7198 297.474 70.5054 297.799 70.3545C298.125 70.2037 298.477 70.1196 298.835 70.1073C299.194 70.0949 299.551 70.1545 299.886 70.2825C300.221 70.4106 300.526 70.6045 300.785 70.8527C301.035 71.1093 301.23 71.4146 301.357 71.7495C301.484 72.0845 301.541 72.442 301.524 72.7998C301.506 73.1576 301.416 73.508 301.257 73.8292C301.098 74.1505 300.875 74.4357 300.601 74.6671" fill="#49B3F7"/>
<path d="M50.303 110.956C50.1987 110.909 50.1068 110.838 50.0321 110.743C49.2251 109.687 48.4327 108.616 47.6326 107.563C44.5496 103.422 41.6376 99.5155 37.9898 96.2833C37.9043 96.208 37.8356 96.1097 37.7875 95.9939C37.7394 95.8781 37.713 95.7472 37.7096 95.6085C37.7062 95.4698 37.7261 95.3262 37.7679 95.1857C37.8098 95.0453 37.8729 94.9108 37.9536 94.7899C38.0343 94.6691 38.1311 94.5643 38.2383 94.4814C38.3456 94.3986 38.4613 94.3393 38.5788 94.3071C38.6963 94.2748 38.8133 94.2702 38.9232 94.2935C39.033 94.3168 39.1336 94.3675 39.219 94.4428C42.8364 97.8631 46.1419 101.714 49.1002 105.953L51.4858 109.128C51.6077 109.294 51.6698 109.518 51.6619 109.763C51.6539 110.007 51.5764 110.259 51.4421 110.474C51.3078 110.69 51.1248 110.858 50.9233 110.95C50.7218 111.041 50.5139 111.052 50.3338 110.979L50.303 110.956Z" fill="#49B3F7"/>
<path d="M47.3216 499.638L39.6001 492.348C39.4837 492.24 39.3381 492.169 39.1815 492.143C39.0249 492.118 38.8643 492.139 38.7195 492.204C38.5747 492.268 38.4522 492.374 38.3673 492.508C38.2823 492.642 38.2386 492.798 38.2416 492.956L38.5413 502.141L32.3682 506.449C32.2436 506.536 32.1463 506.657 32.0875 506.797C32.0288 506.938 32.0109 507.092 32.0359 507.242C32.061 507.392 32.1279 507.532 32.2291 507.646C32.3303 507.759 32.4616 507.842 32.6079 507.885L39.2306 509.749L41.5979 519.383C41.635 519.535 41.7156 519.673 41.83 519.781C41.9445 519.888 42.0877 519.96 42.2424 519.988C42.397 520.015 42.5563 519.997 42.7008 519.936C42.8453 519.874 42.9689 519.772 43.0563 519.642L47.811 512.522L57.3405 512.282C57.5032 512.278 57.6608 512.225 57.7926 512.129C57.9244 512.034 58.0244 511.901 58.0794 511.748C58.1344 511.595 58.142 511.429 58.101 511.272C58.0601 511.115 57.9726 510.973 57.8499 510.866L52.2861 505.99L56.7511 498.152C56.8294 498.011 56.864 497.851 56.8504 497.691C56.8369 497.53 56.7758 497.378 56.675 497.253C56.5742 497.128 56.4382 497.035 56.2845 496.987C56.1308 496.94 55.9663 496.939 55.8121 496.985L47.3216 499.638Z" fill="#FF6551"/>
<path d="M83.0224 503.696L80.8249 499.707C80.7501 499.571 80.6379 499.46 80.5014 499.386C80.365 499.312 80.2101 499.279 80.0553 499.29C79.9006 499.302 79.7524 499.358 79.6285 499.451C79.5046 499.544 79.4102 499.671 79.3565 499.817L77.7383 504.135L73.523 505.072C73.3644 505.108 73.2203 505.19 73.1094 505.309C72.9984 505.427 72.9259 505.577 72.9011 505.737C72.8763 505.897 72.9004 506.061 72.9704 506.208C73.0403 506.354 73.1528 506.476 73.2932 506.558L76.5796 508.493L75.7805 513.05C75.7535 513.206 75.773 513.366 75.8366 513.511C75.9001 513.656 76.0048 513.779 76.1378 513.865C76.2708 513.951 76.4261 513.996 76.5846 513.995C76.743 513.994 76.8976 513.946 77.0291 513.858L80.3754 511.614L84.7805 513.289C84.9265 513.336 85.0827 513.34 85.2311 513.302C85.3794 513.263 85.5137 513.183 85.6184 513.072C85.723 512.96 85.7938 512.821 85.8223 512.67C85.8508 512.52 85.8359 512.364 85.7794 512.222L84.1512 508.403L87.7172 505.541C87.8435 505.44 87.9367 505.305 87.985 505.151C88.0333 504.997 88.0344 504.832 87.9883 504.678C87.9421 504.524 87.8507 504.386 87.7258 504.284C87.601 504.182 87.4484 504.12 87.2877 504.105L83.0224 503.696Z" fill="#864FF1"/>
<path d="M73.4327 475.075L71.5049 468.095C71.4637 467.946 71.3808 467.813 71.2661 467.71C71.1513 467.607 71.0094 467.538 70.8572 467.513C70.7049 467.488 70.5487 467.507 70.4068 467.568C70.2649 467.628 70.1433 467.728 70.0564 467.855L65.971 473.919L58.9787 473.819C58.8174 473.818 58.6596 473.865 58.5254 473.954C58.3911 474.044 58.2867 474.171 58.2255 474.32C58.1644 474.469 58.1491 474.633 58.1819 474.791C58.2146 474.948 58.2939 475.093 58.4094 475.205L62.9443 479.573L59.9477 486.374C59.8884 486.517 59.8714 486.673 59.8987 486.826C59.9259 486.978 59.9963 487.119 60.1014 487.232C60.2066 487.345 60.3421 487.426 60.4919 487.465C60.6417 487.504 60.7995 487.499 60.9466 487.451L67.0897 485.157L73.3128 489.406C73.4452 489.492 73.5999 489.539 73.7582 489.539C73.9165 489.54 74.0716 489.495 74.2047 489.41C74.3379 489.324 74.4434 489.202 74.5084 489.058C74.5735 488.914 74.5954 488.754 74.5714 488.598L73.4627 481.966L80.1153 478.825C80.2611 478.756 80.3829 478.645 80.465 478.506C80.5472 478.368 80.5859 478.208 80.5762 478.047C80.5666 477.886 80.509 477.732 80.4108 477.604C80.3126 477.476 80.1784 477.38 80.0254 477.329L73.4327 475.075Z" fill="#FFC652"/>
<path d="M33.4054 88.0721C33.1498 88.0328 32.9099 87.9398 32.7254 87.8082C32.5408 87.6766 32.4227 87.5144 32.3905 87.3484C31.5299 82.9062 31.4366 78.4884 32.1122 74.1778C32.241 73.3632 32.3709 72.5423 32.5778 71.753C32.628 71.5692 32.7901 71.4157 33.0303 71.3246C33.2705 71.2335 33.5702 71.2119 33.8666 71.2643C34.1635 71.3213 34.4305 71.4495 34.6092 71.6208C34.7879 71.7922 34.8639 71.9928 34.8205 72.1789C34.6375 72.9461 34.4917 73.7386 34.3658 74.5342C33.7077 78.7364 33.798 83.0429 34.635 87.3733C34.6548 87.4695 34.6451 87.5645 34.6067 87.6529C34.5682 87.7412 34.5017 87.8211 34.411 87.888C34.3203 87.9549 34.2071 88.0074 34.078 88.0425C33.9489 88.0777 33.8064 88.0947 33.6588 88.0927C33.5746 88.0857 33.4906 88.0724 33.4084 88.0531L33.4054 88.0721ZM36.2656 65.3781C36.1882 65.3722 36.1108 65.36 36.0353 65.3417C35.748 65.2559 35.5089 65.104 35.3706 64.9195C35.2323 64.735 35.2061 64.5329 35.2977 64.3577C38.0665 59.0543 42.2721 54.9232 47.7913 52.0937C48.013 51.9964 48.2966 51.9633 48.5847 52.0011C48.8728 52.0388 49.1438 52.1447 49.3429 52.2971C49.542 52.4496 49.6542 52.6372 49.6569 52.8221C49.6595 53.007 49.5524 53.1753 49.3572 53.2929C44.1154 55.9915 40.094 59.9317 37.4543 65.003C37.3761 65.1539 37.2149 65.2749 36.998 65.3455C36.7811 65.4162 36.5217 65.4322 36.2636 65.3908" fill="#49B3F7"/>
<path d="M46.9868 265.341C46.788 265.5 46.5408 265.586 46.286 265.586C46.0313 265.586 45.7843 265.499 45.5858 265.339C40.2745 261.071 35.4595 256.223 31.231 250.883C30.4326 249.874 29.6281 248.856 28.9048 247.812C28.7376 247.568 28.6716 247.268 28.7206 246.976C28.7697 246.684 28.9299 246.422 29.1679 246.246C29.4112 246.074 29.7128 246.005 30.0068 246.054C30.3008 246.104 30.5634 246.267 30.7372 246.509C31.4514 247.509 32.2155 248.507 32.9953 249.494C37.1178 254.698 41.8111 259.425 46.9874 263.587C47.1032 263.679 47.1996 263.792 47.2712 263.921C47.3428 264.05 47.3881 264.192 47.4045 264.338C47.421 264.485 47.4082 264.633 47.367 264.775C47.3257 264.916 47.2568 265.048 47.1643 265.163C47.1052 265.222 47.0394 265.274 46.9682 265.317L46.9868 265.341ZM24.2983 237.785C24.2445 237.839 24.1839 237.887 24.1179 237.927C23.8495 238.059 23.5395 238.079 23.2561 237.983C22.9726 237.887 22.739 237.683 22.6064 237.415C18.591 229.31 16.7181 221.372 17.0517 213.843C17.0827 213.559 17.2208 213.297 17.4379 213.11C17.655 212.924 17.935 212.827 18.2212 212.839C18.5073 212.851 18.7782 212.971 18.9789 213.175C19.1797 213.379 19.2953 213.652 19.3024 213.937C18.9977 221.101 20.7778 228.68 24.6224 236.424C24.737 236.654 24.7686 236.917 24.7118 237.168C24.655 237.418 24.5133 237.642 24.3107 237.8" fill="#49B3F7"/>
<path d="M34.0553 163.164C34.0616 163.234 34.058 163.304 34.0446 163.373C33.4139 165.924 32.6175 168.431 31.6605 170.879C31.6076 171.016 31.5281 171.141 31.4266 171.247C31.3252 171.354 31.2038 171.439 31.0693 171.498C30.7977 171.618 30.4894 171.626 30.2123 171.519C29.9352 171.412 29.7119 171.2 29.5917 170.929C29.4714 170.658 29.4639 170.35 29.5709 170.074C30.512 167.717 31.3035 165.303 31.9407 162.846C31.9864 162.556 32.1451 162.295 32.3823 162.121C32.6195 161.946 32.9161 161.872 33.2076 161.915C33.4992 161.957 33.7622 162.113 33.9396 162.347C34.117 162.582 34.1944 162.877 34.1551 163.169L34.0553 163.164ZM26.9669 181.492C26.9573 181.635 26.9231 181.775 26.8657 181.906C23.729 188.675 21.0548 194.809 20.0936 201.289C19.953 202.28 19.8223 203.272 19.7116 204.265C19.6792 204.559 19.5309 204.829 19.2991 205.015C19.0673 205.201 18.771 205.287 18.4755 205.255C18.18 205.223 17.9095 205.075 17.7233 204.843C17.5372 204.612 17.4508 204.316 17.4831 204.021C17.5939 203.029 17.7146 202.036 17.8652 201.046C18.8721 194.258 21.6143 187.969 24.819 181.043C24.9236 180.8 25.1114 180.602 25.3489 180.484C25.5864 180.366 25.8581 180.336 26.1157 180.399C26.3732 180.463 26.5997 180.616 26.7549 180.83C26.9101 181.045 26.9838 181.308 26.9629 181.572L26.9669 181.492Z" fill="#49B3F7"/>
<path d="M248.756 30.3882C248.637 30.1546 248.598 29.8874 248.646 29.631C248.693 29.3745 248.825 29.144 249.018 28.9776C254.193 24.5262 259.845 20.6967 265.868 17.561C267.007 16.9694 268.155 16.3731 269.313 15.8642C269.584 15.7472 269.89 15.7438 270.167 15.8546C270.445 15.9653 270.671 16.1818 270.8 16.4585C270.924 16.7397 270.935 17.0579 270.832 17.3437C270.729 17.6294 270.52 17.8595 270.25 17.9837C269.136 18.4927 268.015 19.0522 266.902 19.6301C261.031 22.6873 255.521 26.4198 250.475 30.7576C250.364 30.8549 250.234 30.9282 250.095 30.9732C249.955 31.0181 249.807 31.034 249.661 31.0197C249.514 31.0055 249.371 30.9614 249.24 30.8901C249.109 30.8189 248.992 30.7217 248.897 30.6044C248.85 30.5325 248.812 30.4553 248.782 30.3745L248.756 30.3882ZM280.005 13.3338C279.961 13.2681 279.926 13.197 279.899 13.1223C279.82 12.8242 279.857 12.5077 280.004 12.2424C280.151 11.9772 280.395 11.7848 280.682 11.7076C289.379 9.36816 297.512 9.15129 304.833 11.0705C305.106 11.1615 305.337 11.3556 305.479 11.6135C305.621 11.8714 305.664 12.1737 305.599 12.4594C305.534 12.745 305.366 12.9925 305.129 13.1518C304.891 13.3111 304.602 13.3703 304.321 13.3173C297.353 11.5041 289.589 11.7029 281.279 13.9463C281.031 14.0133 280.768 13.9899 280.533 13.88C280.298 13.7701 280.105 13.5804 279.987 13.3429" fill="#49B3F7"/>
<path d="M350.51 38.475C350.44 38.4679 350.372 38.4506 350.307 38.4235C347.935 37.2808 345.638 35.9763 343.431 34.5184C343.308 34.4374 343.201 34.3314 343.117 34.2066C343.033 34.0817 342.974 33.9404 342.943 33.7907C342.879 33.4883 342.933 33.17 343.093 32.9059C343.253 32.6418 343.505 32.4535 343.794 32.3825C344.084 32.3114 344.386 32.3633 344.636 32.5269C346.757 33.951 348.963 35.2323 351.241 36.3633C351.517 36.4666 351.741 36.6802 351.864 36.9578C351.988 37.2353 352.001 37.5545 351.902 37.8459C351.802 38.1373 351.597 38.3775 351.332 38.5143C351.067 38.6511 350.762 38.6735 350.485 38.5766L350.51 38.475ZM333.973 27.6375C333.835 27.5999 333.705 27.5376 333.587 27.4532C327.583 22.9175 322.11 18.9804 315.955 16.7364C315.012 16.3998 314.067 16.0732 313.117 15.767C312.835 15.6767 312.6 15.4718 312.464 15.1976C312.329 14.9234 312.303 14.6022 312.394 14.3048C312.484 14.0073 312.683 13.758 312.946 13.6115C313.21 13.4651 313.517 13.4336 313.799 13.524C314.749 13.8302 315.697 14.1466 316.637 14.4934C323.083 16.8438 328.696 20.8811 334.84 25.5171C335.057 25.6717 335.214 25.9031 335.282 26.17C335.351 26.437 335.326 26.7221 335.212 26.9744C335.099 27.2268 334.904 27.43 334.663 27.5479C334.422 27.6657 334.15 27.6906 333.896 27.6179L333.973 27.6375Z" fill="#49B3F7"/>
<path d="M54.5115 119.209C54.5335 119.275 54.5456 119.345 54.5473 119.415C54.4737 122.047 54.2216 124.677 53.7926 127.286C53.7691 127.432 53.716 127.573 53.6364 127.7C53.5567 127.828 53.4519 127.94 53.3281 128.03C53.0781 128.211 52.7655 128.292 52.4592 128.254C52.1529 128.216 51.8779 128.063 51.6948 127.828C51.5117 127.593 51.4354 127.295 51.4827 127.001C51.9159 124.483 52.1839 121.946 52.2851 119.404C52.2669 119.111 52.3704 118.819 52.5733 118.593C52.7761 118.367 53.0619 118.224 53.3686 118.196C53.6753 118.167 53.9781 118.256 54.2113 118.442C54.4446 118.629 54.5894 118.897 54.6144 119.19L54.5115 119.209Z" fill="#49B3F7"/>
<path d="M56.5191 456.599C56.5163 458.234 56.6634 459.866 56.9587 461.475C56.9839 461.62 57.038 461.759 57.1178 461.883C57.1976 462.008 57.3016 462.115 57.4236 462.199C57.5455 462.282 57.683 462.341 57.828 462.37C57.9729 462.4 58.1224 462.401 58.2675 462.372C58.4127 462.346 58.5513 462.291 58.6752 462.211C58.7991 462.131 58.9059 462.027 58.9895 461.906C59.073 461.784 59.1317 461.647 59.1621 461.503C59.1926 461.359 59.1941 461.21 59.1667 461.066C58.9 459.592 58.7663 458.097 58.767 456.599C58.767 450.617 60.6553 444.794 62.9432 438.313C62.9924 438.174 63.0137 438.027 63.0059 437.88C62.9982 437.733 62.9615 437.589 62.8979 437.456C62.8344 437.323 62.7452 437.204 62.6356 437.106C62.5259 437.007 62.3979 436.931 62.2588 436.882C62.1197 436.833 61.9723 436.812 61.825 436.82C61.6777 436.827 61.5334 436.864 61.4002 436.927C61.2671 436.991 61.1478 437.08 61.0491 437.189C60.9505 437.299 60.8743 437.426 60.8251 437.565C58.4673 444.255 56.5191 450.298 56.5191 456.599ZM64.6616 426.628C64.664 426.864 64.7404 427.094 64.8801 427.285C65.0198 427.477 65.2159 427.62 65.4409 427.694C65.7244 427.786 66.0327 427.762 66.2984 427.627C66.5642 427.493 66.7659 427.259 66.8596 426.977C68.9676 420.546 71.4853 412.021 72.2346 403.446C72.2599 403.153 72.1696 402.862 71.9829 402.635C71.7963 402.408 71.5281 402.262 71.2355 402.23C70.9427 402.202 70.6509 402.291 70.4242 402.478C70.1975 402.665 70.0545 402.935 70.0266 403.227C69.2973 411.622 66.8196 419.937 64.7515 426.259C64.7108 426.37 64.6905 426.489 64.6916 426.608L64.6616 426.628ZM65.0312 376.247C65.0318 376.423 65.0728 376.597 65.1511 376.755C67.5407 381.381 69.1156 386.383 69.8068 391.541C69.8702 391.815 70.0335 392.055 70.2648 392.214C70.496 392.374 70.7786 392.441 71.0572 392.404C71.3359 392.366 71.5905 392.227 71.7713 392.012C71.9521 391.797 72.046 391.523 72.0348 391.242C71.3115 385.834 69.6624 380.589 67.1593 375.738C67.0207 375.474 66.784 375.275 66.5 375.184C66.2161 375.093 65.9075 375.116 65.6407 375.249C65.4568 375.343 65.3025 375.486 65.1949 375.662C65.0874 375.838 65.0307 376.04 65.0312 376.247Z" fill="#49B3F7"/>
<path d="M129.42 24.5611C127.807 24.2743 126.172 24.1354 124.534 24.1463C124.386 24.1458 124.239 24.1748 124.102 24.2317C123.966 24.2886 123.842 24.3721 123.738 24.4775C123.635 24.5829 123.553 24.7079 123.499 24.8452C123.444 24.9825 123.418 25.1293 123.421 25.277C123.422 25.4243 123.452 25.57 123.509 25.7057C123.567 25.8414 123.65 25.9644 123.756 26.0677C123.861 26.1709 123.985 26.2523 124.122 26.3073C124.259 26.3622 124.406 26.3895 124.553 26.3877C126.054 26.3816 127.552 26.5098 129.03 26.7708C134.932 27.8099 140.349 30.6775 146.346 34.0521C146.474 34.1246 146.615 34.1711 146.762 34.189C146.908 34.2069 147.057 34.1959 147.199 34.1565C147.341 34.1171 147.474 34.0501 147.59 33.9595C147.706 33.8688 147.803 33.7561 147.876 33.6279C147.949 33.4998 147.995 33.3586 148.013 33.2124C148.031 33.0663 148.02 32.918 147.981 32.7761C147.941 32.6343 147.874 32.5015 147.783 32.3855C147.692 32.2695 147.58 32.1725 147.451 32.1C141.26 28.6202 135.637 25.6557 129.42 24.5611ZM157.576 37.7711C157.342 37.7324 157.102 37.7675 156.889 37.8716C156.676 37.9757 156.501 38.1436 156.388 38.3518C156.249 38.6146 156.219 38.9218 156.306 39.2064C156.392 39.491 156.588 39.7299 156.85 39.871C162.829 43.0603 170.802 47.0159 179.132 49.2419C179.416 49.3176 179.719 49.2793 179.976 49.1353C180.232 48.9914 180.422 48.753 180.506 48.4711C180.584 48.1881 180.546 47.8857 180.401 47.6303C180.256 47.375 180.015 47.1877 179.732 47.1096C171.576 44.9344 163.802 41.0545 157.924 37.9235C157.821 37.8641 157.708 37.8236 157.591 37.804L157.576 37.7711ZM207.219 46.8857C207.045 46.8556 206.866 46.8657 206.696 46.9152C201.717 48.4606 196.509 49.1398 191.299 48.9233C191.018 48.9381 190.753 49.057 190.556 49.2566C190.358 49.4562 190.242 49.7222 190.231 50.0026C190.219 50.283 190.313 50.5575 190.494 50.7726C190.674 50.9876 190.929 51.1276 191.207 51.1653C196.669 51.3938 202.13 50.6836 207.351 49.0658C207.635 48.9754 207.872 48.7773 208.012 48.514C208.151 48.2507 208.182 47.9433 208.096 47.6579C208.036 47.4608 207.922 47.2844 207.767 47.1481C207.612 47.0118 207.422 46.921 207.219 46.8857Z" fill="#49B3F7"/>
<path d="M62.037 388.095C62.0038 388.36 62.0773 388.626 62.2413 388.837C62.4052 389.047 62.6462 389.184 62.9112 389.217C63.1761 389.25 63.4434 389.177 63.6542 389.013C63.865 388.849 64.002 388.609 64.0351 388.344L66.6927 377.965L77.2429 385.642C77.3471 385.735 77.4696 385.805 77.6025 385.847C77.7354 385.89 77.8757 385.904 78.0144 385.889C78.1531 385.874 78.2871 385.83 78.4079 385.76C78.5286 385.691 78.6334 385.596 78.7154 385.484C78.7974 385.371 78.8549 385.243 78.8841 385.106C78.9133 384.97 78.9136 384.83 78.885 384.693C78.8564 384.557 78.7996 384.428 78.7181 384.315C78.6366 384.202 78.5322 384.107 78.4118 384.037L66.6727 375.482C66.5414 375.388 66.3892 375.327 66.2291 375.305C66.069 375.282 65.9058 375.299 65.7535 375.353C65.6004 375.408 65.463 375.499 65.3534 375.619C65.2437 375.739 65.165 375.884 65.1241 376.041L62.0769 387.876C62.0626 387.958 62.0626 388.043 62.0769 388.125" fill="#49B3F7"/>
<path d="M196.048 41.8844C195.793 41.806 195.517 41.8319 195.281 41.9565C195.045 42.0811 194.869 42.2942 194.79 42.5489C194.711 42.8036 194.737 43.0791 194.862 43.3147C194.987 43.5503 195.2 43.7268 195.455 43.8053L205.234 48.2205L195.827 57.2577C195.718 57.3441 195.628 57.4524 195.563 57.5756C195.498 57.6988 195.459 57.8343 195.45 57.9732C195.44 58.1122 195.46 58.2515 195.508 58.3823C195.556 58.5131 195.631 58.6325 195.728 58.7327C195.825 58.8329 195.942 58.9117 196.071 58.9641C196.2 59.0164 196.339 59.0412 196.478 59.0367C196.618 59.0323 196.755 58.9988 196.88 58.9383C197.006 58.8778 197.118 58.7917 197.208 58.6856L207.687 48.6321C207.803 48.5195 207.89 48.3804 207.94 48.227C207.99 48.0735 208.002 47.9102 207.975 47.7511C207.947 47.5911 207.881 47.4402 207.782 47.3115C207.682 47.1829 207.553 47.0804 207.405 47.0129L196.258 41.9618C196.179 41.9334 196.096 41.9187 196.012 41.9185" fill="#49B3F7"/>
</svg>
