<svg width="457" height="402" viewBox="0 0 457 402" fill="none" xmlns="http://www.w3.org/2000/svg">
<path d="M380.555 366.255C358.051 379.52 328.959 373.859 302.552 376.755C280.237 379.202 259.375 387.972 238.014 394.497C216.654 401.022 193.247 405.306 171.923 398.68C157.274 394.128 144.919 384.822 131.133 378.321C114.497 370.476 96.0104 366.819 78.6501 360.501C61.2897 354.182 44.1502 344.283 36.0904 328.554C26.3985 309.64 31.9688 287.17 28.3054 266.472C24.1709 243.113 8.44852 222.942 1.86789 200.08C-2.78141 183.928 2.04253 164.868 7.66084 149.195C13.5976 132.633 30.1007 114.027 46.0032 104.39C51.1914 101.246 56.3154 98.0963 61.2155 94.5395C63.3624 92.9812 74.6604 86.1641 74.6604 83.6962C87.3454 72.242 94.9594 57.6353 105.982 44.9506C117.419 31.7892 134.16 23.262 151.717 19.0798C167.616 15.2411 183.88 13.1187 200.232 12.7488C217.793 12.4757 234.825 14.0078 251.769 8.34978C255.326 7.1619 258.777 5.70813 262.325 4.49047C286.281 -3.72947 318.363 -0.129315 340.757 10.9378C349.303 15.1607 356.453 21.4487 363.344 27.793C371.763 35.5445 379.642 43.9029 385.549 53.525C391.208 62.7431 393.001 73.7458 400.21 82.3982C405.051 88.2087 409.816 94.5915 414.615 100.196C422.03 108.856 433.451 113.018 440.503 122.454C447.601 131.953 450.977 143.552 453.314 154.793C456.306 169.185 457.983 183.939 456.38 198.524C453.814 221.861 440.721 239.211 427.337 258.201C422.878 264.527 418.396 271.075 416.685 278.485C415.999 282.037 415.578 285.636 415.427 289.251C414.602 299.785 411.771 309.489 409.64 319.695C405.897 337.623 397.707 356.145 380.555 366.255Z" fill="#EFF2FD"/>
<path d="M406.292 362.011C348.758 361.212 291.223 360.708 233.686 360.498C230.726 360.454 227.904 359.236 225.842 357.114C223.779 354.991 222.644 352.137 222.687 349.179C222.617 261.53 222.394 173.881 222.02 86.233C222.044 84.713 222.369 83.2128 222.976 81.8187C223.582 80.4246 224.459 79.1641 225.554 78.1096C226.65 77.0552 227.944 76.2275 229.361 75.6743C230.778 75.1211 232.29 74.8532 233.811 74.886C295.745 75.2952 357.544 78.1873 419.208 83.5624C425.715 84.1542 430.456 89.5688 429.836 95.6205C421.384 180.582 417.533 265.767 417.314 351.138C417.322 352.58 417.042 354.009 416.489 355.342C415.936 356.674 415.122 357.882 414.095 358.895C413.068 359.909 411.849 360.706 410.508 361.241C409.168 361.776 407.735 362.038 406.292 362.011Z" fill="#FFEBDD"/>
<path d="M399.006 231.841C398.727 238.942 385.328 242.867 382.522 249.13C379.712 255.403 385.744 268 380.865 273.054C376.176 277.913 363.268 272.424 357.058 275.847C351.162 279.097 349.09 293.062 342.195 294.718C335.684 296.282 327.411 284.838 320.278 284.704C313.144 284.57 304.638 295.747 298.164 293.946C291.308 292.039 289.55 277.894 283.747 274.377C277.635 270.673 264.602 275.714 260.052 270.587C255.319 265.254 261.729 252.716 259.148 246.21C256.57 239.715 243.348 235.05 243.367 227.789C243.387 220.529 256.702 216.005 259.386 209.552C262.075 203.089 255.728 190.444 260.631 185.193C265.345 180.146 278.565 185.492 284.905 181.983C290.925 178.652 293.141 164.575 300.274 162.948C307.008 161.413 315.34 172.976 322.662 173.225C329.984 173.474 339.055 162.555 345.67 164.55C352.677 166.664 353.996 180.743 359.807 184.423C365.929 188.299 379.436 183.884 383.854 189.135C388.448 194.596 381.436 206.62 383.81 213.115C386.181 219.601 399.286 224.741 399.006 231.841Z" fill="#FFF7F2"/>
<path d="M313.235 114.341C351.324 115.928 389.361 118.271 427.346 121.371C426.365 132.067 425.468 142.772 424.653 153.486C387.157 150.802 349.632 148.742 312.079 147.307C312.429 136.317 312.814 125.328 313.235 114.341Z" fill="#FFE0CC"/>
<path d="M313.005 120.478C350.99 122.031 388.925 124.321 426.811 127.347C426.099 135.407 425.762 139.438 425.121 147.504C387.54 144.74 349.926 142.628 312.28 141.169C312.555 132.892 312.7 128.754 313.005 120.478Z" fill="#FFF7F2"/>
<path d="M222.637 300.205C287.685 300.303 352.715 301.36 417.726 303.376C417.534 314.148 417.412 324.922 417.359 335.697C352.469 334.318 287.574 333.537 222.674 333.355C222.664 322.305 222.652 311.255 222.637 300.205Z" fill="#FFE0CC"/>
<path d="M222.645 306.377C287.656 306.475 352.651 307.479 417.629 309.391C417.507 317.503 417.461 321.56 417.399 329.677C352.494 328.198 287.584 327.366 222.668 327.183C222.66 318.86 222.655 314.699 222.645 306.377Z" fill="#FFF7F2"/>
<path d="M222.122 109.736C260.313 109.764 298.479 110.599 336.621 112.242C336.364 117.441 336.239 120.041 335.998 125.24C298.067 123.687 260.126 122.892 222.175 122.856C222.155 117.608 222.144 114.984 222.122 109.736Z" fill="white"/>
<path d="M222.175 122.856C260.138 122.884 298.079 123.679 335.998 125.24C335.756 130.44 335.639 133.04 335.413 138.241C297.693 136.767 259.964 136.012 222.226 135.975C222.206 130.727 222.196 128.103 222.175 122.856Z" fill="#49B3F7"/>
<path d="M222.226 135.975C259.975 136.004 297.704 136.76 335.413 138.241C335.187 143.441 335.077 146.042 334.866 151.243C297.341 149.859 259.81 149.142 222.274 149.094C222.255 143.846 222.246 141.223 222.226 135.975Z" fill="#FF6551"/>
<path d="M305.352 107.346C304.872 121.386 304.424 135.426 304.007 149.466C303.984 150.502 304.374 151.504 305.09 152.253C305.806 153.002 306.79 153.437 307.826 153.462C312.369 153.601 314.64 153.676 319.182 153.835C320.101 153.866 320.971 154.257 321.604 154.924C322.277 155.637 322.614 155.993 323.287 156.706C324.008 156.044 324.369 155.713 325.092 155.052C325.77 154.433 326.666 154.106 327.584 154.143C332.067 154.315 334.309 154.405 338.791 154.597C339.823 154.65 340.834 154.292 341.601 153.601C342.369 152.91 342.831 151.942 342.885 150.911C343.522 136.953 344.205 122.998 344.936 109.047C331.742 108.402 318.548 107.835 305.352 107.346Z" fill="#FF2C4B"/>
<path fill-rule="evenodd" clip-rule="evenodd" d="M327.767 120.019C327.311 120.014 326.86 119.937 326.428 119.791C326.42 119.802 327.244 120.461 327.248 120.48C326.543 120.753 325.819 120.975 325.082 121.143C325.071 121.163 326.002 121.537 326.002 121.537C326.062 121.65 324.366 125.324 324.366 125.324C324.36 125.324 323.065 121.416 323.065 121.416C323.081 121.39 324 121.099 324 121.099C323.975 121.038 321.905 120.281 321.911 120.26C322.191 120.037 322.483 119.83 322.786 119.641C322.777 119.628 321.434 119.757 321.434 119.757C321.434 119.749 323.041 118.798 323.041 118.798C323.03 118.791 320.983 118.942 320.983 118.942C320.983 118.936 323.524 117.778 323.956 117.626C324.448 117.547 324.952 117.572 325.434 117.702C325.845 117.89 328.27 119.244 328.27 119.244L326.246 118.93C326.674 119.392 327.192 119.762 327.767 120.019H327.767ZM326.92 144.836C327.053 145.112 326.808 145.777 326.67 145.68C326.447 145.523 326.165 144.591 325.803 144.096C325.505 143.689 324.852 142.794 324.852 142.794C325.61 143.401 326.303 144.086 326.919 144.836V144.836L326.92 144.836ZM324.654 148.033C324.731 147.02 324.652 146 324.42 145.01C324.27 144.364 324.024 142.051 324.024 142.051C324.219 143.1 324.48 144.136 324.806 145.152C325.111 145.902 325.538 147.626 324.654 148.033ZM322.741 144.946C322.518 145.934 322.365 146.936 322.283 147.945C322.075 146.991 322.096 146.003 322.345 145.059C322.761 144.076 323.1 143.062 323.357 142.025C323.203 143.009 322.997 143.984 322.741 144.946V144.946ZM321.444 143.93C321.034 144.441 320.662 145.316 320.447 145.445C320.29 145.539 320.106 144.844 320.261 144.584C320.932 143.882 321.674 143.251 322.476 142.703C322.478 142.704 321.792 143.545 321.444 143.93H321.444ZM327.732 146.304C327.976 146.754 327.177 147.124 327.096 147.033C327.062 146.888 327.053 146.739 327.069 146.591C327.104 146.546 327.579 146.511 327.732 146.304ZM319.937 146.763C319.431 146.745 319.332 145.988 319.356 145.988C319.569 146.083 319.773 146.195 319.967 146.323C320.001 146.368 319.943 146.593 319.937 146.763ZM317.088 136.755C317.102 136.864 317.133 136.971 317.178 137.072C317.13 137.184 316.016 137.475 315.707 137.958C315.282 138.626 315.687 139.522 315.554 139.861C315.467 140.082 314.762 140.075 314.762 140.075C315.301 140.23 315.85 140.349 316.405 140.432C316.343 140.793 316.262 141.151 316.164 141.505C316.172 141.532 317.008 141.136 317.019 141.137C317.033 141.138 317.057 141.432 317.066 141.437C317.105 141.461 317.483 141.139 317.483 141.139C317.496 141.142 317.56 141.565 317.479 141.665C317.297 141.795 317.098 141.898 316.888 141.972C316.353 142.21 315.792 142.381 315.216 142.482C314.977 142.506 314.736 142.452 314.529 142.33C314.322 142.208 314.159 142.023 314.064 141.802C313.928 141.328 313.364 141.422 313.206 141.431C313.165 141.433 312.891 141.32 312.799 141.46C312.715 141.35 312.642 141.233 312.578 141.11C312.537 140.89 312.477 140.674 312.397 140.464C312.28 140.281 312.079 139.983 311.983 139.809C311.928 139.708 312.076 139.574 312.078 139.57C312.086 139.555 311.88 139.451 311.879 139.449C311.854 139.413 311.865 138.993 311.592 138.898C310.798 137.152 310.401 136.279 309.605 134.532L309.586 134.529L309.505 134.327L309.502 134.304C309.411 134.105 309.366 134.006 309.275 133.807C309.31 133.773 309.335 133.73 309.35 133.684C309.365 133.638 309.368 133.589 309.36 133.541C309.351 133.493 309.331 133.448 309.302 133.409C309.272 133.371 309.234 133.34 309.189 133.319L309.191 133.277C309.199 133.244 309.205 133.211 309.209 133.178C309.28 133.159 309.354 133.147 309.428 133.142C310.129 132.822 310.788 132.419 311.391 131.941C311.392 131.942 310.16 132.824 309.717 133.209C309.307 133.565 309.451 133.966 309.502 134.304C309.543 134.395 309.564 134.441 309.605 134.532C309.968 134.578 310.534 134.801 310.911 134.489C311.031 134.39 313.15 132.059 313.15 132.059C313.153 132.062 311.844 133.612 311.322 134.389C310.937 134.963 311.473 135.713 311.524 135.748C311.614 135.811 312.478 135.89 312.786 135.422C313.087 134.963 314.358 132.899 314.358 132.899C314.362 132.901 313.233 135.081 313.169 135.25C313.116 135.478 313.137 135.717 313.228 135.933C313.32 136.149 313.479 136.33 313.681 136.449C313.918 136.468 314.155 136.421 314.367 136.312C314.579 136.204 314.757 136.039 314.88 135.836C315.044 135.439 315.657 133.643 315.657 133.643C315.664 133.646 315.476 134.619 315.367 135.242C315.257 135.864 316.034 136.224 316.16 136.238C316.286 136.252 317.019 136.077 317.132 135.519C317.23 135.029 317.296 133.802 317.296 133.802C317.38 133.876 317.481 133.981 317.508 133.981C317.595 133.98 318.21 133.528 318.312 133.484C318.334 133.475 318.416 133.544 318.454 133.589C318.916 134.134 318.207 136.355 318.207 136.355C318.209 136.365 318.791 136.291 318.791 136.291C318.563 136.496 318.29 136.644 317.994 136.725C317.698 136.805 317.388 136.815 317.087 136.755L317.088 136.755V136.755ZM342.563 127.822C341.94 127.595 341.286 127.468 340.623 127.446C340.622 127.438 342.893 125.727 342.764 125.519C342.635 125.313 340.937 125.474 340.937 125.474C340.932 125.46 342.717 123.58 342.453 123.233C342.298 123.031 340.416 123.561 340.416 123.561C340.416 123.559 342.087 120.203 341.73 120.104C340.747 120.809 339.804 121.57 338.907 122.382C339.601 121.566 340.231 120.7 340.793 119.789C341.154 118.976 340.5 116.916 340.228 117.008C339.89 117.122 337.097 121.951 336.775 121.956C336.736 121.956 336.504 121.676 336.465 121.7C336.226 121.844 334.961 123.794 334.831 123.755C334.816 123.751 334.657 123.35 334.645 123.349C333.521 124.221 332.491 125.209 331.573 126.296C331.46 126.411 331.372 126.549 331.316 126.7C331.259 126.851 331.235 127.012 331.244 127.173C331.253 127.334 331.296 127.491 331.37 127.634C331.444 127.778 331.547 127.904 331.673 128.005C331.906 128.243 332.345 128.7 331.924 129.253C331.246 130.144 329.398 129.263 329.415 129.23C329.692 128.648 329.923 128.044 330.106 127.426C330.013 127.434 329.305 128.014 328.806 127.783C328.543 127.647 328.296 127.485 328.067 127.297C328.079 127.278 329.419 126.416 329.419 126.416C329.33 126.373 328.214 126.379 328.097 126.246C327.915 126.015 327.795 125.741 327.749 125.45C327.702 125.16 327.731 124.862 327.832 124.586C328.103 123.835 328.565 123.169 329.174 122.653C329.211 122.657 329.358 122.86 329.561 122.84C329.686 122.828 329.907 122.706 330.067 122.663C330.266 122.614 330.473 122.606 330.675 122.639C330.877 122.672 331.071 122.746 331.243 122.856C331.387 122.958 331.502 123.096 331.574 123.257C331.647 123.418 331.675 123.595 331.656 123.77C331.54 123.285 331.39 122.808 331.208 122.343C331.209 122.338 332.474 123.022 332.608 123.116C332.796 123.231 333.009 123.301 333.228 123.321C333.448 123.34 333.67 123.309 333.876 123.229C334.073 123.117 334.237 122.953 334.349 122.756C334.461 122.558 334.518 122.334 334.513 122.107C334.474 122.12 334.225 122.58 333.875 122.604C333.367 122.592 332.87 122.453 332.43 122.198C332.015 122.063 331.587 121.968 331.154 121.915C331.15 121.895 333.186 122.222 333.335 122.253C333.416 122.27 333.724 121.919 333.807 121.55C334.03 120.556 332.504 120.08 332.387 119.937C332.346 119.887 332.021 119.649 332.005 119.636C331.974 119.56 331.949 119.483 331.928 119.405C331.952 119.4 331.976 119.396 332.001 119.394C332.792 119.431 333.572 119.19 334.203 118.712C335.03 117.942 334.056 116.123 334.314 116.046C334.789 116.142 335.239 116.332 335.638 116.605C335.701 116.765 335.737 116.935 335.746 117.107C335.843 117.983 334.958 118.142 335.151 119.111C335.236 119.536 335.563 119.712 335.655 120.242C335.531 120.509 335.469 120.643 335.345 120.909C335.362 120.963 336.532 120.346 336.323 119.762C336.235 119.517 335.993 119.008 335.993 119.008C336.377 119.277 336.842 119.404 337.31 119.368C337.592 119.296 337.413 119.955 337.413 119.955C337.64 119.732 337.826 119.472 337.964 119.185C337.97 119.105 337.958 119.024 337.929 118.95C337.899 118.875 337.852 118.808 337.792 118.754C337.732 118.701 337.661 118.662 337.583 118.64C337.506 118.619 337.424 118.615 337.345 118.631C337.185 118.65 336.805 118.845 336.793 118.519C336.772 117.959 337.716 117.969 337.554 117.05C337.472 116.586 336.62 116.437 336.1 116.158C335.946 116.027 335.814 115.872 335.711 115.699C335.272 114.962 334.8 114.728 334.517 114.862C334.182 115.021 333.988 115.15 333.704 115.279C333.48 115.344 333.271 115.45 333.087 115.592C332.7 116.009 333.016 116.722 333.19 117.146C333.403 117.519 333.486 117.953 333.426 118.378C333.254 118.863 332.335 119.207 331.861 119.232C331.832 119.237 331.803 119.24 331.773 119.242L331.782 119.043C331.942 118.781 332.082 118.507 332.201 118.224C332.591 117.333 331.928 117.017 331.331 116.735C331.235 116.676 331.12 116.656 331.01 116.678L330.996 116.678L330.974 116.833L330.873 116.8C330.882 116.726 330.887 116.69 330.896 116.616L330.852 116.614C330.894 116.584 330.929 116.545 330.954 116.499C330.979 116.454 330.993 116.403 330.996 116.351C331.001 116.258 330.974 116.167 330.92 116.092L331.023 116.096L330.98 116.052C330.943 115.999 330.901 115.949 330.855 115.904C330.835 115.879 330.821 115.849 330.815 115.817C330.845 115.836 330.873 115.856 330.901 115.878C330.953 115.911 330.997 115.957 331.027 116.011L331.083 116.056C331.098 115.722 331.106 115.554 331.122 115.219L331.061 115.274C331.011 115.299 330.965 115.33 330.924 115.367C330.898 115.391 330.867 115.409 330.833 115.42C330.845 115.39 330.862 115.362 330.881 115.337C330.919 115.295 331.003 115.243 331.019 115.215L331.066 115.16C330.72 115.145 330.546 115.137 330.2 115.122L330.242 115.18C330.291 115.217 330.334 115.262 330.368 115.314C330.385 115.343 330.423 115.402 330.423 115.402C330.391 115.385 330.363 115.365 330.337 115.341C330.294 115.294 330.24 115.257 330.18 115.234L330.139 115.176L330.101 116.013L330.146 115.972C330.196 115.924 330.252 115.883 330.314 115.852C330.342 115.838 330.404 115.799 330.404 115.799C330.405 115.799 330.355 115.868 330.342 115.881C330.295 115.93 330.249 115.976 330.203 116.017L330.158 116.058L330.289 116.064C330.254 116.095 330.226 116.133 330.209 116.177C330.191 116.221 330.185 116.268 330.19 116.315C330.187 116.366 330.195 116.416 330.213 116.464C330.231 116.511 330.259 116.554 330.295 116.59L330.28 116.589L330.286 116.774L330.168 116.797L330.16 116.64L330.146 116.64C330.038 116.607 329.922 116.618 329.822 116.668C329.193 116.905 328.483 117.189 328.804 118.074C328.9 118.368 329.02 118.654 329.163 118.928L329.157 119.056C328.21 118.689 327.358 118.113 326.665 117.37C326.636 117.32 326.596 117.268 326.583 117.239C326.598 117.023 326.605 116.916 326.621 116.7C326.916 116.24 327.173 115.756 327.389 115.254C327.943 113.985 326.99 113.531 326.087 113.136C325.951 113.058 325.79 113.031 325.636 113.06L325.582 113.257L325.334 113.232C325.344 113.124 325.35 113.071 325.36 112.963C325.317 112.971 325.272 112.974 325.227 112.972C325.227 112.966 325.519 112.699 325.527 112.501C325.531 112.423 325.515 112.346 325.482 112.275C325.45 112.204 325.401 112.142 325.34 112.094L325.545 112.103C325.421 111.957 325.31 111.799 325.213 111.634C325.377 111.738 325.529 111.859 325.668 111.994C325.687 111.569 325.696 111.356 325.715 110.93C325.608 111.011 325.233 111.225 325.231 111.222C325.337 111.07 325.462 110.932 325.602 110.811C325.162 110.792 324.941 110.783 324.501 110.764C324.611 110.905 324.713 111.051 324.805 111.204C324.649 111.106 324.502 110.995 324.364 110.872C324.345 111.298 324.336 111.511 324.317 111.937C324.439 111.843 324.787 111.615 324.787 111.616C324.687 111.773 324.572 111.92 324.444 112.057L324.635 112.065C324.572 112.108 324.52 112.166 324.483 112.234C324.447 112.302 324.428 112.377 324.427 112.454C324.418 112.667 324.685 112.949 324.685 112.949C324.635 112.947 324.586 112.94 324.539 112.928L324.541 113.199L324.291 113.202L324.285 113.003C324.208 112.977 324.127 112.968 324.045 112.974C323.964 112.98 323.885 113.003 323.813 113.04C322.914 113.355 321.951 113.754 322.347 115.042C322.501 115.568 322.716 116.073 322.988 116.548L322.964 117.116C322.934 117.129 322.911 117.171 322.872 117.212C322.094 117.86 321.204 118.36 320.245 118.686L320.25 118.558C320.419 118.298 320.562 118.022 320.68 117.736C321.064 116.842 320.386 116.527 319.787 116.249C319.691 116.19 319.576 116.17 319.466 116.193L319.451 116.193L319.431 116.348L319.329 116.316L319.351 116.132L319.337 116.131C319.403 116.058 319.443 115.964 319.45 115.866C319.456 115.819 319.452 115.773 319.438 115.728C319.425 115.683 319.403 115.642 319.373 115.606L319.505 115.611C319.419 115.524 319.34 115.43 319.266 115.332C319.362 115.404 319.453 115.483 319.536 115.57C319.549 115.235 319.556 115.067 319.57 114.732C319.479 114.806 319.383 114.873 319.283 114.934C319.364 114.842 319.451 114.755 319.543 114.674C319.197 114.66 319.024 114.653 318.678 114.64C318.754 114.729 318.887 114.918 318.887 114.918C318.789 114.854 318.698 114.779 318.617 114.694L318.583 115.532C318.674 115.454 318.77 115.382 318.871 115.316C318.804 115.412 318.726 115.499 318.64 115.577L318.757 115.582C318.697 115.653 318.663 115.742 318.659 115.834C318.656 115.887 318.665 115.939 318.686 115.987C318.707 116.035 318.739 116.077 318.78 116.109L318.736 116.108L318.743 116.293L318.625 116.317L318.616 116.16L318.602 116.159C318.494 116.127 318.378 116.138 318.278 116.189C317.651 116.429 316.942 116.716 317.268 117.602C317.365 117.896 317.487 118.182 317.63 118.456L317.623 118.655C317.593 118.651 317.564 118.645 317.535 118.638C317.066 118.574 316.186 118.14 316.049 117.655C316.024 117.225 316.143 116.798 316.39 116.444C316.604 116.051 316.964 115.322 316.626 114.901C316.449 114.744 316.245 114.62 316.024 114.536C315.752 114.383 315.58 114.24 315.25 114.051C314.981 113.898 314.476 114.053 313.988 114.787C313.872 114.953 313.727 115.097 313.561 115.213C313.024 115.446 312.152 115.528 312.035 115.983C311.804 116.879 312.743 116.951 312.682 117.516C312.646 117.846 312.285 117.611 312.122 117.581C312.044 117.559 311.961 117.554 311.88 117.569C311.8 117.583 311.724 117.616 311.658 117.665C311.593 117.713 311.539 117.777 311.502 117.849C311.465 117.922 311.445 118.002 311.444 118.084C311.564 118.378 311.727 118.653 311.927 118.899C311.934 118.892 311.805 118.225 312.08 118.321C312.543 118.408 313.023 118.319 313.423 118.07C313.438 118.077 313.142 118.564 313.03 118.797C312.763 119.351 313.907 120.025 313.907 120.025C313.918 119.996 313.655 119.332 313.655 119.332C313.776 118.824 314.125 118.676 314.252 118.243C314.531 117.299 313.592 117.094 313.832 116.191C313.859 116.021 313.91 115.855 313.983 115.698C314.407 115.465 314.87 115.314 315.35 115.251C315.63 115.364 314.473 117.085 315.232 117.924C315.82 118.455 316.576 118.761 317.368 118.787C317.393 118.791 317.417 118.796 317.441 118.804C317.442 118.808 317.35 119.024 317.344 119.028C317.305 119.055 316.981 119.267 316.953 119.298C316.796 119.471 315.248 119.781 315.387 120.791C315.426 121.085 315.578 121.351 315.812 121.533C316.004 121.505 318.014 121.374 318.014 121.374C317.573 121.395 317.135 121.455 316.704 121.553C316.25 121.77 315.747 121.869 315.244 121.84C314.883 121.786 314.652 121.297 314.636 121.29C314.609 121.517 314.645 121.746 314.741 121.953C314.836 122.16 314.987 122.337 315.177 122.464C315.374 122.558 315.589 122.607 315.808 122.605C316.026 122.603 316.241 122.551 316.436 122.454C316.577 122.371 317.895 121.797 317.895 121.797C317.896 121.805 317.329 123.185 317.329 123.185C317.325 123.01 317.367 122.837 317.45 122.683C317.533 122.529 317.654 122.399 317.802 122.306C317.984 122.211 318.183 122.153 318.387 122.136C318.591 122.12 318.797 122.145 318.991 122.209C319.147 122.266 319.362 122.4 319.48 122.427C319.669 122.471 319.855 122.273 319.882 122.272C320.446 122.836 320.852 123.539 321.058 124.31C321.14 124.594 321.146 124.894 321.076 125.181C321.006 125.468 320.861 125.731 320.657 125.945C320.218 126.025 319.77 126.046 319.326 126.008C319.726 126.368 320.153 126.698 320.602 126.996C320.36 127.167 320.099 127.31 319.826 127.422C319.309 127.611 318.607 126.969 318.558 126.961C318.392 126.933 319.082 128.775 319.1 128.817C319.159 128.95 317.219 129.583 316.612 128.639C316.228 128.041 316.708 127.63 316.95 127.413C317.082 127.321 317.194 127.203 317.279 127.065C317.363 126.928 317.419 126.775 317.441 126.615C317.463 126.456 317.453 126.293 317.409 126.138C317.366 125.983 317.291 125.839 317.189 125.714C316.321 124.588 315.38 123.521 314.371 122.52C314.291 122.644 314.222 122.775 314.166 122.911C314.035 122.956 312.87 120.831 312.696 120.721C312.662 120.7 312.398 120.956 312.365 120.952C311.914 120.89 309.61 115.831 309.345 115.716C309.028 115.579 308.261 117.621 308.544 118.453C309.021 119.413 309.576 120.333 310.204 121.203C309.374 120.321 308.499 119.483 307.583 118.69C307.169 118.774 308.601 122.259 308.601 122.259C308.601 122.259 306.752 121.597 306.599 121.764C306.288 122.105 307.923 124.131 307.923 124.131C307.918 124.142 306.227 123.855 306.099 124.028C305.934 124.252 308.045 126.13 308.045 126.13C308.044 126.135 306.221 126.145 306.11 126.351C305.939 126.671 308.169 128.072 308.169 128.072C308.169 128.079 306.399 128.672 306.393 128.855C306.385 129.094 308.286 129.814 308.286 129.814C308.287 129.817 307.65 130.212 307.617 130.205C307.611 130.204 307.548 130.151 307.517 130.159C307.481 130.169 307.456 130.243 307.469 130.286L307.468 130.314C307.4 130.37 307.347 130.442 307.315 130.523C307.263 130.636 307.073 130.844 307.085 130.9C307.087 130.909 307.139 130.935 307.142 130.945C307.163 131.02 307.18 131.097 307.192 131.175C307.191 131.194 307.116 131.286 307.099 131.342L306.567 131.126C306.535 131.322 306.544 131.523 306.593 131.716C306.642 131.908 306.73 132.089 306.852 132.246C307.034 132.452 307.253 132.445 307.192 132.514C307.421 132.658 307.535 132.73 307.763 132.875C307.802 132.958 307.872 133.022 307.958 133.054C308.044 133.086 308.14 133.084 308.224 133.046L308.222 133.089C308.215 133.317 308.543 133.53 308.57 133.585C308.58 133.671 308.612 133.752 308.664 133.821C308.715 133.89 308.783 133.945 308.862 133.979C309.667 136.074 310.068 137.122 310.871 139.217C310.776 139.456 311.036 139.74 311.041 139.763C311.044 139.778 310.946 140.003 310.946 140.003C310.956 140.008 311.165 139.929 311.219 140.097C311.256 140.211 311.288 140.693 311.353 140.885C311.446 141.089 311.551 141.287 311.667 141.479C311.732 141.698 311.768 141.924 311.775 142.152C311.729 142.314 311.252 142.678 311.282 143.033C311.303 143.289 311.587 143.39 311.617 143.443C311.69 143.572 312.108 144.068 312.174 144.145C312.324 144.334 312.499 144.503 312.693 144.647C312.872 144.735 313.039 144.846 313.189 144.977C313.247 145.219 313.347 145.449 313.486 145.656C313.597 145.77 313.714 145.879 313.837 145.981C313.956 146.074 314.196 146.194 314.324 146.14C314.411 146.103 314.436 145.749 314.442 145.66C314.446 145.601 314.437 145.309 314.442 145.233C314.423 145.031 314.376 144.833 314.302 144.644C314.26 144.5 314.236 144.351 314.23 144.2C314.278 144.077 314.927 143.812 315.058 143.73C315.809 143.19 316.692 142.862 317.614 142.781C317.928 142.77 318.242 142.777 318.556 142.801C318.937 142.846 319.472 142.992 319.79 142.76C319.834 142.732 319.87 142.692 319.895 142.646C319.919 142.599 319.932 142.547 319.93 142.495C319.9 142.27 319.647 142.03 319.563 141.827C319.539 141.77 319.47 141.581 319.47 141.581C319.698 141.585 319.926 141.574 320.153 141.55C320.393 141.33 320.59 141.067 320.733 140.774C320.683 140.738 319.624 141.082 319.56 140.304C319.504 139.624 320.145 139.063 321.091 139.351C321.735 139.547 322.642 140.95 321.751 141.51C321.339 141.877 320.986 142.305 320.703 142.779C320.738 142.792 321.864 142.367 321.864 142.367C321.876 142.42 320.543 142.893 319.801 143.272C319.143 143.609 318.611 144.229 318.113 144.236C317.715 144.242 317.91 143.432 317.91 143.432C317.901 143.39 316.998 143.616 316.846 144.006C316.801 144.207 316.802 144.416 316.848 144.617C316.893 144.818 316.983 145.006 317.11 145.168C317.105 145.233 316.254 145.875 316.41 146.553C316.529 146.997 316.684 147.431 316.873 147.85C317.154 147.75 317.385 147.543 317.515 147.275C317.573 147.093 317.642 146.915 317.722 146.741C317.744 146.754 317.892 147.813 318.47 148.119C318.867 148.33 319.976 147.938 320.01 147.947C320.102 147.972 320.862 149.009 321.549 149.027C321.849 148.977 322.142 148.897 322.426 148.79C322.532 148.832 323.134 149.854 323.414 149.864C323.698 149.875 324.417 148.89 324.493 148.867C324.769 148.992 325.056 149.093 325.35 149.169C326.022 149.202 326.941 148.212 326.964 148.207C327.069 148.185 328.076 148.674 328.487 148.494C329.086 148.232 329.334 147.178 329.334 147.178C329.415 147.353 329.476 147.536 329.515 147.725C329.569 148.021 330.099 148.345 330.099 148.345C330.338 147.952 330.525 147.53 330.656 147.089C330.846 146.423 330.075 145.659 330.075 145.659C330.075 145.608 330.588 145.067 330.411 144.521C330.281 144.121 329.392 143.869 329.392 143.869C329.376 143.924 329.533 144.683 329.129 144.654C328.625 144.618 328.149 143.951 327.519 143.566C326.808 143.132 325.529 142.507 325.529 142.507C325.538 142.479 326.656 143.006 326.656 143.006C326.439 142.496 326.116 142.037 325.707 141.661C324.863 141.048 325.876 139.709 326.545 139.562C327.492 139.352 328.103 139.959 327.983 140.629C327.846 141.398 326.766 140.995 326.749 141.006C326.858 141.321 327.047 141.603 327.298 141.824C327.589 141.873 327.887 141.885 328.182 141.859C328.172 141.921 328.16 141.982 328.145 142.042C328.092 142.68 327.669 142.811 327.801 143.038C327.924 143.248 329.133 143.271 329.443 143.331C329.976 143.435 330.454 143.65 330.977 143.777C331.573 143.862 332.159 144 332.73 144.191C333.054 144.34 333.465 144.704 333.762 144.816C334.174 144.972 334.185 145.118 334.503 145.132C334.792 145.144 334.925 144.898 335.299 144.825C335.555 144.774 335.856 144.875 336.111 144.817C336.291 144.775 336.402 144.59 336.574 144.496C336.816 144.423 337.052 144.334 337.282 144.229C337.387 144.153 337.391 143.925 337.416 143.878C337.679 143.48 337.986 143.113 338.332 142.784C338.373 142.753 338.524 142.679 338.529 142.58L338.531 142.538C338.586 142.504 338.631 142.457 338.664 142.402C338.697 142.346 338.716 142.284 338.719 142.219C338.721 142.147 338.708 142.075 338.68 142.008C338.653 141.941 338.613 141.88 338.562 141.83L338.564 141.787C338.567 141.702 338.505 141.636 338.485 141.585C338.358 141.169 338.144 140.784 337.858 140.456C337.573 140.128 337.221 139.863 336.826 139.68L336.828 139.637L336.814 139.637C336.815 139.594 336.773 139.585 336.758 139.578C336.641 139.444 336.549 139.291 336.487 139.125C336.657 139.243 336.821 139.368 336.979 139.502C337 139.031 337.01 138.796 337.031 138.326C336.911 138.405 336.515 138.664 336.508 138.658C336.611 138.479 336.741 138.318 336.892 138.177C336.404 138.156 336.16 138.145 335.673 138.124C335.805 138.282 335.919 138.453 336.014 138.636C335.843 138.519 335.679 138.393 335.522 138.259C335.501 138.73 335.491 138.965 335.471 139.436C335.59 139.356 335.986 139.097 335.994 139.104C335.89 139.282 335.76 139.444 335.609 139.584L335.652 139.6C334.73 139.759 334.081 140.82 333.761 141.365C333.732 141.414 333.655 141.474 333.651 141.559L333.65 141.601C333.606 141.648 333.577 141.705 333.564 141.767C333.551 141.829 333.556 141.894 333.577 141.954C333.601 142.076 333.656 142.191 333.737 142.287L333.735 142.329C333.73 142.457 333.877 142.517 333.915 142.55C333.965 142.658 334.008 142.769 334.046 142.882L334.061 142.869C334.01 142.997 333.929 143.111 333.824 143.201C333.719 143.29 333.593 143.353 333.459 143.383C332.663 143.34 331.883 143.143 331.161 142.804C330.782 142.696 330.443 142.479 330.185 142.181C330.096 142 330.059 141.796 330.079 141.595C330.098 141.592 330.453 141.932 330.472 141.923C330.501 141.826 330.524 141.728 330.542 141.628C330.591 141.626 331.38 142.061 331.38 142.061C331.387 142.043 331.208 140.973 331.208 140.973C331.251 140.968 332.872 140.745 332.872 140.745C332.835 140.709 332.175 140.7 332.1 140.471C331.983 140.115 332.445 139.246 332.092 138.567C331.821 138.047 330.687 137.589 330.68 137.57C330.675 137.555 330.799 137.266 330.795 137.262C330.701 137.175 329.132 136.667 329.132 136.667C329.138 136.661 329.709 136.776 329.709 136.776C329.725 136.733 329.176 134.511 329.68 134.003C329.721 133.962 329.81 133.9 329.829 133.91C329.936 133.967 330.543 134.467 330.606 134.469C330.635 134.47 330.726 134.374 330.817 134.307C330.817 134.307 330.793 135.539 330.846 136.028C330.907 136.583 331.634 136.82 331.729 136.818C331.883 136.815 332.673 136.517 332.613 135.889C332.552 135.262 332.449 134.277 332.449 134.277C332.459 134.275 332.917 136.117 333.052 136.519C333.251 137.115 334.126 137.237 334.199 137.222C334.413 137.122 334.587 136.956 334.696 136.747C334.805 136.539 334.843 136.301 334.803 136.069C334.754 135.913 333.802 133.639 333.802 133.639C333.807 133.637 334.918 135.805 335.172 136.27C335.442 136.763 336.332 136.733 336.405 136.693C336.581 136.525 336.701 136.307 336.751 136.068C336.8 135.829 336.777 135.581 336.682 135.357C336.232 134.568 335.088 132.9 335.088 132.9C335.098 132.894 337.003 135.366 337.128 135.49C337.332 135.614 337.562 135.691 337.799 135.717C338.037 135.742 338.278 135.715 338.504 135.637C338.62 135.434 338.674 135.202 338.658 134.969C338.643 134.736 338.559 134.513 338.418 134.327C338.014 133.911 336.849 132.936 336.849 132.936C337.411 133.448 338.026 133.9 338.682 134.283C338.916 134.37 339.167 134.4 339.415 134.369C339.662 134.338 339.898 134.248 340.103 134.106C340.208 133.892 338.542 132.26 338.542 132.26C339.438 132.366 340.345 132.36 341.24 132.243C341.303 132.039 340.113 131.083 340.113 131.083C340.115 131.075 342.067 130.51 342.077 130.282C342.087 130.069 340.341 129.363 340.341 129.363C340.341 129.354 342.422 128.61 342.563 127.822L342.563 127.822Z" fill="#FFC652"/>
<path d="M264.31 226.234C261.41 226.206 259.96 226.193 257.06 226.171C256.545 227.366 256.287 227.964 255.773 229.159C255.515 229.675 255.353 230.234 255.294 230.808C255.297 230.958 255.335 231.105 255.405 231.238C255.475 231.371 255.575 231.486 255.698 231.573C256.234 231.871 256.84 232.022 257.453 232.013L257.45 232.531C255.095 232.514 253.918 232.506 251.562 232.492L251.565 231.974C252.109 231.93 252.633 231.745 253.084 231.437C253.771 230.635 254.305 229.713 254.658 228.717C257.324 222.484 258.663 219.37 261.356 213.146C261.55 213.148 261.647 213.149 261.841 213.151C264.406 219.491 265.684 222.662 268.236 229.003C268.535 229.917 269.013 230.762 269.642 231.489C270.145 231.902 270.772 232.133 271.423 232.146C271.421 232.353 271.42 232.456 271.418 232.663C268.467 232.629 266.992 232.614 264.041 232.586C264.043 232.379 264.043 232.276 264.045 232.068C264.574 232.097 265.1 231.97 265.558 231.705C265.681 231.615 265.781 231.497 265.85 231.362C265.919 231.227 265.956 231.077 265.957 230.925C265.892 230.249 265.711 229.589 265.421 228.974C264.977 227.878 264.755 227.33 264.31 226.234ZM263.931 225.195C262.685 222.115 262.06 220.574 260.81 217.494C259.481 220.551 258.818 222.08 257.495 225.139C260.069 225.159 261.357 225.17 263.931 225.195Z" fill="#2435A1"/>
<path d="M285.845 213.906C285.903 215.685 285.932 216.574 285.99 218.353L285.464 218.344C285.424 217.765 285.292 217.197 285.072 216.66C284.828 216.151 284.435 215.728 283.946 215.446C283.366 215.157 282.723 215.014 282.075 215.031C281.017 215.014 280.487 215.006 279.429 214.99C279.356 220.785 279.322 223.682 279.257 229.476C279.161 230.223 279.282 230.982 279.605 231.662C279.813 231.874 280.064 232.038 280.342 232.143C280.619 232.249 280.916 232.293 281.212 232.272L281.86 232.282C281.858 232.489 281.857 232.592 281.855 232.799C278.683 232.753 277.098 232.732 273.926 232.693C273.928 232.486 273.929 232.382 273.931 232.175L274.594 232.183C274.912 232.219 275.234 232.173 275.53 232.05C275.826 231.926 276.085 231.729 276.283 231.478C276.556 230.835 276.667 230.136 276.608 229.44C276.67 223.645 276.702 220.747 276.771 214.951C275.868 214.939 275.416 214.932 274.513 214.92C273.884 214.881 273.253 214.939 272.642 215.091C272.13 215.284 271.694 215.636 271.398 216.097C271.015 216.709 270.798 217.41 270.769 218.132C270.558 218.13 270.453 218.128 270.243 218.126C270.349 216.347 270.402 215.458 270.509 213.679C276.644 213.755 279.711 213.8 285.845 213.906Z" fill="#2435A1"/>
<path d="M303.176 214.25C303.225 216.026 303.25 216.915 303.3 218.691L302.774 218.679C302.737 218.101 302.607 217.533 302.39 216.996C302.148 216.486 301.757 216.062 301.269 215.778C300.69 215.486 300.048 215.34 299.4 215.353C298.342 215.331 297.812 215.32 296.754 215.298C296.655 221.083 296.608 223.976 296.52 229.761C296.42 230.507 296.538 231.265 296.859 231.946C297.066 232.158 297.317 232.323 297.594 232.43C297.871 232.537 298.168 232.582 298.464 232.563C298.723 232.568 298.853 232.57 299.112 232.575C299.109 232.782 299.107 232.885 299.104 233.092C295.933 233.03 294.347 233.001 291.176 232.947C291.179 232.74 291.18 232.636 291.183 232.43L291.845 232.441C292.163 232.479 292.486 232.434 292.782 232.312C293.078 232.19 293.338 231.995 293.538 231.745C293.812 231.104 293.927 230.407 293.871 229.712C293.955 223.925 294 221.031 294.096 215.245C293.193 215.227 292.741 215.218 291.838 215.201C291.209 215.159 290.578 215.213 289.966 215.362C289.453 215.551 289.016 215.901 288.718 216.359C288.332 216.969 288.111 217.668 288.079 218.389L287.553 218.38C287.667 216.604 287.725 215.716 287.84 213.94C293.975 214.05 297.041 214.112 303.176 214.25Z" fill="#2435A1"/>
<path d="M309.997 215.443C309.935 218.431 309.905 219.926 309.847 222.914C311.495 222.953 312.318 222.973 313.966 223.015C314.712 223.116 315.47 222.964 316.119 222.581C316.685 221.976 316.99 221.173 316.969 220.346L317.481 220.359C317.423 222.988 317.395 224.303 317.341 226.932L316.829 226.919C316.788 226.314 316.671 225.716 316.48 225.14C316.308 224.797 316.026 224.52 315.68 224.354C315.132 224.123 314.54 224.013 313.945 224.032C312.298 223.991 311.474 223.971 309.827 223.932C309.779 226.424 309.755 227.671 309.71 230.163C309.67 230.674 309.697 231.188 309.792 231.692C309.865 231.878 309.998 232.033 310.171 232.133C310.5 232.274 310.858 232.337 311.216 232.317C312.484 232.346 313.119 232.361 314.388 232.391C315.161 232.441 315.937 232.385 316.696 232.225C317.223 232.062 317.702 231.772 318.092 231.382C318.818 230.623 319.427 229.76 319.899 228.823L320.451 228.837C319.765 230.713 319.423 231.652 318.74 233.529C312.976 233.385 310.094 233.319 304.33 233.198C304.334 232.991 304.335 232.888 304.339 232.681L305 232.695C305.438 232.702 305.871 232.601 306.261 232.402C306.543 232.271 306.762 232.036 306.872 231.745C307.02 231.149 307.084 230.535 307.063 229.922C307.15 225.008 307.196 222.551 307.293 217.638C307.398 216.881 307.288 216.11 306.977 215.413C306.76 215.202 306.5 215.039 306.216 214.936C305.931 214.833 305.627 214.792 305.326 214.815C305.06 214.809 304.927 214.806 304.661 214.8C304.665 214.594 304.667 214.491 304.671 214.284C310.462 214.418 313.357 214.491 319.148 214.651C319.192 216.307 319.215 217.135 319.26 218.791C319.044 218.785 318.936 218.782 318.72 218.776C318.635 218.06 318.433 217.363 318.122 216.713C317.882 216.319 317.523 216.011 317.097 215.834C316.466 215.642 315.808 215.554 315.148 215.574C313.088 215.52 312.058 215.494 309.997 215.443Z" fill="#2435A1"/>
<path d="M338.511 214.811C338.61 217.376 338.66 218.658 338.762 221.223L338.333 221.209C337.999 219.6 337.184 218.129 335.997 216.992C334.933 216.106 333.594 215.616 332.208 215.607C331.016 215.554 329.834 215.848 328.805 216.454C327.696 217.161 326.838 218.199 326.355 219.422C325.692 221.062 325.356 222.816 325.368 224.584C325.298 226.104 325.541 227.622 326.082 229.044C326.549 230.251 327.382 231.282 328.466 231.991C329.574 232.699 330.859 233.083 332.175 233.098C333.294 233.154 334.408 232.916 335.406 232.408C336.652 231.629 337.721 230.599 338.547 229.385C338.715 229.501 338.799 229.559 338.968 229.675C338.165 231.135 337.003 232.366 335.593 233.254C334.228 234.017 332.674 234.377 331.112 234.291C329.714 234.313 328.331 233.989 327.089 233.348C325.846 232.707 324.781 231.768 323.99 230.616C322.746 228.815 322.124 226.657 322.218 224.47C322.239 222.663 322.713 220.891 323.596 219.314C324.42 217.814 325.653 216.578 327.152 215.751C328.637 214.93 330.318 214.532 332.013 214.599C333.414 214.654 334.782 215.041 336.003 215.728C336.252 215.894 336.532 216.007 336.826 216.06C336.946 216.066 337.066 216.048 337.179 216.006C337.293 215.965 337.396 215.901 337.484 215.818C337.757 215.534 337.944 215.18 338.026 214.795L338.511 214.811Z" fill="#2435A1"/>
<path d="M356.754 215.902C356.779 217.664 356.792 218.546 356.818 220.308L356.292 220.288C356.262 219.714 356.14 219.148 355.93 218.612C355.694 218.102 355.309 217.674 354.826 217.386C354.251 217.086 353.611 216.931 352.962 216.934C351.904 216.894 351.375 216.875 350.317 216.836C350.138 222.575 350.053 225.445 349.894 231.186C349.786 231.925 349.895 232.68 350.207 233.359C350.413 233.573 350.661 233.741 350.937 233.851C351.213 233.961 351.509 234.01 351.805 233.996L352.453 234.018L352.439 234.53C349.267 234.421 347.682 234.369 344.51 234.267C344.516 234.061 344.518 233.959 344.524 233.754L345.186 233.775C345.503 233.817 345.825 233.778 346.123 233.662C346.42 233.545 346.684 233.355 346.887 233.109C347.17 232.478 347.293 231.786 347.245 231.096C347.401 225.353 347.484 222.481 347.659 216.739C346.756 216.706 346.305 216.69 345.402 216.658C344.774 216.606 344.142 216.649 343.527 216.787C343.013 216.966 342.57 217.306 342.265 217.757C341.871 218.355 341.641 219.047 341.599 219.762C341.388 219.755 341.283 219.751 341.073 219.744C341.211 217.983 341.281 217.102 341.421 215.34C347.554 215.551 350.621 215.663 356.754 215.902Z" fill="#2435A1"/>
<path d="M368.801 228.854C365.901 228.738 364.451 228.682 361.551 228.572C361.006 229.736 360.734 230.318 360.19 231.483C359.921 231.985 359.745 232.532 359.672 233.097C359.672 233.246 359.707 233.393 359.774 233.527C359.841 233.66 359.938 233.776 360.058 233.865C360.588 234.174 361.189 234.342 361.803 234.351C361.797 234.556 361.794 234.658 361.788 234.862C359.433 234.776 358.255 234.733 355.9 234.65L355.914 234.138C356.459 234.112 356.986 233.944 357.446 233.653C358.152 232.882 358.708 231.987 359.086 231.013C361.904 224.937 363.324 221.905 366.187 215.853L366.672 215.873C369.063 222.21 370.26 225.376 372.66 231.702C372.939 232.614 373.397 233.461 374.008 234.193C374.503 234.616 375.124 234.861 375.774 234.892C375.767 235.096 375.764 235.198 375.757 235.402C372.806 235.283 371.33 235.225 368.379 235.111C368.386 234.907 368.389 234.804 368.395 234.6C368.922 234.644 369.451 234.535 369.918 234.286C370.042 234.202 370.145 234.089 370.217 233.957C370.29 233.826 370.33 233.679 370.335 233.529C370.286 232.859 370.12 232.203 369.845 231.59C369.427 230.495 369.218 229.948 368.801 228.854ZM368.447 227.818C367.277 224.742 366.693 223.203 365.524 220.125C364.113 223.098 363.411 224.587 362.011 227.566C364.586 227.664 365.873 227.715 368.447 227.818Z" fill="#2435A1"/>
<path d="M390.658 217.387C390.668 219.136 390.674 220.011 390.686 221.761L390.16 221.736C390.135 221.165 390.017 220.602 389.812 220.069C389.579 219.559 389.198 219.131 388.718 218.841C388.144 218.537 387.506 218.377 386.857 218.373C385.799 218.323 385.27 218.298 384.212 218.249C383.984 223.947 383.877 226.796 383.675 232.495C383.561 233.229 383.665 233.98 383.972 234.655C384.176 234.871 384.424 235.04 384.699 235.151C384.974 235.263 385.269 235.314 385.566 235.303C385.825 235.314 385.955 235.319 386.214 235.331C386.207 235.534 386.203 235.636 386.196 235.839C383.024 235.702 381.439 235.635 378.267 235.505C378.274 235.301 378.277 235.199 378.284 234.995L378.946 235.023C379.262 235.068 379.584 235.032 379.883 234.92C380.181 234.807 380.446 234.62 380.653 234.377C380.94 233.753 381.068 233.067 381.026 232.381C381.225 226.678 381.33 223.827 381.554 218.126C380.652 218.085 380.2 218.065 379.297 218.024C378.67 217.965 378.037 218.002 377.421 218.132C376.906 218.304 376.461 218.638 376.151 219.083C375.751 219.673 375.516 220.358 375.468 221.068L374.941 221.046C375.094 219.297 375.171 218.423 375.327 216.674C381.459 216.946 384.526 217.088 390.658 217.387Z" fill="#2435A1"/>
<path d="M271.906 247.853C304.516 248.325 337.116 249.092 369.707 250.154" stroke="#2435A1" stroke-width="3.69351" stroke-miterlimit="10"/>
<path d="M300.078 267.18C313.695 267.424 327.31 267.712 340.924 268.042" stroke="#2435A1" stroke-width="3.69351" stroke-miterlimit="10"/>
<g style="mix-blend-mode:multiply">
<path d="M233.812 74.886C232.291 74.8532 230.779 75.1211 229.362 75.6743C227.945 76.2275 226.651 77.0552 225.555 78.1096C224.46 79.1641 223.583 80.4246 222.977 81.8187C222.37 83.2128 222.045 84.713 222.021 86.233C222.355 161.517 222.566 236.801 222.653 312.085C229.724 312.071 233.26 312.07 240.332 312.079C243.294 312.041 246.12 310.83 248.189 308.711C250.257 306.591 251.398 303.738 251.361 300.778C251.504 225.517 251.993 150.258 252.827 75.0018C245.221 74.9196 241.418 74.8964 233.812 74.886Z" fill="#C4C4DA"/>
</g>
<path d="M418.605 89.6143C419.276 89.6528 419.933 89.8237 420.538 90.1173C421.142 90.4109 421.683 90.8214 422.128 91.3249C422.573 91.8284 422.914 92.4151 423.13 93.051C423.347 93.6869 423.436 94.3594 423.391 95.0297C415.2 180.162 411.46 265.503 411.24 351.018C411.243 351.667 411.116 352.31 410.867 352.909C410.618 353.508 410.252 354.051 409.79 354.507C409.327 354.962 408.779 355.321 408.176 355.562C407.573 355.802 406.928 355.92 406.279 355.908C348.75 355.028 291.218 354.479 233.683 354.264C232.352 354.242 231.084 353.694 230.157 352.739C229.23 351.785 228.719 350.502 228.737 349.172C228.681 261.519 228.602 173.867 228.5 86.2146C228.527 84.8365 229.101 83.5257 230.096 82.5704C231.09 81.6151 232.423 81.0935 233.802 81.1204C295.533 81.5228 357.134 84.3541 418.605 89.6143L418.605 89.6143ZM419.209 83.5624C357.502 78.2555 295.703 75.3634 233.812 74.886C232.291 74.8532 230.779 75.1211 229.362 75.6743C227.945 76.2275 226.651 77.0552 225.555 78.1096C224.46 79.1641 223.583 80.4246 222.977 81.8187C222.37 83.2128 222.045 84.713 222.021 86.2329C222.41 173.881 222.633 261.53 222.688 349.179C222.645 352.137 223.78 354.991 225.843 357.114C227.905 359.236 230.727 360.454 233.687 360.498C291.226 360.652 348.761 361.156 406.293 362.011C407.736 362.038 409.169 361.776 410.509 361.241C411.85 360.706 413.069 359.908 414.096 358.895C415.123 357.882 415.937 356.674 416.49 355.342C417.043 354.009 417.323 352.58 417.315 351.138C417.534 265.767 421.385 180.582 429.837 95.6206C430.457 89.5689 425.716 84.1543 419.209 83.5625L419.209 83.5624Z" fill="#FFC652"/>
<path d="M234.822 306.6C177.177 306.781 119.545 307.661 61.9251 309.24C60.4791 309.285 59.0387 309.042 57.6878 308.525C56.3369 308.007 55.1025 307.227 54.0565 306.228C53.0105 305.229 52.1739 304.033 51.5954 302.707C51.0169 301.382 50.7081 299.956 50.6869 298.51C48.8325 212.992 43.3051 127.732 33.1923 42.7837C32.4527 36.7256 37.2561 31.2285 43.9614 30.5495C107.587 24.452 171.331 21.2656 235.193 20.9902C241.943 21.0061 247.361 26.1311 247.298 32.3863C246.435 120.018 245.953 207.652 245.851 295.288C245.889 298.249 244.748 301.104 242.68 303.225C240.611 305.346 237.785 306.56 234.822 306.6Z" fill="#0E2663"/>
<path d="M229.587 302.118C171.915 302.359 114.256 303.323 56.6112 305.012C55.1661 305.061 53.7257 304.822 52.3739 304.309C51.0222 303.796 49.7861 303.019 48.7377 302.024C47.6893 301.029 46.8495 299.835 46.2673 298.512C45.6851 297.19 45.3722 295.764 45.3466 294.32C43.4746 208.979 37.3255 123.785 26.9225 39.0588C26.1502 33.0134 30.9384 27.5028 37.6589 26.7946C101.437 20.4217 165.346 16.9913 229.386 16.5034C236.155 16.4976 241.607 21.6062 241.565 27.8622C240.993 115.505 240.677 203.15 240.617 290.795C240.655 293.757 239.514 296.614 237.446 298.737C235.378 300.86 232.552 302.076 229.587 302.118Z" fill="#2435A1"/>
<path d="M229.387 16.5034C228.052 16.5045 227.385 16.5057 226.051 16.5093C238.575 89.5061 247.631 178.361 211.23 246.168C183.01 298.738 92.524 305.236 44.9834 279.22C45.1456 285.258 45.2183 288.278 45.3472 294.32C45.3728 295.764 45.6858 297.19 46.2679 298.512C46.8501 299.835 47.6899 301.029 48.7383 302.024C49.7866 303.019 51.0227 303.796 52.3745 304.309C53.7262 304.822 55.1666 305.061 56.6117 305.012C114.262 303.383 171.92 302.418 229.588 302.118C232.553 302.076 235.379 300.86 237.447 298.737C239.515 296.614 240.655 293.757 240.617 290.795C240.693 203.15 241.009 115.506 241.566 27.8622C241.608 21.6063 236.156 16.4976 229.387 16.5034Z" fill="#182E89"/>
<path d="M158.499 17.9602C118.127 19.8043 77.8474 22.749 37.6588 26.7943C30.9384 27.5025 26.1502 33.013 26.9225 39.0585C32.1452 81.0186 36.3124 123.073 39.4242 165.222C38.6011 129.378 35.5011 83.5927 60.3484 54.411C83.4815 27.2425 124.432 18.6092 158.499 17.9602Z" fill="#3847A9"/>
<path d="M98.6592 66.4513C123.523 64.9059 148.398 63.7059 173.285 62.8511" stroke="#FFC652" stroke-width="3.41827" stroke-miterlimit="10"/>
<path d="M93.0171 233.721C125.726 232.547 158.44 231.695 191.16 231.165" stroke="#FFC652" stroke-width="3.41827" stroke-miterlimit="10"/>
<path d="M121.973 251.517C135.627 251.163 149.282 250.84 162.937 250.546" stroke="#FFC652" stroke-width="3.41827" stroke-miterlimit="10"/>
<path fill-rule="evenodd" clip-rule="evenodd" d="M143.159 96.7524C142.349 96.812 141.534 96.7445 140.745 96.5523C140.731 96.5725 142.299 97.6101 142.31 97.6426C141.098 98.2282 139.845 98.7266 138.562 99.1339C138.547 99.1697 140.259 99.6895 140.259 99.6895C140.38 99.8794 137.933 106.598 137.933 106.598C137.923 106.598 135.021 99.9185 135.021 99.9185C135.046 99.8691 136.633 99.2184 136.633 99.2184C136.579 99.1166 132.782 98.0972 132.79 98.0613C133.252 97.6264 133.738 97.2183 134.247 96.839C134.229 96.8178 131.861 97.2507 131.861 97.2507C131.86 97.2373 134.566 95.3181 134.566 95.3181C134.545 95.3087 130.93 95.8888 130.93 95.8888C130.929 95.8785 135.263 93.4526 136.006 93.1178C136.87 92.9015 137.771 92.8698 138.648 93.0249C139.408 93.2944 143.935 95.313 143.935 95.313C143.935 95.3189 140.286 95.0645 140.286 95.0645C141.121 95.8133 142.098 96.3873 143.16 96.7525L143.159 96.7524ZM145.2 140.608C145.472 141.077 145.126 142.282 144.87 142.129C144.457 141.882 143.838 140.277 143.134 139.452C142.556 138.775 141.283 137.285 141.283 137.285C142.701 138.254 144.013 139.368 145.2 140.609V140.608ZM141.624 146.543C141.629 144.747 141.357 142.96 140.817 141.247C140.469 140.131 139.724 136.09 139.724 136.09C140.208 137.911 140.807 139.701 141.516 141.447C142.152 142.728 143.127 145.709 141.624 146.543H141.624ZM137.848 141.361C137.586 143.129 137.449 144.913 137.436 146.7C136.945 145.05 136.852 143.306 137.166 141.613C137.768 139.826 138.229 137.995 138.544 136.136C138.405 137.889 138.172 139.633 137.848 141.361V141.361ZM135.427 139.749C134.773 140.704 134.234 142.293 133.873 142.548C133.608 142.735 133.19 141.538 133.429 141.06C134.518 139.732 135.741 138.522 137.081 137.448C137.084 137.451 135.989 139.023 135.427 139.749ZM146.823 143.09C147.31 143.852 145.949 144.609 145.796 144.458C145.717 144.207 145.682 143.945 145.692 143.683C145.747 143.599 146.58 143.476 146.823 143.09ZM133.149 144.936C132.255 144.972 131.98 143.654 132.023 143.652C132.41 143.789 132.785 143.958 133.143 144.158C133.21 144.232 133.137 144.635 133.149 144.936ZM126.74 127.748C126.782 127.938 126.851 128.121 126.945 128.291C126.873 128.498 124.951 129.165 124.476 130.058C123.82 131.29 124.663 132.805 124.475 133.418C124.353 133.818 123.109 133.907 123.109 133.907C124.082 134.102 125.067 134.233 126.058 134.299C125.999 134.943 125.907 135.583 125.783 136.217C125.8 136.264 127.22 135.45 127.24 135.451C127.265 135.452 127.349 135.963 127.365 135.971C127.437 136.008 128.059 135.389 128.059 135.389C128.082 135.393 128.254 136.126 128.125 136.314C127.822 136.567 127.485 136.776 127.125 136.935C126.216 137.428 125.249 137.807 124.248 138.065C123.83 138.14 123.399 138.081 123.017 137.896C122.635 137.71 122.321 137.409 122.122 137.034C121.815 136.222 120.833 136.467 120.556 136.505C120.484 136.515 119.984 136.356 119.842 136.614C119.679 136.433 119.532 136.239 119.403 136.033C119.299 135.652 119.161 135.282 118.991 134.926C118.759 134.622 118.36 134.129 118.167 133.837C118.056 133.669 118.298 133.412 118.301 133.406C118.313 133.377 117.934 133.225 117.932 133.223C117.882 133.164 117.842 132.426 117.347 132.299C115.692 129.355 114.862 127.885 113.192 124.947C113.181 124.947 113.168 124.945 113.158 124.946L112.985 124.604L112.975 124.564C112.785 124.23 112.69 124.063 112.499 123.729C112.555 123.664 112.594 123.586 112.613 123.502C112.632 123.419 112.63 123.332 112.608 123.249C112.586 123.167 112.544 123.091 112.486 123.028C112.427 122.965 112.355 122.917 112.274 122.889L112.27 122.814C112.279 122.756 112.284 122.697 112.286 122.638C112.41 122.594 112.539 122.562 112.669 122.543C113.858 121.879 114.962 121.074 115.957 120.145C115.959 120.148 113.915 121.877 113.19 122.616C112.519 123.301 112.835 123.98 112.975 124.564C113.062 124.718 113.106 124.795 113.193 124.948C113.84 124.975 114.875 125.28 115.494 124.677C115.69 124.487 119.086 120.089 119.086 120.089C119.092 120.094 117.011 123.004 116.205 124.441C115.61 125.504 116.669 126.738 116.763 126.792C116.932 126.89 118.47 126.9 118.945 126.034C119.41 125.187 121.35 121.382 121.35 121.382C121.356 121.385 119.686 125.372 119.598 125.677C119.267 126.82 120.519 127.67 120.677 127.704C120.861 127.745 122.368 127.513 122.706 126.455C122.937 125.734 123.756 122.495 123.756 122.495C123.77 122.498 123.581 124.233 123.48 125.341C123.377 126.449 124.8 126.968 125.027 126.974C125.251 126.981 126.521 126.567 126.639 125.571C126.742 124.697 126.678 122.535 126.678 122.535C126.801 122.644 126.935 122.738 127.079 122.817C127.233 122.802 128.255 121.919 128.429 121.828C128.466 121.808 128.621 121.918 128.695 121.991C129.591 122.882 128.659 126.885 128.659 126.885C128.665 126.902 129.682 126.689 129.682 126.689C129.733 126.744 128.073 128.164 126.739 127.747L126.74 127.748L126.74 127.748ZM170.576 108.441C169.44 108.122 168.262 107.986 167.083 108.037C167.08 108.022 170.872 104.683 170.614 104.333C170.356 103.983 167.365 104.502 167.365 104.502C167.354 104.478 170.256 100.903 169.74 100.326C169.437 99.9873 166.168 101.187 166.168 101.187C166.167 101.184 168.66 95.0111 168.007 94.8846C167.709 94.827 163.317 99.3111 163.317 99.3111C164.432 97.7713 165.427 96.1489 166.294 94.4581C166.818 92.9683 165.354 89.4111 164.878 89.6161C164.292 89.8681 160.042 98.8043 159.465 98.8584C159.395 98.865 158.942 98.4023 158.876 98.4502C158.475 98.7406 156.513 102.365 156.275 102.315C156.248 102.31 155.907 101.624 155.885 101.624C155.54 101.625 151.798 105.818 150.863 107.265C150.679 107.484 150.544 107.739 150.465 108.014C150.387 108.289 150.367 108.578 150.407 108.861C150.447 109.144 150.546 109.415 150.698 109.657C150.85 109.9 151.051 110.108 151.288 110.267C151.736 110.654 152.579 111.398 151.913 112.433C150.838 114.102 147.438 112.807 147.463 112.748C147.87 111.681 148.192 110.585 148.426 109.468C148.261 109.495 147.092 110.618 146.173 110.283C145.688 110.082 145.225 109.83 144.792 109.532C144.809 109.497 147.06 107.785 147.06 107.785C146.895 107.721 144.917 107.894 144.689 107.676C144.333 107.296 144.08 106.831 143.954 106.326C143.828 105.82 143.834 105.291 143.972 104.789C144.14 103.661 145.731 101.174 146.064 101.186C146.13 101.188 146.421 101.523 146.779 101.459C146.998 101.42 147.373 101.172 147.65 101.073C147.997 100.958 148.363 100.913 148.727 100.942C149.091 100.972 149.446 101.074 149.77 101.244C150.04 101.401 150.264 101.628 150.416 101.901C150.569 102.174 150.646 102.483 150.639 102.795C150.359 101.956 150.022 101.137 149.63 100.343C149.631 100.334 151.979 101.358 152.232 101.504C152.583 101.68 152.971 101.773 153.364 101.776C153.757 101.78 154.146 101.693 154.501 101.522C154.835 101.297 155.101 100.985 155.271 100.62C155.442 100.255 155.509 99.8501 155.467 99.4495C155.4 99.4771 155.026 100.326 154.407 100.418C153.502 100.47 152.599 100.295 151.779 99.9102C151.021 99.7313 150.248 99.6256 149.469 99.5947C149.459 99.5603 153.125 99.8418 153.395 99.8759C153.543 99.8945 154.037 99.2297 154.129 98.5661C154.378 96.7804 151.592 96.1629 151.362 95.9257C151.283 95.8441 150.668 95.4715 150.637 95.4501C150.571 95.3217 150.514 95.1895 150.465 95.0543C150.507 95.0412 150.55 95.0311 150.594 95.0242C152.004 94.9779 153.354 94.4377 154.407 93.498C155.763 92.018 153.747 88.9512 154.198 88.7747C155.058 88.8723 155.889 89.1417 156.642 89.5669C156.778 89.8409 156.869 90.1353 156.91 90.4385C157.217 91.9717 155.665 92.3813 156.155 94.0646C156.37 94.804 156.978 95.0674 157.22 95.9905L156.769 97.2142C156.806 97.3063 158.797 96.0468 158.337 95.0454C158.145 94.6266 157.637 93.7607 157.637 93.7607C158.361 94.1811 159.207 94.3387 160.034 94.2071C160.525 94.0396 160.305 95.23 160.305 95.23C160.676 94.8045 160.968 94.3175 161.17 93.7912C161.169 93.6478 161.136 93.5066 161.071 93.3786C161.007 93.2505 160.914 93.1389 160.799 93.0527C160.685 92.9664 160.552 92.9076 160.411 92.881C160.27 92.8544 160.125 92.8607 159.987 92.8993C159.704 92.9574 159.058 93.3568 158.988 92.7824C158.867 91.7941 160.548 91.6752 160.121 90.0752C159.905 89.2662 158.367 89.1288 157.396 88.7097C157.102 88.5018 156.845 88.2475 156.632 87.9568C155.738 86.7205 154.86 86.3759 154.376 86.6548C153.804 86.9846 153.479 87.2412 152.992 87.5117C152.604 87.6578 152.248 87.8763 151.942 88.1554C151.316 88.948 151.99 90.1594 152.365 90.8819C152.8 91.5081 153.014 92.2615 152.973 93.0229C152.742 93.9035 151.159 94.6464 150.321 94.7584C150.273 94.7648 150.217 94.7877 150.165 94.7897L150.151 94.4379C150.394 93.9511 150.601 93.447 150.771 92.9298C151.328 91.3008 150.102 90.8418 148.991 90.4333C148.812 90.3435 148.605 90.3248 148.412 90.3807L148.386 90.3817L148.371 90.659L148.186 90.6161L148.199 90.2887L148.12 90.2918C148.19 90.2324 148.246 90.1578 148.283 90.0737C148.321 89.9895 148.338 89.8979 148.335 89.8059C148.329 89.6417 148.267 89.4844 148.159 89.3602L148.343 89.3529L148.261 89.2805C148.186 89.1927 148.104 89.1118 148.015 89.0389C147.975 88.997 147.946 88.9466 147.929 88.8916C147.985 88.9199 148.039 88.9513 148.092 88.9857C148.19 89.036 148.275 89.1106 148.337 89.2023L148.444 89.2733C148.419 88.6808 148.407 88.3845 148.382 87.792L148.281 87.8966C148.198 87.9481 148.121 88.0103 148.053 88.0817C148.01 88.1275 147.958 88.1638 147.899 88.1884C147.917 88.1342 147.941 88.0824 147.972 88.0347C148.032 87.9551 148.174 87.8506 148.198 87.7992L148.273 87.6957C147.654 87.7204 147.344 87.7329 146.725 87.758L146.808 87.8552C146.902 87.9126 146.985 87.9858 147.054 88.0717C147.089 88.1208 147.165 88.218 147.165 88.218C147.107 88.1941 147.053 88.1625 147.003 88.1239C146.919 88.047 146.817 87.9909 146.707 87.96L146.624 87.8628C146.65 88.4552 146.663 88.7514 146.688 89.3438L146.763 89.2655C146.844 89.1726 146.938 89.0924 147.042 89.0278C147.091 88.9997 147.195 88.9211 147.195 88.9211C147.196 88.9215 147.118 89.0498 147.097 89.0758C147.021 89.1684 146.947 89.2577 146.872 89.3362L146.797 89.4149L147.032 89.4054C146.973 89.4648 146.93 89.5376 146.906 89.6174C146.882 89.6973 146.878 89.7818 146.894 89.8636C146.897 89.9534 146.919 90.0416 146.959 90.1223C146.998 90.203 147.055 90.2743 147.124 90.3316L147.098 90.3327L147.138 90.6581L146.931 90.7166L146.893 90.4415L146.867 90.4425C146.67 90.4013 146.465 90.4366 146.294 90.5412C145.21 91.0532 143.993 91.659 144.703 93.1706C144.92 93.6748 145.177 94.1605 145.473 94.6227L145.483 94.8487C143.743 94.3455 142.138 93.4591 140.786 92.2547C140.727 92.171 140.647 92.0847 140.618 92.0357C140.611 91.6541 140.608 91.4631 140.601 91.0815C141.053 90.2268 141.434 89.336 141.739 88.4183C142.522 86.0988 140.754 85.4478 139.077 84.8907C138.82 84.7741 138.531 84.7515 138.259 84.827L138.197 85.1816C138.018 85.1795 137.928 85.1786 137.75 85.1765L137.753 84.6993C137.676 84.7199 137.597 84.7319 137.517 84.735C137.515 84.7263 137.992 84.2111 137.975 83.8601C137.967 83.7222 137.927 83.588 137.857 83.4688C137.787 83.3496 137.69 83.2489 137.573 83.1749L137.941 83.1582C137.696 82.9199 137.472 82.661 137.271 82.3843C137.58 82.5419 137.872 82.7307 138.142 82.9477C138.106 82.1956 138.087 81.8196 138.05 81.0675C137.874 81.2264 137.239 81.6618 137.236 81.6576C137.4 81.3736 137.6 81.1113 137.83 80.8767C137.04 80.9128 136.646 80.931 135.857 80.9678C136.077 81.1966 136.282 81.4388 136.473 81.6928C136.178 81.545 135.897 81.3732 135.63 81.1793C135.668 81.9311 135.687 82.3071 135.724 83.059C135.925 82.8737 136.508 82.4188 136.509 82.4197C136.355 82.7121 136.175 82.9896 135.97 83.2486L136.312 83.2328C136.206 83.3187 136.123 83.4288 136.07 83.5538C136.016 83.6788 135.994 83.8149 136.005 83.9504C136.024 84.3265 136.546 84.7796 136.546 84.7796C136.458 84.7846 136.369 84.7803 136.282 84.7667C136.302 84.9567 136.312 85.0515 136.332 85.2415C136.154 85.2598 136.065 85.2688 135.887 85.2872L135.843 84.9373C135.702 84.9046 135.555 84.9001 135.412 84.924C135.268 84.9479 135.131 84.9998 135.008 85.0768C133.455 85.7738 131.807 86.6239 132.724 88.8254C133.085 89.7255 133.551 90.5803 134.111 91.3723C134.13 91.7732 134.14 91.9738 134.16 92.3747C134.109 92.4022 134.074 92.4792 134.012 92.5574C132.729 93.8185 131.226 94.8339 129.577 95.5531L129.565 95.3275C129.823 94.8448 130.034 94.3388 130.196 93.8163C130.735 92.187 129.479 91.7418 128.365 91.3453C128.184 91.2574 127.977 91.2406 127.785 91.2983L127.759 91.2997L127.747 91.5764L127.562 91.5353C127.565 91.4046 127.567 91.3394 127.571 91.2087L127.545 91.21C127.651 91.0712 127.706 90.9005 127.703 90.7259C127.705 90.6436 127.689 90.5618 127.658 90.4856C127.627 90.4094 127.581 90.3404 127.522 90.2829L127.758 90.2712C127.591 90.1307 127.434 89.9793 127.287 89.8178C127.47 89.929 127.643 90.0546 127.806 90.1935C127.775 89.6027 127.759 89.3074 127.728 88.7168C127.579 88.8614 127.419 88.9951 127.25 89.1169C127.38 88.9423 127.52 88.7761 127.67 88.6193C127.052 88.65 126.743 88.6655 126.124 88.6967C126.276 88.8412 126.543 89.1523 126.543 89.1523C126.357 89.0553 126.184 88.9378 126.025 88.802C126.057 89.3925 126.072 89.6878 126.104 90.2783C126.253 90.1264 126.412 89.9844 126.58 89.8531C126.477 90.0313 126.353 90.1974 126.213 90.3482L126.422 90.3377C126.327 90.471 126.28 90.6327 126.289 90.7961C126.292 90.8886 126.317 90.979 126.363 91.0596C126.408 91.1403 126.472 91.2088 126.55 91.2594L126.471 91.2634L126.515 91.5873L126.308 91.6478L126.267 91.3738L126.241 91.3751C126.044 91.3359 125.84 91.3731 125.669 91.4791C124.592 92.0001 123.381 92.6143 124.107 94.1166C124.328 94.6172 124.591 95.0989 124.891 95.5569L124.909 95.9072C124.856 95.905 124.804 95.8993 124.751 95.8902C123.907 95.8519 122.271 95.2306 121.948 94.4026C121.831 93.6519 121.974 92.8839 122.353 92.2252C122.668 91.5025 123.187 90.1656 122.516 89.4829C122.174 89.2356 121.79 89.0518 121.382 88.9403C120.872 88.7158 120.541 88.493 119.922 88.2156C119.417 87.9896 118.544 88.3436 117.8 89.7085C117.621 90.0185 117.388 90.2942 117.112 90.5227C116.193 91.0207 114.659 91.3038 114.528 92.1183C114.269 93.7236 115.952 93.6972 115.937 94.6964C115.929 95.279 115.248 94.9263 114.953 94.9006C114.811 94.872 114.665 94.8767 114.525 94.9142C114.385 94.9517 114.256 95.0211 114.147 95.1168C114.039 95.2126 113.954 95.3322 113.899 95.4662C113.844 95.6002 113.821 95.7451 113.832 95.8894C113.85 96.1886 114.827 97.2374 114.827 97.2374C114.839 97.2235 114.498 96.0782 115.002 96.2009C115.838 96.2796 116.674 96.0468 117.348 95.5473C117.376 95.5562 116.931 96.456 116.77 96.8815C116.387 97.8948 118.531 98.893 118.531 98.893C118.546 98.8409 117.969 97.72 117.969 97.72C118.101 96.8104 118.696 96.4967 118.851 95.7178C119.189 94.0199 117.485 93.8107 117.76 92.1919C117.779 91.8889 117.842 91.5902 117.945 91.3046C118.661 90.8261 119.461 90.4857 120.303 90.3009C120.822 90.4552 119.051 93.6542 120.54 95.0022C121.676 95.8405 123.069 96.2568 124.479 96.1794C124.523 96.1812 124.567 96.1874 124.611 96.1977C124.613 96.2033 124.486 96.5968 124.475 96.606C124.411 96.659 123.868 97.0812 123.823 97.1403C123.574 97.4696 120.874 98.2544 121.284 100.003C121.402 100.514 121.716 100.957 122.16 101.237C122.496 101.156 126.044 100.617 126.044 100.617C125.264 100.722 124.496 100.894 123.747 101.132C122.973 101.585 122.097 101.836 121.201 101.863C120.55 101.825 120.063 101.004 120.031 100.995C120.021 101.398 120.123 101.796 120.326 102.144C120.53 102.492 120.826 102.777 121.182 102.967C121.546 103.102 121.936 103.153 122.323 103.116C122.709 103.079 123.083 102.955 123.415 102.754C123.653 102.588 125.901 101.377 125.901 101.377C125.903 101.39 125.117 103.898 125.117 103.898C125.082 103.592 125.128 103.281 125.251 102.998C125.374 102.714 125.569 102.468 125.816 102.284C126.125 102.089 126.469 101.957 126.829 101.896C127.189 101.836 127.557 101.848 127.912 101.931C128.198 102.007 128.6 102.209 128.815 102.24C129.157 102.288 129.455 101.912 129.503 101.906C129.87 101.861 131.604 104.197 131.91 105.308C132.099 105.794 132.156 106.321 132.075 106.836C131.995 107.351 131.779 107.836 131.45 108.241C130.683 108.447 129.893 108.551 129.099 108.55C129.864 109.123 130.671 109.64 131.512 110.095C131.109 110.432 130.67 110.721 130.201 110.958C129.314 111.369 127.974 110.345 127.885 110.338C127.585 110.314 129.09 113.447 129.128 113.517C129.252 113.74 125.914 115.14 124.694 113.575C123.922 112.585 124.71 111.79 125.104 111.373C125.325 111.193 125.505 110.969 125.634 110.716C125.762 110.462 125.836 110.184 125.852 109.9C125.867 109.616 125.822 109.332 125.722 109.066C125.621 108.801 125.465 108.559 125.265 108.356C123.549 106.512 121.709 104.786 119.759 103.19C119.638 103.42 119.538 103.66 119.459 103.907C119.231 104.007 116.821 100.47 116.494 100.304C116.429 100.271 116.004 100.762 115.944 100.759C115.131 100.722 110.191 92.25 109.697 92.0911C109.107 91.9009 108.097 95.5962 108.74 97.0026C109.751 98.6061 110.89 100.124 112.149 101.542C110.526 100.134 108.832 98.8096 107.073 97.5745C106.351 97.7903 109.479 103.644 109.479 103.644C109.478 103.645 106.088 102.783 105.844 103.101C105.352 103.744 108.583 107.023 108.583 107.023C108.576 107.043 105.529 106.81 105.332 107.133C105.079 107.549 109.123 110.497 109.123 110.497C109.122 110.505 105.893 110.808 105.731 111.187C105.482 111.769 109.654 113.871 109.654 113.871C109.654 113.882 106.615 115.196 106.633 115.514C106.658 115.932 110.136 116.898 110.136 116.898C110.137 116.902 109.073 117.691 109.013 117.684C109.002 117.683 108.881 117.6 108.828 117.619C108.766 117.641 108.733 117.774 108.763 117.848L108.766 117.897C108.655 118.004 108.573 118.138 108.529 118.286C108.454 118.491 108.151 118.884 108.179 118.98C108.184 118.996 108.281 119.032 108.287 119.049C108.336 119.178 108.378 119.309 108.413 119.443C108.413 119.476 108.295 119.649 108.274 119.75C107.884 119.631 107.689 119.572 107.299 119.453C107.274 119.802 107.321 120.152 107.438 120.481C107.554 120.811 107.737 121.113 107.976 121.368C108.331 121.698 108.717 121.653 108.62 121.783C109.046 122 109.259 122.109 109.685 122.327C109.768 122.466 109.902 122.568 110.059 122.611C110.215 122.654 110.383 122.635 110.525 122.557L110.529 122.632C110.551 123.032 111.165 123.356 111.219 123.447C111.251 123.596 111.32 123.733 111.422 123.847C111.523 123.96 111.652 124.044 111.796 124.092C113.535 127.636 114.4 129.409 116.119 132.961C115.986 133.393 116.487 133.853 116.499 133.894C116.506 133.919 116.366 134.327 116.366 134.327C116.384 134.335 116.741 134.166 116.861 134.453C116.942 134.647 117.069 135.487 117.209 135.813C117.403 136.157 117.617 136.489 117.848 136.809C117.994 137.183 118.09 137.574 118.134 137.973C118.076 138.263 117.286 138.968 117.389 139.586C117.463 140.031 117.977 140.168 118.037 140.256C118.184 140.473 118.99 141.283 119.116 141.409C119.408 141.719 119.739 141.991 120.101 142.215C120.429 142.344 120.738 142.515 121.021 142.724C121.155 143.141 121.364 143.53 121.636 143.874C121.848 144.059 122.069 144.233 122.299 144.395C122.521 144.542 122.96 144.719 123.179 144.606C123.327 144.53 123.322 143.906 123.32 143.748C123.32 143.644 123.265 143.132 123.262 142.999C123.202 142.647 123.092 142.306 122.936 141.985C122.842 141.738 122.778 141.48 122.748 141.217C122.814 140.995 123.923 140.439 124.142 140.277C125.392 139.223 126.903 138.524 128.517 138.255C129.069 138.193 129.625 138.161 130.181 138.159C130.859 138.186 131.823 138.368 132.352 137.917C132.426 137.861 132.485 137.787 132.522 137.702C132.558 137.617 132.573 137.524 132.563 137.432C132.48 137.041 132 136.654 131.823 136.308C131.774 136.212 131.626 135.889 131.626 135.889C132.029 135.864 132.43 135.814 132.827 135.739C133.22 135.319 133.531 134.83 133.744 134.295C133.65 134.238 131.829 134.989 131.608 133.632C131.414 132.445 132.467 131.367 134.177 131.742C135.342 131.997 137.135 134.342 135.64 135.448C134.964 136.151 134.4 136.952 133.965 137.825C134.028 137.843 135.957 136.941 135.957 136.941C135.984 137.032 133.698 138.047 132.44 138.816C131.326 139.498 130.473 140.662 129.597 140.742C128.896 140.806 129.129 139.357 129.129 139.357C129.107 139.284 127.547 139.806 127.331 140.513C127.28 140.872 127.31 141.239 127.418 141.585C127.526 141.932 127.709 142.25 127.955 142.518C127.955 142.632 126.542 143.876 126.909 145.045C127.177 145.809 127.508 146.549 127.897 147.259C128.379 147.046 128.757 146.651 128.951 146.162C129.03 145.835 129.127 145.512 129.244 145.196C129.285 145.216 129.686 147.056 130.745 147.517C131.471 147.834 133.373 146.995 133.434 147.007C133.599 147.04 135.072 148.761 136.284 148.702C136.805 148.575 137.312 148.396 137.798 148.168C137.989 148.228 139.181 149.949 139.675 149.93C140.176 149.912 141.317 148.083 141.447 148.032C141.949 148.217 142.467 148.357 142.994 148.453C144.182 148.422 145.674 146.558 145.713 146.547C145.897 146.494 147.732 147.226 148.433 146.855C149.455 146.315 149.758 144.422 149.758 144.422C149.924 144.72 150.054 145.036 150.147 145.364C150.28 145.88 151.254 146.384 151.254 146.384C151.626 145.659 151.902 144.89 152.076 144.094C152.327 142.894 150.87 141.644 150.87 141.644C150.863 141.555 151.699 140.532 151.315 139.592C151.034 138.902 149.435 138.575 149.435 138.575C149.413 138.673 149.788 139.993 149.072 139.995C148.179 139.998 147.254 138.884 146.092 138.289C144.779 137.618 142.441 136.69 142.441 136.69C142.452 136.638 144.495 137.417 144.495 137.417C144.044 136.546 143.413 135.782 142.642 135.175C141.07 134.208 142.675 131.712 143.836 131.361C145.48 130.862 146.642 131.85 146.52 133.046C146.38 134.421 144.42 133.857 144.391 133.878C144.627 134.419 144.998 134.89 145.47 135.246C145.991 135.294 146.517 135.275 147.034 135.19C147.026 135.3 147.013 135.409 146.994 135.518C146.985 136.649 146.256 136.937 146.519 137.32C146.764 137.675 148.899 137.553 149.454 137.619C150.407 137.732 151.279 138.049 152.218 138.204C153.279 138.275 154.332 138.443 155.362 138.706C155.954 138.928 156.726 139.517 157.263 139.678C158.009 139.9 158.047 140.157 158.609 140.14C159.121 140.124 159.324 139.672 159.974 139.494C160.42 139.373 160.963 139.513 161.406 139.376C161.718 139.28 161.89 138.937 162.182 138.75C162.531 138.526 163.049 138.476 163.396 138.186C163.573 138.039 163.551 137.636 163.588 137.548C164.002 136.81 164.498 136.121 165.066 135.495C165.135 135.435 165.393 135.284 165.388 135.109L165.386 135.033C165.479 134.966 165.554 134.878 165.605 134.776C165.656 134.673 165.681 134.56 165.678 134.446C165.672 134.318 165.64 134.192 165.584 134.077C165.528 133.962 165.448 133.859 165.351 133.776L165.349 133.7C165.345 133.549 165.226 133.44 165.185 133.352C164.67 132.261 163.589 130.552 162.009 130.196L162.007 130.121L161.981 130.121C161.979 130.046 161.904 130.036 161.875 130.024C161.652 129.803 161.47 129.544 161.338 129.26C161.654 129.444 161.961 129.645 162.256 129.861C162.231 129.026 162.219 128.608 162.194 127.773C161.993 127.93 161.326 128.44 161.313 128.429C161.472 128.101 161.68 127.797 161.929 127.529C161.064 127.555 160.632 127.569 159.767 127.596C160.021 127.857 160.246 128.145 160.438 128.456C160.121 128.272 159.814 128.071 159.518 127.855C159.544 128.69 159.557 129.107 159.583 129.942C159.784 129.785 160.45 129.275 160.463 129.286C160.303 129.615 160.096 129.918 159.847 130.186L159.925 130.208C158.317 130.61 157.31 132.571 156.816 133.577C156.771 133.668 156.644 133.784 156.648 133.935L156.651 134.01C156.581 134.098 156.536 134.203 156.521 134.314C156.506 134.426 156.522 134.539 156.568 134.642C156.626 134.856 156.738 135.051 156.894 135.21L156.896 135.285C156.903 135.511 157.171 135.598 157.241 135.652C157.324 135.715 157.407 136.049 157.515 136.222L157.54 136.196C157.467 136.429 157.338 136.641 157.165 136.813C156.991 136.985 156.778 137.112 156.544 137.183C155.135 137.211 153.733 136.966 152.416 136.462C151.733 136.321 151.107 135.983 150.612 135.492C150.431 135.182 150.339 134.828 150.347 134.47C150.38 134.462 151.052 135.016 151.084 134.998C151.122 134.822 151.15 134.645 151.169 134.467C151.255 134.458 152.706 135.12 152.706 135.12C152.715 135.088 152.257 133.223 152.257 133.223C152.333 133.208 155.166 132.599 155.166 132.599C155.096 132.541 153.929 132.612 153.766 132.217C153.512 131.603 154.215 130.007 153.499 128.855C152.951 127.973 150.884 127.317 150.87 127.285C150.859 127.26 151.039 126.732 151.031 126.726C150.853 126.585 148.011 125.903 148.011 125.903C148.02 125.892 149.046 126.016 149.046 126.016C149.068 125.939 147.791 122.095 148.61 121.129C148.677 121.05 148.826 120.929 148.861 120.944C149.058 121.029 150.202 121.828 150.314 121.822C150.365 121.82 150.513 121.639 150.665 121.508C150.665 121.508 150.793 123.685 150.954 124.541C151.136 125.512 152.454 125.832 152.622 125.816C152.894 125.79 154.25 125.157 154.058 124.056C153.866 122.956 153.548 121.23 153.548 121.23C153.565 121.225 154.627 124.417 154.919 125.109C155.352 126.134 156.915 126.234 157.043 126.197C157.407 125.993 157.693 125.675 157.858 125.292C158.022 124.909 158.057 124.483 157.955 124.078C157.848 123.808 155.854 119.919 155.854 119.919C155.862 119.914 158.122 123.596 158.635 124.384C159.178 125.219 160.748 125.048 160.871 124.968C161.16 124.647 161.344 124.245 161.4 123.816C161.456 123.387 161.38 122.952 161.183 122.567C160.281 121.232 158.027 118.438 158.027 118.438C158.045 118.426 161.752 122.542 161.989 122.743C162.367 122.936 162.783 123.042 163.207 123.056C163.631 123.069 164.053 122.989 164.443 122.821C164.621 122.447 164.685 122.029 164.627 121.619C164.569 121.209 164.391 120.824 164.116 120.515C163.345 119.831 161.152 118.264 161.152 118.264C162.215 119.094 163.364 119.81 164.578 120.4C165.003 120.524 165.451 120.543 165.885 120.456C166.319 120.369 166.725 120.178 167.07 119.9C167.226 119.508 164.056 116.84 164.056 116.84C164.056 116.839 168.74 116.854 168.832 116.45C168.916 116.081 166.68 114.546 166.68 114.546C166.682 114.531 170.064 113.268 170.051 112.864C170.039 112.486 166.848 111.469 166.848 111.469C166.847 111.452 170.435 109.855 170.576 108.44L170.576 108.441Z" fill="#FFC652"/>
<path fill-rule="evenodd" clip-rule="evenodd" d="M139.066 131.443C138.896 130.859 138.539 130.347 138.05 129.985C137.561 129.624 136.966 129.432 136.358 129.441C135.339 129.483 134.829 129.504 133.811 129.547C132.139 129.617 131.303 128.749 131.221 126.895C130.945 120.83 130.802 117.798 130.506 111.734C133.586 111.593 135.127 111.526 138.208 111.396C141.289 111.266 142.83 111.204 145.912 111.084C146.154 117.163 146.271 120.202 146.497 126.281C146.566 128.141 145.775 129.074 144.103 129.137C143.084 129.175 142.575 129.195 141.556 129.234C140.955 129.275 140.384 129.514 139.933 129.914C139.483 130.313 139.177 130.851 139.066 131.443V131.443Z" fill="#2435A1"/>
<path d="M84.4526 212.829C81.5412 212.964 80.0855 213.033 77.1742 213.174C76.7138 214.376 76.4835 214.977 76.0228 216.178C75.7887 216.697 75.6517 217.255 75.6185 217.823C75.6287 217.971 75.6739 218.114 75.7504 218.241C75.8269 218.368 75.9324 218.475 76.0584 218.553C76.6136 218.816 77.2274 218.932 77.8404 218.889C77.8486 219.092 77.8526 219.194 77.8609 219.398C75.4966 219.508 74.3146 219.565 71.9504 219.68C71.942 219.476 71.9378 219.375 71.9292 219.171C72.4729 219.099 72.9892 218.889 73.4292 218.562C74.08 217.741 74.573 216.807 74.8831 215.806C77.2684 209.543 78.4583 206.407 80.8356 200.131L81.3223 200.107C84.2277 206.185 85.667 209.231 88.5217 215.336C88.8658 216.221 89.3847 217.027 90.0476 217.707C90.5747 218.088 91.2141 218.282 91.8639 218.257L91.8827 218.768C88.9205 218.895 87.4393 218.96 84.4771 219.094L84.4575 218.584C84.9899 218.583 85.5109 218.43 85.9594 218.143C86.0777 218.049 86.1724 217.929 86.2357 217.792C86.299 217.655 86.3292 217.505 86.3239 217.354C86.228 216.692 86.0153 216.051 85.6957 215.463C85.1993 214.409 84.9506 213.882 84.4526 212.829ZM84.0227 211.828C82.6241 208.868 81.922 207.39 80.5114 204.436C79.3321 207.517 78.7421 209.057 77.561 212.136C80.1457 212.01 81.438 211.949 84.0227 211.828Z" fill="#FFC652"/>
<path d="M105.449 199.422C105.599 201.178 105.673 202.057 105.821 203.813L105.293 203.835C105.224 203.265 105.062 202.71 104.815 202.192C104.542 201.702 104.126 201.306 103.623 201.058C103.024 200.806 102.372 200.703 101.724 200.758C100.661 200.804 100.13 200.828 99.0673 200.874C99.2923 206.601 99.3992 209.465 99.6022 215.193C99.5397 215.935 99.6961 216.679 100.052 217.333C100.272 217.532 100.533 217.681 100.816 217.77C101.099 217.859 101.397 217.885 101.692 217.848L102.343 217.822L102.36 218.334C99.1763 218.461 97.5844 218.526 94.4008 218.661L94.3824 218.15L95.0472 218.122C95.3684 218.14 95.6889 218.077 95.9795 217.939C96.2701 217.801 96.5214 217.593 96.7104 217.333C96.9539 216.686 97.0338 215.989 96.943 215.304C96.7361 209.579 96.6271 206.717 96.3978 200.993C95.4908 201.034 95.0372 201.055 94.1303 201.096C93.4969 201.095 92.8669 201.189 92.2616 201.375C91.7596 201.594 91.3406 201.967 91.0654 202.44C90.7128 203.062 90.5306 203.767 90.5372 204.482C90.3258 204.492 90.2201 204.497 90.0088 204.507C90.0257 202.748 90.0338 201.869 90.0487 200.111C96.2086 199.82 99.2886 199.682 105.449 199.422Z" fill="#FFC652"/>
<path d="M122.855 198.735C122.996 200.497 123.066 201.379 123.205 203.142L122.677 203.161C122.611 202.588 122.452 202.031 122.207 201.51C121.937 201.017 121.523 200.618 121.021 200.366C120.423 200.109 119.772 200.002 119.123 200.054C118.061 200.094 117.529 200.115 116.467 200.156C116.663 205.902 116.756 208.775 116.934 214.522C116.868 215.266 117.021 216.013 117.374 216.672C117.593 216.872 117.853 217.023 118.135 217.113C118.418 217.204 118.717 217.233 119.011 217.197L119.662 217.174C119.668 217.38 119.671 217.483 119.677 217.688C116.494 217.799 114.902 217.856 111.718 217.974C111.711 217.769 111.708 217.666 111.702 217.461L112.367 217.437C112.688 217.456 113.009 217.395 113.3 217.258C113.591 217.121 113.843 216.913 114.033 216.654C114.279 216.006 114.362 215.307 114.274 214.619C114.093 208.875 113.998 206.003 113.797 200.26C112.89 200.295 112.436 200.313 111.529 200.35C110.896 200.345 110.265 200.436 109.659 200.619C109.156 200.836 108.735 201.208 108.458 201.681C108.102 202.304 107.916 203.01 107.92 203.728C107.708 203.736 107.602 203.74 107.391 203.749C107.417 201.985 107.429 201.103 107.453 199.338C113.613 199.082 116.694 198.961 122.855 198.735Z" fill="#FFC652"/>
<path d="M129.76 199.518C129.85 202.498 129.894 203.987 129.98 206.967C131.635 206.912 132.462 206.886 134.117 206.833C134.872 206.891 135.624 206.696 136.256 206.278C136.793 205.645 137.06 204.827 136.999 203.999L137.513 203.983C137.585 206.61 137.62 207.924 137.688 210.551C137.482 210.557 137.38 210.56 137.174 210.567C137.105 209.965 136.959 209.375 136.74 208.811C136.551 208.478 136.255 208.217 135.9 208.071C135.338 207.872 134.739 207.796 134.145 207.848C132.491 207.901 131.664 207.927 130.009 207.982C130.08 210.467 130.115 211.71 130.183 214.195C130.166 214.706 130.217 215.216 130.335 215.714C130.417 215.894 130.558 216.042 130.735 216.132C131.072 216.255 131.434 216.298 131.791 216.258C133.065 216.218 133.702 216.199 134.976 216.16C135.754 216.167 136.53 216.07 137.283 215.869C137.805 215.677 138.272 215.362 138.646 214.951C139.339 214.155 139.91 213.26 140.341 212.296L140.895 212.28C140.294 214.192 139.993 215.148 139.391 217.06C133.604 217.227 130.711 217.317 124.924 217.509L124.91 216.995C125.175 216.986 125.308 216.982 125.574 216.973C126.014 216.956 126.443 216.832 126.825 216.613C127.102 216.468 127.311 216.222 127.409 215.926C127.53 215.325 127.567 214.711 127.517 214.1C127.38 209.204 127.308 206.757 127.158 201.862C127.225 201.104 127.076 200.342 126.728 199.666C126.498 199.468 126.229 199.322 125.938 199.236C125.647 199.15 125.341 199.127 125.041 199.169C124.774 199.178 124.641 199.183 124.374 199.193C124.367 198.988 124.364 198.885 124.357 198.68C130.174 198.469 133.082 198.371 138.899 198.188C139.029 199.839 139.093 200.664 139.221 202.315C139.004 202.321 138.895 202.325 138.678 202.332C138.558 201.622 138.32 200.938 137.976 200.307C137.714 199.927 137.338 199.641 136.902 199.49C136.258 199.335 135.594 199.286 134.934 199.345C132.865 199.412 131.83 199.447 129.76 199.518Z" fill="#FFC652"/>
<path d="M158.331 197.207C158.561 199.776 158.675 201.06 158.901 203.628C158.729 203.632 158.642 203.635 158.47 203.639C158.059 202.045 157.169 200.616 155.92 199.543C154.805 198.715 153.436 198.302 152.05 198.375C150.849 198.393 149.678 198.757 148.679 199.423C147.603 200.194 146.795 201.282 146.369 202.535C145.785 204.21 145.534 205.984 145.629 207.755C145.63 209.277 145.944 210.782 146.553 212.177C147.076 213.359 147.959 214.345 149.077 214.996C150.223 215.645 151.529 215.96 152.845 215.904C153.972 215.899 155.079 215.6 156.055 215.037C157.27 214.188 158.296 213.097 159.069 211.833L159.504 212.102C158.765 213.611 157.655 214.91 156.28 215.876C154.948 216.714 153.406 217.158 151.832 217.157C150.437 217.256 149.038 217.007 147.763 216.432C146.488 215.857 145.375 214.975 144.526 213.864C143.196 212.128 142.472 210.005 142.464 207.818C142.4 206.008 142.789 204.209 143.596 202.587C144.35 201.037 145.525 199.731 146.986 198.816C148.431 197.909 150.096 197.411 151.803 197.378C153.208 197.349 154.6 197.657 155.863 198.275C156.121 198.426 156.407 198.523 156.704 198.56C156.826 198.559 156.946 198.533 157.057 198.485C157.168 198.436 157.269 198.366 157.352 198.278C157.611 197.978 157.782 197.611 157.844 197.219L158.331 197.207Z" fill="#FFC652"/>
<path d="M176.684 197.239C176.797 199.015 176.853 199.903 176.965 201.679L176.437 201.689C176.379 201.112 176.229 200.548 175.992 200.019C175.731 199.519 175.324 199.11 174.825 198.847C174.232 198.578 173.582 198.458 172.933 198.499C171.869 198.52 171.338 198.531 170.275 198.553C170.381 204.342 170.431 207.237 170.527 213.026C170.451 213.774 170.593 214.529 170.937 215.198C171.152 215.403 171.409 215.558 171.691 215.655C171.972 215.751 172.271 215.784 172.567 215.754L173.218 215.742L173.226 216.259C170.041 216.318 168.449 216.349 165.265 216.416L165.256 215.899C165.522 215.893 165.655 215.89 165.921 215.885C166.242 215.91 166.564 215.853 166.857 215.72C167.15 215.587 167.405 215.382 167.597 215.124C167.853 214.475 167.946 213.773 167.867 213.079C167.767 207.292 167.715 204.398 167.604 198.61C166.697 198.63 166.243 198.64 165.336 198.66C164.703 198.644 164.071 198.724 163.462 198.898C162.955 199.109 162.528 199.476 162.245 199.946C161.879 200.569 161.683 201.277 161.675 201.999L161.146 202.011C161.199 200.234 161.225 199.345 161.277 197.568C167.439 197.42 170.521 197.354 176.684 197.239Z" fill="#FFC652"/>
<path d="M189.379 209.648C186.467 209.689 185.011 209.71 182.098 209.757C181.604 210.963 181.358 211.565 180.864 212.771C180.616 213.292 180.464 213.853 180.415 214.428C180.421 214.578 180.462 214.725 180.535 214.856C180.608 214.987 180.711 215.099 180.835 215.183C181.381 215.468 181.991 215.605 182.606 215.582L182.613 216.099C180.248 216.136 179.066 216.156 176.701 216.197L176.693 215.679C177.239 215.623 177.761 215.426 178.208 215.108C178.882 214.292 179.4 213.359 179.736 212.356C182.292 206.071 183.573 202.928 186.143 196.642L186.63 196.635C189.344 202.905 190.692 206.044 193.374 212.325C193.693 213.232 194.189 214.066 194.833 214.778C195.347 215.18 195.981 215.397 196.633 215.394C196.635 215.602 196.636 215.705 196.638 215.913C193.675 215.945 192.194 215.964 189.231 216.004L189.225 215.486C189.757 215.502 190.282 215.363 190.737 215.088C190.859 214.995 190.957 214.876 191.024 214.739C191.09 214.602 191.125 214.451 191.123 214.299C191.045 213.625 190.851 212.969 190.548 212.361C190.081 211.276 189.847 210.733 189.379 209.648ZM188.978 208.619C187.666 205.57 187.007 204.046 185.687 201C184.416 204.086 183.782 205.63 182.514 208.716C185.1 208.675 186.393 208.655 188.978 208.619Z" fill="#FFC652"/>
<path d="M210.758 196.796C210.853 198.576 210.9 199.467 210.994 201.248C210.783 201.249 210.677 201.25 210.466 201.251C210.414 200.673 210.27 200.106 210.038 199.573C209.782 199.07 209.379 198.655 208.882 198.385C208.293 198.109 207.644 197.982 206.994 198.015C205.931 198.024 205.399 198.029 204.336 198.039C204.384 203.841 204.406 206.742 204.449 212.545C204.366 213.294 204.502 214.051 204.84 214.725C205.053 214.933 205.308 215.092 205.588 215.191C205.869 215.29 206.167 215.327 206.464 215.3L207.115 215.295L207.118 215.813C203.934 215.838 202.341 215.852 199.157 215.885L199.153 215.367C199.419 215.364 199.552 215.363 199.818 215.36C200.138 215.389 200.461 215.335 200.755 215.205C201.05 215.075 201.306 214.872 201.501 214.615C201.762 213.967 201.861 213.265 201.789 212.569C201.742 206.767 201.717 203.866 201.665 198.065C200.758 198.074 200.304 198.079 199.396 198.089C198.764 198.065 198.131 198.138 197.521 198.306C197.011 198.511 196.581 198.874 196.293 199.342C195.921 199.963 195.717 200.67 195.703 201.394L195.174 201.4C195.244 199.619 195.279 198.728 195.349 196.947C201.513 196.87 204.594 196.84 210.758 196.796Z" fill="#FFC652"/>
</svg>
