<svg width="130" height="199" viewBox="0 0 130 199" fill="none" xmlns="http://www.w3.org/2000/svg">
<path d="M67.2132 199C101.889 199 130 193.556 130 186.84C130 180.125 101.889 174.68 67.2132 174.68C32.5369 174.68 4.42627 180.125 4.42627 186.84C4.42627 193.556 32.5369 199 67.2132 199Z" fill="#DEE1F3"/>
<path d="M108.117 152.673C96.512 150.955 84.7319 150.769 73.0792 152.122C54.169 154.394 74.831 177.753 74.831 177.753L108.117 152.673Z" fill="#12296B"/>
<path d="M64.3597 104.724C59.6775 104.745 55.0582 105.805 50.8353 107.827C44.2083 111.139 27.8809 126.422 26.099 140.333C24.3171 154.244 47.5518 156.526 47.5518 156.526L51.8564 152.222C51.8564 152.222 39.3631 148.489 40.1239 138.742C40.8847 128.994 59.004 121.097 59.004 121.097L64.3597 104.724Z" fill="#FF6551"/>
<path d="M68.0739 101.752C61.8252 102.205 55.9449 104.878 51.4962 109.288C44.3486 116.594 44.6089 142.585 45.8802 156.876C45.8802 156.876 60.8962 170.887 85.3423 164.012C85.3423 164.012 89.757 128.123 91.7992 122.228C93.8413 116.334 91.679 109.358 91.679 109.358C91.679 109.358 88.2254 99.4099 68.0739 101.752Z" fill="#FFC652"/>
<path d="M86.2935 104.014C83.6306 106.786 82.8598 109.858 81.8387 113.391C80.5559 117.155 80.0087 121.13 80.227 125.101C80.6475 131.636 80.1169 137.901 74.4008 142.114C69.3054 145.857 59.9254 142.615 55.801 138.631C53.3784 136.3 52.037 133.087 50.9057 129.924C49.7673 126.838 49.0926 123.601 48.9036 120.317C48.7735 117.835 48.9937 112.591 50.5053 110.509C44.3287 119.066 44.619 143.315 45.8303 156.946C45.8303 156.946 60.8463 170.957 85.2924 164.082C85.2924 164.082 89.7071 128.193 91.7493 122.298C93.7915 116.404 91.6292 109.428 91.6292 109.428C91.6292 109.428 90.6181 106.335 86.2935 104.014Z" fill="#F7A845"/>
<path d="M32.876 154.594C32.876 154.594 24.9576 164.432 30.3133 171.608C35.669 178.784 53.2377 185.369 62.1873 183.738C71.1368 182.106 87.214 165.093 87.214 165.093L85.9426 153.353L32.876 154.594Z" fill="#12296B"/>
<path d="M43.4775 76.0612C42.987 76.5816 42.4765 77.062 41.9359 77.6124C40.4043 79.0536 38.6624 80.2445 36.6202 80.2645C35.0747 80.2421 33.5594 79.8328 32.2129 79.074C30.8664 78.3153 29.7315 77.2313 28.912 75.9211C28.2278 74.5254 27.9901 72.9529 28.2313 71.4174C28.3303 70.6977 28.4911 69.9879 28.7118 69.2957C29.0118 68.2858 29.4824 67.3347 30.1033 66.4835C32.8162 62.8906 37.1107 63.7913 40.8047 64.9122L43.4775 76.0612Z" fill="#FFBF94"/>
<g style="mix-blend-mode:multiply" opacity="0.31">
<path d="M37.391 72.3682C35.3088 71.3673 34.3277 69.2556 33.8973 67.0739C33.8866 67.0247 33.8594 66.9807 33.8203 66.9492C33.7811 66.9176 33.7323 66.9004 33.682 66.9004C33.6317 66.9004 33.583 66.9176 33.5438 66.9492C33.5046 66.9807 33.4775 67.0247 33.4668 67.0739C33.0063 69.4558 34.4679 71.6676 36.3799 72.9486C35.8268 73.5381 35.3213 74.1706 34.8683 74.8401C34.2962 75.5288 33.9194 76.3583 33.7771 77.2421C33.7583 77.3733 33.7827 77.5071 33.8467 77.6232C33.9107 77.7393 34.0107 77.8315 34.1317 77.8857C34.2527 77.94 34.388 77.9534 34.5173 77.9239C34.6466 77.8945 34.7628 77.8238 34.8483 77.7225C35.3123 77.0417 35.689 76.3053 35.9695 75.5307C36.4084 74.6799 36.946 73.8838 37.5712 73.1588C37.6195 73.0978 37.6534 73.0267 37.6706 72.9508C37.6878 72.875 37.6877 72.7962 37.6704 72.7203C37.6532 72.6445 37.6191 72.5735 37.5707 72.5125C37.5224 72.4516 37.4609 72.4022 37.391 72.3682Z" fill="#DD664A"/>
</g>
<g style="mix-blend-mode:multiply" opacity="0.12">
<path d="M41.9359 77.6224C40.4043 79.0636 38.6624 80.2545 36.6202 80.2745C35.0747 80.2521 33.5594 79.8428 32.2129 79.084C30.8664 78.3253 29.7315 77.2413 28.912 75.9311C28.2278 74.5354 27.9901 72.9629 28.2313 71.4274C28.3303 70.7077 28.4911 69.9979 28.7118 69.3057C29.0321 70.9971 31.0343 77.6725 41.9359 77.6224Z" fill="#DD664A"/>
</g>
<path d="M78.9252 102.182C79.4257 105.535 76.4626 107.657 73.4394 108.457C70.9244 109.072 68.2713 108.744 65.9814 107.536C63.6289 106.245 61.3665 103.173 64.4698 101.281C65.5818 100.693 66.8156 100.37 68.0736 100.341C71.1393 100.09 74.2237 100.201 77.2634 100.671C77.7484 100.687 78.2109 100.88 78.5648 101.211C78.7681 101.498 78.8923 101.833 78.9252 102.182Z" fill="#FF6551"/>
<path d="M77.8445 93.8454V100.641C77.8445 100.641 77.4341 104.844 72.3387 106.075C67.2432 107.306 64.9508 103.783 64.9508 103.783L64.8006 102.983L64.0699 100.08L63.0688 96.4575C59.9855 82.7065 74.6612 94.9563 74.6612 94.9563L75.6622 94.4559L75.8925 95.1465L77.8445 93.8454Z" fill="#EA9573"/>
<g style="mix-blend-mode:multiply" opacity="0.31">
<path d="M77.8345 97.2882V100.381C76.3442 101.95 74.4437 103.07 72.3486 103.613C69.8155 104.021 67.2212 103.804 64.7906 102.983L64.0698 100.08L74.6811 94.9564L75.9525 95.1465L77.8345 97.2882Z" fill="#DD664A"/>
</g>
<path d="M99.2972 75.5307L99.2272 75.9511C98.8549 78.2365 98.1073 80.4446 97.0148 82.4863C95.4732 85.1585 93.0706 87.2301 90.7181 89.2418C86.6977 92.8619 82.4074 96.1708 77.8844 99.1397C75.4618 100.641 72.799 101.982 69.9459 102.072C67.6244 102.019 65.337 101.502 63.2188 100.551C56.6946 98.0097 50.5215 94.6466 44.8492 90.5428C42.9275 89.3062 41.2704 87.7006 39.974 85.819C38.8505 83.7233 38.1466 81.4287 37.9018 79.0636C37.8017 78.4631 37.7116 77.8726 37.6215 77.2821C35.8538 65.7525 35.2902 54.0703 35.9397 42.4241L36.0698 41.4233C35.0387 36.2692 39.1932 31.4953 43.5678 28.5229C48.581 25.1527 54.2126 22.809 60.137 21.6271C66.0615 20.4453 72.1615 20.4488 78.0846 21.6374C83.2501 22.6983 88.3456 24.7599 92.1797 28.3828C96.4742 32.4461 98.8568 38.1907 99.8879 43.9954C100.919 49.8 100.689 55.7648 100.458 61.6696C100.398 66.3115 100.01 70.9434 99.2972 75.5307Z" fill="#FFBF94"/>
<g style="mix-blend-mode:multiply" opacity="0.09">
<path d="M99.2268 75.9511C98.8545 78.2365 98.1069 80.4446 97.0144 82.4864C95.4728 85.1585 93.0702 87.2302 90.7177 89.2418C86.6973 92.862 82.407 96.1708 77.884 99.1397C75.4614 100.641 72.7986 101.982 69.9456 102.072C67.624 102.019 65.3366 101.502 63.2184 100.551C56.6942 98.0098 50.5212 94.6466 44.8488 90.5428C42.9271 89.3063 41.27 87.7006 39.9736 85.819C38.8501 83.7233 38.1462 81.4287 37.9014 79.0636C37.8013 78.4631 37.7112 77.8726 37.6211 77.2822C37.9314 77.4623 39.0526 76.9819 39.4631 77.6325C44.2381 85.2185 58.6535 95.2866 70.2459 95.5368C81.8382 95.787 97.6851 75.5208 97.6851 75.5208L99.2268 75.9511Z" fill="#DD664A"/>
</g>
<g style="mix-blend-mode:multiply" opacity="0.31">
<path d="M38.4122 60.0483L38.6524 62.9406C38.6524 62.9406 45.1093 52.5823 44.0482 44.3257C44.0482 44.3257 50.2148 50.1704 61.697 51.0411C73.1793 51.9118 79.0855 47.5382 79.0855 47.5382C79.0855 47.5382 75.5117 45.3565 74.2604 43.0346C74.2604 43.0346 84.3412 45.6267 89.7169 41.3232C89.7169 41.3232 88.7158 47.4582 94.1416 53.9834C99.5674 60.5087 100.218 63.0507 100.218 63.0507L99.7476 43.0346L89.9571 27.8124L71.2172 28.8132L45.8501 34.9381L39.6635 35.2383C39.6635 35.2383 37.5212 41.5134 37.4812 42.7944C37.4411 44.0755 38.4122 60.0483 38.4122 60.0483Z" fill="#DD664A"/>
</g>
<path d="M36.5 67.3942C35.5256 65.1657 34.5779 62.9239 33.6569 60.6688L33.3566 59.9282C30.864 53.6732 28.7317 47.0378 29.5325 40.3825C29.9147 37.3058 31.0342 34.3669 32.796 31.8156C33.3343 31.0241 33.9442 30.2838 34.618 29.6038C36.622 27.4502 39.2968 26.0391 42.2061 25.6006L42.2661 25.8808C40.4642 30.2844 40.5343 35.0182 40.8646 39.812C41.2685 43.6146 41.449 47.4375 41.4052 51.2612C41.1427 56.9639 39.4563 62.5101 36.5 67.3942Z" fill="#661E08"/>
<path d="M105.494 75.7609C102.946 76.5779 100.199 76.5251 97.6852 75.6108C97.0619 75.3935 96.4533 75.1361 95.8633 74.8402L98.406 65.5928C99.7875 62.5903 103.191 60.3786 106.415 61.0691C108.025 61.454 109.425 62.4475 110.319 63.8413C111.25 65.2277 111.678 66.8916 111.53 68.5551C111.285 70.1954 110.592 71.7362 109.526 73.0076C108.461 74.2791 107.066 75.2318 105.494 75.7609Z" fill="#FFBF94"/>
<path d="M104.693 55.5747C103.665 58.6922 102.217 61.6552 100.388 64.3817C100.068 60.1684 97.475 56.5454 95.6331 52.7424C95.0727 51.6088 94.5813 50.4424 94.1615 49.2496C92.7099 45.1602 92.031 40.8367 92.1594 36.4993L99.9877 29.2935L100.658 28.683L101.149 28.8732C103.702 29.9941 104.993 33.0065 105.644 35.7687C107.145 42.3334 106.816 49.1839 104.693 55.5747Z" fill="#661E08"/>
<g style="mix-blend-mode:multiply" opacity="0.32">
<path d="M104.693 55.5747C105.323 49.0094 105.694 38.561 100.879 40.2324C96.0635 41.9037 94.662 46.5174 94.1615 49.2396C92.7099 45.1502 92.031 40.8267 92.1594 36.4894L99.9877 29.2836L101.149 28.8632C103.702 29.9841 104.993 32.9965 105.644 35.7588C107.147 42.3266 106.818 49.1809 104.693 55.5747Z" fill="#661E08"/>
</g>
<g style="mix-blend-mode:multiply" opacity="0.31">
<path d="M103.111 68.8053C105.113 67.5843 106.835 65.3625 106.525 62.9606C106.525 62.8305 106.305 62.7805 106.255 62.9606C105.374 65.2124 104.403 67.214 102.09 68.2949C102.012 68.3282 101.943 68.3809 101.891 68.4481C101.838 68.5153 101.804 68.5948 101.791 68.679C101.778 68.7632 101.787 68.8493 101.816 68.9292C101.846 69.0091 101.895 69.0801 101.96 69.1356C102.644 69.7162 103.177 70.4547 103.512 71.2873C103.659 71.9777 103.93 72.6356 104.313 73.2289C104.335 73.2561 104.363 73.2781 104.395 73.2931C104.427 73.3082 104.462 73.316 104.498 73.316C104.533 73.316 104.568 73.3082 104.6 73.2931C104.632 73.2781 104.66 73.2561 104.683 73.2289C105.564 71.8177 104.232 69.9162 103.111 68.8053Z" fill="#DD664A"/>
</g>
<path d="M104.553 32.2359C100.889 35.0982 96.7043 37.5102 92.0994 38.1407C87.4945 38.7712 82.4091 37.31 79.566 33.637C80.1851 36.7941 82.0275 39.5786 84.6915 41.3833C81.8764 42.4023 78.8169 42.5362 75.9235 41.767C73.03 40.9978 70.4412 39.3622 68.5042 37.0798C68.8693 39.1811 69.6845 41.1786 70.894 42.9354C72.1036 44.6922 73.6788 46.1668 75.5117 47.258C71.6824 48.7093 67.5803 49.2994 63.4971 48.9863C59.4138 48.6732 55.4497 47.4646 51.8865 45.4465C48.0024 43.2047 44.2784 39.8921 39.7936 40.0122L37.9517 36.6495L34.498 30.3644C34.3972 29.1121 34.3972 27.8537 34.498 26.6014C35.7994 12.2799 50.415 6.86552 60.4156 6.58529C78.7952 6.10491 84.5213 10.7787 90.4476 9.38755C92.2426 8.98366 93.998 8.42099 95.6932 7.7062C99.7088 6.08772 103.22 3.42752 105.864 0C106.245 4.5677 105.21 9.14185 102.899 13.1008C100.589 17.0598 97.1152 20.2116 92.9503 22.1278C97.6145 23.2997 102.533 22.9239 106.965 21.0569C109.902 19.8585 112.54 18.0308 114.693 15.7026C114.563 22.388 109.828 28.1326 104.553 32.2359Z" fill="#661E08"/>
<path d="M36.5003 67.3942C35.526 65.1657 34.5783 62.9239 33.6573 60.6688L33.357 59.9282C41.9061 52.6323 32.7964 31.8156 32.7964 31.8156C33.3347 31.0241 33.9446 30.2838 34.6183 29.6038C37.2666 32.6412 39.3789 36.1067 40.865 39.8521C41.2688 43.6546 41.4493 47.4776 41.4056 51.3013C41.1364 56.9902 39.4503 62.5219 36.5003 67.3942Z" fill="#551107"/>
<path d="M104.553 32.2359C100.889 35.0982 96.7045 37.5102 92.0996 38.1407C87.4947 38.7712 82.4093 37.31 79.5662 33.6371C80.1853 36.7942 82.0277 39.5786 84.6917 41.3833C81.8766 42.4024 78.8171 42.5363 75.9237 41.767C73.0302 40.9978 70.4414 39.3622 68.5044 37.0798C68.8695 39.1811 69.6847 41.1786 70.8942 42.9355C72.1038 44.6923 73.679 46.1668 75.5119 47.258C71.6826 48.7093 67.5805 49.2994 63.4973 48.9863C59.414 48.6732 55.4499 47.4647 51.8867 45.4466C48.3229 43.4449 44.8793 40.4425 40.875 40.0522C40.875 39.9822 40.875 39.9221 40.875 39.8521C40.1642 38.0649 39.3105 36.3379 38.3223 34.6879C44.6129 36.6054 50.6936 39.1538 56.4716 42.294C64.7504 47.0178 66.7025 39.9021 60.7662 32.6463C54.8299 25.3904 69.2452 34.1775 73.7801 34.748C78.3149 35.3184 75.9123 27.5021 72.779 25.0602C69.6457 22.6182 86.6538 36.1691 97.9258 30.3945C101.973 28.4922 105.18 25.1689 106.935 21.0569C109.872 19.8585 112.51 18.0308 114.664 15.7026C114.564 22.388 109.829 28.1326 104.553 32.2359Z" fill="#551107"/>
<g style="mix-blend-mode:screen" opacity="0.28">
<path d="M95.6933 7.70618C95.6232 7.89633 95.5532 8.08648 95.4731 8.26663C94.4361 10.6981 92.7978 12.8261 90.7122 14.4507C88.6266 16.0753 86.1622 17.1432 83.5504 17.5541C79.446 18.1646 75.2515 17.0937 71.1471 17.5541C70.1433 17.6018 69.177 17.9506 68.3742 18.5549C67.233 19.5557 67.0428 21.4072 65.8615 22.398C65.2601 22.805 64.5646 23.0518 63.8411 23.1148C63.1175 23.1779 62.3899 23.0552 61.7271 22.7583C60.3556 22.2679 59.1343 21.4472 57.7228 20.9969C57.0499 20.7194 56.3141 20.6305 55.5944 20.7399C54.8748 20.8492 54.1985 21.1526 53.6385 21.6174C52.0167 23.2687 53.1079 26.141 52.247 28.2927C51.5062 30.1442 49.434 31.125 47.4519 31.4353C42.6868 32.2159 37.8716 30.0441 34.438 26.5213C35.7394 12.1998 50.355 6.78544 60.3556 6.50521C78.7352 6.02482 84.4613 10.6986 90.3876 9.30746C92.2004 8.93297 93.9761 8.39707 95.6933 7.70618Z" fill="#661E08"/>
</g>
<g style="mix-blend-mode:multiply" opacity="0.12">
<path d="M105.493 75.7609C102.946 76.5779 100.199 76.5251 97.6851 75.6108C109.067 74.61 110.339 63.8413 110.339 63.8413C111.27 65.2277 111.698 66.8915 111.55 68.5551C111.303 70.1977 110.607 71.7401 109.538 73.0118C108.469 74.2834 107.069 75.2349 105.493 75.7609Z" fill="#DD664A"/>
</g>
<path d="M49.4438 54.3837C49.3641 54.2108 49.2397 54.0623 49.0834 53.9534C48.8891 53.8502 48.6728 53.7953 48.4528 53.7933C47.0813 53.7332 45.6698 54.654 44.5186 55.3045C43.0647 56.065 41.8176 57.1675 40.8847 58.5171C40.3541 59.3677 39.6934 60.909 40.9648 61.4594C42.3963 62.0499 44.0481 60.7889 45.1492 60.0483C46.6608 58.9474 50.0445 57.0459 49.5639 54.7941C49.5368 54.6538 49.4966 54.5165 49.4438 54.3837Z" fill="#661E08"/>
<path d="M88.3156 56.3953C87.6248 54.8641 85.3824 53.9934 83.8908 53.6031C81.6294 52.9005 79.1855 53.0829 77.0536 54.1135C76.7624 54.2444 76.5179 54.4608 76.3528 54.734C76.2707 54.9399 76.2487 55.1649 76.2895 55.3828C76.3302 55.6007 76.432 55.8026 76.5831 55.965C76.8918 56.2819 77.2635 56.5308 77.6742 56.6956C79.0097 57.284 80.3845 57.779 81.7886 58.1767C83.0778 58.6335 84.4268 58.8999 85.7929 58.9674C87.2144 58.9774 89.0964 58.0466 88.3156 56.3953Z" fill="#661E08"/>
<path d="M73.5997 88.2209C72.9989 89.2585 72.1689 90.145 71.173 90.8128C70.1771 91.4806 69.0417 91.912 67.8536 92.074C66.6168 92.2942 65.3466 92.237 64.1347 91.9064C62.9228 91.5758 61.7995 90.9802 60.8461 90.1625C59.4089 88.9156 58.2348 87.3947 57.3924 85.6889C57.1053 85.1663 56.8544 84.6246 56.6416 84.0676C56.9019 84.0676 68.264 85.849 75.3015 80.905C75.3348 81.7812 75.2912 82.6586 75.1714 83.5271C74.9612 85.1798 74.4271 86.7748 73.5997 88.2209Z" fill="#AA2626"/>
<path d="M75.1714 83.4871C72.81 85.3483 69.9791 86.5191 66.9926 86.8698C63.7378 87.2066 60.449 86.8029 57.3724 85.6889C57.0921 85.1657 56.8479 84.624 56.6416 84.0676C56.9019 84.0676 68.264 85.849 75.3015 80.905C75.3325 81.7679 75.2889 82.6318 75.1714 83.4871Z" fill="white"/>
<path d="M73.5998 88.2209C72.999 89.2585 72.169 90.145 71.1731 90.8128C70.1772 91.4806 69.0418 91.912 67.8537 92.074C66.6169 92.2942 65.3467 92.237 64.1348 91.9064C62.9229 91.5758 61.7996 90.9802 60.8462 90.1625C61.7772 89.6342 62.8076 89.3046 63.8724 89.1944C64.9372 89.0841 66.0133 89.1957 67.0328 89.522C67.0328 89.522 67.9538 87.5904 73.5998 88.2209Z" fill="#FF6551"/>
<path d="M63.6792 94.4259C64.3174 95.0351 65.0916 95.4836 65.9376 95.7342C66.7837 95.9848 67.6773 96.0304 68.5444 95.8671C69.4654 95.6769 71.6377 94.7162 71.3774 93.4952C71.3724 93.4598 71.3541 93.4277 71.3262 93.4053C71.2983 93.383 71.2629 93.3722 71.2273 93.3751C70.7568 93.4852 70.6366 93.7854 70.2262 94.1057C69.6491 94.5795 68.9595 94.8966 68.2241 95.0264C66.7019 95.2413 65.1541 94.8848 63.8794 94.0256C63.6192 93.8555 63.3889 94.2758 63.5991 94.466L63.6792 94.4259Z" fill="#DD664A"/>
<g style="mix-blend-mode:multiply" opacity="0.12">
<path d="M69.5449 73.379C69.254 72.9173 68.8693 72.522 68.4157 72.2185C67.9622 71.9151 67.4499 71.7103 66.9121 71.6176C65.8347 71.4337 64.7289 71.5127 63.6886 71.8477C62.2571 72.2681 60.8556 73.0087 60.4151 74.5399C60.303 74.8641 60.303 75.2165 60.4151 75.5407C60.4847 75.762 60.637 75.948 60.8402 76.0598C61.0435 76.1717 61.2821 76.2008 61.5063 76.1412C61.7247 76.0383 61.9244 75.8996 62.0969 75.7309C63.1132 75.0269 64.3542 74.7239 65.5807 74.8802C66.7975 75.0379 68.032 74.9939 69.2346 74.7501C69.3423 74.7219 69.4441 74.6744 69.5349 74.61C69.8752 74.3097 69.7651 73.7593 69.5449 73.379Z" fill="#DD664A"/>
</g>
<path d="M69.2752 76.3714C68.7246 75.1004 66.0918 75.5107 65.0006 75.7008C64.233 75.7604 63.4865 75.98 62.8089 76.3454C62.1313 76.7108 61.5378 77.214 61.0664 77.8226C61.0664 77.8226 61.0664 77.9527 61.1565 77.9426C62.568 77.7025 63.8494 77.0319 65.3009 76.8718C66.0981 76.7899 66.9025 76.8135 67.6935 76.9418C68.2841 77.0519 68.6145 77.2321 69.115 76.8317C69.19 76.7846 69.2467 76.7133 69.2758 76.6296C69.3049 76.546 69.3047 76.4549 69.2752 76.3714Z" fill="#DD664A"/>
<path d="M51.0808 77.6192C54.5675 76.8458 56.767 73.3929 55.9933 69.9071C55.2197 66.4212 51.766 64.2224 48.2792 64.9958C44.7924 65.7692 42.593 69.2221 43.3666 72.7079C44.1403 76.1938 47.594 78.3927 51.0808 77.6192Z" fill="white"/>
<path d="M50.1958 77.4845C52.8675 76.8918 54.5529 74.2461 53.9601 71.575C53.3673 68.904 50.7208 67.2191 48.0491 67.8117C45.3773 68.4044 43.692 71.0501 44.2848 73.7212C44.8776 76.3922 47.524 78.0771 50.1958 77.4845Z" fill="#191818"/>
<path d="M47.5018 72.9687C48.2482 72.9687 48.8533 72.3637 48.8533 71.6176C48.8533 70.8714 48.2482 70.2665 47.5018 70.2665C46.7555 70.2665 46.1504 70.8714 46.1504 71.6176C46.1504 72.3637 46.7555 72.9687 47.5018 72.9687Z" fill="white"/>
<path d="M81.7775 74.2529C85.2697 73.4782 87.4725 70.02 86.6977 66.5288C85.9228 63.0375 82.4637 60.8353 78.9716 61.6099C75.4794 62.3845 73.2766 65.8427 74.0514 69.334C74.8262 72.8252 78.2853 75.0275 81.7775 74.2529Z" fill="white"/>
<path d="M84.5553 69.0907C84.5933 66.2941 82.3566 63.9962 79.5593 63.9581C76.762 63.9201 74.4635 66.1563 74.4254 68.9528C74.3873 71.7494 76.6241 74.0473 79.4214 74.0854C82.2187 74.1234 84.5172 71.8872 84.5553 69.0907Z" fill="#191818"/>
<path d="M82.0887 67.4242C82.1513 67.7064 82.1286 68.0008 82.0238 68.2702C81.9189 68.5395 81.7365 68.7717 81.4996 68.9374C81.2627 69.1031 80.9819 69.1949 80.6929 69.201C80.4038 69.2072 80.1194 69.1275 79.8757 68.972C79.632 68.8166 79.4398 68.5923 79.3236 68.3277C79.2073 68.063 79.1722 67.7699 79.2226 67.4853C79.273 67.2007 79.4068 66.9374 79.6069 66.7288C79.807 66.5202 80.0645 66.3756 80.3469 66.3133C80.7252 66.2299 81.1212 66.3 81.4478 66.5083C81.7744 66.7166 82.005 67.046 82.0887 67.4242Z" fill="white"/>
<path d="M62.1679 178.914C62.1679 178.914 50.2752 182.917 45.5402 183.698C40.8051 184.478 34.0379 187.771 37.2814 191.154C40.5248 194.536 44.459 195.737 50.3853 194.046C56.3117 192.355 66.7828 183.658 66.7828 183.658L62.1679 178.914Z" fill="#FF6551"/>
<path d="M62.1672 178.914C62.1672 178.914 55.9405 181.026 50.705 182.477C50.2645 182.597 49.5537 185.539 49.3735 186.02C49.0997 186.981 48.6101 187.868 47.942 188.612C47.1494 189.434 46.1784 190.063 45.1039 190.45C44.0294 190.837 42.8803 190.971 41.7454 190.843C40.7291 190.668 39.7881 190.195 39.0425 189.482C38.7622 189.192 37.3707 187.271 37.8512 186.86C36.3697 188.121 35.7991 189.612 37.2506 191.114C40.4841 194.466 44.4283 195.697 50.3546 194.006C56.2809 192.315 66.7521 183.618 66.7521 183.618L62.1672 178.914Z" fill="#E1574C"/>
<path d="M58.3433 178.854C58.3433 178.854 85.262 159.268 99.8675 154.024C114.473 148.78 117.576 159.268 113.742 166.934C109.908 174.6 95.3127 179.634 90.0971 180.825C84.8816 182.016 67.3629 187.301 67.3629 187.301C67.3629 187.301 60.8359 186.75 58.3433 178.854Z" fill="#243976"/>
<path d="M113.002 154.814C117.126 177.743 79.6961 174.941 60.5757 183.217C62.2048 185.403 64.6214 186.867 67.3129 187.301C67.3129 187.301 84.7815 182.026 90.0471 180.825C95.3127 179.624 109.918 174.61 113.742 166.934C115.845 162.721 115.855 157.657 113.002 154.814Z" fill="#12296B"/>
<path d="M60.3755 178.914C61.0963 179.394 69.9457 180.595 78.0844 182.987C86.2231 185.379 87.4144 187.991 85.7426 190.643C84.8162 192.216 83.4834 193.511 81.8841 194.391C80.2847 195.272 78.4778 195.706 76.6529 195.647C72.3383 195.407 60.4956 189.422 57.3223 185.839L60.3755 178.914Z" fill="#FF6551"/>
<path d="M80.8173 183.888C82.3389 186.75 82.7093 189.763 79.0955 190.974C70.9668 193.405 64.1596 188.592 58.1331 183.968L57.3223 185.819C60.4956 189.402 72.3383 195.387 76.6529 195.627C78.4778 195.686 80.2847 195.252 81.8841 194.371C83.4834 193.491 84.8162 192.196 85.7426 190.623C87.2041 188.341 86.4734 186.03 80.8173 183.888Z" fill="#E1574C"/>
<path d="M19.9324 152.603C19.9324 152.603 12.5145 154.504 11.073 158.467C9.63143 162.431 12.074 167.935 18.9714 173.67C25.8687 179.404 53.0077 188.301 59.1743 189.472C60.9389 188.12 62.2973 186.309 63.1007 184.237C63.9041 182.164 64.1215 179.911 63.7291 177.723C63.7291 177.723 47.2115 167.194 39.5533 161.71C31.8952 156.226 25.3182 151.902 19.9324 152.603Z" fill="#243976"/>
<path d="M33.0361 169.957C38.9124 169.116 44.0479 168.295 49.7239 168.636C45.9699 166.144 42.2159 163.632 39.5431 161.69C31.8849 156.186 25.3079 151.902 19.9222 152.603C19.9222 152.603 12.5043 154.504 11.0627 158.467C9.62118 162.431 12.0638 167.935 18.9611 173.67C25.8585 179.404 52.9974 188.301 59.164 189.472C60.5919 188.376 61.7551 186.974 62.5678 185.368C63.3805 183.762 63.8217 181.994 63.859 180.195C53.2978 183.297 36.66 179.885 33.0361 169.957Z" fill="#12296B"/>
<path d="M87.0042 153.353H26.9402L16.4189 163.241L73.8302 165.683L87.0042 153.353Z" fill="#49A4F7"/>
<path d="M64.7202 151.242C63.9781 151.646 63.3028 152.163 62.718 152.773C62.5987 152.878 62.5236 153.025 62.5078 153.183C62.5078 153.583 63.0784 153.674 63.5089 153.613L66.6622 153.123C65.932 153.238 65.2343 153.506 64.6149 153.91C63.9956 154.314 63.4685 154.843 63.0684 155.465C63.8374 155.696 64.65 155.744 65.4409 155.605C64.973 155.976 64.4777 156.31 63.9594 156.606C68.334 159.548 77.1835 156.306 81.0376 153.603C82.0792 152.99 82.8807 152.041 83.31 150.911C84.7716 145.747 74.0101 147.909 71.7977 148.529C69.3459 149.17 66.9723 150.08 64.7202 151.242Z" fill="#FFBF94"/>
<path d="M82.2292 106.996C82.2292 106.996 78.6553 110.999 82.2292 119.526C85.803 128.053 88.7361 129.614 88.7361 135.539C88.7361 141.464 77.8345 146.818 77.8345 146.818C77.8345 146.818 82.1291 151.152 79.6364 154.544C79.6364 154.544 94.6524 152.843 99.5777 142.415C106.755 127.402 91.9295 107.326 91.9295 107.326C91.9295 107.326 87.0943 101.221 82.2292 106.996Z" fill="#FF6551"/>
<path d="M82.2287 106.996C82.0309 107.246 81.8567 107.514 81.7082 107.797C83.7103 107.416 86.7135 107.727 89.7167 111.259C94.9623 117.444 99.8275 131.215 95.8933 138.992C92.6999 145.307 83.5301 149.45 80.2166 150.771C80.4364 151.406 80.5011 152.084 80.4053 152.75C80.3095 153.415 80.0561 154.047 79.666 154.594C79.666 154.594 94.682 152.893 99.6073 142.465C106.785 127.452 91.9591 107.376 91.9591 107.376C91.9591 107.376 87.0939 101.221 82.2287 106.996Z" fill="#E1574C"/>
<path d="M0.00124337 124.41L13.0852 167.244C13.3387 168.27 13.9295 169.181 14.7627 169.83C15.596 170.48 16.6234 170.831 17.6801 170.827L71.8679 170.427L87.2443 159.949L86.974 153.353L73.1793 163.241L64.6402 120.907C64.4202 119.829 63.8289 118.862 62.9692 118.174C62.1095 117.486 61.0359 117.122 59.9352 117.144L5.87751 118.335C2.83426 118.405 -0.0688313 122.298 0.00124337 124.41Z" fill="#3E8CE1"/>
<path d="M0.141301 126.001L9.55133 168.035C9.79797 169.062 10.3855 169.976 11.2182 170.627C12.0508 171.277 13.0794 171.627 14.1362 171.618L68.9647 171.248C69.3465 171.244 69.7228 171.156 70.0663 170.989C70.4097 170.822 70.7117 170.581 70.9504 170.283C71.189 169.985 71.3584 169.638 71.446 169.266C71.5337 168.895 71.5376 168.508 71.4573 168.135L62.1574 122.809C61.9375 121.73 61.3462 120.763 60.4865 120.075C59.6268 119.388 58.5531 119.023 57.4524 119.046L4.58604 120.207C3.8853 120.222 3.19706 120.395 2.57203 120.712C1.947 121.03 1.40111 121.483 0.974587 122.039C0.548065 122.595 0.25178 123.24 0.107564 123.925C-0.0366519 124.611 -0.025123 125.321 0.141301 126.001Z" fill="#49A4F7"/>
<path d="M57.4524 119.016L4.58604 120.207C3.8853 120.223 3.19706 120.395 2.57203 120.713C1.947 121.03 1.40111 121.483 0.974588 122.039C0.548065 122.595 0.25178 123.24 0.107564 123.925C-0.0366519 124.611 -0.025123 125.321 0.141301 126.001L3.85526 142.625L60.6058 120.157C59.7291 119.404 58.6076 118.999 57.4524 119.016Z" fill="#49B3F7"/>
<path d="M64.8006 135.699L7.73975 159.899L9.56169 168.025C9.80832 169.052 10.3959 169.966 11.2285 170.617C12.0612 171.267 13.0898 171.617 14.1466 171.608H18.281L67.1331 147.038L64.8006 135.699Z" fill="#49B3F7"/>
<path d="M34.4178 152.553C39.1504 152.553 42.9869 148.717 42.9869 143.986C42.9869 139.254 39.1504 135.419 34.4178 135.419C29.6852 135.419 25.8486 139.254 25.8486 143.986C25.8486 148.717 29.6852 152.553 34.4178 152.553Z" fill="#6CBFF3"/>
</svg>
