<svg width="321" height="295" viewBox="0 0 321 295" fill="none" xmlns="http://www.w3.org/2000/svg">
<path d="M264.526 268.646C248.953 278.427 228.827 274.25 210.553 276.387C195.112 278.19 180.671 284.652 165.896 289.468C151.122 294.284 134.918 297.436 120.161 292.55C110.019 289.197 101.474 282.332 91.9375 277.542C80.427 271.755 67.6267 269.066 55.6161 264.408C43.6054 259.75 31.7439 252.447 26.1641 240.854C19.4613 226.906 23.3128 210.348 20.7773 195.086C17.9172 177.863 7.02077 162.995 2.48497 146.139C-3.45455 124.17 0.546072 94.1632 22.2161 82.141C31.2263 77.1413 42.0438 75.609 50.2907 69.4797C60.7134 61.7743 65.0298 48.465 72.5573 37.9577C81.5181 25.5306 94.9198 17.0139 109.993 14.1674C118.477 12.6088 127.189 12.9153 135.76 11.9784C159.238 9.41281 181.82 -2.45171 205.227 0.455313C217.641 1.99639 229.161 7.62657 239.978 13.8959C249.164 19.2634 258.578 25.6466 262.92 35.3747C269.167 49.3844 267.202 61.6868 281.862 70.6618C287.407 74.0591 293.487 76.6422 298.575 80.6963C306.585 87.0795 311.498 96.6061 314.621 106.36C318.736 119.223 323.254 134.091 319.736 147.558C315.736 162.872 305.48 176.024 296.926 188.992C293.846 193.65 290.741 198.483 289.556 203.938C289.079 206.562 288.786 209.216 288.679 211.88C288.109 219.647 286.143 226.766 284.669 234.322C282.064 247.535 276.361 261.195 264.526 268.646Z" fill="#EFF2FD"/>
<path d="M156.755 258.524C236.776 258.524 301.646 256.062 301.646 253.025C301.646 249.988 236.776 247.526 156.755 247.526C76.7337 247.526 11.8638 249.988 11.8638 253.025C11.8638 256.062 76.7337 258.524 156.755 258.524Z" fill="#D2CBEC"/>
<path d="M214.149 111.737C214.203 111.822 214.261 111.904 214.325 111.982L214.588 112.341L214.781 112.577L215.053 112.892L215.264 113.12L215.553 113.418L215.781 113.628L215.86 113.698L214.983 114.057C213.715 114.666 212.734 115.743 212.246 117.06C211.724 118.377 211.671 119.833 212.096 121.184C212.593 122.512 213.452 123.675 214.576 124.542C215.7 125.408 217.044 125.944 218.457 126.088C220.259 126.29 222.082 125.986 223.721 125.212C224.578 127.186 225.738 129.015 227.16 130.632C223.002 130.632 218.606 131.307 218.027 133.373C217.68 133.577 217.395 133.871 217.204 134.224C217.012 134.578 216.92 134.977 216.939 135.378C217.003 136.518 217.155 137.651 217.395 138.767C217.238 138.828 217.106 138.889 216.983 138.951C214.299 140.29 209.087 145.15 206.639 147.768C205.89 148.571 205.228 149.452 204.665 150.395C204.365 150.775 204.128 151.201 203.964 151.656C202.806 153.995 202.104 156.533 201.893 159.133C201.678 160.093 201.54 161.068 201.481 162.049C201.419 162.846 201.551 165.201 201.639 166.62H201.402C200.621 166.685 199.893 167.04 199.361 167.613C198.829 168.187 198.53 168.938 198.524 169.72C198.498 169.987 198.498 170.257 198.524 170.525V170.753V170.832V171.059V171.199V171.357C198.577 171.777 198.638 172.294 198.708 172.889C199.296 177.915 200.542 188.239 200.542 188.239C200.772 189.888 201.458 191.441 202.525 192.722L202.621 192.827C202.762 192.993 202.902 193.16 203.06 193.326L203.27 193.527C203.423 193.682 203.584 193.828 203.753 193.965L204.007 194.184C204.183 194.324 204.376 194.464 204.578 194.604L204.841 194.788C205.148 194.994 205.467 195.181 205.797 195.349C206.98 197.53 208.906 199.217 211.228 200.103C211.228 200.103 213.693 200.839 217.071 201.706C219.001 202.196 221.229 202.739 223.467 203.203L224.3 203.378L225.274 203.562L226.792 203.842L228.397 204.096C229.441 204.245 230.433 204.359 231.336 204.42C231.591 204.42 231.81 204.42 232.056 204.42H232.766C232.766 204.42 233.038 204.42 233.53 204.49C233.635 210.357 233.933 215.234 234.644 222.072C234.854 224.077 235.828 232.667 235.591 230.688C235.504 229.935 235.925 245.031 235.925 245.04C235.346 246.265 234.293 248.095 234.635 249.243C235.056 250.644 237.328 250.573 238.46 250.442C239.511 250.25 240.576 250.145 241.645 250.127C242.282 250.179 242.914 250.269 243.54 250.398C245.078 250.662 246.641 250.748 248.199 250.652L249.199 250.573C249.825 250.535 250.439 250.378 251.006 250.109C251.286 249.971 251.527 249.766 251.709 249.512C251.891 249.259 252.008 248.965 252.05 248.656C252.052 248.383 251.999 248.112 251.895 247.86C251.792 247.607 251.638 247.378 251.445 247.185C249.848 245.477 246.26 245.635 244.136 245.031C243.634 244.898 243.146 244.716 242.68 244.488C244.982 231.594 246.627 218.592 247.611 205.532C247.655 204.849 247.698 204.166 247.734 203.483L248.514 203.273C249.698 202.91 250.844 202.435 251.936 201.854C251.936 202.73 252.006 203.606 252.059 204.481C253.208 225.767 256.244 244.558 256.244 244.558H256.296C255.823 245.731 254.392 247.938 254.778 249.251C255.165 250.565 257.481 250.582 258.604 250.451C259.655 250.259 260.72 250.154 261.788 250.136C262.425 250.187 263.058 250.277 263.683 250.407C265.221 250.671 266.785 250.756 268.342 250.661C268.675 250.661 269.018 250.617 269.351 250.582C269.975 250.545 270.586 250.388 271.149 250.118C271.431 249.981 271.673 249.777 271.855 249.523C272.038 249.269 272.154 248.974 272.194 248.665C272.197 248.391 272.146 248.12 272.042 247.867C271.938 247.614 271.783 247.385 271.588 247.194C270 245.486 266.403 245.644 264.28 245.04C263.333 244.881 262.475 244.391 261.859 243.656C262.736 236.958 263.552 229.646 264.166 222.23C264.219 221.617 264.271 221.004 264.315 220.382C264.319 220.368 264.319 220.353 264.315 220.339C264.833 213.745 265.192 207.204 265.192 201.075C265.192 198.448 265.192 195.997 265.192 193.72C265.192 193.405 265.192 193.098 265.192 192.801C265.192 191.391 265.192 190.078 265.192 188.852L265.807 188.598L267.438 192.871C267.789 192.95 268.105 192.993 268.43 193.046C268.457 193.7 268.621 194.341 268.912 194.928C269.674 196.077 270.599 197.109 271.658 197.993C271.813 198.123 271.928 198.292 271.992 198.483C272.017 198.775 271.94 199.066 271.772 199.306C271.234 200.316 270.906 201.424 270.807 202.564C270.763 203.107 270.886 203.825 271.43 203.93C271.594 203.942 271.757 203.916 271.909 203.855C272.061 203.795 272.198 203.7 272.308 203.579C273.149 202.829 273.681 201.793 273.799 200.672C273.799 201.005 273.799 201.347 273.799 201.679C273.78 201.982 273.844 202.285 273.983 202.555C274.054 202.684 274.171 202.783 274.31 202.831C274.449 202.88 274.602 202.875 274.738 202.818C274.906 202.688 275.022 202.501 275.062 202.292C275.546 200.663 275.745 198.963 275.65 197.266L276.335 199.228C276.727 198.406 276.784 197.464 276.492 196.601C276.07 194.719 275.45 192.888 274.641 191.137C274.904 190.667 275.054 190.142 275.08 189.605L271.228 175.595L271.29 175.464L271.176 175.411L269.588 169.606C269.588 169.606 269.167 153.206 266.833 149.668C266.182 147.79 265.254 146.019 264.078 144.414C262.657 142.663 259.753 141.472 256.814 141.534L256.893 140.737C260.297 139.371 268.737 134.24 274.527 122.629C275.405 120.834 275.141 118.68 275.036 116.675V116.185C276.726 115.288 278.014 113.786 278.642 111.982C278.958 110.702 278.869 109.356 278.387 108.129C278.174 107.548 277.913 106.986 277.607 106.448C277.219 105.758 276.731 105.13 276.159 104.583C276.475 103.707 276.747 102.832 276.984 101.904C277.107 101.448 277.221 101.028 277.317 100.538C278.197 96.3641 278.609 92.1057 278.545 87.8412C278.545 86.8956 278.545 85.9499 278.545 85.0042C278.545 84.26 278.466 83.4982 278.37 82.7189C278.317 82.3336 278.256 81.9396 278.186 81.5456C277.979 80.3639 277.655 79.2054 277.221 78.0869C276.806 76.9949 276.245 75.964 275.554 75.0223C275.109 74.415 274.59 73.865 274.01 73.3849C273.428 72.9072 272.781 72.5151 272.088 72.2203C270.926 71.7466 269.674 71.5343 268.421 71.5986C269.193 66.774 264.578 63.3504 261.402 60.5922C258.226 57.834 252.848 57.3087 249.313 59.8917C248.832 60.3237 248.263 60.6463 247.646 60.8374C247.073 60.9011 246.494 60.8321 245.953 60.636C240.241 59.1912 234.117 60.2332 228.678 62.501C227.169 63.0262 225.809 63.9062 224.712 65.0666C224.185 65.6517 223.841 66.3775 223.721 67.1551C223.601 67.9327 223.711 68.7284 224.037 69.4446C220.098 70.9507 216.062 72.7457 213.447 76.0555C210.833 79.3653 210.219 84.5927 213.176 87.596C211.035 90.1003 208.789 92.7972 207.999 96.072C207.21 99.3467 207.999 101.623 208.745 104.828C208.945 105.959 209.333 107.048 209.894 108.05C211.079 109.81 212.93 109.907 214.149 111.737Z" fill="#CFD8F9"/>
<path d="M97.0171 111.448C96.8115 110.88 96.5561 110.333 96.2538 109.81C95.8731 109.136 95.3975 108.52 94.8413 107.98C94.1395 107.341 97.0083 101.737 97.4733 100.765C98.7104 98.0858 99.8597 94.3382 99.4736 91.3699C99.2192 89.3647 98.1313 87.5697 97.2628 85.7309C96.3942 83.8921 95.7099 81.8169 96.2889 79.8731C96.461 79.454 96.5675 79.011 96.6048 78.5597C96.5521 76.7121 94.0956 73.8839 92.7533 72.7806C88.9983 69.681 84.5766 70.7842 80.8041 68.7441C76.6503 66.4221 72.0063 65.1111 67.2493 64.9177C64.4594 64.8301 61.4502 65.2416 59.3533 67.1067C58.6656 67.9171 57.8544 68.6144 56.9495 69.1731C56.1808 69.4433 55.369 69.5709 54.5543 69.5496C50.8783 69.7423 47.0005 71.0995 44.9564 74.1553C44.4554 75.0984 43.8459 75.98 43.1403 76.7822C42.5519 77.2361 41.9131 77.621 41.2365 77.9292C37.6219 80.0307 35.1829 83.7696 33.8318 87.7273C32.4807 91.6851 32.0772 95.8968 31.6999 100.056C31.4192 103.112 32.0245 105.686 32.5158 108.619C33.0071 111.553 33.5072 114.617 35.7356 116.911C35.49 117.034 35.2443 117.122 34.9899 117.235C33.7647 117.836 32.821 118.887 32.3579 120.169C31.8449 121.454 31.7922 122.877 32.2088 124.196C32.6942 125.478 33.5244 126.6 34.6079 127.441C35.6915 128.281 36.9864 128.807 38.3501 128.96C40.1118 129.144 41.8905 128.841 43.4912 128.084C44.3326 129.996 45.4629 131.768 46.8426 133.338C42.7894 133.338 38.4904 134.003 37.9289 135.965C37.5902 136.165 37.3125 136.453 37.1255 136.798C36.9384 137.144 36.8492 137.534 36.8674 137.926C36.9244 139.04 37.0741 140.147 37.3148 141.236L36.9112 141.42C34.2793 142.724 29.1995 147.47 26.8132 150.027C26.0791 150.807 25.4319 151.664 24.883 152.584C24.5945 152.956 24.3638 153.369 24.1987 153.81C23.0683 156.097 22.3835 158.578 22.1809 161.121C21.97 162.055 21.8321 163.003 21.7685 163.958C21.7159 164.737 21.8475 167.04 21.9264 168.424H21.6983C20.9356 168.489 20.2245 168.835 19.7039 169.395C19.1832 169.956 18.8902 170.689 18.8821 171.453C18.8651 171.724 18.8651 171.996 18.8821 172.268V172.416V172.478C18.8821 172.53 18.8821 172.591 18.8821 172.653V172.758V172.951V173.091V173.345V173.388C19.3646 177.582 20.8122 189.57 20.8122 189.57C21.0333 191.18 21.7019 192.697 22.7424 193.948L22.8389 194.053C22.9792 194.21 23.1196 194.377 23.2688 194.534L23.4705 194.736C23.6197 194.876 23.7776 195.025 23.9443 195.165L24.19 195.375C24.3654 195.515 24.5584 195.655 24.7514 195.786L25.0146 195.97C25.3042 196.154 25.6112 196.338 25.9446 196.513C26.0148 196.653 26.1025 196.776 26.1815 196.907C27.343 198.85 29.1262 200.346 31.2437 201.154C31.2437 201.154 33.6476 201.872 36.9463 202.721C38.8326 203.203 41.0084 203.728 43.1929 204.184L44.0088 204.35L44.9564 204.534L46.439 204.805L48.0007 205.05C49.0272 205.199 49.9922 205.304 50.8783 205.366C51.124 205.366 51.3433 205.366 51.5802 205.366H52.2733C52.2733 205.366 52.5453 205.366 53.019 205.436C53.1243 211.162 53.405 215.943 54.1069 222.598C54.3087 224.559 55.265 232.947 54.9842 231.012C54.8965 230.277 55.3176 245.022 55.3176 245.022C54.7474 246.222 53.7121 248.008 54.0543 249.129C54.4578 250.495 56.6863 250.425 57.7829 250.293C58.809 250.113 59.8472 250.011 60.8887 249.987C61.5104 250.042 62.1284 250.133 62.7398 250.258C64.2432 250.513 65.7707 250.598 67.2932 250.512L68.2758 250.425C68.8844 250.392 69.4807 250.241 70.0304 249.978C70.3045 249.841 70.541 249.639 70.7198 249.391C70.8986 249.142 71.0143 248.854 71.0569 248.551C71.0581 248.285 71.0059 248.022 70.9034 247.777C70.8009 247.532 70.6503 247.31 70.4603 247.123C68.9075 245.46 65.3981 245.609 63.3276 245.013C62.8353 244.889 62.3585 244.71 61.9064 244.479C64.2227 231.96 65.9063 219.332 66.951 206.644C67.0037 205.979 67.0388 205.313 67.0826 204.648L67.8371 204.437C68.9921 204.081 70.1111 203.618 71.1797 203.054C71.1797 203.93 71.2499 204.761 71.2938 205.602C72.4168 226.38 75.3822 244.724 75.3822 244.724H75.4348C74.9786 245.863 73.5749 248.017 73.9609 249.304C74.3469 250.591 76.5929 250.6 77.6895 250.468C78.7156 250.288 79.7538 250.186 80.7953 250.162C81.417 250.217 82.035 250.308 82.6465 250.433C84.1499 250.688 85.6773 250.773 87.1998 250.687L88.1824 250.6C88.791 250.567 89.3873 250.416 89.9371 250.153C90.2111 250.016 90.4476 249.814 90.6264 249.566C90.8052 249.317 90.9209 249.029 90.9635 248.726C90.9647 248.46 90.9125 248.197 90.81 247.952C90.7076 247.707 90.5569 247.485 90.367 247.299C88.8141 245.635 85.3048 245.784 83.2343 245.188C82.3085 245.036 81.468 244.558 80.8655 243.84C81.7428 237.299 82.5236 230.128 83.1202 222.922C83.1729 222.326 83.2167 221.722 83.2694 221.118V221.074C83.7694 214.638 84.1467 208.238 84.1467 202.31C84.1467 199.762 84.1467 197.345 84.1467 195.13V194.184C84.1467 192.818 84.1467 191.557 84.1467 190.331L84.752 190.095L86.34 194.263C86.6822 194.333 86.998 194.377 87.3051 194.429C87.3323 195.068 87.4937 195.695 87.7788 196.268C88.5249 197.39 89.4291 198.398 90.4635 199.263C90.6148 199.39 90.7273 199.556 90.7881 199.744C90.8096 200.027 90.732 200.309 90.5687 200.541C90.0434 201.526 89.724 202.607 89.63 203.719C89.63 204.254 89.709 204.954 90.2441 205.059C90.4068 205.073 90.5706 205.05 90.7228 204.991C90.875 204.932 91.0114 204.838 91.1215 204.718C91.9414 203.984 92.4602 202.973 92.5778 201.881C92.5778 202.205 92.5778 202.529 92.5778 202.861C92.5595 203.163 92.62 203.465 92.7533 203.737C92.824 203.864 92.9395 203.96 93.0772 204.007C93.215 204.054 93.3653 204.048 93.499 203.991C93.6643 203.865 93.7743 203.68 93.8061 203.474C94.2873 201.884 94.4833 200.221 94.3851 198.562C94.6045 199.21 94.8238 199.849 95.0519 200.488C95.4386 199.69 95.4954 198.772 95.2098 197.932C94.7983 196.092 94.1925 194.302 93.4025 192.59C93.6541 192.129 93.8009 191.618 93.8324 191.093L90.0687 177.372L90.1213 177.25L90.016 177.197L88.4632 171.532C88.4632 171.532 88.0596 155.517 85.7785 152.067C85.1411 150.238 84.2332 148.515 83.0851 146.954C81.6989 145.202 78.8652 144.082 75.9963 144.143C75.9963 143.88 76.0402 143.618 76.0665 143.364C79.3916 142.024 87.6297 137.015 93.2885 125.685C94.1658 123.934 93.885 121.824 93.7798 119.871V119.389C95.4304 118.516 96.6853 117.047 97.2891 115.283C97.6074 114.008 97.5121 112.665 97.0171 111.448Z" fill="#CFD8F9"/>
<path d="M182.259 182.6L164.774 186.654C164.598 182.976 160.808 181.304 160.027 186.75C159.589 189.832 141.884 183.913 141.884 183.913L145.692 167.277C145.692 167.277 157.492 165.044 158.08 165.429C158.668 165.814 176.258 166.926 176.258 166.926L182.259 182.6Z" fill="#243976"/>
<path d="M186.294 254.347C184.276 254.465 182.251 254.353 180.258 254.015C179.448 253.845 178.627 253.728 177.802 253.664C176.422 253.685 175.045 253.82 173.687 254.067C172.222 254.242 169.301 254.339 168.73 252.517C168.16 250.696 170.108 247.92 170.704 246.388C171.47 244.437 171.837 242.353 171.783 240.259C173.517 240.265 175.247 240.086 176.942 239.725C176.955 241.036 177.087 242.343 177.337 243.63C177.422 244.192 177.606 244.734 177.881 245.232C178.548 246.274 179.846 246.686 181.039 247.027C183.785 247.815 188.435 247.614 190.497 249.82C190.75 250.068 190.95 250.364 191.086 250.69C191.221 251.017 191.29 251.367 191.286 251.721C191.232 252.122 191.079 252.503 190.842 252.831C190.605 253.159 190.29 253.425 189.927 253.603C189.197 253.959 188.404 254.164 187.593 254.207C187.163 254.286 186.733 254.321 186.294 254.347Z" fill="#353C45"/>
<path d="M160.203 254.347C158.188 254.465 156.166 254.353 154.176 254.015C153.365 253.846 152.545 253.729 151.719 253.664C150.336 253.686 148.957 253.82 147.596 254.067C146.131 254.242 143.209 254.339 142.648 252.517C142.086 250.696 144.016 247.92 144.613 246.388C145.387 244.44 145.754 242.354 145.692 240.259C147.426 240.265 149.155 240.086 150.851 239.725C150.866 241.036 151.001 242.343 151.254 243.63C151.331 244.194 151.516 244.738 151.798 245.232C152.456 246.274 153.755 246.686 154.948 247.027C157.694 247.815 162.344 247.614 164.405 249.82C164.658 250.068 164.859 250.364 164.994 250.69C165.13 251.017 165.198 251.367 165.195 251.721C165.143 252.121 164.993 252.503 164.757 252.832C164.521 253.16 164.208 253.425 163.844 253.603C163.114 253.956 162.32 254.162 161.51 254.207C161.072 254.286 160.642 254.321 160.203 254.347Z" fill="#353C45"/>
<path d="M162.255 162.461V162.548C162.255 164.694 162.405 166.926 162.624 169.151C162.738 170.28 162.87 171.41 163.01 172.539C163.01 172.863 163.089 173.187 163.133 173.511C163.133 173.511 163.133 173.555 163.133 173.572C163.773 178.511 164.572 183.528 164.887 188.335C164.94 189.062 164.975 189.78 165.001 190.498C165.054 191.855 165.115 193.195 165.186 194.534C166.668 222.099 170.608 246.423 170.608 246.423C173.862 247.579 177.793 245.924 177.793 245.924C178.951 237.072 180.048 227.326 180.864 217.546C180.925 216.749 180.986 215.943 181.057 215.146V215.085C181.723 206.557 182.171 198.054 182.215 190.191C182.215 186.812 182.215 183.616 182.215 180.674C182.21 180.664 182.208 180.654 182.208 180.643C182.208 180.632 182.21 180.622 182.215 180.612C182.215 180.21 182.215 179.815 182.215 179.421C182.215 176.094 182.162 173.117 182.127 170.604C182.127 168.503 182.065 166.725 182.03 165.35C182.03 165.219 182.03 165.105 182.03 164.983C182.03 163.52 181.969 162.557 181.96 162.189V161.988L162.308 159.799V160.184C162.308 160.736 162.264 161.296 162.264 161.857C162.255 162.058 162.255 162.259 162.255 162.461Z" fill="#243976"/>
<path d="M141.174 191.295C141.209 199.995 141.704 208.687 142.657 217.335C142.928 219.962 144.192 231.056 143.885 228.491C143.771 227.51 144.323 247.08 144.323 247.08C147.193 247.591 150.138 247.508 152.974 246.835C156.003 229.984 158.161 212.99 159.44 195.918C159.528 194.692 159.607 193.457 159.677 192.232C159.677 191.986 159.677 191.741 159.677 191.505C159.738 190.445 159.8 189.395 159.87 188.37C160.229 183.178 160.677 178.406 160.852 173.572C160.852 173.231 160.852 172.889 160.852 172.548C160.887 171.433 160.905 170.312 160.905 169.186C160.905 167.005 160.817 164.807 160.633 162.496H141.516C141.516 162.496 141.516 162.785 141.516 163.371C141.516 163.958 141.516 164.72 141.446 165.736C141.446 166.039 141.446 166.363 141.446 166.708C141.376 169.474 141.288 173.502 141.244 178.397C141.244 179.019 141.244 179.658 141.244 180.315C141.139 183.607 141.139 187.328 141.174 191.295Z" fill="#243976"/>
<g style="mix-blend-mode:multiply" opacity="0.4">
<path d="M141.165 180.236C148.42 181.339 148.517 177.022 148.517 177.022C151.447 176.541 150.271 174.071 150.271 174.071C150.732 174.126 151.195 173.996 151.56 173.711C151.925 173.425 152.162 173.007 152.219 172.548C154.504 173.189 156.864 173.531 159.238 173.564H159.395C160.466 173.564 161.536 173.564 162.58 173.564H163.115C169.064 173.266 173.275 172.6 173.275 172.6C177.881 171.926 180.609 171.27 182.145 170.604C182.145 168.503 182.083 166.725 182.048 165.35C182.021 165.23 182.006 165.106 182.004 164.983C181.96 163.52 181.934 162.557 181.917 162.189L162.308 160.184L158.413 159.799C158.369 160.473 158.334 161.156 158.325 161.857C158.325 162.058 158.325 162.259 158.325 162.461V162.68H144.928L141.515 163.555C141.515 164.133 141.463 165 141.437 166.103C141.437 166.27 141.437 166.427 141.437 166.603C141.358 169.369 141.27 173.397 141.217 178.292C141.173 178.94 141.173 179.579 141.165 180.236Z" fill="#3C5AAC"/>
</g>
<g style="mix-blend-mode:multiply" opacity="0.4">
<path d="M141.437 165.657C146.976 167.783 152.833 168.967 158.764 169.159C160.098 169.212 161.396 169.159 162.651 169.159C169.31 168.925 175.872 167.496 182.022 164.939C181.97 163.03 181.926 161.971 181.926 161.971L158.413 159.808C158.352 160.683 158.317 161.559 158.317 162.435H141.542C141.542 162.435 141.498 163.608 141.437 165.657Z" fill="#30A2BE"/>
</g>
<path d="M136.944 119.495C136.944 119.495 137.208 127.471 137.927 136.928V137.313C138.874 149.51 138.655 161.988 138.532 174.238C146.762 176.865 155.561 176.926 164.203 176.935C166.66 176.935 169.125 176.935 171.564 176.716C177.541 176.166 183.321 174.29 188.479 171.226C186.425 162.037 185.111 152.7 184.548 143.302C184.131 137.587 183.026 131.943 181.258 126.491C180.162 122.874 178.732 118.741 175.749 116.211C172.766 113.68 167.519 114.398 163.913 114.46C160.232 114.499 156.556 114.751 152.903 115.213C151.938 115.335 151.017 115.467 150.148 115.607C146.977 116.1 143.852 116.852 140.805 117.857C139.472 118.287 138.18 118.835 136.944 119.495Z" fill="#14336C"/>
<g style="mix-blend-mode:multiply" opacity="0.27">
<path d="M150.174 115.581C151.49 117.682 155.728 123.251 163.44 122.866C167.484 122.721 171.314 121.017 174.125 118.111C174.955 117.266 175.677 116.322 176.275 115.3L176.547 114.81C175.538 114.81 174.511 114.81 173.467 114.898C170.305 114.535 167.122 114.38 163.94 114.434C160.258 114.483 156.583 114.734 152.929 115.187C151.964 115.336 151.043 115.467 150.174 115.581Z" fill="#3C5AAC"/>
</g>
<path d="M152.929 115.213C154.096 116.964 157.447 121.114 163.352 120.817C165.382 120.692 167.355 120.094 169.112 119.071C170.868 118.047 172.36 116.627 173.467 114.924C170.305 114.562 167.122 114.407 163.94 114.46C160.258 114.509 156.583 114.76 152.929 115.213Z" fill="#E6A07A"/>
<path d="M154.412 115.808C154.405 115.846 154.405 115.884 154.412 115.922C154.763 116.999 156.281 117.796 157.527 118.356C159.209 119.075 161.022 119.436 162.852 119.416C166.361 119.416 170.932 118.111 171.178 115.257C171.178 114.792 171.257 114.381 171.301 113.882C171.424 112.656 171.546 111.439 171.634 110.213C171.634 109.942 171.634 109.661 171.678 109.337C171.678 108.856 171.678 108.383 171.731 107.91C171.741 107.785 171.741 107.659 171.731 107.534C171.731 107.464 171.783 107.358 171.818 107.218C171.849 107.154 171.865 107.084 171.865 107.013C171.865 106.941 171.849 106.871 171.818 106.807C171.701 106.692 171.551 106.615 171.388 106.588C171.241 106.545 171.092 106.51 170.941 106.483C170.599 106.43 170.252 106.413 169.906 106.43C169.399 106.476 168.895 106.549 168.397 106.649H168.3C167.157 106.799 166.005 106.869 164.852 106.859C162.805 106.928 160.755 106.893 158.711 106.754C157.471 106.601 156.223 106.513 154.974 106.492C154.765 107.53 154.65 108.585 154.631 109.644C154.631 109.889 154.631 110.134 154.588 110.379C154.526 111.465 154.474 112.603 154.447 113.567C154.388 114.312 154.377 115.061 154.412 115.808Z" fill="#E6A07A"/>
<g style="mix-blend-mode:multiply" opacity="0.39">
<path d="M154.412 113.619C157.044 114.679 163.019 115.878 165.703 115.756C167.727 115.694 169.688 115.043 171.345 113.882C171.467 112.656 171.59 111.439 171.678 110.213C171.678 109.942 171.678 109.662 171.722 109.338C171.624 109.259 171.51 109.202 171.388 109.171C171.242 109.125 171.092 109.087 170.941 109.057L169.239 109.408L168.3 109.259C167.159 109.433 166.006 109.515 164.852 109.504C162.805 109.58 160.754 109.539 158.711 109.381C157.472 109.205 156.224 109.103 154.974 109.075C154.825 109.245 154.709 109.441 154.631 109.653C154.631 109.898 154.631 110.143 154.588 110.388C154.474 111.518 154.412 112.656 154.412 113.619Z" fill="#E6A07A"/>
</g>
<g style="mix-blend-mode:multiply" opacity="0.4">
<path d="M165.203 194.534C166.686 222.099 170.704 246.414 170.704 246.414C173.959 247.57 177.81 245.924 177.81 245.924C178.96 237.071 180.065 227.326 180.881 217.545C179.942 224.594 177.731 238.35 174.74 238.192C171.748 238.035 167.195 208.562 165.203 194.534Z" fill="#3C5AAC"/>
</g>
<g style="mix-blend-mode:multiply" opacity="0.4">
<path d="M143.007 220.759C143.814 227.326 144.314 238.805 144.332 247.08C147.201 247.591 150.146 247.508 152.982 246.835C156.011 229.984 158.169 212.99 159.448 195.918C157 211.302 152.552 235.399 148.648 235.951C146.885 236.196 144.393 225.286 143.007 220.759Z" fill="#3C5AAC"/>
</g>
<g style="mix-blend-mode:multiply" opacity="0.15">
<path d="M139.813 153.661C140.542 158.862 141.314 163.678 141.884 166.637C141.884 166.637 149.245 170.411 162.01 170.411H163.098C169.589 170.271 176.034 169.282 182.267 167.469C183.525 162.728 184.477 157.911 185.119 153.048C182.136 157.426 175.468 164.168 163.098 163.757C149.85 163.328 142.726 157.067 139.813 153.661Z" fill="#3C5AAC"/>
</g>
<path d="M149.192 120.992L142.112 118.365C139.742 118.261 137.412 119.003 135.541 120.458C129.207 125.493 121.635 138.583 120.758 145.851C120.276 149.791 123.68 155.237 128.838 151.77C131.567 149.94 135.339 142.935 138.138 140.387C144.472 134.398 149.306 128.715 149.192 120.992Z" fill="white"/>
<path d="M120.889 145.474C120.082 146.244 120.319 160.849 137.681 170.814C139.64 169.198 140.985 166.96 141.489 164.475C141.489 164.475 133.426 150.228 130.084 148.643C127.094 147.381 124.022 146.322 120.889 145.474Z" fill="white"/>
<path d="M140.77 165.097C141.023 164.771 141.359 164.52 141.743 164.37C142.007 164.282 143.393 164.098 146.727 165.123C147.315 165.307 149.543 166.497 149.271 167.951C149.078 168.993 145.446 167.951 144.542 167.89C145.305 168.03 148.929 168.52 148.683 170.087C148.438 171.655 144.498 170.508 143.709 170.376C143.709 170.376 147.639 171.375 147.604 172.811C147.569 174.247 143.875 173.502 143.875 173.502C143.875 173.502 146.806 174.255 146.358 175.674C146.139 176.348 144.007 176.164 143.542 176.103C142.803 176.015 142.083 175.808 141.41 175.49C139.95 174.722 138.827 173.439 138.26 171.891C138.128 171.519 137.941 171.168 137.708 170.849C137.313 170.324 138.243 168.932 138.471 168.538C139.045 167.569 139.669 166.631 140.34 165.727C140.454 165.491 140.612 165.28 140.77 165.097Z" fill="#FFBF94"/>
<path d="M184.005 78.2183C184.654 78.6649 185.33 79.0939 186.032 79.5317C188.014 80.7138 190.164 81.5894 192.366 81.1341C195.445 80.5037 198.788 77.728 199.639 74.6721C200.046 73.0145 199.932 71.2723 199.314 69.6811C199.028 68.931 198.681 68.2048 198.279 67.5096C197.727 66.4914 197.006 65.5737 196.147 64.7952C192.383 61.573 188.041 63.5256 184.268 65.592L184.005 78.2183Z" fill="#FFBF94"/>
<g style="mix-blend-mode:multiply" opacity="0.31">
<path d="M189.69 72.8332C191.681 71.2309 192.252 68.7704 192.208 66.3275C192.206 66.274 192.223 66.2216 192.256 66.179C192.288 66.1363 192.334 66.1059 192.386 66.0927C192.438 66.0795 192.493 66.0843 192.542 66.1062C192.591 66.1282 192.631 66.1661 192.655 66.2136C193.708 68.6653 192.655 71.3797 190.901 73.2185C191.649 73.7153 192.356 74.2716 193.015 74.8822C193.801 75.4851 194.407 76.2903 194.77 77.2113C194.818 77.3479 194.82 77.4963 194.777 77.6345C194.734 77.7728 194.648 77.8935 194.531 77.979C194.414 78.0644 194.272 78.1099 194.127 78.1089C193.982 78.1078 193.841 78.0602 193.726 77.9731C193.059 77.3483 192.47 76.6456 191.971 75.8804C191.305 75.0698 190.545 74.3409 189.707 73.7089C189.639 73.6587 189.583 73.5935 189.544 73.5183C189.505 73.4432 189.484 73.36 189.482 73.2754C189.48 73.1907 189.498 73.1068 189.534 73.0301C189.57 72.9534 189.624 72.8861 189.69 72.8332Z" fill="#DD664A"/>
</g>
<g style="mix-blend-mode:multiply" opacity="0.25">
<path d="M185.996 79.5317C187.979 80.7138 190.128 81.5894 192.33 81.1341C195.41 80.5036 198.752 77.7279 199.603 74.672C200.01 73.0145 199.897 71.2722 199.279 69.6811C199.003 68.932 198.669 68.2059 198.279 67.5096C198.34 69.4096 197.735 77.0537 185.996 79.5317Z" fill="#995049"/>
</g>
<path d="M128.154 91.2561L128.33 91.6852C131.321 98.8214 138.033 104.609 144.727 107.945C151.175 111.159 163.019 114.311 170.354 112.323C173.653 111.448 186.084 105.021 194.349 88.4717C195.516 86.1513 195.138 83.3581 195.007 80.7663C195.007 80.1008 194.928 79.4441 194.893 78.7786C194.09 65.9813 191.958 53.3016 188.532 40.9435L188.155 39.9103C188.111 34.105 182.478 29.9633 177.074 27.7918C170.889 25.3443 164.278 24.1445 157.625 24.2617C150.972 24.379 144.409 25.8109 138.314 28.4748C133.006 30.8214 128.005 34.2188 124.733 38.9821C121.074 44.3409 119.846 51.0568 120.1 57.5363C120.355 64.0158 121.987 70.3553 123.61 76.6334C124.777 81.6084 126.296 86.4948 128.154 91.2561Z" fill="#FFBF94"/>
<path d="M121.547 92.9461C124.478 93.2287 127.42 92.5293 129.908 90.9585C130.522 90.5867 131.109 90.1712 131.663 89.7151L126.337 77.798C124.135 74.8822 120.389 75.898 117.064 77.404C115.433 78.1915 114.174 79.5832 113.555 81.283C112.871 82.9897 112.8 84.8798 113.353 86.6329C114.001 88.3382 115.11 89.8309 116.556 90.9453C118.002 92.0597 119.73 92.7523 121.547 92.9461Z" fill="#FFBF94"/>
<g style="mix-blend-mode:multiply" opacity="0.31">
<path d="M122.504 84.9342C120.083 84.0586 117.687 82.106 117.468 79.4616C117.465 79.4278 117.472 79.3937 117.49 79.3645C117.508 79.3354 117.534 79.3127 117.566 79.2999C117.597 79.287 117.632 79.2848 117.665 79.2934C117.698 79.3021 117.728 79.3212 117.749 79.3478C119.223 81.5631 120.732 83.4807 123.469 84.1024C123.562 84.1192 123.649 84.1595 123.722 84.2194C123.795 84.2793 123.851 84.3569 123.885 84.4447C123.92 84.5325 123.931 84.6276 123.918 84.721C123.905 84.8143 123.868 84.9028 123.811 84.978C123.208 85.7624 122.808 86.6824 122.644 87.6573C122.646 88.432 122.506 89.2005 122.232 89.9252C122.162 90.0478 121.969 90.1528 121.837 90.0215C120.548 88.7343 121.539 86.3877 122.504 84.9342Z" fill="#DD664A"/>
</g>
<g style="mix-blend-mode:multiply" opacity="0.25">
<g style="mix-blend-mode:multiply" opacity="0.25">
<path d="M127.724 79.8382C128.46 77.4371 128.983 74.9759 129.286 72.4831C129.4 71.6075 130.54 62.0458 130.11 61.9757C133.312 62.755 136.673 62.4836 139.945 62.0545C148.189 60.9792 156.281 58.9607 164.063 56.0391C168.923 54.2091 173.81 51.9237 177.275 48.0535C181.944 54.9482 188.175 60.6477 195.463 64.6901C194.708 55.6451 189.391 47.6945 184.198 40.2343C183.154 38.7283 181.925 37.0996 180.118 36.7319C179.309 36.6401 178.491 36.6845 177.697 36.8632C168.537 38.3167 159.211 38.5269 150.026 39.9016C144.323 40.7772 138.69 42.0468 133.058 43.334C132.122 43.4912 131.214 43.7863 130.365 44.2096C129.418 44.8448 128.595 45.6458 127.934 46.5737C125.987 49.0079 123.986 51.5472 123.223 54.5681C122.723 56.5732 123.021 58.8148 122.916 60.89C122.584 65.2425 122.931 69.6199 123.943 73.8665C124.756 76.6881 125.78 79.4452 127.004 82.1148C127.259 81.3705 127.505 80.6 127.724 79.8382Z" fill="#995049"/>
</g>
</g>
<g style="mix-blend-mode:multiply" opacity="0.25">
<path d="M121.547 92.9459C124.478 93.2285 127.42 92.5292 129.908 90.9583C117.432 92.5081 113.555 81.3266 113.555 81.3266C112.871 83.0333 112.8 84.9234 113.353 86.6766C114.007 88.3736 115.119 89.8572 116.565 90.9635C118.011 92.0698 119.735 92.7559 121.547 92.9459Z" fill="#995049"/>
</g>
<path d="M113.959 70.3991C114.283 71.1522 114.616 71.8964 114.967 72.6407C117.503 77.9557 122.258 79.7244 127.408 82.2111C126.934 74.1555 126.832 66.094 127.101 58.0267C127.101 59.1037 133.198 59.778 134.076 59.8743C136.581 59.9506 139.086 59.7361 141.542 59.2351C148.157 58.0968 154.491 55.7327 160.703 53.2722C168.599 50.1463 176.863 46.4249 181.241 39.2099C180.364 40.6109 182.118 45.2078 182.636 46.6351C183.588 49.3138 184.855 51.8708 186.408 54.2529C189.444 59.0074 192.962 63.1753 195.059 68.5078C199.112 59.5941 199.726 49.5246 199.446 39.7352C199.244 32.0912 195.936 22.0041 186.286 22.3894C187.005 17.9238 184.048 13.502 180.144 11.1728C171.564 6.0505 160.694 6.43577 151.192 8.35336C140.976 10.3439 131.378 14.7252 123.188 21.1373C108.677 32.9142 106.896 53.9902 113.959 70.3991Z" fill="#3D2023"/>
<path d="M195.006 68.3765L195.059 68.5078C199.112 59.5941 199.726 49.5246 199.446 39.7352C199.244 32.0912 195.936 22.0041 186.286 22.3894C187.005 17.9238 184.048 13.502 180.144 11.1728C171.564 6.0505 160.694 6.43577 151.192 8.35336C140.976 10.3439 131.378 14.7252 123.188 21.1373C108.554 32.9142 106.773 53.9902 113.836 70.3991C114.16 71.1522 114.494 71.8964 114.845 72.6407C117.126 77.4303 121.214 79.3391 125.759 81.4844C121.29 75.5081 118.09 68.6853 116.354 61.4329C113.432 48.4476 116.354 33.6498 127.303 25.06C129.647 23.3569 132.175 21.9207 134.839 20.7783C138.024 19.1281 141.381 17.8303 144.849 16.9081C150.026 15.726 155.588 15.9361 160.843 16.3389C166.366 16.7482 171.788 18.031 176.907 20.1391C178.338 20.7069 179.673 21.4926 180.864 22.4682C181.153 22.7221 183.496 26.3997 182.68 26.4873C186.321 26.067 190.523 27.0739 192.822 29.9897C195.198 33.1738 196.666 36.9411 197.068 40.8911C197.682 45.8908 197.015 50.9606 196.278 55.9428C195.563 60.0526 195.138 64.2073 195.006 68.3765Z" fill="#543037"/>
<g style="mix-blend-mode:multiply" opacity="0.43">
<g style="mix-blend-mode:multiply" opacity="0.43">
<path d="M175.117 33.2206C175.091 33.4535 175.091 33.6885 175.117 33.9214C175.164 33.6902 175.164 33.4518 175.117 33.2206Z" fill="#3D2023"/>
</g>
</g>
<path d="M177.872 57.6151C177.878 57.4873 177.911 57.3623 177.97 57.2489C178.029 57.1354 178.113 57.0362 178.214 56.9584C178.383 56.8644 178.573 56.8133 178.767 56.8095C180.459 56.6571 182.164 56.8674 183.768 57.4261C185.372 57.9849 186.837 58.8792 188.067 60.0493C188.839 60.8461 189.909 62.3434 188.672 63.2277C187.277 64.2259 185.163 63.2277 183.838 62.6411C181.838 61.7655 177.697 60.5746 177.854 57.7552C177.863 57.7114 177.863 57.6588 177.872 57.6151Z" fill="#3D2023"/>
<path d="M136.576 68.8406C136.953 67.0456 139.208 65.5833 140.682 64.8127C142.583 63.7956 144.733 63.3371 146.885 63.4906C147.184 63.522 147.479 63.5896 147.762 63.692C148.173 63.728 148.565 63.8866 148.885 64.1473C150.394 65.5483 147.016 67.4658 146.165 67.9562C144.182 69.1032 142.077 70.5305 139.822 71.0296C138.366 71.3536 136.164 70.8019 136.576 68.8406Z" fill="#3D2023"/>
<path d="M160.22 87.561C160.624 85.4683 164.721 85.2231 166.432 85.1531C168.73 85.0655 171.353 85.3282 173.02 87.0619C173.035 87.0794 173.045 87.1006 173.048 87.1232C173.051 87.1458 173.048 87.1688 173.039 87.1897C173.03 87.2107 173.015 87.2287 172.996 87.2416C172.977 87.2546 172.955 87.2621 172.933 87.2633C170.722 87.3771 168.546 86.7905 166.344 87.0181C165.11 87.1429 163.9 87.4375 162.747 87.8937C161.869 88.244 161.457 88.6205 160.571 88.1914C160.455 88.1348 160.359 88.044 160.296 87.9312C160.234 87.8185 160.207 87.6893 160.22 87.561Z" fill="#DD664A"/>
<path d="M176.24 78.1045C176.744 79.3856 177.618 80.4887 178.75 81.2744C179.883 82.06 181.223 82.493 182.602 82.5186C183.981 82.5441 185.337 82.1611 186.497 81.4179C187.658 80.6748 188.572 79.6048 189.124 78.3433C189.676 77.0818 189.84 75.6853 189.597 74.3305C189.354 72.9756 188.713 71.7232 187.757 70.7315C186.801 69.7397 185.571 69.0532 184.224 68.7588C182.877 68.4643 181.472 68.575 180.188 69.077C179.335 69.4106 178.555 69.9088 177.895 70.5432C177.235 71.1776 176.706 71.9356 176.339 72.774C175.973 73.6125 175.775 74.5148 175.758 75.4294C175.741 76.3441 175.905 77.2531 176.24 78.1045Z" fill="white"/>
<path d="M177.538 78.1045C177.928 79.1048 178.606 79.9673 179.487 80.5826C180.368 81.1979 181.412 81.5384 182.487 81.5609C183.562 81.5833 184.619 81.2868 185.525 80.7089C186.431 80.131 187.145 79.2976 187.576 78.3145C188.007 77.3313 188.136 76.2426 187.946 75.1863C187.757 74.13 187.257 73.1536 186.511 72.3809C185.765 71.6082 184.806 71.0739 183.755 70.8458C182.704 70.6177 181.609 70.7061 180.609 71.0996C179.273 71.625 178.201 72.6569 177.625 73.9696C177.05 75.2822 177.019 76.7689 177.538 78.1045Z" fill="black"/>
<path d="M180.574 79.8644C180.689 80.1548 180.888 80.4046 181.145 80.5822C181.403 80.7597 181.707 80.8569 182.02 80.8615C182.333 80.8661 182.64 80.7778 182.902 80.6079C183.165 80.438 183.371 80.1941 183.494 79.9072C183.618 79.6202 183.653 79.3032 183.595 78.9962C183.538 78.6893 183.39 78.4063 183.172 78.1831C182.953 77.96 182.672 77.8067 182.366 77.7428C182.06 77.6789 181.742 77.7073 181.452 77.8242C181.065 77.98 180.756 78.2818 180.592 78.664C180.428 79.0461 180.421 79.4776 180.574 79.8644Z" fill="white"/>
<path d="M152.376 86.7972C154.572 83.6447 153.791 79.3127 150.632 77.1213C147.474 74.9299 143.133 75.7091 140.938 78.8616C138.742 82.0141 139.523 86.3461 142.681 88.5375C145.84 90.7289 150.18 89.9497 152.376 86.7972Z" fill="white"/>
<path d="M152.394 83.3406C152.353 84.4118 151.995 85.447 151.365 86.3151C150.735 87.1833 149.861 87.8454 148.854 88.2178C147.847 88.5902 146.751 88.6561 145.706 88.4072C144.662 88.1583 143.714 87.6058 142.984 86.8195C142.254 86.0333 141.774 85.0486 141.605 83.99C141.435 82.9313 141.584 81.8464 142.033 80.8723C142.481 79.8982 143.209 79.0787 144.124 78.5174C145.039 77.9562 146.101 77.6784 147.174 77.7192C148.612 77.7762 149.969 78.3998 150.948 79.4535C151.926 80.5071 152.446 81.9049 152.394 83.3406Z" fill="black"/>
<path d="M150.237 85.6697C150.229 85.9824 150.129 86.2858 149.949 86.5415C149.768 86.7971 149.515 86.9934 149.223 87.1053C148.93 87.2172 148.611 87.2396 148.305 87.1698C148 87.0999 147.722 86.941 147.507 86.7131C147.293 86.4852 147.151 86.1988 147.1 85.8902C147.049 85.5816 147.091 85.2648 147.221 84.9801C147.351 84.6955 147.562 84.4559 147.829 84.2918C148.096 84.1277 148.406 84.0465 148.719 84.0585C149.134 84.0723 149.526 84.2495 149.811 84.5514C150.095 84.8533 150.248 85.2554 150.237 85.6697Z" fill="white"/>
<path d="M159.588 98.4273C159.707 98.5926 159.836 98.7505 159.974 98.9001L160.062 98.9877H160.106L160.351 99.3204L160.527 99.6006C160.531 99.6638 160.55 99.725 160.584 99.7785C160.618 99.8321 160.665 99.8763 160.72 99.9071L160.966 100.345C161.016 100.422 161.093 100.478 161.182 100.502C161.271 100.526 161.365 100.517 161.448 100.476C161.531 100.435 161.595 100.365 161.631 100.28C161.666 100.195 161.67 100.1 161.641 100.012C161.614 99.8874 161.579 99.7646 161.536 99.6444C162.425 98.7189 163.514 98.009 164.721 97.5692C166.914 96.7987 169.537 96.9651 171.836 97.1664C172.081 97.1664 172.423 97.1664 172.467 96.9038C172.511 96.6411 172.336 96.571 172.178 96.4747C171.178 95.8705 169.704 95.8968 168.563 95.818C167.256 95.7224 165.943 95.9044 164.712 96.3521C163.335 96.8351 162.099 97.6503 161.115 98.725C161.009 98.5236 160.895 98.3398 160.773 98.1471C160.692 98.0063 160.601 97.8716 160.501 97.7443C160.461 97.6817 160.408 97.6278 160.347 97.5857C160.286 97.5437 160.217 97.5144 160.144 97.4997C160.071 97.485 159.996 97.4851 159.923 97.5001C159.85 97.515 159.781 97.5445 159.72 97.5867C159.652 97.6302 159.594 97.6875 159.55 97.7549C159.506 97.8222 159.477 97.8981 159.465 97.9775C159.452 98.0569 159.457 98.1381 159.478 98.2156C159.499 98.2931 159.537 98.3653 159.588 98.4273Z" fill="#DD664A"/>
<path d="M134.287 50.3301C132.756 50.3311 131.226 50.2376 129.707 50.0499C129.592 50.0367 129.487 49.9786 129.414 49.8884C129.342 49.7982 129.309 49.6832 129.321 49.5683C129.327 49.5106 129.345 49.4548 129.374 49.4042C129.402 49.3535 129.44 49.3089 129.486 49.2731C129.531 49.2372 129.584 49.2108 129.64 49.1953C129.696 49.1799 129.755 49.1757 129.812 49.183C136.138 49.9711 142.095 48.9028 147.622 47.747C153.426 46.6716 159.051 44.7943 164.335 42.1694C168.581 39.9716 171.924 37.5899 174.424 33.1068L175.916 30.4187C175.975 30.3195 176.069 30.2468 176.181 30.2158C176.292 30.1848 176.411 30.1979 176.512 30.2523C176.563 30.2798 176.608 30.3171 176.644 30.3619C176.681 30.4067 176.708 30.4583 176.724 30.5136C176.74 30.569 176.746 30.627 176.739 30.6843C176.733 30.7416 176.716 30.7972 176.688 30.8477L175.188 33.5271C172.424 38.4831 168.529 40.9786 164.739 42.9487C159.382 45.609 153.68 47.5127 147.797 48.6051C143.366 49.6441 138.838 50.2222 134.287 50.3301Z" fill="#543037"/>
<path d="M134.874 41.7491C134.757 41.7491 134.646 41.703 134.564 41.6209C134.481 41.5388 134.435 41.4274 134.435 41.3113C134.435 41.1952 134.481 41.0838 134.564 41.0017C134.646 40.9196 134.757 40.8735 134.874 40.8735L143.717 39.9979C146.491 39.6507 149.23 39.0648 151.903 38.2467L153.728 37.7476C157.119 36.8322 160.35 35.4029 163.308 33.5096C164.256 32.8967 165.221 32.345 166.159 31.8109C169.248 30.0597 172.169 28.3785 174.011 24.9286C174.036 24.8739 174.072 24.8247 174.116 24.7843C174.161 24.7439 174.213 24.713 174.27 24.6936C174.327 24.6742 174.387 24.6667 174.447 24.6715C174.507 24.6764 174.565 24.6935 174.618 24.7217C174.671 24.75 174.718 24.7889 174.755 24.8359C174.793 24.8829 174.82 24.9371 174.835 24.9951C174.851 25.0531 174.854 25.1137 174.845 25.173C174.836 25.2324 174.815 25.2893 174.783 25.3402C172.827 29.009 169.8 30.7427 166.589 32.5727C165.668 33.0981 164.712 33.6497 163.782 34.2451C160.755 36.2015 157.444 37.6783 153.964 38.6232L152.14 39.131C149.419 39.9734 146.63 40.5799 143.805 40.9435L134.961 41.8191L134.874 41.7491Z" fill="#543037"/>
<path d="M142.182 34.6741C142.095 34.6737 142.011 34.6477 141.939 34.5994C141.867 34.5511 141.811 34.4827 141.778 34.4027C141.734 34.2957 141.733 34.1755 141.775 34.0677C141.818 33.9598 141.901 33.8727 142.006 33.8248C144.718 32.7566 147.493 31.856 150.315 31.1279C152.069 30.6288 153.929 30.121 155.702 29.5168C161.176 27.678 164.984 25.2351 167.353 22.0478C167.422 21.9549 167.526 21.8935 167.641 21.8771C167.757 21.8607 167.874 21.8906 167.967 21.9603C168.06 22.0299 168.121 22.1337 168.138 22.2486C168.154 22.3635 168.124 22.4803 168.054 22.5732C165.58 25.9005 161.632 28.4485 155.982 30.3486C154.228 30.9528 152.341 31.4694 150.552 31.9685C147.766 32.6919 145.026 33.5838 142.349 34.6391C142.295 34.6591 142.239 34.6709 142.182 34.6741Z" fill="#543037"/>
<path d="M119.319 57.5276C119.262 57.5287 119.205 57.5185 119.152 57.4975C119.099 57.4764 119.05 57.445 119.009 57.405C118.968 57.3651 118.936 57.3174 118.914 57.2648C118.892 57.2121 118.88 57.1556 118.88 57.0985C118.801 51.1093 118.714 44.3146 121.696 38.5268C123.749 34.5428 127.338 30.9528 132.654 27.5642C140.699 22.4243 149.017 19.9113 156.684 20.2966C156.742 20.2995 156.798 20.3137 156.851 20.3383C156.903 20.363 156.949 20.3976 156.988 20.4403C157.027 20.483 157.057 20.5329 157.076 20.5871C157.095 20.6413 157.104 20.6988 157.101 20.7563C157.098 20.8138 157.084 20.8702 157.059 20.9222C157.035 20.9742 157 21.0208 156.957 21.0595C156.914 21.0981 156.864 21.1279 156.81 21.1473C156.756 21.1666 156.698 21.1751 156.64 21.1722C147.165 20.6994 138.629 24.7885 133.119 28.2997C127.943 31.6095 124.46 35.0857 122.477 38.9296C119.6 44.5248 119.679 51.1882 119.758 57.081C119.759 57.1392 119.748 57.1971 119.727 57.2512C119.705 57.3054 119.673 57.3547 119.632 57.3963C119.591 57.4378 119.543 57.4709 119.489 57.4934C119.435 57.516 119.377 57.5276 119.319 57.5276Z" fill="#543037"/>
<path d="M190.936 50.873H190.857C190.8 50.8635 190.746 50.8428 190.697 50.8119C190.648 50.781 190.606 50.7407 190.574 50.6933C190.541 50.6459 190.518 50.5925 190.506 50.5361C190.495 50.4797 190.495 50.4215 190.506 50.3651C191.13 47.5706 191.372 44.7047 191.225 41.8454C190.927 38.1328 189.023 33.0893 184.637 31.0491C184.584 31.0247 184.537 30.9901 184.498 30.9473C184.458 30.9045 184.428 30.8543 184.409 30.7997C184.389 30.7452 184.38 30.6872 184.383 30.6294C184.386 30.5715 184.401 30.5147 184.426 30.4625C184.45 30.4102 184.484 30.3632 184.526 30.3242C184.568 30.2852 184.617 30.255 184.671 30.2354C184.725 30.2158 184.783 30.2072 184.84 30.2101C184.897 30.2131 184.953 30.2274 185.005 30.2523C189.734 32.4501 191.787 37.8351 192.103 41.7754C192.259 44.714 192.011 47.6601 191.366 50.5315C191.345 50.6295 191.291 50.7173 191.213 50.7797C191.134 50.8421 191.036 50.8751 190.936 50.873Z" fill="#543037"/>
<path d="M187.672 49.1743C187.579 49.1744 187.489 49.1446 187.415 49.0893C187.341 49.0341 187.286 48.9564 187.26 48.8678C186.892 47.439 186.738 45.9636 186.803 44.4898C186.838 43.341 186.762 42.1915 186.575 41.0574C186.267 39.5495 185.558 38.1521 184.522 37.012C184.452 36.925 184.418 36.8146 184.427 36.7033C184.436 36.592 184.487 36.4883 184.57 36.4134C184.653 36.3384 184.761 36.298 184.873 36.3002C184.985 36.3024 185.092 36.3472 185.172 36.4254C186.313 37.6813 187.095 39.2208 187.435 40.8822C187.634 42.071 187.717 43.2763 187.681 44.481C187.615 45.8714 187.754 47.2639 188.093 48.6139C188.111 48.6691 188.117 48.7272 188.112 48.7849C188.107 48.8426 188.091 48.8987 188.064 48.95C188.037 49.0013 188 49.0468 187.955 49.0838C187.911 49.1208 187.859 49.1486 187.804 49.1655L187.672 49.1743Z" fill="#543037"/>
<path d="M174.223 169.527C174.175 167.686 174.349 165.845 174.74 164.046C177.012 160.385 180.881 152.549 180.881 152.549L190.181 156.857C188.121 161.373 185.526 165.627 182.452 169.527C181.151 170.695 179.684 171.665 178.1 172.408" fill="#44A2EB"/>
<path d="M176.793 165.49C174.828 169.396 169.283 175.831 169.283 175.831L169.827 183.011C174.202 178.557 177.718 173.335 180.197 167.609L176.793 165.49Z" fill="#FF6551"/>
<path d="M180.82 116.675C178.574 113.917 173.503 112.227 168.95 113.234C163.572 114.416 154.29 120.852 154.29 120.852L162.651 131.237C162.651 131.237 167.195 121.929 173.301 121.149C179.408 120.37 182.724 123.776 186.365 131.841C185.645 124.845 182.619 118.89 180.82 116.675Z" fill="#4BB2F7"/>
<path d="M184.873 124.88C185.139 126.091 185.338 127.316 185.47 128.548C181.829 120.502 178.407 117.087 172.406 117.848C166.405 118.61 161.755 127.936 161.755 127.936L162.633 131.237C162.633 131.237 167.177 121.929 173.283 121.15C179.39 120.37 182.706 123.776 186.347 131.841C186.103 129.475 185.609 127.142 184.873 124.88Z" fill="#3E8CE1"/>
<path d="M154.939 183.046C154.474 176.173 149.736 144.423 144.595 134.949C138.743 124.153 129.303 118.129 116.907 118.96C108.625 119.512 105.107 122.463 103.685 124.363C104.418 123.147 105.277 122.012 106.247 120.974C109.414 117.586 116.17 111.29 119.635 109.591L120.17 109.346L125.654 107.595C130.672 106.486 135.877 106.531 140.875 107.726L141.314 112.761C141.715 113.041 142.17 113.237 142.65 113.335C143.13 113.432 143.625 113.431 144.104 113.33C145.461 112.984 146.796 112.56 148.105 112.061C148.105 112.061 148.105 111.745 148.026 111.185L149.184 111.097C160.177 118.05 165.949 135.326 165.949 135.326L174.179 183.187C170.882 187.872 166.106 191.319 160.615 192.976C156.683 194.089 152.621 194.677 148.534 194.727C152.658 193.51 155.404 189.92 154.939 183.046Z" fill="#49B3F7"/>
<path d="M165.949 135.334C164.125 130.224 161.682 125.354 158.676 120.834C153.324 124.337 147.656 127.673 142.349 131.272C143.165 132.449 143.915 133.671 144.595 134.932C149.736 144.406 154.473 176.155 154.938 183.029C155.403 189.902 152.657 193.51 148.534 194.762C152.62 194.712 156.683 194.124 160.615 193.011C166.106 191.354 170.881 187.907 174.178 183.222L165.949 135.334Z" fill="#3E8CE1"/>
<path d="M144.595 134.949C149.736 144.423 154.474 176.173 154.939 183.046C155.404 189.92 152.658 193.51 148.534 194.762C145.761 194.853 142.986 194.756 140.226 194.473C147.955 194.158 149.332 188.055 149.122 182.714C148.885 176.97 146.069 157.374 142.445 144.292C138.822 131.21 128.61 123.986 116.24 123.566C105.65 123.198 101.483 129.503 100.097 135.685C100.373 132.317 101.284 129.031 102.781 126C103.062 125.44 103.352 124.906 103.659 124.389C105.08 122.498 108.598 119.538 116.88 118.987C129.303 118.129 138.743 124.153 144.595 134.949Z" fill="#FF6551"/>
<path d="M148.025 111.203C148.078 111.728 148.104 112.078 148.104 112.078C146.796 112.577 145.46 113.001 144.103 113.348C143.624 113.449 143.129 113.45 142.649 113.352C142.17 113.254 141.715 113.059 141.314 112.779L140.875 110.371L140.62 107.446C140.62 107.446 139.594 104.259 141.945 103.471C143.193 102.99 144.557 102.898 145.858 103.208C147.069 104.811 147.797 108.821 148.025 111.203Z" fill="#49B3F7"/>
<path d="M141.629 99.8196C145.911 101.282 145.858 103.164 145.858 103.164C144.557 102.854 143.193 102.946 141.945 103.427C139.594 104.215 140.682 108.19 140.682 108.19C139.159 107.663 137.69 106.992 136.295 106.185C133.128 104.522 127.943 104.741 126.645 105.205C126.25 105.345 125.767 105.529 125.311 105.686C124.144 106.08 122.819 106.352 121.872 105.529C120.538 104.364 121.047 102.324 121.047 102.324C122.24 97.867 137.357 98.3486 141.629 99.8196Z" fill="#FF6551"/>
<path d="M131.382 148.153C132.21 148.352 132.988 148.718 133.669 149.228C134.349 149.739 134.918 150.383 135.339 151.122C135.339 160.99 125.53 160.569 125.53 160.569C125.53 160.569 108.458 159.554 102.141 158.906C96.1136 158.293 95.7539 150.15 95.7275 149.458C95.7296 149.443 95.7296 149.429 95.7275 149.414C95.7349 148.401 96.1214 147.427 96.8112 146.683C97.5011 145.94 98.4444 145.48 99.4562 145.395H99.7545C102.746 145.623 127.294 147.321 131.382 148.153Z" fill="#FF6551"/>
<path d="M125.653 107.569L120.17 109.321C121.935 108.557 123.772 107.971 125.653 107.569Z" fill="#4BB2F7"/>
<path d="M120.995 102.324C120.995 102.324 120.486 104.364 121.819 105.529C122.767 106.352 124.092 106.08 125.259 105.686L125.653 107.569C123.772 107.97 121.935 108.557 120.17 109.32C119.854 107.879 119.657 106.415 119.582 104.942C119.554 104.418 119.671 103.897 119.92 103.435C120.169 102.973 120.541 102.589 120.995 102.324Z" fill="#44A2EB"/>
<path d="M103.685 124.337C103.36 124.853 103.071 125.388 102.808 125.948C103.013 125.368 103.309 124.824 103.685 124.337Z" fill="#4BB2F7"/>
<path d="M95.7277 149.458C95.7277 150.185 96.1137 158.293 102.141 158.906C108.458 159.554 125.531 160.57 125.531 160.57C125.531 160.57 135.304 160.99 135.339 151.122C136.054 152.275 136.572 153.538 136.874 154.861C136.874 154.861 139.866 171.243 139.577 179.378C139.287 187.512 127.215 187.162 127.215 187.162C121.447 186.55 115.718 185.614 110.054 184.36C108.399 184.026 106.796 183.469 105.291 182.705C103.489 181.841 101.927 180.55 100.742 178.944C99.5562 177.338 98.7836 175.467 98.4913 173.494C98.4913 173.494 96.0874 153.635 95.754 150.535C95.7198 150.177 95.711 149.817 95.7277 149.458Z" fill="#4BB2F7"/>
<path d="M95.7278 149.458C95.7024 149.817 95.7024 150.176 95.7278 150.535C95.798 151.174 95.9559 152.514 96.1576 154.239H96.675C96.1155 152.703 95.796 151.091 95.7278 149.458Z" fill="#44A2EB"/>
<path d="M136.866 154.861C136.563 153.539 136.045 152.275 135.33 151.122C135.33 156.253 132.698 158.6 130.11 159.677C130.878 164.584 131.274 169.542 131.295 174.509C131.005 182.644 118.942 182.276 118.942 182.276C113.17 181.679 107.438 180.752 101.772 179.5L101.044 179.325C102.211 180.735 103.653 181.894 105.282 182.731C106.787 183.496 108.39 184.053 110.046 184.386C115.709 185.641 121.438 186.576 127.206 187.188C127.206 187.188 139.269 187.556 139.559 179.413C139.849 171.27 136.866 154.861 136.866 154.861Z" fill="#3E8CE1"/>
<path d="M142.445 144.283C146.069 157.365 148.885 176.961 149.122 182.705C149.332 188.046 147.955 194.149 140.226 194.464C139.609 194.499 138.991 194.499 138.374 194.464C128.969 193.816 112.3 188.86 112.3 188.86C109.305 187.715 106.817 185.542 105.282 182.731C106.787 183.496 108.39 184.052 110.045 184.386C115.709 185.64 121.438 186.576 127.206 187.188C127.206 187.188 139.269 187.556 139.559 179.413C139.848 171.269 136.857 154.896 136.857 154.896C136.555 153.573 136.036 152.31 135.321 151.157C134.9 150.418 134.332 149.774 133.651 149.263C132.971 148.753 132.192 148.387 131.365 148.188C127.276 147.357 102.729 145.658 99.7807 145.456V145.351C99.6667 143.504 99.5 140.457 99.5702 139.423C99.6499 138.156 99.8288 136.898 100.105 135.658C101.492 129.477 105.659 123.172 116.248 123.54C128.61 123.978 138.831 131.21 142.445 144.283Z" fill="#49B3F7"/>
<path d="M149.148 182.705C148.912 176.961 146.095 157.365 142.472 144.283C140.279 136.359 135.664 130.589 129.601 127.165C132.396 130.476 134.421 134.363 135.532 138.548C139.156 151.629 141.972 171.226 142.209 176.97C142.419 182.311 141.042 188.405 133.313 188.729C132.696 188.764 132.078 188.764 131.461 188.729C122.688 188.151 107.633 183.799 105.642 183.213C107.19 185.787 109.555 187.771 112.362 188.852C112.362 188.852 129.031 193.808 138.401 194.429C139.018 194.464 139.636 194.464 140.252 194.429C147.955 194.149 149.333 188.046 149.148 182.705Z" fill="#3E8CE1"/>
<path d="M192.216 173.038C194.421 176.487 196.004 180.295 196.892 184.29C197.082 184.841 197.161 185.423 197.125 186.005C197.089 186.586 196.938 187.155 196.682 187.678L195.804 185.13C195.932 187.329 195.677 189.533 195.05 191.645C194.999 191.916 194.849 192.16 194.629 192.328C194.451 192.401 194.253 192.407 194.072 192.344C193.891 192.281 193.739 192.154 193.646 191.986C193.474 191.642 193.396 191.258 193.418 190.874L193.304 187.836C193.495 188.835 193.424 189.868 193.096 190.831C192.769 191.795 192.196 192.658 191.435 193.335C191.293 193.49 191.117 193.612 190.921 193.691C190.725 193.769 190.514 193.803 190.303 193.79C189.601 193.65 189.426 192.722 189.496 192.039C189.619 190.563 190.04 189.127 190.733 187.818C190.954 187.511 191.057 187.135 191.023 186.759C190.944 186.512 190.794 186.293 190.593 186.128C189.382 184.894 187.856 183.712 187.084 182.153C185.838 179.771 186.627 176.646 187.18 174.211C187.54 172.346 191.014 171.155 192.216 173.038Z" fill="#FFBF94"/>
<path d="M170.511 127.471C170.511 127.471 169.274 121.491 173.819 120.046C178.363 118.601 180.837 119.39 184.119 123.102C187.4 126.815 187.952 149.274 187.952 149.274C187.952 149.274 189.856 157.155 182.96 158.328C176.065 159.501 174.038 150.351 174.038 150.351L170.511 127.471Z" fill="#243976"/>
<path d="M185.119 179.5L175.205 153.573C175.205 153.573 173.319 147.444 179.521 145.693C181.124 145.132 182.879 145.193 184.439 145.862C185.999 146.532 187.25 147.762 187.944 149.309L195.059 175.262C195.059 175.262 195.068 181.61 185.119 179.5Z" fill="#243976"/>
</svg>
