<svg width="316" height="297" viewBox="0 0 316 297" fill="none" xmlns="http://www.w3.org/2000/svg">
<path d="M263.144 269.683C247.583 279.452 227.463 275.289 209.202 277.415C193.772 279.216 179.395 285.679 164.579 290.481C149.763 295.282 133.623 298.439 118.878 293.559C108.752 290.21 100.204 283.362 90.6748 278.569C79.1728 272.797 66.3908 270.103 54.3803 265.451C42.3697 260.798 30.5258 253.513 24.9589 241.925C18.2523 228.001 22.1009 211.454 19.5761 196.211C16.7093 179.017 5.8385 164.158 1.28853 147.331C-1.92012 135.437 1.41126 121.4 5.29496 109.855C9.39782 97.6639 20.8122 83.9593 31.8057 76.8665C35.4001 74.5489 38.9419 72.2313 42.3259 69.6163C43.8163 68.4619 51.6275 63.4418 51.6275 61.6315C60.3943 53.1919 65.6544 42.4434 73.2815 33.1029C81.1716 23.4039 92.7701 17.1332 104.903 14.046C115.873 11.2257 127.129 9.66174 138.454 9.38453C150.596 9.18338 162.37 10.3116 174.091 6.14861C176.546 5.27404 178.939 4.20706 181.385 3.30625C197.954 -2.74579 220.134 -0.0958357 235.625 8.05518C241.534 11.1599 246.478 15.7951 251.239 20.4654C257.06 26.1763 262.513 32.3246 266.598 39.4086C270.508 46.204 271.744 54.2763 276.733 60.6694C280.081 64.9548 283.378 69.6513 286.692 73.788C291.82 80.1637 299.719 83.2247 304.593 90.1775C309.468 97.1304 311.835 105.71 313.448 113.992C315.517 124.583 316.683 135.454 315.569 146.194C313.816 163.37 304.742 176.148 295.485 190.132C292.408 194.794 289.304 199.613 288.121 205.07C287.644 207.688 287.351 210.335 287.244 212.994C286.674 220.751 284.719 227.861 283.246 235.409C280.66 248.606 274.997 262.241 263.144 269.683Z" fill="#EFF2FD"/>
<path d="M162.352 258.078C242.314 258.078 307.136 255.619 307.136 252.586C307.136 249.552 242.314 247.093 162.352 247.093C82.3902 247.093 17.5684 249.552 17.5684 252.586C17.5684 255.619 82.3902 258.078 162.352 258.078Z" fill="#D2CBEC"/>
<path d="M289.997 128.606V136.04H259.997V129.376L289.997 128.606Z" fill="#FF6551"/>
<g style="mix-blend-mode:multiply" opacity="0.36">
<path d="M289.997 130.093V136.04H259.997V131.475C261.513 132.113 264.38 132.752 269.64 132.822C279.941 132.935 287.551 132.586 289.997 130.093Z" fill="#F46D36"/>
</g>
<path d="M134.228 193.281L130.388 203.094L112.785 248.029H107.051C107.051 248.029 116.449 215.084 120.824 199.709C122.104 195.205 122.963 192.214 123.024 191.987L128.39 192.581L134.228 193.281Z" fill="#FF6551"/>
<g style="mix-blend-mode:multiply" opacity="0.44">
<g style="mix-blend-mode:multiply" opacity="0.44">
<path d="M134.228 193.237L130.388 203.05L112.785 248.029H111.014L128.389 192.581L134.228 193.237Z" fill="#CC9281"/>
</g>
</g>
<g style="mix-blend-mode:multiply" opacity="0.44">
<g style="mix-blend-mode:multiply" opacity="0.44">
<path d="M123.024 191.987L134.228 193.281L130.388 203.094C127.131 202.188 123.936 201.072 120.824 199.753C122.104 195.205 122.963 192.214 123.024 191.987Z" fill="#CC9281"/>
</g>
</g>
<path d="M169.375 248.029H163.816L158.267 206.924L156.11 190.937L156.759 191.024L167.279 192.468C167.279 192.8 167.507 198.764 167.805 206.671C168.428 223.148 169.375 248.029 169.375 248.029Z" fill="#FF6551"/>
<g style="mix-blend-mode:multiply" opacity="0.44">
<g style="mix-blend-mode:multiply" opacity="0.44">
<path d="M165.728 248.029H163.816L158.267 206.942L156.11 190.954L156.759 191.042L161.37 199.036L161.449 199.901L165.728 248.029Z" fill="#CC9281"/>
</g>
</g>
<g style="mix-blend-mode:multiply" opacity="0.44">
<g style="mix-blend-mode:multiply" opacity="0.44">
<path d="M167.279 192.485C167.279 192.817 167.507 198.782 167.805 206.688C164.491 206.907 161.309 206.985 158.267 206.942L156.11 190.954L167.279 192.485Z" fill="#CC9281"/>
</g>
</g>
<path d="M215.321 248.029H209.588L191.887 202.787L188.144 193.281L193.132 192.721L199.357 192.03C199.418 192.258 200.295 195.354 201.61 199.971C206.02 215.399 215.321 248.029 215.321 248.029Z" fill="#FF6551"/>
<g style="mix-blend-mode:multiply" opacity="0.44">
<g style="mix-blend-mode:multiply" opacity="0.44">
<path d="M211.28 248.029H209.588L191.888 202.787L188.145 193.281L193.133 192.721C196.289 202.56 207.484 236.52 211.28 248.029Z" fill="#CC9281"/>
</g>
</g>
<g style="mix-blend-mode:multiply" opacity="0.44">
<g style="mix-blend-mode:multiply" opacity="0.44">
<path d="M201.637 199.928C198.323 201.03 195.079 201.974 191.914 202.787L188.145 193.281L199.357 192.03C199.419 192.214 200.295 195.31 201.637 199.928Z" fill="#CC9281"/>
</g>
</g>
<path d="M216.487 144.077C216.381 144.952 216.259 145.783 216.127 146.631C215.711 149.405 215.126 152.15 214.374 154.852C214.33 155.036 214.277 155.211 214.225 155.386C211.551 165.085 210.078 174.679 199.462 181.028C197.41 182.253 194.763 183.127 192.667 184.273L192.562 184.334C188.391 186.618 183.954 188.38 179.351 189.581C165.604 193.342 150.166 194.986 136.297 190.981C132.239 189.789 128.504 187.696 125.373 184.859C124.119 183.724 122.948 182.503 121.867 181.203C121.621 180.914 121.384 180.626 121.148 180.328C120.911 180.031 120.674 179.734 120.446 179.454C119.57 178.238 118.693 176.97 117.878 175.667C117.378 174.845 116.905 174.014 116.449 173.174C116.265 172.842 116.089 172.501 115.914 172.16L115.651 171.644C115.484 171.312 115.309 170.962 115.151 170.621C115.064 170.446 114.985 170.28 114.906 170.105C114.827 169.93 114.617 169.484 114.476 169.178C114.336 168.872 114.204 168.548 114.064 168.242C113.661 167.297 113.275 166.353 112.907 165.399C112.539 164.446 112.188 163.484 111.855 162.513C111.154 160.502 110.505 158.455 109.9 156.391L109.786 156.015C109.164 153.89 108.567 151.756 107.98 149.613C105.35 139.993 102.72 130.137 103.106 120.149C103.4 112.198 105.815 104.469 110.102 97.7602C114.39 91.0511 120.394 85.6047 127.495 81.9828C133.974 78.7031 141.233 77.0852 148.386 76.1844C156.18 75.2048 164.166 74.5577 172.057 75.2048C177.404 75.6626 182.631 77.0446 187.504 79.2891C194.234 82.3889 200.194 86.9343 204.958 92.6001C212.612 101.687 215.706 114.753 216.785 126.341C217.307 132.247 217.207 138.192 216.487 144.077Z" fill="#864FF1"/>
<path d="M216.487 143.325C212.437 120.98 199.173 78.9218 157.013 85.0438C108.419 92.1103 108.708 141.261 109.839 155.674L109.725 155.298C109.103 153.173 108.506 151.039 107.919 148.896C105.289 139.276 102.659 129.42 103.045 119.432C103.34 111.48 105.756 103.751 110.043 97.0403C114.33 90.33 120.333 84.8817 127.434 81.2569C133.913 77.986 141.171 76.368 148.325 75.4672C156.119 74.4877 164.105 73.8405 171.996 74.4877C177.338 74.9354 182.562 76.3055 187.434 78.537C194.164 81.6287 200.125 86.1685 204.889 91.8304C212.542 100.917 215.637 113.983 216.715 125.571C217.261 131.481 217.185 137.432 216.487 143.325Z" fill="#A277F4"/>
<path style="mix-blend-mode:multiply" opacity="0.45" d="M216.487 143.325C216.382 144.2 216.268 145.074 216.136 145.879C215.716 148.652 215.13 151.397 214.383 154.1C214.339 154.284 214.286 154.459 214.242 154.634C211.612 164.254 211.551 172.746 203.722 179.122C201.873 180.626 194.956 182.357 192.694 183.538L192.588 183.599L125.4 184.133C124.146 182.998 122.974 181.777 121.893 180.477C121.648 180.189 121.411 179.9 121.174 179.603C120.937 179.305 120.701 179.008 120.473 178.728C119.596 177.512 118.719 176.244 117.904 174.941C117.404 174.119 116.922 173.288 116.475 172.449C116.291 172.116 116.116 171.775 115.94 171.434L115.677 170.918L115.178 169.895C115.09 169.72 115.011 169.554 114.932 169.379C114.783 169.073 114.643 168.758 114.503 168.452C114.362 168.146 114.231 167.822 114.091 167.516C113.687 166.571 113.302 165.627 112.933 164.674C112.565 163.72 112.214 162.758 111.881 161.788L112.591 156.234C112.591 156.234 122.068 164.411 162.825 161.919C203.582 159.426 215.163 145.179 216.487 143.325Z" fill="url(#paint0_linear_3529_1875)"/>
<path d="M206.572 171.696C206.292 172.134 206.011 172.571 205.695 172.991C203.912 175.671 201.801 178.118 199.41 180.276C196.21 182.957 192.621 185.139 188.767 186.748C175.069 192.678 160.054 194.93 145.213 193.281C142.28 193.029 139.379 192.49 136.552 191.672C129.138 189.275 122.864 184.245 118.922 177.539C118.45 176.748 118.02 175.934 117.633 175.099C117.449 174.705 117.273 174.303 117.098 173.892C116.905 173.437 128.118 169.353 161.967 169.519C194.404 169.641 203.249 169.274 206.221 171.434C206.343 171.515 206.46 171.602 206.572 171.696Z" fill="#864FF1"/>
<g style="mix-blend-mode:multiply" opacity="0.56">
<path d="M206.221 171.417C206.042 171.592 205.875 171.779 205.722 171.976C203.881 174.338 196.14 181.527 164.43 183.153C132.721 184.78 120.64 177.906 120.64 177.906L117.633 175.125C117.449 174.731 117.273 174.329 117.098 173.918C116.905 173.463 128.118 169.379 161.967 169.545C194.413 169.615 203.249 169.248 206.221 171.417Z" fill="#FFAE43"/>
</g>
<path d="M102.668 178.571C102.668 178.571 86.1247 145.888 97.0394 139.346C107.831 132.935 111.75 149.552 114.845 160.24C117.939 170.927 133.255 193.053 161.396 191.672C196.183 189.966 207.361 175.483 212.498 158.587C217.635 141.69 218.731 138.716 225.043 138.716C231.355 138.716 236.326 158.648 216.68 181.64C197.033 204.633 155.312 204.213 142.574 201.895C129.836 199.578 113.267 195.581 102.668 178.571Z" fill="#864FF1"/>
<path d="M151.236 224.993C151.209 225.054 151.17 225.108 151.12 225.152C151.07 225.196 151.01 225.228 150.946 225.246C149.918 225.644 148.863 225.971 147.79 226.226L143.67 227.302C139.418 228.421 135.148 229.541 130.826 230.371C129.982 230.585 129.108 230.656 128.24 230.581C127.836 230.55 127.455 230.38 127.162 230.1C126.978 229.873 126.849 229.607 126.785 229.322C126.443 228.113 126.383 226.841 126.61 225.605C126.993 223.368 128.212 221.359 130.02 219.982C131.457 218.965 133.146 218.361 134.903 218.234C136.661 218.108 138.419 218.464 139.988 219.264C140.354 219.492 140.753 219.66 141.171 219.763C141.38 219.812 141.599 219.799 141.8 219.724C142.002 219.649 142.176 219.517 142.302 219.343C142.407 219.134 142.461 218.903 142.46 218.67C142.529 217.081 142.191 215.501 141.478 214.078L146.414 213.667C147.659 216.139 148.804 218.664 149.85 221.241C150.324 222.395 150.727 223.559 151.2 224.739C151.24 224.817 151.253 224.907 151.236 224.993Z" fill="#495059"/>
<path d="M203.39 229.322C203.326 229.607 203.197 229.873 203.013 230.1C202.72 230.38 202.339 230.55 201.935 230.581C201.067 230.656 200.193 230.585 199.348 230.371C195.026 229.497 190.766 228.421 186.505 227.302L182.385 226.226C181.312 225.97 180.258 225.643 179.229 225.246C179.164 225.228 179.105 225.196 179.055 225.152C179.005 225.108 178.966 225.054 178.939 224.993C178.913 224.907 178.913 224.816 178.939 224.73C179.36 223.576 179.816 222.43 180.272 221.293C181.324 218.705 182.475 216.163 183.726 213.667L188.67 214.078C187.957 215.491 187.621 217.063 187.697 218.643C187.693 218.876 187.744 219.107 187.846 219.317C187.972 219.49 188.147 219.623 188.348 219.698C188.549 219.772 188.768 219.786 188.977 219.737C189.397 219.637 189.797 219.468 190.161 219.238C191.729 218.438 193.488 218.082 195.245 218.208C197.002 218.335 198.691 218.939 200.129 219.955C201.147 220.737 201.987 221.726 202.592 222.857C203.197 223.988 203.552 225.235 203.635 226.515C203.719 227.458 203.636 228.408 203.39 229.322Z" fill="#495059"/>
<path d="M176.686 153.051C173.626 152.727 154.445 154.8 146.633 154.581C145.704 150.383 144.354 145.319 143.214 140.667C142.375 136.797 141.789 132.876 141.461 128.93C141.242 126.691 144.091 125.029 148.027 124.461C155.532 123.385 165.692 122.493 171.584 123.499C172.732 123.691 178.08 125.248 178.466 126.324C180.07 130.775 177.089 149.334 176.686 153.051Z" fill="white"/>
<path d="M202.513 179.725C202.493 178.793 202.339 177.868 202.057 176.979C201.684 175.968 201.152 175.023 200.479 174.18C197.919 170.883 194.175 168.723 190.379 166.965C188.143 165.896 185.821 165.019 183.436 164.341C182.355 164.051 181.257 163.826 180.149 163.668C175.923 163.091 171.645 163.668 167.375 163.773V163.677C166.595 163.747 165.815 163.782 165.043 163.799C164.272 163.817 163.483 163.747 162.711 163.677C162.706 163.708 162.706 163.741 162.711 163.773C158.451 163.65 154.164 163.091 149.938 163.668C148.286 163.906 146.658 164.29 145.073 164.814C143.243 165.418 141.452 166.13 139.707 166.947C135.92 168.697 132.168 170.866 129.617 174.163C128.941 175.005 128.405 175.95 128.03 176.961C127.667 178.132 127.513 179.358 127.574 180.582C127.587 181.46 127.651 182.336 127.767 183.206C128.425 187.057 129.501 190.825 130.976 194.444C131.116 194.829 131.274 195.231 131.44 195.642C134.675 203.688 142.171 216.37 142.171 216.37C143.047 216.684 145.029 216.072 146.3 215.609C146.984 215.364 147.466 215.154 147.466 215.154C147.466 215.154 147.08 212.005 146.949 210.589C146.642 207.414 146.195 204.248 145.607 201.117C144.909 198.171 144.522 195.161 144.45 192.135C144.411 190.789 144.752 189.459 145.432 188.296C146.589 186.547 148.763 185.864 150.789 185.366C152.814 184.867 155.067 184.413 157.206 183.94C162.353 182.795 167.69 182.795 172.837 183.94C174.976 184.413 177.133 184.815 179.254 185.366C181.376 185.917 183.454 186.564 184.611 188.296C185.294 189.458 185.637 190.788 185.602 192.135C185.68 195.152 184.988 198.143 184.436 201.117C183.848 204.248 183.401 207.414 183.094 210.589C182.963 212.005 182.586 215.154 182.586 215.154C182.586 215.154 183.384 215.504 184.392 215.836C185.619 216.238 187.136 216.632 187.898 216.37C187.898 216.37 196.183 202.376 199.094 194.444C199.514 193.298 199.97 192.144 200.33 190.989C201.594 187.66 202.33 184.155 202.513 180.6C202.513 180.311 202.513 180.014 202.513 179.725Z" fill="#49B3F7"/>
<g style="mix-blend-mode:multiply" opacity="0.4">
<g style="mix-blend-mode:multiply" opacity="0.4">
<path d="M183.445 164.359C183.445 164.359 179.386 169.904 165.727 170.831C154.173 171.618 147.045 166.458 145.125 164.831C146.713 164.306 148.344 163.923 150 163.685C154.217 163.108 158.504 163.685 162.764 163.79C162.764 163.79 162.764 163.729 162.764 163.694C163.536 163.764 164.316 163.799 165.096 163.816C165.877 163.834 166.648 163.764 167.428 163.694V163.79C171.698 163.668 175.976 163.108 180.201 163.685C181.295 163.845 182.378 164.07 183.445 164.359Z" fill="#3DA6C0"/>
</g>
</g>
<path d="M178.606 134.851C178.948 138.2 179.579 162.898 178.86 163.545C175.099 166.939 170.269 167.236 165.903 167.376C159.766 167.56 153.34 167.376 148.167 164.158C147.405 163.677 147.045 160.659 146.861 159.732C145.108 151.135 141.855 137.798 141.25 134.851H178.606Z" fill="white"/>
<path d="M168.629 146.789C163.842 147.27 158.433 147.724 155.005 151.511L163.062 151.669C165.529 151.822 168.005 151.649 170.426 151.153C170.382 150.777 169.812 146.675 169.497 146.71L168.629 146.789Z" fill="#FFBF94"/>
<path d="M177.545 125.668C177.545 125.668 197.709 141.218 198.927 144.034C200.146 146.85 198.419 149.832 194.369 149.369C190.318 148.905 176.44 137.194 176.44 137.194C176.44 137.194 171.066 133.18 171.592 130.347C172.118 127.513 174.17 124.365 177.545 125.668Z" fill="white"/>
<path d="M196.841 142.092C189.126 137.544 174.047 143.439 166.867 146.701C169.497 148.879 168.621 151.074 168.84 151.459C168.84 151.459 186.785 151.153 193.141 150.969C199.497 150.785 201.321 144.742 196.841 142.092Z" fill="white"/>
<path d="M167.708 146.421C170.128 145.94 172.486 144.725 174.801 143.885C177.09 143.039 179.433 142.343 181.814 141.804C184.02 141.324 186.265 141.049 188.521 140.981C190.869 140.816 193.229 140.975 195.534 141.454C195.534 141.454 195.534 141.454 195.534 141.41C193.474 140.603 191.286 140.168 189.073 140.124C186.729 140.128 184.393 140.383 182.104 140.885C179.618 141.458 177.184 142.236 174.827 143.212C172.359 144.044 169.974 145.101 167.7 146.369V146.421H167.708Z" fill="#D6D6D6"/>
<g style="mix-blend-mode:multiply" opacity="0.4">
<g style="mix-blend-mode:multiply" opacity="0.4">
<path d="M151.236 224.993C151.21 225.054 151.17 225.108 151.12 225.152C151.07 225.196 151.011 225.228 150.947 225.246C149.918 225.644 148.864 225.971 147.791 226.226L143.67 227.302C139.418 228.421 135.149 229.541 130.827 230.371C129.983 230.585 129.109 230.656 128.241 230.581C127.836 230.55 127.455 230.38 127.162 230.1C126.978 229.873 126.849 229.607 126.785 229.322C126.443 228.113 126.383 226.841 126.61 225.605C128.363 226.48 133.983 228.631 143.118 225.273C145.635 224.445 147.935 223.067 149.851 221.241C150.324 222.395 150.728 223.559 151.201 224.739C151.241 224.817 151.253 224.907 151.236 224.993Z" fill="#495059"/>
</g>
</g>
<g style="mix-blend-mode:multiply" opacity="0.4">
<g style="mix-blend-mode:multiply" opacity="0.4">
<path d="M203.389 229.322C203.325 229.607 203.196 229.873 203.012 230.1C202.72 230.38 202.339 230.55 201.934 230.581C201.066 230.656 200.192 230.585 199.348 230.371C195.026 229.497 190.765 228.421 186.505 227.302L182.384 226.226C181.311 225.97 180.257 225.643 179.228 225.246C179.164 225.228 179.105 225.196 179.055 225.152C179.005 225.108 178.965 225.054 178.939 224.993C178.913 224.907 178.913 224.816 178.939 224.73C179.36 223.576 179.815 222.43 180.271 221.293C183.866 224.251 188.194 226.188 192.799 226.899C196.41 227.443 200.09 227.312 203.652 226.515C203.73 227.459 203.641 228.409 203.389 229.322Z" fill="#495059"/>
</g>
</g>
<g style="mix-blend-mode:multiply" opacity="0.4">
<g style="mix-blend-mode:multiply" opacity="0.4">
<path d="M184.444 215.889C183.436 215.556 182.639 215.206 182.639 215.206C182.639 215.206 183.016 212.058 183.147 210.641C183.454 207.466 183.901 204.3 184.488 201.17C185.041 198.196 185.733 195.205 185.654 192.188C185.69 190.841 185.347 189.511 184.664 188.348C183.506 186.599 181.332 185.917 179.307 185.418C177.282 184.92 175.029 184.465 172.89 183.993C167.743 182.847 162.406 182.847 157.259 183.993C155.12 184.465 152.963 184.867 150.841 185.418C148.72 185.969 146.642 186.617 145.485 188.348C144.804 189.511 144.464 190.841 144.503 192.188C144.576 195.208 144.963 198.212 145.66 201.152C146.248 204.283 146.695 207.449 147.001 210.624C147.133 212.04 147.519 215.189 147.519 215.189C147.519 215.189 147.037 215.399 146.353 215.644C146.353 215.644 136.21 190.972 141.329 185.637C146.449 180.302 159.03 177.827 166.008 177.897C172.986 177.967 184.269 180.101 188.144 184.299C192.019 188.497 183.717 211.376 184.444 215.889Z" fill="#3DA6C0"/>
</g>
</g>
<g style="mix-blend-mode:multiply" opacity="0.4">
<g style="mix-blend-mode:multiply" opacity="0.4">
<path d="M202.512 180.6C202.338 184.172 201.604 187.696 200.338 191.042C200.11 190.893 199.891 190.727 199.671 190.552C198.339 189.515 197.371 188.081 196.91 186.459C196.839 186.172 196.839 185.872 196.91 185.585C197.076 185.016 197.673 184.71 198.19 184.421C200.094 183.355 201.624 181.731 202.573 179.769C202.512 180.014 202.512 180.311 202.512 180.6Z" fill="#3DA6C0"/>
</g>
</g>
<g style="mix-blend-mode:multiply" opacity="0.4">
<g style="mix-blend-mode:multiply" opacity="0.4">
<path d="M134.764 190.867C134.597 192.223 133.492 193.237 132.598 194.269C132.198 194.719 131.829 195.195 131.494 195.695C131.327 195.284 131.169 194.881 131.029 194.497C129.554 190.877 128.478 187.109 127.82 183.258C128.418 184.072 129.077 184.838 129.793 185.55C131.152 186.905 132.66 188.103 134.132 189.354C134.311 189.493 134.468 189.658 134.597 189.844C134.766 190.157 134.825 190.517 134.764 190.867Z" fill="#3DA6C0"/>
</g>
</g>
<path d="M171.592 123.534C171.417 123.945 169.015 129.542 162.825 129.787C157.259 130.006 153.314 124.854 152.56 123.779C158.951 122.93 165.464 122.484 171.592 123.534Z" fill="#D6D6D6"/>
<path d="M170.259 116.546L169.497 119.895L168.822 122.895L168.769 123.149C168.769 123.149 167.463 127.137 162.238 127.233C157.013 127.329 155.54 123.42 155.54 123.42V122.615L155.426 119.589L155.294 115.907C155.294 101.914 166.902 116.948 166.902 116.948L168.024 116.686L168.094 117.403L170.259 116.546Z" fill="#EA9573"/>
<g style="mix-blend-mode:multiply" opacity="0.09">
<path d="M169.497 119.895L168.822 122.895C167.032 124.091 164.943 124.766 162.79 124.846C160.24 124.696 157.764 123.931 155.575 122.615L155.461 119.589L166.937 116.966L168.129 117.42L169.497 119.895Z" fill="#DD664A"/>
</g>
<path d="M195.088 103.384L194.93 103.777C194.072 105.913 192.867 107.893 191.362 109.637C189.284 111.911 186.505 113.397 183.787 114.884C179.089 117.536 174.195 119.825 169.147 121.732C166.464 122.668 163.588 123.394 160.801 122.869C158.551 122.32 156.435 121.327 154.576 119.948C148.776 116.079 143.491 111.492 138.849 106.296C137.249 104.675 135.986 102.755 135.131 100.646C134.487 98.3731 134.294 95.9965 134.562 93.6496C134.562 93.0461 134.632 92.4514 134.676 91.9004C135.449 80.3114 137.426 68.8338 140.576 57.6522L140.918 56.7251C140.979 51.4777 146.099 47.7345 150.999 45.793C156.613 43.5998 162.607 42.5371 168.635 42.6662C174.662 42.7953 180.605 44.1136 186.119 46.5451C190.915 48.6966 195.438 51.7925 198.393 56.1654C201.689 61.028 202.776 67.115 202.513 72.9834C202.25 78.8518 200.76 84.589 199.261 90.265C198.181 94.7303 196.786 99.1141 195.088 103.384Z" fill="#FFBF94"/>
<g style="mix-blend-mode:multiply" opacity="0.09">
<path d="M194.93 103.777C194.072 105.913 192.867 107.893 191.362 109.637C189.284 111.911 186.505 113.397 183.787 114.884C179.089 117.536 174.195 119.825 169.147 121.732C166.464 122.668 163.588 123.394 160.801 122.869C158.551 122.32 156.435 121.327 154.576 119.948C148.776 116.079 143.491 111.492 138.849 106.296C137.249 104.675 135.986 102.755 135.131 100.646C134.487 98.3731 134.294 95.9965 134.562 93.6496C134.562 93.0461 134.632 92.4514 134.676 91.9004C134.939 92.1453 136.14 91.9004 136.429 92.6351C139.436 101.031 151.332 113.922 162.519 116.651C173.705 119.379 193.536 103.174 193.536 103.174L194.93 103.777Z" fill="#DD664A"/>
</g>
<g style="mix-blend-mode:multiply" opacity="0.09">
<path d="M139.181 75.2136L138.787 78.0647C138.787 78.0647 147.282 69.4239 148.027 61.2204C148.027 61.2204 152.77 68.217 163.754 71.5404C174.739 74.8638 181.411 71.8815 181.411 71.8815C181.411 71.8815 178.448 69.0041 177.738 66.5028C177.738 66.5028 186.986 71.1818 193.15 68.1645C193.15 68.1645 190.861 73.9105 194.719 81.4143C198.576 88.9181 198.673 91.5331 198.673 91.5331L202.512 71.9777L196.279 55.0372L177.816 51.9937L151.84 52.4747L145.756 51.434C145.756 51.434 142.32 57.0662 141.995 58.3081C141.671 59.55 139.181 75.2136 139.181 75.2136Z" fill="#DD664A"/>
</g>
<path d="M135.736 81.9565C135.254 79.5864 134.816 77.1989 134.413 74.8113L134.281 74.0329C133.211 67.4211 132.528 60.5208 134.79 54.2238C135.822 51.3188 137.542 48.7056 139.804 46.6063C140.505 45.9619 141.259 45.3768 142.057 44.8572C144.48 43.2174 147.387 42.4409 150.307 42.6532V42.9331C147.607 46.825 146.642 51.4252 145.923 56.1654C145.49 59.9426 144.841 63.692 143.977 67.3949C142.49 72.8583 139.657 77.864 135.736 81.9565Z" fill="#672410"/>
<path d="M201.066 104.949C198.411 105.191 195.75 104.548 193.5 103.121C192.941 102.778 192.405 102.398 191.896 101.984L196.376 93.5796C198.383 90.9559 202.162 89.5478 205.143 90.9559C206.622 91.664 207.766 92.9187 208.334 94.4542C208.946 95.9995 209.001 97.7088 208.492 99.2906C207.896 100.825 206.888 102.165 205.578 103.163C204.267 104.162 202.706 104.78 201.066 104.949Z" fill="#FFBF94"/>
<path d="M204.643 85.1662C202.974 87.9736 200.927 90.5396 198.559 92.7925C199.155 88.6383 197.419 84.554 196.438 80.4698C196.148 79.2464 195.922 78.0086 195.763 76.7616C195.225 72.4731 195.493 68.1224 196.552 63.9316L205.73 58.5967L206.502 58.1507L206.949 58.4393C209.185 60.0747 209.798 63.2757 209.833 66.1093C209.893 72.8169 208.098 79.4111 204.643 85.1662Z" fill="#672410"/>
<g style="mix-blend-mode:multiply" opacity="0.32">
<path d="M204.643 85.1662C206.686 78.9305 209.255 68.8204 204.258 69.4239C199.261 70.0274 196.841 74.1903 195.763 76.7441C195.225 72.4556 195.493 68.1049 196.552 63.9141L205.73 58.5967L206.949 58.4393C209.185 60.0747 209.798 63.2757 209.833 66.1093C209.893 72.8169 208.098 79.4111 204.643 85.1662Z" fill="#672410"/>
</g>
<path d="M154.024 72.756C153.986 72.5698 153.899 72.3974 153.77 72.2575C153.603 72.1145 153.405 72.0127 153.191 71.9602C151.867 71.6103 150.298 72.1963 149.036 72.5899C147.456 73.0085 146.004 73.8107 144.81 74.925C144.109 75.6334 143.127 76.989 144.249 77.8023C145.503 78.6769 147.414 77.8023 148.632 77.2863C150.386 76.5429 154.042 75.4672 154.068 73.1321C154.071 73.0053 154.056 72.8788 154.024 72.756Z" fill="#672410"/>
<path d="M191.423 83.0847C191.081 81.458 189.082 80.1287 187.715 79.429C185.668 78.2592 183.252 77.9091 180.955 78.4495C180.643 78.5134 180.358 78.6723 180.14 78.9043C180.022 79.0898 179.958 79.3052 179.958 79.5252C179.958 79.7452 180.022 79.9607 180.14 80.1462C180.363 80.519 180.661 80.8408 181.017 81.0907C182.19 81.9533 183.423 82.7308 184.708 83.4171C185.881 84.1407 187.154 84.6887 188.486 85.0438C189.792 85.3411 191.791 84.8339 191.423 83.0847Z" fill="#672410"/>
<path d="M170.233 110.809C169.423 111.685 168.423 112.367 167.31 112.802C166.197 113.237 164.999 113.413 163.807 113.319C162.551 113.266 161.322 112.936 160.21 112.352C159.097 111.768 158.128 110.946 157.372 109.943C156.242 108.425 155.425 106.698 154.97 104.862C154.816 104.287 154.702 103.703 154.628 103.112C154.891 103.112 165.543 107.345 173.468 104.057C173.314 104.917 173.079 105.76 172.767 106.576C172.21 108.139 171.349 109.578 170.233 110.809Z" fill="#AA3333"/>
<path d="M172.776 106.549C170.078 107.852 167.07 108.382 164.088 108.08C160.848 107.702 157.735 106.602 154.979 104.862C154.825 104.287 154.711 103.703 154.637 103.112C154.9 103.112 165.552 107.345 173.477 104.057C173.321 104.908 173.086 105.742 172.776 106.549Z" fill="white"/>
<path d="M170.233 110.809C169.423 111.685 168.423 112.367 167.31 112.802C166.197 113.237 164.999 113.413 163.807 113.319C162.551 113.266 161.322 112.936 160.21 112.352C159.097 111.768 158.128 110.946 157.373 109.943C158.389 109.633 159.459 109.536 160.515 109.658C161.571 109.779 162.591 110.118 163.509 110.651C163.509 110.651 164.877 108.981 170.233 110.809Z" fill="#FF6551"/>
<g style="mix-blend-mode:multiply" opacity="0.25">
<path d="M200.234 97.6726C202.426 96.9117 204.617 95.1276 204.81 92.7313C204.814 92.7004 204.807 92.6691 204.791 92.6426C204.774 92.616 204.75 92.5956 204.721 92.5845C204.691 92.5735 204.659 92.5725 204.63 92.5816C204.6 92.5908 204.574 92.6096 204.556 92.6351C203.223 94.6291 201.847 96.3608 199.366 96.9117C199.282 96.9264 199.203 96.9622 199.137 97.0157C199.071 97.0693 199.02 97.1387 198.988 97.2176C198.957 97.2964 198.946 97.382 198.957 97.4663C198.968 97.5505 199 97.6305 199.05 97.6988C199.591 98.4124 199.95 99.247 200.094 100.13C200.092 100.832 200.217 101.528 200.462 102.185C200.477 102.218 200.499 102.246 200.526 102.268C200.554 102.291 200.586 102.307 200.62 102.315C200.655 102.324 200.691 102.324 200.726 102.317C200.76 102.31 200.793 102.295 200.821 102.273C201.987 101.127 201.102 98.9932 200.234 97.6726Z" fill="#DD664A"/>
</g>
<path d="M159.24 114.7C159.723 115.427 160.372 116.028 161.135 116.454C161.897 116.88 162.75 117.118 163.623 117.149C164.561 117.149 166.884 116.695 166.893 115.461C166.893 115.391 166.893 115.313 166.779 115.313C166.288 115.313 166.113 115.575 165.666 115.811C165.016 116.134 164.297 116.293 163.571 116.275C162.044 116.141 160.62 115.449 159.573 114.333C159.345 114.115 159.038 114.473 159.205 114.7H159.24Z" fill="#DD664A"/>
<path d="M207.396 60.1272C205.23 62.6897 202.136 64.194 198.953 65.5845C194.61 67.5203 190.073 68.9892 185.417 69.9662C176.414 71.8377 166.437 71.6016 158.556 66.3629C157.451 65.6283 148.623 59.7162 144.827 56.043L143.775 52.4047L141.776 45.5568C141.976 44.3208 142.269 43.1017 142.653 41.9099C145.651 32.5432 153.787 29.3947 162.519 27.2608C172.934 24.7158 185.584 27.6631 194.886 32.5082C195.675 32.9193 196.446 33.3828 197.218 33.8026C201.356 36.2339 205.222 39.3299 207.738 43.4229C210.254 47.5159 211.113 52.7546 209.272 57.1799C208.8 58.2516 208.167 59.2454 207.396 60.1272Z" fill="#672410"/>
<path d="M135.737 81.9566C135.254 79.5865 134.816 77.1989 134.413 74.8113L134.281 74.0329C144.179 68.7855 139.804 46.6064 139.804 46.6064C140.505 45.9619 141.259 45.3769 142.057 44.8572C143.983 48.3801 145.293 52.2041 145.932 56.1654C145.499 59.9427 144.85 63.692 143.986 67.3949C142.497 72.8592 139.661 77.865 135.737 81.9566Z" fill="#56170D"/>
<path d="M138.235 91.3494C137.647 91.7517 137.034 92.1628 136.402 92.5301C134.596 93.5883 132.65 94.3755 130.651 93.9557C127.864 93.3784 124.857 90.8422 124.094 88.0785C123.728 86.5779 123.839 85.0012 124.409 83.5658C124.666 82.8816 124.986 82.2228 125.365 81.598C125.873 80.6827 126.538 79.8629 127.329 79.1754C130.748 76.2718 134.675 78.0559 138.086 79.945L138.235 91.3494Z" fill="#FFBF94"/>
<g style="mix-blend-mode:multiply" opacity="0.25">
<path d="M133.106 86.4518C131.309 84.9913 130.8 82.7611 130.853 80.5485C130.859 80.4982 130.846 80.4474 130.817 80.4056C130.789 80.3638 130.746 80.3338 130.697 80.321C130.648 80.3082 130.596 80.3136 130.55 80.3361C130.505 80.3586 130.469 80.3968 130.449 80.4435C129.485 82.665 130.406 85.1225 132.01 86.7842C131.342 87.2367 130.711 87.7427 130.125 88.2972C129.419 88.8425 128.874 89.5676 128.547 90.3962C128.504 90.5192 128.501 90.6528 128.539 90.7775C128.577 90.9023 128.654 91.0117 128.758 91.0898C128.863 91.1678 128.99 91.2105 129.121 91.2116C129.251 91.2127 129.379 91.1721 129.485 91.0958C130.08 90.5295 130.607 89.8955 131.054 89.2067C131.659 88.4733 132.351 87.8155 133.115 87.2477C133.176 87.2006 133.225 87.1399 133.259 87.0705C133.293 87.001 133.31 86.9247 133.309 86.8476C133.308 86.7704 133.289 86.6946 133.254 86.6259C133.219 86.5572 133.168 86.4976 133.106 86.4518Z" fill="#DD664A"/>
</g>
<path d="M182.349 51.0754C182.574 51.0229 182.808 51.0229 183.033 51.0754C184.282 51.3865 185.469 51.9102 186.54 52.6234C189.86 54.491 193.52 55.6803 197.305 56.1217C195.901 54.2052 195.229 51.8509 195.412 49.4837C195.414 49.1339 195.52 48.7927 195.719 48.5042C195.905 48.32 196.144 48.197 196.402 48.1517C196.661 48.1063 196.927 48.1408 197.165 48.2505C197.636 48.4677 198.066 48.7635 198.436 49.1251C199.484 50.0955 200.764 50.782 202.153 51.1191C207.291 52.1336 205.704 47.2623 206.256 44.1663C206.204 44.4899 206.958 45.5744 207.089 45.9154C207.374 46.6551 207.592 47.4191 207.738 48.1981C208.037 49.7598 208.052 51.3625 207.782 52.9295C207.358 55.7258 205.842 58.2411 203.565 59.9261C200.058 62.4274 195.333 62.3924 191.361 61.2379C189.652 60.7457 188.062 59.9093 186.689 58.7804C187.485 61.9809 189.05 64.9404 191.248 67.4037C185.172 66.3892 180.315 63.4681 175.274 60.0573C177.194 63.2844 179.211 66.6078 182.288 68.803C180.005 68.529 177.807 67.7716 175.842 66.5816C173.876 65.3915 172.188 63.7963 170.891 61.9026C171.56 65.3827 173.446 68.5128 176.212 70.7358C174.459 70.7883 172.644 71.0157 170.909 70.902C168.999 70.7284 167.118 70.3231 165.307 69.6951C161.66 68.4881 152.288 63.4069 145.879 56.3491C145.879 56.2879 145.879 56.2179 145.879 56.1567C145.572 54.2664 145.115 52.4036 144.512 50.5857C144.643 50.9967 151.525 59.7949 166.376 65.1036C165.736 64.8762 165.35 61.6053 165.254 60.9843C164.966 59.4247 164.981 57.8244 165.298 56.2704C165.417 55.8476 165.673 55.4757 166.025 55.2121C167.06 54.5125 167.691 55.7019 168.27 56.3841C169.458 57.9407 170.923 59.2659 172.592 60.2934C172.145 58.037 171.715 55.6319 172.697 53.4368C173.179 52.3523 176.528 55.597 176.817 55.8243C177.916 56.7705 179.088 57.6274 180.324 58.3868C181.381 58.8085 182.382 59.3578 183.305 60.0223C181.819 57.6098 181.259 54.7426 181.727 51.95C181.742 51.6584 181.867 51.3834 182.077 51.1804C182.16 51.1272 182.252 51.0915 182.349 51.0754Z" fill="#56170D"/>
<g style="mix-blend-mode:screen" opacity="0.28">
<g style="mix-blend-mode:screen" opacity="0.28">
<path d="M206.221 36.7324C206.116 36.9073 206.002 37.0735 205.888 37.2309C204.357 39.3761 202.304 41.0979 199.922 42.2345C197.541 43.3712 194.909 43.8854 192.273 43.729C188.162 43.4316 184.313 41.4901 180.201 41.1052C179.209 40.9389 178.189 41.0825 177.282 41.5163C175.949 42.2772 175.371 44.0001 174.003 44.7085C172.636 45.4169 171.128 44.9359 169.9 44.1662C168.673 43.3966 167.656 42.3296 166.394 41.6037C165.131 40.8779 163.501 40.5368 162.291 41.3239C160.345 42.5833 160.8 45.6005 159.494 47.5071C158.372 49.1426 156.145 49.6411 154.146 49.5274C149.342 49.2563 145.117 46.1078 142.592 41.9536C146.975 28.3365 162.343 26.2113 172.136 28.1178C190.125 31.6161 194.693 37.3796 200.795 37.3096C202.617 37.276 204.433 37.0828 206.221 36.7324Z" fill="#672410"/>
</g>
</g>
<g style="mix-blend-mode:multiply" opacity="0.09">
<g style="mix-blend-mode:multiply" opacity="0.09">
<path d="M169.488 95.5212C169.303 95.0116 169.013 94.5463 168.637 94.1547C168.261 93.7632 167.807 93.4542 167.305 93.2473C166.298 92.8376 165.206 92.6756 164.123 92.775C162.641 92.8712 161.116 93.291 160.353 94.6903C160.18 94.9704 160.1 95.298 160.125 95.6261C160.151 95.8564 160.263 96.0686 160.438 96.2207C160.614 96.3729 160.84 96.4541 161.072 96.4482C161.307 96.3974 161.53 96.3024 161.729 96.1683C162.873 95.7079 164.146 95.683 165.306 96.0984C166.453 96.5173 167.662 96.7391 168.883 96.7543C168.998 96.7529 169.111 96.7292 169.216 96.6843C169.611 96.5007 169.628 95.941 169.488 95.5212Z" fill="#DD664A"/>
</g>
</g>
<path d="M168.577 98.3723C168.322 97.0254 165.675 96.8505 164.561 96.8068C163.08 96.7456 161.379 96.903 160.301 98.0224C160.301 98.0224 160.301 98.1449 160.353 98.1536C161.782 98.2323 163.176 97.8563 164.614 98.0137C165.413 98.0949 166.196 98.2923 166.937 98.5997C167.49 98.8183 167.814 99.0632 168.349 98.7921C168.427 98.7555 168.491 98.6951 168.532 98.6195C168.573 98.544 168.589 98.4574 168.577 98.3723Z" fill="#DD664A"/>
<g style="mix-blend-mode:multiply" opacity="0.09">
<path d="M136.402 92.5301C134.596 93.5883 132.65 94.3755 130.651 93.9557C127.864 93.3784 124.857 90.8422 124.094 88.0785C123.728 86.5779 123.839 85.0012 124.409 83.5657C124.666 82.8816 124.986 82.2228 125.365 81.598C125.286 83.3209 125.812 90.2387 136.402 92.5301Z" fill="#DD664A"/>
</g>
<g style="mix-blend-mode:multiply" opacity="0.09">
<path d="M201.067 104.949C198.412 105.191 195.751 104.548 193.501 103.121C204.801 104.564 208.352 94.3755 208.352 94.3755C208.964 95.9208 209.02 97.6301 208.51 99.2119C207.925 100.763 206.919 102.121 205.605 103.134C204.29 104.148 202.719 104.776 201.067 104.949Z" fill="#DD664A"/>
</g>
<path d="M150.605 95.6786C154.168 95.6786 157.057 92.7967 157.057 89.2417C157.057 85.6867 154.168 82.8049 150.605 82.8049C147.041 82.8049 144.152 85.6867 144.152 89.2417C144.152 92.7967 147.041 95.6786 150.605 95.6786Z" fill="white"/>
<path d="M154.226 91.5989C154.836 89.0181 153.234 86.4321 150.647 85.823C148.06 85.2138 145.468 86.8122 144.857 89.3931C144.246 91.9739 145.849 94.5599 148.436 95.169C151.023 95.7781 153.615 94.1798 154.226 91.5989Z" fill="#191919"/>
<path d="M148.623 92.5564C148.623 92.8106 148.547 93.0592 148.406 93.2706C148.264 93.482 148.063 93.6468 147.827 93.7441C147.592 93.8414 147.333 93.8669 147.083 93.8173C146.833 93.7677 146.603 93.6452 146.423 93.4654C146.243 93.2856 146.12 93.0566 146.07 92.8072C146.02 92.5578 146.046 92.2993 146.144 92.0644C146.241 91.8295 146.406 91.6287 146.618 91.4874C146.83 91.3462 147.079 91.2708 147.334 91.2708C147.676 91.2708 148.004 91.4062 148.245 91.6473C148.487 91.8884 148.623 92.2154 148.623 92.5564Z" fill="white"/>
<path d="M181.2 99.0107C184.764 99.0107 187.653 96.1288 187.653 92.5738C187.653 89.0188 184.764 86.137 181.2 86.137C177.637 86.137 174.748 89.0188 174.748 92.5738C174.748 96.1288 177.637 99.0107 181.2 99.0107Z" fill="white"/>
<path d="M183.542 97.2425C185.421 95.3675 185.421 92.3274 183.542 90.4523C181.662 88.5773 178.615 88.5773 176.735 90.4523C174.856 92.3274 174.856 95.3675 176.735 97.2425C178.615 99.1176 181.662 99.1176 183.542 97.2425Z" fill="#191919"/>
<path d="M179.228 95.8972C179.228 96.1532 179.152 96.4035 179.01 96.6163C178.867 96.8292 178.664 96.9951 178.427 97.0931C178.19 97.191 177.929 97.2167 177.678 97.1667C177.426 97.1168 177.195 96.9935 177.013 96.8125C176.832 96.6314 176.708 96.4008 176.658 96.1497C176.608 95.8987 176.634 95.6384 176.732 95.4019C176.83 95.1654 176.997 94.9632 177.21 94.821C177.423 94.6788 177.674 94.6028 177.931 94.6028C178.102 94.6017 178.271 94.6344 178.429 94.699C178.587 94.7636 178.73 94.8589 178.851 94.9794C178.972 95.0998 179.067 95.2429 179.132 95.4005C179.197 95.5581 179.229 95.7269 179.228 95.8972Z" fill="white"/>
<path d="M151.937 157.039C151.91 157.038 151.884 157.03 151.862 157.014C151.84 156.998 151.823 156.976 151.814 156.951L151.148 154.791C151.143 154.774 151.141 154.757 151.142 154.739C151.144 154.722 151.149 154.705 151.157 154.689C151.165 154.674 151.176 154.66 151.19 154.649C151.203 154.638 151.219 154.63 151.236 154.625C151.252 154.619 151.27 154.617 151.287 154.619C151.305 154.62 151.322 154.625 151.337 154.633C151.353 154.642 151.367 154.653 151.378 154.666C151.389 154.68 151.397 154.695 151.402 154.712L152.069 156.872C152.077 156.906 152.073 156.942 152.057 156.972C152.041 157.003 152.014 157.027 151.981 157.039H151.937Z" fill="#2A2B2A"/>
<path d="M147.282 134.099C145.529 136.425 142.977 138.41 140.873 140.439C139.786 141.48 138.515 142.477 137.533 143.596C135.948 145.593 134.207 147.462 132.326 149.185C131.616 149.83 130.853 150.415 130.046 150.934C127.004 152.744 120.929 153.016 121.762 148.03C122.296 144.786 134.035 132.787 140.707 128.012C142.188 126.953 143.793 125.886 145.607 125.825C146.692 125.805 147.742 126.199 148.544 126.927C149.105 127.414 149.452 128.102 149.509 128.842C149.631 130.583 148.325 132.752 147.282 134.099Z" fill="white"/>
<path d="M147.545 148.302C147.545 148.302 150.894 156.715 151.832 156.505C152.77 156.295 150.018 146.99 150.018 146.99L147.545 148.302Z" fill="#2435A1"/>
<path d="M145.721 144.506C145.467 143.894 145.274 143.317 144.994 142.617C143.889 139.775 142.837 136.574 143.354 135.716C144.161 134.361 147.273 140.089 148.614 144.742L145.721 144.506Z" fill="#2435A1"/>
<path d="M155.339 149.552C155.444 150.523 155.181 151.223 154.085 151.03C153.583 150.872 153.14 150.568 152.814 150.156C152.761 150.479 152.91 150.838 152.814 151.144C152.714 151.316 152.554 151.444 152.364 151.504C152.174 151.564 151.969 151.551 151.788 151.468C151.431 151.292 151.128 151.023 150.912 150.689C150.946 150.98 150.946 151.273 150.912 151.564C150.904 151.638 150.874 151.709 150.824 151.765C150.767 151.811 150.695 151.833 150.622 151.826C150.047 151.866 149.47 151.767 148.941 151.535C148.413 151.303 147.949 150.947 147.589 150.497C147.326 153.374 143.758 150.917 142.487 150.497C141.68 150.226 140.47 149.928 140.146 149.027C138.971 145.722 143.653 144.217 145.976 143.902C147.496 143.598 149.051 143.507 150.596 143.631C151.858 143.815 153.279 144.191 153.91 145.381C154.596 146.691 155.078 148.097 155.339 149.552Z" fill="#FFBF94"/>
<path d="M124.015 152.019C123.606 151.908 123.223 151.718 122.889 151.459C122.555 151.2 122.275 150.877 122.067 150.509C121.859 150.141 121.726 149.736 121.677 149.316C121.628 148.897 121.662 148.471 121.779 148.065C122.006 147.02 122.547 146.069 123.33 145.339C124.114 144.609 125.102 144.135 126.163 143.981C130.081 143.556 134.026 143.436 137.963 143.623C140.137 143.728 142.346 143.483 144.529 143.763C142.609 145.897 142.601 149.762 143.206 152.281C143.214 152.281 127.82 152.928 124.015 152.019Z" fill="white"/>
<path d="M142.609 138.069L136.472 143.317C135.054 143.568 133.662 143.955 132.317 144.471C136.183 144.314 140.054 144.357 143.915 144.602L144.529 143.728L137.858 143.29L142.241 139.32L142.609 138.069Z" fill="#D6D6D6"/>
<path d="M193.597 150.969H132.326V152.281H193.597V150.969Z" fill="#2435A1"/>
<path d="M105.588 164.91L104.711 166.939L102.256 172.344L64.8748 254.772H57.8613C57.8613 254.772 79.7783 195.983 88.4399 172.379C90.5089 166.738 91.8151 163.099 91.8765 162.758L105.588 164.91Z" fill="#FF6551"/>
<g style="mix-blend-mode:multiply" opacity="0.44">
<g style="mix-blend-mode:multiply" opacity="0.44">
<path d="M91.7881 162.767L105.587 164.91L102.221 172.344H88.3516C90.4205 166.738 91.7268 163.099 91.7881 162.767Z" fill="#CC9281"/>
</g>
</g>
<path d="M266.432 254.772H259.375L222.019 172.414L218.618 164.91L220.827 164.569L232.417 162.767C232.478 163.099 233.793 166.755 235.871 172.387C244.524 196.062 266.432 254.772 266.432 254.772Z" fill="#FF6551"/>
<g style="mix-blend-mode:multiply" opacity="0.44">
<g style="mix-blend-mode:multiply" opacity="0.44">
<path d="M235.87 172.431H222.019L218.617 164.927L232.416 162.784C232.477 163.099 233.793 166.755 235.87 172.431Z" fill="#CC9281"/>
</g>
</g>
<g style="mix-blend-mode:multiply" opacity="0.44">
<g style="mix-blend-mode:multiply" opacity="0.44">
<path d="M261.68 254.772H259.374L222.019 172.414L218.617 164.91L220.826 164.569L225.973 166.939L261.68 254.772Z" fill="#CC9281"/>
</g>
</g>
<path d="M115.345 161.341H83.9424V166.939H115.345V161.341Z" fill="#CC9281"/>
<path d="M240.263 161.341H208.86V166.939H240.263V161.341Z" fill="#CC9281"/>
<path d="M115.345 161.341H83.9424V166.939H115.345V161.341Z" fill="#FF6551"/>
<g style="mix-blend-mode:multiply">
<g style="mix-blend-mode:multiply">
<path d="M115.345 161.341H83.9419V166.939H115.345V161.341Z" fill="#CC9281"/>
</g>
</g>
<path d="M240.263 161.341H208.86V166.939H240.263V161.341Z" fill="#FF6551"/>
<g style="mix-blend-mode:multiply">
<g style="mix-blend-mode:multiply">
<path d="M240.263 161.341H208.86V166.939H240.263V161.341Z" fill="#CC9281"/>
</g>
</g>
<g style="mix-blend-mode:multiply" opacity="0.44">
<g style="mix-blend-mode:multiply" opacity="0.44">
<path d="M104.667 166.939L102.221 172.344L64.8304 254.772H61.4902L96.9695 166.939H104.667Z" fill="#CC9281"/>
</g>
</g>
<path d="M288.936 152.281H34.8564V162.776H288.936V152.281Z" fill="#FF8777"/>
<path d="M288.936 156.698H34.8564V162.767H288.936V156.698Z" fill="#FF6551"/>
<path d="M289.997 134.973V143.623H255.333V136.206L289.997 134.973Z" fill="#FFC652"/>
<g style="mix-blend-mode:multiply">
<g style="mix-blend-mode:multiply">
<path d="M289.997 138.69V143.623H255.333V139.057C256.061 139.932 257.639 140.868 261.049 140.868C266.283 140.868 282.659 141.427 289.997 138.69Z" fill="#FFDF7B"/>
</g>
</g>
<path d="M291.399 142.092V152.281H260.777L260.417 148.267L259.997 143.623L291.399 142.092Z" fill="#67D449"/>
<g style="mix-blend-mode:multiply" opacity="0.36">
<path d="M291.399 147.182V152.281H260.777L260.417 148.267C260.417 148.319 261.522 149.963 266.204 150.226C270.885 150.488 290.417 151.004 291.399 147.182Z" fill="#2D7F75"/>
</g>
<path d="M241.087 140.063C240.971 140.105 240.85 140.125 240.727 140.124C240.507 140.126 240.292 140.06 240.111 139.935C239.931 139.809 239.794 139.631 239.719 139.425L237.431 133.189L236.247 129.953L232.048 118.514C231.959 118.25 231.976 117.962 232.097 117.711C232.217 117.46 232.431 117.266 232.693 117.17C232.955 117.074 233.244 117.084 233.498 117.198C233.753 117.312 233.953 117.52 234.056 117.779L238.527 129.953L239.403 132.376L239.745 133.25L240.341 134.894L241.727 138.655C241.781 138.789 241.807 138.933 241.804 139.077C241.802 139.222 241.769 139.364 241.709 139.496C241.649 139.628 241.563 139.746 241.456 139.843C241.349 139.941 241.223 140.016 241.087 140.063Z" fill="#F7A845"/>
<path d="M240.71 133.915L240.789 134.982H240.675C240.556 134.983 240.437 134.966 240.324 134.929C239.746 134.737 239.64 134.055 239.57 133.548V133.285L239.43 132.411L239.071 129.988L237.826 121.767C237.784 121.486 237.855 121.201 238.025 120.973C238.194 120.745 238.447 120.593 238.729 120.551C239.01 120.51 239.296 120.581 239.525 120.75C239.753 120.919 239.905 121.172 239.947 121.452C240.289 123.787 240.824 127.303 241.227 129.988C241.455 131.466 241.639 132.699 241.736 133.32C241.779 133.583 241.797 133.74 241.806 133.775L240.754 133.941L240.71 133.915Z" fill="#FFC652"/>
<path d="M250.976 114.141L248.346 129.953L247.793 133.285L247.697 133.871C247.652 134.117 247.522 134.339 247.33 134.498C247.138 134.658 246.895 134.746 246.645 134.746H246.461C246.322 134.723 246.19 134.674 246.071 134.6C245.951 134.527 245.848 134.43 245.766 134.316C245.685 134.202 245.627 134.073 245.596 133.937C245.564 133.8 245.56 133.659 245.584 133.521L245.628 133.285L246.18 129.953L248.881 113.791C248.894 113.645 248.937 113.503 249.008 113.374C249.079 113.245 249.175 113.132 249.292 113.042C249.408 112.953 249.542 112.888 249.685 112.852C249.828 112.816 249.976 112.81 250.122 112.834C250.267 112.858 250.406 112.912 250.529 112.992C250.652 113.072 250.758 113.177 250.839 113.3C250.92 113.422 250.975 113.56 251 113.705C251.025 113.85 251.02 113.998 250.985 114.141H250.976Z" fill="#2435A1"/>
<g style="mix-blend-mode:multiply" opacity="0.26">
<path d="M241.692 133.285H237.773L237.414 133.189L236.23 129.953H238.51L239.387 132.376L239.027 129.953H241.184C241.412 131.431 241.596 132.664 241.692 133.285Z" fill="#FC9630"/>
</g>
<g style="mix-blend-mode:multiply" opacity="0.36">
<path d="M248.337 129.953L247.776 133.285H245.619L246.171 129.953H248.337Z" fill="#2D7F75"/>
</g>
<path d="M251.186 131.492H236.563V152.281H251.186V131.492Z" fill="#49B3F7"/>
<g style="mix-blend-mode:multiply" opacity="0.42">
<g style="mix-blend-mode:multiply" opacity="0.42">
<path d="M251.186 144.48V152.281H236.563V145.083C238.648 146.73 241.216 147.652 243.874 147.707C245.252 147.712 246.615 147.427 247.875 146.871C249.135 146.315 250.263 145.5 251.186 144.48Z" fill="#F2704F"/>
</g>
</g>
<g style="mix-blend-mode:screen" opacity="0.24">
<g style="mix-blend-mode:screen" opacity="0.24">
<path d="M251.186 131.492V134.685C249.012 136.092 246.465 136.814 243.874 136.757C241.317 136.777 238.798 136.135 236.563 134.894V131.457L251.186 131.492Z" fill="white"/>
</g>
</g>
<path d="M85.6954 147.305L39.0735 148.634L35.8912 147.305L21.312 113.502V113.494H73.2816L83.5387 141.436L85.6954 147.305Z" fill="#545454"/>
<path d="M101.668 147.305H35.8911V152.272H101.668V147.305Z" fill="#686868"/>
<g style="mix-blend-mode:multiply" opacity="0.35">
<path d="M101.695 147.305V152.272H35.9438V147.305L21.312 113.502C21.5662 113.94 38.153 143.01 83.0829 141.445H83.5387L85.6954 147.313L101.695 147.305Z" fill="#545454"/>
</g>
<defs>
<linearGradient id="paint0_linear_3529_1875" x1="111.794" y1="163.72" x2="216.487" y2="163.72" gradientUnits="userSpaceOnUse">
<stop stop-color="#FFD247"/>
<stop offset="1" stop-color="#FFDF7B"/>
</linearGradient>
</defs>
</svg>
