<svg width="57" height="54" viewBox="0 0 57 54" fill="none" xmlns="http://www.w3.org/2000/svg">
<path d="M0.187012 27C0.187012 12.0883 12.2753 0 27.187 0H56.187V54H27.187C12.2753 54 0.187012 41.9117 0.187012 27V27Z" fill="#F8F8F8"/>
<path d="M19.187 23H23.187V19H19.187V23ZM25.187 35H29.187V31H25.187V35ZM19.187 35H23.187V31H19.187V35ZM19.187 29H23.187V25H19.187V29ZM25.187 29H29.187V25H25.187V29ZM31.187 19V23H35.187V19H31.187ZM25.187 23H29.187V19H25.187V23ZM31.187 29H35.187V25H31.187V29ZM31.187 35H35.187V31H31.187V35Z" fill="#323232"/>
</svg>
