<svg width="125" height="271" viewBox="0 0 125 271" fill="none" xmlns="http://www.w3.org/2000/svg">
<path d="M66.4193 135.842C14.3105 135.259 3.06486 110.224 0.397772 93.5206C-0.962475 84.9967 1.38926 78.2765 4.07375 71.3575C6.64967 64.7186 9.53089 57.8996 9.73194 49.1297C9.80257 46.0307 9.91429 42.3558 10.2803 38.4586C12.0207 19.8289 19.5279 -3.89064 55.8777 5.87136C55.8777 5.87136 62.6076 -2.18109 78.6006 0.574488C93.4153 3.12637 106.566 16.9405 109.714 38.0499C109.965 39.7272 110.151 41.4506 110.272 43.2203C111.415 60.1016 116.271 65.8704 120.219 74.4717C122.206 78.7543 123.608 83.2842 124.388 87.9398C127.74 107.12 118.528 136.425 66.4193 135.842Z" fill="#672410"/>
<g style="mix-blend-mode:multiply" opacity="0.28">
<path d="M66.4193 135.842C14.3105 135.259 3.06486 110.224 0.397772 93.5207C-0.962475 84.9968 1.38926 78.2765 4.07375 71.3575C4.05549 76.6538 5.57075 88.1027 18.3961 92.4849C35.3287 98.2704 37.6869 79.4546 62.3354 79.5639C86.9839 79.6714 89.0413 84.227 104.124 86.5845C113.303 88.02 117.971 80.544 120.219 74.4717C122.206 78.7543 123.608 83.2842 124.388 87.9399C127.74 107.12 118.528 136.425 66.4193 135.842Z" fill="#772F1E"/>
</g>
<path d="M24.2769 121.971C23.4192 121.976 22.5618 121.933 21.7091 121.84C20.936 121.72 20.1701 121.557 19.415 121.352C17.8901 120.932 16.4358 120.288 15.0991 119.443C12.9338 118.13 11.1953 116.219 10.0934 113.94C9.12678 111.631 8.83521 109.095 9.25248 106.627C9.69709 104.091 10.3329 101.592 11.1545 99.1522C11.8723 96.7168 12.668 94.1429 12.4852 91.5729C12.485 91.4835 12.5169 91.3971 12.5752 91.3293C12.6334 91.2615 12.7141 91.2168 12.8026 91.2035C12.891 91.1902 12.9813 91.2091 13.057 91.2567C13.1326 91.3044 13.1887 91.3776 13.2148 91.463C13.7051 94.0404 13.6532 96.6914 13.0623 99.2476C12.1424 103.597 10.09 108.609 12.245 112.911C13.2953 114.946 14.9318 116.621 16.9434 117.718C18.0938 118.353 19.2986 118.884 20.5435 119.306C21.2371 119.548 21.9384 119.758 22.6429 119.969C23.2592 120.154 23.815 120.439 24.4393 120.614C25.1601 120.814 25.0557 122.009 24.2769 121.971Z" fill="#772F1E"/>
<path d="M113.091 84.7012C112.612 88.9625 111.188 93.0637 108.925 96.7069C107.11 99.6908 104.964 102.461 102.528 104.965C101.345 106.185 100.09 107.333 98.7711 108.405C98.0492 108.989 97.298 109.536 96.5203 110.043C95.8784 110.537 95.1605 110.924 94.3947 111.188C94.2624 111.22 94.1234 111.208 93.9981 111.155C93.8729 111.102 93.7679 111.01 93.6987 110.893C93.6295 110.776 93.5997 110.64 93.6137 110.505C93.6277 110.37 93.6848 110.243 93.7766 110.142C94.4433 109.425 95.1783 108.775 95.9712 108.2C96.7113 107.548 97.4747 106.92 98.2132 106.265C99.6256 105.013 100.97 103.686 102.241 102.291C106.415 97.7041 110.063 92.0312 111.155 85.7781C111.241 85.2812 111.311 84.7813 111.364 84.2783C111.791 80.8214 111.237 77.3143 109.766 74.1566C108.494 71.5789 106.231 68.7187 107.452 65.6911C107.558 65.431 107.893 65.6318 107.863 65.861C107.579 67.9934 108.74 69.7952 109.81 71.5154C110.872 73.1355 111.718 74.8871 112.326 76.7259C113.102 79.3085 113.362 82.0184 113.091 84.7012Z" fill="#772F1E"/>
<path d="M104.124 86.5845C103.861 89.0656 102.832 91.4036 101.181 93.2751C99.5723 94.9411 97.7938 96.4342 95.8742 97.7302C93.9874 98.9947 92.3578 100.605 91.0715 102.476C89.6727 104.799 89.0932 107.523 89.4254 110.213C89.475 110.631 88.8907 110.643 88.7609 110.313C88.2191 108.932 87.9807 107.451 88.0619 105.97C88.1431 104.489 88.5419 103.042 89.2314 101.729C91.4376 97.5 96.1048 95.63 99.3406 92.4112C101.007 90.7592 102.114 88.628 102.508 86.3158C102.536 86.1696 102.56 86.0217 102.581 85.8722C102.745 84.5222 102.791 83.1605 102.72 81.8025C102.677 80.4257 102.643 79.0105 102.506 77.64C102.505 77.5625 102.532 77.4874 102.583 77.4284C102.633 77.3695 102.703 77.3305 102.78 77.3188C102.856 77.307 102.935 77.3232 103 77.3644C103.066 77.4056 103.115 77.469 103.138 77.5431C103.531 79.0326 103.848 80.5412 104.087 82.0631C104.284 83.5631 104.297 85.0815 104.124 86.5845Z" fill="#772F1E"/>
<path d="M98.2862 83.757C98.1613 84.2907 97.9986 84.8148 97.7994 85.3254C97.06 87.1458 95.9194 88.7763 94.4624 90.0955C92.3562 92.0815 89.8573 93.5576 87.6949 95.4731C85.8012 97.1544 84.0012 99.2703 83.5837 101.879C83.4301 102.96 83.5244 104.062 83.8593 105.102C84.1943 106.142 84.7612 107.092 85.5174 107.881C85.8246 108.21 85.5393 108.904 85.0532 108.719C82.7735 107.851 81.671 105.412 81.647 103.025C81.7479 100.344 82.8408 97.7949 84.7142 95.872C86.7448 93.5954 89.3771 91.9946 91.81 90.2129C93.8448 88.8626 95.6009 87.1342 96.9826 85.1216C97.2773 84.6419 97.5262 84.1355 97.7258 83.6092C97.747 83.5366 97.7956 83.4752 97.8615 83.4379C97.9273 83.4007 98.0051 83.3907 98.0782 83.41C98.1513 83.4293 98.214 83.4764 98.2529 83.5412C98.2918 83.606 98.3037 83.6835 98.2862 83.757Z" fill="#772F1E"/>
<path d="M80.4915 95.9786C76.5052 98.4257 76.421 104.146 78.631 107.849C78.679 107.931 78.6959 108.029 78.6785 108.123C78.6611 108.217 78.6107 108.302 78.5363 108.362C78.462 108.422 78.3685 108.454 78.2728 108.451C78.1771 108.449 78.0854 108.412 78.0143 108.348C77.0152 107.358 76.2552 106.154 75.7921 104.826C75.3656 103.506 75.3044 102.096 75.6151 100.744C75.8865 99.5344 76.4432 98.4069 77.2388 97.4557C78.0343 96.5044 79.0458 95.7568 80.189 95.2751C80.5968 95.0985 80.8483 95.7597 80.4915 95.9786Z" fill="#772F1E"/>
<path d="M120.911 99.1931C120.908 104.016 119.267 108.695 116.255 112.464C114.71 114.488 112.974 116.359 111.07 118.051C110.081 118.942 109.065 119.799 108.039 120.642C107.169 121.556 106.039 122.183 104.802 122.437C104.699 122.436 104.598 122.412 104.506 122.367C104.414 122.321 104.334 122.255 104.271 122.174C104.208 122.093 104.165 121.998 104.145 121.898C104.124 121.797 104.127 121.694 104.152 121.594C104.656 120.489 105.472 119.556 106.5 118.909C107.42 118.166 108.329 117.414 109.221 116.635C111.058 115.073 112.772 113.372 114.348 111.548C117.235 108.11 119.649 103.783 120.084 99.2049C120.084 99.0964 120.127 98.9924 120.203 98.9152C120.279 98.8381 120.383 98.794 120.491 98.7924C120.6 98.7909 120.705 98.832 120.783 98.907C120.862 98.9819 120.907 99.0847 120.911 99.1931Z" fill="#772F1E"/>
<g style="mix-blend-mode:multiply" opacity="0.28">
<path d="M24.2769 121.971C23.4192 121.976 22.5618 121.933 21.7091 121.84C20.936 121.72 20.1701 121.557 19.415 121.352C17.8901 120.932 16.4358 120.288 15.0991 119.443C12.9338 118.13 11.1953 116.219 10.0934 113.94C9.12678 111.631 8.83521 109.095 9.25248 106.627C9.69709 104.091 10.3329 101.592 11.1545 99.1522C11.8723 96.7168 12.668 94.1429 12.4852 91.5729C12.485 91.4835 12.5169 91.3971 12.5752 91.3293C12.6334 91.2615 12.7141 91.2168 12.8026 91.2035C12.891 91.1902 12.9813 91.2091 13.057 91.2567C13.1326 91.3044 13.1887 91.3776 13.2148 91.463C13.7051 94.0404 13.6532 96.6914 13.0623 99.2476C12.1424 103.597 10.09 108.609 12.245 112.911C13.2953 114.946 14.9318 116.621 16.9434 117.718C18.0938 118.353 19.2986 118.884 20.5435 119.306C21.2371 119.548 21.9384 119.758 22.6429 119.969C23.2592 120.154 23.815 120.439 24.4393 120.614C25.1601 120.814 25.0557 122.009 24.2769 121.971Z" fill="#772F1E"/>
</g>
<g style="mix-blend-mode:multiply" opacity="0.28">
<path d="M80.4915 95.9786C76.5052 98.4257 76.421 104.146 78.631 107.849C78.679 107.931 78.6959 108.029 78.6785 108.123C78.6611 108.217 78.6107 108.302 78.5363 108.362C78.462 108.422 78.3685 108.454 78.2728 108.451C78.1771 108.449 78.0854 108.412 78.0143 108.348C77.0152 107.358 76.2552 106.154 75.7921 104.826C75.3656 103.506 75.3044 102.096 75.6151 100.744C75.8865 99.5344 76.4432 98.4069 77.2388 97.4557C78.0343 96.5044 79.0458 95.7568 80.189 95.2751C80.5968 95.0985 80.8483 95.7597 80.4915 95.9786Z" fill="#772F1E"/>
</g>
<g style="mix-blend-mode:multiply" opacity="0.28">
<path d="M94.4624 90.0955C92.3562 92.0815 89.8573 93.5576 87.6949 95.4731C85.8012 97.1544 84.0012 99.2703 83.5837 101.879C83.4301 102.96 83.5244 104.062 83.8593 105.102C84.1943 106.142 84.7612 107.092 85.5174 107.881C85.8246 108.21 85.5393 108.904 85.0532 108.719C82.7735 107.851 81.671 105.412 81.647 103.025C81.7479 100.344 82.8408 97.7949 84.7142 95.872C86.7448 93.5954 89.3771 91.9947 91.81 90.2129C93.8448 88.8626 95.6009 87.1342 96.9826 85.1216C97.2505 85.1907 97.5228 85.2586 97.7994 85.3254C97.06 87.1458 95.9194 88.7763 94.4624 90.0955Z" fill="#772F1E"/>
</g>
<g style="mix-blend-mode:multiply" opacity="0.28">
<path d="M95.8742 97.7301C93.9874 98.9947 92.3578 100.605 91.0715 102.476C89.6727 104.799 89.0932 107.523 89.4254 110.213C89.475 110.631 88.8907 110.643 88.7609 110.313C88.2191 108.932 87.9807 107.451 88.0619 105.97C88.1431 104.489 88.5419 103.042 89.2314 101.728C91.4376 97.5 96.1048 95.63 99.3406 92.4112C101.007 90.7592 102.114 88.6279 102.508 86.3158C103.031 86.4078 103.567 86.4979 104.124 86.5845C103.861 89.0656 102.832 91.4036 101.181 93.2751C99.5723 94.9411 97.7938 96.4342 95.8742 97.7301Z" fill="#772F1E"/>
</g>
<g style="mix-blend-mode:multiply" opacity="0.28">
<path d="M108.925 96.707C107.11 99.6908 104.964 102.461 102.528 104.965C101.345 106.185 100.09 107.333 98.7711 108.405C98.0492 108.989 97.298 109.536 96.5203 110.044C95.8784 110.537 95.1605 110.924 94.3947 111.188C94.2624 111.22 94.1234 111.208 93.9981 111.155C93.8729 111.102 93.7679 111.01 93.6987 110.893C93.6295 110.776 93.5997 110.64 93.6137 110.505C93.6277 110.37 93.6848 110.243 93.7766 110.142C94.4433 109.425 95.1783 108.775 95.9712 108.2C96.7113 107.548 97.4747 106.92 98.2132 106.265C99.6256 105.013 100.97 103.686 102.241 102.291C106.415 97.7042 110.063 92.0312 111.155 85.7782C111.832 85.4798 112.48 85.1193 113.091 84.7013C112.612 88.9626 111.188 93.0638 108.925 96.707Z" fill="#772F1E"/>
</g>
<g style="mix-blend-mode:multiply" opacity="0.28">
<path d="M120.911 99.1931C120.908 104.016 119.267 108.695 116.255 112.464C114.71 114.488 112.974 116.359 111.07 118.051C110.081 118.942 109.065 119.799 108.039 120.642C107.169 121.556 106.039 122.183 104.802 122.437C104.699 122.436 104.598 122.412 104.506 122.367C104.414 122.321 104.334 122.255 104.271 122.174C104.208 122.093 104.165 121.998 104.145 121.898C104.124 121.797 104.127 121.694 104.152 121.594C104.656 120.489 105.472 119.556 106.5 118.909C107.42 118.166 108.329 117.414 109.221 116.635C111.058 115.073 112.772 113.372 114.348 111.548C117.235 108.11 119.649 103.783 120.084 99.2049C120.084 99.0964 120.127 98.9924 120.203 98.9152C120.279 98.8381 120.383 98.794 120.491 98.7924C120.6 98.7909 120.705 98.832 120.783 98.907C120.862 98.9819 120.907 99.0847 120.911 99.1931Z" fill="#772F1E"/>
</g>
<path d="M47.9096 180.741C47.9096 180.741 50.1754 221.889 52.5288 241.876C52.5288 241.876 49.1738 253.397 47.9096 257.865C46.6453 262.332 47.2155 264.683 53.6375 264.683C60.0595 264.683 60.4448 255.748 59.8991 247.989C59.8991 247.989 58.6774 235.292 58.7801 229.413C58.8829 223.535 59.655 193.192 58.7801 183.21L47.9096 180.741Z" fill="#FFBF94"/>
<g style="mix-blend-mode:multiply" opacity="0.21">
<path d="M56.2938 212.366C57.4295 216.434 58.2914 220.574 58.8738 224.757C59.0911 214.151 59.5116 191.56 58.7798 183.21L47.9092 180.741C47.9092 180.741 49.1459 200.381 49.7562 209.902C52.8576 210.424 56.2938 211.663 56.2938 212.366Z" fill="#DA8966"/>
</g>
<path d="M50.4839 248.917C50.4839 248.917 46.2922 258.923 44.5271 263.743C42.7621 268.563 45.9392 270.562 49.9399 270.914C53.9406 271.267 59.0299 270.562 60.0741 268.21C61.1184 265.859 61.5009 255.488 60.0741 248.917C60.0741 248.917 59.9417 258.687 56.4116 259.393C52.8816 260.098 49.4692 260.569 49.3515 258.1C49.2339 255.631 50.4839 248.917 50.4839 248.917Z" fill="#FF6551"/>
<path d="M60.0741 248.917C60.0257 251.477 59.6271 254.018 58.8895 256.471C59.128 259.9 58.9812 263.429 56.4704 266.564C55.4703 267.564 52.4697 268.563 49.4692 267.564C48.4166 267.211 47.4501 266.641 46.6327 265.89C45.8154 265.14 45.1655 264.225 44.7254 263.207C44.6568 263.391 44.59 263.571 44.5271 263.743C42.7622 268.563 45.9391 270.562 49.9398 270.914C53.9406 271.267 59.0299 270.562 60.0741 268.21C61.1184 265.859 61.5009 255.488 60.0741 248.917Z" fill="#DF4C4B"/>
<path d="M76.2761 180.741C76.2761 180.741 74.0103 221.889 71.6569 241.875C71.6569 241.875 75.0118 253.397 76.2761 257.864C77.5403 262.332 76.9701 264.683 70.5481 264.683C64.1261 264.683 63.7409 255.748 64.2865 247.989C64.2865 247.989 65.5083 235.292 65.4055 229.413C65.3028 223.535 64.5306 193.192 65.4055 183.21L76.2761 180.741Z" fill="#FFBF94"/>
<g style="mix-blend-mode:multiply" opacity="0.21">
<path d="M68.4907 211.357C66.275 220.212 65.3114 224.757 65.3114 224.757C65.0941 214.151 64.6736 191.56 65.4054 183.21L76.276 180.741C76.276 180.741 75.1056 199.44 74.4953 208.961C71.3939 209.483 68.4907 210.654 68.4907 211.357Z" fill="#DA8966"/>
</g>
<path d="M73.7016 248.917C73.7016 248.917 77.8933 258.923 79.6583 263.743C81.4233 268.563 78.2463 270.562 74.2456 270.914C70.2449 271.267 65.1556 270.562 64.1113 268.21C63.0671 265.859 62.6845 255.488 64.1113 248.917C64.1113 248.917 64.2438 258.687 67.7738 259.393C71.3039 260.098 74.7163 260.569 74.8339 258.1C74.9516 255.631 73.7016 248.917 73.7016 248.917Z" fill="#FF6551"/>
<path d="M64.1113 248.917C64.1597 251.477 64.5583 254.018 65.296 256.471C65.0574 259.9 65.2043 263.429 67.715 266.564C68.7152 267.564 71.7157 268.563 74.7163 267.564C75.7689 267.211 76.7354 266.641 77.5527 265.89C78.3701 265.14 79.02 264.225 79.46 263.207C79.5287 263.391 79.5954 263.571 79.6583 263.743C81.4233 268.563 78.2463 270.562 74.2456 270.914C70.2449 271.267 65.1556 270.562 64.1113 268.21C63.0671 265.859 62.6846 255.487 64.1113 248.917Z" fill="#DF4C4B"/>
<path d="M31.963 178.507C31.1394 176.156 28.6683 170.042 29.6805 166.868C30.6927 163.694 32.316 161.93 32.7867 158.991C33.2574 156.052 36.5521 133.089 36.5521 133.089L42.6468 134.292C42.6468 134.292 40.0822 148.88 39.1408 152.76C38.1995 156.64 37.3758 158.168 37.7288 160.754C38.0818 163.341 40.3175 170.983 39.1408 171.688C37.9641 172.394 37.3491 170.748 36.7607 170.395C36.1724 170.042 36.0814 172.629 36.6698 175.568C37.2581 178.507 35.9731 179.212 35.2624 178.507C34.5518 177.802 33.5871 173.099 33.5871 173.099C33.5871 173.099 34.9048 178.307 34.1987 178.76C33.4927 179.212 31.963 178.507 31.963 178.507Z" fill="#FFBF94"/>
<path d="M49.8809 106.163C49.8809 106.163 44.2329 105.775 41.8795 108.635C39.5261 111.494 34.7952 129.17 33.3364 132.03C33.3364 132.03 35.5254 137.241 43.9975 135.595C43.9975 135.595 48.9721 116.437 49.8809 111.765C50.7898 107.093 49.8809 106.163 49.8809 106.163Z" fill="#FFC652"/>
<path d="M34.7482 128.202C34.3523 129.504 33.8809 130.782 33.3364 132.03C33.3364 132.03 35.5254 137.241 43.9975 135.595C43.9975 135.595 44.5266 133.558 45.2694 130.656C41.5009 131.189 37.7054 130.66 34.7482 128.202Z" fill="#F7A845"/>
<path d="M88.987 178.507C89.8107 176.156 92.2817 170.042 91.2696 166.868C90.2574 163.694 88.634 161.93 88.1633 158.991C87.6927 156.052 84.398 133.089 84.398 133.089L78.3032 134.292C78.3032 134.292 80.8679 148.88 81.8092 152.76C82.7506 156.64 83.5743 158.168 83.2213 160.754C82.8683 163.341 80.6326 170.983 81.8092 171.688C82.9859 172.394 83.8096 169.219 84.398 168.866C84.9863 168.514 84.8686 172.629 84.2803 175.568C83.6919 178.507 84.9769 179.212 85.6876 178.507C86.3983 177.802 87.3629 173.099 87.3629 173.099C87.3629 173.099 86.0453 178.307 86.7513 178.76C87.4573 179.212 88.987 178.507 88.987 178.507Z" fill="#FFBF94"/>
<path d="M71.1787 106.163C71.1787 106.163 76.5333 105.658 78.6273 107.539C80.7213 109.42 83.1042 116.615 84.4752 121.941C85.6985 126.692 88.123 134.054 88.123 134.054C88.123 134.054 82.133 136.888 77.303 136.301L72.1201 110.36L71.1787 106.163Z" fill="#FFC652"/>
<path d="M76.3838 131.699L77.3031 136.301C82.1331 136.888 88.123 134.054 88.123 134.054C88.123 134.054 87.5589 132.34 86.8393 130.039C83.7572 131.738 80.0099 131.767 76.3838 131.699Z" fill="#F7A845"/>
<path d="M44.8842 156C40.2948 165.01 35.5779 174.075 30.272 182.689C30.5069 186.506 32.071 190.121 34.6932 192.908C40.178 182.401 44.8493 171.489 48.666 160.27C47.4906 158.773 46.2278 157.348 44.8842 156Z" fill="#6640D0"/>
<path d="M33.3149 180.487C33.3149 180.487 40.0382 166.443 43.164 164.079C46.2898 161.716 45.9089 164.927 45.4635 166.55C45.0181 168.172 37.791 183.722 36.5719 186.885C36.5719 186.885 33.3735 185.84 33.3149 180.487Z" fill="#864FF1"/>
<path d="M47.4694 157.974C42.6029 169.103 37.4807 179.609 31.5933 190.233C31.6133 192.151 32.2466 194.013 33.4006 195.547C34.5546 197.081 36.1689 198.206 38.0081 198.758C45.0205 187.241 49.3289 174.243 51.8491 161.051C50.1364 159.753 49.2676 159.132 47.4694 157.974Z" fill="#6640D0"/>
<path d="M34.9849 187.688C34.9849 187.688 43.0607 169.236 46.0241 166.172C48.9878 163.109 48.8483 166.498 48.4617 168.125C46.4345 176.653 42.4087 185.391 39.1488 193.71C39.1489 193.71 35.2969 193.05 34.9849 187.688Z" fill="#864FF1"/>
<path d="M50.7083 155.846C46.965 170.144 42.0606 184.113 36.0439 197.615C36.0439 197.615 39.362 202.764 47.0463 203.036C50.6317 188.068 53.406 172.916 55.357 157.649C53.517 156.868 52.5875 156.501 50.7083 155.846Z" fill="#6640D0"/>
<path d="M39.916 193.56C42.4915 184.165 46.0584 175.07 50.5565 166.427C52.5093 162.753 53.6673 166.016 53.2037 167.681C50.5059 177.371 47.8667 187.682 46.7385 197.778C46.7385 197.778 39.2964 195.786 39.916 193.56Z" fill="#864FF1"/>
<path d="M54.5997 158.136C52.4322 173.614 49.7889 188.949 46.8179 204.293C46.8179 204.293 53.7632 208.862 61.1465 205.462C61.1322 189.721 61.1233 173.979 61.1199 158.237C58.5154 158.108 57.2122 158.087 54.5997 158.136Z" fill="#6640D0"/>
<path d="M50.885 199.381C51.1287 188.495 52.8325 177.691 55.9509 167.257C57.3185 162.796 58.6766 165.737 58.7362 167.461C59.1165 178.456 58.815 189.547 59.0803 200.592C59.0804 200.592 50.83 201.528 50.885 199.381Z" fill="#864FF1"/>
<path d="M77.8037 156C82.3941 165.009 87.1108 174.074 92.4169 182.689C92.1823 186.506 90.6184 190.122 87.9962 192.908C82.511 182.401 77.8396 171.49 74.0229 160.269C75.198 158.773 76.4604 157.347 77.8037 156Z" fill="#6640D0"/>
<path d="M89.3738 180.487C89.3738 180.487 82.6504 166.443 79.5246 164.079C76.399 161.716 76.78 164.927 77.2255 166.55C77.6709 168.172 84.8982 183.722 86.1175 186.885C86.1175 186.885 89.3154 185.84 89.3738 180.487Z" fill="#864FF1"/>
<path d="M74.629 157.974C79.5034 169.093 84.6303 179.609 90.5057 190.233C90.4856 192.151 89.8523 194.014 88.6981 195.548C87.5439 197.081 85.9294 198.206 84.09 198.759C77.0785 187.241 72.769 174.243 70.25 161.051C71.9625 159.753 72.8313 159.132 74.629 157.974Z" fill="#6640D0"/>
<path d="M87.1143 187.688C87.1143 187.688 79.0381 169.236 76.0747 166.172C73.1112 163.109 73.2533 166.493 73.6372 168.125C75.6491 176.677 79.6839 185.403 82.9501 193.71C82.95 193.71 86.8019 193.05 87.1143 187.688Z" fill="#864FF1"/>
<path d="M70.0461 156.694C74.0543 170.947 79.0022 184.919 84.8575 198.518C83.4636 200.268 81.6997 201.688 79.6923 202.677C77.6848 203.666 75.4834 204.199 73.2456 204.238C69.903 189.078 67.3248 173.982 65.4072 158.577C67.2424 157.768 68.1679 157.387 70.0461 156.694Z" fill="#6640D0"/>
<path d="M80.5544 193.718C77.9447 184.295 74.4845 175.128 70.2164 166.33C68.368 162.648 67.0426 165.969 67.5674 167.617C70.7198 177.461 72.7632 187.626 73.6595 197.924C73.6595 197.924 81.2058 195.981 80.5544 193.718Z" fill="#864FF1"/>
<path d="M65.7127 156.331C68.2297 172.254 70.9813 188.129 73.781 204.004C73.781 204.004 67.6707 209.169 60.2114 205.85C60.4909 189.463 60.7101 173.076 60.8689 156.689C62.8022 156.494 63.7707 156.422 65.7127 156.331Z" fill="#6640D0"/>
<path d="M71.0064 199.35C70.2627 188.005 68.3199 176.771 65.2105 165.835C63.8792 161.304 62.4404 164.415 62.3804 166.177C61.9892 177.646 62.4344 189.389 62.7618 201.048C62.7618 201.048 71.1664 201.555 71.0064 199.35Z" fill="#864FF1"/>
<path d="M57.1176 103.686C57.1176 103.686 48.5519 105.416 47.7162 106.163C46.8805 106.909 42.5983 129.952 42.0918 133.832C41.5854 137.712 40.8794 154.288 40.8794 156.404C40.8794 158.521 45.8215 164.046 58.412 164.399C71.0025 164.752 78.0626 160.754 79.3569 160.167C80.6513 159.579 81.6096 158.286 81.6599 153.936C81.7103 149.586 78.4156 124.426 77.1212 119.018C75.8269 113.61 74.6502 106.827 73.0028 106.163C67.8674 104.523 62.5088 103.688 57.1176 103.686Z" fill="#F7A845"/>
<path d="M55.0107 106.163C55.0107 106.163 50.881 105.297 49.116 107.808C47.351 110.318 45.3518 119.591 45.8807 126.094C46.4096 132.597 50.4103 141.297 50.4103 141.297C49.5867 143.374 46.0929 137.767 45.2693 138.473C44.4456 139.178 43.8221 149.653 45.8807 154.381C47.9393 159.108 54.2562 161.813 62.5116 161.225C70.7669 160.637 73.2781 155.817 75.4349 152.172C77.5918 148.527 78.2261 140.001 77.4098 140.236C76.5936 140.471 77.8422 139.416 72.179 141.65C72.179 141.65 69.4133 142.708 71.649 140.121C73.8847 137.535 75.2384 138.652 76.0621 130.07C76.8858 121.487 73.8264 109.059 72.532 107.808C71.2377 106.556 67.59 106.674 66.4133 107.026C65.2366 107.379 56.0494 106.947 54.0549 105.875" fill="#FFC652"/>
<path d="M57.1177 103.686C57.1177 103.686 55.1288 104.089 52.9756 104.588C53.5465 106.123 54.5628 107.454 55.8945 108.409C57.2262 109.364 58.8128 109.9 60.4513 109.949C62.2229 110.209 64.0304 109.867 65.5839 108.977C67.1374 108.088 68.3467 106.702 69.0178 105.044C65.108 104.186 61.1204 103.731 57.1177 103.686Z" fill="#F7A845"/>
<path d="M66.4547 105.114C66.4547 105.114 64.98 108.227 60.4366 107.76C55.8919 107.293 54.9419 104.936 54.9419 104.936L55.0125 102.469L55.0111 102.468L55.1121 98.933L65.9621 96.8195L66.9811 96.6206L66.9255 97.5279L66.6331 102.228L66.4547 105.114Z" fill="#EA9573"/>
<g style="mix-blend-mode:multiply" opacity="0.31">
<path d="M66.6333 102.228C65.1437 103.727 63.2463 105.232 61.6003 105.274C58.3387 105.359 55.0942 102.54 55.0126 102.469L55.0112 102.468L55.1123 98.933L65.9623 96.8195L66.9257 97.5278L66.6333 102.228Z" fill="#DD7258"/>
</g>
<path d="M94.0738 60.4589C94.0738 60.4589 99.359 57.6589 102.384 61.694C105.409 65.7291 100.847 76.1694 97.2614 77.2435C93.6756 78.3177 92.2544 77.3189 92.2544 77.3189L94.0738 60.4589Z" fill="#FFBF94"/>
<path d="M27.4212 61.4626C27.4212 61.4626 22.0666 58.8228 19.1457 62.9474C16.2249 67.072 21.0512 77.371 24.663 78.3367C28.2748 79.3025 29.6701 78.2613 29.6701 78.2613L27.4212 61.4626Z" fill="#FFBF94"/>
<path d="M96.3795 44.9246C96.3795 44.9246 95.5987 60.1435 94.223 72.4044L94.2215 72.4095L94.2215 72.413L94.2159 72.464C94.0093 74.3034 93.7894 76.0767 93.5568 77.721L93.5525 77.7533C92.8531 82.6708 92.0402 86.4254 91.1304 87.3674C87.8868 90.7232 69.2506 101.991 61.8898 101.58C54.5291 101.169 34.998 91.3581 31.822 87.7504C30.8057 86.5959 29.6719 82.4932 28.5997 77.4477C26.3205 66.7279 24.3203 51.7532 24.3203 51.7532C24.7874 27.0312 37.3549 18.4869 61.9095 17.2465C86.4641 16.0062 96.3795 44.9246 96.3795 44.9246Z" fill="#FFBF94"/>
<g style="mix-blend-mode:multiply" opacity="0.28">
<g style="mix-blend-mode:multiply" opacity="0.28">
<path d="M22.9015 45.8107C22.3581 43.1545 24.2325 40.6265 26.1317 38.5886C32.7048 31.5808 40.643 25.9903 49.4582 22.1608C56.593 19.0483 64.727 17.0655 72.3081 18.9913C75.8876 20.0546 79.3232 21.5519 82.5382 23.45C84.0726 24.2004 85.5164 25.123 86.8418 26.2C87.955 27.24 88.936 28.4129 89.7624 29.6923C93.3524 34.8935 96.2228 40.5554 98.2958 46.5243C98.8408 47.7892 99.057 49.1712 98.9243 50.5419C98.6305 51.7841 98.0104 52.9255 97.1279 53.8484C95.3237 55.9326 93.0818 57.5938 90.562 58.7139C89.509 54.8081 88.4561 50.9023 87.4032 46.9965C86.6159 48.1103 85.5733 49.0196 84.3625 49.6487C83.1517 50.2778 81.8079 50.6082 80.4432 50.6125C79.5493 47.0241 77.6982 43.7449 75.087 41.1242C73.2959 44.2767 69.8956 46.38 66.3325 47.6238C66.0349 43.9217 65.0619 40.3051 63.4617 36.9528L60.3137 46.8281C58.7883 46.6138 57.3321 46.0535 56.0569 45.1901C54.7817 44.3267 53.7211 43.1831 52.9566 41.847C51.9263 43.0557 51.1557 44.4631 50.6924 45.9818C50.2291 47.5004 50.0831 49.098 50.2634 50.6754C48.0733 51.0017 45.8355 50.6767 43.829 49.7408C41.8226 48.805 40.1362 47.2998 38.9801 45.4129C38.2127 49.0273 37.4453 52.6418 36.6779 56.2562C33.533 55.7354 30.7141 54.0133 28.8169 51.4538C27.7877 54.197 27.5794 57.18 28.2172 60.0394C28.2172 60.0394 25.907 59.5093 25.3959 57.8328C24.8849 56.1564 22.9015 45.8107 22.9015 45.8107Z" fill="#DA8966"/>
</g>
</g>
<path d="M69.2965 23.171C69.2965 23.171 57.0039 29.2119 59.0021 44.6013C59.0021 44.6013 53.1102 42.3391 52.6989 35.9767C52.6989 35.9767 46.4248 41.5966 47.6681 49.2878C47.6681 49.2878 39.8161 46.5508 40.6574 36.4837C40.6574 36.4837 33.8972 42.2781 36.5037 54.4746C36.5037 54.4746 30.0942 50.0412 29.8525 44.1792C29.8525 44.1792 25.2603 53.7971 27.9732 61.8025C26.1831 61.5563 24.5038 60.794 23.1406 59.609C20.8507 57.5648 19.0032 53.642 18.3174 46.0196C16.9771 31.1236 34.9629 12.6002 58.4196 13.4386C81.8763 14.277 98.8574 29.9554 101.143 42.4917C101.831 46.0918 101.661 49.8031 100.648 53.3257C99.6347 56.8482 97.8062 60.0832 95.3103 62.7691C97.2525 60.2807 94.326 23.0971 69.2965 23.171Z" fill="#672410"/>
<path d="M63.7705 23.9202C63.7705 23.9202 68.7917 34.0712 68.4477 44.8017C68.4477 44.8017 75.2102 39.1748 75.8162 35.8145C75.8162 35.8145 82.237 41.0856 82.8404 49.6239C82.8404 49.6239 87.6743 45.868 87.1273 41.5186C87.1273 41.5186 92.8946 46.6315 92.3969 58.0344C92.3969 58.0344 97.1929 55.1074 97.3861 49.4954C97.3861 49.4954 93.6167 15.6178 63.7705 23.9202Z" fill="#672410"/>
<path d="M74.4855 54.1179C74.7743 54.5658 75.2636 54.5099 75.741 54.5535C76.295 54.6041 76.8432 54.5972 77.3985 54.6025C78.4766 54.5859 79.548 54.7727 80.5567 55.1532C81.4709 55.5709 82.3323 56.0954 83.1229 56.7157C83.5112 57.021 83.9172 57.303 84.3388 57.5604C84.578 57.7036 84.8313 57.8217 85.0947 57.913C85.3462 57.9851 85.5957 57.9358 85.842 58.0245C86.1373 58.1309 86.3134 57.7641 86.2031 57.527C86.0818 57.2663 86.1076 56.9639 85.9736 56.7019C85.8178 56.4156 85.6314 56.147 85.4178 55.9007C85.0193 55.4448 84.5739 55.032 84.0889 54.6691C83.1156 53.904 82.0114 53.3216 80.8301 52.9501C79.5917 52.5957 78.2909 52.5151 77.0181 52.7139C76.6197 52.7661 73.9043 53.2166 74.4855 54.1179H74.4855Z" fill="#5F130F"/>
<path d="M43.0011 55.3287C42.2325 54.5109 40.7367 54.8408 39.7637 54.9959C38.6559 55.1862 37.5823 55.5391 36.5777 56.0431C35.5965 56.5244 34.6805 57.1284 33.8519 57.8406C33.1329 58.4502 31.9354 59.5577 32.2519 60.6319C32.2958 60.7776 32.3846 60.9056 32.5056 60.9978C32.6267 61.09 32.7738 61.1416 32.926 61.1452C33.811 61.2324 34.6834 60.0953 35.3247 59.5873C36.049 59.0066 36.8399 58.5142 37.6808 58.1204C38.493 57.7599 39.3385 57.4794 40.2052 57.2829C41.1037 57.0678 42.3215 57.2041 43.017 56.514C43.1647 56.351 43.2452 56.1381 43.2422 55.9182C43.2392 55.6984 43.153 55.4877 43.001 55.3287H43.0011Z" fill="#5F130F"/>
<g style="mix-blend-mode:multiply" opacity="0.44">
<path d="M27.2671 74.3743C25.1764 73.2753 23.5729 71.4344 22.7723 69.2137C22.4441 68.2171 22.5024 66.6048 23.7285 66.4103C24.7413 66.2496 25.1751 67.6747 25.6393 68.401C25.6914 68.4852 25.7728 68.5473 25.8679 68.5752C25.9629 68.6032 26.065 68.5951 26.1544 68.5526C26.2439 68.51 26.3145 68.4359 26.3527 68.3445C26.3908 68.2532 26.3939 68.1509 26.3612 68.0574C25.9292 66.7555 25.5106 65.1129 24.0041 64.9389C22.4597 64.7607 21.3186 66.2555 21.1764 67.8011C21.0024 69.6906 22.0772 71.4396 23.0848 72.8723C24.1236 74.3492 25.3903 75.5556 27.1858 75.133C27.2583 75.1034 27.3214 75.0548 27.3685 74.9923C27.4156 74.9298 27.4449 74.8557 27.4532 74.7779C27.4615 74.7001 27.4487 74.6215 27.4159 74.5504C27.3831 74.4794 27.3317 74.4185 27.2671 74.3743Z" fill="#DA8966"/>
</g>
<g style="mix-blend-mode:multiply" opacity="0.44">
<path d="M100.989 66.4492C100.88 65.0209 99.775 63.7624 98.4039 64.3817C97.4765 64.8005 96.0014 66.7892 97.0334 67.7832C97.0592 67.8097 97.091 67.8297 97.1261 67.8414C97.1612 67.8531 97.1986 67.8563 97.2352 67.8506C97.2718 67.8449 97.3065 67.8306 97.3364 67.8087C97.3663 67.7869 97.3905 67.7583 97.407 67.7252C97.9068 66.9784 97.9559 65.7701 98.9423 65.4764C100.294 65.0742 99.8821 67.5742 99.7406 68.2905C99.5947 69.1708 99.2682 70.0114 98.7816 70.7596C98.2235 71.428 97.5126 71.9522 96.7088 72.288C96.6713 72.3152 96.6399 72.35 96.6167 72.3901C96.5935 72.4303 96.579 72.4748 96.5741 72.5209C96.5692 72.567 96.5741 72.6136 96.5884 72.6577C96.6027 72.7018 96.6262 72.7424 96.6572 72.7769C97.7528 74.0471 99.301 72.2945 99.8912 71.2498C100.688 69.7795 101.068 68.1195 100.989 66.4492Z" fill="#DA8966"/>
</g>
<path d="M69.6331 83.6629C69.2108 85.4676 68.4131 87.1634 67.292 88.6401C66.5221 89.6322 65.5382 90.438 64.4134 90.9975C63.2887 91.5569 62.052 91.8556 60.7957 91.8713C59.3903 91.9544 57.9877 91.6686 56.7271 91.0422C55.4666 90.4158 54.3921 89.4706 53.6105 88.3007C52.6545 86.9164 51.9475 85.3761 51.5215 83.7489C51.458 83.5263 51.4743 83.2886 51.5676 83.0767C51.6587 82.8545 51.8296 82.6744 52.0468 82.5717C52.2639 82.469 52.5117 82.4511 52.7414 82.5215L53.0661 82.6226C58.0254 84.1809 63.3569 84.0891 68.2594 82.3608C68.3915 82.3132 68.5319 82.2927 68.6721 82.3008C68.8123 82.3088 68.9495 82.3451 69.0753 82.4076C69.2011 82.47 69.3129 82.5572 69.4041 82.664C69.4952 82.7708 69.5638 82.8949 69.6056 83.0288C69.6778 83.2327 69.6874 83.4535 69.6331 83.6629Z" fill="#831532"/>
<path d="M69.6059 83.0288C67.025 85.0235 63.8861 86.1647 60.6258 86.2936C57.3403 86.2143 54.1663 85.0871 51.5679 83.0767C51.6589 82.8545 51.8298 82.6744 52.047 82.5717C52.2642 82.469 52.512 82.4511 52.7417 82.5215L53.0664 82.6226C58.0257 84.1809 63.3571 84.0891 68.2596 82.3608C68.3917 82.3132 68.5322 82.2927 68.6724 82.3008C68.8126 82.3088 68.9498 82.3451 69.0756 82.4076C69.2013 82.47 69.3132 82.5572 69.4043 82.664C69.4955 82.7708 69.564 82.8949 69.6059 83.0288L69.6059 83.0288Z" fill="white"/>
<path d="M67.2918 88.6401C66.522 89.6322 65.538 90.438 64.4133 90.9975C63.2885 91.5569 62.0519 91.8556 60.7955 91.8713C59.3902 91.9545 57.9875 91.6686 56.727 91.0422C55.4664 90.4158 54.392 89.4707 53.6104 88.3007C58.1096 87.1052 62.8575 87.2229 67.2918 88.6401Z" fill="#FF6551"/>
<path d="M45.403 80.8147C45.808 79.1062 43.6146 77.1246 40.504 76.3886C37.3933 75.6526 34.5434 76.4409 34.1385 78.1494C33.7335 79.8579 35.9269 81.8396 39.0376 82.5756C42.1482 83.3116 44.9981 82.5232 45.403 80.8147Z" fill="#F2786B"/>
<path d="M82.6136 82.0171C85.7651 81.4969 88.0876 79.6698 87.8009 77.9363C87.5143 76.2027 84.7271 75.2191 81.5755 75.7393C78.424 76.2596 76.1015 78.0866 76.3882 79.8202C76.6748 81.5537 79.462 82.5373 82.6136 82.0171Z" fill="#F2786B"/>
<g style="mix-blend-mode:multiply" opacity="0.21">
<path d="M94.6167 67.348L94.2156 72.464L93.5565 77.7209L93.5522 77.7533C92.8528 82.6708 92.0399 86.4253 91.1302 87.3673C87.8865 90.7232 69.2503 101.991 61.8896 101.58C54.5288 101.169 34.9977 91.3581 31.8217 87.7503C30.8054 86.5958 29.6716 82.4932 28.5994 77.4477C27.4252 72.2824 26.5337 66.3611 26.5337 66.3611C26.9678 69.6003 29.6965 80.3687 32.7087 86.0044C34.742 89.8085 55.4991 98.4659 62.7248 98.7209C69.9505 98.9777 80.5445 91.2877 86.2143 87.9582C91.7955 84.6811 94.5448 67.7197 94.6167 67.348Z" fill="#DA8966"/>
</g>
<g style="mix-blend-mode:screen" opacity="0.27">
<path d="M109.706 38.475C91.7074 11.767 70.8856 11.5283 61.3096 13.1953C57.3919 13.88 53.4122 14.1447 49.4383 13.9847C24.9713 12.9846 14.6038 27.7092 10.272 38.8729C12.0096 20.0383 19.5132 -3.94126 55.8644 5.93376C55.8644 5.93376 62.5931 -2.20633 78.5865 0.582043C93.4016 3.16432 106.555 17.1326 109.706 38.475Z" fill="#772F1E"/>
</g>
<g style="mix-blend-mode:multiply" opacity="0.21">
<g style="mix-blend-mode:multiply" opacity="0.21">
<path d="M60.0063 75.0712C58.9559 75.114 57.9313 75.4089 57.0192 75.931C56.9492 75.9652 56.8875 76.0143 56.8387 76.0749C56.664 76.324 56.9545 76.6398 57.2204 76.7791C58.9718 77.5329 60.9388 77.6196 62.7498 77.0229C63.2018 76.945 63.623 76.7422 63.9657 76.4376C64.1638 76.2303 64.2811 75.862 64.0724 75.6661C63.9793 75.593 63.8676 75.5473 63.7499 75.5342C62.032 75.1931 60.2611 75.2215 58.555 75.6173L60.0063 75.0712Z" fill="#DA8966"/>
</g>
</g>
<path d="M56.9256 76.3344C57.3907 76.1494 57.7719 75.8139 58.2608 75.6524C58.8273 75.487 59.4157 75.4085 60.0058 75.4197C60.563 75.396 61.1211 75.421 61.674 75.4944C62.2406 75.5862 62.7669 75.8447 63.1857 76.2369C63.2885 76.329 63.4208 76.3813 63.5589 76.3844C63.6969 76.3875 63.8315 76.3413 63.9384 76.2539C64.0453 76.1666 64.1174 76.044 64.1417 75.9082C64.166 75.7724 64.1409 75.6324 64.0709 75.5134C63.2931 74.1977 61.3881 74.2158 60.0818 74.2572C58.9682 74.2925 56.7832 74.4553 56.4941 75.9025C56.4455 76.1459 56.6636 76.4386 56.9256 76.3344H56.9256Z" fill="#D88261"/>
<g style="mix-blend-mode:screen" opacity="0.11">
<g style="mix-blend-mode:screen" opacity="0.11">
<path d="M68.7527 56.5538C68.8936 51.6779 63.206 50.7702 59.6069 51.2861C57.4737 51.5919 54.0268 51.5095 52.2251 52.6771C51.3606 53.2606 50.7084 54.1081 50.3661 55.0927C50.0237 56.0774 50.0097 57.1463 50.326 58.1396C50.7024 59.064 51.2114 59.9286 51.837 60.7065C53.5229 63.0689 55.015 65.5636 56.2986 68.1661C56.8719 69.3282 57.5245 70.625 58.7274 71.032C59.1502 71.1468 59.5921 71.1731 60.0256 71.1095C60.459 71.0458 60.8747 70.8935 61.2465 70.6621C62.7598 69.6883 63.9226 68.2576 64.5659 66.578C65.3038 64.9391 65.8079 63.1907 66.6361 61.598C67.485 59.9654 68.6992 58.405 68.7527 56.5538Z" fill="#F8A37A"/>
</g>
</g>
<g style="mix-blend-mode:screen" opacity="0.27">
<g style="mix-blend-mode:screen" opacity="0.27">
<path d="M56.9704 10.0402C54.3595 10.9169 52.1673 13.3043 50.3383 15.3205C48.4079 17.4202 46.6874 19.7033 45.2012 22.1373C42.3584 26.8633 40.6172 32.4218 41.4364 38.0129C41.8417 40.7787 42.7598 44.1284 45.2733 45.6251C45.3157 45.6472 45.3636 45.6563 45.4112 45.6515C45.4587 45.6466 45.5038 45.6279 45.5409 45.5978C45.5779 45.5676 45.6053 45.5272 45.6197 45.4817C45.6341 45.4361 45.6348 45.3874 45.6217 45.3414C45.0797 42.9737 43.98 40.795 43.6532 38.3616C43.3288 35.9375 43.4443 33.4747 43.9943 31.0915C45.185 25.9594 48.0273 21.4844 51.2851 17.4869C52.2275 16.3306 53.2207 15.224 54.2648 14.1674C55.3278 13.0875 56.5379 12.1669 57.555 11.0417C57.941 10.6147 57.5447 9.8473 56.9704 10.0402Z" fill="#772F1E"/>
</g>
<g style="mix-blend-mode:screen" opacity="0.27">
<path d="M57.8988 17.0895C58.3226 16.4813 57.4568 15.6282 56.8782 16.0678C53.3272 18.7654 52.0378 23.7898 52.0832 28.142C52.125 30.6834 52.5688 33.2022 53.3983 35.6051C54.1536 37.8191 55.0887 40.5995 56.9374 42.1104C57.0215 42.1791 57.1907 42.1422 57.1759 42.0047C56.932 39.7367 55.6694 37.6004 55.0274 35.4321C54.3268 33.1895 53.9507 30.8584 53.9105 28.5094C53.8993 26.4487 54.2445 24.4017 54.9309 22.4584C55.6763 20.5446 56.6744 18.739 57.8988 17.0895Z" fill="#772F1E"/>
</g>
<g style="mix-blend-mode:screen" opacity="0.27">
<path d="M52.4088 9.65625C49.5541 10.2376 46.9366 11.984 44.5893 13.6936C42.1884 15.4379 39.954 17.4 37.9145 19.555C33.6946 24.023 29.8919 29.2119 29.34 35.6071C29.08 39.0396 29.8704 42.4699 31.6062 45.4432C31.6652 45.5364 31.7558 45.6052 31.8615 45.6369C31.9672 45.6686 32.0808 45.6611 32.1813 45.6158C32.2819 45.5704 32.3627 45.4903 32.4088 45.3902C32.455 45.29 32.4633 45.1766 32.4324 45.0708C31.516 42.3357 31.1748 39.441 31.4301 36.568C31.6855 33.695 32.5319 30.9057 33.9163 28.3747C36.8447 23.4985 40.6516 19.2062 45.1443 15.715C47.5836 13.7562 50.3507 12.2022 52.6641 10.0935C52.873 9.90311 52.6362 9.60996 52.4088 9.65625Z" fill="#772F1E"/>
</g>
<g style="mix-blend-mode:screen" opacity="0.27">
<path d="M52.9007 7.28195C49.2308 6.8996 45.3272 8.52786 42.1022 10.1873C38.7697 11.9127 35.7283 14.1489 33.0884 16.8147C26.9964 22.9477 23.7938 31.2163 21.8427 39.6233C21.2081 42.1937 20.8534 44.8251 20.785 47.4716C20.7517 48.8203 20.8532 50.1691 21.088 51.4977C21.2103 52.1325 21.3762 52.758 21.5846 53.37C21.843 53.9753 22.1392 54.5639 22.4715 55.1321C22.742 55.6953 23.4555 55.2472 23.3727 54.7258C23.273 54.0978 23.3308 53.4546 23.2601 52.8127C23.2059 52.3212 23.1685 51.8267 23.1319 51.3335C23.0508 50.2381 22.9718 49.1418 22.9783 48.0426C23.003 45.8085 23.2417 43.5819 23.6912 41.3932C24.5795 36.8955 25.9437 32.5048 27.7606 28.2951C29.6239 24.0945 32.3139 20.3114 35.6706 17.171C39.0273 14.0306 42.9821 11.5971 47.2995 10.0152C49.1952 9.32672 51.1517 8.85004 53.0146 8.06601C53.1027 8.03477 53.1772 7.97398 53.2255 7.894C53.2738 7.81401 53.2929 7.71977 53.2795 7.62732C53.2661 7.53487 53.221 7.44993 53.1519 7.38696C53.0828 7.32399 52.9941 7.28688 52.9007 7.28195Z" fill="#772F1E"/>
</g>
<g style="mix-blend-mode:screen" opacity="0.27">
<path d="M47.5109 5.9798C46.6376 5.9326 45.762 5.94952 44.8912 6.03042C44.0114 6.14893 43.135 6.28537 42.2619 6.44855C40.4795 6.78578 38.7151 7.21236 36.9756 7.72667C33.5665 8.68146 30.3519 10.2274 27.4784 12.2939C22.2362 16.1516 18.733 21.955 16.6985 28.1739C15.697 31.2986 15.0443 34.5243 14.7521 37.7923C14.3781 41.703 14.6971 45.6598 14.2347 49.5608C13.7256 53.4157 12.5255 57.1474 10.6919 60.577C9.04988 63.7803 7.18515 66.9821 6.47404 70.5739C5.13564 77.3339 8.41629 85.0761 14.8951 87.5468C15.0909 87.6215 15.2684 87.306 15.0992 87.1741C10.6182 83.6794 7.45021 77.7407 8.28064 71.8471C8.76373 68.4187 10.4645 65.3536 12.0666 62.3675C13.8628 59.2101 15.2243 55.825 16.1143 52.3038C16.9947 48.4419 16.8951 44.5587 17.0244 40.6256C17.1281 37.467 17.5558 34.3274 18.3009 31.256C19.6332 25.2751 22.617 19.7872 26.9137 15.4154C29.6294 12.8429 32.8272 10.8322 36.3234 9.499C38.1408 8.78607 40.0086 8.20894 41.9115 7.77235C42.8159 7.55716 43.726 7.36463 44.6371 7.18139C45.6386 6.97992 46.5867 6.67397 47.5715 6.39683C47.6186 6.38037 47.6584 6.34809 47.6843 6.3055C47.7101 6.26291 47.7203 6.21267 47.7132 6.16338C47.706 6.1141 47.6819 6.06883 47.645 6.03534C47.6081 6.00185 47.5607 5.98221 47.5109 5.9798Z" fill="#772F1E"/>
</g>
<g style="mix-blend-mode:screen" opacity="0.27">
<path d="M20.7516 108.816C20.5703 108.857 20.3805 108.832 20.2153 108.747C20.05 108.663 19.9197 108.523 19.847 108.352C19.7743 108.181 19.7637 107.99 19.8172 107.812C19.8706 107.635 19.9847 107.481 20.1396 107.379C22.348 106.079 24.0389 104.057 24.9258 101.654C25.6946 99.3709 25.7144 96.902 24.9823 94.6065C24.165 92.0478 22.7585 89.7163 20.8756 87.7992C17.2577 84.0349 11.3091 81.3043 11.6657 75.1421C11.6654 75.0941 11.6842 75.0478 11.7178 75.0135C11.7515 74.9792 11.7974 74.9596 11.8454 74.9589C11.8935 74.9582 11.9399 74.9765 11.9746 75.0099C12.0092 75.0432 12.0292 75.0889 12.0303 75.1369C12.4656 78.6852 15.7181 81.1844 18.3263 83.1113C20.7603 84.7699 22.9155 86.8038 24.7117 89.1371C25.8534 90.7136 26.7113 92.477 27.2469 94.348C27.4831 95.1805 27.6487 96.0314 27.7419 96.8916C28.2641 101.701 25.7573 107.778 20.7516 108.816Z" fill="#772F1E"/>
</g>
<g style="mix-blend-mode:screen" opacity="0.27">
<path d="M35.6723 100.115C35.6655 102.755 34.5776 106 31.5775 106.161C30.6729 106.209 30.6629 104.986 31.3621 104.676C33.8173 103.585 33.8458 100.262 33.525 97.957C33.2856 96.1168 32.6299 94.3553 31.6077 92.806C31.2776 92.3183 30.9047 91.8609 30.4935 91.4393C28.8294 89.7403 26.7233 88.5821 25.011 86.9307C23.3856 85.4768 22.3463 83.4808 22.0878 81.3164C22.0503 80.9516 22.5918 80.8969 22.6873 81.224C23.4248 83.7574 25.6974 85.55 27.7292 86.9874C29.7692 88.4314 31.852 89.7859 33.2966 91.8786C33.4029 92.0329 33.506 92.1924 33.6059 92.3552C34.9885 94.7058 35.7029 97.3887 35.6723 100.115Z" fill="#772F1E"/>
</g>
<g style="mix-blend-mode:screen" opacity="0.27">
<path d="M42.0571 100.597C41.8739 101.981 40.6639 104.002 39.0541 103.645C38.9685 103.618 38.891 103.571 38.8288 103.507C38.7665 103.442 38.7216 103.363 38.6982 103.277C38.6747 103.191 38.6736 103.1 38.6948 103.013C38.716 102.926 38.7589 102.846 38.8194 102.78C39.2402 102.35 39.7257 102.14 40.0667 101.599C40.362 101.133 40.547 100.605 40.6076 100.056C40.7167 98.6339 40.2804 97.2232 39.3873 96.1103C39.1534 95.7919 39.6624 95.3858 39.9121 95.6805C41.0683 97.0366 42.3129 98.6779 42.0571 100.597Z" fill="#772F1E"/>
</g>
<g style="mix-blend-mode:screen" opacity="0.27">
<path d="M7.04316 104.127C6.55916 103.775 6.12052 103.364 5.73722 102.905C5.36544 102.397 5.02811 101.865 4.72748 101.312C4.14817 100.238 3.65667 99.1184 3.25777 97.9648C1.58709 93.2961 1.08098 88.2908 1.78328 83.3825C1.99437 80.9881 2.72247 78.6678 3.91742 76.5816C3.97221 76.5076 4.05235 76.4565 4.14251 76.4379C4.23267 76.4193 4.32653 76.4346 4.40615 76.4807C4.44852 76.5081 4.48193 76.5474 4.50222 76.5936C4.52252 76.6397 4.52882 76.6908 4.52035 76.7406C4.51171 76.8245 4.50148 76.9101 4.49121 76.994C4.23448 79.2098 3.666 81.3664 3.49903 83.5959C3.32513 85.9022 3.3836 88.2201 3.67357 90.5148C3.96745 92.8007 4.5009 95.0494 5.26513 97.224C5.65282 98.3279 6.10866 99.4107 6.57891 100.48C6.7973 100.98 7.02213 101.474 7.23403 101.977C7.4367 102.541 7.60165 103.117 7.7278 103.703C7.75311 103.79 7.74907 103.884 7.71629 103.969C7.68351 104.054 7.62378 104.126 7.54623 104.174C7.46867 104.222 7.37753 104.243 7.28671 104.235C7.19588 104.226 7.11035 104.188 7.04316 104.127Z" fill="#772F1E"/>
</g>
<g style="mix-blend-mode:screen" opacity="0.27">
<path d="M73.4559 28.0897C72.3428 25.5914 70.7923 23.3117 68.8772 21.3579C67.9132 20.2969 66.9284 19.2558 65.9581 18.2009C65.4847 17.6862 65.0261 17.161 64.591 16.6115C64.2402 16.0617 63.8318 15.5508 63.3728 15.0875C63.357 15.0725 63.3377 15.062 63.3166 15.0568C63.2955 15.0516 63.2734 15.0521 63.2526 15.0581C63.2317 15.064 63.2128 15.0754 63.1976 15.0909C63.1825 15.1065 63.1717 15.1257 63.1663 15.1467C62.8399 16.2166 63.778 17.4287 64.3607 18.2153C65.1664 19.3028 66.0375 20.3261 66.9192 21.348C68.7631 23.2962 70.3153 25.5006 71.5274 27.8928C72.6567 30.2379 72.8535 32.9237 72.0778 35.4081C71.6827 36.5884 71.1585 37.7216 70.5146 38.787C69.8004 39.7324 69.2867 40.8135 69.0049 41.964C68.9905 42.1063 69.1757 42.1496 69.2603 42.0687C69.7137 41.5532 70.1237 41.0013 70.4861 40.4185C70.8503 39.9279 71.2308 39.4498 71.6102 38.9718C72.4665 38.0258 73.19 36.9679 73.761 35.8272C74.6708 33.3066 74.5614 30.5309 73.4559 28.0897Z" fill="#772F1E"/>
</g>
<g style="mix-blend-mode:screen" opacity="0.27">
<path d="M83.3506 29.2272C80.0219 24.5096 75.0924 21.587 70.617 18.1902C69.327 17.2278 68.0891 16.1976 66.9087 15.1037C65.7058 13.9698 64.6121 12.7364 63.4508 11.5636C63.4199 11.5352 63.3805 11.5176 63.3387 11.5136C63.2968 11.5096 63.2548 11.5194 63.2191 11.5415C63.1834 11.5636 63.1558 11.5967 63.1408 11.6359C63.1257 11.6751 63.1238 11.7182 63.1355 11.7585C64.2061 14.1833 65.8571 16.3077 67.943 17.9447C70.0056 19.7566 72.2715 21.3171 74.4616 22.957C78.6858 26.1201 83.1631 29.8815 84.4619 35.3536C85.12 38.591 84.8542 41.948 83.6949 45.0417C83.5631 45.4223 84.0926 45.5721 84.2876 45.289C87.6471 40.4102 86.6179 33.8576 83.3506 29.2272Z" fill="#772F1E"/>
</g>
<g style="mix-blend-mode:screen" opacity="0.27">
<path d="M94.9524 40.4855C94.608 36.4344 93.5203 32.4812 91.7435 28.8235C89.9345 25.3074 87.2954 22.2845 84.0546 20.0163C80.9862 17.9628 77.6993 16.2557 74.2543 14.9262C72.391 14.1921 70.5746 13.3446 68.8152 12.3883C67.1407 11.3341 65.556 10.144 64.077 8.82999C63.9014 8.68544 63.5445 8.82217 63.6522 9.0927C64.9003 12.2301 68.2572 14.1011 71.065 15.5198C74.3056 17.157 77.7174 18.3637 80.8357 20.2641C84.0859 22.1513 86.8446 24.778 88.8874 27.9309C90.9312 31.3934 92.2172 35.2493 92.6608 39.2446C92.9724 41.7503 93.1454 44.2713 93.1789 46.7961C93.2028 48.1256 93.2249 49.4455 93.3002 50.7734C93.3148 52.0146 93.4623 53.2507 93.7402 54.4606C93.7515 54.4987 93.7749 54.532 93.8069 54.5555C93.8389 54.5791 93.8778 54.5915 93.9175 54.5909C93.9572 54.5904 93.9957 54.5768 94.027 54.5524C94.0583 54.528 94.0808 54.494 94.091 54.4556C94.8015 52.2395 95.152 49.924 95.129 47.5972C95.2224 45.2253 95.1634 42.8499 94.9524 40.4855Z" fill="#772F1E"/>
</g>
<g style="mix-blend-mode:screen" opacity="0.27">
<path d="M101.379 38.4336C101.139 33.5485 99.8016 28.78 97.4666 24.4812C95.1977 20.4633 92.1552 16.934 88.5145 14.0967C84.8738 11.2594 80.7068 9.17036 76.2541 7.95001C73.6811 7.2164 71.0375 6.75768 68.3676 6.58154C65.6557 6.40378 62.8711 6.76496 60.2211 6.02003C60.1781 6.01124 60.1334 6.01646 60.0936 6.03491C60.0538 6.05337 60.0209 6.08409 59.9998 6.12256C59.9788 6.16104 59.9706 6.20526 59.9765 6.24872C59.9824 6.29218 60.0021 6.33261 60.0327 6.36407C61.7209 7.77623 63.9485 7.77804 66.0214 7.87984C68.3726 7.99823 70.7097 8.31406 73.0079 8.82401C77.5973 9.81848 81.9498 11.6937 85.8238 14.3457C89.4967 16.8695 92.597 20.1372 94.9232 23.9366C97.2493 27.7359 98.7492 31.9819 99.3253 36.3983C99.6502 39.365 99.6737 42.357 99.3953 45.3284C99.1416 48.2684 98.5025 51.2464 98.5834 54.2038C98.5839 54.2601 98.6029 54.3147 98.6375 54.3592C98.672 54.4036 98.7203 54.4355 98.7748 54.4499C98.8293 54.4642 98.887 54.4603 98.9391 54.4386C98.9911 54.417 99.0346 54.3788 99.0628 54.3301C100.13 51.842 100.791 49.199 101.021 46.5018C101.377 43.8281 101.497 41.1283 101.379 38.4336Z" fill="#772F1E"/>
</g>
<g style="mix-blend-mode:screen" opacity="0.27">
<path d="M120.064 92.025C119.373 96.442 117.593 100.618 114.884 104.177C112.275 107.74 108.604 110.388 104.397 111.74C104.264 111.771 104.125 111.753 104.004 111.691C103.882 111.629 103.787 111.527 103.734 111.402C103.68 111.276 103.673 111.136 103.712 111.006C103.752 110.876 103.836 110.764 103.95 110.689C104.864 110.21 105.746 109.67 106.59 109.075C113.48 104.2 118.386 96.4078 118.111 87.5951C118.036 85.4958 117.729 83.4113 117.197 81.379C115.53 74.8636 111.939 68.8565 109.113 62.8521C107.102 58.8546 105.633 54.607 104.746 50.2215C103.809 44.862 104.6 39.4344 104.015 34.0515C103.439 28.7389 100.596 24.2898 97.9701 19.8193C95.5206 15.6512 92.8466 11.4979 89.0997 8.43771C81.5927 2.30387 71.559 2.82915 62.6535 4.44264C62.5476 4.46546 62.4369 4.44707 62.344 4.39122C62.2512 4.33537 62.1831 4.24625 62.1537 4.14202C62.1243 4.03779 62.1357 3.92627 62.1857 3.83018C62.2357 3.73408 62.3204 3.66063 62.4227 3.62478C63.5308 3.20639 64.6643 2.85884 65.8165 2.58423C75.204 0.499659 85.4331 1.79157 92.5946 8.8671C96.1357 12.3661 98.7783 16.7275 101.321 21.0116C102.768 23.3316 104.008 25.7753 105.024 28.314C105.966 31.0078 106.468 33.8356 106.511 36.6889C106.617 39.6 106.46 42.5149 106.578 45.4258C106.675 47.9036 107.059 50.3619 107.722 52.7514C109.093 57.1699 110.873 61.451 113.039 65.5395C115.274 69.7901 117.18 74.2058 118.739 78.7477C120.186 83.0152 120.639 87.5561 120.064 92.025Z" fill="#772F1E"/>
</g>
<g style="mix-blend-mode:multiply" opacity="0.28">
<path d="M7.72779 103.703C7.75311 103.79 7.74908 103.884 7.7163 103.969C7.68353 104.054 7.62381 104.126 7.54625 104.174C7.46869 104.222 7.37755 104.243 7.28672 104.235C7.19589 104.226 7.11036 104.188 7.04317 104.127C6.55916 103.775 6.12052 103.364 5.73722 102.905C5.36545 102.397 5.02811 101.865 4.72749 101.312C4.14818 100.238 3.65667 99.1184 3.25777 97.9649C1.58709 93.2961 1.08097 88.2908 1.78329 83.3825C1.99438 80.9881 2.72248 78.6678 3.91742 76.5816C3.97222 76.5076 4.05235 76.4565 4.14251 76.4379C4.23268 76.4193 4.32653 76.4346 4.40615 76.4807C4.43283 76.6496 4.46122 76.8218 4.49116 76.994C4.23444 79.2098 3.66596 81.3664 3.49899 83.5959C3.32508 85.9022 3.38356 88.2201 3.67353 90.5148C3.9674 92.8007 4.50085 95.0494 5.26508 97.224C5.65277 98.3279 6.10862 99.4107 6.57886 100.48C6.79725 100.98 7.02208 101.474 7.23398 101.977C7.43666 102.541 7.60163 103.117 7.72779 103.703Z" fill="#772F1E"/>
</g>
<g style="mix-blend-mode:multiply" opacity="0.28">
<path d="M27.742 96.8916C28.2643 101.701 25.7574 107.778 20.7518 108.816C20.5704 108.857 20.3807 108.832 20.2154 108.747C20.0502 108.663 19.9198 108.523 19.8471 108.352C19.7744 108.181 19.7639 107.99 19.8173 107.812C19.8708 107.635 19.9848 107.481 20.1397 107.379C22.3482 106.079 24.0391 104.057 24.926 101.654C25.6947 99.3709 25.7145 96.902 24.9825 94.6066C25.743 94.5802 26.5002 94.4938 27.247 94.348C27.4832 95.1805 27.6488 96.0314 27.742 96.8916Z" fill="#772F1E"/>
</g>
<g style="mix-blend-mode:multiply" opacity="0.28">
<path d="M33.6053 92.3552C34.9876 94.7058 35.7019 97.3888 35.6713 100.115C35.6645 102.755 34.5768 106 31.5772 106.161C30.6728 106.209 30.6628 104.986 31.3619 104.676C33.8166 103.585 33.8451 100.262 33.5243 97.957C33.285 96.1169 32.6294 94.3553 31.6074 92.806C32.1749 92.5231 32.7356 92.2117 33.296 91.8787C33.4023 92.033 33.5054 92.1924 33.6053 92.3552Z" fill="#772F1E"/>
</g>
<g style="mix-blend-mode:multiply" opacity="0.28">
<path d="M39.9121 95.6806C41.0683 97.0367 42.3129 98.678 42.0571 100.597C41.8739 101.981 40.6639 104.002 39.0541 103.645C38.9685 103.619 38.891 103.571 38.8288 103.507C38.7665 103.442 38.7216 103.363 38.6982 103.277C38.6747 103.191 38.6736 103.1 38.6948 103.013C38.716 102.926 38.7589 102.846 38.8194 102.78C39.2402 102.35 39.7257 102.14 40.0667 101.599C40.362 101.133 40.547 100.605 40.6076 100.056C40.7167 98.634 40.2804 97.2233 39.3872 96.1104C39.1534 95.792 39.6623 95.3859 39.9121 95.6806Z" fill="#772F1E"/>
</g>
<g style="mix-blend-mode:multiply" opacity="0.28">
<path d="M120.065 92.025C119.373 96.442 117.593 100.618 114.885 104.177C112.275 107.74 108.604 110.388 104.397 111.74C104.264 111.771 104.125 111.753 104.004 111.691C103.883 111.629 103.787 111.527 103.734 111.402C103.681 111.276 103.673 111.136 103.712 111.006C103.752 110.876 103.836 110.764 103.95 110.689C104.864 110.21 105.747 109.67 106.59 109.075C113.48 104.2 118.386 96.4079 118.111 87.5951C118.036 85.4958 117.729 83.4113 117.197 81.379C117.766 80.535 118.281 79.6561 118.74 78.7477C120.186 83.0152 120.639 87.5562 120.065 92.025Z" fill="#772F1E"/>
</g>
</g>
<path d="M43.8117 74.0106C47.5681 74.0106 50.6132 70.8763 50.6132 67.0098C50.6132 63.1434 47.5681 60.009 43.8117 60.009C40.0554 60.009 37.0103 63.1434 37.0103 67.0098C37.0103 70.8763 40.0554 74.0106 43.8117 74.0106Z" fill="white"/>
<path d="M49.5616 68.2915C49.3839 68.9699 49.0723 69.606 48.6452 70.1625C48.2181 70.719 47.6841 71.1847 47.0744 71.5322C46.4648 71.8796 45.7918 72.1019 45.095 72.186C44.3981 72.2701 43.6915 72.2143 43.0166 72.0218C41.6513 71.5947 40.5076 70.6505 39.8302 69.3915C39.1529 68.1324 38.9957 66.6584 39.3924 65.2851C39.5701 64.6066 39.8816 63.9705 40.3087 63.414C40.7358 62.8575 41.2698 62.3918 41.8795 62.0443C42.4891 61.6968 43.1621 61.4745 43.859 61.3904C44.5558 61.3063 45.2624 61.3621 45.9373 61.5546C47.3026 61.9818 48.4464 62.9259 49.1237 64.185C49.8011 65.4441 49.9582 66.9181 49.5616 68.2915Z" fill="black"/>
<path d="M47.2623 69.4034C47.2107 69.6006 47.1202 69.7854 46.9961 69.9471C46.872 70.1088 46.7169 70.2441 46.5397 70.3451C46.3626 70.4461 46.1671 70.5107 45.9646 70.5351C45.7622 70.5595 45.5569 70.5433 45.3608 70.4874C44.9642 70.3632 44.6319 70.0889 44.4352 69.7231C44.2384 69.3572 44.1927 68.9289 44.308 68.5299C44.3596 68.3327 44.4501 68.1479 44.5741 67.9862C44.6982 67.8244 44.8534 67.6891 45.0305 67.5881C45.2076 67.4872 45.4032 67.4226 45.6056 67.3981C45.8081 67.3737 46.0133 67.3899 46.2094 67.4458C46.6061 67.57 46.9383 67.8443 47.1351 68.2102C47.3319 68.5761 47.3775 69.0044 47.2623 69.4034Z" fill="white"/>
<path d="M71.7279 67.2818C71.8292 68.1799 72.1078 69.049 72.5475 69.8389C72.9871 70.6288 73.5792 71.3237 74.2894 71.8835C74.9997 72.4432 75.8139 72.8567 76.6851 73.1C77.5563 73.3433 78.4672 73.4116 79.365 73.3009C81.179 73.0234 82.8104 72.0424 83.9052 70.5708C85 69.0991 85.4698 67.2555 85.2126 65.44C85.1114 64.5419 84.8328 63.6727 84.3931 62.8829C83.9535 62.093 83.3614 61.3981 82.6512 60.8383C81.9409 60.2786 81.1267 59.8651 80.2555 59.6218C79.3843 59.3785 78.4734 59.3103 77.5756 59.421C75.7616 59.6984 74.1302 60.6794 73.0354 62.151C71.9407 63.6227 71.4709 65.4662 71.7279 67.2818Z" fill="white"/>
<path d="M72.7752 66.7688C72.854 67.4673 73.0706 68.1433 73.4126 68.7577C73.7546 69.3721 74.2151 69.9126 74.7675 70.3479C75.3199 70.7833 75.9533 71.1049 76.6309 71.2941C77.3085 71.4833 78.017 71.5364 78.7152 71.4503C80.1262 71.2345 81.3951 70.4715 82.2466 69.3269C83.0981 68.1823 83.4635 66.7483 83.2635 65.3362C83.1847 64.6377 82.9681 63.9616 82.6261 63.3473C82.2841 62.7329 81.8236 62.1924 81.2712 61.757C80.7188 61.3217 80.0854 61.0001 79.4078 60.8108C78.7302 60.6216 78.0217 60.5686 77.3234 60.6547C75.9125 60.8705 74.6436 61.6335 73.7921 62.7781C72.9406 63.9227 72.5752 65.3567 72.7752 66.7688Z" fill="black"/>
<path d="M74.3217 67.4075C74.3446 67.6104 74.4075 67.8069 74.5069 67.9854C74.6063 68.1639 74.74 68.321 74.9005 68.4475C75.061 68.574 75.245 68.6674 75.4419 68.7224C75.6387 68.7774 75.8446 68.7928 76.0474 68.7678C76.4574 68.7051 76.826 68.4834 77.0734 68.1508C77.3207 67.8182 77.4269 67.4015 77.3688 66.9912C77.3459 66.7882 77.283 66.5918 77.1836 66.4133C77.0843 66.2348 76.9505 66.0777 76.79 65.9512C76.6295 65.8247 76.4455 65.7312 76.2486 65.6763C76.0518 65.6213 75.846 65.6059 75.6431 65.6309C75.2332 65.6936 74.8645 65.9153 74.6172 66.2479C74.3698 66.5805 74.2636 66.9971 74.3217 67.4075Z" fill="white"/>
</svg>
