<svg width="139" height="210" viewBox="0 0 139 210" fill="none" xmlns="http://www.w3.org/2000/svg">
<g style="mix-blend-mode:multiply" opacity="0.95">
<g style="mix-blend-mode:multiply" opacity="0.95">
<g style="mix-blend-mode:multiply" opacity="0.95">
<path d="M115.343 179L48.1841 183.169V199.199L114.052 193.75C114.052 193.75 118.597 189.045 115.343 179Z" fill="#F8CC90"/>
</g>
</g>
<path d="M69.5 209.431C107.884 209.431 139 203.757 139 196.758C139 189.759 107.884 184.085 69.5 184.085C31.1162 184.085 0 189.759 0 196.758C0 203.757 31.1162 209.431 69.5 209.431Z" fill="#DEE1F3"/>
</g>
<path d="M115.922 175.462L42.0122 180.052V197.692L114.472 191.692C114.472 191.692 119.452 186.522 115.922 175.462Z" fill="#FF6551"/>
<g style="mix-blend-mode:multiply" opacity="0.95">
<path d="M115.922 175.462L42.0122 180.052V197.692L114.472 191.692C114.472 191.692 119.452 186.522 115.922 175.462Z" fill="#F8CC90"/>
</g>
<path d="M66.3521 183.472C66.3521 183.472 69.5021 188.202 66.3521 192.642L106.622 189.322C107.684 186.637 107.684 183.648 106.622 180.962L66.3521 183.472Z" fill="#FF6551"/>
<path d="M12.8618 176.522L69.8018 173.102L115.922 175.462L42.0418 180.052L12.8618 176.522Z" fill="#FF6551"/>
<path d="M14.272 177.692C14.272 177.692 16.742 186.162 14.982 192.052L41.312 196.522C41.312 196.522 44.632 196.052 45.212 191.102C45.792 186.152 41.312 180.002 41.312 180.002L14.272 177.692Z" fill="#FFEBDD"/>
<g style="mix-blend-mode:multiply" opacity="0.41">
<path d="M41.312 180.002L14.312 177.732C14.312 177.732 14.662 179.002 15.012 181.002L36.742 183.422C37.7446 183.525 38.6879 183.947 39.4331 184.625C40.1783 185.304 40.6861 186.204 40.882 187.192C40.882 187.192 40.882 187.272 40.882 187.312C40.9841 188.056 40.9078 188.813 40.6593 189.521C40.4109 190.229 39.9975 190.868 39.4533 191.385C38.909 191.902 38.2496 192.282 37.5295 192.494C36.8095 192.705 36.0493 192.742 35.312 192.602L15.492 189.072C15.4137 190.088 15.2327 191.093 14.952 192.072L41.282 196.542C41.282 196.542 44.602 196.072 45.182 191.122C45.762 186.172 41.312 180.002 41.312 180.002Z" fill="#E79E82"/>
</g>
<g style="mix-blend-mode:multiply" opacity="0.41">
<path d="M15.3618 183.252C15.4318 183.792 15.4918 184.352 15.5318 184.922L35.6818 186.582L15.3618 183.252Z" fill="#E79E82"/>
</g>
<g style="mix-blend-mode:multiply" opacity="0.41">
<path d="M30.4421 189.002L15.6021 186.682C15.6021 187.082 15.6021 187.492 15.6021 187.902L30.4421 189.002Z" fill="#E79E82"/>
</g>
<path d="M12.862 178.522L40.012 181.932C41.8975 183.6 43.0744 185.925 43.302 188.432C43.277 189.666 43.0068 190.882 42.5072 192.01C42.0076 193.138 41.2886 194.155 40.392 195.002L13.332 190.642L13.452 193.232L41.312 197.702C41.312 197.702 46.392 195.942 46.312 189.002C46.232 182.062 42.012 180.052 42.012 180.052L12.832 176.522L12.862 178.522Z" fill="#FF6551"/>
<path d="M111.572 159.192C111.572 159.192 108.632 168.282 111.572 175.342L102.272 178.522C102.272 178.522 94.7425 173.932 100.742 162.632L111.572 159.192Z" fill="#FFEBDD"/>
<g style="mix-blend-mode:multiply" opacity="0.41">
<g style="mix-blend-mode:multiply" opacity="0.41">
<path d="M102.272 178.522L111.572 175.342C111.186 174.406 110.891 173.435 110.692 172.442L103.012 175.002C103.012 175.002 102.072 174.532 101.362 171.222C101.202 170.147 101.266 169.049 101.55 168C101.834 166.95 102.332 165.97 103.012 165.122L110.812 162.282C111 161.249 111.247 160.227 111.552 159.222L100.722 162.662C94.7425 173.932 102.272 178.522 102.272 178.522Z" fill="#E79E82"/>
</g>
<g style="mix-blend-mode:multiply" opacity="0.41">
<path d="M110.362 165.722C110.362 165.192 110.462 164.722 110.522 164.202L104.092 167.322L110.362 165.722Z" fill="#E79E82"/>
</g>
<g style="mix-blend-mode:multiply" opacity="0.41">
<path d="M105.013 171.192L110.393 170.302C110.333 169.662 110.293 169.032 110.283 168.412L105.013 171.192Z" fill="#E79E82"/>
</g>
</g>
<path d="M19.1023 159.192C19.1023 159.192 14.3323 170.402 21.3923 178.192L99.3323 180.782C99.3323 180.782 95.6523 174.782 98.1423 162.012L19.1023 159.192Z" fill="#49B3F7"/>
<path d="M25.4425 163.002C25.4425 163.002 22.3725 168.242 26.3225 175.482L85.4425 177.172C85.4425 177.172 81.9125 173.682 83.8525 164.842L25.4425 163.002Z" fill="#89CEFA"/>
<path d="M113.512 156.322L98.1421 162.002C98.1421 162.002 94.5021 172.422 99.3321 180.772L112.802 176.422V173.242L102.272 177.122C102.272 177.122 98.0421 174.122 101.212 163.952L113.392 160.192L113.512 156.322Z" fill="#0071BC"/>
<path d="M19.1021 159.192L48.632 153.502L113.512 156.322L98.142 161.982L19.1021 159.192Z" fill="#0071BC"/>
<path d="M51.632 187.802C51.632 187.802 51.632 191.102 49.932 192.872C48.232 194.642 42.932 197.282 43.332 200.462C43.732 203.642 54.632 201.882 60.802 197.112C66.972 192.342 62.502 189.532 60.802 187.222L51.632 187.802Z" fill="#808080"/>
<path d="M44.5721 145.662C44.5721 145.662 36.6321 161.442 39.8021 171.162C42.9721 180.882 51.452 190.222 51.452 190.222C51.452 190.222 58.682 191.632 60.802 187.222C60.802 187.222 54.452 178.932 59.392 165.522C59.392 165.522 63.452 152.762 57.632 147.142C51.812 141.522 47.3921 142.742 44.5721 145.662Z" fill="#2435A1"/>
<path d="M81.7122 187.802C81.7122 187.802 81.7122 191.102 83.4122 192.872C85.1122 194.642 90.3622 197.282 90.0122 200.462C89.6622 203.642 78.7122 201.882 72.5322 197.112C66.3522 192.342 70.8422 189.532 72.5322 187.222L81.7122 187.802Z" fill="#808080"/>
<path d="M88.7722 145.662C88.7722 145.662 96.7122 161.442 93.5322 171.162C90.3522 180.882 81.8922 190.222 81.8922 190.222C81.8922 190.222 74.6522 191.632 72.5322 187.222C72.5322 187.222 78.8922 178.932 73.9522 165.522C73.9522 165.522 69.8922 152.762 75.7122 147.142C81.5322 141.522 85.9522 142.742 88.7722 145.662Z" fill="#2435A1"/>
<path d="M99.0125 117.672C99.0125 117.762 99.0125 117.862 99.0125 117.962C98.8684 118.633 98.5652 119.259 98.1283 119.788C97.6915 120.317 97.1339 120.734 96.5025 121.002C95.2452 121.537 93.9295 121.923 92.5825 122.152C90.5825 122.612 88.6625 123.262 86.6825 123.712C84.2409 124.211 81.7687 124.545 79.2825 124.712C75.2825 125.072 71.2025 125.422 67.1525 125.422C60.0206 125.255 52.9169 124.466 45.9225 123.062C42.078 122.536 38.315 121.529 34.7225 120.062C32.8425 119.202 30.8925 117.842 30.6025 115.792C30.3125 113.742 31.9925 111.472 33.0325 109.792C34.2193 107.923 35.6076 106.189 37.1725 104.622C40.2594 101.37 44.0114 98.8223 48.1725 97.1521C49.8025 96.5121 51.4425 95.8821 53.1125 95.3721L53.8425 95.1521C54.3725 95.0021 54.9025 94.8721 55.4425 94.7521C62.3783 93.3213 69.5718 93.7912 76.2625 96.1121C77.5225 96.5221 78.7825 96.9921 80.0025 97.5021C80.5325 97.7221 81.0625 97.9521 81.5825 98.1921C85.4336 99.8291 88.9647 102.135 92.0125 105.002C94.8726 107.841 97.0537 111.291 98.3925 115.092C98.7648 115.904 98.9754 116.78 99.0125 117.672Z" fill="#FF6551"/>
<g style="mix-blend-mode:multiply" opacity="0.95">
<path d="M98.4023 115.052C96.6725 110.082 93.4922 105.746 89.2723 102.602C84.4123 107.022 77.5223 108.832 71.6823 109.602C62.6823 111.392 50.5123 106.742 46.6823 97.812C43.1236 99.4776 39.9056 101.79 37.1923 104.632C35.6158 106.184 34.2141 107.904 33.0123 109.762C32.0123 111.482 30.2923 113.682 30.5823 115.762C30.8723 117.842 32.8223 119.172 34.7023 120.032C38.2948 121.498 42.0578 122.506 45.9023 123.032C52.8967 124.436 60.0004 125.225 67.1323 125.392C71.1323 125.392 75.2223 125.032 79.2623 124.682C81.7485 124.514 84.2208 124.18 86.6623 123.682C88.6623 123.232 90.5823 122.582 92.5623 122.112C93.9155 121.902 95.2385 121.529 96.5023 121.002C97.129 120.737 97.6835 120.327 98.12 119.806C98.5566 119.284 98.8624 118.666 99.0123 118.002C99.0123 117.902 99.0123 117.802 99.0123 117.712C98.9889 116.793 98.7815 115.889 98.4023 115.052Z" fill="#F8CC90"/>
</g>
<g style="mix-blend-mode:multiply">
<g style="mix-blend-mode:multiply">
<path d="M76.2922 96.0821C76.0322 96.5221 72.1222 100.082 65.0922 99.3621C58.7822 98.6921 56.1422 96.0521 55.4722 94.7221C62.4079 93.2913 69.6015 93.7612 76.2922 96.0821Z" fill="#F7A845"/>
</g>
</g>
<path d="M73.0821 95.4422C73.0821 95.4422 71.2821 98.1722 65.3721 97.4422C59.4621 96.7122 58.1421 94.4422 58.1421 94.4422V92.2222V89.0022L72.1421 87.8622L73.4621 87.7522V88.5722L73.2621 92.8222L73.0821 95.4422Z" fill="#EA9573"/>
<g style="mix-blend-mode:multiply" opacity="0.31">
<path d="M73.2021 92.8323C71.3221 94.0923 68.9221 95.3223 66.7921 95.2423C62.5621 95.0823 58.2521 92.2923 58.1421 92.2423V89.0023L72.1421 87.8623L73.4221 88.5723L73.2021 92.8323Z" fill="#DD7258"/>
</g>
<path d="M101.063 53.0024C101.063 53.0024 106.633 50.3924 109.743 54.3324C112.853 58.2724 107.923 68.2424 104.153 69.2224C100.383 70.2024 98.9126 69.2224 98.9126 69.2224L101.063 53.0024Z" fill="#FFBF94"/>
<path d="M31.3022 52.8623C31.3022 52.8623 25.7322 50.2423 22.6122 54.1623C19.4922 58.0823 24.4022 68.0923 28.1622 69.0723C31.9222 70.0523 33.4022 69.0723 33.4022 69.0723L31.3022 52.8623Z" fill="#FFBF94"/>
<path d="M103.702 38.0022C103.702 38.0022 102.702 52.6522 101.042 64.4322C100.802 66.2022 100.542 67.9022 100.282 69.4322C99.4824 74.1622 98.5724 77.7622 97.6124 78.6622C94.1424 82.0022 74.4824 92.5622 66.7824 92.0522C59.0824 91.5422 38.7824 81.7822 35.5224 78.2522C34.5224 77.1322 33.3424 73.1622 32.3024 68.2522C30.0724 57.8922 28.1924 43.4322 28.1924 43.4322C29.0124 19.6622 42.3224 11.6322 68.0124 10.8222C93.7024 10.0122 103.702 38.0022 103.702 38.0022Z" fill="#FFBF94"/>
<g opacity="0.27">
<path opacity="0.27" d="M84.6924 19.0923C84.6924 19.0923 81.6224 2.86227 64.2924 3.09227C57.0085 3.22898 49.8458 4.98091 43.3211 8.22163C36.7964 11.4623 31.0725 16.111 26.5624 21.8323C22.2081 27.4772 20.2478 34.6078 21.1047 41.6853C21.9616 48.7627 25.5668 55.2196 31.1424 59.6623C31.1424 59.6623 35.1424 52.2823 39.0724 46.5023C39.0724 46.5023 61.2224 56.1823 82.0724 38.0723C82.0624 38.0723 87.7624 29.1923 84.6924 19.0923Z" fill="#DA8966"/>
<path opacity="0.27" d="M81.0124 28.7923C81.0124 28.7923 80.3524 39.1323 87.1524 45.3423C93.9524 51.5523 99.2124 52.2123 99.2124 52.2123C99.2124 52.2123 102.942 59.2123 100.312 66.6923C100.312 66.6923 109.812 57.7723 108.312 39.2623C106.812 20.7523 97.8124 14.7023 80.9424 14.9223L81.0124 28.7923Z" fill="#DA8966"/>
</g>
<path d="M80.3223 47.0522C80.6023 47.4922 81.1023 47.4422 81.5823 47.4922C82.0623 47.5422 82.6823 47.5522 83.2423 47.5722C84.3257 47.5681 85.4006 47.7647 86.4123 48.1522C87.3356 48.5755 88.2079 49.1022 89.0123 49.7222C89.3987 50.0259 89.8028 50.3063 90.2223 50.5622C90.458 50.7101 90.7096 50.8309 90.9723 50.9222C91.2323 50.9922 91.4823 50.9222 91.7223 51.0422C91.9623 51.1622 92.2023 50.7922 92.0923 50.5622C91.9823 50.3322 92.0123 50.0122 91.8823 49.7522C91.7315 49.4677 91.5468 49.2024 91.3323 48.9622C90.9369 48.5068 90.4945 48.0945 90.0123 47.7322C89.0237 46.9701 87.9106 46.3848 86.7223 46.0022C85.4797 45.6399 84.1745 45.5445 82.8923 45.7222C82.4923 45.7222 79.7523 46.1622 80.3223 47.0522Z" fill="#5F130F"/>
<g style="mix-blend-mode:multiply" opacity="0.44">
<path d="M30.9522 65.3022C28.8361 64.2757 27.1833 62.4909 26.3222 60.3022C25.9922 59.3022 26.0722 57.7822 27.3222 57.6122C28.3822 57.4722 28.8122 58.8522 29.3222 59.6122C29.5722 59.9822 30.2422 59.7622 30.0822 59.2922C29.6522 58.0322 29.2322 56.4422 27.6622 56.2922C26.9058 56.2568 26.166 56.5217 25.6041 57.0293C25.0422 57.537 24.7036 58.2461 24.6622 59.0022C24.4522 60.8222 25.5522 62.5222 26.5822 63.9222C27.6122 65.3222 29.0122 66.4122 30.8522 66.0022C30.9184 65.9751 30.9762 65.9312 31.0202 65.8748C31.0641 65.8184 31.0925 65.7516 31.1026 65.6808C31.1127 65.6101 31.1041 65.5379 31.0778 65.4715C31.0514 65.4051 31.0081 65.3467 30.9522 65.3022Z" fill="#DA8966"/>
</g>
<g style="mix-blend-mode:multiply" opacity="0.44">
<path d="M108.213 58.8323C108.123 57.4623 106.983 56.2323 105.533 56.8323C104.533 57.2223 102.983 59.1123 104.053 60.0923C104.08 60.1171 104.113 60.1357 104.149 60.1468C104.184 60.1579 104.222 60.1611 104.259 60.1564C104.296 60.1516 104.332 60.139 104.363 60.1193C104.395 60.0996 104.422 60.0733 104.443 60.0423C104.983 59.3323 105.043 58.1623 106.083 57.8923C107.503 57.5323 107.083 59.8923 106.883 60.6223C106.723 61.4718 106.382 62.2768 105.883 62.9823C105.272 63.6274 104.518 64.1206 103.683 64.4223C103.643 64.4455 103.61 64.4774 103.585 64.5156C103.559 64.5538 103.543 64.5972 103.538 64.6426C103.532 64.6879 103.536 64.734 103.551 64.7773C103.566 64.8205 103.59 64.8599 103.623 64.8923C104.753 66.1323 106.403 64.4723 107.033 63.4723C107.873 62.0748 108.283 60.4612 108.213 58.8323Z" fill="#DA8966"/>
</g>
<path d="M48.6324 47.7522C47.8724 46.9422 46.3624 47.2422 45.3824 47.3822C44.2665 47.5589 43.182 47.8957 42.1624 48.3822C41.1716 48.8389 40.2412 49.4167 39.3924 50.1022C38.6624 50.6822 37.3924 51.7522 37.7424 52.8022C37.7864 52.9468 37.8748 53.0738 37.9951 53.1653C38.1153 53.2569 38.2613 53.3083 38.4124 53.3122C39.3024 53.4122 40.2024 52.3122 40.8524 51.8322C41.5908 51.2725 42.3931 50.8025 43.2424 50.4322C44.066 50.0926 44.9198 49.8315 45.7924 49.6522C46.7024 49.4522 47.9224 49.6522 48.6324 48.9422C48.7839 48.7871 48.8687 48.579 48.8687 48.3622C48.8687 48.1454 48.7839 47.9372 48.6324 47.7822V47.7522Z" fill="#5F130F"/>
<path d="M76.2224 76.0521C75.7081 78.0514 74.7703 79.9168 73.4724 81.5221C72.5653 82.6196 71.4251 83.5013 70.1348 84.1032C68.8444 84.7052 67.4362 85.0122 66.0124 85.0021C64.4192 85.0798 62.8329 84.7451 61.4069 84.0304C59.981 83.3156 58.7635 82.245 57.8724 80.9221C56.8056 79.3801 56.0233 77.6596 55.5624 75.8421C55.4931 75.5919 55.518 75.3251 55.6324 75.0921C55.7431 74.8355 55.9474 74.6306 56.2037 74.5192C56.4601 74.4078 56.7492 74.3981 57.0124 74.4921L57.3724 74.6121C63.0125 76.432 69.0822 76.432 74.7224 74.6121C74.8454 74.5735 74.9734 74.5533 75.1024 74.5521C75.3544 74.5517 75.6002 74.6307 75.8049 74.7779C76.0095 74.9251 76.1626 75.133 76.2424 75.3721C76.3051 75.5955 76.2981 75.8327 76.2224 76.0521Z" fill="#831532"/>
<path d="M76.2026 75.3422C73.2016 77.5187 69.6087 78.7291 65.9026 78.8122C62.1706 78.6723 58.5759 77.3681 55.6226 75.0822C55.7352 74.8251 55.9419 74.6207 56.2003 74.511C56.4588 74.4013 56.7493 74.3946 57.0126 74.4922L57.3726 74.6122C63.0127 76.4321 69.0824 76.4321 74.7226 74.6122C74.8456 74.5736 74.9736 74.5534 75.1026 74.5522C75.3441 74.5578 75.5784 74.6362 75.7747 74.7772C75.9709 74.9182 76.1201 75.1151 76.2026 75.3422Z" fill="white"/>
<path d="M73.4726 81.5223C72.5654 82.6197 71.4253 83.5015 70.1349 84.1034C68.8446 84.7053 67.4364 85.0124 66.0126 85.0023C64.4194 85.08 62.8331 84.7453 61.4071 84.0305C59.9811 83.3158 58.7637 82.2452 57.8726 80.9223C63.0275 79.6712 68.4289 79.8789 73.4726 81.5223Z" fill="#FF6551"/>
<path d="M50.6857 72.6643C51.0869 70.9942 48.8829 69.0327 45.763 68.283C42.643 67.5334 39.7884 68.2796 39.3872 69.9497C38.9859 71.6198 41.1899 73.5813 44.3099 74.3309C47.4299 75.0806 50.2844 74.3344 50.6857 72.6643Z" fill="#F2786B"/>
<path d="M88.0458 74.4421C91.2232 73.9944 93.6047 72.2527 93.3651 70.5519C93.1254 68.8511 90.3554 67.8352 87.178 68.2829C84.0006 68.7306 81.6191 70.4723 81.8587 72.1731C82.0983 73.8739 84.8684 74.8898 88.0458 74.4421Z" fill="#F2786B"/>
<g style="mix-blend-mode:multiply" opacity="0.21">
<g style="mix-blend-mode:multiply" opacity="0.21">
<path d="M65.4426 67.3022C64.394 67.3325 63.367 67.6064 62.4426 68.1022C62.3715 68.1373 62.3071 68.1847 62.2526 68.2422C62.0726 68.4822 62.3626 68.7922 62.6326 68.9322C64.3878 69.7014 66.3607 69.8149 68.1926 69.2522C68.645 69.1844 69.0704 68.9942 69.4226 68.7022C69.6226 68.5022 69.7426 68.1422 69.5426 67.9522C69.4455 67.8796 69.3323 67.8315 69.2126 67.8122C67.4912 67.4522 65.7139 67.4522 63.9926 67.8122L65.4426 67.3022Z" fill="#DA8966"/>
</g>
</g>
<path d="M62.3323 68.4921C62.8023 68.3221 63.1923 68.0021 63.6823 67.8521C64.2553 67.6959 64.8489 67.6285 65.4423 67.6521C66.0039 67.6369 66.5657 67.667 67.1223 67.7421C67.687 67.8427 68.2111 68.1029 68.6323 68.4921C69.1023 68.8921 69.8823 68.3922 69.5323 67.8022C68.7623 66.5022 66.8523 66.4922 65.5323 66.5122C64.4123 66.5122 62.2123 66.6521 61.9023 68.0621C61.9023 68.3021 62.0623 68.5921 62.3323 68.4921Z" fill="#D88261"/>
<path d="M78.0824 64.0021C77.4597 63.3408 76.9929 62.5485 76.716 61.6834C76.4392 60.8182 76.3594 59.9021 76.4824 59.0021C76.7421 57.1936 77.6918 55.5558 79.1324 54.4321C80.5398 53.3009 82.336 52.7692 84.1324 52.9521C85.0295 53.0587 85.8882 53.3773 86.6377 53.8815C87.3872 54.3858 88.0058 55.0613 88.4424 55.8521C88.6858 56.3556 88.8801 56.8813 89.0224 57.4221C89.334 58.4343 89.4294 59.5007 89.3024 60.5521C88.9392 62.173 87.9833 63.5997 86.6224 64.5521C85.6304 65.3799 84.3933 65.8578 83.1024 65.9121C81.7346 65.7819 80.4212 65.3109 79.2824 64.5421C78.4503 64.1938 77.7842 63.5385 77.4224 62.7121L78.0824 64.0021Z" fill="white"/>
<path d="M55.2025 63.8322C55.5899 63.0114 55.7908 62.1149 55.7908 61.2072C55.7908 60.2995 55.5899 59.4031 55.2025 58.5822C54.4084 56.9338 53.0127 55.6526 51.3025 55.0022C49.6023 54.3448 47.7109 54.388 46.0425 55.1222C45.2224 55.498 44.5031 56.0628 43.9434 56.7703C43.3837 57.4777 42.9996 58.3077 42.8225 59.1922C42.7358 59.7477 42.709 60.311 42.7425 60.8722C42.7402 61.9524 42.9722 63.0203 43.4225 64.0022C44.257 65.4409 45.6031 66.5121 47.1925 67.0022C48.3898 67.4907 49.7146 67.5715 50.9625 67.2322C52.2267 66.6979 53.3346 65.8515 54.1825 64.7722C54.8754 64.1912 55.3133 63.3621 55.4025 62.4622L55.2025 63.8322Z" fill="white"/>
<path d="M88.5921 61.1323C88.5099 60.0817 88.1293 59.0765 87.4951 58.235C86.8608 57.3935 85.9994 56.7507 85.0121 56.3823C82.2821 55.4923 78.7521 56.8523 77.8621 59.5323C77.6957 59.8152 77.5647 60.1174 77.4721 60.4323C76.0421 65.1223 81.9121 67.0923 85.4721 65.7223C86.4285 65.413 87.2545 64.7938 87.8195 63.9626C88.3846 63.1313 88.6564 62.1354 88.5921 61.1323Z" fill="#2D2D2D"/>
<path d="M53.8223 59.3123L53.5823 59.0023C52.9026 58.3534 52.0659 57.8924 51.1542 57.6645C50.2426 57.4366 49.2874 57.4496 48.3823 57.7023C47.4236 57.9053 46.5409 58.3725 45.834 59.0512C45.1271 59.7298 44.6242 60.5927 44.3823 61.5423C43.9323 63.5423 44.3123 65.8523 46.2323 66.9823C49.4323 68.8823 55.5723 66.8223 55.4923 62.6023C55.479 61.9637 55.322 61.3362 55.0329 60.7666C54.7438 60.197 54.33 59.6999 53.8223 59.3123Z" fill="#2D2D2D"/>
<path d="M79.9424 62.4422C79.8568 62.6695 79.8187 62.9119 79.8308 63.1545C79.8428 63.3971 79.9047 63.6346 80.0124 63.8522C80.0756 64.2167 80.2703 64.5454 80.5597 64.7758C80.8492 65.0062 81.2131 65.1224 81.5824 65.1022C82.0265 65.0827 82.4514 64.9158 82.79 64.6278C83.1287 64.3399 83.3618 63.9474 83.4524 63.5122C83.8624 61.4422 80.7224 60.4122 79.9424 62.4422Z" fill="white"/>
<path d="M53.0123 62.9421C53.1655 63.1322 53.2769 63.3525 53.3389 63.5886C53.4009 63.8247 53.4123 64.0713 53.3723 64.3121C53.425 64.6864 53.3364 65.0669 53.1238 65.3793C52.9112 65.6918 52.5897 65.9138 52.2223 66.0021C51.7866 66.1152 51.3254 66.078 50.9135 65.8966C50.5016 65.7151 50.1629 65.4 49.9523 65.0021C48.9323 63.1821 51.6123 61.2521 53.0123 62.9421Z" fill="white"/>
<path d="M29.1922 50.4524L24.8122 41.0024C24.8122 41.0024 -0.637758 45.6724 0.0122422 82.0024C1.73428 82.8582 3.51953 83.5803 5.35224 84.1624C5.17072 80.9997 5.81153 77.8439 7.21224 75.0024C7.51871 78.4064 8.08029 81.7826 8.89224 85.1024C11.0613 85.6093 13.2757 85.8974 15.5022 85.9624C14.9457 82.3217 15.0371 78.6113 15.7722 75.0024C16.5848 78.6675 17.6677 82.2674 19.0122 85.7724C21.0002 85.5603 22.9452 85.0513 24.7822 84.2624C24.7822 84.2624 19.3222 62.7324 29.1922 50.4524Z" fill="#672410"/>
<path d="M107.282 36.6323L103.552 48.8123C106.566 53.5109 108.107 59.0032 107.977 64.584C107.847 70.1648 106.052 75.5793 102.822 80.1323C102.419 80.835 102.055 81.5595 101.732 82.3023C101.542 82.6623 101.352 83.0123 101.142 83.3723C103.153 84.7593 105.348 85.8599 107.662 86.6423C109.213 83.6967 110.312 80.5347 110.922 77.2623C110.922 77.2623 111.622 83.1323 110.362 87.4323C112.915 88.0587 115.553 88.2614 118.172 88.0323C119.936 84.9929 121.012 81.603 121.322 78.1023C121.714 81.1925 121.831 84.3114 121.672 87.4223C123.456 86.9625 125.178 86.291 126.802 85.4223C126.802 85.4223 144.352 44.3123 107.282 36.6323Z" fill="#672410"/>
<path d="M5.83247 68.4923H5.78247C5.65802 68.4874 5.53587 68.4572 5.42341 68.4037C5.31096 68.3501 5.21055 68.2743 5.12827 68.1808C5.04599 68.0873 4.98355 67.9781 4.94474 67.8597C4.90592 67.7414 4.89155 67.6164 4.90247 67.4923C5.38247 58.4323 12.0125 50.0023 18.4325 45.7323C18.6368 45.5946 18.8873 45.5436 19.1292 45.5905C19.371 45.6373 19.5844 45.7783 19.7225 45.9823C19.8607 46.1882 19.912 46.4403 19.8651 46.6838C19.8183 46.9273 19.6772 47.1424 19.4725 47.2823C13.6625 51.1923 7.20247 59.2223 6.76247 67.6123C6.74967 67.8502 6.64606 68.0741 6.47302 68.2378C6.29998 68.4016 6.0707 68.4926 5.83247 68.4923Z" fill="#772F1E"/>
<path d="M11.8723 74.7424C11.6273 74.7424 11.3923 74.6458 11.2182 74.4736C11.0441 74.3013 10.9449 74.0673 10.9423 73.8224C10.7823 63.0024 13.6923 55.1024 20.3623 48.3724C20.536 48.196 20.7727 48.0959 21.0202 48.094C21.2678 48.0921 21.5059 48.1887 21.6823 48.3624C21.8586 48.5361 21.9588 48.7728 21.9607 49.0203C21.9625 49.2679 21.866 49.506 21.6923 49.6824C15.4023 56.0324 12.6923 63.4724 12.8023 73.8024C12.8036 73.9245 12.7808 74.0457 12.7353 74.1591C12.6898 74.2724 12.6224 74.3757 12.537 74.463C12.4515 74.5502 12.3498 74.6199 12.2374 74.6678C12.1251 74.7157 12.0044 74.7411 11.8823 74.7424H11.8723Z" fill="#772F1E"/>
<path d="M19.7621 76.0624C19.5387 76.0601 19.3234 75.9783 19.1548 75.8318C18.9862 75.6852 18.8754 75.4833 18.8421 75.2624C16.7221 60.4224 23.0721 52.9624 23.3421 52.6524C23.4197 52.5524 23.5169 52.4692 23.6277 52.4081C23.7386 52.347 23.8607 52.3091 23.9867 52.2969C24.1127 52.2846 24.2399 52.2982 24.3604 52.3368C24.481 52.3754 24.5924 52.4382 24.6878 52.5213C24.7833 52.6045 24.8607 52.7063 24.9155 52.8204C24.9702 52.9346 25.001 53.0587 25.0061 53.1852C25.0112 53.3117 24.9904 53.4378 24.945 53.556C24.8996 53.6742 24.8305 53.7818 24.7421 53.8724C24.6721 53.9624 18.7421 61.0824 20.6921 74.9924C20.7265 75.2375 20.6628 75.4863 20.5149 75.6847C20.367 75.8832 20.1468 76.0153 19.9021 76.0524L19.7621 76.0624Z" fill="#772F1E"/>
<path d="M113.552 73.7822H113.402C113.281 73.7641 113.164 73.7218 113.059 73.6578C112.954 73.5938 112.863 73.5095 112.792 73.4097C112.72 73.31 112.669 73.1969 112.641 73.0771C112.614 72.9573 112.611 72.8332 112.632 72.7122C113.282 68.7122 114.232 58.8023 108.922 53.9723C108.831 53.8898 108.757 53.7902 108.705 53.679C108.653 53.5679 108.623 53.4475 108.617 53.3248C108.612 53.202 108.63 53.0794 108.672 52.964C108.715 52.8485 108.779 52.7426 108.862 52.6523C108.944 52.5614 109.043 52.4878 109.153 52.4355C109.263 52.3833 109.383 52.3535 109.505 52.3479C109.627 52.3423 109.749 52.361 109.863 52.403C109.978 52.4449 110.083 52.5093 110.172 52.5922C115.942 57.8422 115.342 67.6423 114.472 73.0123C114.433 73.2277 114.319 73.4225 114.151 73.5631C113.983 73.7037 113.771 73.7812 113.552 73.7822Z" fill="#772F1E"/>
<path d="M119.552 77.2823H119.392C119.271 77.2618 119.155 77.2175 119.052 77.152C118.948 77.0864 118.858 77.001 118.787 76.9006C118.717 76.8002 118.667 76.6868 118.64 76.567C118.613 76.4471 118.611 76.3232 118.632 76.2023C120.772 64.1323 118.552 55.0423 111.632 47.6023C111.545 47.5159 111.476 47.413 111.429 47.2998C111.382 47.1865 111.357 47.065 111.357 46.9423C111.357 46.8196 111.382 46.6981 111.429 46.5848C111.476 46.4716 111.545 46.3688 111.632 46.2823C111.821 46.1288 112.059 46.0491 112.302 46.0583C112.545 46.0675 112.776 46.1649 112.952 46.3323C120.292 54.2423 122.662 63.8323 120.422 76.5323C120.381 76.7359 120.273 76.92 120.115 77.0557C119.958 77.1914 119.76 77.2711 119.552 77.2823Z" fill="#772F1E"/>
<path d="M126.302 72.8723H126.192C125.952 72.847 125.73 72.7279 125.577 72.5407C125.423 72.3535 125.35 72.1134 125.372 71.8723C126.372 62.5923 123.772 46.6623 112.312 43.4323C112.075 43.3647 111.874 43.2055 111.754 42.9899C111.634 42.7742 111.605 42.5197 111.672 42.2823C111.74 42.0449 111.899 41.8442 112.115 41.7241C112.33 41.6041 112.585 41.5747 112.822 41.6423C125.382 45.1823 128.322 62.1923 127.222 72.0823C127.191 72.3031 127.08 72.505 126.911 72.6503C126.742 72.7957 126.525 72.8745 126.302 72.8723Z" fill="#772F1E"/>
<path d="M26.6321 59.6622C26.3069 59.6635 25.986 59.5886 25.695 59.4434C25.404 59.2982 25.1512 59.0868 24.9567 58.8262C24.7622 58.5656 24.6315 58.2631 24.5751 57.9428C24.5188 57.6226 24.5383 57.2936 24.6321 56.9822C24.1927 57.28 23.658 57.403 23.1327 57.3272C22.6074 57.2513 22.1293 56.9821 21.7921 56.5722C21.4755 56.1482 21.2589 55.6581 21.1585 55.1386C21.0581 54.6191 21.0764 54.0836 21.2121 53.5722C21.5029 52.5506 21.948 51.5794 22.5321 50.6922C20.8821 50.8522 18.9321 50.8922 17.9021 49.5922C16.8721 48.2922 17.5821 46.0022 19.0121 44.8322C17.9887 44.57 17.0663 44.0096 16.3621 43.2222C15.1121 41.6122 16.1821 38.6722 17.8321 37.7422C20.5521 36.2322 24.6921 38.1922 26.3021 40.5422C26.9048 41.4977 27.3916 42.5216 27.7521 43.5922C28.8921 46.5922 30.6621 50.5022 30.1021 53.8122C29.7621 55.6022 28.8821 59.5122 26.6321 59.6622Z" fill="#FF6551"/>
<path d="M115.922 38.5621C116.046 39.0579 116.072 39.5732 115.997 40.0788C115.922 40.5844 115.748 41.0702 115.485 41.5085C115.222 41.9469 114.876 42.3291 114.465 42.6335C114.054 42.9378 113.588 43.1582 113.092 43.2821C113.752 44.3421 115.092 44.9321 115.532 46.0921C115.71 46.7273 115.679 47.4029 115.443 48.0188C115.207 48.6348 114.779 49.1584 114.222 49.5121C113.097 50.2011 111.833 50.6315 110.522 50.7721C110.997 52.3531 111.203 54.0028 111.132 55.6521C111.095 56.4786 110.873 57.2863 110.484 58.0164C110.095 58.7464 109.547 59.3804 108.882 59.8721C108.201 60.3415 107.375 60.553 106.552 60.4687C105.729 60.3844 104.964 60.0099 104.392 59.4121C103.8 58.5626 103.454 57.5659 103.392 56.5321C102.862 53.7653 102.724 50.9375 102.982 48.1321C103.19 46.7986 103.494 45.4819 103.892 44.1921C104.712 41.1921 105.822 38.6921 108.632 37.2421C111.082 36.0021 114.842 35.0021 115.922 38.5621Z" fill="#FF6551"/>
<path d="M84.6921 16.0022C84.6921 16.0022 81.6221 -0.217782 64.2921 0.00221791C57.0063 0.139934 49.8421 1.89434 43.3171 5.13868C36.7922 8.38302 31.0693 13.0363 26.5621 18.7622C19.1121 28.0822 17.7921 49.3522 31.3921 60.5422C31.3921 60.5422 34.2421 47.7522 38.1921 41.9722C38.1921 41.9722 61.1921 53.1022 82.0621 34.9722C82.0621 35.0022 87.7621 26.1122 84.6921 16.0022Z" fill="#672410"/>
<path d="M81.0122 25.7222C81.0122 25.7222 80.3522 36.0522 87.1522 42.2622C93.9522 48.4722 99.2122 49.1322 99.2122 49.1322C99.2122 49.1322 102.942 59.2422 100.312 66.6922C104.109 62.9675 107.025 58.4412 108.847 53.4443C110.669 48.4475 111.35 43.1065 110.842 37.8122C109.302 19.3022 97.8422 11.6322 80.9922 11.8122L81.0122 25.7222Z" fill="#672410"/>
<path d="M30.9324 59.5323C30.7346 59.5323 30.5419 59.4692 30.3824 59.3523C24.0024 54.7323 22.6424 44.6523 24.1224 36.7223C24.1753 36.4844 24.3185 36.2763 24.5219 36.142C24.7252 36.0077 24.9728 35.9576 25.2124 36.0023C25.335 36.0182 25.4532 36.0584 25.5601 36.1206C25.667 36.1827 25.7604 36.2656 25.8349 36.3643C25.9094 36.463 25.9635 36.5756 25.994 36.6954C26.0244 36.8153 26.0307 36.94 26.0124 37.0623C24.6824 44.1823 25.8324 53.7223 31.5224 57.8423C31.7235 57.9885 31.8586 58.2084 31.8979 58.4539C31.9373 58.6994 31.8777 58.9506 31.7324 59.1523C31.6411 59.2771 31.5202 59.3773 31.3805 59.4436C31.2408 59.51 31.0868 59.5404 30.9324 59.5323Z" fill="#772F1E"/>
<path d="M30.5521 55.3721C30.3376 55.3697 30.1304 55.294 29.9648 55.1575C29.7993 55.0211 29.6854 54.8322 29.6421 54.6221C27.3721 43.7121 28.0321 27.6221 37.3721 18.2721C39.8021 15.8321 42.8221 12.8021 46.7621 11.8621C46.8809 11.8339 47.0042 11.8293 47.1248 11.8487C47.2454 11.8681 47.361 11.9111 47.465 11.9751C47.569 12.0392 47.6593 12.1231 47.7309 12.2221C47.8025 12.3211 47.8538 12.4333 47.8821 12.5521C47.9103 12.6709 47.9149 12.7942 47.8955 12.9148C47.8761 13.0354 47.8331 13.151 47.769 13.255C47.705 13.359 47.621 13.4494 47.522 13.5209C47.423 13.5925 47.3109 13.6439 47.1921 13.6721C43.7721 14.4921 40.9521 17.3121 38.6921 19.5821C29.8721 28.4321 29.2921 43.7821 31.4721 54.2421C31.5226 54.4847 31.4753 54.7374 31.3404 54.9452C31.2056 55.1531 30.9941 55.2993 30.7521 55.3521L30.5521 55.3721Z" fill="#772F1E"/>
<path d="M34.4221 48.1423H34.2121C33.9753 48.0723 33.7727 47.9171 33.6434 47.7066C33.5142 47.4961 33.4674 47.2452 33.5121 47.0023C35.2321 39.8123 39.3721 33.6123 42.7121 30.6623C47.0359 26.7197 52.4618 24.1935 58.2621 23.4223C58.5026 23.4026 58.7414 23.477 58.928 23.6301C59.1146 23.7831 59.2344 24.0026 59.2621 24.2423C59.2845 24.4834 59.211 24.7235 59.0575 24.9107C58.904 25.0979 58.6829 25.217 58.4421 25.2423C53.0356 25.9748 47.9791 28.3322 43.9421 32.0023C40.8221 34.7623 36.9421 40.5923 35.3321 47.3923C35.2888 47.6024 35.1749 47.7913 35.0094 47.9278C34.8438 48.0642 34.6366 48.1399 34.4221 48.1423Z" fill="#772F1E"/>
<path d="M41.8922 41.4722C41.7434 41.4734 41.5965 41.4386 41.4642 41.3707C41.3318 41.3028 41.2179 41.2038 41.1322 41.0822C41.0605 40.9831 41.009 40.8708 40.9807 40.7518C40.9525 40.6328 40.948 40.5093 40.9675 40.3886C40.987 40.2678 41.0301 40.1521 41.0944 40.048C41.1587 39.944 41.2429 39.8536 41.3422 39.7822C45.7346 36.6288 50.6804 34.3289 55.9222 33.0022C56.041 32.972 56.1647 32.9655 56.286 32.983C56.4074 33.0006 56.5241 33.0419 56.6295 33.1046C56.7349 33.1673 56.8269 33.2501 56.9003 33.3483C56.9737 33.4466 57.027 33.5583 57.0572 33.6772C57.0874 33.796 57.0939 33.9196 57.0763 34.041C57.0587 34.1624 57.0174 34.2791 56.9547 34.3845C56.8921 34.4898 56.8092 34.5819 56.711 34.6553C56.6128 34.7286 56.501 34.782 56.3822 34.8122C51.3677 36.0751 46.6354 38.27 42.4322 41.2822C42.2777 41.4026 42.0881 41.4693 41.8922 41.4722Z" fill="#772F1E"/>
<path d="M50.7123 41.8222C50.4741 41.8225 50.2448 41.7314 50.0718 41.5677C49.8987 41.4039 49.7951 41.18 49.7823 40.9422C49.7742 40.8187 49.7905 40.6948 49.8304 40.5776C49.8702 40.4604 49.9328 40.3523 50.0146 40.2594C50.0964 40.1665 50.1957 40.0906 50.3068 40.0362C50.418 39.9817 50.5388 39.9498 50.6623 39.9422C54.1152 39.8289 57.5516 39.414 60.9323 38.7022C65.2223 37.6766 69.2247 35.6938 72.6397 32.9022C76.0548 30.1106 78.794 26.5825 80.6523 22.5822C80.7557 22.3581 80.944 22.1842 81.1756 22.0989C81.4072 22.0136 81.6632 22.0237 81.8873 22.1272C82.1114 22.2306 82.2853 22.4188 82.3706 22.6504C82.4559 22.882 82.4457 23.1381 82.3423 23.3622C80.3674 27.6242 77.4515 31.3829 73.8141 34.3552C70.1766 37.3275 65.9124 39.436 61.3423 40.5222C57.8569 41.2617 54.3133 41.6934 50.7523 41.8122L50.7123 41.8222Z" fill="#772F1E"/>
<path d="M101.272 51.4222C101.094 51.4233 100.919 51.3729 100.768 51.2772C100.617 51.1814 100.497 51.0443 100.422 50.8822C99.1024 48.0022 97.1724 46.6622 94.7324 45.0022C94.0324 44.5222 93.2924 44.0022 92.5424 43.4722C90.5424 42.0122 88.2124 39.6122 88.1024 36.4722C88.0971 36.3467 88.1166 36.2215 88.1598 36.1037C88.2029 35.9858 88.2689 35.8775 88.3538 35.7852C88.4388 35.6928 88.5411 35.618 88.655 35.5652C88.7688 35.5123 88.892 35.4824 89.0174 35.4772C89.1428 35.4719 89.268 35.4914 89.3859 35.5345C89.5038 35.5777 89.612 35.6436 89.7044 35.7286C89.7968 35.8136 89.8716 35.9159 89.9244 36.0297C89.9772 36.1436 90.0072 36.2667 90.0124 36.3922C90.1024 38.8122 92.0124 40.7722 93.7024 41.9822C94.4324 42.5222 95.1424 42.9822 95.8324 43.4722C98.3024 45.1422 100.632 46.7222 102.172 50.1122C102.222 50.2238 102.25 50.3441 102.253 50.4664C102.257 50.5887 102.236 50.7104 102.193 50.8247C102.149 50.9389 102.083 51.0434 101.999 51.1322C101.915 51.221 101.814 51.2924 101.702 51.3422C101.569 51.4063 101.42 51.4339 101.272 51.4222Z" fill="#772F1E"/>
<path d="M105.012 60.3621H104.842C104.599 60.3183 104.384 60.1799 104.244 59.9774C104.103 59.7749 104.048 59.5248 104.092 59.2821C105.432 51.7021 104.472 41.4821 97.7821 35.5121C97.5991 35.3456 97.489 35.1136 97.4759 34.8665C97.4628 34.6194 97.5477 34.3771 97.7121 34.1921C97.8738 34.0098 98.1006 33.8982 98.3437 33.8814C98.5869 33.8645 98.8269 33.9438 99.0121 34.1021C106.272 40.5721 107.342 51.5121 105.912 59.5921C105.875 59.8051 105.765 59.9984 105.601 60.1389C105.436 60.2795 105.228 60.3584 105.012 60.3621Z" fill="#772F1E"/>
<g style="mix-blend-mode:screen" opacity="0.27">
<path d="M110.792 37.8122C109.332 20.1722 98.8622 12.3822 83.2722 11.8722C81.1022 7.08222 75.8922 -0.127778 64.2722 0.00222196C56.9899 0.142881 49.8296 1.8987 43.3083 5.14293C36.787 8.38716 31.0673 13.0389 26.5622 18.7622C20.0822 26.8622 18.2422 44.0122 26.8222 55.7022C24.2622 48.4522 23.3122 40.2322 25.4522 33.0022C28.4522 23.0022 36.2922 14.6322 45.6022 10.1622C55.8522 5.24222 68.2322 7.65222 76.8922 14.8722C76.408 12.3663 75.4764 9.96802 74.1422 7.79222C77.3209 10.5488 79.8309 13.9923 81.4822 17.8622L82.6822 14.5122C82.9422 15.5122 83.1922 16.4522 83.4422 17.4222C87.3584 16.6431 91.4041 16.8111 95.2422 17.9122L87.9322 20.3322C91.1522 19.2722 96.3922 21.0422 99.0322 22.7722C102.339 25.1114 105.018 28.2302 106.832 31.8522C108.699 35.2448 110.067 38.889 110.892 42.6722C110.957 41.0517 110.923 39.4287 110.792 37.8122Z" fill="#772F1E"/>
</g>
<path d="M11.562 107.602C11.562 107.602 18.442 104.132 16.682 94.0322C16.682 94.0322 51.742 100.872 64.682 117.952C64.682 117.952 84.122 103.952 116.412 97.8122C116.412 97.8122 115.882 106.352 121.182 110.092L69.382 139.682L11.562 107.602Z" fill="#FFEBDD"/>
<g style="mix-blend-mode:multiply" opacity="0.41">
<path d="M50.342 129.112L98.432 123.112L121.152 110.112C119.314 108.729 117.97 106.79 117.322 104.582L75.592 115.792C75.592 115.792 71.032 120.262 65.662 120.602C64.2194 120.766 62.7607 120.496 61.4716 119.829C60.1824 119.161 59.1209 118.125 58.422 116.852L15.092 104.122C14.2184 105.554 13.0062 106.749 11.562 107.602L50.342 129.112Z" fill="#E79E82"/>
</g>
<g style="mix-blend-mode:multiply" opacity="0.41">
<g style="mix-blend-mode:multiply" opacity="0.41">
<path d="M49.2723 111.552C49.2723 111.552 31.1623 102.552 16.8623 99.0222C16.7672 99.8306 16.593 100.628 16.3423 101.402C27.5419 104.015 38.5453 107.406 49.2723 111.552Z" fill="#E79E82"/>
</g>
<g style="mix-blend-mode:multiply" opacity="0.41">
<path d="M89.3823 109.672C89.3823 109.672 106.542 104.672 116.892 103.002C116.692 102.153 116.552 101.291 116.472 100.422C110.272 102.232 97.0123 106.262 89.3823 109.672Z" fill="#E79E82"/>
</g>
<g style="mix-blend-mode:multiply" opacity="0.41">
<path d="M116.382 97.8122C84.0921 104.002 64.6521 118.002 64.6521 118.002C51.7421 100.872 16.6821 94.0022 16.6821 94.0022C16.8021 94.7022 16.8721 95.3622 16.9221 96.0022C24.4521 97.3022 48.7721 102.602 64.9221 118.942C64.9221 118.942 89.7421 103.142 116.392 99.1022C116.352 98.3222 116.382 97.8122 116.382 97.8122Z" fill="#E79E82"/>
</g>
</g>
<path d="M7.12207 107.602L9.12207 104.992L57.1521 118.102C57.1521 118.102 59.5621 122.152 66.0521 122.152C70.3321 122.152 75.3821 117.952 75.3821 117.952L122.742 104.952L124.272 107.562L71.2121 134.082L7.12207 107.602Z" fill="#B695F7"/>
<path d="M15.8018 155.482L7.13184 107.602L56.5018 121.562L60.5018 169.162L15.8018 155.482Z" fill="#864FF1"/>
<path d="M74.3818 121.562L124.272 107.602L116.972 156.892L75.5918 168.072L74.3818 121.562Z" fill="#864FF1"/>
<path d="M56.502 121.562C59.1117 123.423 62.2369 124.423 65.442 124.423C68.647 124.423 71.7722 123.423 74.382 121.562L75.592 168.072C75.592 168.072 69.382 176.372 60.502 169.162L56.502 121.562Z" fill="#864FF1"/>
<path d="M56.502 121.562C59.1117 123.423 62.2369 124.423 65.442 124.423C68.647 124.423 71.7722 123.423 74.382 121.562L75.592 168.072C75.592 168.072 74.592 171.812 68.232 172.072C66.022 172.172 63.412 171.502 60.502 169.142L56.502 121.562Z" fill="#864FF1"/>
<g style="mix-blend-mode:multiply" opacity="0.37">
<path d="M56.502 121.562C59.1117 123.423 62.2369 124.423 65.442 124.423C68.647 124.423 71.7722 123.423 74.382 121.562L75.592 168.072C75.592 168.072 74.592 171.812 68.232 172.072C66.022 172.172 63.412 171.502 60.502 169.142L56.502 121.562Z" fill="#8E487A"/>
</g>
<g style="mix-blend-mode:multiply" opacity="0.13">
<path d="M15.8022 155.482L60.5022 169.162L57.4322 132.572C56.4322 139.322 54.6522 148.572 52.2722 152.052C48.3522 157.692 38.1922 162.282 22.9322 151.342C19.2322 148.692 15.9322 144.672 13.0122 140.122L15.8022 155.482Z" fill="#8E487A"/>
</g>
<g style="mix-blend-mode:multiply" opacity="0.13">
<path d="M110.522 148.732C98.122 157.042 84.082 150.922 74.792 137.072L75.592 168.072L117.012 156.892L120.012 136.652C117.692 141.542 114.632 146.002 110.522 148.732Z" fill="#8E487A"/>
</g>
<g style="mix-blend-mode:multiply" opacity="0.37">
<path d="M57.1821 129.572C57.1821 129.572 66.0621 134.282 74.5921 129.572L74.7121 134.082C74.7121 134.082 68.3121 139.432 57.5521 134.082L57.1821 129.572Z" fill="#8E487A"/>
</g>
<g style="mix-blend-mode:multiply" opacity="0.37">
<path d="M59.6919 159.542C62.1259 160.76 64.8102 161.394 67.5319 161.394C70.2536 161.394 72.9379 160.76 75.3719 159.542L75.5019 164.542C73.2013 165.998 70.5346 166.771 67.8119 166.771C65.0892 166.771 62.4225 165.998 60.1219 164.542L59.6919 159.542Z" fill="#8E487A"/>
</g>
<path d="M123.652 122.902C123.652 122.902 121.252 120.352 119.592 120.622C117.932 120.892 119.652 123.422 121.202 124.722C121.202 124.722 115.072 123.122 114.822 124.452C114.572 125.782 120.002 127.752 120.002 127.752C120.002 127.752 114.192 127.092 114.612 128.652C115.032 130.212 119.922 130.852 119.922 130.852C119.922 130.852 114.472 130.612 114.502 131.852C114.532 133.092 119.192 134.182 121.822 132.852C122.821 132.336 123.662 131.559 124.253 130.602C124.845 129.646 125.166 128.547 125.182 127.422C125.268 126.603 125.176 125.775 124.912 124.995C124.648 124.215 124.218 123.501 123.652 122.902Z" fill="#FFBF94"/>
<path d="M8.59203 122.902C8.59203 122.902 10.992 120.352 12.652 120.622C14.312 120.892 12.592 123.422 11.042 124.722C11.042 124.722 17.172 123.122 17.422 124.452C17.672 125.782 12.242 127.752 12.242 127.752C12.242 127.752 18.052 127.092 17.632 128.652C17.212 130.212 12.322 130.852 12.322 130.852C12.322 130.852 17.772 130.612 17.742 131.852C17.712 133.092 13.052 134.182 10.422 132.852C9.42278 132.336 8.58241 131.559 7.99064 130.602C7.39887 129.646 7.07791 128.547 7.06203 127.422C6.97595 126.603 7.06812 125.775 7.33222 124.995C7.59631 124.215 8.02608 123.501 8.59203 122.902Z" fill="#FFBF94"/>
</svg>
