<svg width="125" height="349" viewBox="0 0 125 349" fill="none" xmlns="http://www.w3.org/2000/svg">
<path d="M24.2107 115.343C22.8712 114.456 21.5906 113.483 20.377 112.429C12.7147 105.737 8.55565 95.8475 6.03642 85.9633C2.51125 72.1323 0.677886 55.6927 5.57822 41.9646C7.25917 37.2555 9.5269 32.8018 10.9682 27.9944C12.9282 21.2027 16.2626 14.8912 20.7625 9.45559C24.3696 5.18903 29.1959 1.71558 34.6975 0.84159C40.0569 0.131682 45.4797 1.55927 49.805 4.81871C53.366 1.38404 58.4938 -0.0100577 63.4289 5.45876e-05C72.4874 0.0186883 78.8875 2.52144 84.8394 9.24542C88.9811 13.9244 92.9117 18.7814 96.6313 23.8163C102.999 32.4367 109.253 42.7195 109.825 53.7042C110.452 65.7322 107.378 77.6574 103.068 88.7844C100.352 95.7984 97.0801 102.685 92.364 108.531C85.0773 117.574 74.67 123.526 63.2146 125.201C52.2767 126.697 41.0815 123.965 31.1131 119.198C28.7251 118.078 26.4186 116.789 24.2107 115.343Z" fill="#662920"/>
<path d="M16.3945 87.6787C16.5138 91.0897 16.9606 94.4811 17.7286 97.8058C19.7144 105.294 25.9259 110.425 31.3167 115.542" stroke="#5B1F17" stroke-width="3" stroke-linecap="round" stroke-linejoin="round"/>
<path d="M28.1748 92.8281C30.5333 102.282 34.0687 112.508 45.2695 113.729" stroke="#5B1F17" stroke-width="3" stroke-linecap="round" stroke-linejoin="round"/>
<path d="M35.5107 95.4656C35.5827 102.099 41.6345 106.805 46.9631 109.513" stroke="#5B1F17" stroke-width="3" stroke-linecap="round" stroke-linejoin="round"/>
<path d="M74.3321 97.1917C74.8979 104.977 70.4539 111.171 65.5972 116.743" stroke="#5B1F17" stroke-width="3" stroke-linecap="round" stroke-linejoin="round"/>
<path d="M72.8434 224.008C72.8434 224.008 68.9913 251.545 68.7773 255.633C68.5633 259.72 70.9174 269.832 70.8104 274.349C70.7034 278.867 66.8513 303.607 66.6373 308.125C66.4233 312.643 65.7812 318.021 66.6373 321.248C67.4933 324.475 70.8027 332.22 71.0741 335.232C71.3454 338.244 61.7151 339.104 60.0031 337.598C58.291 336.093 55.0196 321.41 55.0809 320.691C55.1422 319.972 53.9424 302.384 53.7356 297.006C53.5288 291.627 53.5754 274.884 53.4328 269.023C53.2901 263.163 50.9102 221.788 50.9102 221.788L72.8434 224.008Z" fill="#FFBF94"/>
<g style="mix-blend-mode:multiply" opacity="0.39">
<g style="mix-blend-mode:multiply" opacity="0.39">
<path d="M56.5788 264.024C55.6158 262.41 54.5457 258.215 54.3442 252.407C54.1427 246.598 54.3442 226.805 54.3442 226.805L51.1323 225.675C51.7268 236.108 53.3169 264.267 53.4327 269.024C53.5754 274.885 53.5287 291.628 53.7355 297.007C53.7472 297.312 53.7625 297.661 53.7803 298.039L57.5419 300.09C57.5419 300.09 53.8818 281.009 55.0809 275.318C56.2799 269.628 56.7623 267.003 56.7623 267.003C56.7623 267.003 59.575 267.036 60.859 267.003C62.143 266.969 62.785 265.207 62.785 265.207C59.789 266.498 57.5419 265.637 56.5788 264.024Z" fill="#E6A07A"/>
</g>
<g style="mix-blend-mode:multiply" opacity="0.39">
<path d="M68.7773 255.634C68.8019 255.165 68.8761 254.375 68.9853 253.365C69.6571 247.145 71.7139 232.157 72.5167 226.36C70.25 227.048 61.0699 225.831 57.8094 225.922C53.9572 226.029 56.1756 229.199 56.1756 229.199C56.1756 229.199 60.1099 234.263 68.6703 232.74C68.6703 232.74 69.9543 232.83 69.8473 235.304C69.7402 237.778 68.3492 247.351 68.3492 247.351C67.581 250.286 67.0091 253.268 66.6372 256.279C66.4827 259.433 65.7575 262.531 64.4971 265.422C65.4841 263.949 66.3572 262.402 67.109 260.794C68.1721 265.589 68.979 270.437 69.5263 275.319C69.7419 277.827 69.8698 280.333 69.9466 282.439C70.4301 278.697 70.7791 275.665 70.8103 274.351C70.9172 269.833 68.5633 259.721 68.7773 255.634Z" fill="#E6A07A"/>
</g>
</g>
<path d="M53.7358 297.006C53.7358 297.006 62.2504 298.365 68.1355 297.006C68.1355 297.006 66.0162 315.117 66.2055 316.946C66.5445 318.91 67.0087 320.851 67.5952 322.756L71.7736 334.06C71.7736 334.06 63.3204 338.997 59.8962 338.245C56.4721 337.492 55.0811 328.994 55.0811 328.994L54.4319 320.066C54.4319 320.066 54.6387 307.05 54.4319 305.652C54.2251 304.253 53.7358 297.006 53.7358 297.006Z" fill="#FF6551"/>
<path d="M54.4319 320.065C53.8291 322.528 53.4545 325.042 53.3128 327.574C53.155 331.359 54.4391 344.259 56.7931 346.415C59.1472 348.57 65.9878 348.355 71.0743 347.172C76.1607 345.989 76.6957 342.908 76.5887 341.92C76.4817 340.933 71.5596 333.081 71.5596 333.081C71.5596 333.081 67.4934 336.418 62.8923 336.201C61.3816 336.19 59.9114 335.709 58.6847 334.822C57.458 333.936 56.5354 332.688 56.0441 331.252C55.6161 329.854 54.4319 320.065 54.4319 320.065Z" fill="#2435A1"/>
<path d="M75.543 339.736C71.8311 345.182 63.4652 346.288 59.4148 343.031C56.5434 340.722 54.7617 337.318 53.6079 333.513C54.1093 338.644 55.2082 344.964 56.7933 346.415C59.1472 348.571 65.9878 348.356 71.0744 347.172C76.1609 345.989 76.6958 342.908 76.5888 341.921C76.324 341.155 75.9731 340.422 75.543 339.736Z" fill="#243976"/>
<path d="M54.4316 324.368C56.4817 322.257 59.219 320.959 62.1431 320.711C66.7442 320.495 67.4989 320.874 67.4989 320.874L68.2499 324.335C65.9206 323.879 63.5177 323.976 61.2318 324.616C58.9459 325.257 56.84 326.424 55.0809 328.025L54.4316 324.368Z" fill="#2435A1"/>
<path d="M25.3193 205.379C25.3193 205.379 37.1952 246.684 37.3404 252.706C37.4856 258.728 36.4794 266.07 36.1246 274.901C35.7698 283.733 43.557 320.557 43.557 320.557L53.0322 320.326C53.0322 320.326 52.1185 292.373 52.3941 284.619C52.6698 276.865 54.441 268.86 54.1998 261.334C53.9587 253.808 52.8472 205.187 52.8472 205.187L25.3193 205.379Z" fill="#FFBF94"/>
<g style="mix-blend-mode:multiply" opacity="0.39">
<path d="M52.3255 258.702C53.0926 256.459 53.437 254.091 53.3411 251.721C52.906 254.01 52.1298 256.22 51.0388 258.277C50.8184 258.617 50.6392 258.982 50.5052 259.364C50.4306 259.66 50.3886 259.963 50.3798 260.268C50.3171 261.231 50.2544 262.194 50.1918 263.158C50.1929 263.816 50.0603 264.468 49.8021 265.073C48.7443 267.161 45.5363 267.857 43.373 268.347C44.8363 268.499 46.3132 268.453 47.7644 268.211C48.6676 268.135 49.5208 267.762 50.1921 267.15C50.6268 266.589 50.8915 265.914 50.9542 265.206C51.3101 263.038 51.4016 260.993 52.2225 258.965C52.2578 258.878 52.2922 258.79 52.3255 258.702Z" fill="#E6A07A"/>
</g>
<g style="mix-blend-mode:multiply" opacity="0.39">
<path d="M52.3944 284.619C52.6702 276.866 54.4413 268.86 54.2001 261.334C54.0456 256.509 53.5332 234.789 53.1853 219.823L30.8276 222.048L31.9133 229.161C31.9904 229.449 32.0673 229.738 32.1441 230.026C35.8122 231.293 39.6873 231.842 43.5607 231.646C49.4302 231.18 50.0711 230.23 51.6038 233.259C53.1365 236.288 53.3883 253.661 53.3883 253.661C53.3883 253.661 51.9889 264.831 51.8035 269.355C51.6178 273.878 50.5678 294.886 51.1681 298.26L52.4028 295.234C52.3348 290.786 52.3149 286.859 52.3944 284.619Z" fill="#E6A07A"/>
</g>
<g style="mix-blend-mode:multiply" opacity="0.39">
<path d="M39.1388 252.914C38.8298 256.644 39.6572 260.246 40.2369 263.912C40.2524 264.215 40.3685 264.505 40.5667 264.734C40.7577 264.884 40.9808 264.987 41.2183 265.036C41.718 265.179 42.3428 265.293 42.6973 264.933C42.5953 262.813 40.8625 261.071 40.3384 259.007C39.8741 257.179 38.9812 254.816 39.1388 252.914Z" fill="#E6A07A"/>
</g>
<path d="M38.7139 295.511C43.2365 296.592 47.9603 296.477 52.4255 295.177C52.4255 295.177 53.0945 317.097 54.1569 321.16C55.2193 325.223 57.4029 334.208 56.0472 337.899C54.6915 341.591 40.8169 339.346 39.7456 338.296C38.6743 337.246 42.4236 320.585 42.4236 320.585C42.4236 320.585 39.6828 301.283 38.7139 295.511Z" fill="#FF6551"/>
<path d="M39.4548 333.246C42.894 333.803 46.3907 333.907 49.8567 333.557C55.2037 332.943 54.6849 332.647 55.0337 329.477C55.3825 326.306 53.9815 320.303 53.9815 320.303L53.704 318.236C54.4693 321.284 59.1864 343.594 54.428 347.099C49.6696 350.604 38.7174 348.596 36.5886 346.389C34.4598 344.181 39.4548 333.246 39.4548 333.246Z" fill="#2435A1"/>
<path d="M56.082 331.741C55.9059 335.011 56.2495 338.429 55.6961 339.777C53.7023 344.658 40.8985 345.235 36.4601 341.678C35.974 343.757 35.8404 345.613 36.5888 346.389C38.7176 348.596 49.6698 350.604 54.4283 347.099C58.5612 344.055 57.1293 335.655 56.082 331.741Z" fill="#243976"/>
<path d="M41.0806 325.746C45.6864 324.242 50.6048 323.984 55.3415 324.996L54.0726 320.788C54.0726 320.788 46.5432 319.448 41.8878 321.579L41.0806 325.746Z" fill="#2435A1"/>
<path d="M35.8302 175.537C35.8302 175.537 33.1635 176.644 31.2343 182.791C29.3051 188.938 18.748 231.341 18.748 231.341C18.748 231.341 20.8916 238.224 32.2525 235.471L42.3272 178.792L35.8302 175.537Z" fill="#243976"/>
<path d="M42.6488 175.537L31.3594 238.5C31.3594 238.5 37.6504 243.456 44.5975 242.354C51.5446 241.253 55.403 235.945 57.5466 236.121L55.6728 177.041L42.6488 175.537Z" fill="#243976"/>
<path d="M54.2925 174.965L56.2155 236.506V239.601C56.2155 239.601 67.7778 244.832 76.917 237.123L67.1393 173.794L54.2925 174.965Z" fill="#243976"/>
<path d="M75.9672 172.387L91.4768 229.138C91.4768 229.138 83.2347 236.395 79.9865 236.121C76.7384 235.847 70.8705 236.128 70.8705 236.128L64.6206 177.649L75.9672 172.387Z" fill="#243976"/>
<path d="M26.6023 228.765C28.6538 227.862 29.7148 225.024 30.5364 222.446C33.9644 211.689 36.9971 200.741 39.6343 189.605L37.7613 200.53C36.623 207.169 35.4769 213.83 34.9235 220.601C34.4897 225.907 33.5066 233.074 38.1653 235.729C41.5648 237.666 45.6333 236.627 48.8412 234.209C50.2227 233.231 51.3387 231.921 52.0877 230.399C53.0319 228.355 53.1707 225.882 53.2862 223.511L54.9446 189.437C55.0209 201.647 55.1049 213.954 57.0588 225.904C57.6166 229.316 58.5345 233.049 60.9069 234.743C62.3381 235.625 64.0303 235.977 65.6921 235.739C68.4046 235.567 71.6943 234.272 72.1796 230.84C72.2709 229.897 72.2401 228.946 72.0881 228.011L67.3797 188.512C68.2048 200.17 71.0918 211.403 73.9587 222.516C74.3183 224.433 75.046 226.262 76.1011 227.899C76.5878 228.531 77.2265 229.028 77.957 229.343C78.6874 229.657 79.4856 229.78 80.2763 229.699C81.067 229.618 81.8242 229.337 82.4766 228.88C83.129 228.424 83.655 227.808 84.0051 227.091C84.2175 226.735 84.3593 226.342 84.4227 225.932C84.4567 225.402 84.3964 224.871 84.2448 224.363C81.5525 213.004 77.9492 201.645 75.2568 190.286C74.1183 185.483 75.9448 180.564 68.728 182.75C58.8279 185.748 50.0811 187.303 40.4361 183.154C32.9614 179.938 30.587 191.214 29.017 197.853C26.7531 207.427 23.8348 217.101 22.0894 226.852C23.0406 228.542 25.0777 229.436 26.6023 228.765Z" fill="#2435A1"/>
<path d="M69.213 188.546C70.0685 188.516 79.1203 187.205 79.0943 187.146L77.4449 183.406C77.3605 183.758 76.8619 183.729 76.5206 183.847C76.2841 183.953 76.0712 184.106 75.8947 184.297C74.5014 185.564 72.9218 185.706 71.2349 186.211C69.4681 186.831 67.6539 187.305 65.8104 187.629C62.7518 188.033 59.7633 188.608 56.67 188.768C50.4461 189.174 44.204 188.329 38.309 186.282C37.3758 185.951 36.4218 185.683 35.4531 185.48C36.2489 185.733 36.9808 186.156 37.5985 186.72C38.2162 187.285 38.7051 187.977 39.0316 188.749C39.3582 189.521 39.5146 190.355 39.4901 191.194C39.4657 192.032 39.261 192.856 38.8901 193.607C39.8586 191.801 41.0406 189.821 43.019 189.316C44.1077 189.126 45.225 189.182 46.2895 189.48L52.2696 190.688C53.1088 190.755 53.8935 191.132 54.4717 191.747C55.411 193.056 54.2233 195.156 55.231 196.412C55.7717 194.705 56.1478 192.949 56.3539 191.169C57.7574 190.55 59.2479 190.152 60.7723 189.991C61.536 189.917 62.3065 190.019 63.0245 190.291C63.7426 190.563 64.3891 190.997 64.9145 191.559C65.2288 191.967 65.5 192.407 65.7238 192.872L68.2648 197.717C67.8274 195.471 67.5358 193.199 67.3916 190.916C67.3421 190.132 67.3866 189.192 68.0523 188.78C68.4127 188.603 68.8125 188.522 69.213 188.546Z" fill="#243976"/>
<path d="M85.5436 171.216L85.5452 171.217C85.9025 171.656 86.3681 171.993 86.8955 172.194C87.4228 172.394 87.9935 172.452 88.5502 172.362C89.3156 172.068 89.9724 171.544 90.4316 170.862C93.3193 167.249 93.9307 165.832 96.5448 160.544C99.2219 155.128 106.012 139.165 107.689 134.481C108.115 133.293 109.719 133.072 112.385 132.408C115.049 131.743 117.134 125.477 118.692 123.97C120.251 122.463 126.042 118.903 124.836 117.208C123.63 115.514 117.4 121.023 117.052 120.073C116.704 119.123 123.638 109.458 121.92 108.013C120.203 106.567 114.43 116.676 113.857 116.209C113.284 115.742 118.357 105.207 116.481 103.489C114.603 101.771 110.308 114.297 109.657 114.988C109.005 115.679 112.189 102.488 110.623 101.54C109.059 100.591 108.075 105.289 108.075 105.289C107.155 108.35 106.131 114.737 105.211 117.798C105.171 118.041 105.084 118.275 104.954 118.484C104.824 118.694 104.654 118.876 104.454 119.019C103.904 117.896 104.097 116.547 103.987 115.287C103.891 114.16 103.54 113.071 102.961 112.101C102.569 111.397 101.995 110.812 101.3 110.408C100.96 110.216 100.578 110.108 100.187 110.095C99.7964 110.082 99.4082 110.164 99.0556 110.333C98.7843 110.463 98.5692 110.688 98.4504 110.965C98.1922 111.659 98.7886 112.338 99.1932 112.948C99.9643 114.311 100.224 115.907 99.9243 117.446C99.7134 118.989 99.2311 120.48 99.0244 122.024C98.7285 123.564 98.9957 125.159 99.777 126.517C100.412 127.225 101.002 127.972 101.543 128.754C102.001 129.92 102.065 131.205 101.727 132.411C101.66 132.759 101.586 133.105 101.504 133.449C94.9397 146.367 85.9514 156.241 83.4357 163.354C82.4938 166.017 83.6384 169.242 85.5436 171.216Z" fill="#FFBF94"/>
<path d="M76.5357 143.165C76.5921 144.838 76.7507 146.506 77.0105 148.159C77.0447 148.372 77.0812 148.583 77.1201 148.791C77.3208 149.88 77.5302 146.417 77.747 147.535L77.7477 147.539C80.0916 159.625 83.3121 170.098 85.5436 171.216L85.5453 171.217C86.2774 171.58 87.1055 169.757 87.9048 167.03C89.7666 160.672 91.4762 152.14 91.4762 152.14C91.4762 152.14 91.2822 150.809 90.9562 148.698C90.4441 145.381 89.608 144.706 88.6881 139.661C88.2382 137.186 87.7655 134.759 87.3046 132.632C87.0458 131.443 86.7891 130.349 86.5409 129.392C84.3694 121.011 81.581 116.27 79.8303 115.851C79.8304 115.851 76.0502 130.807 76.5357 143.165Z" fill="#FFBF94"/>
<g style="mix-blend-mode:multiply" opacity="0.39">
<path d="M76.5356 143.166C76.5925 144.838 76.7511 146.506 77.0106 148.159C81.7663 147.095 86.4162 142.31 88.6885 139.662C88.2381 137.186 87.7658 134.759 87.3046 132.632L87.3033 132.632L82.302 137.01C80.2608 138.946 78.3353 141.001 76.5356 143.166Z" fill="#E6A07A"/>
</g>
<path d="M1.38916 149.501L3.666 156.348C7.67862 157.156 12.1523 156.516 14.2954 154.837C16.9008 152.796 32.3474 138.216 32.3474 138.216C31.0069 131.364 29.9224 121.259 29.0177 121.593C27.9134 122.001 24.0664 125.977 24.0664 125.977L1.38916 149.501Z" fill="#FFBF94"/>
<g style="mix-blend-mode:multiply" opacity="0.39">
<path d="M19.7109 143.103C21.287 144.432 32.9397 148.571 33.1773 148.517C33.5214 147.417 33.81 146.3 34.042 145.17C34.042 145.17 33.8663 144.248 33.5712 142.74C33.1783 142.138 32.7495 141.56 32.2873 141.01L24.5602 136.57L20.8282 138.574C20.4677 140.019 20.0914 141.538 19.7109 143.103Z" fill="#E6A07A"/>
</g>
<path d="M42.3721 108.54C42.3721 108.54 44.0959 115.119 44.2654 115.065C44.4348 115.012 70.1612 113.722 70.1612 113.722L68.2159 111.51L67.8326 110.335C67.8326 110.335 62.5438 107.172 64.6094 96.4077C64.8403 95.2215 65.1307 94.0477 65.4794 92.891C65.7617 92.0064 65.9315 91.0895 65.985 90.1622C66.2913 81.2626 47.9835 92.3981 47.8295 92.3926C47.5463 92.8515 47.3235 93.3455 47.1669 93.8622C46.8299 94.7368 46.4962 95.6797 46.4962 95.6797C46.8331 96.8263 47.0671 98.001 47.195 99.1897C47.5711 102.597 47.1882 107.415 42.3721 108.54Z" fill="#E6A07A"/>
<g style="mix-blend-mode:multiply" opacity="0.39">
<path d="M46.4956 95.6801C46.8326 96.8267 47.0665 98.0014 47.1945 99.1901C49.7269 100.209 54.2174 101.861 56.1019 101.616C57.9564 101.374 62.1624 98.3034 64.6089 96.4082C64.8398 95.2219 65.1302 94.0482 65.4789 92.8914C65.7611 92.0068 65.931 91.09 65.9845 90.1626L57.218 92.816L47.1664 93.8626C46.8294 94.7372 46.4956 95.6801 46.4956 95.6801Z" fill="#E6A07A"/>
</g>
<path d="M74.9313 130.231C74.923 130.499 79.2718 136.368 79.0258 141.538C78.7798 146.708 75.2275 152.922 74.6154 156.382C74.0033 159.843 78.4679 179.709 78.4679 179.709C78.4679 179.709 60.5289 188.944 31.3978 181.035C31.3978 181.035 35.5962 163.772 33.0789 154.493C32.1158 150.944 28.1951 140.36 34.6374 130.32C41.0797 120.28 71.1137 128.839 71.1137 128.839L74.9313 130.231Z" fill="#864FF1"/>
<path d="M33.3949 149.281C34.2345 149.949 35.1227 150.552 36.052 151.087C37.1042 151.563 38.196 151.946 39.3147 152.23C41.9415 152.954 44.6066 153.606 47.2858 154.068C52.6265 155.101 58.0855 155.37 63.501 154.868C64.9612 154.701 66.4085 154.435 67.8331 154.071C69.2177 153.662 70.6474 153.426 72.0896 153.368C72.3043 153.368 72.3643 153.644 72.2391 153.792C70.4152 155.949 67.3925 156.752 64.8251 157.402C62.0408 158.079 59.1881 158.429 56.3238 158.446C53.2823 158.435 50.2529 158.06 47.2994 157.33C44.4365 156.705 41.6248 155.862 38.8886 154.81C37.5979 154.345 36.3802 153.696 35.2724 152.884C34.1277 152.131 33.2695 151.011 32.8368 149.706C32.8181 149.633 32.8211 149.557 32.8457 149.485C32.8703 149.414 32.9152 149.352 32.9749 149.307C33.0345 149.261 33.1062 149.234 33.181 149.23C33.2557 149.225 33.3301 149.243 33.3949 149.281Z" fill="#6640D0"/>
<path d="M15.2241 131.06C15.2241 131.06 18.8448 143.486 31.173 146.138C31.4561 146.2 31.7449 146.255 32.038 146.306C45.0624 148.547 76.7973 145.296 76.7973 145.296C77.3315 145.243 77.8593 145.137 78.3731 144.981C80.0837 144.425 81.65 143.494 82.9584 142.255C84.6642 140.589 86.197 138.753 87.5333 136.776C88.6124 135.29 89.6915 133.805 90.7707 132.318C91.281 131.617 91.7908 130.915 92.3002 130.214C92.0521 130.556 87.5357 123.773 87.1289 123.042C85.59 120.267 82.9987 114.772 80.7237 114.156C72.0607 111.81 66.9853 109.281 66.785 109.406C66.785 109.406 63.2094 113.207 53.9866 112.879C44.7637 112.552 42.3716 108.54 42.3716 108.54C42.3716 108.54 34.6465 111.301 31.3345 112.523C28.0861 113.721 21.3685 127.683 15.5624 130.884C15.4499 130.947 15.3363 131.005 15.2241 131.06Z" fill="#864FF1"/>
<g style="mix-blend-mode:screen" opacity="0.14">
<path d="M36.4394 139.349C35.9586 139.83 35.6048 140.425 35.4101 141.079C35.2153 141.733 35.1856 142.425 35.3238 143.094C35.7269 144.593 37.125 145.5 38.4299 146.211C42.8824 148.739 47.7369 150.473 52.7781 151.334C57.818 152.179 62.9921 151.608 67.7292 149.683C69.2862 149.11 70.667 148.137 71.7344 146.861C73.5041 144.516 73.4551 141.144 72.7367 138.236C71.9318 134.977 70.9193 131.564 69.8312 128.406C69.5066 127.555 69.1337 126.723 68.7143 125.916C68.673 125.837 68.6068 125.775 68.5261 125.738C68.4455 125.702 68.3551 125.694 68.2694 125.716C68.1837 125.737 68.1076 125.787 68.0533 125.857C67.9989 125.927 67.9695 126.013 67.9697 126.102C67.9632 128.367 67.8351 130.702 67.6192 132.955C67.5526 134.661 66.9468 136.302 65.8896 137.639C64.7545 138.745 63.2989 139.461 61.7331 139.681C55.1979 141.007 49.3859 138.358 43.038 137.509C40.7392 137.202 38.1881 137.561 36.5226 139.262C36.4946 139.29 36.4668 139.319 36.4394 139.349Z" fill="#FFC652"/>
</g>
<path d="M76.3227 133.199C77.3459 136.756 77.9976 140.411 78.267 144.104C78.2848 144.398 78.3202 144.691 78.3732 144.981C80.0838 144.425 81.6501 143.494 82.9585 142.255C84.6643 140.589 86.1971 138.753 87.5334 136.776C88.6125 135.291 89.6916 133.805 90.7708 132.319C89.2959 133.852 87.4476 134.971 85.4094 135.564C84.1861 135.912 82.8974 135.959 81.6524 135.7C80.4074 135.442 79.2426 134.886 78.2566 134.079C77.3535 133.233 76.5856 132.252 75.9798 131.17C75.9725 131.862 76.0886 132.549 76.3227 133.199Z" fill="#6640D0"/>
<path d="M15.2241 131.059C15.2241 131.059 18.8448 143.486 31.173 146.138C31.2281 142.9 31.3505 140.17 32.3475 138.216C33.4085 136.133 34.5294 133.62 34.7613 133.095C33.9476 134.941 32.6028 136.501 30.8999 137.573C30.0566 138.095 29.1181 138.443 28.1394 138.596C27.1606 138.748 26.1615 138.703 25.2004 138.462C24.2685 138.185 23.3806 137.775 22.5637 137.246C19.9 135.524 17.5349 133.375 15.5624 130.884C15.4499 130.947 15.3363 131.005 15.2241 131.059Z" fill="#6640D0"/>
<path d="M32.1112 137.656C32.5816 136.508 33.1017 135.383 33.6276 134.262C34.0174 133.139 34.6429 132.113 35.4616 131.253C35.4792 131.238 35.5009 131.227 35.5242 131.224C35.5474 131.221 35.5712 131.224 35.5923 131.235C35.6135 131.245 35.6312 131.261 35.6432 131.281C35.6551 131.302 35.6609 131.325 35.6596 131.349C35.6037 132.553 35.2663 133.727 34.6747 134.776C34.1789 135.941 33.6876 137.108 33.2574 138.302C32.3226 140.628 31.8519 143.116 31.8721 145.624C32.0883 150.672 36.1164 156.618 33.7687 161.512C33.7687 161.512 33.5673 159.752 33.547 159.495C33.0791 153.586 30.42 150.033 30.4896 144.766C30.5792 142.315 31.1294 139.902 32.1112 137.656Z" fill="#6640D0"/>
<path d="M40.9428 110.288C41.4638 110.485 41.9354 110.794 42.3243 111.194C42.8584 111.622 43.4144 112.022 43.9902 112.391C44.8011 112.919 45.6413 113.4 46.5068 113.831C46.8336 113.42 47.2205 113.062 47.6542 112.768C47.8901 112.63 48.226 112.887 48.1237 113.142C47.9379 113.544 47.6905 113.915 47.3907 114.241C47.9493 114.483 48.5184 114.701 49.0978 114.893C49.444 114.28 49.8993 113.737 50.4412 113.289C50.4776 113.27 50.5182 113.261 50.5592 113.262C50.6002 113.263 50.6402 113.275 50.6754 113.296C50.7106 113.317 50.7398 113.347 50.7603 113.383C50.7808 113.418 50.7919 113.459 50.7925 113.5C50.7447 113.874 50.6216 114.235 50.4307 114.56C50.3227 114.768 50.2216 114.991 50.1081 115.204C51.3199 115.546 52.5572 115.789 53.8079 115.931C53.8501 115.54 53.9581 115.16 54.1272 114.806C54.217 114.337 54.4601 113.911 54.8181 113.597C54.8576 113.577 54.9032 113.573 54.9457 113.585C54.9882 113.597 55.0245 113.626 55.0473 113.664C55.2087 114.135 55.2059 114.648 55.0394 115.118C55.0067 115.425 54.9437 115.729 54.8514 116.025C56.1947 116.113 57.5433 116.066 58.8774 115.885C58.8131 115.557 58.8154 115.218 58.8841 114.89C58.8891 114.522 59.011 114.164 59.2322 113.87C59.2666 113.84 59.307 113.818 59.3507 113.806C59.3943 113.794 59.4402 113.791 59.485 113.798C59.5298 113.805 59.5725 113.822 59.6102 113.848C59.6478 113.873 59.6794 113.907 59.7029 113.946C59.8484 114.251 59.917 114.588 59.9028 114.926C59.9454 115.185 59.9684 115.447 59.9715 115.709C60.7367 115.566 61.4938 115.382 62.2398 115.158C62.4304 115.101 62.6198 115.04 62.8084 114.978C62.7023 114.682 62.6173 114.38 62.554 114.072C62.434 113.714 62.3999 113.333 62.4546 112.96C62.4704 112.917 62.4966 112.879 62.5308 112.849C62.565 112.819 62.6062 112.798 62.6506 112.789C62.6949 112.779 62.7409 112.781 62.7844 112.794C62.8279 112.807 62.8674 112.831 62.8993 112.863C63.118 113.159 63.2838 113.492 63.389 113.845C63.4957 114.11 63.6432 114.372 63.7444 114.642C64.4493 114.371 65.1391 114.066 65.8137 113.729C65.7153 113.503 65.631 113.27 65.5422 113.042C65.4051 112.756 65.3082 112.451 65.2544 112.138C65.2341 111.918 65.582 111.8 65.7198 111.971C65.8881 112.216 66.0266 112.48 66.1322 112.758C66.2304 112.967 66.3375 113.173 66.4346 113.383C67.2503 112.8 68.1294 112.313 69.0551 111.931C69.062 111.929 69.0693 111.929 69.076 111.932C69.0827 111.934 69.0885 111.939 69.0928 111.944C69.0971 111.95 69.0996 111.957 69.1 111.964C69.1004 111.971 69.0987 111.978 69.0952 111.985C68.5325 112.728 67.8107 113.336 66.9832 113.761C66.0819 114.342 65.1349 114.848 64.1515 115.274C61.2395 116.542 58.0866 117.155 54.9142 117.068C51.7417 116.981 48.6265 116.198 45.7874 114.772C44.7303 114.245 43.7242 113.621 42.782 112.908C42.012 112.324 40.8122 111.595 40.5549 110.638C40.5444 110.587 40.5476 110.533 40.5641 110.483C40.5807 110.432 40.61 110.387 40.6492 110.352C40.6884 110.316 40.7361 110.292 40.7876 110.281C40.8391 110.27 40.8926 110.272 40.9428 110.288Z" fill="#6640D0"/>
<g style="mix-blend-mode:multiply" opacity="0.39">
<path d="M77.748 147.539C80.0919 159.625 83.3124 170.098 85.5439 171.216L85.5456 171.217C85.9028 171.656 86.3684 171.993 86.8958 172.194C87.4232 172.394 87.9938 172.453 88.5506 172.362C89.3314 172.096 89.9963 171.566 90.4319 170.862C97.7222 160.114 103.737 143.963 103.737 143.963C103.572 144.358 91.8949 166.858 87.9051 167.03H87.9043C86.6332 167.084 85.1503 164.88 83.7167 161.84C80.6515 155.343 77.8122 147.773 77.748 147.539Z" fill="#E6A07A"/>
</g>
<path d="M74.0607 157.229C74.0972 156.153 74.2428 155.084 74.4953 154.037C74.7763 153.073 75.1788 152.149 75.6931 151.288C76.1857 150.472 76.6299 149.627 77.0233 148.758C77.419 147.748 77.5962 146.665 77.5432 145.58C77.4309 143.215 77.1394 140.862 76.6711 138.541C76.2023 135.896 75.6087 133.282 75.2812 130.611C75.2598 130.437 75.4983 130.3 75.5761 130.491C77.3387 134.882 78.4646 139.504 78.9192 144.217C79.0712 145.329 79.0757 146.456 78.9325 147.569C78.7508 148.54 78.4203 149.476 77.9527 150.345C76.9787 152.261 75.8431 153.961 75.4115 156.134C74.8671 158.876 74.7452 161.73 74.331 164.499C74.3306 164.524 74.3253 164.549 74.3153 164.572C74.3053 164.595 74.2909 164.615 74.2729 164.632C74.2548 164.65 74.2336 164.663 74.2103 164.672C74.1871 164.681 74.1623 164.685 74.1374 164.684C74.1126 164.683 74.0881 164.677 74.0656 164.667C74.043 164.656 74.0227 164.642 74.006 164.623C73.9892 164.605 73.9762 164.583 73.9679 164.559C73.9596 164.536 73.956 164.511 73.9573 164.486C73.922 162.067 73.9383 159.645 74.0607 157.229Z" fill="#6640D0"/>
<path d="M33.7363 178.578C33.7363 178.578 55.491 184.588 75.7595 178.131" stroke="#6640D0" stroke-linecap="round" stroke-linejoin="round"/>
<path d="M30.1662 121.739L45.6382 118.996C45.6382 118.996 47.9808 117.544 48.3922 120.368C48.8036 123.191 52.0137 179.502 52.0137 179.502C52.0137 179.502 50.4086 181.438 49.2851 181.438C48.1616 181.438 26.8354 180.309 26.8354 180.309L30.1662 121.739Z" fill="#CE4831"/>
<path d="M35.3218 118.364C38.5299 119.925 42.0797 120.642 45.6388 120.448L49.2857 179.341C49.2857 179.341 45.6345 178.19 39.6816 180.309L35.3218 118.364Z" fill="#FFEBDD"/>
<g style="mix-blend-mode:multiply" opacity="0.41">
<path d="M43.5591 120.215L45.2599 136.718L44.8433 120.488L43.5591 120.215Z" fill="#E79E82"/>
</g>
<g style="mix-blend-mode:multiply" opacity="0.41">
<path d="M46.6812 178.835L46.1455 159.091L48.4266 179.163L46.6812 178.835Z" fill="#E79E82"/>
</g>
<g style="mix-blend-mode:multiply" opacity="0.41">
<path d="M44.4092 179.164V165.116L45.7153 179.053L44.4092 179.164Z" fill="#E79E82"/>
</g>
<g style="mix-blend-mode:multiply" opacity="0.41">
<path d="M42.3027 120.215L42.8284 131.137L41.0566 120.215H42.3027Z" fill="#E79E82"/>
</g>
<path d="M15.9956 124.232C15.9956 124.232 19.8477 178.446 20.0082 180.059C20.0082 180.059 20.1447 181.673 22.8853 181.995C25.6259 182.318 41.3816 182.641 41.3816 182.641C41.3816 182.641 43.6619 182.802 43.8729 179.575C44.084 176.348 40.2318 118.437 40.2318 118.437C40.2318 118.437 39.7086 116.175 36.088 116.981C32.4675 117.788 15.9956 124.232 15.9956 124.232Z" fill="#CE4831"/>
<path d="M14.2954 124.16C14.2954 124.16 18.1475 178.373 18.308 179.987C18.308 179.987 18.4445 181.6 21.1851 181.923C23.9257 182.245 39.6814 182.568 39.6814 182.568C39.6814 182.568 41.9617 182.729 42.1728 179.502C42.3838 176.275 38.5316 118.364 38.5316 118.364C38.5316 118.364 38.6887 116.03 35.874 116.496C32.2146 117.1 14.2954 124.16 14.2954 124.16Z" fill="#FF6551"/>
<path d="M19.502 131.138V134.89L34.3755 130.601V126.313L19.502 131.138Z" fill="#FF998C"/>
<path d="M2.84252 148.323C2.84252 148.323 8.75793 145.78 12.289 147.555C15.8201 149.33 18.2277 151.717 20.0735 151.814C21.9193 151.911 22.7218 152.073 23.3639 151.105C24.0059 150.137 24.9689 147.313 27.3765 145.457C29.5065 143.933 31.55 142.29 33.4973 140.536C34.84 139.165 35.3215 141.101 34.6795 142.311C33.7697 144.071 32.5913 145.677 31.187 147.071C29.7841 148.281 30.1666 149.168 30.1666 149.168C32.0949 148.657 33.959 147.926 35.7228 146.99C37.8896 145.699 44.2387 142.956 45.6385 143.36C47.0384 143.763 46.3253 144.489 45.6385 144.973C44.9518 145.457 42.2232 146.587 40.3774 147.555C38.5316 148.523 35.0005 151.105 36.2043 150.701C37.4081 150.298 45.9951 146.103 47.5199 146.667C49.0447 147.232 47.0384 148.765 46.0753 149.33C45.1123 149.894 37.4883 153.848 37.4883 153.848C37.4883 153.848 47.3431 148.604 48.0735 149.168C48.804 149.733 48.4027 150.749 46.8779 151.814C45.3531 152.879 38.4513 156.026 37.8896 156.913C37.3278 157.801 46.4766 153.444 47.3594 154.17C48.2421 154.896 42.7047 158.123 40.7787 159.011C38.8526 159.898 35.7228 161.592 33.1547 161.592C30.5866 161.592 22.6416 160.947 22.6416 160.947C22.6416 160.947 11.1888 162.318 6.85516 161.592C2.52152 160.866 0.194207 157.075 0.0337023 155.058C-0.126802 153.041 0.203975 149.64 2.84252 148.323Z" fill="#FFBF94"/>
<g style="mix-blend-mode:multiply" opacity="0.39">
<path d="M34.3758 159.727C30.5819 159.212 26.7536 159 22.9265 159.091C19.2883 159.253 12.6542 160.436 6.76901 159.091C5.19731 158.706 3.75435 157.911 2.58539 156.787C1.41644 155.662 0.562731 154.248 0.110209 152.687C-0.00237461 153.472 -0.0280315 154.267 0.0337091 155.057C0.19415 157.074 2.52148 160.866 6.85517 161.592C11.1889 162.318 22.6416 160.947 22.6416 160.947C22.6416 160.947 30.5866 161.592 33.1546 161.592C35.7227 161.592 38.8525 159.898 40.7786 159.011C42.4995 158.218 47.0903 155.562 47.4218 154.486C44.7618 156.051 37.52 160.099 34.3758 159.727Z" fill="#E6A07A"/>
</g>
<g style="mix-blend-mode:multiply" opacity="0.39">
<path d="M17.8018 150.934C15.2925 149.765 12.6337 148.951 9.90178 148.517C7.56411 148.177 5.19501 148.112 2.84229 148.322C2.84229 148.322 7.29691 146.445 10.9385 147.094C14.58 147.743 17.8018 150.934 17.8018 150.934Z" fill="#E6A07A"/>
</g>
<path d="M52.6057 13.073C32.3286 14.8135 24.1356 28.258 23.2351 43.4052C22.3347 58.5525 27.5497 81.8599 29.9722 84.7692C32.3947 87.6785 47.7673 98.629 55.2184 98.8672C62.6696 99.1054 80.3549 86.0513 84.214 78.6198C88.0731 71.1883 92.9502 29.4321 79.5761 21.196C71.4174 16.2312 62.1359 13.4357 52.6057 13.073Z" fill="#FFBF94"/>
<g style="mix-blend-mode:multiply" opacity="0.39">
<path d="M78.9835 69.2179C78.9835 69.2179 82.8015 49.7651 73.8746 45.3542C64.9477 40.9433 56.6114 36.4381 53.2544 32.2244C53.2544 32.2244 52.5557 43.0287 39.2419 46.583C25.928 50.1372 28.6166 64.2129 28.912 69.2106C29.2075 74.2084 26.2684 80.3495 24.7443 81.1494C23.2202 81.9493 26.3899 76.2736 26.3376 73.5034C26.2854 70.7332 24.1006 54.6451 24.1006 54.6451L47.5142 23.4082L58.2529 25.3123C58.2529 25.3123 76.7584 35.3101 76.9915 35.5668C77.2247 35.8235 83.5672 46.6289 83.3619 46.9604C83.1565 47.2919 83.9426 60.9501 83.9078 61.2002C83.8729 61.4503 78.949 69.5934 78.949 69.5934L78.9835 69.2179Z" fill="#E6A07A"/>
</g>
<path d="M86.7592 56.39C86.7592 56.39 89.5129 53.3535 92.1454 58.0495C94.7778 62.7456 90.6444 66.2487 89.2421 70.737C87.8399 75.2254 84.7827 74.4345 84.7827 74.4345C84.7827 74.4345 85.1623 62.1745 86.7592 56.39Z" fill="#FFBF94"/>
<g style="mix-blend-mode:multiply" opacity="0.2">
<path d="M85.7592 62.4223C85.8813 61.6114 86.175 60.8362 86.6203 60.149C86.5389 60.1578 86.4582 60.1721 86.3788 60.1919C86.061 60.2732 85.9772 59.8368 86.1635 59.6625C86.5689 59.3306 87.0867 59.1702 87.6076 59.2152C88.1284 59.2602 88.6114 59.507 88.9545 59.9036C89.3617 60.3699 89.64 60.9355 89.7616 61.5438C89.8833 62.1521 89.8439 62.7819 89.6476 63.3702C89.2822 64.7952 88.3966 66.0167 87.8816 67.3859C87.4387 68.9028 86.8465 70.3716 86.1138 71.7704C86.0329 71.8691 85.9254 71.9421 85.8041 71.9806C85.6829 72.0192 85.5531 72.0216 85.4306 71.9876C85.308 71.9536 85.1978 71.8847 85.1133 71.7891C85.0289 71.6935 84.9738 71.5754 84.9546 71.449C84.7926 69.4097 84.8522 67.3588 85.1323 65.3324C85.2805 64.3502 85.4899 63.3782 85.7592 62.4223Z" fill="#E6A07A"/>
</g>
<path d="M23.6491 56.6723C23.6491 56.6723 20.5554 53.5706 17.9818 58.7192C15.4082 63.8678 19.9987 67.3972 21.7227 72.118C23.4468 76.8388 27.1187 75.6868 27.1187 75.6868C27.1187 75.6868 25.6463 62.7671 23.6491 56.6723Z" fill="#FFBF94"/>
<g style="mix-blend-mode:multiply" opacity="0.2">
<path d="M18.9391 61.2586C18.9447 63.4203 20.7223 65.1695 21.9257 66.7874C22.6155 67.654 23.182 68.6129 23.6089 69.6364C23.8566 70.2898 23.9098 71.4559 24.7828 71.6015C25.6264 71.7421 26.0073 70.7964 26.0626 70.1195C26.1033 69.2931 26.0074 68.4655 25.7791 67.6705C25.6973 66.7613 25.5213 65.8632 25.254 64.9908C24.658 63.1095 23.786 61.3037 23.0682 59.4665C22.9667 59.3172 22.8893 59.1528 22.8388 58.9793C22.5012 58.665 22.0726 58.4672 21.6155 58.4145C21.1583 58.3619 20.6964 58.4571 20.2968 58.6864C19.8634 58.955 19.5091 59.335 19.2704 59.7871C19.0318 60.2393 18.9174 60.7472 18.9391 61.2586Z" fill="#E6A07A"/>
</g>
<path d="M78.7368 56.7163C78.9658 57.0008 78.5811 57.3461 78.2386 57.1634C76.7956 56.3937 74.8799 56.4521 71.8829 56.0772C69.1045 55.7296 63.5602 56.6987 63.6716 53.2778C63.7562 50.6783 68.6803 50.3881 73.2518 52.4995C75.3775 53.4639 77.2541 54.9067 78.7368 56.7163Z" fill="#662920"/>
<path d="M29.6557 59.6454C29.6313 59.714 29.6311 59.7889 29.655 59.8577C29.679 59.9264 29.7257 59.9848 29.7873 60.0231C29.849 60.0613 29.9218 60.0772 29.9937 60.0679C30.0656 60.0587 30.1321 60.025 30.1822 59.9723C31.1738 58.9259 33.7844 57.9432 36.1601 56.9513C38.3625 56.0318 44.6337 56.1422 43.8564 52.808C43.253 50.2197 36.3179 51.4224 33.0918 54.4216C31.5488 55.8629 30.3707 57.6539 29.6557 59.6454Z" fill="#662920"/>
<g style="mix-blend-mode:multiply" opacity="0.39">
<path d="M51.7425 73.2365C52.5344 72.8027 53.4144 72.5567 54.3154 72.5173C55.2658 72.4957 56.2112 72.6608 57.0987 73.0035C58.0278 73.2529 58.848 73.8061 59.4298 74.5758C59.4733 74.6502 59.4921 74.7366 59.4835 74.8224C59.4748 74.9083 59.4391 74.9891 59.3816 75.0532C58.9582 75.4937 58.4505 75.3804 57.9163 75.1897C57.0124 74.8014 56.0553 74.5525 55.0775 74.4513C54.3333 74.4026 53.5885 74.5364 52.9071 74.8411C52.1973 75.1823 51.8077 75.9184 50.9819 75.9524C50.7793 75.9557 50.5833 75.8803 50.4345 75.7421C50.2858 75.6038 50.1957 75.4133 50.183 75.21C50.0705 74.2812 51.0178 73.6372 51.7425 73.2365Z" fill="#E6A07A"/>
</g>
<path d="M47.2056 80.8087C47.2056 80.8087 47.2723 81.4372 47.4782 82.3813C47.885 84.4305 48.6954 86.3771 49.8617 88.1068C50.475 89.0416 51.3241 89.7961 52.3224 90.2931C53.3207 90.79 54.4323 91.0117 55.5437 90.9354C56.7103 90.8438 57.831 90.4393 58.7892 89.7641C59.7474 89.0889 60.5079 88.1678 60.9914 87.0966C61.9216 85.2025 62.5029 83.1548 62.7072 81.0525C62.8263 80.0038 62.8306 79.3101 62.8306 79.3101C57.9577 81.6341 52.4277 82.1645 47.2056 80.8087Z" fill="#9F2236"/>
<path d="M50.0154 19.1686C51.0963 20.9768 51.7544 23.0083 51.94 25.1096C52.1255 27.211 51.8337 29.3272 51.0865 31.2986C49.5434 35.2451 46.7913 38.5957 43.2284 40.8658C39.3013 43.4865 34.6324 45.0232 31.206 48.2772C28.1847 51.1752 26.4171 55.1504 26.2841 59.3462C26.1868 62.9832 27.3347 66.5435 27.5056 70.1778C27.7515 75.4048 25.981 80.4806 24.7814 85.5726C23.5818 90.6646 23.0053 96.2854 25.4418 100.91C23.8244 98.9815 22.6543 96.7157 22.0163 94.2764C21.3783 91.8372 21.2885 89.2857 21.7533 86.8073C22.3331 84.4772 23.0548 82.1852 23.9144 79.9442C25.9492 73.7046 26.3074 66.5822 23.2195 60.7959C21.8348 58.2013 19.8269 55.9908 18.3729 53.4348C15.6628 48.4378 14.931 42.596 16.324 37.0795C17.7447 31.5979 20.6836 26.6339 24.799 22.7645C30.5753 17.1798 38.8269 13.5951 46.6602 15.2972L50.0154 19.1686Z" fill="#662920"/>
<path d="M38.3032 12.1411C39.8092 16.7394 53.6935 29.6095 57.6101 32.4264C61.6104 35.2801 65.7644 37.9096 70.0531 40.3027C72.228 41.3757 74.2399 42.7543 76.0285 44.397C79.7291 48.1925 80.492 54.0005 80.1233 59.3022C79.7545 64.6039 78.4598 69.8691 78.8445 75.1696C79.2379 80.5898 81.3676 85.7357 82.1368 91.1149C83.3001 99.2497 82.5524 101.573 77.7355 108.213C83.1445 102.752 85.0544 101.639 86.4774 94.0658C86.9863 91.5214 87.2065 88.9272 87.1338 86.333C87.0166 83.4022 86.4097 80.5164 86.0376 77.6072C85.3775 72.773 85.4962 67.8634 86.3891 63.0671C87.5744 57.0111 90.19 51.2443 90.7038 45.0939C91.2202 38.9114 89.5748 32.7564 87.5659 26.89C86.5108 23.8092 85.2718 20.6438 82.8759 18.4494C80.8133 16.5602 78.103 15.5858 75.4701 14.6567C71.317 13.1913 66.971 11.7038 62.6086 12.2925L38.3032 12.1411Z" fill="#662920"/>
<path d="M47.2056 80.8087C47.2056 80.8087 47.2723 81.4372 47.4782 82.3813C49.5766 83.7015 51.9842 84.4423 54.4582 84.5288C58.2251 84.6209 61.3734 82.2421 62.7072 81.0525C62.8263 80.0038 62.8306 79.3101 62.8306 79.3101C57.9577 81.6341 52.4277 82.1645 47.2056 80.8087Z" fill="white"/>
<path d="M49.8618 88.106C50.4751 89.0409 51.3242 89.7953 52.3225 90.2923C53.3208 90.7893 54.4324 91.0109 55.5438 90.9346C56.7104 90.843 57.8311 90.4386 58.7893 89.7634C59.7475 89.0882 60.5079 88.167 60.9915 87.0958C60.0631 86.7689 59.0749 86.6501 58.0961 86.7477C57.1172 86.8454 56.1715 87.1571 55.3252 87.661C55.3252 87.661 53.0447 86.484 49.8618 88.106Z" fill="#FF6551"/>
<path d="M22.6886 46.3735C23.3109 44.479 24.3719 42.7602 25.7842 41.3587C28.6782 38.4011 32.3919 36.524 35.7881 34.239C36.7462 33.5944 37.6682 32.8955 38.5705 32.1748C39.535 31.4851 40.4025 30.6678 41.1496 29.745C41.2817 29.5612 41.6119 29.749 41.496 29.9529C40.9483 31.0352 40.3001 32.0631 39.5601 33.0229C38.7811 33.9076 37.9146 34.7104 36.974 35.4189C34.9939 36.972 32.8125 38.2245 30.7616 39.6761C28.6642 41.04 26.8635 42.817 25.4682 44.8998C24.1333 46.9355 23.566 49.3838 23.8685 51.8029C23.8809 51.9257 23.8493 52.0488 23.7795 52.1503C23.7097 52.2518 23.6062 52.3249 23.4876 52.3566C23.369 52.3883 23.243 52.3765 23.1323 52.3233C23.0216 52.2701 22.9333 52.1789 22.8834 52.0662C22.5244 51.2036 22.3168 50.285 22.2699 49.3511C22.2533 48.3426 22.3946 47.3378 22.6886 46.3735Z" fill="#7A332D"/>
<path d="M18.6877 51.6793C18.692 51.6541 18.7051 51.6312 18.7246 51.6148C18.7441 51.5984 18.7688 51.5895 18.7942 51.5896C18.8196 51.5897 18.8442 51.5989 18.8636 51.6155C18.8829 51.6321 18.8958 51.655 18.8999 51.6802C19.3622 53.132 20.1224 54.47 21.1313 55.6079C22.1107 56.7885 23.0114 58.0328 23.8275 59.3328C25.4296 62.4357 26.2269 65.8948 26.1453 69.3898C26.1769 73.1645 25.4826 76.9098 24.1006 80.4197C22.8421 83.6726 21.5906 86.8236 21.7566 90.3802C22.0185 93.9846 23.2468 97.4503 25.3112 100.409C25.5827 100.819 25.0526 101.44 24.6583 101.051C22.4082 98.7513 20.9249 95.8052 20.4138 92.6206C19.8373 89.2692 20.1419 85.8247 21.2975 82.6281C21.9212 80.7707 22.6646 78.9557 23.211 77.072C23.728 75.2631 24.0505 73.4036 24.1731 71.5256C24.5068 67.8307 23.8879 64.1118 22.3763 60.7272C21.6059 59.1455 20.4764 57.7553 19.5947 56.2352C18.7487 54.879 18.4261 53.2583 18.6877 51.6793Z" fill="#7A332D"/>
<path d="M10.4911 44.6361C12.4038 40.1702 15.3525 36.2297 19.0905 33.1441C20.9924 31.5945 23.1239 30.3536 25.4075 29.4666C27.9555 28.4903 30.5962 27.8384 33.0066 26.5201C35.3211 25.2269 37.4155 23.5706 39.2107 21.6138C41.0831 19.6121 42.7027 17.386 44.0332 14.9858C44.1753 14.7285 44.6244 14.802 44.5644 15.1358C44.3869 16.3056 44.079 17.4517 43.6464 18.5523C43.1917 19.6523 42.6409 20.7095 42.0003 21.7116C40.66 23.7429 38.9968 25.5389 37.0771 27.0278C35.1384 28.5502 32.9704 29.7517 30.655 30.5872C28.1386 31.3694 25.6908 32.3593 23.3366 33.5466C14.7208 38.4241 10.2768 48.2789 9.67388 57.8748C9.26801 64.3343 10.4032 70.833 11.9018 77.0926C12.0451 77.6908 11.0896 77.9268 10.8756 77.3668C6.92087 67.0208 5.9664 54.9728 10.4911 44.6361Z" fill="#7A332D"/>
<path d="M20.084 19.8043C21.0951 17.7841 22.5893 16.0479 24.4326 14.7515C28.0372 12.117 32.2854 11.1527 36.4117 9.6988C38.3012 9.03299 40.7018 8.15191 41.8742 6.4117C42.1833 5.95279 42.9783 6.41821 42.7129 6.91504C42.3273 7.73545 41.8363 8.50145 41.2524 9.19343C40.6347 9.85535 39.9296 10.4289 39.1567 10.898C37.4488 11.8773 35.6424 12.672 33.7679 13.2687C29.8309 14.6791 25.9295 16.4656 23.245 19.8023C22.5035 20.6626 21.9022 21.6356 21.4637 22.6852C21.2362 23.1972 21.041 23.7232 20.8792 24.2599C20.7953 24.8557 20.6672 25.4444 20.4961 26.0211C20.4398 26.1424 20.35 26.2449 20.2373 26.3163C20.1247 26.3878 19.994 26.4251 19.8608 26.4238C19.7276 26.4226 19.5976 26.3829 19.4863 26.3094C19.375 26.2359 19.287 26.1317 19.233 26.0094C18.9129 24.9853 18.8699 23.894 19.1084 22.8477C19.2606 21.7852 19.5905 20.7562 20.084 19.8043Z" fill="#7A332D"/>
<path d="M74.0327 42.1258C75.8975 42.9269 77.4942 44.2496 78.6329 45.9365C79.945 47.6537 80.8876 49.6265 81.4011 51.7294C81.9825 54.0861 82.1538 56.5262 81.9074 58.9417C81.6606 61.5093 80.8591 63.9469 80.4278 66.4786C80.064 69.1639 80.002 71.8818 80.2428 74.5811C80.3169 77.0845 80.5679 79.5794 80.9939 82.0471C81.484 84.5148 82.5922 86.7681 83.2519 89.1837C83.8304 91.3141 84.0762 93.5219 83.9805 95.7282C83.8868 97.831 83.4773 99.9073 82.7657 101.887C83.4454 100.624 84.0392 99.3171 84.5429 97.9739C85.8907 94.3555 86.602 90.529 86.6451 86.6654C86.6637 85.5367 86.5823 84.4166 86.4969 83.2924C86.3392 82.2685 86.2874 81.231 86.3423 80.1963C86.3442 80.1849 86.3493 80.1742 86.3571 80.1656C86.3649 80.157 86.3751 80.1509 86.3863 80.148C86.3975 80.145 86.4093 80.1454 86.4202 80.1491C86.4312 80.1528 86.4409 80.1596 86.4481 80.1688C87.4971 81.6399 87.6517 83.9056 87.7944 85.6496C87.9565 87.6794 87.891 89.7211 87.5991 91.7362C87.0406 95.7097 85.6774 99.5258 83.5938 102.949C82.4387 104.842 81.1008 106.882 79.1652 108.038C79.1322 108.055 79.0946 108.062 79.0576 108.057C79.0205 108.053 78.9858 108.037 78.9581 108.012C78.722 108.251 78.4781 108.486 78.2265 108.716C77.9149 109.001 77.5203 108.527 77.7363 108.213C80.1235 104.776 81.6017 100.785 82.0319 96.615C82.2203 94.5147 82.0676 92.3975 81.5799 90.3464C81.0417 88.0789 79.9776 85.9777 79.3856 83.724C78.8237 81.3851 78.4886 78.9969 78.3849 76.593C78.1729 74.0745 78.0967 71.5463 78.1568 69.0195C78.387 66.521 78.82 64.0456 79.4515 61.618C79.9496 59.289 80.1157 56.9007 79.945 54.5247C79.7481 52.1371 79.1162 49.8062 78.0808 47.6483C76.9853 45.6487 75.5701 43.8438 73.8919 42.3058C73.8027 42.2132 73.9342 42.0907 74.0327 42.1258Z" fill="#7A332D"/>
<path d="M53.4648 15.4107C53.8039 16.1661 54.271 16.8342 54.6463 17.5656C55.0553 18.3625 55.4822 19.1492 55.9613 19.9062C56.8778 21.3484 57.9179 22.7074 59.0695 23.9677C61.5092 26.5631 64.3088 28.7907 67.3819 30.5817C70.9306 32.6255 74.5872 34.474 78.3355 36.119C81.7101 37.5691 84.9759 39.2624 88.1076 41.1858C91.3126 43.2692 94.1378 45.9624 95.4657 49.633C95.648 50.1368 94.9411 50.6035 94.6208 50.117C90.6223 44.0464 83.7912 41.0947 77.4421 38.1959C70.3873 34.9749 63.1829 31.5944 57.9581 25.6518C56.673 24.2087 55.5641 22.6164 54.655 20.9087C54.2236 20.0945 53.8547 19.2483 53.5515 18.3776C53.2806 17.4473 53.1103 16.4903 53.0436 15.5232C53.0384 15.4708 53.0519 15.4182 53.0818 15.3749C53.1116 15.3315 53.1559 15.3003 53.2065 15.2867C53.2572 15.2732 53.311 15.2782 53.3584 15.3009C53.4057 15.3237 53.4434 15.3626 53.4648 15.4107Z" fill="#7A332D"/>
<path d="M58.6264 9.57613C59.6207 10.5953 60.4938 11.7246 61.5043 12.7313C62.5315 13.7693 63.6624 14.6982 64.8791 15.5031C67.4138 17.0846 70.0665 18.4666 72.8133 19.6367C75.9225 21.025 79.1057 22.2306 82.1598 23.7429C85.0088 25.1135 87.7022 26.7895 90.1931 28.7418C94.7445 32.4612 98.4344 37.1337 101.005 42.4335C103.576 47.7334 104.966 53.5332 105.079 59.4286C105.173 63.1069 104.718 66.7786 103.73 70.3214C102.65 73.8382 101.131 77.203 99.2083 80.3352C99.1262 80.4749 98.9012 80.3903 98.9703 80.2318C99.6629 78.713 100.211 77.1318 100.608 75.5093C100.955 73.9805 101.334 72.4584 101.619 70.9158C102.195 67.8149 102.503 64.6696 102.538 61.5153C102.591 55.5808 101.29 49.7129 98.7354 44.3626C96.411 39.5028 93.0791 35.1992 88.9634 31.7408C84.1329 27.685 78.2686 25.4315 72.6638 22.7031C69.566 21.2991 66.6641 19.4938 64.032 17.3333C61.7282 15.3362 59.0076 13.0071 58.0857 9.98612C57.9965 9.69327 58.3537 9.29666 58.6264 9.57613Z" fill="#7A332D"/>
<path d="M60.0964 3.96326C60.7286 4.42546 61.4518 4.61508 62.085 5.07406C62.6945 5.51582 63.3202 5.93429 63.9619 6.32947C65.2003 7.09026 66.4881 7.76652 67.8166 8.35367C70.555 9.50225 73.3906 10.4008 76.2891 11.0386C79.3577 11.7236 82.25 13.0459 84.7804 14.9206C87.046 16.6496 89.1459 18.5877 91.0526 20.7097C92.1318 21.821 93.0663 23.0655 93.8337 24.4134C94.5111 25.7466 95.0079 27.165 95.3109 28.6307C95.3868 28.975 94.8753 29.0785 94.7395 28.7834C94.1414 27.5368 93.4004 26.3648 92.5315 25.2912C91.7144 24.2488 90.9321 23.1914 90.0294 22.2191C88.0963 20.1882 85.9536 18.3701 83.6374 16.7954C81.1343 15.1626 78.3453 14.0229 75.4189 13.437C72.5028 12.844 69.6743 11.8779 67.0025 10.5622C65.5925 9.8165 64.2441 8.95889 62.9699 7.99747C62.3062 7.49216 61.6635 6.96061 61.0418 6.40283C60.5054 5.79965 60.0114 5.15963 59.5634 4.48742C59.2772 4.15081 59.7622 3.71892 60.0964 3.96326Z" fill="#7A332D"/>
<path d="M42.4736 72.5595C45.0695 70.5911 45.5866 66.88 43.6286 64.2704C41.6706 61.6608 37.9789 61.141 35.3829 63.1093C32.787 65.0777 32.2699 68.7888 34.228 71.3984C36.186 74.008 39.8777 74.5278 42.4736 72.5595Z" fill="white"/>
<path d="M43.5346 69.4435C44.4816 66.9963 43.2758 64.2406 40.8413 63.2886C38.4069 62.3366 35.6656 63.5488 34.7186 65.9961C33.7716 68.4433 34.9774 71.199 37.4119 72.151C39.8464 73.103 42.5876 71.8908 43.5346 69.4435Z" fill="black"/>
<path d="M42.0635 66.8722C42.262 67.1082 42.3864 67.3982 42.421 67.7054C42.4556 68.0125 42.3988 68.3231 42.2578 68.5978C42.1168 68.8725 41.8979 69.099 41.6288 69.2487C41.3597 69.3983 41.0526 69.4644 40.7461 69.4386C40.4397 69.4128 40.1478 69.2962 39.9073 69.1035C39.6667 68.9109 39.4885 68.6509 39.3949 68.3564C39.3014 68.062 39.2969 67.7462 39.3818 67.4491C39.4668 67.152 39.6375 66.887 39.8724 66.6874C40.0283 66.5549 40.2087 66.4546 40.4032 66.3921C40.5977 66.3297 40.8026 66.3064 41.006 66.3236C41.2095 66.3407 41.4076 66.398 41.5891 66.4921C41.7705 66.5863 41.9317 66.7154 42.0635 66.8722Z" fill="white"/>
<path d="M72.0903 73.3235C75.3079 72.8528 77.5368 69.849 77.0685 66.6144C76.6002 63.3798 73.6121 61.1393 70.3944 61.61C67.1768 62.0808 64.948 65.0846 65.4163 68.3192C65.8846 71.5538 68.8726 73.7943 72.0903 73.3235Z" fill="white"/>
<path d="M73.7478 71.1717C75.9215 69.7154 76.5091 66.7634 75.0604 64.5783C73.6117 62.3933 70.6753 61.8025 68.5016 63.2588C66.328 64.7152 65.7403 67.6671 67.189 69.8522C68.6377 72.0372 71.5742 72.628 73.7478 71.1717Z" fill="black"/>
<path d="M67.9582 67.8092C68.035 68.0796 68.1899 68.3211 68.4032 68.5031C68.6166 68.6851 68.8788 68.7994 69.1568 68.8316C69.4347 68.8637 69.7159 68.8123 69.9648 68.6838C70.2137 68.5553 70.4191 68.3555 70.5551 68.1096C70.691 67.8638 70.7513 67.5829 70.7285 67.3026C70.7056 67.0222 70.6006 66.755 70.4267 66.5347C70.2527 66.3144 70.0177 66.1508 69.7513 66.0648C69.485 65.9787 69.1992 65.974 68.9301 66.0512C68.5693 66.1548 68.2642 66.3982 68.082 66.7278C67.8997 67.0575 67.8552 67.4465 67.9582 67.8092Z" fill="white"/>
</svg>
