<svg width="131" height="199" viewBox="0 0 131 199" fill="none" xmlns="http://www.w3.org/2000/svg">
<path d="M83.9043 165.669C83.6832 166.657 83.4263 167.637 83.1335 168.61C82.1802 171.634 81.023 174.589 79.6698 177.455C78.1099 180.873 73.7649 191.013 72.337 192.127C71.7178 192.649 70.9387 192.942 70.1296 192.959C69.3205 192.975 68.5303 192.713 67.8907 192.216C67.771 184.891 66.6256 175.609 66.687 168.284C66.6932 167.61 66.6164 166.023 66.4936 163.968C66.3953 162.365 66.2725 160.476 66.1404 158.516C66.1283 158.336 66.0474 158.166 65.9144 158.044C65.7813 157.921 65.6064 157.854 65.4255 157.857C65.2447 157.859 65.0718 157.932 64.9426 158.058C64.8134 158.185 64.7376 158.357 64.731 158.538C64.6696 160.276 64.6143 162.027 64.5744 163.666C64.5099 166.297 64.4822 168.638 64.5253 170.176C64.6635 175.151 63.6594 182.239 63.6594 187.22C63.6594 188.241 63.7576 189.198 63.8129 190.21C63.819 190.333 63.8589 190.601 63.8866 190.902V190.908C63.9352 191.271 63.9248 191.639 63.8559 191.998C63.8373 192.084 63.7896 192.161 63.7208 192.216C63.0806 192.713 62.2899 192.975 61.4803 192.959C60.6707 192.942 59.8911 192.649 59.2713 192.127C57.8466 191.013 53.5015 180.873 51.9417 177.455C50.6274 174.67 49.497 171.802 48.5578 168.869C48.5301 168.782 48.5025 168.696 48.4779 168.61C46.5507 161.919 46.0588 154.896 47.0347 148.001C47.2528 146.303 47.5424 144.613 47.9037 142.931C47.9805 142.571 48.0603 142.211 48.1463 141.851C48.3275 141.067 48.521 140.285 48.7328 139.507C48.9754 138.608 49.2333 137.713 49.5128 136.824C49.7461 136.073 49.9949 135.326 50.2528 134.581L60.9971 132.969L72.2603 133.218L81.3587 134.581C81.9299 136.227 82.4437 137.894 82.9001 139.581C83.1765 140.617 83.4294 141.66 83.6586 142.709C84.0301 144.417 84.3311 146.14 84.5583 147.866C85.393 153.792 85.1715 159.82 83.9043 165.669Z" fill="#2435A1"/>
<g style="mix-blend-mode:multiply" opacity="0.4">
<path d="M63.6592 187.219C63.6592 188.241 63.7574 189.198 63.8127 190.21C63.8188 190.333 63.8588 190.6 63.8864 190.902V190.908C63.8741 191.277 63.8618 191.64 63.8557 191.997C63.8372 192.083 63.7894 192.161 63.7206 192.216C63.0805 192.712 62.2898 192.975 61.4802 192.958C60.6706 192.942 59.891 192.649 59.2712 192.127C57.8464 191.013 53.5014 180.873 51.9415 177.455C50.6272 174.67 49.4968 171.802 48.5576 168.868C49.6172 170.145 50.9512 171.164 52.4598 171.851C53.9684 172.538 55.6125 172.874 57.2691 172.834C61.1934 172.751 63.4412 167.561 64.5743 163.666C64.5097 166.296 64.4821 168.638 64.5251 170.176C64.6633 175.15 63.6592 182.239 63.6592 187.219Z" fill="#30A2BE"/>
</g>
<path d="M63.9285 186.114C63.96 185.777 63.8803 185.181 62.9494 185.847C62.0185 186.512 57.249 187.077 55.6483 185.781C54.6457 184.969 55.8569 187.724 56.9022 189.897L56.9042 189.902L56.9109 189.915C57.0555 190.216 59.0422 194.494 55.3249 195.416C52.013 196.238 60.922 196.608 60.922 196.608L62.8111 196.048L63.5709 193.934L63.1778 192.671C63.2273 192.513 63.2667 192.352 63.2958 192.189C63.6323 190.322 63.897 186.451 63.9285 186.114Z" fill="#FF6551"/>
<path d="M63.2982 196.933C63.1276 197.448 62.8069 197.9 62.3775 198.23C61.9481 198.561 61.4297 198.755 60.8891 198.788C58.2453 198.951 52.6936 199.213 50.7156 198.691C48.0811 197.997 48.4927 193.829 51.7858 192.639C55.0788 191.448 59.9598 193.086 61.2534 194.028C61.3579 194.116 61.4863 194.171 61.6222 194.186C61.7582 194.202 61.8956 194.176 62.0169 194.113C62.2973 193.92 62.5156 193.65 62.645 193.335C62.855 192.895 63.0202 192.435 63.1382 191.962C63.2861 191.4 63.4058 190.832 63.4968 190.259C63.5927 189.674 63.6675 189.086 63.7213 188.495C63.7691 187.976 63.8029 187.456 63.812 186.936C63.8159 186.716 63.8137 186.496 63.804 186.277C63.8008 186.202 63.7224 185.715 63.8179 185.704C63.8982 185.694 63.9377 185.886 63.9397 185.927C63.9627 186.414 63.9841 186.901 63.9989 187.388C64.0154 187.93 64.0258 188.471 64.0302 189.013C64.0354 189.658 64.0311 190.302 64.0172 190.947C64.0016 191.63 63.9737 192.312 63.927 192.994C63.882 193.651 63.8202 194.308 63.727 194.96C63.6513 195.531 63.5368 196.096 63.3845 196.652C63.3575 196.746 63.3288 196.839 63.2982 196.933Z" fill="#F37A7C"/>
<g style="mix-blend-mode:multiply" opacity="0.4">
<path d="M83.9043 165.669C83.6833 166.656 83.4263 167.637 83.1336 168.61C82.1803 171.633 81.0231 174.589 79.6699 177.455C78.11 180.873 73.765 191.013 72.3371 192.127C71.7179 192.649 70.9388 192.942 70.1296 192.958C69.3205 192.975 68.5303 192.713 67.8908 192.216C67.771 184.891 66.6257 175.609 66.6871 168.284C66.6932 167.61 66.6164 166.023 66.4937 163.968C67.5776 168.062 69.8652 173.692 74.2563 174.114C78.2113 174.495 81.6597 169.798 83.9043 165.669Z" fill="#30A2BE"/>
</g>
<path d="M67.6983 186.114C67.6668 185.777 67.7464 185.181 68.6774 185.847C69.6083 186.512 74.3778 187.077 75.9785 185.781C76.9811 184.969 75.7699 187.724 74.7246 189.897L74.7224 189.902L74.7158 189.915C74.5711 190.216 72.5845 194.494 76.3018 195.416C79.6137 196.238 70.7046 196.608 70.7046 196.608L68.8156 196.048L68.0558 193.934L68.4488 192.671C68.3994 192.513 68.36 192.352 68.3309 192.189C67.9946 190.322 67.7297 186.451 67.6983 186.114Z" fill="#FF6551"/>
<path d="M68.3283 196.933C68.499 197.448 68.8197 197.9 69.249 198.23C69.6784 198.561 70.1968 198.755 70.7374 198.788C73.3812 198.951 78.933 199.213 80.9111 198.691C83.5455 197.997 83.1339 193.829 79.8408 192.639C76.5477 191.448 71.6667 193.086 70.3733 194.028C70.2687 194.116 70.1403 194.171 70.0044 194.186C69.8684 194.202 69.731 194.176 69.6096 194.113C69.3293 193.92 69.111 193.65 68.9815 193.335C68.7716 192.895 68.6064 192.435 68.4884 191.962C68.3405 191.4 68.2208 190.832 68.1298 190.259C68.0339 189.674 67.9591 189.086 67.9054 188.495C67.8575 187.976 67.8237 187.456 67.8145 186.936C67.8107 186.716 67.813 186.496 67.8225 186.277C67.8258 186.202 67.9042 185.715 67.8087 185.704C67.7283 185.694 67.6888 185.886 67.687 185.927C67.6639 186.414 67.6424 186.901 67.6277 187.388C67.6113 187.93 67.6008 188.471 67.5963 189.013C67.5912 189.658 67.5955 190.302 67.6095 190.947C67.625 191.63 67.653 192.312 67.6996 192.994C67.7446 193.651 67.8064 194.308 67.8997 194.96C67.9753 195.531 68.0898 196.096 68.2421 196.652C68.269 196.746 68.2978 196.839 68.3283 196.933Z" fill="#F37A7C"/>
<path d="M87.0327 102.477C87.4929 106.029 87.495 109.625 87.0388 113.177L87.0358 113.19C87.0234 113.306 87.0081 113.423 86.9959 113.543C86.1096 120.611 84.7607 127.613 82.9579 134.503C82.8074 135.063 82.6559 135.601 82.5035 136.115L82.5004 136.128C82.3806 136.54 82.2609 136.937 82.1412 137.315C79.1752 138.112 76.1647 138.733 73.1256 139.173C57.5911 141.407 49.325 137.337 49.325 137.337C48.5235 133.476 46.8777 119.34 46.2144 113.473C46.0332 111.897 45.9258 110.916 45.9226 110.894C45.3084 103.336 47.7201 96.4952 54.0917 95.9661C54.6721 95.9168 74.1855 95.3983 75.949 95.6715C86.768 97.347 87.0327 102.477 87.0327 102.477Z" fill="#FF6551"/>
<path d="M77.0512 99.1698L76.2988 95.7168C76.2988 95.7168 94.0482 97.2803 101.395 119.056C101.634 119.946 101.591 120.89 101.272 121.755C100.952 122.62 100.372 123.365 99.6125 123.885C98.8525 124.406 97.9498 124.678 97.0292 124.662C96.1086 124.646 95.2155 124.345 94.4735 123.799C92.1387 122.328 88.9093 116.716 86.5154 114.633C81.094 109.916 76.9533 105.325 77.0512 99.1698Z" fill="#FF6551"/>
<path d="M101.276 118.8C101.969 119.417 101.769 131.133 86.9032 139.119C85.2584 137.859 84.1058 136.062 83.6455 134.039C83.6455 134.039 90.5498 122.614 93.4243 121.344C95.985 120.331 98.6074 119.481 101.276 118.8Z" fill="#FF6551"/>
<path d="M57.1812 95.9021C58.2733 97.3848 59.7153 98.5732 61.3781 99.3608C63.0409 100.148 64.8726 100.511 66.7094 100.415C68.5035 100.356 70.2622 99.9005 71.8597 99.0803C73.4571 98.2601 74.8536 97.096 75.9491 95.6713C75.3672 95.3575 74.7609 95.0912 74.1363 94.875C72.0881 94.6995 61.4911 94.4482 59.1605 94.6789C58.6293 94.7312 57.3684 95.8743 57.1812 95.9021Z" fill="#DF4C4B"/>
<path d="M87.0327 113.106C87.0234 113.217 87.0112 113.331 86.9958 113.444C86.1117 120.545 84.7628 127.58 82.9579 134.503C82.8043 135.06 82.6528 135.597 82.5035 136.115L82.5003 136.127C82.3806 136.536 82.2609 136.927 82.1412 137.305C79.174 138.1 76.1639 138.723 73.1256 139.173C57.5911 141.406 49.3249 137.336 49.3249 137.336C48.5235 133.475 46.8776 119.339 46.2144 113.472C47.5962 117.478 53.1664 130.768 66.4684 131.42C81.785 132.171 86.8116 113.943 87.0327 113.106Z" fill="#DF4C4B"/>
<path d="M84.2596 134.534C84.0386 134.269 83.7516 134.068 83.4277 133.95C83.2051 133.881 82.0159 133.737 79.164 134.558C78.6609 134.703 76.7483 135.66 76.9794 136.82C77.1464 137.659 79.3029 137.001 80.0775 136.932C79.4187 137.043 76.0668 137.862 76.2986 139.118C76.5297 140.371 80.2469 139.217 80.2469 139.217C80.2469 139.217 77.2688 140.004 77.3004 141.152C77.332 142.301 81.5996 141.275 81.5996 141.275C81.5996 141.275 79.0962 141.877 79.4791 143.015C79.6604 143.554 81.4903 143.411 81.8866 143.361C82.5156 143.291 83.1302 143.125 83.7092 142.869C84.9377 142.278 85.9012 141.247 86.4106 139.98C86.5244 139.682 86.6818 139.402 86.8777 139.149L86.9027 139.118C87.2437 138.695 86.4455 137.584 86.2483 137.265C85.7556 136.486 85.2226 135.732 84.6513 135.009C84.5279 134.849 84.399 134.685 84.2596 134.534Z" fill="#FFBF94"/>
<path d="M32.9036 101.518L33.7406 101.028C34.311 100.439 34.6889 99.6906 34.8237 98.8815C34.9586 98.0725 34.8441 97.2415 34.4954 96.4993C33.2828 93.8431 34.8334 93.1281 35.0109 92.2394C35.1885 91.3508 33.8706 90.7445 32.7856 91.8173C32.3385 92.2998 32.0689 92.9206 32.0213 93.5772C31.9916 93.8397 31.5274 93.9518 31.3518 93.3448C30.688 91.0508 30.6223 86.7464 29.1363 86.6581C27.6044 86.5669 28.4566 88.4635 29.5101 93.3075C29.1664 93.6357 26.4618 85.6154 25.1227 86.3074C23.7352 87.0242 27.8489 94.5724 27.4831 94.5712C27.3647 94.6517 23.7089 88.2041 22.883 88.8543C22.0863 89.4814 23.8822 92.2448 25.7097 96.242C25.4702 96.3469 21.8381 92.5342 21.3737 94.0993C21.1677 94.794 24.3772 97.0313 25.9691 99.7193C27.4973 102.3 28.8742 103.219 30.0145 102.816C30.9993 102.434 31.9636 102 32.9036 101.518Z" fill="#FFBF94"/>
<path d="M50.8051 97.5795C51.1036 97.6358 51.3958 97.7213 51.6776 97.8347C52.314 98.0945 52.8836 98.4948 53.344 99.0058C53.8044 99.5168 54.1438 100.125 54.3369 100.786C55.0216 103.198 53.6408 105.664 52.3149 107.791C48.1283 114.507 42.5448 122.208 34.5021 124.673C31.4609 125.607 27.5989 123.118 29.7323 118.346C30.8596 115.824 35.9561 111.837 37.6807 109.171C39.5509 106.227 41.7214 103.485 44.1575 100.989C45.931 99.2056 48.1598 97.0867 50.8051 97.5795Z" fill="#FF6551"/>
<path d="M32.6524 124.66C28.4991 124.751 27.4398 118.8 27.1455 116.67C26.4242 111.447 27.2183 101.343 27.2183 101.343C28.1961 101.777 29.2554 101.998 30.325 101.988C31.3947 101.979 32.45 101.741 33.4202 101.289C34.1829 103.928 34.8497 106.603 35.4104 109.291C35.7948 111.135 36.1886 113.058 36.4434 114.906C36.8186 117.974 36.1399 121.079 34.5192 123.709C34.33 123.999 34.0727 124.238 33.7698 124.406C33.467 124.574 33.1277 124.665 32.7817 124.671C32.7385 124.669 32.6957 124.659 32.6524 124.66Z" fill="#FF6551"/>
<path d="M74.0991 95.6653C74.0991 95.6653 72.3048 98.3959 66.3942 97.6452C60.4819 96.8941 59.16 94.6787 59.16 94.6787L59.1576 92.4359L59.1558 92.4356L59.1523 89.2216L73.1444 88.0726L74.4585 87.9644L74.421 88.787L74.2207 93.0485L74.0991 95.6653Z" fill="#EA9573"/>
<g style="mix-blend-mode:multiply" opacity="0.31">
<path d="M74.2207 93.0489C72.3457 94.3082 69.942 95.5432 67.8087 95.4639C63.5816 95.3074 59.2662 92.5071 59.1576 92.4363L59.1558 92.436L59.1523 89.222L73.1444 88.073L74.421 88.7874L74.2207 93.0489Z" fill="#DD7258"/>
</g>
<path d="M101.095 53.0793C101.095 53.0793 106.669 50.46 109.777 54.4038C112.885 58.3476 107.957 68.3547 104.187 69.3348C100.417 70.3148 98.9438 69.328 98.9438 69.328L101.095 53.0793Z" fill="#FFBF94"/>
<path d="M31.3005 52.9887C31.3005 52.9887 25.7332 50.355 22.615 54.2908C19.4969 58.2265 24.3993 68.2463 28.1665 69.2361C31.9337 70.2259 33.4096 69.2429 33.4096 69.2429L31.3005 52.9887Z" fill="#FFBF94"/>
<path d="M103.735 38.1182C103.735 38.1182 102.696 52.7989 101.076 64.6144L101.075 64.6194V64.6227L101.068 64.6719C100.825 66.4444 100.569 68.153 100.301 69.7367L100.296 69.7679C99.4924 74.5044 98.5866 78.1163 97.6204 79.0113C94.1755 82.1997 74.5004 92.782 66.8002 92.268C59.1001 91.754 38.7958 81.972 35.5235 78.4384C34.4763 77.3077 33.3492 73.3288 32.3004 68.4405C30.0707 58.0548 28.1953 43.5656 28.1953 43.5656C29.0453 19.705 42.3272 11.6556 68.0521 10.8484C93.777 10.0412 103.735 38.1182 103.735 38.1182Z" fill="#FFBF94"/>
<g opacity="0.27">
<path opacity="0.27" d="M84.7161 19.1366C84.7161 19.1366 81.644 2.86744 64.3083 3.08729C57.0205 3.22562 49.8543 4.98364 43.3271 8.2344C36.7999 11.4852 31.0747 16.1476 26.5649 21.8849C22.2078 27.5423 20.2459 34.6893 21.1026 41.7833C21.9592 48.8773 25.5658 55.3494 31.1438 59.8025C31.1438 59.8025 35.1267 52.4066 39.0766 46.6129C39.0766 46.6129 61.2362 56.3082 82.0828 38.1621C82.0828 38.1621 87.7882 29.2566 84.7161 19.1366Z" fill="#DA8966"/>
<path opacity="0.27" d="M80.9856 28.8627C80.9856 28.8627 80.3272 39.2218 87.1299 45.4483C93.9325 51.6748 99.199 52.3344 99.199 52.3344C99.199 52.3344 102.929 59.3748 100.296 66.844C100.296 66.844 109.797 57.9029 108.261 39.3572C106.725 20.8115 97.8477 14.7395 80.9683 14.9593L80.9856 28.8627Z" fill="#DA8966"/>
</g>
<path d="M80.3452 47.1599C80.6292 47.603 81.1224 47.5558 81.6022 47.6058C82.1589 47.6639 82.7107 47.6655 83.2694 47.6791C84.3531 47.6791 85.4275 47.8783 86.4394 48.2668C87.3506 48.6883 88.2095 49.2151 88.9986 49.8365C89.3855 50.1419 89.7899 50.4243 90.2097 50.6824C90.4489 50.8266 90.702 50.9462 90.9652 51.0394C91.2172 51.1138 91.469 51.0694 91.7156 51.16C92.0111 51.2687 92.1938 50.9121 92.0863 50.6782C91.9681 50.421 91.9984 50.1251 91.8675 49.8665C91.7144 49.5829 91.5308 49.3169 91.32 49.0732C90.9244 48.6193 90.4823 48.2081 90.0011 47.8466C89.0279 47.0796 87.926 46.4926 86.7471 46.113C85.5043 45.7468 84.1982 45.648 82.9146 45.8233C82.5129 45.8684 79.7737 46.2682 80.3452 47.1599V47.1599Z" fill="#5F130F"/>
<g style="mix-blend-mode:multiply" opacity="0.44">
<path d="M30.9502 65.4521C28.8268 64.4116 27.1732 62.6069 26.3198 60.3984C25.9906 59.431 26.0753 57.8753 27.3617 57.707C28.4244 57.5679 28.8577 58.9508 29.3331 59.6593C29.5812 60.029 30.2559 59.8116 30.0939 59.3391C29.6606 58.0753 29.2463 56.4827 27.6717 56.2908C26.9149 56.2569 26.1753 56.5233 25.6133 57.0322C25.0513 57.5411 24.7121 58.2514 24.6695 59.0092C24.4598 60.8307 25.5595 62.5364 26.5935 63.9355C27.6594 65.3779 28.968 66.5628 30.8538 66.1833C30.9284 66.1611 30.995 66.1177 31.0455 66.0583C31.096 65.999 31.1283 65.9263 31.1385 65.849C31.1487 65.7717 31.1363 65.6931 31.1029 65.6227C31.0695 65.5522 31.0164 65.493 30.9502 65.4521Z" fill="#DA8966"/>
</g>
<g style="mix-blend-mode:multiply" opacity="0.44">
<path d="M108.248 58.9725C108.155 57.5918 107.016 56.3593 105.571 56.9354C104.594 57.325 103.02 59.2215 104.087 60.1976C104.114 60.2238 104.147 60.2435 104.183 60.2554C104.219 60.2672 104.257 60.2709 104.294 60.2661C104.332 60.2613 104.368 60.2482 104.4 60.2276C104.432 60.2071 104.459 60.1797 104.479 60.1475C105.013 59.4344 105.082 58.2686 106.119 58.0008C107.54 57.6339 107.072 60.041 106.914 60.7303C106.744 61.5866 106.389 62.3952 105.874 63.0989C105.265 63.7447 104.514 64.2388 103.681 64.5415C103.642 64.565 103.609 64.5971 103.584 64.6353C103.559 64.6736 103.543 64.717 103.537 64.7623C103.531 64.8076 103.535 64.8537 103.55 64.897C103.564 64.9404 103.588 64.9799 103.62 65.0127C104.748 66.2565 106.395 64.589 107.028 63.5898C107.879 62.2041 108.303 60.5982 108.248 58.9725Z" fill="#DA8966"/>
</g>
<path d="M48.644 47.8643C47.8827 47.0515 46.3725 47.3518 45.3912 47.4889C44.276 47.6576 43.1909 47.9867 42.1696 48.466C41.1781 48.9204 40.2475 49.498 39.3999 50.185C38.6673 50.7711 37.4458 51.8376 37.7484 52.8946C37.7926 53.0397 37.8811 53.1672 38.0015 53.2593C38.1218 53.3513 38.2679 53.4032 38.4192 53.4077C39.3085 53.5066 40.2033 52.4062 40.8562 51.9184C41.5962 51.3591 42.3992 50.8889 43.2488 50.5175C44.073 50.1763 44.9279 49.9145 45.8017 49.7357C46.709 49.5387 47.9324 49.6909 48.6425 49.0256C48.7933 48.8701 48.8777 48.662 48.878 48.4452C48.8783 48.2285 48.7944 48.0202 48.644 47.8643V47.8643Z" fill="#5F130F"/>
<path d="M76.2485 76.223C75.7319 78.2297 74.7919 80.102 73.4918 81.7137C72.5808 82.8111 71.4381 83.6922 70.1461 84.2937C68.8541 84.8952 67.4451 85.2021 66.0205 85.1922C64.4266 85.2676 62.8402 84.9307 61.4139 84.2139C59.9877 83.4971 58.7696 82.4246 57.8769 81.0995C56.8119 79.5519 56.0301 77.8268 55.5683 76.0048C55.4995 75.7564 55.5222 75.4915 55.6323 75.2585C55.7451 75.0106 55.9449 74.8129 56.1937 74.7029C56.4425 74.5929 56.7229 74.5783 56.9818 74.6619L57.3508 74.7798C62.9937 76.5976 69.0648 76.588 74.7018 74.7523C74.8253 74.7118 74.9543 74.6906 75.0842 74.6897C75.337 74.6916 75.583 74.7724 75.788 74.9209C75.9929 75.0693 76.1466 75.278 76.2277 75.518C76.3066 75.7453 76.3139 75.9914 76.2485 76.223Z" fill="#831532"/>
<path d="M76.2271 75.518C73.2239 77.6993 69.6279 78.9107 65.9194 78.9906C62.1855 78.8525 58.5883 77.5475 55.6318 75.2585C55.7447 75.0106 55.9445 74.8129 56.1933 74.7029C56.4421 74.5929 56.7225 74.5783 56.9814 74.6619L57.3504 74.7798C62.9932 76.5976 69.0643 76.588 74.7013 74.7523C74.8248 74.7118 74.9537 74.6907 75.0836 74.6897C75.3365 74.6916 75.5825 74.7724 75.7874 74.9209C75.9924 75.0693 76.146 75.278 76.2271 75.518Z" fill="white"/>
<path d="M73.4913 81.7139C72.5803 82.8112 71.4376 83.6924 70.1456 84.2939C68.8537 84.8954 67.4446 85.2022 66.02 85.1923C64.4261 85.2678 62.8397 84.9309 61.4135 84.2141C59.9872 83.4973 58.7691 82.4247 57.8765 81.0997C63.0375 79.8492 68.444 80.0619 73.4913 81.7139Z" fill="#FF6551"/>
<path d="M50.6917 72.8344C51.0933 71.1595 48.8867 69.1923 45.7632 68.4406C42.6396 67.6889 39.782 68.4373 39.3804 70.1122C38.9789 71.7871 41.1854 73.7543 44.309 74.506C47.4325 75.2577 50.2902 74.5093 50.6917 72.8344Z" fill="#F2786B"/>
<path d="M88.07 74.6174C91.2509 74.1683 93.6351 72.4214 93.3951 70.7157C93.1551 69.01 90.382 67.9914 87.201 68.4406C84.0201 68.8898 81.6359 70.6366 81.8759 72.3423C82.1158 74.048 84.889 75.0666 88.07 74.6174Z" fill="#F2786B"/>
<g style="mix-blend-mode:multiply" opacity="0.21">
<g style="mix-blend-mode:multiply" opacity="0.21">
<path d="M65.4644 67.4629C64.4098 67.488 63.3758 67.7609 62.4457 68.2595C62.3751 68.2916 62.3124 68.3388 62.2619 68.3977C62.0825 68.639 62.3701 68.9528 62.6356 69.0933C64.3922 69.8587 66.3631 69.9733 68.1963 69.4166C68.65 69.3482 69.0762 69.1563 69.4285 68.8618C69.631 68.6619 69.7545 68.3029 69.5474 68.1078C69.454 68.0345 69.3425 67.9881 69.2247 67.9737C67.5003 67.6134 65.7201 67.6141 63.9959 67.9758L65.4644 67.4629Z" fill="#DA8966"/>
</g>
</g>
<path d="M62.3458 68.6524C62.8166 68.4783 63.2052 68.1555 63.6996 68.0048C64.273 67.8513 64.8659 67.7834 65.4591 67.8035C66.02 67.7888 66.5812 67.8218 67.1366 67.9022C67.7024 67.9992 68.2274 68.26 68.6469 68.6525C69.1235 69.0514 69.8982 68.5534 69.5485 67.9574C68.7852 66.6567 66.868 66.6453 65.5527 66.666C64.4316 66.6835 62.2304 66.8096 61.9181 68.2227C61.8656 68.4604 62.0807 68.7505 62.3459 68.6524H62.3458Z" fill="#D88261"/>
<path d="M53.7589 63.0082C55.4986 59.6454 54.1878 55.5064 50.8313 53.7635C47.4748 52.0205 43.3436 53.3337 41.604 56.6966C39.8644 60.0594 41.1751 64.1984 44.5316 65.9414C47.8881 67.6843 52.0193 66.3711 53.7589 63.0082Z" fill="white"/>
<path d="M53.4683 61.1077C53.1776 62.1217 52.5933 63.0266 51.7893 63.7079C50.9853 64.3892 49.9977 64.8164 48.9514 64.9353C47.9051 65.0543 46.8471 64.8597 45.9111 64.3763C44.9752 63.8928 44.2034 63.1421 43.6933 62.2192C43.1832 61.2962 42.9577 60.2424 43.0453 59.1911C43.133 58.1398 43.5298 57.1381 44.1857 56.3127C44.8416 55.4873 45.727 54.8753 46.7301 54.5541C47.7331 54.2329 48.8087 54.2169 49.8208 54.5082C50.4928 54.7015 51.1202 55.0256 51.6672 55.462C52.2142 55.8983 52.67 56.4383 53.0088 57.0511C53.3475 57.6639 53.5624 58.3376 53.6412 59.0336C53.7201 59.7297 53.6613 60.4344 53.4683 61.1077Z" fill="black"/>
<path d="M51.1546 62.1979C51.0701 62.4925 50.9003 62.7554 50.6667 62.9534C50.4331 63.1514 50.1461 63.2755 49.8421 63.31C49.5381 63.3446 49.2306 63.2881 48.9587 63.1476C48.6867 63.0071 48.4625 62.789 48.3142 62.5208C48.166 62.2526 48.1005 61.9464 48.126 61.6409C48.1515 61.3354 48.2668 61.0443 48.4574 60.8045C48.6479 60.5647 48.9052 60.3869 49.1967 60.2935C49.4881 60.2002 49.8007 60.1956 50.0948 60.2802C50.29 60.3364 50.4723 60.4306 50.6313 60.5574C50.7902 60.6841 50.9227 60.841 51.0211 61.0191C51.1195 61.1972 51.1819 61.3929 51.2049 61.5952C51.2278 61.7974 51.2107 62.0022 51.1546 62.1979Z" fill="white"/>
<path d="M77.7783 61.1211C77.9563 62.4657 78.5284 63.7272 79.4221 64.7461C80.3158 65.765 81.491 66.4955 82.799 66.8452C84.1071 67.1949 85.4893 67.1482 86.7709 66.7108C88.0524 66.2735 89.1758 65.4653 89.9989 64.3883C90.8219 63.3114 91.3078 62.0141 91.3949 60.6605C91.4821 59.3069 91.1667 57.9578 90.4885 56.7838C89.8104 55.6098 88.8 54.6637 87.5852 54.065C86.3704 53.4663 85.0056 53.242 83.6635 53.4204C81.8639 53.6597 80.2327 54.6054 79.129 56.0496C78.0253 57.4937 77.5395 59.318 77.7783 61.1211Z" fill="white"/>
<path d="M78.8324 60.6183C78.9709 61.6641 79.4159 62.6453 80.111 63.4378C80.8061 64.2303 81.7202 64.7984 82.7376 65.0704C83.755 65.3425 84.8301 65.3061 85.8268 64.9659C86.8236 64.6258 87.6973 63.9971 88.3375 63.1595C88.9777 62.3218 89.3556 61.3128 89.4234 60.26C89.4911 59.2072 89.2458 58.1579 88.7184 57.2447C88.1909 56.3316 87.4051 55.5957 86.4602 55.1301C85.5153 54.6644 84.4538 54.49 83.4099 54.6288C82.7168 54.7209 82.0486 54.9489 81.4434 55.2998C80.8383 55.6507 80.3081 56.1175 79.883 56.6737C79.4579 57.2299 79.1464 57.8645 78.9661 58.5413C78.7859 59.2181 78.7404 59.9239 78.8324 60.6183Z" fill="black"/>
<path d="M80.3884 61.2442C80.4287 61.5481 80.5579 61.8332 80.7599 62.0635C80.9619 62.2938 81.2275 62.4589 81.5231 62.5379C81.8188 62.617 82.1312 62.6064 82.4208 62.5076C82.7104 62.4087 82.9643 62.2261 83.1504 61.9827C83.3364 61.7393 83.4462 61.4461 83.4659 61.1402C83.4856 60.8343 83.4143 60.5293 83.2611 60.264C83.1078 59.9987 82.8795 59.7848 82.6049 59.6495C82.3304 59.5142 82.0219 59.4635 81.7186 59.5038C81.3119 59.5579 80.9432 59.7717 80.6938 60.098C80.4443 60.4244 80.3345 60.8367 80.3884 61.2442Z" fill="white"/>
<path d="M29.1979 50.568L24.8091 41.1143C24.8091 41.1143 -0.645754 45.7781 0.012552 82.1403C1.73565 82.9973 3.52193 83.7204 5.35561 84.3032C5.17281 81.1462 5.80791 77.9956 7.19923 75.1571C7.50921 78.5697 8.07399 81.9542 8.88883 85.2822C11.0574 85.7885 13.2714 86.0749 15.4973 86.1371C14.9455 82.4997 15.0379 78.7934 15.77 75.1881C16.5927 78.8596 17.6856 82.4649 19.0397 85.9747C21.0266 85.7544 22.9706 85.2429 24.8091 84.4564C24.8091 84.4564 19.3232 62.8797 29.1979 50.568Z" fill="#672410"/>
<path d="M107.318 36.7173L103.588 48.9192C106.602 53.6294 108.144 59.1347 108.014 64.7287C107.884 70.3227 106.089 75.7503 102.859 80.315C102.459 81.0213 102.094 81.7471 101.766 82.49C101.573 82.8481 101.383 83.2063 101.174 83.5641C103.189 84.9533 105.386 86.0576 107.702 86.8459C109.248 83.8917 110.348 80.7234 110.964 77.4451C110.964 77.4451 111.661 83.3257 110.4 87.6375C112.954 88.2609 115.593 88.4619 118.212 88.2325C119.978 85.1884 121.053 81.7924 121.362 78.2853C121.756 81.3808 121.875 84.5053 121.718 87.6219C123.502 87.1609 125.224 86.4888 126.848 85.6196C126.848 85.6196 144.403 44.4121 107.318 36.7173Z" fill="#672410"/>
<path d="M18.9457 46.6115C12.2727 51.1097 6.25515 59.4907 5.82031 67.7184" stroke="#772F1E" stroke-width="1.86439" stroke-linecap="round" stroke-linejoin="round"/>
<path d="M21.0232 49.1389C15.0441 55.1849 11.7047 62.5226 11.8623 73.9823" stroke="#772F1E" stroke-width="1.86439" stroke-linecap="round" stroke-linejoin="round"/>
<path d="M24.0413 53.3843C24.0413 53.3843 17.6776 60.6819 19.7622 75.3021" stroke="#772F1E" stroke-width="1.86439" stroke-linecap="round" stroke-linejoin="round"/>
<path d="M109.584 53.3842C114.661 58.0087 114.588 66.8477 113.589 73.0141" stroke="#772F1E" stroke-width="1.86439" stroke-linecap="round" stroke-linejoin="round"/>
<path d="M112.358 47.0569C120.187 55.5035 121.538 65.5139 119.593 76.5232" stroke="#772F1E" stroke-width="1.86439" stroke-linecap="round" stroke-linejoin="round"/>
<path d="M112.604 42.5923C124.303 45.898 127.497 61.6929 126.343 72.1055" stroke="#772F1E" stroke-width="1.86439" stroke-linecap="round" stroke-linejoin="round"/>
<path d="M26.629 59.7982C26.306 59.7961 25.9879 59.7185 25.7 59.5715C25.4122 59.4246 25.1626 59.2124 24.971 58.9518C24.7794 58.6912 24.6511 58.3895 24.5964 58.0705C24.5417 57.7515 24.562 57.4241 24.6558 57.1144C24.2152 57.4132 23.6791 57.5365 23.1525 57.4602C22.6259 57.3839 22.1467 57.1134 21.8086 56.7018C21.4883 56.2755 21.2697 55.7813 21.1697 55.2571C21.0696 54.733 21.0908 54.1929 21.2315 53.6782C21.5212 52.6523 21.9676 51.6776 22.555 50.7885C20.903 50.95 18.9499 50.9913 17.9231 49.6848C16.8115 48.2705 17.5746 46.067 18.9679 44.9304C17.9444 44.6698 17.021 44.1111 16.3142 43.325C15.0667 41.7099 16.1352 38.757 17.7906 37.8321C20.507 36.3143 24.6502 38.2777 26.2659 40.6335C26.8683 41.592 27.3542 42.6191 27.7134 43.6931C28.8562 46.7078 30.6223 50.6188 30.066 53.931C29.7644 55.7261 28.8814 59.6475 26.629 59.7982Z" fill="#FF6551"/>
<path d="M115.961 38.6461C116.087 39.1434 116.113 39.6607 116.039 40.1683C115.965 40.6759 115.791 41.1638 115.528 41.604C115.265 42.0441 114.918 42.4279 114.506 42.7332C114.095 43.0385 113.627 43.2594 113.13 43.3831C113.792 44.4461 115.113 45.0339 115.569 46.2003C115.748 46.8362 115.717 47.5127 115.482 48.13C115.248 48.7472 114.821 49.2726 114.266 49.6285C113.138 50.3149 111.874 50.7443 110.562 50.8863C111.034 52.4735 111.24 54.128 111.172 55.7827C111.132 56.6104 110.909 57.4188 110.519 58.1496C110.13 58.8805 109.583 59.5156 108.918 60.0091C108.236 60.4773 107.411 60.6878 106.588 60.6033C105.765 60.5189 104.999 60.1448 104.426 59.5477C103.851 58.6913 103.519 57.6948 103.464 56.6642C102.937 53.8894 102.799 51.0545 103.054 48.2415C103.268 46.9059 103.572 45.5862 103.962 44.2912C104.789 41.3117 105.901 38.7764 108.713 37.3225C111.121 36.0774 114.886 35.0617 115.961 38.6461Z" fill="#FF6551"/>
<path d="M84.7156 16.0515C84.7156 16.0515 81.6435 -0.217645 64.3079 0.00220834C57.02 0.140539 49.8538 1.89856 43.3266 5.14934C36.7994 8.40011 31.0742 13.0625 26.5644 18.7999C19.1035 28.1435 17.7869 49.4692 31.3921 60.6817C31.3921 60.6817 34.2448 47.8654 38.1947 42.0717C38.1947 42.0717 61.2357 53.2232 82.0824 35.0771C82.0824 35.077 87.7878 26.1716 84.7156 16.0515Z" fill="#672410"/>
<path d="M80.9856 25.7775C80.9856 25.7775 80.3273 36.1365 87.1298 42.3631C93.9324 48.5896 99.199 49.2491 99.199 49.2491C99.199 49.2491 102.929 59.374 100.296 66.8432C104.095 63.1103 107.013 58.5733 108.836 53.5644C110.658 48.5555 111.339 43.2016 110.829 37.8948C109.293 19.3491 97.8477 11.6542 80.9683 11.8741L80.9856 25.7775Z" fill="#672410"/>
<path d="M30.9298 58.7353C24.6606 54.1806 23.7342 43.9795 25.0412 36.9789" stroke="#772F1E" stroke-width="1.86439" stroke-linecap="round" stroke-linejoin="round"/>
<path d="M30.5596 54.5608C28.1638 43.0482 29.3286 27.7231 38.036 18.9711C40.6279 16.3659 43.4127 13.6491 46.984 12.7955" stroke="#772F1E" stroke-width="1.86439" stroke-linecap="round" stroke-linejoin="round"/>
<path d="M34.4272 47.3193C36.0162 40.6331 39.8509 34.5017 43.3335 31.4164C47.5253 27.6045 52.7723 25.1559 58.382 24.3938" stroke="#772F1E" stroke-width="1.86439" stroke-linecap="round" stroke-linejoin="round"/>
<path d="M41.8955 40.6335C46.1898 37.5338 51.0327 35.2795 56.1667 33.9905" stroke="#772F1E" stroke-width="1.86439" stroke-linecap="round" stroke-linejoin="round"/>
<path d="M50.7261 40.9795C54.2351 40.8592 57.7271 40.4338 61.1627 39.7082C65.597 38.6577 69.7345 36.6095 73.2613 33.7188C76.7881 30.8282 79.6117 27.1709 81.5181 23.0244" stroke="#772F1E" stroke-width="1.86439" stroke-linecap="round" stroke-linejoin="round"/>
<path d="M89.0566 36.5061C89.153 39.0989 91.0438 41.2819 93.1242 42.8271C96.5268 45.3543 99.4747 46.5652 101.303 50.6091" stroke="#772F1E" stroke-width="1.86439" stroke-linecap="round" stroke-linejoin="round"/>
<path d="M98.4189 34.8754C105.134 40.8774 106.52 51.0592 105.023 59.5648" stroke="#772F1E" stroke-width="1.86439" stroke-linecap="round" stroke-linejoin="round"/>
<g style="mix-blend-mode:screen" opacity="0.27">
<path d="M110.829 37.895C109.365 20.2187 98.895 12.4056 83.3018 11.9017C81.1246 7.09756 75.9167 -0.145053 64.3082 0.0022108C57.0204 0.140543 49.8541 1.89856 43.327 5.14933C36.7998 8.40009 31.0746 13.0625 26.5648 18.7998C20.0757 26.9264 18.2402 44.1139 26.8216 55.8313C24.2577 48.5595 23.3064 40.3265 25.4474 33.0956C28.4142 23.076 36.2982 14.6864 45.6116 10.2031C55.8614 5.26895 68.2531 7.69136 76.9116 14.9243C76.4309 12.4118 75.5005 10.0071 74.1652 7.82643C77.3434 10.5915 79.8523 14.0445 81.5022 17.9243C81.9051 16.8027 82.308 15.6812 82.711 14.5596C82.9639 15.5349 83.2168 16.5103 83.4698 17.4856C87.3853 16.7009 91.4315 16.8687 95.2689 17.975C92.8336 18.7818 90.3982 19.5886 87.9628 20.3953C91.1765 19.3307 96.4202 21.1082 99.066 22.8422C102.373 25.1886 105.054 28.3143 106.87 31.9436C108.735 35.3436 110.101 38.9951 110.926 42.7856C110.997 41.155 110.965 39.5215 110.829 37.895Z" fill="#772F1E"/>
</g>
</svg>
