<svg width="57" height="54" viewBox="0 0 57 54" fill="none" xmlns="http://www.w3.org/2000/svg">
<path d="M0.19043 27C0.19043 12.0883 12.2787 0 27.1904 0H56.1904V54H27.1904C12.2787 54 0.19043 41.9117 0.19043 27Z" fill="#F8F8F8"/>
<path d="M27.1904 27C29.4004 27 31.1904 25.21 31.1904 23C31.1904 20.79 29.4004 19 27.1904 19C24.9804 19 23.1904 20.79 23.1904 23C23.1904 25.21 24.9804 27 27.1904 27ZM27.1904 29C24.5204 29 19.1904 30.34 19.1904 33V35H35.1904V33C35.1904 30.34 29.8604 29 27.1904 29Z" fill="#323232"/>
</svg>
