<svg width="375" height="793" viewBox="0 0 375 793" fill="none" xmlns="http://www.w3.org/2000/svg">
<rect width="375" height="793" fill="url(#paint0_linear_0_1)"/>
<path d="M63.6909 589.852L20.1095 591.302C26.8121 672.853 89.9508 698.466 120.443 703.269L115.777 656.679C115.777 656.679 77.5301 649.849 63.6909 589.852Z" fill="white"/>
<path d="M141.459 572.491L157.197 558.781C130.062 530.535 98.884 540.111 86.114 547.544L101.927 563.427C101.927 563.427 118.188 554.403 141.459 572.491Z" fill="white"/>
<path d="M45.0307 378.516L54.8169 375.141C47.5961 357.108 31.4811 355.71 24.2274 356.751L28.5427 366.995C28.5427 366.995 37.6973 365.872 45.0307 378.516Z" fill="white"/>
<path d="M36.6908 503.826L49.4507 520.344C79.2443 494.919 71.5212 463.231 64.8526 450.046L48.0658 464.897C48.0658 464.897 56.117 481.661 36.6908 503.826Z" fill="white"/>
<path d="M274.543 98.8312L230.961 100.282C237.664 181.832 300.802 207.446 331.295 212.248L326.628 165.658C326.628 165.658 288.382 158.828 274.543 98.8312Z" fill="white"/>
<path d="M226.216 240.839L241.955 227.129C214.82 198.884 183.642 208.459 170.872 215.892L186.685 231.776C186.685 231.776 202.946 222.752 226.216 240.839Z" fill="white"/>
<path d="M280.033 391.735L276.506 412.308C315.388 417.037 333.49 389.907 338.685 376.074L316.391 373.765C316.391 373.765 309.498 391.038 280.033 391.735Z" fill="white"/>
<path d="M242.801 369.415L252.584 350.977C217.132 334.326 191.453 354.434 182.193 365.948L202.647 375.113C202.647 375.113 214.596 360.863 242.801 369.415Z" fill="white"/>
<path d="M283.768 341.331L292.5 346.891C302.124 330.018 293.19 316.533 287.861 311.502L282.527 321.255C282.527 321.255 289.103 327.722 283.768 341.331Z" fill="white"/>
<defs>
<linearGradient id="paint0_linear_0_1" x1="187.5" y1="0" x2="187.5" y2="793" gradientUnits="userSpaceOnUse">
<stop stop-color="white"/>
<stop offset="1" stop-color="#EEF1FD"/>
</linearGradient>
</defs>
</svg>
