<svg width="57" height="54" viewBox="0 0 57 54" fill="none" xmlns="http://www.w3.org/2000/svg">
<path d="M0.65332 27C0.65332 12.0883 12.7416 0 27.6533 0H56.6533V54H27.6533C12.7416 54 0.65332 41.9117 0.65332 27Z" fill="#F8F8F8"/>
<path d="M22.2733 25.79C23.7133 28.62 26.0333 30.93 28.8633 32.38L31.0633 30.18C31.3333 29.91 31.7333 29.82 32.0833 29.94C33.2033 30.31 34.4133 30.51 35.6533 30.51C36.2033 30.51 36.6533 30.96 36.6533 31.51V35C36.6533 35.55 36.2033 36 35.6533 36C26.2633 36 18.6533 28.39 18.6533 19C18.6533 18.45 19.1033 18 19.6533 18H23.1533C23.7033 18 24.1533 18.45 24.1533 19C24.1533 20.25 24.3533 21.45 24.7233 22.57C24.8333 22.92 24.7533 23.31 24.4733 23.59L22.2733 25.79Z" fill="#323232"/>
</svg>
