<svg width="259" height="235" viewBox="0 0 259 235" fill="none" xmlns="http://www.w3.org/2000/svg">
<g filter="url(#filter0_d_3521_2767)">
<path d="M213.238 207.675C200.944 214.846 185.051 211.786 170.625 213.351C158.434 214.674 147.037 219.416 135.368 222.943C123.699 226.471 110.912 228.788 99.2621 225.205C91.2594 222.744 84.5099 217.713 76.9788 214.198C67.8907 209.957 57.7913 207.98 48.3074 204.564C38.8234 201.148 29.4601 195.796 25.057 187.292C19.7623 177.066 22.8054 164.918 20.8041 153.727C18.5454 141.098 9.95626 130.193 6.36125 117.832C3.82134 109.1 6.45665 98.7949 9.52597 90.3213C12.7692 81.3675 21.7849 71.3079 30.4724 66.0978C33.3067 64.398 36.106 62.6952 38.7829 60.7722C39.9558 59.9297 46.1279 56.244 46.1279 54.9097C53.0577 48.717 57.2172 40.82 63.239 33.962C69.4871 26.8463 78.6325 22.2361 88.2241 19.975C96.9093 17.8996 105.795 16.7521 114.728 16.5522C124.321 16.4045 133.626 17.2328 142.882 14.1738C144.826 13.5316 146.711 12.7456 148.649 12.0873C161.736 7.64321 179.262 9.58963 191.497 15.5731C196.165 17.8562 200.071 21.2558 203.836 24.6858C208.506 28.7498 212.588 33.4312 215.966 38.5977C219.058 43.5815 220.037 49.5301 223.976 54.2079C226.621 57.3494 229.223 60.8002 231.845 63.8303C235.896 68.5123 242.135 70.7623 245.988 75.8643C249.865 80.9999 251.71 87.2704 252.987 93.3479C254.621 101.129 255.537 109.106 254.661 116.991C253.26 129.608 246.107 138.989 238.795 149.255C236.359 152.676 233.911 156.216 232.976 160.222C232.601 162.142 232.371 164.088 232.288 166.042C231.838 171.738 230.292 176.984 229.127 182.502C227.082 192.195 222.608 202.209 213.238 207.675Z" fill="#EFF2FD"/>
<path d="M237.781 59.4011L237.765 60.4264L236.97 114.287L236.936 116.525L235.816 192.307H28.9562L27.8597 173.565L23.8504 104.977L21.1846 59.4011H237.781Z" fill="#5B5B5C"/>
<path d="M229.775 186.54H34.5782L27.8262 70.6987L231.649 70.3442L229.775 186.54Z" fill="#545554"/>
<path d="M130.096 68.5125C132.357 68.5125 134.191 66.6992 134.191 64.4625C134.191 62.2257 132.357 60.4125 130.096 60.4125C127.834 60.4125 126 62.2257 126 64.4625C126 66.6992 127.834 68.5125 130.096 68.5125Z" fill="#3F4040"/>
<path d="M230.056 186.54H34.8577L27.8262 70.6987L231.649 70.3442L230.056 186.54Z" fill="#49B3F7"/>
<path d="M231.52 79.7944L231.575 75.8253H28.1372L28.3782 79.7944H231.52Z" fill="#3A77BA"/>
<path d="M28.2463 77.6206H231.55L231.649 70.3442L27.8262 70.6987L28.2463 77.6206Z" fill="#864FF1"/>
<path d="M223.561 76.41C224.795 76.41 225.796 75.4203 225.796 74.1994C225.796 72.9786 224.795 71.9889 223.561 71.9889C222.326 71.9889 221.326 72.9786 221.326 74.1994C221.326 75.4203 222.326 76.41 223.561 76.41Z" fill="white"/>
<path d="M216.06 76.41C217.294 76.41 218.295 75.4203 218.295 74.1994C218.295 72.9786 217.294 71.9889 216.06 71.9889C214.825 71.9889 213.825 72.9786 213.825 74.1994C213.825 75.4203 214.825 76.41 216.06 76.41Z" fill="white"/>
<path d="M208.328 76.41C209.563 76.41 210.564 75.4203 210.564 74.1994C210.564 72.9786 209.563 71.9889 208.328 71.9889C207.094 71.9889 206.093 72.9786 206.093 74.1994C206.093 75.4203 207.094 76.41 208.328 76.41Z" fill="white"/>
<path d="M153.873 66.2514H140.718C140.238 66.2514 139.778 66.0629 139.439 65.7274C139.1 65.392 138.909 64.9369 138.909 64.4625C138.909 64.2276 138.956 63.995 139.047 63.7779C139.138 63.5609 139.271 63.3637 139.439 63.1975C139.607 63.0314 139.806 62.8997 140.026 62.8098C140.245 62.7199 140.48 62.6736 140.718 62.6736H153.873C154.111 62.6736 154.346 62.7199 154.566 62.8098C154.785 62.8997 154.985 63.0314 155.153 63.1975C155.32 63.3637 155.454 63.5609 155.545 63.7779C155.636 63.995 155.682 64.2276 155.682 64.4625C155.682 64.9369 155.492 65.392 155.152 65.7274C154.813 66.0629 154.353 66.2514 153.873 66.2514Z" fill="#545554"/>
<path d="M118.888 66.2514H105.733C105.253 66.2514 104.793 66.0629 104.454 65.7274C104.114 65.392 103.924 64.9369 103.924 64.4625C103.924 64.2276 103.971 63.995 104.062 63.7779C104.152 63.5609 104.286 63.3637 104.454 63.1975C104.622 63.0314 104.821 62.8997 105.04 62.8098C105.26 62.7199 105.495 62.6736 105.733 62.6736H118.888C119.126 62.6736 119.361 62.7199 119.58 62.8098C119.8 62.8997 119.999 63.0314 120.167 63.1975C120.335 63.3637 120.468 63.5609 120.559 63.7779C120.65 63.995 120.697 64.2276 120.697 64.4625C120.697 64.9369 120.506 65.392 120.167 65.7274C119.828 66.0629 119.368 66.2514 118.888 66.2514Z" fill="#545554"/>
<g style="mix-blend-mode:screen" opacity="0.28">
<path d="M189.181 59.4016C141.187 87.2564 61.4903 100.184 23.8507 104.977L21.1855 59.4016H189.181Z" fill="#EBF7FD"/>
</g>
<path d="M74.6187 116.924C75.7919 117.838 77.0674 118.616 78.4202 119.242C79.6071 119.67 80.7175 120.282 81.7094 121.056C82.4109 121.778 82.9688 122.624 83.3541 123.55C86.6677 130.531 86.0857 140.726 91.8685 146.352C95.5424 149.927 102.254 151.352 107.205 151.538C113.543 151.777 119.708 153.712 126.027 153.836C132.656 153.967 138.932 150.844 144.303 146.998C145.781 145.823 147.385 144.81 149.085 143.977C155.06 141.416 162.853 144.252 167.975 140.276C171.97 137.174 172.382 131.371 175.158 127.165C178.565 122.001 185.115 119.801 189.371 115.296C195.594 108.709 195.771 98.3759 193.106 89.7547C191.518 84.6193 190.675 80.964 193.459 76.217C195.657 72.4674 199.679 68.6479 200.512 64.297C200.845 62.5319 200.912 60.7278 200.712 58.9432C200.171 54.207 197.991 49.8012 194.542 46.4719C189.836 41.9612 183.053 39.5214 179.625 33.999C175.146 26.7782 180.406 17.904 176.307 10.3707C173.406 5.03856 167.208 2.27458 161.188 1.16438C155.037 0.0377973 148.713 0.244705 142.651 1.77082C136.667 3.28218 130.702 5.08908 124.487 3.84182C118.517 2.64322 112.841 -0.530684 106.59 0.0763954C99.7356 0.740858 94.1983 5.90995 90.1959 11.4535C86.4848 16.5889 83.5242 22.2212 79.1723 26.889C75.069 31.2925 70.7814 35.7704 68.3147 41.3273C64.5878 49.714 66.8292 56.8097 69.7642 64.8484C72.3376 71.8963 67.7134 77.3014 65.5175 83.6752C63.2804 90.1681 64.5517 99.9027 66.9343 106.235C68.4625 110.424 71.1198 114.121 74.6187 116.924Z" fill="#732C15"/>
<path d="M90.3394 101.767C88.7928 100.482 87.3421 99.0876 85.7578 97.8478C85.1515 97.3732 85.898 96.4509 86.544 96.7978C88.3358 97.7598 90.1571 98.6212 91.8609 99.7351C93.4407 100.781 94.9602 101.914 96.4122 103.128C99.1603 105.395 102.04 108.127 102.811 111.731C103.551 115.19 102.04 118.354 100.612 121.415C99.6718 123.127 99.102 125.013 98.9382 126.953C98.9013 127.823 98.9745 128.694 99.156 129.545C99.398 130.278 99.7081 130.986 100.082 131.662C100.24 132.026 99.7984 132.396 99.4543 132.298C98.8099 132.033 98.23 131.635 97.753 131.131C97.276 130.627 96.9128 130.029 96.6875 129.375C96.1563 127.94 96.0719 126.38 96.4451 124.897C97.1923 121.31 99.7494 118.292 100.192 114.629C100.664 110.72 97.6079 107.764 94.8421 105.447C93.356 104.202 91.8302 103.006 90.3394 101.767Z" fill="#7F391F"/>
<path d="M176.534 119.11C176.412 119.177 176.29 119.245 176.169 119.314C173.062 121.116 170.676 123.919 169.41 127.254C169.205 127.971 168.878 128.648 168.443 129.256C168.219 129.556 167.903 129.777 167.543 129.887C167.183 129.997 166.797 129.99 166.441 129.868C165.405 129.384 165.519 127.888 165.939 126.835C167.742 122.319 171.971 119.212 176.293 116.91C180.663 114.458 184.296 110.903 186.823 106.608C187.88 105.028 188.674 103.291 189.177 101.464C189.715 98.9918 189.828 96.448 189.512 93.9391C189.125 91.7983 188.62 89.6798 188.001 87.5931C187.986 87.5245 188.065 87.4378 188.135 87.4882C190.768 89.3808 191.86 92.7865 192.178 95.8817C192.638 100.179 191.772 104.514 189.695 108.315C187.617 112.117 184.424 115.207 180.537 117.181C179.219 117.857 177.834 118.404 176.534 119.11Z" fill="#7F391F"/>
<path d="M165.593 111.424C165.346 110.4 165.322 109.335 165.522 108.3C165.722 107.266 166.142 106.285 166.754 105.423C169.163 102.073 173.828 100.437 175.188 96.3401C175.197 96.3097 175.216 96.283 175.241 96.2638C175.267 96.2447 175.298 96.2341 175.33 96.2338C175.362 96.2334 175.393 96.2432 175.419 96.2618C175.445 96.2803 175.464 96.3066 175.474 96.3368C176.816 100.005 173.136 102.702 170.758 104.802C169.142 106.229 167.914 107.733 167.911 109.976C167.908 112.47 169.287 114.456 169.742 116.82C169.778 116.962 169.766 117.112 169.71 117.247C169.653 117.382 169.554 117.496 169.427 117.571C169.3 117.646 169.152 117.68 169.005 117.665C168.858 117.651 168.719 117.591 168.609 117.493C166.896 116.14 166.007 113.487 165.593 111.424Z" fill="#7F391F"/>
<path d="M151.888 110.347C151.713 108.5 152.03 106.639 152.808 104.951C153.136 104.153 154.192 104.76 154.102 105.464C153.947 107.056 154.134 108.663 154.652 110.179C155.06 111.497 155.9 112.812 156.034 114.171C156.033 114.359 155.982 114.543 155.888 114.706C155.793 114.869 155.657 115.004 155.494 115.1C155.33 115.196 155.145 115.248 154.955 115.252C154.765 115.255 154.577 115.21 154.41 115.121C152.816 114.293 152.104 111.993 151.888 110.347Z" fill="#7F391F"/>
<path d="M75.7698 150.603C73.3013 152.494 70.7346 154.256 68.0804 155.882C67.1021 156.484 66.1125 157.065 65.1116 157.626C64.4588 157.997 63.7954 158.359 63.1266 158.713C61.1562 159.899 58.9581 160.668 56.6716 160.971C54.7881 161.029 52.909 160.759 51.1201 160.173C40.2618 157.109 30.3952 151.306 22.4879 143.335C21.6181 142.455 20.718 141.396 20.8176 140.172C20.9493 138.604 22.753 137.621 24.336 137.751C25.9049 138.025 27.385 138.665 28.653 139.619C33.5635 142.669 38.8318 145.115 44.3414 146.902C47.4065 148.033 50.662 148.572 53.9324 148.492C55.3287 148.395 56.7081 148.132 58.0412 147.709C59.2466 147.331 60.4211 146.861 61.5542 146.306C63.9851 145.07 66.3311 143.677 68.5766 142.137L75.7698 150.603Z" fill="#FFBF94"/>
<path d="M75.7703 150.603C73.3018 152.494 70.7352 154.256 68.081 155.882C65.1227 153.286 62.8775 149.992 61.5547 146.306C63.9857 145.07 66.3316 143.678 68.5771 142.137L75.7703 150.603Z" fill="#F49B73"/>
<path d="M160.378 173.343C161.704 175.463 163.201 177.473 164.855 179.354C166.291 181.018 167.833 182.589 169.472 184.057C172.291 183.949 181.644 184.455 184.516 184.057C179.933 180.06 175.572 172.334 171.644 167.72C171.118 167.105 170.601 166.484 170.095 165.857C168.934 164.482 167.908 162.999 167.034 161.43C166.564 160.558 166.195 159.636 165.933 158.683L152.319 157.589C153.263 159.738 154.294 162.022 155.417 164.328C156.898 167.423 158.555 170.432 160.378 173.343Z" fill="#FFBF94"/>
<path d="M155.417 164.328C156.898 167.423 158.554 170.433 160.378 173.343C166.769 172.954 170.064 169.943 171.644 167.72C171.117 167.105 170.601 166.485 170.095 165.857C168.933 164.482 167.908 162.999 167.033 161.43L158.726 161.722C157.575 162.529 156.47 163.399 155.417 164.328Z" fill="#F49B73"/>
<path d="M150.369 124.253C143.08 121.82 137.321 120.9 130.032 118.467C127.28 117.548 129.799 118.967 126.91 118.666C124.459 118.481 121.996 118.539 119.557 118.84C112.616 119.498 105.709 120.433 98.8371 121.645C96.7143 121.887 94.6614 122.545 92.7977 123.578C90.6459 124.956 82.5945 127.27 65.4957 142.846C63.157 143.928 73.5684 156.789 78.869 159.228C85.487 162.273 99.63 147.222 104.509 139.63C104.652 139.25 104.929 138.934 105.29 138.742C105.651 138.549 106.071 138.494 106.471 138.585C117.632 139.459 128.794 140.332 139.956 141.206C140.402 141.195 140.84 141.325 141.208 141.576C141.495 141.881 141.686 142.264 141.754 142.676C144.371 152.267 149.172 161.138 155.791 168.61C156.12 169.049 156.561 169.395 157.068 169.611C157.562 169.733 158.078 169.731 158.571 169.608C164.178 168.63 169.497 166.436 174.145 163.184C174.521 162.981 174.805 162.645 174.943 162.243C174.97 161.812 174.835 161.386 174.562 161.049C169.107 152.304 164.517 143.059 160.854 133.443C160.684 132.997 160.513 132.545 160.335 132.095C159.735 130.582 158.806 129.219 157.613 128.102C156.42 126.984 154.993 126.141 153.433 125.631L150.369 124.253Z" fill="#FFC652"/>
<path d="M115.335 98.302C115.355 99.2462 115.375 100.193 115.395 101.137C115.41 101.844 115.425 102.55 115.44 103.256C115.458 104.202 115.477 105.15 115.498 106.098C115.515 106.981 115.535 107.866 115.553 108.751L115.568 109.519C115.603 111.193 115.637 112.866 115.67 114.54L115.768 119.246C115.743 119.723 115.827 120.198 116.015 120.638C116.279 121.059 116.651 121.404 117.093 121.636C119.421 123.035 122.082 123.801 124.806 123.858C127.53 123.914 130.221 123.259 132.607 121.958C132.92 121.786 133.172 121.524 133.331 121.206C133.489 120.889 133.546 120.531 133.494 120.18C133.261 118.663 133.112 117.134 133.049 115.6C132.991 114.228 133.002 112.856 133.081 111.482C133.101 111.153 133.124 110.822 133.151 110.493C133.229 109.542 133.336 108.592 133.481 107.648C133.661 106.437 133.898 105.237 134.191 104.049C134.206 103.985 134.224 103.918 134.239 103.854L133.731 103.706L128.612 102.205L126.715 101.646L115.335 98.302Z" fill="#FFAF79"/>
<path d="M4.82876 125.683C5.08694 125.495 5.399 125.394 5.71957 125.393C7.9581 125.255 14.7794 130.763 15.5665 130.025C13.76 128.578 12.7417 127.448 10.9354 126.002C10.0275 125.275 8.31185 123.534 9.24337 122.837C9.46233 122.711 9.7077 122.635 9.96068 122.617C10.2137 122.598 10.4676 122.637 10.7029 122.731C13.8364 123.635 15.4803 127.148 18.4261 128.538C18.299 126.948 18.4439 125.347 18.8545 123.804C19.0034 123.245 19.259 122.62 19.816 122.446C20.1441 122.392 20.4805 122.46 20.7616 122.636C21.0427 122.811 21.249 123.083 21.3413 123.398C21.5049 124.036 21.5794 124.692 21.5626 125.349C21.7818 128.119 23.9508 130.276 25.6349 132.5C27.3189 134.724 30.399 138.667 28.783 140.94L27.0233 143.87C24.0677 145.83 21.7149 146.201 18.7918 144.193C16.7283 142.776 15.1527 140.445 12.6865 139.971C11.589 139.76 10.736 139.393 9.66214 139.085C8.58824 138.777 6.99534 137.764 7.50476 136.779C9.33237 136.896 11.4664 137.417 13.2941 137.534C11.8846 136.263 9.94345 135.795 8.166 135.11C6.38855 134.426 3.43709 132.041 4.09356 130.791C4.28553 130.425 4.81933 130.445 5.22788 130.525C6.98604 130.87 13.4779 133.879 13.5522 133.352C10.7806 131.851 8.11784 130.162 5.58317 128.296C4.79613 127.614 4.02938 126.351 4.82876 125.683Z" fill="#FFBF94"/>
<path d="M142.661 172.464H98.8511V184.361H142.661V172.464Z" fill="#FFC652"/>
<path d="M99.0225 138.423C98.3442 141.696 97.4038 144.91 96.21 148.035C95.2963 149.927 94.5256 151.883 93.9042 153.887C92.9568 157.727 93.8663 161.753 94.8546 165.584C95.9347 169.77 99.9097 177.535 101.605 178.542C102.589 179.126 104.925 178.955 106.072 179.014C110.071 179.218 114.033 179.474 118.035 179.435C122.184 179.395 126.33 179.244 130.473 178.983C133.082 178.818 135.687 178.609 138.289 178.356C138.77 178.351 139.243 178.235 139.671 178.017C140.099 177.8 140.47 177.488 140.755 177.104C142.899 174.446 145.354 171.531 146.183 168.147C146.386 167.321 146.491 166.494 146.732 165.656L147.589 162.68L149.302 156.728C150.032 154.189 150.763 151.649 151.494 149.11L148.278 136.788L132.678 130.727C132.678 130.727 97.8549 131.278 98.1335 132.105C98.2748 133.847 98.2748 135.597 98.1335 137.339L99.0225 138.423Z" fill="#FFC652"/>
<path d="M94.5484 149.004C95.6696 145.284 96.9802 141.692 98.3718 138.067C98.3764 138.053 98.3864 138.041 98.3998 138.034C98.4132 138.027 98.4288 138.025 98.4435 138.029C98.4582 138.033 98.4707 138.042 98.4784 138.055C98.4862 138.068 98.4886 138.084 98.4851 138.098C97.8586 141.359 97.2564 144.583 96.3889 147.794C95.5595 150.865 94.5638 153.686 94.6111 156.886C94.7395 160.016 95.3315 163.11 96.368 166.07C97.4115 169.314 99.1866 172.576 99.8967 175.858C99.9429 176.071 99.8754 176.402 99.6615 176.348C99.5812 176.315 99.517 176.253 99.4826 176.174C97.9107 173.583 96.5531 170.871 95.4229 168.064C95.1075 167.268 94.8053 166.466 94.5268 165.656C93.9841 164.114 93.5553 162.534 93.2439 160.931C92.2001 155.96 93.5525 152.308 94.5484 149.004Z" fill="#F7A845"/>
<path d="M142.001 174.538C142.085 174.413 142.173 174.29 142.258 174.169C142.859 173.312 143.363 172.387 143.924 171.519C144.577 170.461 145.122 169.342 145.552 168.179C146.754 165.483 147.533 162.621 147.861 159.693C148.032 156.869 147.144 154.051 146.824 151.256C146.487 148.177 146.471 145.072 146.774 141.99C146.776 141.95 146.793 141.912 146.822 141.884C146.851 141.856 146.89 141.84 146.931 141.84C146.972 141.84 147.011 141.856 147.04 141.884C147.069 141.912 147.086 141.95 147.088 141.99C147.37 145.447 147.8 148.963 148.332 152.391C148.468 153.27 148.626 154.138 148.768 155.002C148.842 155.022 148.911 155.06 148.967 155.113C149.022 155.166 149.063 155.232 149.086 155.305C150.515 159.911 152.844 164.194 155.941 167.912C157.097 169.255 158.522 168.704 160.051 168.377C161.294 168.112 162.537 167.82 163.77 167.509C166.311 166.869 168.7 165.827 171.201 165.08C171.236 165.069 171.27 165.12 171.239 165.145C168.833 166.818 166.202 168.151 163.422 169.103C161.338 169.918 157.61 171.567 155.633 169.785C154.781 168.903 154.017 167.942 153.352 166.915C152.449 165.741 151.611 164.518 150.844 163.253C150.207 162.19 149.643 161.085 149.158 159.947C149.133 160.425 149.081 160.901 149.003 161.373C148.444 164.214 147.505 166.968 146.211 169.563C145.81 170.417 145.361 171.248 144.865 172.052C144.337 172.902 143.56 173.617 142.971 174.44C142.704 174.91 142.318 175.303 141.85 175.581C141.76 175.626 141.661 175.653 141.56 175.661C141.595 175.253 141.748 174.863 142.001 174.538Z" fill="#F7A845"/>
<path d="M105.823 172.702C107.058 172.888 108.268 173.514 109.505 173.786C110.749 174.061 112.026 174.252 113.288 174.435C116.181 174.842 119.103 175.027 122.025 174.987C127.742 174.955 133.425 174.107 138.897 172.469C139.032 172.427 139.129 172.64 138.995 172.699C136.33 173.951 133.546 174.94 130.684 175.651C127.674 176.335 124.608 176.746 121.523 176.878C118.504 176.985 115.481 176.809 112.495 176.352C110.242 176.021 106.606 175.511 105.27 173.414C105.019 173.02 105.432 172.644 105.823 172.702Z" fill="#F7A845"/>
<path d="M104.968 168.834C106.986 169.006 108.984 169.359 110.937 169.889C113.14 170.343 115.368 170.665 117.61 170.851C122.058 171.158 126.527 170.922 130.916 170.148C130.919 170.147 130.923 170.148 130.926 170.15C130.929 170.151 130.931 170.154 130.932 170.158C130.933 170.161 130.933 170.165 130.931 170.168C130.93 170.171 130.927 170.173 130.923 170.175C126.588 171.764 121.983 172.51 117.361 172.372C113.352 172.293 108.039 171.822 104.788 169.264C104.611 169.125 104.762 168.83 104.968 168.834Z" fill="#F7A845"/>
<path d="M115.499 106.098C115.516 106.981 115.536 107.866 115.553 108.751L115.569 109.519C115.603 111.193 115.638 112.866 115.671 114.54C120.63 119.515 129.586 117.925 133.05 115.6C132.992 114.228 133.003 112.856 133.082 111.482C133.102 111.153 133.125 110.822 133.152 110.493C133.23 109.542 133.337 108.592 133.482 107.648C132.747 107.188 132.205 106.86 132.205 106.86C132.205 106.86 129.945 106.738 127.001 106.59C123.179 106.4 118.2 106.165 115.499 106.098Z" fill="#F59D75"/>
<path d="M113.115 120.339C113.147 120.134 113.405 120.083 113.561 120.16C114.309 120.526 114.714 121.368 115.277 121.962C115.999 122.71 116.823 123.355 117.725 123.877C119.804 125.12 122.127 125.912 124.538 126.2C126.829 126.516 129.163 126.205 131.288 125.302C133.098 124.347 134.722 123.081 136.083 121.562C136.092 121.554 136.104 121.548 136.117 121.547C136.129 121.545 136.142 121.548 136.153 121.554C136.164 121.561 136.173 121.57 136.178 121.582C136.183 121.594 136.184 121.607 136.181 121.619C135.007 126.282 128.546 128.306 124.292 127.863C121.651 127.614 119.114 126.719 116.908 125.26C115.505 124.297 112.816 122.27 113.115 120.339Z" fill="#F7A845"/>
<path d="M18.8544 123.804C18.8755 123.513 18.9761 123.232 19.1454 122.993C19.3147 122.754 19.5464 122.565 19.8159 122.446C20.144 122.392 20.4805 122.46 20.7616 122.636C21.0427 122.811 21.2489 123.083 21.3413 123.398C21.5049 124.036 21.5794 124.692 21.5626 125.349C21.7818 128.119 23.9508 130.276 25.6349 132.5C27.3189 134.724 30.399 138.667 28.783 140.94L27.0233 143.87C24.0677 145.83 23.4372 145.464 20.5141 143.457C19.5928 142.824 21.5904 139.245 20.9901 136.337C20.1341 132.191 17.9784 129.743 18.8544 123.804Z" fill="#FFBF94"/>
<path d="M166.839 64.8962C166.673 74.32 164.481 83.6009 160.407 92.1215C159.208 94.8002 157.624 97.2932 155.702 99.5227C153.653 101.651 151.314 103.487 148.753 104.977C142.797 108.665 136.385 111.576 129.675 113.64C127.506 114.454 125.175 114.764 122.865 114.545C120.139 114.11 102.106 106.063 96.9982 92.8093C95.8674 89.8752 93.6891 83.3127 94.2913 80.2296C96.079 71.077 97.8676 61.92 100.106 52.8649C101.894 45.6336 104.145 38.1551 109.363 32.7899C111.619 30.6069 114.119 28.6843 116.813 27.059C119.33 25.3151 122.055 23.8853 124.925 22.8019C130.284 20.9833 136.134 21.4327 141.756 22.1234C145.779 22.6177 149.898 23.2615 153.402 25.277C156.152 26.976 158.517 29.2183 160.35 31.8633C166.165 39.7956 169.017 49.4778 168.419 59.2579L166.839 64.8962Z" fill="#FFBF94"/>
<path d="M163.242 75.7609C163.242 75.7609 158.387 72.6842 158.74 68.8627C155.913 68.9154 153.168 67.9276 151.036 66.091C148.904 64.2545 147.539 61.7002 147.204 58.9239C143.07 59.9216 138.712 59.4157 134.924 57.4985C129.076 54.2697 129.169 46.5119 129.169 46.5119C129.169 46.5119 128.628 48.6679 124.224 50.4754C119.819 52.2829 116.384 48.3779 116.384 48.3779C116.841 50.0832 116.758 51.8862 116.145 53.5432C115.533 55.2002 114.42 56.6312 112.959 57.6426C111.606 58.8 109.914 59.4994 108.131 59.6387C106.348 59.778 104.566 59.35 103.046 58.417C103.046 58.417 102.342 63.6298 98.0957 64.174C93.8489 64.7181 93.9543 50.9431 93.9543 50.9431C93.9543 50.9431 113.144 42.127 113.336 41.7868C113.528 41.4466 136.582 32.9789 136.926 33.1689C137.27 33.3589 156.226 44.9402 157.258 45.5099C158.29 46.0797 166.856 66.8736 167.504 68.1238C168.152 69.374 163.242 75.7609 163.242 75.7609Z" fill="#F49B73"/>
<path d="M157.796 73.8168C157.556 72.7069 156.989 71.6922 156.167 70.9007C154.857 69.3993 153.244 68.1867 151.43 67.3417C149.604 66.499 147.548 66.2752 145.581 66.7047C144.591 66.9446 143.497 67.6074 143.526 68.6145C143.556 68.9057 143.656 69.1855 143.819 69.4297C143.982 69.6739 144.203 69.8753 144.462 70.0165C144.982 70.2933 145.539 70.4976 146.116 70.6236C148.794 71.3763 151.308 72.613 153.531 74.2712C154.173 74.8495 154.937 75.2808 155.767 75.5341C156.185 75.6457 156.631 75.5983 157.015 75.4013C157.4 75.2042 157.696 74.8717 157.846 74.4694C158.039 73.6036 157.276 72.8445 156.586 72.2786L157.796 73.8168Z" fill="#692E12"/>
<path d="M115.829 64.7094C114.606 64.4956 113.368 64.38 112.126 64.3639C110.619 64.5386 109.177 65.0739 107.925 65.9233C107.294 66.4103 106.53 66.6983 105.731 66.75C105.469 66.7226 105.214 66.6418 104.984 66.5126C104.755 66.3833 104.554 66.2086 104.396 65.9992C104.238 65.7898 104.125 65.5503 104.065 65.2958C104.005 65.0413 103.999 64.7772 104.046 64.5201C104.316 63.7562 104.861 63.1169 105.576 62.7239C109.206 60.2661 116.339 57.7516 119.217 61.9557C119.898 62.9514 120.238 65.147 115.829 64.7094Z" fill="#692E12"/>
<path d="M130.316 92.137C129.583 91.2708 128.578 90.6716 127.461 90.4344C127.316 90.4012 127.17 90.376 127.023 90.3504C126.919 90.3329 126.813 90.3215 126.708 90.3162C126.412 90.2949 126.115 90.2948 125.819 90.316C125.244 90.3678 124.681 90.5126 124.153 90.7447C123.939 90.8034 123.711 90.7764 123.518 90.6698C123.325 90.5631 123.182 90.3852 123.121 90.175C123.066 89.9642 123.095 89.7408 123.202 89.5508C123.31 89.3608 123.487 89.2189 123.697 89.1543C125.022 88.6236 126.48 88.5108 127.873 88.8313C129.265 89.1519 130.523 89.8901 131.475 90.945C131.629 91.1 131.717 91.3075 131.722 91.5249C131.726 91.7422 131.646 91.953 131.498 92.1139C131.344 92.2704 131.133 92.3605 130.912 92.3648C130.691 92.3691 130.477 92.2873 130.316 92.137L130.316 92.137Z" fill="#DD664A"/>
<path d="M167.396 78.9964C165.022 78.0194 163.137 76.1525 162.151 73.8041C161.166 71.4557 161.161 68.8169 162.137 66.4648C160.531 67.2188 158.729 67.4668 156.975 67.1753C155.221 66.8838 153.6 66.0669 152.331 64.835C151.062 63.6031 150.205 62.0155 149.878 60.2869C149.55 58.5582 149.767 56.7718 150.499 55.169C149.021 56.2813 147.251 56.9498 145.4 57.0948C140.73 57.5198 136.096 54.9289 133.396 51.1374C130.809 47.2202 129.617 42.5623 130.006 37.9C130.161 42.3917 127.815 45.7178 124.07 46.9949C122.165 47.5572 120.148 47.6331 118.206 47.2157C116.263 46.7983 114.46 45.9011 112.963 44.608C115.722 47.3945 115.22 52.4673 112.252 55.0363C109.285 57.6053 104.548 57.629 101.242 55.5022C101.658 56.6858 101.746 57.9576 101.498 59.1862C101.251 60.4148 100.676 61.5558 99.8337 62.4915C98.1231 64.3407 96.0328 65.8072 93.7027 66.7927C91.1904 63.947 90.3738 60.0038 90.1978 56.23C89.7648 45.8775 93.3961 35.7605 100.332 27.995C102.883 25.2713 105.661 22.7636 108.635 20.4981C110.479 18.9398 112.497 17.5939 114.648 16.4866C119.056 14.3943 124.132 14.2407 129.017 14.4361C133.246 14.5274 137.452 15.0847 141.557 16.0977C147.766 17.7539 153.43 20.9387 159.016 24.0915C162.684 26.1622 166.499 28.3677 168.759 31.8971C170.567 34.7198 171.191 38.1088 172.504 41.1875C173.581 43.716 175.131 46.0502 175.948 48.6725C177.635 54.0881 176.002 59.9118 174.317 65.3282C173.153 69.0703 171.963 72.8041 170.746 76.5298C170.396 77.6029 169.663 78.9159 168.543 78.7047L167.396 78.9964Z" fill="#732C15"/>
<path d="M162.899 76.968C163.109 76.4014 163.513 75.9254 164.041 75.6231C164.569 75.3207 165.187 75.2112 165.789 75.3136C166.621 75.5298 167.351 76.027 167.851 76.7193C169.057 78.3372 169.627 80.3331 169.456 82.3358C169.278 84.3224 168.739 86.2608 167.864 88.0578C167.482 89.0042 166.946 89.8823 166.277 90.6571C165.604 91.3767 164.745 91.9011 163.792 92.174C162.84 92.4469 161.83 92.458 160.872 92.206C159.914 91.954 159.043 91.4485 158.354 90.7438C157.664 90.0392 157.182 89.162 156.959 88.2066L162.899 76.968Z" fill="#FFBF94"/>
<path d="M163.732 79.2044C163.732 79.2044 167.444 79.0228 166.207 84.8104C164.971 90.598 160.383 88.7342 160.383 88.7342C161.583 87.4652 162.501 85.9616 163.078 84.3202C163.655 82.6788 163.878 80.9361 163.732 79.2044Z" fill="#F49B73"/>
<path d="M98.6475 66.1322C98.493 65.4412 98.1969 64.7888 97.7773 64.2155C97.3578 63.6421 96.8238 63.1599 96.2084 62.7988C95.7506 62.5181 95.2326 62.3476 94.6961 62.301C93.2639 62.2161 92.0328 63.3122 91.2408 64.4955C90.2544 66.0626 89.6542 67.8371 89.4885 69.6757C89.3227 71.5144 89.5961 73.3658 90.2866 75.0808C90.5515 75.8432 90.9727 76.5434 91.5236 77.1375C92.2822 77.8337 93.2867 78.2078 94.3213 78.1794C95.3558 78.1509 96.3378 77.7223 97.0562 76.9855L98.6475 66.1322Z" fill="#FFBF94"/>
<path d="M94.8129 75.7984C94.8129 75.7984 90.451 76.446 91.5127 70.6245C92.7422 63.8833 96.7891 66.9623 96.7891 66.9623C95.4573 69.72 94.7813 72.7425 94.8129 75.7984Z" fill="#F49B73"/>
<path d="M159.061 92.8917C159.191 93.3446 159.454 93.7492 159.816 94.0545C160.179 94.3597 160.624 94.5518 161.097 94.6065C161.57 94.6612 162.048 94.5761 162.472 94.3618C162.896 94.1475 163.246 93.8138 163.478 93.4028C163.71 92.9918 163.814 92.5219 163.776 92.0527C163.738 91.5835 163.56 91.1359 163.265 90.7666C162.97 90.3973 162.57 90.1229 162.117 89.9781C161.665 89.8332 161.178 89.8244 160.72 89.9528C160.106 90.1249 159.587 90.5313 159.276 91.0824C158.964 91.6336 158.887 92.2844 159.061 92.8917Z" fill="#EECAB9"/>
<path d="M91.9716 79.4266C92.1014 79.8795 92.3641 80.2842 92.7265 80.5894C93.0888 80.8946 93.5345 81.0867 94.0073 81.1414C94.4801 81.1961 94.9586 81.111 95.3824 80.8967C95.8062 80.6824 96.1563 80.3487 96.3883 79.9377C96.6203 79.5267 96.7239 79.0568 96.6859 78.5876C96.6479 78.1184 96.4701 77.6708 96.1749 77.3015C95.8798 76.9323 95.4805 76.6578 95.0276 76.513C94.5747 76.3681 94.0886 76.3593 93.6306 76.4877C93.3266 76.5729 93.0425 76.7166 92.7945 76.9104C92.5466 77.1042 92.3397 77.3444 92.1856 77.6174C92.0316 77.8903 91.9334 78.1905 91.8967 78.5009C91.8599 78.8114 91.8854 79.1259 91.9716 79.4266Z" fill="#EECAB9"/>
<path d="M160.254 91.8591C160.321 92.093 160.456 92.302 160.644 92.4596C160.831 92.6173 161.061 92.7165 161.305 92.7447C161.549 92.773 161.796 92.729 162.015 92.6184C162.234 92.5077 162.415 92.3353 162.535 92.1231C162.655 91.9108 162.708 91.6681 162.688 91.4258C162.669 91.1835 162.577 90.9523 162.425 90.7616C162.272 90.5709 162.066 90.4292 161.832 90.3543C161.598 90.2795 161.347 90.275 161.11 90.3413C160.953 90.3853 160.807 90.4595 160.679 90.5596C160.551 90.6597 160.444 90.7837 160.364 90.9247C160.285 91.0656 160.234 91.2207 160.215 91.381C160.196 91.5413 160.209 91.7038 160.254 91.8591Z" fill="white"/>
<path d="M92.9685 78.6906C93.0355 78.9245 93.1712 79.1335 93.3583 79.2911C93.5455 79.4488 93.7757 79.548 94.0198 79.5763C94.264 79.6045 94.5111 79.5605 94.73 79.4499C94.9489 79.3392 95.1297 79.1668 95.2495 78.9545C95.3693 78.7423 95.4228 78.4996 95.4032 78.2573C95.3836 78.015 95.2917 77.7838 95.1393 77.5931C94.9868 77.4024 94.7806 77.2607 94.5467 77.1859C94.3128 77.1111 94.0618 77.1065 93.8253 77.1728C93.5081 77.2617 93.2397 77.4716 93.079 77.7563C92.9184 78.0409 92.8786 78.377 92.9685 78.6906Z" fill="white"/>
<path d="M73.4974 69.7535C75.5377 68.2544 77.0198 66.1304 77.7132 63.712C79.1671 58.3589 76.304 52.7041 76.9886 47.203C78.1797 37.6195 88.953 32.5547 94.3914 24.5353C97.6518 19.7267 99.7099 13.1276 105.339 11.541C110.355 10.1291 115.25 13.6018 120.066 15.5735C125.391 17.7371 131.283 18.1278 136.852 16.6865C141.838 15.3832 146.781 12.6031 151.826 13.6572C157.208 14.7858 160.711 19.9148 162.867 24.9229C165.023 29.9284 166.551 35.4307 170.399 39.3202C176.592 45.5821 186.83 45.7905 194.047 50.8662C196.948 52.9326 199.246 55.7185 200.711 58.9433C200.171 54.207 197.991 49.8012 194.542 46.472C189.835 41.9612 183.052 39.5214 179.625 33.999C175.146 26.7783 180.406 17.9041 176.307 10.3707C173.406 5.03858 167.208 2.2746 161.188 1.1644C155.037 0.0378174 148.713 0.244725 142.651 1.77084C136.667 3.2822 130.702 5.0891 124.487 3.84184C118.517 2.64322 112.841 -0.530684 106.59 0.0763954C99.7355 0.740858 94.1982 5.90995 90.1958 11.4535C86.4847 16.5889 83.5241 22.2212 79.1722 26.889C75.0689 31.2925 70.7813 35.7704 68.3146 41.3273C66.3171 46.0556 65.7436 51.254 66.6631 56.297C67.5826 61.3401 69.9558 66.0129 73.4974 69.7535Z" fill="#7F391F"/>
<path d="M138.536 20.5375C140.872 19.1469 143.634 18.6258 146.324 19.0676C149.092 19.5167 151.656 20.7929 153.669 22.7249C158.167 26.9591 159.704 33.026 162.426 38.3374C163.663 41.0078 165.536 43.3422 167.884 45.1411C170.189 46.6991 172.767 47.8181 175.487 48.4407C178.508 49.1974 181.535 49.5829 184.264 51.1867C186.676 52.5941 188.705 54.5615 190.175 56.9188C192.018 59.9128 191.666 62.9867 189.808 65.8934C188.184 68.4334 185.78 70.3832 182.694 70.6123C182.572 70.6105 182.452 70.5737 182.35 70.5063C182.249 70.4388 182.169 70.3437 182.12 70.2324C182.072 70.121 182.057 69.9982 182.077 69.8787C182.098 69.7592 182.153 69.6481 182.236 69.5589C184.139 68.1236 185.777 66.3731 187.076 64.3852C187.743 63.367 188.115 62.1874 188.151 60.9747C187.9 59.6845 187.246 58.5048 186.282 57.6016C184.732 55.8392 182.738 54.5144 180.502 53.7618C177.913 52.9158 175.161 52.7322 172.552 51.9484C167.518 50.4982 163.21 47.2464 160.467 42.8266C157.634 38.1732 156.49 32.7269 153.597 28.1069C152.196 25.7235 150.098 23.8164 147.578 22.6375C144.887 21.5308 141.93 21.2171 139.063 21.7344C138.367 21.8707 137.839 20.9212 138.536 20.5375Z" fill="#7F391F"/>
<path d="M84.8684 55.1013C85.7948 53.3096 86.3198 51.3414 86.4077 49.3309C86.3837 47.3958 86.038 45.4793 86.1024 43.5401C86.094 41.5975 86.6731 39.6967 87.7652 38.082C89.1111 36.2177 91.1149 35.2197 92.9364 33.8983C96.3632 31.4121 97.83 26.8665 100.402 23.6303C103.237 20.0633 107.258 18.0551 111.857 19.1723C114.245 19.8932 116.55 20.8593 118.735 22.0548C119.888 22.6358 121.11 23.0727 122.372 23.3555C123.618 23.6052 124.876 23.4904 126.116 23.6846C126.145 23.6893 126.149 23.7263 126.133 23.7454C124.978 25.1229 122.791 25.1062 121.151 24.9128C118.985 24.5778 116.867 23.9851 114.845 23.1476C112.89 22.422 110.706 21.6571 108.588 22.0135C106.489 22.5231 104.677 23.8312 103.547 25.6538C101.011 29.1936 99.8425 33.5589 96.4856 36.5352C94.8991 37.9419 92.7932 38.6845 91.2728 40.1217C90.1057 41.4671 89.4287 43.1609 89.35 44.9319C88.9049 48.3683 89.5296 54.3243 85.5679 55.9765C85.0205 56.2048 84.6915 55.5174 84.8684 55.1013Z" fill="#7F391F"/>
<path d="M109.091 39.9387C109.359 35.5186 113.418 32.5231 117.442 31.3149C119.807 30.6048 122.15 30.8269 124.58 30.8946C125.924 30.9823 127.272 30.852 128.573 30.509C129.795 30.1375 130.896 29.5668 132.07 29.0918C132.152 29.0582 132.203 29.1607 132.176 29.2244C130.153 33.9274 124.208 32.7086 120.21 33.2974C115.696 33.9625 112.871 37.142 109.919 40.2649C109.852 40.3309 109.767 40.376 109.674 40.3946C109.581 40.4133 109.485 40.4048 109.397 40.3702C109.309 40.3356 109.233 40.2763 109.179 40.1996C109.125 40.123 109.094 40.0323 109.091 39.9387Z" fill="#7F391F"/>
<path d="M135.581 41.904C135.733 39.9661 136.183 38.0624 136.914 36.2581C137.656 34.3444 139.056 32.1202 138.573 29.9931C138.558 29.9316 138.563 29.8668 138.587 29.8082C138.611 29.7496 138.654 29.7004 138.709 29.6677C138.764 29.6351 138.828 29.6208 138.892 29.627C138.956 29.6332 139.016 29.6596 139.063 29.7022C141.284 31.784 139.735 34.8392 139.139 37.3174C138.466 40.1152 138.239 43.2546 139.803 45.8142C141.315 48.2882 144.132 48.7294 146.857 48.6197C148.286 48.6303 149.677 48.1634 150.805 47.2947C151.563 46.464 152.083 45.4479 152.311 44.3517C152.358 44.1837 152.448 44.0306 152.573 43.907C152.697 43.7835 152.852 43.6936 153.022 43.646C153.191 43.5984 153.37 43.5948 153.542 43.6353C153.714 43.6759 153.872 43.7594 154.001 43.8777C156.813 46.4496 153.918 50.7176 151.235 51.9871C149.379 52.7466 147.367 53.0585 145.364 52.8973C143.362 52.7361 141.428 52.1062 139.72 51.0598C138.299 50.008 137.174 48.6151 136.449 47.0129C135.725 45.4107 135.426 43.6523 135.581 41.904Z" fill="#7F391F"/>
<path d="M155.078 58.4022C154.958 57.0994 155.218 55.7899 155.828 54.6292C156.413 53.5025 157.358 52.5981 158.516 52.0563C158.545 52.0405 158.59 52.0736 158.567 52.1054C156.72 54.6324 156.159 58.5398 158.626 60.8715C159.161 61.3974 159.831 61.7684 160.564 61.9443C161.297 62.1202 162.064 62.0943 162.784 61.8694C163.356 61.6773 164.287 61.1669 164.424 60.5134C164.59 59.7247 163.74 59.1319 163.13 58.8083C163.03 58.7513 162.946 58.6694 162.887 58.5706C162.828 58.4719 162.795 58.3597 162.793 58.245C162.791 58.1303 162.819 58.0171 162.875 57.9163C162.93 57.8155 163.011 57.7306 163.109 57.67C165.588 56.5094 167.734 59.1755 167.011 61.5497C166.156 64.3543 162.403 65.2049 159.87 64.4504C158.55 64.0346 157.387 63.2353 156.532 62.1565C155.677 61.0778 155.17 59.7696 155.078 58.4022Z" fill="#7F391F"/>
<path d="M167.84 71.4423C167.75 70.0656 168.002 68.6881 168.575 67.4301C169.147 66.172 170.022 65.0716 171.123 64.225C171.212 64.1516 171.374 64.2404 171.3 64.3546C170.432 65.7468 169.947 67.3394 169.893 68.9743C169.839 70.6092 170.218 72.2297 170.993 73.6749C171.815 75.0778 173.06 76.1918 174.554 76.8614C176.049 77.5331 177.746 77.6593 179.162 78.5285C181.627 80.0412 182.435 83.3036 182.507 85.99C182.578 88.6451 181.839 91.3787 179.383 92.7812C178.876 93.0703 178.244 92.3695 178.717 91.9598C181.056 89.9355 180.822 86.231 179.858 83.5774C179.617 82.7958 179.188 82.0838 178.607 81.5027C178.026 80.9216 177.311 80.4886 176.523 80.2411C175.006 79.884 173.549 79.3125 172.196 78.5443C170.984 77.7528 169.965 76.7053 169.212 75.4772C168.458 74.2491 167.99 72.871 167.84 71.4423Z" fill="#7F391F"/>
<path d="M100.016 44.2378C100.165 44.2769 100.302 44.3538 100.412 44.4608C100.522 44.5678 100.602 44.7013 100.644 44.8481C100.686 44.995 100.689 45.1501 100.652 45.2983C100.615 45.4465 100.54 45.5827 100.434 45.6934C98.8125 47.0028 99.8438 48.8015 101.645 49.2221C102.541 49.3744 103.463 49.2326 104.27 48.8183C105.077 48.4041 105.725 47.7401 106.115 46.9277C106.95 45.2253 104.934 43.4191 104.717 41.6909C104.54 40.1918 104.947 38.6822 105.856 37.4699C105.866 37.4573 105.881 37.4714 105.88 37.4829C105.632 39.182 105.957 40.9146 106.805 42.4126C107.509 43.6384 108.534 44.6948 108.566 46.1876C108.622 48.742 106.118 51.1083 103.799 51.78C102.628 52.1387 101.366 52.0629 100.248 51.5667C99.1299 51.0705 98.2334 50.1881 97.7265 49.0849C96.9032 47.1248 97.2188 43.8941 100.016 44.2378Z" fill="#7F391F"/>
<path d="M79.5467 70.9757C79.3581 68.883 79.9952 66.7992 81.3245 65.1604C82.8597 63.3328 84.8402 61.9219 87.0793 61.0609C89.5003 60.0149 91.7938 59.2896 93.004 56.7641C93.02 56.7364 93.043 56.7133 93.0707 56.697C93.0984 56.6807 93.13 56.6719 93.1622 56.6713C93.1945 56.6707 93.2263 56.6784 93.2546 56.6937C93.283 56.709 93.3068 56.7313 93.3237 56.7584C95.1514 60.836 88.4137 62.576 86.0333 64.0255C85.0193 64.5573 84.1316 65.2969 83.4296 66.1949C82.7275 67.0929 82.2271 68.1287 81.9619 69.2331C81.5818 71.5228 83.079 73.9807 84.4536 75.7077C84.9563 76.3393 83.9666 76.9424 83.4225 76.5243C82.4196 75.8665 81.5314 75.0521 80.7922 74.113C80.1196 73.186 79.6915 72.1077 79.5467 70.9757Z" fill="#7F391F"/>
<path d="M69.1503 90.1848C69.5172 88.2379 70.0851 86.3332 70.8449 84.5008C71.2659 83.4915 71.7102 82.4883 72.1917 81.5057C72.69 80.489 73.3517 79.6576 73.9313 78.713C73.9472 78.6868 73.972 78.667 74.0014 78.6572C74.0307 78.6475 74.0625 78.6484 74.0912 78.6597C74.1199 78.6711 74.1436 78.6922 74.158 78.7193C74.1724 78.7464 74.1765 78.7776 74.1697 78.8074C74.0273 79.5924 74.0493 80.3594 73.8597 81.1592C73.6412 82.0799 73.3998 82.9952 73.1811 83.9159C72.7631 85.6756 72.3321 87.4459 72.0413 89.2312C71.3315 92.9661 71.5621 96.8163 72.7129 100.442C75.0192 107.214 80.6862 111.492 87.6096 113.001C87.8981 113.084 88.1474 113.266 88.3128 113.514C88.4782 113.762 88.5489 114.06 88.5121 114.355C88.4753 114.649 88.3335 114.922 88.1121 115.123C87.8907 115.323 87.6042 115.44 87.304 115.45C79.3927 115.463 72.7682 109.479 70.1028 102.414C68.6808 98.496 68.3518 94.2718 69.1503 90.1848Z" fill="#7F391F"/>
<path d="M117.205 93.7095C117.205 93.7095 117.12 94.4074 117.108 95.4821C117.039 97.8048 117.44 100.118 118.287 102.285C118.727 103.452 119.471 104.483 120.445 105.272C121.419 106.061 122.588 106.581 123.831 106.777C125.139 106.971 126.476 106.814 127.702 106.323C128.928 105.832 129.999 105.025 130.802 103.986C132.305 102.167 133.462 100.094 134.219 97.867C134.615 96.7604 134.795 96.0098 134.795 96.0098C128.84 97.3044 122.615 96.4903 117.205 93.7095Z" fill="#9F2236"/>
<path d="M117.205 93.7095C117.205 93.7095 117.12 94.4074 117.108 95.4821C119.086 97.4398 121.551 98.8471 124.254 99.5623C128.38 100.608 132.449 98.821 134.219 97.867C134.615 96.7604 134.795 96.0098 134.795 96.0098C128.84 97.3044 122.615 96.4903 117.205 93.7095Z" fill="white"/>
<path d="M118.287 102.285C118.726 103.452 119.471 104.483 120.445 105.272C121.419 106.061 122.588 106.581 123.831 106.777C125.139 106.971 126.476 106.814 127.702 106.323C128.928 105.832 129.998 105.025 130.801 103.985C129.861 103.398 128.803 103.021 127.7 102.881C126.597 102.741 125.477 102.841 124.417 103.175C124.417 103.175 122.203 101.327 118.287 102.285Z" fill="#FF6551"/>
<path d="M114.078 83.5816C117.434 82.1007 118.941 78.209 117.444 74.8895C115.946 71.5699 112.011 70.0794 108.655 71.5604C105.298 73.0414 103.791 76.933 105.289 80.2526C106.786 83.5722 110.721 85.0626 114.078 83.5816Z" fill="white"/>
<path d="M115.83 81.3468C117.492 78.9327 116.86 75.6437 114.419 74.0007C111.978 72.3577 108.652 72.9827 106.991 75.3968C105.329 77.8109 105.961 81.0999 108.402 82.7429C110.843 84.3859 114.169 83.7609 115.83 81.3468Z" fill="black"/>
<path d="M114.476 78.5592C114.635 78.8649 114.698 79.2104 114.659 79.5519C114.619 79.8934 114.478 80.2157 114.254 80.478C114.029 80.7403 113.731 80.9307 113.396 81.0253C113.062 81.1199 112.707 81.1144 112.376 81.0094C112.045 80.9045 111.753 80.7048 111.537 80.4357C111.321 80.1665 111.19 79.84 111.161 79.4974C111.133 79.1548 111.207 78.8115 111.376 78.511C111.545 78.2104 111.8 77.966 112.109 77.8087C112.314 77.7043 112.538 77.6409 112.768 77.6221C112.998 77.6033 113.23 77.6295 113.449 77.6992C113.669 77.7689 113.873 77.8807 114.049 78.0283C114.225 78.1758 114.37 78.3563 114.476 78.5592Z" fill="white"/>
<path d="M151.988 84.6317C152.289 81.0089 149.564 77.8306 145.901 77.5326C142.238 77.2346 139.024 79.9298 138.722 83.5525C138.421 87.1753 141.146 90.3536 144.809 90.6516C148.473 90.9496 151.686 88.2544 151.988 84.6317Z" fill="white"/>
<path d="M146.974 89.6106C149.736 88.5784 151.129 85.5272 150.086 82.7955C149.042 80.0639 145.957 78.6862 143.195 79.7184C140.433 80.7506 139.039 83.8018 140.083 86.5335C141.127 89.2651 144.212 90.6428 146.974 89.6106Z" fill="black"/>
<path d="M141.064 84.8821C141.08 85.1945 141.19 85.4951 141.379 85.7458C141.568 85.9966 141.828 86.1863 142.126 86.291C142.424 86.3957 142.746 86.4106 143.053 86.3338C143.36 86.2571 143.636 86.0921 143.848 85.8598C144.06 85.6276 144.197 85.3384 144.243 85.0289C144.289 84.7193 144.241 84.4034 144.105 84.1209C143.969 83.8385 143.751 83.6023 143.479 83.4421C143.208 83.282 142.894 83.2051 142.578 83.2212C142.155 83.2428 141.757 83.43 141.473 83.7414C141.189 84.0529 141.042 84.4632 141.064 84.8821Z" fill="white"/>
<path d="M34.5938 182.183L34.858 186.54H230.056L230.116 182.183H34.5938Z" fill="#864FF1"/>
<path d="M228.53 185.745C229.05 185.742 229.568 185.67 230.069 185.532L230.115 182.183H34.5938L34.81 185.745L228.53 185.745Z" fill="#864FF1"/>
<path d="M205.549 129.578V182.17H197.669L197.519 177.089L197.38 172.473L197.264 168.569L197.133 164.171L197.131 164.168L196.094 129.578H205.549Z" fill="#FF6551"/>
<path d="M217.626 125.115L215.444 172.473L215.331 174.938L215.231 177.089L215 182.17H205.548V125.115H217.626Z" fill="#864FF1"/>
<path d="M208.367 177.089H197.518L197.379 172.474H208.064C208.172 174.119 208.273 175.668 208.367 177.089Z" fill="#F7A845"/>
<path d="M218.323 177.089H205.548V172.474H218.019C218.127 174.119 218.228 175.668 218.323 177.089Z" fill="#2435A1"/>
<path d="M199.026 164.869V132.213C199.026 131.819 199.185 131.441 199.467 131.162C199.749 130.883 200.131 130.726 200.53 130.726H202.252C202.651 130.726 203.033 130.883 203.315 131.162C203.597 131.441 203.755 131.819 203.755 132.213V164.869C203.755 165.263 203.597 165.642 203.315 165.92C203.033 166.199 202.651 166.356 202.252 166.356H200.53C200.131 166.356 199.749 166.199 199.467 165.92C199.185 165.642 199.026 165.263 199.026 164.869Z" fill="#FF8D7E"/>
<path d="M207.685 128.33V168.978C207.685 169.977 208.504 170.787 209.515 170.787H211.495C212.506 170.787 213.325 169.977 213.325 168.978V128.33C213.325 127.33 212.506 126.52 211.495 126.52H209.515C208.504 126.52 207.685 127.33 207.685 128.33Z" fill="#A880F5"/>
<g style="mix-blend-mode:multiply" opacity="0.25">
<path d="M215.232 169.605V168.233C215.232 168.233 215.259 168.777 215.232 169.605Z" fill="#471E44"/>
</g>
<path d="M230.055 182.167V182.17H215L215.069 177.106L215.099 174.904L215.134 172.456L215.793 125.115L215.891 118.094H230.768L229.961 172.144L229.964 172.456L230.009 177.106L230.055 182.167Z" fill="#2435A1"/>
<path d="M230.009 177.106H215.07L215.135 172.457H229.965L230.009 177.106Z" fill="#F7A845"/>
<path d="M219.091 168.655V122.664C219.091 122.098 219.318 121.556 219.723 121.156C220.127 120.756 220.675 120.532 221.247 120.532H223.831C224.402 120.532 224.951 120.756 225.355 121.156C225.759 121.556 225.987 122.098 225.987 122.664V168.655C225.987 168.935 225.931 169.213 225.822 169.471C225.714 169.73 225.555 169.965 225.355 170.163C225.155 170.361 224.917 170.518 224.656 170.625C224.394 170.732 224.114 170.787 223.831 170.787H221.247C220.675 170.787 220.127 170.563 219.723 170.163C219.318 169.763 219.091 169.221 219.091 168.655Z" fill="#525FB5"/>
<g style="mix-blend-mode:multiply" opacity="0.23">
<path d="M204.718 129.578V182.197L205.548 182.17V129.578H204.718Z" fill="#471E44"/>
</g>
<path d="M214.516 125.115V182.167L215 182.17L215.793 125.115H214.516Z" fill="#243976"/>
<path d="M170.066 176.699L169.638 177.94L168.791 180.403L120.059 181.547L71.3264 180.403L70.0518 176.699C77.6563 176.577 85.2222 175.601 92.6039 173.79C103.717 170.881 115.156 170.557 120.059 175.406C124.961 170.557 136.401 170.881 147.514 173.79C154.895 175.601 162.461 176.577 170.066 176.699Z" fill="#FFEBDD"/>
<path d="M169.412 182.194H70.7051V179.931H72.1296H169.412V182.194Z" fill="#FF6551"/>
<path d="M170.065 176.699L169.637 177.94C163.326 178.215 152.742 177.022 141.303 174.113C129.863 171.204 120.385 176.699 120.058 176.699V175.406C124.961 170.557 136.4 170.881 147.513 173.79C154.895 175.601 162.461 176.577 170.065 176.699Z" fill="#F5C6B1"/>
<path d="M70.0518 176.699L70.4799 177.94C76.7913 178.215 87.3745 177.022 98.8139 174.113C110.253 171.204 119.732 176.699 120.059 176.699V175.406C115.156 170.557 103.717 170.881 92.6039 173.79C85.2222 175.601 77.6563 176.577 70.0518 176.699Z" fill="#F5C6B1"/>
<g style="mix-blend-mode:multiply" opacity="0.15">
<path d="M236.937 116.525L235.816 192.307H98.5884C143.043 179.463 200.155 156.312 236.937 116.525Z" fill="#29ABE2"/>
</g>
</g>
<defs>
<filter id="filter0_d_3521_2767" x="0" y="0" width="259" height="235" filterUnits="userSpaceOnUse" color-interpolation-filters="sRGB">
<feFlood flood-opacity="0" result="BackgroundImageFix"/>
<feColorMatrix in="SourceAlpha" type="matrix" values="0 0 0 0 0 0 0 0 0 0 0 0 0 0 0 0 0 0 127 0" result="hardAlpha"/>
<feOffset dy="4"/>
<feGaussianBlur stdDeviation="2"/>
<feComposite in2="hardAlpha" operator="out"/>
<feColorMatrix type="matrix" values="0 0 0 0 0 0 0 0 0 0 0 0 0 0 0 0 0 0 0.25 0"/>
<feBlend mode="normal" in2="BackgroundImageFix" result="effect1_dropShadow_3521_2767"/>
<feBlend mode="normal" in="SourceGraphic" in2="effect1_dropShadow_3521_2767" result="shape"/>
</filter>
</defs>
</svg>
