<svg width="275" height="225" viewBox="0 0 275 225" fill="none" xmlns="http://www.w3.org/2000/svg">
<g filter="url(#filter0_d_3521_2770)">
<path d="M229.281 197.705C217.161 204.865 201.491 201.81 187.269 203.373C175.25 204.694 164.014 209.427 152.509 212.95C141.004 216.472 128.398 218.785 116.912 215.208C109.023 212.751 102.368 207.727 94.9434 204.218C85.9836 199.984 76.0266 198.009 66.6764 194.599C57.3262 191.188 48.095 185.844 43.754 177.354C38.534 167.144 41.5341 155.015 39.5611 143.842C37.3343 131.232 28.8662 120.344 25.322 108.003C22.8179 99.2844 25.416 88.9957 28.442 80.5354C31.6395 71.5956 40.528 61.5518 49.093 56.3498C51.8873 54.6527 54.6471 52.9525 57.2863 51.0326C58.4426 50.1913 64.5276 46.5115 64.5276 45.1793C71.3597 38.9963 75.4606 31.1116 81.3974 24.2644C87.5574 17.1599 96.5738 12.5568 106.03 10.2993C114.593 8.22717 123.353 7.08147 132.16 6.88183C141.618 6.73438 150.791 7.5614 159.917 4.50722C161.833 3.866 163.692 3.08125 165.603 2.42396C178.505 -2.01317 195.784 -0.0698025 207.846 5.90422C212.449 8.18378 216.3 11.578 220.011 15.0027C224.616 19.0604 228.64 23.7344 231.971 28.8928C235.019 33.8688 235.984 39.808 239.867 44.4786C242.475 47.6151 245.04 51.0606 247.625 54.0858C251.619 58.7605 257.771 61.007 261.569 66.101C265.392 71.2285 267.21 77.4893 268.469 83.5572C270.08 91.326 270.983 99.2904 270.12 107.164C268.738 119.761 261.686 129.126 254.477 139.377C252.076 142.792 249.662 146.327 248.74 150.326C248.371 152.244 248.144 154.187 248.062 156.138C247.618 161.824 246.094 167.062 244.946 172.572C242.93 182.249 238.519 192.248 229.281 197.705Z" fill="#EFF2FD"/>
<path d="M164.253 168.906C117.094 170.391 69.9347 171.875 22.7755 173.36C15.1348 173.6 8.72737 167.141 8.51834 158.933C7.57034 117.511 7.53739 76.0984 8.41948 34.6952C8.61553 26.4863 15.0126 20.0175 22.6536 20.2459C69.8151 21.6549 116.977 23.064 164.138 24.473C167.81 24.5892 171.286 26.1554 173.808 28.8298C176.331 31.5042 177.695 35.0694 177.602 38.7472C176.788 77.3792 176.819 116 177.694 154.611C177.793 158.288 176.435 161.856 173.917 164.534C171.398 167.213 167.924 168.784 164.253 168.906Z" fill="#243976"/>
<path d="M160.41 165.261C113.248 166.67 66.0867 168.079 18.9252 169.488C11.2841 169.716 4.88667 163.238 4.69044 155.017C3.80705 113.532 3.84005 72.0577 4.78944 30.5944C4.99878 22.3736 11.4064 15.9051 19.0472 16.1457C66.2064 17.63 113.366 19.1143 160.525 20.5986C164.199 20.7237 167.674 22.2995 170.192 24.9821C172.711 27.6646 174.067 31.236 173.965 34.9165C173.088 73.6087 173.058 112.291 173.873 150.964C173.969 154.645 172.607 158.214 170.084 160.893C167.562 163.571 164.084 165.142 160.41 165.261Z" fill="#864FF1"/>
<path d="M80.5501 18.0814L19.0469 16.1457C11.4061 15.9051 4.99848 22.3736 4.78915 30.5944C4.38529 48.0023 4.12224 65.4104 4 82.8187C8.72804 43.8411 42.6594 18.4663 80.5501 18.0814Z" fill="#9768F3"/>
<path d="M160.524 20.5986C147.864 20.2002 135.204 19.8017 122.544 19.4032C134.559 24.413 145.046 32.5039 152.948 42.8618C178.098 76.1993 138.578 113.871 109.663 126.265C77.0041 140.264 35.5494 142.55 4.13477 123.542C4.24747 134.034 4.43247 144.525 4.68975 155.017C4.88598 163.238 11.2834 169.716 18.9245 169.488C66.086 168.079 113.248 166.67 160.409 165.261C164.083 165.141 167.561 163.571 170.084 160.893C172.606 158.214 173.968 154.645 173.872 150.964C173.057 112.271 173.088 73.5883 173.964 34.9165C174.066 31.236 172.71 27.6646 170.192 24.9821C167.674 22.2996 164.198 20.7237 160.524 20.5986Z" fill="#602A9F"/>
<path d="M157.867 160.925C112.313 162.201 66.7592 163.477 21.2055 164.753C14.9499 164.928 9.72382 159.626 9.56878 152.909C8.87979 119.389 8.77559 85.8726 9.25618 52.3606C62.3741 53.2593 115.492 54.158 168.61 55.0566C168.16 86.4511 168.258 117.839 168.903 149.219C168.982 152.235 167.865 155.159 165.797 157.353C163.729 159.547 160.878 160.831 157.867 160.925Z" fill="white"/>
<path d="M122.298 47.3331C101.825 46.9275 81.3519 46.5218 60.8789 46.1161C60.0799 46.0799 59.296 45.8862 58.5718 45.5462C57.8476 45.2062 57.1975 44.7265 56.6586 44.1347C56.1197 43.5428 55.7026 42.8504 55.4311 42.0969C55.1596 41.3434 55.0391 40.5438 55.0765 39.7436C55.0748 38.9426 55.2308 38.1491 55.5356 37.4085C55.8404 36.668 56.2879 35.9948 56.8527 35.4276C57.4174 34.8604 58.0883 34.4103 58.8269 34.103C59.5655 33.7957 60.3573 33.6373 61.1571 33.6367C81.6277 34.1463 102.098 34.6559 122.569 35.1655C124.159 35.2231 125.662 35.9098 126.747 37.0751C127.832 38.2403 128.412 39.7891 128.359 41.3818C128.341 42.9753 127.693 44.4966 126.557 45.6122C125.42 46.7278 123.889 47.3467 122.298 47.3331Z" fill="white"/>
<path d="M168.209 36.3016C168.187 37.037 167.947 37.7492 167.521 38.3483C167.095 38.9474 166.501 39.4067 165.814 39.6681C165.127 39.9295 164.379 39.9814 163.663 39.8172C162.947 39.6529 162.295 39.2799 161.791 38.7453C161.286 38.2107 160.951 37.5383 160.828 36.8131C160.704 36.0879 160.798 35.3423 161.097 34.6704C161.397 33.9986 161.888 33.4305 162.509 33.038C163.13 32.6455 163.854 32.4461 164.588 32.465C165.576 32.4937 166.512 32.9138 167.191 33.6331C167.87 34.3525 168.236 35.3122 168.209 36.3016Z" fill="white"/>
<path d="M155.738 35.9913C155.711 36.7257 155.469 37.4359 155.04 38.0324C154.612 38.629 154.016 39.0852 153.329 39.3436C152.643 39.602 151.895 39.6511 151.18 39.4847C150.465 39.3183 149.816 38.9438 149.313 38.4084C148.81 37.873 148.477 37.2006 148.355 36.4759C148.233 35.7512 148.328 35.0066 148.628 34.3358C148.928 33.6651 149.419 33.0982 150.04 32.7065C150.661 32.3148 151.384 32.1159 152.117 32.1348C153.108 32.1662 154.045 32.5899 154.724 33.313C155.403 34.036 155.767 34.9993 155.738 35.9913Z" fill="white"/>
<path d="M142.88 35.6711C142.85 36.4045 142.604 37.1127 142.173 37.7065C141.742 38.3003 141.146 38.7534 140.459 39.0087C139.771 39.264 139.024 39.3103 138.311 39.1416C137.598 38.973 136.95 38.5969 136.449 38.0608C135.949 37.5246 135.617 36.8522 135.497 36.1281C135.377 35.404 135.473 34.6604 135.773 33.9908C136.074 33.3212 136.565 32.7555 137.186 32.3647C137.806 31.9738 138.528 31.7754 139.261 31.7942C140.254 31.8284 141.192 32.2559 141.871 32.9827C142.55 33.7096 142.913 34.6765 142.88 35.6711Z" fill="white"/>
<path d="M147.786 137.859L33.9145 139.926C33.5026 113.435 33.4453 86.9486 33.7427 60.4678C71.7026 60.9925 109.662 61.5171 147.622 62.0418C147.339 87.3207 147.393 112.593 147.786 137.859Z" fill="#FF6551"/>
<path d="M145.952 152.086C109.422 152.968 72.8918 153.85 36.3619 154.732C35.7783 154.728 35.2201 154.492 34.8099 154.077C34.3997 153.661 34.1711 153.099 34.1744 152.515C34.1441 151.931 34.3464 151.359 34.7369 150.925C35.1274 150.49 35.6741 150.229 36.2569 150.198C72.7884 149.383 109.32 148.568 145.851 147.752C146.421 147.744 146.971 147.962 147.38 148.358C147.79 148.755 148.025 149.299 148.034 149.87C148.051 150.44 147.842 150.994 147.451 151.409C147.06 151.825 146.521 152.068 145.952 152.086Z" fill="#BFBFBF"/>
<path d="M36.257 150.198C35.6803 150.245 35.1435 150.511 34.7563 150.942C34.3692 151.373 34.161 151.935 34.1744 152.515C34.1879 153.094 34.4218 153.646 34.8285 154.058C35.2352 154.47 35.7837 154.711 36.3619 154.732C50.3551 154.394 64.3483 154.056 78.3415 153.718C78.2985 151.935 78.2779 151.044 78.2383 149.261L36.257 150.198Z" fill="#2435A1"/>
<path d="M90.3755 122.87C84.7456 122.844 79.3555 120.584 75.3868 116.585C73.1992 114.438 71.46 111.877 70.2704 109.051C69.0809 106.225 68.4648 103.19 68.4581 100.123C68.4514 97.0555 69.0541 94.0177 70.2313 91.1863C71.4085 88.3548 73.1365 85.7862 75.3147 83.6303C77.2821 81.6299 79.625 80.039 82.2086 78.9489C84.7923 77.8588 87.5656 77.2911 90.3691 77.2786C90.4178 77.2786 90.4661 77.2786 90.5148 77.2796C102.382 77.3625 112.43 87.7805 112.457 100.027C112.483 112.274 102.48 122.733 90.6133 122.868C90.5344 122.869 90.4544 122.87 90.3755 122.87ZM90.3696 80.2396C87.9533 80.2534 85.5634 80.7454 83.3376 81.6876C81.1118 82.6297 79.094 84.0033 77.4002 85.7293C75.4988 87.6093 73.9903 89.8498 72.9626 92.3199C71.935 94.79 71.4087 97.4404 71.4146 100.116C71.4204 102.792 71.9583 105.44 72.9967 107.906C74.0352 110.372 75.5535 112.605 77.4631 114.477C80.88 117.928 85.5238 119.881 90.3764 119.909C90.4442 119.909 90.5119 119.908 90.5797 119.908C100.859 119.791 109.523 110.689 109.5 100.033C109.477 89.3767 100.773 80.3129 90.4944 80.2396H90.3696Z" fill="white"/>
<path d="M85.9365 92.4834C85.9302 99.0883 85.9383 102.391 85.9766 108.996C91.8024 105.976 94.7177 104.475 100.553 101.491C94.6996 97.91 91.7763 96.1083 85.9365 92.4834Z" fill="white"/>
<path d="M84.0432 151.356C84.0247 152.371 83.7085 153.359 83.1341 154.196C82.5597 155.032 81.7523 155.682 80.8124 156.063C79.8725 156.444 78.8415 156.539 77.8477 156.338C76.8539 156.137 75.941 155.647 75.2227 154.931C74.5044 154.214 74.0123 153.301 73.8076 152.307C73.603 151.312 73.6947 150.279 74.0715 149.337C74.4483 148.394 75.0935 147.583 75.9268 147.004C76.7602 146.426 77.745 146.106 78.7586 146.083C80.1569 146.083 81.4983 146.637 82.4889 147.626C83.4794 148.614 84.0384 149.956 84.0432 151.356Z" fill="#FF6551"/>
<path d="M81.4089 151.417C81.3998 151.915 81.2449 152.399 80.9635 152.809C80.6821 153.219 80.2866 153.537 79.8261 153.723C79.3657 153.91 78.8606 153.957 78.3736 153.859C77.8867 153.76 77.4394 153.52 77.0874 153.169C76.7354 152.818 76.4941 152.371 76.3937 151.884C76.2932 151.397 76.3379 150.891 76.5223 150.429C76.7067 149.967 77.0226 149.569 77.4308 149.286C77.8389 149.002 78.3213 148.845 78.8179 148.834C79.5034 148.833 80.1612 149.104 80.6469 149.589C81.1327 150.073 81.4067 150.731 81.4089 151.417Z" fill="white"/>
<g style="mix-blend-mode:multiply" opacity="0.35">
<path d="M122.42 61.8723C120.974 61.871 119.541 62.1559 118.204 62.7107C116.868 63.2655 115.654 64.0792 114.633 65.1051C113.611 66.1311 112.802 67.349 112.251 68.6891C111.701 70.0291 111.421 71.4648 111.426 72.9137C111.214 105.466 111.577 138.007 112.514 170.535C129.761 169.992 147.007 169.449 164.253 168.906C167.924 168.784 171.398 167.213 173.917 164.534C176.435 161.856 177.793 158.288 177.694 154.611C176.998 123.945 176.817 93.2828 177.153 62.6247C158.909 62.3739 140.665 62.1231 122.42 61.8723Z" fill="#3F4D88"/>
</g>
<path d="M259.624 190.517C216.889 189.845 174.153 189.173 131.417 188.5C128.534 188.452 125.787 187.26 123.779 185.186C121.771 183.112 120.667 180.326 120.708 177.437C121.141 140.414 121.154 103.394 120.745 66.3754C120.707 63.4871 121.813 60.7012 123.822 58.6287C125.831 56.5563 128.579 55.3663 131.462 55.3198C174.199 54.6764 216.935 54.0331 259.671 53.3898C261.123 53.3927 262.561 53.6825 263.901 54.2425C265.241 54.8026 266.458 55.6219 267.482 56.6535C268.506 57.6852 269.316 58.909 269.867 60.2548C270.418 61.6006 270.699 63.042 270.693 64.4965C271.115 102.807 271.102 141.114 270.654 179.418C270.659 180.872 270.377 182.314 269.825 183.659C269.273 185.005 268.462 186.228 267.437 187.259C266.413 188.29 265.196 189.108 263.855 189.667C262.514 190.227 261.077 190.515 259.624 190.517Z" fill="#243976"/>
<path d="M256.742 187.443C214.006 186.8 171.27 186.157 128.534 185.514C125.651 185.468 122.904 184.279 120.895 182.208C118.886 180.137 117.779 177.353 117.817 174.465C118.225 137.467 118.212 100.472 117.779 63.4788C117.739 60.5914 118.844 57.8062 120.852 55.7337C122.86 53.6612 125.606 52.4707 128.489 52.4233C171.224 51.7509 213.96 51.0785 256.696 50.4061C258.147 50.4076 259.585 50.6958 260.925 51.2543C262.266 51.8128 263.483 52.6306 264.507 53.6609C265.532 54.6912 266.343 55.9137 266.895 57.2585C267.448 58.6033 267.729 60.0439 267.725 61.498C268.173 99.7825 268.186 138.065 267.764 176.344C267.769 177.798 267.488 179.239 266.937 180.584C266.386 181.929 265.575 183.152 264.552 184.183C263.528 185.214 262.311 186.033 260.971 186.592C259.631 187.152 258.194 187.441 256.742 187.443Z" fill="#49B3F7"/>
<path d="M256.695 50.4061L229.047 50.8412C242.87 54.965 252.786 67.3029 255.056 80.5156C260.593 112.749 198.008 150.317 171.884 156.718C154.568 160.961 135.117 163.569 118.002 156.655C117.943 163.779 117.905 167.341 117.816 174.465C117.779 177.353 118.886 180.137 120.895 182.208C122.904 184.279 125.651 185.468 128.534 185.514C171.27 186.157 214.006 186.8 256.742 187.443C258.194 187.441 259.631 187.152 260.971 186.592C262.311 186.033 263.528 185.214 264.551 184.183C265.575 183.152 266.386 181.929 266.937 180.584C267.488 179.239 267.769 177.798 267.764 176.344C268.186 138.059 268.173 99.7772 267.725 61.498C267.729 60.044 267.447 58.6033 266.895 57.2585C266.343 55.9137 265.532 54.6912 264.507 53.6609C263.483 52.6306 262.265 51.8128 260.925 51.2543C259.585 50.6958 258.147 50.4076 256.695 50.4061Z" fill="#378FDD"/>
<path d="M213.99 51.078C185.49 51.5264 156.989 51.9747 128.489 52.4231C125.606 52.4706 122.86 53.6611 120.852 55.7336C118.844 57.8061 117.739 60.5913 117.779 63.4787C117.986 80.9913 118.111 98.5039 118.152 116.016C136.485 80.3337 176.829 60.4981 213.99 51.078Z" fill="#6CC1F9"/>
<path d="M254.896 183.874C213.424 183.283 171.953 182.691 130.481 182.1C128.12 182.064 125.87 181.091 124.224 179.396C122.578 177.7 121.671 175.419 121.702 173.055C122.04 141.801 122.081 110.548 121.827 79.2962C169.232 78.8444 216.637 78.3924 264.042 77.9404C264.305 110.225 264.262 142.508 263.914 174.788C263.918 175.978 263.689 177.157 263.238 178.258C262.787 179.359 262.124 180.36 261.286 181.204C260.448 182.048 259.453 182.718 258.357 183.176C257.26 183.634 256.084 183.871 254.896 183.874Z" fill="white"/>
<path d="M261.226 62.4891C261.214 63.0851 261.028 63.6646 260.69 64.1552C260.352 64.6459 259.877 65.0259 259.325 65.248C258.772 65.47 258.167 65.5243 257.584 65.4039C257.001 65.2836 256.466 64.994 256.047 64.5712C255.627 64.1485 255.341 63.6114 255.224 63.0268C255.107 62.4423 255.165 61.8363 255.39 61.2843C255.615 60.7324 255.997 60.259 256.489 59.9232C256.98 59.5874 257.56 59.4041 258.155 59.3961C258.56 59.3972 258.96 59.4781 259.333 59.6342C259.706 59.7902 260.045 60.0184 260.33 60.3056C260.615 60.5928 260.841 60.9335 260.995 61.3081C261.148 61.6828 261.227 62.0841 261.226 62.4891Z" fill="white"/>
<path d="M251.063 62.6214C251.053 63.2177 250.868 63.7978 250.53 64.2893C250.193 64.7808 249.719 65.1619 249.166 65.385C248.614 65.6081 248.009 65.6633 247.425 65.5438C246.842 65.4242 246.307 65.1352 245.886 64.7127C245.466 64.2903 245.179 63.7532 245.062 63.1685C244.945 62.5838 245.002 61.9775 245.226 61.4252C245.451 60.8729 245.833 60.3991 246.325 60.063C246.817 59.727 247.397 59.5435 247.992 59.5355C248.396 59.5362 248.796 59.6165 249.169 59.7719C249.542 59.9274 249.881 60.1549 250.166 60.4414C250.451 60.728 250.677 61.068 250.831 61.442C250.985 61.8161 251.064 62.2168 251.063 62.6214Z" fill="white"/>
<path d="M240.585 62.7576C240.577 63.3542 240.393 63.935 240.056 64.4274C239.72 64.9198 239.246 65.302 238.694 65.5262C238.142 65.7504 237.536 65.8066 236.952 65.6878C236.369 65.5691 235.833 65.2806 235.412 64.8585C234.991 64.4363 234.703 63.8993 234.585 63.3145C234.467 62.7296 234.524 62.1229 234.749 61.5703C234.973 61.0176 235.355 60.5434 235.847 60.2071C236.339 59.8707 236.919 59.6871 237.515 59.6791C237.919 59.6792 238.318 59.759 238.691 59.9138C239.063 60.0686 239.402 60.2954 239.687 60.5813C239.972 60.8672 240.198 61.2065 240.352 61.5799C240.507 61.9534 240.586 62.3535 240.585 62.7576Z" fill="white"/>
<path d="M221.203 72.9289L163.038 73.5547C161.75 73.5621 160.511 73.0569 159.594 72.1501C158.677 71.2434 158.157 70.0092 158.148 68.7186C158.127 67.4282 158.617 66.182 159.512 65.2537C160.408 64.3254 161.634 63.7909 162.922 63.7677L221.086 63.0111C221.729 63.0106 222.366 63.1371 222.96 63.3832C223.554 63.6293 224.094 63.9902 224.548 64.4454C225.003 64.9006 225.364 65.4411 225.61 66.036C225.856 66.6309 225.983 67.2685 225.983 67.9124C225.998 68.5562 225.887 69.1966 225.655 69.7972C225.423 70.3978 225.075 70.9467 224.631 71.4126C224.187 71.8785 223.656 72.2522 223.068 72.5124C222.48 72.7725 221.846 72.9141 221.203 72.9289Z" fill="white"/>
<path d="M143.529 109.299C142.366 109.294 141.252 108.829 140.43 108.005C139.608 107.181 139.145 106.064 139.142 104.9C139.128 100.93 139.118 98.9462 139.095 94.9766C139.087 93.8097 139.541 92.6872 140.358 91.855C141.175 91.0229 142.288 90.5491 143.453 90.5375L153.312 90.4701H153.342C153.914 90.4689 154.481 90.5813 155.01 90.8006C155.539 91.0199 156.02 91.3419 156.424 91.7481C156.835 92.1569 157.162 92.6429 157.385 93.1783C157.609 93.7137 157.724 94.288 157.726 94.8683C157.749 98.8535 157.758 100.847 157.773 104.832C157.777 105.416 157.665 105.994 157.445 106.534C157.224 107.074 156.898 107.565 156.486 107.978C156.083 108.387 155.602 108.712 155.073 108.934C154.543 109.156 153.974 109.271 153.4 109.271L143.542 109.299H143.529ZM153.341 91.8926H153.321L143.463 91.9589C142.674 91.968 141.921 92.2899 141.368 92.854C140.816 93.4182 140.509 94.1787 140.516 94.9688C140.538 98.9384 140.548 100.924 140.562 104.894C140.563 105.683 140.876 106.439 141.432 106.998C141.988 107.556 142.742 107.872 143.529 107.876L143.538 107.875L153.397 107.848C153.784 107.848 154.168 107.771 154.526 107.621C154.883 107.471 155.207 107.252 155.479 106.975C155.759 106.695 155.98 106.361 156.13 105.994C156.28 105.627 156.355 105.234 156.352 104.838C156.338 100.853 156.328 98.8613 156.306 94.8761C156.305 94.4819 156.226 94.0918 156.074 93.7281C155.923 93.3644 155.701 93.0342 155.421 92.7566C155.149 92.4822 154.825 92.2646 154.468 92.1163C154.111 91.968 153.728 91.8919 153.341 91.8926Z" fill="#FF6551"/>
<path d="M173.434 109.217C172.267 109.209 171.151 108.739 170.329 107.91C169.507 107.081 169.046 105.96 169.046 104.792C169.032 100.795 169.023 98.7977 168.999 94.8008C168.988 93.6306 169.44 92.5035 170.257 91.6667C171.074 90.8298 172.189 90.3514 173.357 90.3363L183.215 90.2689C184.38 90.2805 185.495 90.7418 186.329 91.5566C187.16 92.3886 187.627 93.5161 187.63 94.6925C187.653 98.705 187.662 100.712 187.677 104.725C187.686 105.901 187.229 107.033 186.406 107.873C186.003 108.289 185.521 108.62 184.989 108.846C184.456 109.072 183.883 109.189 183.305 109.19L173.446 109.217H173.434ZM183.245 91.6914H183.225L173.367 91.7587C172.575 91.7709 171.819 92.0971 171.267 92.6659C170.715 93.2347 170.41 93.9996 170.419 94.793C170.443 98.7899 170.452 100.789 170.466 104.786C170.464 105.578 170.775 106.339 171.331 106.903C171.887 107.466 172.643 107.787 173.434 107.794L173.442 107.793L183.301 107.767C183.691 107.766 184.077 107.687 184.436 107.535C184.795 107.382 185.12 107.159 185.391 106.878C185.952 106.305 186.263 105.533 186.257 104.731C186.242 100.718 186.233 98.7128 186.209 94.7003C186.208 93.898 185.89 93.129 185.324 92.5612C185.052 92.2854 184.728 92.0664 184.371 91.9171C184.015 91.7678 183.631 91.691 183.245 91.6914Z" fill="#FF6551"/>
<path d="M203.339 109.136C202.169 109.125 201.051 108.651 200.228 107.817C199.406 106.983 198.946 105.857 198.95 104.685C198.936 100.661 198.926 98.6494 198.903 94.6252C198.888 93.4516 199.338 92.32 200.155 91.4784C200.972 90.6368 202.089 90.1538 203.26 90.1352L213.118 90.0679H213.148C213.723 90.0672 214.292 90.1816 214.822 90.4042C215.352 90.6268 215.832 90.9533 216.234 91.3644C217.065 92.2031 217.531 93.3358 217.533 94.5168C217.557 98.5567 217.566 100.578 217.58 104.617C217.59 105.799 217.134 106.936 216.312 107.783C215.91 108.201 215.428 108.534 214.895 108.762C214.362 108.989 213.788 109.107 213.209 109.108L203.35 109.136L203.339 109.136ZM213.148 91.4903H213.128L203.27 91.5577C202.475 91.5734 201.718 91.9042 201.165 92.4777C200.613 93.0512 200.31 93.8206 200.323 94.6174C200.346 98.6416 200.356 100.655 200.37 104.679C200.365 105.475 200.674 106.24 201.23 106.809C201.787 107.377 202.545 107.702 203.339 107.712H203.347L213.205 107.685C213.595 107.684 213.981 107.605 214.34 107.451C214.699 107.297 215.023 107.073 215.294 106.791C215.856 106.21 216.167 105.432 216.16 104.623C216.146 100.583 216.136 98.5645 216.113 94.5246C216.112 93.7158 215.793 92.9399 215.225 92.365C214.955 92.0881 214.632 91.868 214.275 91.7178C213.918 91.5676 213.535 91.4903 213.148 91.4903Z" fill="#FF6551"/>
<path d="M233.241 109.054C232.068 109.039 230.948 108.56 230.126 107.721C229.305 106.883 228.847 105.753 228.854 104.577C228.84 100.526 228.831 98.501 228.807 94.4494C228.789 93.2723 229.237 92.136 230.054 91.2894C230.871 90.4427 231.989 89.9547 233.164 89.9321L243.022 89.8667L243.052 89.8657C243.628 89.8656 244.198 89.9811 244.728 90.2055C245.259 90.4298 245.739 90.7585 246.14 91.172C246.97 92.0175 247.436 93.1553 247.437 94.341C247.461 98.4082 247.47 100.443 247.485 104.51C247.49 105.108 247.377 105.702 247.151 106.256C246.926 106.81 246.593 107.314 246.172 107.739C245.772 108.145 245.296 108.468 244.771 108.689C244.246 108.91 243.682 109.025 243.112 109.026L233.254 109.054L233.241 109.054ZM243.052 91.2882H243.032L233.174 91.3546C232.375 91.3743 231.616 91.7101 231.064 92.2886C230.512 92.8672 230.211 93.6413 230.227 94.4416C230.251 98.4932 230.26 100.52 230.275 104.572C230.266 105.371 230.573 106.141 231.129 106.714C231.684 107.287 232.444 107.617 233.242 107.631L233.25 107.63L243.109 107.603C243.492 107.602 243.871 107.525 244.224 107.376C244.577 107.227 244.896 107.009 245.164 106.735C245.454 106.443 245.682 106.097 245.837 105.716C245.991 105.335 246.069 104.927 246.065 104.516C246.05 100.449 246.041 98.416 246.017 94.3488C246.017 93.5339 245.697 92.7515 245.127 92.1698C244.858 91.8911 244.535 91.6694 244.179 91.518C243.822 91.3665 243.439 91.2884 243.052 91.2882Z" fill="#FF6551"/>
<path d="M148.099 106.699L146.944 105.544C142.918 101.513 140.902 99.5026 136.866 95.4891L138.867 93.4701C142.501 97.0834 144.499 99.075 147.797 102.376C151.751 97.1273 154.025 94.093 158.25 88.4305L160.526 90.1332C155.959 96.2535 153.669 99.3064 149.082 105.394L148.099 106.699Z" fill="#2435A1"/>
<path d="M139.851 136.47L139.839 139.315L246.762 139.746L246.773 136.9L139.851 136.47Z" fill="#BFBFBF"/>
<path d="M139.796 147.484L139.777 150.33L246.699 151.033L246.718 148.187L139.796 147.484Z" fill="#BFBFBF"/>
<path d="M139.714 158.5L139.688 161.345L246.608 162.319L246.634 159.473L139.714 158.5Z" fill="#BFBFBF"/>
<path d="M139.603 169.514L139.57 172.36L246.487 173.603L246.52 170.757L139.603 169.514Z" fill="#BFBFBF"/>
<path d="M145.627 123.776C145.181 125.251 144.958 125.988 144.511 127.463C143.538 127.461 143.051 127.46 142.078 127.459C143.742 122.259 144.57 119.657 146.218 114.447C147.421 114.445 148.023 114.444 149.226 114.443C150.912 119.651 151.751 122.258 153.421 127.477C152.402 127.475 151.892 127.475 150.873 127.473C150.407 125.995 150.175 125.256 149.708 123.779C148.076 123.778 147.259 123.777 145.627 123.776ZM149.326 121.981C148.92 120.698 148.717 120.056 148.31 118.773C148.061 117.98 147.85 117.092 147.657 116.338L147.619 116.338C147.428 117.092 147.218 118 147.008 118.773C146.61 120.056 146.41 120.698 146.011 121.98L149.326 121.981Z" fill="#49B3F7"/>
<path d="M181.877 114.398C181.878 115.184 181.879 115.578 181.879 116.364C179.626 116.366 178.499 116.367 176.246 116.369C176.247 117.497 176.247 118.061 176.248 119.189C176.776 119.126 177.307 119.094 177.838 119.092C179.073 119.066 180.288 119.412 181.326 120.084C181.831 120.44 182.239 120.917 182.513 121.471C182.788 122.026 182.919 122.64 182.896 123.259C182.918 123.801 182.824 124.341 182.622 124.845C182.421 125.348 182.114 125.803 181.724 126.179C180.313 127.248 178.563 127.771 176.798 127.651C175.83 127.653 174.864 127.593 173.905 127.472C173.913 122.246 173.913 119.634 173.906 114.409L181.877 114.398ZM176.245 125.763C176.657 125.824 177.074 125.85 177.49 125.843C178.321 125.876 179.132 125.584 179.752 125.028C179.971 124.801 180.143 124.533 180.259 124.239C180.374 123.945 180.43 123.631 180.424 123.315C180.437 122.969 180.365 122.625 180.215 122.313C180.065 122.001 179.841 121.73 179.563 121.524C178.932 121.094 178.18 120.875 177.417 120.901C177.053 120.901 176.631 120.94 176.248 120.978C176.248 122.892 176.247 123.849 176.245 125.763Z" fill="#49B3F7"/>
<path d="M203.819 114.563C204.957 114.359 206.111 114.259 207.268 114.264C208.55 114.169 209.832 114.461 210.947 115.103C211.364 115.369 211.706 115.737 211.941 116.172C212.176 116.608 212.297 117.096 212.291 117.591C212.278 118.231 212.063 118.85 211.678 119.36C211.293 119.871 210.757 120.247 210.146 120.434V120.493C210.888 120.653 211.551 121.065 212.026 121.658C212.5 122.25 212.756 122.989 212.751 123.749C212.758 124.268 212.651 124.783 212.439 125.257C212.227 125.731 211.914 126.153 211.522 126.493C210.608 127.296 209.086 127.705 206.71 127.701C205.743 127.702 204.777 127.642 203.817 127.52C203.826 122.337 203.826 119.745 203.819 114.563ZM206.161 119.769L207.368 119.769C209.016 119.768 209.916 118.984 209.916 117.867C209.915 116.612 208.995 116.045 207.5 116.046C207.05 116.031 206.601 116.065 206.159 116.145C206.16 117.595 206.16 118.319 206.161 119.769V119.769ZM206.157 125.82C206.57 125.875 206.987 125.896 207.403 125.88C208.916 125.882 210.278 125.315 210.279 123.688C210.28 122.139 208.958 121.512 207.329 121.512L206.16 121.511C206.16 123.235 206.159 124.096 206.157 125.82V125.82Z" fill="#49B3F7"/>
<path d="M243.063 114.313C243.064 115.111 243.065 115.51 243.066 116.307C241.058 116.309 240.054 116.31 238.045 116.312C238.05 120.833 238.049 123.093 238.042 127.614L235.685 127.61C235.693 122.295 235.693 119.638 235.686 114.323C238.637 114.319 240.112 114.317 243.063 114.313Z" fill="#49B3F7"/>
</g>
<defs>
<filter id="filter0_d_3521_2770" x="0" y="0" width="275" height="225" filterUnits="userSpaceOnUse" color-interpolation-filters="sRGB">
<feFlood flood-opacity="0" result="BackgroundImageFix"/>
<feColorMatrix in="SourceAlpha" type="matrix" values="0 0 0 0 0 0 0 0 0 0 0 0 0 0 0 0 0 0 127 0" result="hardAlpha"/>
<feOffset dy="4"/>
<feGaussianBlur stdDeviation="2"/>
<feComposite in2="hardAlpha" operator="out"/>
<feColorMatrix type="matrix" values="0 0 0 0 0 0 0 0 0 0 0 0 0 0 0 0 0 0 0.25 0"/>
<feBlend mode="normal" in2="BackgroundImageFix" result="effect1_dropShadow_3521_2770"/>
<feBlend mode="normal" in="SourceGraphic" in2="effect1_dropShadow_3521_2770" result="shape"/>
</filter>
</defs>
</svg>
