<svg width="255" height="225" viewBox="0 0 255 225" fill="none" xmlns="http://www.w3.org/2000/svg">
<g filter="url(#filter0_d_3521_2773)">
<path d="M209.683 197.705C197.52 204.865 181.796 201.81 167.524 203.373C155.463 204.694 144.187 209.427 132.642 212.95C121.097 216.472 108.447 218.785 96.9209 215.208C89.0034 212.751 82.3258 207.727 74.8749 204.218C65.8836 199.984 55.8918 198.009 46.5089 194.599C37.1259 191.188 27.8623 185.844 23.5062 177.354C18.2679 167.144 21.2785 155.015 19.2985 143.842C17.0639 131.232 8.56627 120.344 5.00956 108.003C2.4967 99.2844 5.10395 88.9957 8.14053 80.5354C11.3492 71.5956 20.2689 61.5518 28.8639 56.3498C31.668 54.6527 34.4374 52.9525 37.0858 51.0326C38.2462 50.1913 44.3526 46.5115 44.3526 45.1793C51.2085 38.9963 55.3238 31.1116 61.2814 24.2644C67.463 17.1599 76.511 12.5568 86.0005 10.2993C94.5931 8.22717 103.384 7.08147 112.222 6.88183C121.713 6.73438 130.918 7.5614 140.076 4.50722C141.999 3.866 143.864 3.08125 145.782 2.42396C158.73 -2.01317 176.069 -0.0698025 188.173 5.90422C192.792 8.18378 196.656 11.578 200.381 15.0027C205.002 19.0604 209.04 23.7344 212.382 28.8928C215.441 33.8688 216.409 39.808 220.306 44.4786C222.923 47.6151 225.498 51.0606 228.092 54.0858C232.1 58.7605 238.272 61.007 242.084 66.101C245.92 71.2285 247.745 77.4893 249.008 83.5572C250.625 91.326 251.531 99.2904 250.665 107.164C249.278 119.761 242.201 129.126 234.968 139.377C232.558 142.792 230.135 146.327 229.21 150.326C228.839 152.244 228.612 154.187 228.53 156.138C228.084 161.824 226.555 167.062 225.403 172.572C223.38 182.249 218.953 192.248 209.683 197.705Z" fill="#EFF2FD"/>
<path d="M61.4229 85.729L72.6931 91.0555L182.223 108.262L197.929 73.3717C185.067 78.5289 151.473 80.4543 122.492 81.8118C91.0886 83.2828 58.0566 82.9871 58.0566 82.9871L61.4229 85.729Z" fill="#B57D92"/>
<path d="M178.745 11.6217L178.079 16.6663L169.073 84.8819L160.885 146.927L76.7702 146.952L75.0063 96.0477L74.9943 95.6368L71.6768 0L178.745 11.6217Z" fill="#FFD7BD"/>
<path d="M178.093 16.5393L178.08 16.6663L169.074 84.8819L75.0072 96.0477L73.6689 96.2067L74.9952 95.6368L94.1541 87.4012L92.867 86.7184L89.4933 24.8819L178.093 16.5393Z" fill="#ECB891"/>
<path d="M94.1543 27.8961L98.7079 159.352L182.828 159.327L197.203 17.1862L94.1543 27.8961Z" fill="#FFEBDD"/>
<path d="M181.831 32.0122L106.184 38.7188C105.777 38.7548 105.4 38.946 105.131 39.2524C104.862 39.5589 104.722 39.9571 104.74 40.3642C104.758 40.7712 104.932 41.1557 105.227 41.4376C105.522 41.7195 105.914 41.877 106.322 41.8775C106.369 41.8775 106.416 41.8758 106.464 41.8714L182.112 35.1648C182.319 35.1464 182.521 35.0874 182.706 34.9912C182.89 34.895 183.054 34.7635 183.188 34.6041C183.321 34.4448 183.422 34.2607 183.484 34.0624C183.547 33.8641 183.569 33.6555 183.551 33.4485C183.533 33.2415 183.473 33.0402 183.377 32.856C183.281 32.6718 183.149 32.5083 182.989 32.3749C182.83 32.2415 182.645 32.1409 182.446 32.0786C182.248 32.0164 182.039 31.9938 181.831 32.0122H181.831Z" fill="#F4C6B1"/>
<path d="M180.553 54.958L104.829 60.7485C104.421 60.7799 104.04 60.9679 103.767 61.2732C103.495 61.5785 103.351 61.9773 103.366 62.386C103.382 62.7947 103.555 63.1816 103.85 63.4655C104.145 63.7494 104.539 63.9083 104.949 63.9088C104.989 63.9088 105.03 63.9071 105.072 63.9044L180.795 58.1139C181.003 58.098 181.205 58.0415 181.391 57.9475C181.577 57.8535 181.742 57.724 181.878 57.5662C182.013 57.4085 182.116 57.2256 182.181 57.0281C182.246 56.8306 182.271 56.6222 182.255 56.415C182.239 56.2078 182.183 56.0057 182.088 55.8204C181.994 55.635 181.864 55.47 181.706 55.3347C181.548 55.1994 181.365 55.0965 181.167 55.0318C180.969 54.9672 180.761 54.9421 180.553 54.958L180.553 54.958Z" fill="#F4C6B1"/>
<path d="M144.279 48.9116L180.777 45.6758C180.984 45.6578 181.187 45.5991 181.372 45.5031C181.556 45.407 181.721 45.2755 181.855 45.1161C181.989 44.9566 182.09 44.7724 182.152 44.5739C182.215 44.3754 182.237 44.1665 182.219 43.9592C182.201 43.7519 182.141 43.5503 182.045 43.3659C181.948 43.1815 181.816 43.018 181.656 42.8846C181.496 42.7512 181.311 42.6506 181.112 42.5886C180.913 42.5266 180.704 42.5044 180.496 42.5232L143.998 45.759C143.591 45.795 143.214 45.9862 142.946 46.2927C142.677 46.5991 142.536 46.9973 142.554 47.4044C142.572 47.8114 142.747 48.1959 143.041 48.4777C143.336 48.7596 143.728 48.9172 144.136 48.9177C144.183 48.9177 144.231 48.916 144.279 48.9116Z" fill="#F4C6B1"/>
<path d="M104.986 52.3884C105.033 52.3884 105.081 52.3868 105.128 52.3824L137.507 49.5117C137.715 49.4933 137.917 49.4343 138.101 49.3381C138.286 49.2419 138.449 49.1104 138.583 48.951C138.717 48.7916 138.818 48.6075 138.88 48.4092C138.942 48.211 138.965 48.0024 138.946 47.7954C138.928 47.5884 138.869 47.387 138.773 47.2028C138.676 47.0186 138.544 46.8551 138.385 46.7218C138.225 46.5884 138.04 46.4877 137.842 46.4255C137.643 46.3633 137.434 46.3407 137.227 46.3591L104.848 49.2298C104.441 49.2658 104.064 49.4569 103.795 49.7634C103.526 50.0699 103.386 50.4681 103.404 50.8752C103.422 51.2822 103.596 51.6667 103.891 51.9486C104.186 52.2305 104.578 52.388 104.986 52.3884H104.986Z" fill="#F4C6B1"/>
<path d="M180.507 65.9374L129.684 70.0816C129.276 70.1148 128.897 70.3042 128.626 70.61C128.355 70.9158 128.212 71.3144 128.229 71.7225C128.245 72.1305 128.419 72.5165 128.714 72.7995C129.009 73.0826 129.402 73.2409 129.811 73.2413C129.855 73.2413 129.898 73.2397 129.942 73.2364L180.765 69.0922C181.184 69.058 181.572 68.859 181.845 68.539C182.117 68.219 182.25 67.8042 182.216 67.3859C182.182 66.9675 181.983 66.5799 181.662 66.3082C181.341 66.0366 180.926 65.9032 180.507 65.9374Z" fill="#F4C6B1"/>
<path d="M123.211 71.017L104.848 72.6451C104.441 72.6811 104.064 72.8723 103.795 73.1788C103.526 73.4853 103.386 73.8835 103.404 74.2906C103.422 74.6976 103.596 75.0821 103.891 75.3639C104.186 75.6458 104.578 75.8033 104.986 75.8038C105.033 75.8038 105.081 75.8022 105.128 75.7977L123.491 74.1696C123.908 74.1295 124.291 73.9266 124.559 73.6053C124.826 73.284 124.955 72.8703 124.918 72.4543C124.881 72.0383 124.681 71.6538 124.361 71.3846C124.041 71.1154 123.628 70.9833 123.211 71.017Z" fill="#F4C6B1"/>
<path d="M197.927 73.3721L193.938 114.194L188.641 168.372L64.8508 168.739L64.2963 161.764L58.0547 82.9845C139.042 101.628 197.927 73.3721 197.927 73.3721Z" fill="#FFC652"/>
<path d="M196.471 88.2694L188.641 168.372L64.8506 168.739L62.1543 134.826C62.1543 134.826 169.415 144.064 196.471 88.2694Z" fill="#F7A845"/>
<path d="M76.4335 114.764C76.2548 114.764 76.0798 114.714 75.9283 114.62C75.7767 114.525 75.6547 114.39 75.5761 114.23C75.4975 114.07 75.4655 113.891 75.4837 113.714C75.5019 113.536 75.5695 113.368 75.6789 113.227C77.1752 111.303 78.5236 109.269 79.7127 107.143C78.6047 107.234 77.4904 107.07 76.4559 106.664C75.4215 106.257 74.4947 105.618 73.7472 104.797C72.8691 103.77 72.3407 102.492 72.2381 101.146C72.1355 99.8 72.4642 98.4565 73.1766 97.3093C73.8622 96.3471 74.754 95.5495 75.7871 94.9744C78.2082 93.4664 81.0864 92.8638 83.9106 93.2734C85.3445 93.4972 86.7088 94.043 87.9006 94.8695C89.0925 95.696 90.0808 96.7818 90.7911 98.045C93.0224 102.274 91.1652 107.356 88.1769 110.19C85.4446 112.78 81.5214 114.317 76.5181 114.76C76.4894 114.763 76.4608 114.764 76.4335 114.764ZM84.7621 96.6492C84.8539 96.6491 84.9452 96.6625 85.0331 96.6889C85.1534 96.7243 85.2655 96.7829 85.3629 96.8616C85.4604 96.9403 85.5414 97.0373 85.6012 97.1473C85.6611 97.2573 85.6985 97.3779 85.7115 97.5024C85.7246 97.6268 85.7128 97.7526 85.677 97.8725C84.1202 103.134 81.7066 108.104 78.533 112.583C81.6243 112.182 84.5247 110.867 86.8617 108.808C89.6921 106.123 90.6555 101.877 89.1017 98.9333C88.5314 97.9291 87.7401 97.0671 86.7875 96.4125C85.8349 95.7579 84.7458 95.3277 83.6023 95.1543C81.2245 94.8176 78.8041 95.3322 76.7704 96.6071C75.9798 97.0408 75.2945 97.6427 74.7628 98.37C74.2839 99.1701 74.0678 100.1 74.1447 101.029C74.2216 101.957 74.5876 102.839 75.1916 103.55C75.8504 104.257 76.6879 104.775 77.6162 105.048C78.5444 105.321 79.5293 105.34 80.4673 105.102C80.5761 105.072 80.6897 105.064 80.8016 105.078C82.0382 102.588 83.0572 99.9964 83.8472 97.3316C83.9055 97.1346 84.0261 96.9617 84.191 96.8387C84.3559 96.7157 84.5562 96.6493 84.7621 96.6492Z" fill="white"/>
<path d="M93.8982 114.185C93.3468 114.187 92.801 114.074 92.2959 113.853C91.7019 113.609 91.1997 113.184 90.8602 112.64V112.639C90.5361 111.92 90.3873 111.135 90.4259 110.348C90.4645 109.561 90.6895 108.795 91.0824 108.111C91.4753 107.428 92.0249 106.847 92.6862 106.417C93.3474 105.986 94.1015 105.719 94.8865 105.635H94.8952C95.4942 105.618 96.0851 105.778 96.5943 106.093C97.1034 106.408 97.5086 106.866 97.7592 107.409C98.1197 108.252 98.2571 109.173 98.1582 110.084C98.0594 110.995 97.7277 111.865 97.1949 112.611C96.8002 113.105 96.2985 113.503 95.7275 113.776C95.1565 114.048 94.5311 114.188 93.8982 114.185ZM92.5035 111.671C92.6433 111.87 92.8394 112.023 93.0666 112.11C93.5172 112.288 94.0125 112.32 94.4822 112.201C94.9518 112.082 95.3721 111.818 95.6833 111.448C96.0003 110.984 96.1989 110.45 96.2618 109.893C96.3246 109.335 96.2498 108.77 96.0438 108.248C95.9485 108.025 95.7864 107.838 95.5798 107.711C95.3731 107.585 95.1322 107.525 94.8902 107.541H94.8865C94.4271 107.594 93.9885 107.762 93.6118 108.03C93.2351 108.297 92.9325 108.656 92.7322 109.072C92.4769 109.45 92.322 109.887 92.282 110.342C92.242 110.797 92.3182 111.254 92.5035 111.671Z" fill="white"/>
<path d="M168.366 115.139C168.128 115.139 167.899 115.05 167.723 114.889C167.547 114.729 167.438 114.509 167.416 114.273C167.364 113.706 167.355 113.138 167.359 112.569C166.834 113.459 166.043 114.163 165.097 114.582C164.662 114.741 164.199 114.804 163.737 114.766C163.276 114.729 162.829 114.593 162.425 114.367C162.079 114.186 161.769 113.945 161.509 113.654C161.16 113.955 160.747 114.175 160.302 114.298C159.857 114.42 159.39 114.442 158.935 114.362C158.518 114.266 158.132 114.064 157.816 113.777C157.499 113.49 157.262 113.126 157.126 112.721C156.623 113.265 155.991 113.674 155.287 113.909C154.584 114.144 153.832 114.197 153.102 114.063C152.411 113.9 151.785 113.533 151.306 113.009C151.001 113.462 150.579 113.824 150.084 114.057C149.589 114.289 149.041 114.384 148.497 114.33C147.955 114.28 147.436 114.09 146.991 113.778C146.546 113.467 146.19 113.044 145.958 112.553C145.585 111.75 145.467 110.851 145.621 109.979C144.57 110.377 143.425 110.458 142.328 110.212C142.32 110.319 142.312 110.424 142.307 110.531L142.414 112.841C142.426 113.086 142.343 113.325 142.182 113.511C142.021 113.696 141.795 113.812 141.551 113.835C141.307 113.858 141.063 113.786 140.87 113.635C140.678 113.483 140.551 113.263 140.516 113.021C140.486 112.818 140.461 112.613 140.443 112.408C140.087 112.798 139.652 113.107 139.166 113.314C138.737 113.524 138.26 113.615 137.784 113.579C137.308 113.543 136.851 113.381 136.459 113.109C136.115 112.856 135.83 112.532 135.622 112.159C135.367 112.47 135.053 112.727 134.698 112.916C134.343 113.104 133.953 113.22 133.552 113.257C133.249 113.269 132.946 113.23 132.656 113.141C132.196 113.044 131.767 112.836 131.407 112.535C131.047 112.233 130.766 111.848 130.59 111.413C130.11 112.022 129.507 112.522 128.82 112.883C128.383 113.145 127.878 113.275 127.369 113.257C126.859 113.24 126.365 113.075 125.947 112.783C125.756 112.644 125.584 112.48 125.435 112.296C125.021 112.897 124.465 113.387 123.816 113.723C123.168 114.058 122.446 114.229 121.716 114.221C121.33 114.214 120.953 114.109 120.62 113.915C120.287 113.721 120.01 113.445 119.814 113.114C119.761 113.013 119.717 112.908 119.682 112.8C118.809 113.558 117.672 113.941 116.517 113.868C115.998 113.851 115.492 113.705 115.044 113.443C114.596 113.181 114.22 112.812 113.95 112.37C113.825 112.154 113.725 111.925 113.652 111.687L113.56 111.851C113.231 112.533 112.764 113.139 112.188 113.631C111.794 113.959 111.309 114.157 110.799 114.199C110.289 114.242 109.778 114.126 109.336 113.868C108.943 113.574 108.632 113.184 108.434 112.736C108.236 112.287 108.156 111.796 108.203 111.308C108.134 111.397 108.063 111.485 107.992 111.572C107.126 112.643 106.08 113.012 105.196 112.566C104.907 112.398 104.661 112.165 104.479 111.884C104.298 111.603 104.185 111.284 104.151 110.952C103.413 112.299 102.196 113.322 100.74 113.817C100.331 113.97 99.8879 114.008 99.459 113.926C99.0301 113.845 98.6317 113.648 98.3073 113.356C98.0751 113.112 97.9183 112.806 97.8557 112.475C97.7931 112.145 97.8273 111.803 97.9543 111.491C98.0544 111.218 98.2335 110.98 98.4689 110.808C98.7044 110.637 98.9855 110.538 99.2769 110.526C99.4531 110.52 99.6275 110.563 99.7807 110.65C99.9339 110.737 100.06 110.865 100.145 111.019C100.23 111.173 100.27 111.348 100.262 111.524C100.254 111.699 100.197 111.869 100.097 112.015C100.132 112.007 100.171 111.997 100.21 111.986C101.327 111.536 102.23 110.678 102.736 109.587C103.033 109.046 103.285 108.48 103.536 107.916C103.861 107.142 104.236 106.39 104.658 105.665C104.779 105.467 104.967 105.32 105.189 105.25C105.411 105.181 105.65 105.195 105.862 105.289C106.074 105.383 106.245 105.551 106.342 105.762C106.439 105.972 106.455 106.211 106.389 106.433C106.001 107.733 105.872 109.096 106.009 110.445C106.019 110.588 106.048 110.729 106.095 110.865C106.099 110.783 106.289 110.644 106.507 110.375C107.801 108.777 108.908 107.036 109.806 105.186C109.894 105.004 110.037 104.855 110.215 104.76C110.393 104.665 110.597 104.629 110.797 104.656C110.998 104.684 111.184 104.775 111.329 104.915C111.474 105.055 111.571 105.238 111.606 105.437C111.682 106.222 111.483 107.009 111.044 107.665C110.437 108.775 110.117 110.019 110.113 111.284C110.117 111.887 110.251 112.188 110.375 112.269C110.487 112.301 110.606 112.304 110.719 112.278C110.833 112.252 110.938 112.198 111.025 112.12C111.388 111.78 111.682 111.374 111.892 110.924L113.263 108.463C113.793 107.175 114.805 106.143 116.083 105.586C116.093 105.581 116.102 105.576 116.111 105.57C116.752 105.213 117.47 105.017 118.203 104.999C118.937 104.982 119.663 105.142 120.321 105.467C120.446 105.412 120.583 105.388 120.72 105.398C120.967 105.409 121.2 105.515 121.371 105.694C121.541 105.873 121.636 106.111 121.634 106.357C121.634 106.432 121.632 106.509 121.632 106.587C121.698 106.723 121.731 106.872 121.728 107.023C121.725 107.173 121.686 107.321 121.615 107.454C121.6 107.966 121.557 108.477 121.487 108.984C121.457 109.948 121.452 110.914 121.473 111.875C121.471 111.993 121.481 112.112 121.504 112.228C121.609 112.286 121.726 112.317 121.845 112.32C122.949 112.408 123.961 111.324 124.488 110.231C124.552 110.097 124.613 109.959 124.672 109.821C124.677 109.654 124.692 109.488 124.717 109.323C124.984 108.041 125.524 106.831 126.3 105.776C126.434 105.564 126.646 105.414 126.89 105.358C127.134 105.301 127.39 105.342 127.604 105.472C127.818 105.602 127.972 105.811 128.033 106.054C128.094 106.296 128.057 106.553 127.93 106.768C127.543 107.489 127.229 108.247 126.993 109.031C126.863 109.411 126.734 109.79 126.59 110.164C126.593 110.365 126.637 110.565 126.719 110.749C126.8 110.934 126.919 111.1 127.066 111.238C127.143 111.294 127.385 111.469 127.965 111.179C129.327 110.499 130.278 108.429 131.041 106.767C131.208 106.405 131.366 106.06 131.52 105.746C131.575 105.633 131.652 105.532 131.746 105.45C131.84 105.367 131.949 105.303 132.068 105.262C132.187 105.222 132.313 105.205 132.438 105.212C132.563 105.22 132.686 105.253 132.798 105.308C132.911 105.363 133.012 105.44 133.095 105.534C133.178 105.628 133.241 105.737 133.282 105.856C133.323 105.974 133.339 106.1 133.331 106.225C133.323 106.35 133.291 106.472 133.235 106.584C132.966 107.239 132.775 107.923 132.667 108.623C132.586 109.027 132.507 109.422 132.411 109.784C132.14 110.813 132.466 111.112 133.162 111.304C133.261 111.33 133.362 111.347 133.464 111.354C133.779 111.34 134.363 110.886 135.058 109.689C135.06 109.627 135.065 109.565 135.07 109.504C135.325 107.914 135.946 106.406 136.885 105.097C137.004 104.903 137.189 104.759 137.406 104.689C137.622 104.62 137.857 104.629 138.067 104.717C138.277 104.805 138.449 104.965 138.551 105.168C138.653 105.371 138.68 105.603 138.625 105.824C138.26 107.295 137.724 108.718 137.027 110.065C137.009 110.099 136.991 110.134 136.973 110.169C136.985 110.695 137.201 111.196 137.577 111.566C137.662 111.625 137.889 111.785 138.415 111.562C139.407 111.138 139.791 109.876 140.235 108.413C140.521 107.058 141.144 105.796 142.046 104.743C142.208 104.585 142.421 104.49 142.648 104.474C142.874 104.458 143.098 104.523 143.28 104.658C143.463 104.792 143.591 104.987 143.643 105.207C143.695 105.427 143.666 105.659 143.563 105.86C143.159 106.645 142.848 107.474 142.635 108.33C143.117 108.457 143.619 108.486 144.111 108.416C144.604 108.346 145.078 108.177 145.504 107.921C145.93 107.665 146.301 107.325 146.593 106.923C146.885 106.521 147.094 106.065 147.206 105.581C147.235 105.459 147.287 105.344 147.36 105.242C147.433 105.14 147.525 105.054 147.632 104.988C147.738 104.922 147.856 104.877 147.98 104.857C148.104 104.836 148.23 104.84 148.352 104.869C148.474 104.897 148.59 104.949 148.692 105.022C148.794 105.095 148.88 105.187 148.947 105.293C149.013 105.399 149.057 105.518 149.078 105.641C149.098 105.764 149.094 105.891 149.066 106.013L149.06 106.037C148.861 106.77 148.594 107.482 148.262 108.165C147.674 109.476 147.165 110.609 147.694 111.758C147.784 111.942 147.92 112.1 148.088 112.218C148.256 112.336 148.451 112.409 148.656 112.432C149.726 112.483 150.216 111.181 150.41 110.351C150.428 110.22 150.456 110.09 150.493 109.963C150.56 109.728 150.716 109.527 150.928 109.403C151.139 109.28 151.39 109.242 151.629 109.298C151.868 109.354 152.075 109.499 152.21 109.704C152.344 109.909 152.394 110.158 152.349 110.398C152.331 110.491 152.314 110.584 152.294 110.675C152.282 110.94 152.351 111.201 152.491 111.427C152.602 111.618 152.751 111.785 152.927 111.918C153.104 112.052 153.305 112.149 153.52 112.205C153.984 112.266 154.457 112.2 154.887 112.015C155.317 111.829 155.689 111.531 155.963 111.151C156.095 110.961 156.201 110.754 156.277 110.535C155.955 110.532 155.634 110.489 155.322 110.408C154.944 110.312 154.59 110.138 154.284 109.897C153.977 109.656 153.724 109.353 153.542 109.009C153.338 108.587 153.255 108.116 153.304 107.65C153.334 107.063 153.527 106.495 153.861 106.01C154.195 105.525 154.656 105.141 155.194 104.901C155.661 104.634 156.207 104.541 156.736 104.64C157.265 104.738 157.741 105.021 158.08 105.438C158.18 105.571 158.267 105.713 158.338 105.864C158.525 105.879 158.703 105.949 158.851 106.065C158.998 106.181 159.108 106.337 159.167 106.515V106.516C159.298 106.93 159.34 107.367 159.292 107.799C159.245 108.23 159.107 108.647 158.889 109.022C158.744 109.859 158.711 110.711 158.788 111.557C158.834 111.875 158.966 112.418 159.345 112.501C159.734 112.6 160.409 112.274 160.893 111.526C160.994 111.37 161.138 111.247 161.308 111.172C161.478 111.097 161.667 111.073 161.85 111.103C162.034 111.133 162.205 111.216 162.341 111.342C162.478 111.468 162.575 111.631 162.62 111.811C162.669 111.994 162.755 112.166 162.872 112.314C162.99 112.463 163.137 112.585 163.304 112.675C163.469 112.78 163.655 112.845 163.849 112.867C164.043 112.888 164.239 112.865 164.423 112.799C165.321 112.273 166.004 111.449 166.355 110.471C166.177 110.509 165.996 110.532 165.814 110.538C165.275 110.546 164.744 110.405 164.28 110.13C163.816 109.856 163.437 109.459 163.185 108.983C162.892 108.511 162.735 107.968 162.73 107.413C162.725 106.859 162.872 106.313 163.156 105.836C163.461 105.408 163.865 105.06 164.335 104.822C164.804 104.584 165.324 104.464 165.85 104.47C166.58 104.474 167.29 104.711 167.876 105.147C167.978 105.045 168.101 104.967 168.238 104.921C168.374 104.874 168.519 104.86 168.662 104.879C168.786 104.893 168.907 104.933 169.016 104.994C169.125 105.055 169.221 105.137 169.298 105.236C169.376 105.334 169.433 105.447 169.467 105.567C169.5 105.688 169.51 105.814 169.495 105.938C169.29 107.354 169.211 108.785 169.26 110.215C169.29 110.806 169.282 111.401 169.275 111.995C169.252 112.697 169.266 113.399 169.318 114.099C169.341 114.351 169.263 114.601 169.101 114.795C168.939 114.99 168.706 115.112 168.454 115.135C168.424 115.138 168.395 115.139 168.366 115.139ZM116.926 107.304C116.454 107.639 116.068 108.081 115.799 108.594C115.53 109.106 115.387 109.675 115.38 110.253C115.344 110.65 115.419 111.05 115.599 111.407C115.712 111.579 115.867 111.721 116.048 111.818C116.23 111.916 116.434 111.967 116.64 111.966C117.033 111.993 117.427 111.925 117.788 111.768C118.149 111.611 118.467 111.37 118.715 111.064C119.196 110.397 119.495 109.616 119.584 108.799C119.599 108.346 119.62 107.894 119.646 107.442C118.803 107.048 117.84 106.994 116.958 107.293L116.926 107.304ZM165.81 106.376C165.61 106.363 165.409 106.4 165.227 106.485C165.045 106.569 164.887 106.698 164.767 106.859C164.674 107.043 164.632 107.249 164.644 107.455C164.657 107.661 164.724 107.859 164.839 108.031C164.925 108.199 165.053 108.343 165.21 108.449C165.367 108.555 165.548 108.619 165.737 108.635C166.346 108.61 166.823 108.086 167.148 107.377C167.111 107.22 167.05 107.07 166.968 106.932C166.839 106.752 166.668 106.607 166.469 106.509C166.27 106.412 166.05 106.367 165.829 106.376L165.81 106.376ZM156.404 106.54C156.235 106.555 156.07 106.597 155.915 106.665C155.708 106.774 155.533 106.935 155.409 107.134C155.285 107.332 155.215 107.559 155.208 107.793C155.189 107.911 155.201 108.033 155.244 108.145C155.31 108.253 155.396 108.346 155.498 108.42C155.601 108.493 155.717 108.546 155.839 108.574C156.138 108.66 156.456 108.645 156.746 108.533C156.891 107.884 156.827 107.206 156.563 106.596C156.542 106.575 156.517 106.559 156.49 106.549C156.462 106.54 156.433 106.536 156.404 106.54V106.54Z" fill="white"/>
<path d="M100.551 146.898C100.373 146.898 100.199 146.849 100.048 146.755C99.8968 146.662 99.7748 146.528 99.6955 146.37C98.9449 144.627 98.8718 142.668 99.4904 140.875L99.7018 140.107C100.266 138.067 100.826 136.044 101.374 133.987C101.497 133.522 101.634 133.009 101.804 132.481C101.974 131.014 102.121 129.549 102.245 128.084C102.267 127.833 102.388 127.6 102.581 127.438C102.774 127.275 103.024 127.196 103.275 127.217C103.527 127.238 103.76 127.357 103.924 127.55C104.087 127.742 104.167 127.991 104.147 128.243C104.136 128.383 104.123 128.522 104.111 128.662C104.522 128.335 105.003 128.107 105.516 127.994C106.029 127.88 106.561 127.885 107.072 128.008C107.462 128.101 107.823 128.29 108.122 128.557C108.421 128.824 108.648 129.162 108.784 129.539C109.175 130.78 109.108 132.121 108.594 133.317C108.346 133.944 108.22 134.612 108.222 135.286L107.588 136.189L108.301 135.555C108.538 135.822 108.678 135.792 108.748 135.78C109.028 135.657 109.279 135.477 109.485 135.251C109.691 135.026 109.848 134.76 109.945 134.471C110.508 132.727 111.429 131.12 112.648 129.751C113.01 129.212 113.495 128.767 114.063 128.452C114.545 128.204 115.076 128.067 115.618 128.052C116.16 128.036 116.699 128.141 117.194 128.36C117.712 128.582 118.161 128.939 118.493 129.393C118.568 129.042 118.655 128.693 118.761 128.349C118.826 128.145 118.958 127.968 119.135 127.847C119.312 127.726 119.525 127.667 119.739 127.681C119.954 127.695 120.157 127.782 120.316 127.927C120.475 128.072 120.581 128.266 120.615 128.478C120.743 129.605 120.527 130.744 119.995 131.746C119.86 132.52 119.64 133.278 119.34 134.004C119.321 134.334 119.383 134.663 119.519 134.963C119.655 135.264 119.862 135.527 120.122 135.731C120.319 135.863 120.55 135.938 120.787 135.948C121.024 135.958 121.26 135.903 121.468 135.788C122.397 135.224 123.077 134.33 123.372 133.286L123.527 132.916C123.571 132.806 123.617 132.694 123.666 132.579C123.71 131.836 123.914 131.112 124.264 130.456C124.613 129.799 125.101 129.226 125.692 128.774C126.026 128.518 126.421 128.352 126.838 128.292C127.254 128.232 127.68 128.28 128.073 128.431C128.654 128.71 129.122 129.181 129.395 129.765C129.495 129.953 129.528 130.17 129.49 130.379C129.452 130.589 129.344 130.78 129.185 130.921C129.025 131.063 128.822 131.147 128.609 131.16C128.396 131.173 128.185 131.114 128.009 130.993C127.492 130.637 127.24 130.714 127.16 130.739C126.545 130.921 125.962 132.077 125.557 133.01C125.552 133.535 125.701 134.05 125.985 134.492C126.257 134.865 126.62 135.164 127.039 135.359C127.458 135.555 127.919 135.641 128.381 135.61C128.732 135.611 129.077 135.519 129.381 135.344C129.685 135.17 129.938 134.918 130.114 134.615C130.451 133.837 130.619 132.997 130.605 132.15C130.592 131.304 130.398 130.469 130.037 129.703C129.755 129.143 129.434 128.604 129.076 128.089C128.369 127.14 127.845 126.069 127.531 124.929C127.363 124.275 127.394 123.585 127.62 122.949C127.844 122.437 128.194 121.991 128.638 121.651C129.082 121.311 129.605 121.09 130.158 121.007C130.957 120.885 131.768 120.881 132.568 120.996C133.763 121.115 134.965 121.165 136.166 121.144C136.667 121.161 137.167 121.093 137.646 120.943C137.795 120.896 137.933 120.816 138.048 120.71C138.163 120.604 138.253 120.474 138.312 120.328C138.376 120.085 138.534 119.876 138.752 119.749C138.97 119.621 139.23 119.585 139.475 119.649C139.719 119.712 139.929 119.87 140.057 120.087C140.185 120.304 140.222 120.563 140.159 120.807C140.028 121.246 139.795 121.648 139.479 121.98C139.163 122.312 138.773 122.565 138.34 122.718C137.652 122.955 136.927 123.067 136.2 123.049C134.989 123.058 133.792 123.023 132.62 122.915C131.927 122.803 131.221 122.791 130.524 122.878C130.29 122.906 130.065 122.989 129.87 123.121C129.674 123.253 129.513 123.429 129.4 123.636C129.316 123.924 129.314 124.23 129.395 124.519C129.667 125.43 130.1 126.284 130.673 127.043C131.079 127.632 131.443 128.249 131.763 128.889C132.266 129.935 132.526 131.081 132.525 132.242C132.523 133.402 132.259 134.547 131.753 135.592C131.419 136.165 130.942 136.643 130.369 136.979C129.797 137.315 129.147 137.499 128.483 137.513C127.693 137.562 126.903 137.409 126.189 137.067C125.476 136.726 124.861 136.207 124.406 135.561L124.386 135.53C123.9 136.388 123.166 137.079 122.28 137.513C121.772 137.768 121.206 137.883 120.64 137.847C120.073 137.812 119.526 137.627 119.054 137.311C118.645 137.034 118.3 136.674 118.041 136.254C117.592 136.863 116.96 137.315 116.237 137.544C115.773 137.658 115.29 137.667 114.822 137.572C114.354 137.476 113.913 137.277 113.531 136.99C112.711 136.441 112.136 135.596 111.925 134.633C111.863 134.792 111.801 134.956 111.74 135.123C111.537 135.725 111.191 136.269 110.733 136.709C110.274 137.149 109.716 137.473 109.106 137.652C108.693 137.726 108.269 137.689 107.876 137.543C107.483 137.397 107.137 137.148 106.874 136.823C106.694 136.622 106.553 136.389 106.458 136.136C106.379 135.905 106.331 135.665 106.317 135.422C106.292 134.507 106.447 133.596 106.774 132.74C107.147 131.942 107.223 131.038 106.989 130.189C106.958 130.102 106.904 130.024 106.833 129.965C106.762 129.905 106.676 129.866 106.585 129.851C106.364 129.804 106.136 129.805 105.917 129.856C105.697 129.906 105.491 130.004 105.313 130.142C104.525 130.897 103.959 131.853 103.676 132.906C103.154 137.353 102.419 141.788 101.484 146.145C101.439 146.359 101.321 146.55 101.151 146.687C100.981 146.824 100.769 146.898 100.551 146.898L100.551 146.898ZM114.115 130.979C113.79 131.567 113.626 132.231 113.639 132.902C113.657 134.21 113.947 134.981 114.584 135.4C115.251 135.84 115.606 135.742 115.719 135.71C116.477 135.497 117.142 134.193 117.453 133.538C117.536 132.837 117.726 132.154 118.017 131.512C117.814 131.513 117.615 131.449 117.45 131.331C117.284 131.213 117.16 131.046 117.095 130.854C117.041 130.709 116.951 130.58 116.832 130.48C116.714 130.38 116.571 130.313 116.419 130.285C116.063 130.203 115.693 130.203 115.337 130.284C114.981 130.364 114.648 130.524 114.363 130.751C114.279 130.824 114.197 130.9 114.115 130.979V130.979Z" fill="white"/>
<path d="M137.196 137.56C136.862 137.56 136.531 137.514 136.21 137.423C135.676 137.263 135.181 136.995 134.755 136.636C134.33 136.276 133.983 135.833 133.736 135.334C133.57 135.001 133.457 134.644 133.402 134.276C133.339 133.546 133.434 132.811 133.68 132.121C133.926 131.431 134.319 130.801 134.83 130.276C135.254 129.746 135.806 129.333 136.433 129.073C137.061 128.814 137.744 128.717 138.419 128.792C139.09 128.902 139.698 129.252 140.128 129.778C140.559 130.303 140.783 130.967 140.757 131.646C140.87 132.474 140.883 133.314 140.794 134.145C140.683 135.138 140.216 136.056 139.48 136.732C138.842 137.271 138.032 137.565 137.196 137.56ZM137.867 130.648C137.556 130.682 137.254 130.777 136.98 130.928C136.706 131.079 136.464 131.283 136.27 131.528C135.945 131.849 135.69 132.234 135.521 132.658C135.353 133.082 135.274 133.537 135.29 133.993L135.291 133.997C135.316 134.166 135.368 134.331 135.445 134.484C135.572 134.746 135.751 134.98 135.972 135.17C136.192 135.36 136.45 135.503 136.728 135.59C136.985 135.663 137.256 135.674 137.517 135.622C137.779 135.57 138.025 135.456 138.234 135.289C138.618 134.913 138.856 134.413 138.905 133.878C138.968 133.196 138.952 132.51 138.858 131.832C138.759 130.84 138.58 130.757 138.076 130.667C138.007 130.654 137.937 130.648 137.867 130.648Z" fill="white"/>
<path d="M152.843 137.277C152.469 137.278 152.097 137.211 151.746 137.08C149.706 136.317 150.356 134.153 150.669 133.112L150.803 132.646C150.857 132.437 150.924 132.234 150.991 132.034C151.163 131.522 151.224 131.292 151.134 131.081C151.004 130.77 150.926 130.711 150.912 130.703C150.864 130.67 150.808 130.648 150.751 130.64C150.693 130.631 150.634 130.636 150.578 130.654C150.029 130.932 149.592 131.389 149.339 131.95C148.848 133.187 148.434 134.454 148.1 135.742C148.037 135.975 147.887 136.176 147.682 136.303C147.476 136.43 147.23 136.475 146.993 136.428C146.755 136.381 146.545 136.246 146.403 136.05C146.262 135.854 146.201 135.612 146.231 135.373C146.816 130.912 146.071 130.417 146.064 130.412C145.912 130.446 145.771 130.515 145.652 130.613C145.533 130.712 145.438 130.837 145.377 130.979C144.855 132.109 144.474 133.298 144.244 134.52C144.109 135.09 143.978 135.648 143.829 136.17C143.762 136.396 143.615 136.59 143.415 136.715C143.215 136.84 142.976 136.887 142.743 136.848C142.511 136.807 142.301 136.681 142.156 136.495C142.011 136.309 141.94 136.076 141.958 135.84C141.973 135.645 142.312 131.06 142.799 128.725C142.848 128.494 142.98 128.289 143.171 128.15C143.362 128.011 143.599 127.947 143.834 127.972C144.069 127.997 144.287 128.108 144.445 128.284C144.603 128.459 144.69 128.687 144.689 128.924C144.895 128.783 145.122 128.676 145.361 128.606C145.692 128.496 146.045 128.472 146.387 128.536C146.729 128.6 147.049 128.751 147.317 128.973C147.707 129.332 147.983 129.797 148.113 130.311C148.581 129.62 149.26 129.098 150.049 128.824C150.358 128.731 150.684 128.706 151.005 128.749C151.325 128.793 151.633 128.904 151.906 129.076C152.363 129.381 152.709 129.825 152.894 130.342C153.165 131.09 153.132 131.914 152.801 132.638C152.749 132.794 152.695 132.953 152.653 133.116C152.611 133.283 152.556 133.467 152.498 133.66C152.115 134.933 152.166 135.203 152.414 135.296C152.573 135.353 152.741 135.378 152.909 135.37C153.077 135.361 153.242 135.318 153.393 135.244C154.181 134.853 154.321 133.993 154.485 132.622C154.53 131.615 154.8 130.631 155.275 129.741C155.287 129.723 155.298 129.704 155.311 129.685C155.525 129.188 155.845 128.742 156.25 128.381C156.654 128.019 157.132 127.749 157.652 127.591C158.182 127.468 158.732 127.456 159.268 127.555C159.803 127.653 160.313 127.861 160.764 128.164C160.818 127.949 160.946 127.76 161.125 127.63C161.305 127.5 161.525 127.438 161.746 127.453C161.999 127.469 162.235 127.584 162.403 127.774C162.571 127.963 162.656 128.211 162.641 128.463C162.619 128.818 162.594 129.188 162.559 129.568C162.584 129.602 162.608 129.637 162.631 129.673C162.759 129.867 162.811 130.1 162.778 130.33C162.746 130.559 162.63 130.769 162.454 130.92C162.434 130.937 162.413 130.953 162.39 130.969C162.337 131.308 162.271 131.651 162.191 131.992C162.116 132.642 162.14 133.301 162.261 133.945L162.318 134.232C162.348 134.506 162.427 134.773 162.551 135.019C162.809 135.106 163.085 135.132 163.355 135.097C163.626 135.061 163.885 134.963 164.112 134.812C164.643 134.465 165.04 133.947 165.236 133.344C165.319 133.105 165.493 132.909 165.721 132.799C165.949 132.688 166.212 132.673 166.451 132.756C166.691 132.839 166.887 133.013 166.998 133.241C167.108 133.468 167.124 133.73 167.041 133.969C166.701 134.992 166.016 135.865 165.104 136.44C164.584 136.771 163.987 136.966 163.371 137.004C162.755 137.043 162.139 136.925 161.581 136.66C161.125 136.377 160.79 135.935 160.642 135.42C160.266 135.896 159.777 136.271 159.219 136.513C158.768 136.687 158.283 136.758 157.801 136.719C157.319 136.681 156.852 136.534 156.435 136.289C156.131 136.131 155.862 135.913 155.645 135.648C155.319 136.212 154.83 136.666 154.243 136.951C153.808 137.166 153.329 137.277 152.843 137.277ZM156.985 130.621C156.935 130.743 156.894 130.87 156.862 130.998C156.524 132.345 156.652 134.253 157.317 134.6C157.487 134.717 157.682 134.791 157.887 134.817C158.091 134.844 158.299 134.82 158.493 134.75C159.339 134.18 159.926 133.3 160.127 132.301C160.192 132.095 160.251 131.886 160.303 131.675C160.35 131.211 160.419 130.754 160.488 130.301C160.307 130.155 160.117 130.018 159.921 129.891C159.614 129.772 159.284 129.721 158.954 129.741C158.581 129.729 158.209 129.802 157.868 129.954C157.527 130.107 157.225 130.335 156.985 130.621L156.985 130.621Z" fill="white"/>
<path d="M21.832 183.379L24.2259 153.363L231.755 150.302L234.149 153.363V186.44H24.2259L21.832 183.379ZM217.509 171.147C218.528 171.147 219.524 170.845 220.371 170.28C221.218 169.715 221.878 168.912 222.268 167.973C222.658 167.034 222.76 166 222.561 165.003C222.362 164.006 221.872 163.09 221.152 162.371C220.431 161.652 219.513 161.162 218.514 160.964C217.515 160.766 216.48 160.868 215.538 161.257C214.597 161.646 213.793 162.305 213.227 163.15C212.661 163.995 212.359 164.989 212.359 166.006C212.359 166.681 212.492 167.349 212.751 167.973C213.01 168.597 213.389 169.164 213.867 169.641C214.346 170.118 214.913 170.497 215.538 170.755C216.163 171.014 216.833 171.147 217.509 171.147Z" fill="#2435A1"/>
<path d="M21.832 150.302H231.755V183.379H21.832V150.302ZM215.506 173.146C216.525 173.146 217.521 172.844 218.368 172.28C219.215 171.715 219.875 170.912 220.265 169.973C220.655 169.033 220.757 168 220.558 167.002C220.359 166.005 219.868 165.089 219.148 164.37C218.428 163.651 217.51 163.162 216.511 162.964C215.512 162.765 214.476 162.867 213.535 163.256C212.594 163.645 211.789 164.304 211.223 165.149C210.658 165.995 210.355 166.989 210.355 168.005C210.355 168.68 210.489 169.349 210.748 169.973C211.006 170.596 211.386 171.163 211.864 171.64C212.342 172.118 212.91 172.496 213.535 172.755C214.16 173.013 214.83 173.146 215.506 173.146Z" fill="#49B3F7"/>
<path d="M220.514 169.165C220.254 170.296 219.617 171.306 218.707 172.029C217.797 172.752 216.669 173.146 215.506 173.146C214.343 173.146 213.215 172.752 212.305 172.029C211.395 171.306 210.759 170.296 210.499 169.165H21.832V183.379H231.755V169.165H220.514Z" fill="#378FDD"/>
<path d="M195.082 150.302H191.613V166.84H195.082V150.302Z" fill="white"/>
<path d="M165.043 150.302H161.574V166.84H165.043V150.302Z" fill="white"/>
<path d="M135.005 150.302H131.536V166.84H135.005V150.302Z" fill="white"/>
<path d="M104.965 150.302H101.497V166.84H104.965V150.302Z" fill="white"/>
<path d="M74.9264 150.302H71.458V166.84H74.9264V150.302Z" fill="white"/>
<path d="M44.8873 150.302H41.4189V166.84H44.8873V150.302Z" fill="white"/>
<path d="M180.155 150.302H176.687V161.372H180.155V150.302Z" fill="white"/>
<path d="M150.117 150.302H146.648V161.372H150.117V150.302Z" fill="white"/>
<path d="M120.078 150.302H116.609V161.372H120.078V150.302Z" fill="white"/>
<path d="M90.0387 150.302H86.5703V161.372H90.0387V150.302Z" fill="white"/>
<path d="M59.9996 150.302H56.5312V161.372H59.9996V150.302Z" fill="white"/>
<path d="M203.391 36.2843H176.688V168.784H203.391V36.2843Z" fill="#E94B36"/>
<path d="M196.038 36.2843H184.4V168.784H196.038V36.2843Z" fill="#FF6551"/>
<path d="M203.391 36.2843H196.038V168.784H203.391V36.2843Z" fill="#E94B36"/>
<path d="M203.391 168.784H176.688L188.082 197.268C188.273 197.743 188.603 198.15 189.029 198.435C189.455 198.719 189.958 198.868 190.471 198.862C190.984 198.856 191.483 198.694 191.902 198.399C192.321 198.105 192.641 197.69 192.82 197.21L203.391 168.784Z" fill="#FFBF94"/>
<path d="M196.959 186.08H183.607L188.083 197.268C188.273 197.743 188.603 198.15 189.029 198.435C189.456 198.719 189.959 198.868 190.471 198.862C190.984 198.856 191.483 198.694 191.903 198.4C192.322 198.105 192.642 197.69 192.82 197.21L196.959 186.08Z" fill="#5B5B5C"/>
<path d="M203.391 36.2843H176.688V42.5161H203.391V36.2843Z" fill="#2435A1"/>
<path d="M182.525 25.0001H197.553C199.102 25.0001 200.586 25.614 201.681 26.7066C202.776 27.7993 203.391 29.2812 203.391 30.8265V36.2842H176.688V30.8265C176.688 29.2812 177.303 27.7993 178.397 26.7066C179.492 25.614 180.977 25.0001 182.525 25.0001Z" fill="#F7A845"/>
</g>
<defs>
<filter id="filter0_d_3521_2773" x="0" y="0" width="255" height="225" filterUnits="userSpaceOnUse" color-interpolation-filters="sRGB">
<feFlood flood-opacity="0" result="BackgroundImageFix"/>
<feColorMatrix in="SourceAlpha" type="matrix" values="0 0 0 0 0 0 0 0 0 0 0 0 0 0 0 0 0 0 127 0" result="hardAlpha"/>
<feOffset dy="4"/>
<feGaussianBlur stdDeviation="2"/>
<feComposite in2="hardAlpha" operator="out"/>
<feColorMatrix type="matrix" values="0 0 0 0 0 0 0 0 0 0 0 0 0 0 0 0 0 0 0.25 0"/>
<feBlend mode="normal" in2="BackgroundImageFix" result="effect1_dropShadow_3521_2773"/>
<feBlend mode="normal" in="SourceGraphic" in2="effect1_dropShadow_3521_2773" result="shape"/>
</filter>
</defs>
</svg>
