<svg width="256" height="225" viewBox="0 0 256 225" fill="none" xmlns="http://www.w3.org/2000/svg">
<g filter="url(#filter0_d_3521_2776)">
<path d="M209.648 197.705C197.488 204.865 181.766 201.81 167.496 203.373C155.437 204.694 144.164 209.427 132.621 212.95C121.078 216.472 108.429 218.785 96.9054 215.208C88.9892 212.751 82.3128 207.727 74.8631 204.218C65.8733 199.984 55.8831 198.009 46.5018 194.599C37.1204 191.188 27.8584 185.844 23.5029 177.354C18.2655 167.144 21.2756 155.015 19.296 143.842C17.0617 131.232 8.56551 120.344 5.00939 108.003C2.49695 99.2844 5.10376 88.9957 8.13984 80.5354C11.348 71.5956 20.2661 61.5518 28.8597 56.3498C31.6634 54.6527 34.4323 52.9525 37.0803 51.0326C38.2405 50.1913 44.3458 46.5115 44.3458 45.1793C51.2007 38.9963 55.3152 31.1116 61.2719 24.2644C67.4524 17.1599 76.4989 12.5568 85.9868 10.2993C94.578 8.22717 103.367 7.08147 112.203 6.88183C121.693 6.73438 130.897 7.5614 140.054 4.50722C141.976 3.866 143.841 3.08125 145.758 2.42396C158.704 -2.01317 176.04 -0.0698025 188.142 5.90422C192.76 8.18378 196.624 11.578 200.348 15.0027C204.968 19.0604 209.006 23.7344 212.347 28.8928C215.405 33.8688 216.374 39.808 220.27 44.4786C222.886 47.6151 225.461 51.0606 228.054 54.0858C232.062 58.7605 238.233 61.007 242.044 66.101C245.88 71.2285 247.704 77.4893 248.967 83.5572C250.584 91.326 251.49 99.2904 250.624 107.164C249.237 119.761 242.162 129.126 234.929 139.377C232.52 142.792 230.098 146.327 229.173 150.326C228.802 152.244 228.575 154.187 228.493 156.138C228.047 161.824 226.518 167.062 225.366 172.572C223.343 182.249 218.917 192.248 209.648 197.705Z" fill="#EFF2FD"/>
<path d="M51.001 70.9427L50.8873 66.8024C50.871 66.2135 51.2192 65.7323 51.6546 65.7417L79.0707 66.3397C79.4843 66.3487 79.824 66.7988 79.8394 67.3583L80.0008 73.2345L51.001 70.9427Z" fill="#545554"/>
<path d="M82.2515 71.825L82.0551 67.5785C82.0306 67.0495 82.3355 66.6112 82.7269 66.6124L110.305 66.6987C110.677 66.6999 110.99 67.0987 111.013 67.6012L111.289 73.5748L82.2515 71.825Z" fill="#545554"/>
<path d="M111.959 176.792L112.399 181.02C112.454 181.547 112.175 182.002 111.784 182.023L84.2469 183.519C83.8756 183.54 83.5402 183.159 83.4881 182.659L82.8682 176.711L111.959 176.792Z" fill="#545554"/>
<path d="M31.9199 181.808L33.7397 181.747L39.8999 181.54L60.1943 180.864L115.245 179.016L158.018 177.587L163.894 177.392H163.898L220.251 175.502V71.8845L219.152 71.8686L170.839 71.3027L71.9089 70.133L66.7712 70.0721L31.9199 69.6592V181.808Z" fill="#5B5B5C"/>
<path d="M212.449 170L39.7256 175.609V75.8566L212.449 77.835V170Z" fill="#49B3F7"/>
<path d="M42.6719 143.204V113.16C42.6719 111.915 41.6612 110.906 40.4145 110.906H38.9096C37.6629 110.906 36.6522 111.915 36.6522 113.16V143.204C36.6522 144.449 37.6629 145.458 38.9096 145.458H40.4145C41.6612 145.458 42.6719 144.449 42.6719 143.204Z" fill="#5B5B5C"/>
<g style="mix-blend-mode:multiply" opacity="0.15">
<path d="M118.515 178.907L220.251 175.503V101.959C207.766 125.733 183.196 155.49 118.515 178.907Z" fill="#00879F"/>
</g>
<g style="mix-blend-mode:screen" opacity="0.28">
<path d="M31.9199 181.808L33.7395 181.747C84.9301 142.788 135.123 101.959 170.839 71.3031L31.9199 69.6588V181.808Z" fill="#BFE6F6"/>
</g>
<path d="M248.705 157.483C189.584 158.402 130.463 159.254 71.3403 160.037C70.4138 160.01 69.5361 159.617 68.8987 158.945C68.2613 158.274 67.9161 157.377 67.9384 156.452C67.3482 116.104 67.2985 75.7573 67.7894 35.4127C67.7647 34.4879 68.1078 33.591 68.7436 32.9179C69.3794 32.2448 70.2562 31.8503 71.1825 31.8206C130.306 32.4762 189.429 33.1912 248.552 33.9657C249.459 33.9982 250.316 34.3888 250.935 35.0516C251.554 35.7144 251.884 36.5953 251.853 37.5009C251.381 76.3167 251.429 115.129 251.998 153.939C252.031 154.845 251.703 155.726 251.086 156.391C250.468 157.055 249.612 157.448 248.705 157.483Z" fill="#243976"/>
<path d="M161.243 161.607C159.512 161.633 158.647 161.646 156.916 161.672C154.856 161.632 152.897 160.779 151.467 159.299C150.037 157.818 149.253 155.832 149.288 153.776C149.276 153.511 149.316 153.245 149.406 152.995C149.497 152.745 149.635 152.515 149.815 152.318C149.994 152.122 150.21 151.962 150.451 151.849C150.692 151.736 150.953 151.672 151.219 151.659C157.385 151.58 160.467 151.541 166.633 151.461C167.17 151.471 167.681 151.694 168.054 152.08C168.427 152.465 168.632 152.983 168.623 153.519C168.717 155.568 167.992 157.57 166.609 159.087C165.225 160.603 163.295 161.51 161.243 161.607Z" fill="#243976"/>
<path d="M246.357 154.317C187.236 155.191 128.114 156 68.9908 156.745C68.0642 156.716 67.1866 156.323 66.5497 155.651C65.9128 154.978 65.5684 154.081 65.5917 153.156C65.0314 112.79 65.0118 72.426 65.533 32.0644C65.5088 31.1393 65.8524 30.2423 66.4887 29.5694C67.1249 28.8964 68.0021 28.5021 68.9287 28.4727C128.052 29.1637 187.175 29.9175 246.297 30.7342C247.204 30.7677 248.061 31.1592 248.68 31.8228C249.298 32.4864 249.628 33.3678 249.596 34.2736C249.094 73.1099 249.113 111.943 249.653 150.774C249.685 151.68 249.357 152.562 248.739 153.226C248.121 153.89 247.264 154.283 246.357 154.317Z" fill="#864FF1"/>
<path d="M158.891 158.378C158.08 158.39 157.674 158.395 156.863 158.407C154.803 158.366 152.844 157.511 151.415 156.03C149.987 154.548 149.205 152.562 149.241 150.506C149.217 149.97 149.406 149.445 149.769 149.049C150.131 148.652 150.636 148.415 151.174 148.39C156.42 148.327 159.043 148.295 164.289 148.231C164.826 148.242 165.337 148.465 165.71 148.851C166.083 149.237 166.287 149.755 166.278 150.291C166.37 152.341 165.644 154.343 164.26 155.859C162.875 157.375 160.944 158.281 158.891 158.378Z" fill="#864FF1"/>
<path d="M246.357 154.317C216.512 154.758 186.666 155.184 156.82 155.595C156.203 113.574 156.183 71.5565 156.759 29.5416C186.605 29.9243 216.451 30.3218 246.297 30.7341C247.204 30.7676 248.061 31.1591 248.679 31.8227C249.298 32.4863 249.627 33.3677 249.595 34.2736C249.093 73.1099 249.112 111.943 249.652 150.774C249.685 151.68 249.357 152.562 248.739 153.226C248.121 153.89 247.264 154.283 246.357 154.317Z" fill="#864FF1"/>
<path d="M245.275 148.519C187.466 149.295 129.656 150.016 71.8453 150.68C70.6963 109.954 70.0988 69.2224 70.0527 28.4856C71.5017 25.3654 72.2276 23.8062 73.6819 20.6899C101.817 29.4061 129.989 38.0018 158.196 46.4768C186.524 38.5419 214.893 30.7592 243.304 23.1286C244.498 26.1731 245.096 27.6942 246.296 30.7341C245.417 69.9939 245.076 109.256 245.275 148.519Z" fill="#ECB891"/>
<path d="M73.6834 20.6899C73.0242 63.26 72.9676 105.828 73.5136 148.393C101.792 148.08 130.07 147.755 158.348 147.418C157.852 108.497 157.865 69.5785 158.386 30.6627C158.49 28.4029 157.692 26.1943 156.166 24.5213C154.641 22.8484 152.513 21.8478 150.249 21.739C124.727 21.3775 99.2054 21.0278 73.6834 20.6899Z" fill="#FFF2EA"/>
<path d="M149.985 139.593C124.462 139.853 98.9389 140.105 73.4158 140.349C73.4158 140.349 72.2841 147.085 71.8467 150.68C99.4574 150.374 130.622 150.074 158.306 149.645V147.418C158.139 145.316 157.195 143.351 155.657 141.904C154.119 140.458 152.097 139.635 149.985 139.593Z" fill="#FFD7BD"/>
<path d="M243.305 23.1286C242.664 64.2078 242.609 105.285 243.139 146.36C214.861 146.724 186.584 147.077 158.305 147.418C157.809 108.497 157.822 69.5783 158.343 30.6621C158.305 28.3993 159.168 26.2138 160.742 24.5852C162.316 22.9567 164.474 22.0183 166.74 21.9761C192.262 22.3484 217.783 22.7326 243.305 23.1286Z" fill="#FFE0CC"/>
<path d="M158.344 30.6621C157.822 69.5833 157.809 108.502 158.306 147.418C159.791 144.797 160.535 143.487 162.024 140.87C161.576 101.682 161.651 62.4966 162.25 23.3152C162.25 23.3152 158.787 24.5664 158.344 30.6621Z" fill="#FFCFB3"/>
<path d="M166.476 139.423C191.999 139.156 217.522 138.88 243.044 138.597L245.275 148.519C217.012 148.884 186.612 147.077 158.348 147.418C158.461 145.314 159.357 143.328 160.861 141.849C162.364 140.37 164.367 139.505 166.476 139.423Z" fill="#ECB891"/>
<path d="M243.474 140.433C226.255 141.154 208.638 141.878 191.419 142.603C208.649 142.767 226.851 142.923 244.081 143.072L243.474 140.433Z" fill="#DA9E7B"/>
<path d="M244.513 145.123C231.773 145.657 218.205 146.192 205.465 146.729C218.213 146.85 232.203 146.966 244.951 147.076L244.513 145.123Z" fill="#DA9E7B"/>
<path d="M73.1915 141.704C93.5892 141.953 114.245 142.192 134.643 142.421C114.256 143.093 93.1631 143.613 72.7764 144.285L73.1915 141.704Z" fill="#ECB891"/>
<path d="M72.4415 146.443C86.9904 146.621 102.547 146.791 117.096 146.954C102.555 147.434 86.6944 147.914 72.1533 148.393L72.4415 146.443Z" fill="#ECB891"/>
<path d="M90.6575 132.167C90.3475 98.3476 90.4199 64.037 90.8707 30.1892L92.4023 30.2087C91.9515 64.0458 91.8801 98.3447 92.1891 132.153L90.6575 132.167Z" fill="#49B3F7"/>
<path d="M131.402 131.829C131.094 98.2538 131.165 64.2196 131.614 30.6735L133.145 30.693C132.697 64.2284 132.626 98.2509 132.933 131.816L131.402 131.829Z" fill="#49B3F7"/>
<path d="M151.333 43.7953C127.535 43.5629 103.738 43.337 79.9404 43.1175L79.9541 41.5883C103.753 41.807 127.551 42.0329 151.348 42.266L151.333 43.7953Z" fill="#49B3F7"/>
<path d="M151.173 62.5409C127.374 62.4003 103.576 62.2639 79.7783 62.1317L79.7861 60.6024C103.585 60.7343 127.383 60.8706 151.182 61.0116L151.173 62.5409Z" fill="#49B3F7"/>
<path d="M79.7012 79.6161L79.6982 81.1454L151.094 81.285L151.097 79.7557L79.7012 79.6161Z" fill="#49B3F7"/>
<path d="M151.092 98.5198L79.6953 98.6108L79.6973 100.14L151.094 100.049L151.092 98.5198Z" fill="#49B3F7"/>
<path d="M79.7793 119.172L79.7715 117.643C103.57 117.514 127.368 117.381 151.166 117.245L151.175 118.774C127.376 118.911 103.577 119.043 79.7793 119.172Z" fill="#49B3F7"/>
<path d="M139.67 61.0145C138.352 61.0044 137.068 60.5918 135.991 59.8322C135.867 59.7459 135.762 59.6361 135.681 59.5092C135.599 59.3822 135.544 59.2405 135.518 59.0922C135.464 58.7927 135.533 58.4843 135.707 58.235C135.882 57.9856 136.148 57.8157 136.448 57.7626C136.749 57.7095 137.057 57.7776 137.307 57.9518C137.779 58.2976 138.321 58.5338 138.896 58.6433C139.47 58.7527 140.062 58.7326 140.628 58.5845C141.177 58.4102 141.673 58.0969 142.065 57.675C142.458 57.2532 142.735 56.7371 142.868 56.177C142.937 55.8541 142.912 55.5185 142.796 55.2094C142.68 54.9002 142.479 54.6304 142.215 54.4314C141.618 53.8952 140.914 53.491 140.149 53.2452C139.385 52.9994 138.577 52.9175 137.779 53.005C137.592 53.0523 137.396 53.0518 137.21 53.0038C137.023 52.9557 136.852 52.8616 136.711 52.73C136.57 52.5984 136.465 52.4337 136.405 52.2509C136.345 52.0681 136.332 51.8732 136.367 51.6841C136.691 50.2241 136.844 48.7314 136.823 47.2361C136.816 47.0768 136.842 46.9178 136.899 46.769C136.957 46.6203 137.045 46.4851 137.158 46.3721C137.269 46.2575 137.404 46.1682 137.553 46.1102C137.702 46.0523 137.862 46.027 138.022 46.0363L143.771 46.2901C144.076 46.3036 144.362 46.4372 144.568 46.6617C144.774 46.8862 144.882 47.1831 144.868 47.4871C144.855 47.791 144.721 48.0772 144.496 48.2827C144.271 48.4881 143.974 48.5959 143.669 48.5825L139.12 48.3813C139.082 49.1445 139.001 49.9049 138.878 50.659C140.714 50.8039 142.45 51.5512 143.816 52.7844C144.356 53.2608 144.76 53.8711 144.988 54.5536C145.216 55.236 145.26 55.9665 145.114 56.671C144.84 57.9068 144.151 59.0117 143.16 59.802C142.17 60.5922 140.938 61.0201 139.67 61.0145L139.67 61.0145Z" fill="#FF6551"/>
<path d="M153.589 54.0024H153.58L147.314 53.9536C147.011 53.9511 146.72 53.8285 146.506 53.6126C146.293 53.3968 146.174 53.1052 146.175 52.8018C146.176 52.4983 146.297 52.2077 146.513 51.9935C146.728 51.7793 147.019 51.6589 147.323 51.6587H147.332L153.597 51.7075C153.901 51.71 154.192 51.8327 154.405 52.0485C154.619 52.2644 154.738 52.5559 154.737 52.8594C154.736 53.1628 154.614 53.4534 154.399 53.6676C154.184 53.8819 153.892 54.0022 153.589 54.0024Z" fill="#FF6551"/>
<path d="M150.315 57.4372H150.306C150.156 57.4361 150.006 57.4053 149.867 57.3466C149.728 57.2879 149.602 57.2024 149.496 57.0951C149.39 56.9877 149.307 56.8606 149.25 56.721C149.193 56.5814 149.165 56.432 149.166 56.2813L149.224 49.501C149.224 49.3499 149.254 49.2003 149.312 49.0609C149.37 48.9215 149.456 48.7951 149.564 48.6893C149.672 48.5834 149.8 48.5002 149.941 48.4444C150.082 48.3887 150.232 48.3615 150.384 48.3646C150.535 48.366 150.684 48.3971 150.823 48.456C150.962 48.515 151.087 48.6007 151.193 48.7082C151.299 48.8157 151.382 48.943 151.439 49.0827C151.495 49.2224 151.524 49.3718 151.522 49.5225L151.464 56.2989C151.462 56.6016 151.34 56.8911 151.125 57.1044C150.91 57.3176 150.619 57.4372 150.315 57.4372Z" fill="#FF6551"/>
<path d="M141.709 98.6326C140.406 98.6224 139.136 98.2199 138.065 97.4776C137.815 97.3049 137.643 97.04 137.588 96.7413C137.533 96.4425 137.599 96.1342 137.772 95.8839C137.944 95.6337 138.209 95.4619 138.508 95.4064C138.807 95.3508 139.117 95.416 139.368 95.5875C139.842 95.9296 140.386 96.1616 140.962 96.2665C141.537 96.3714 142.128 96.3466 142.693 96.1938C143.241 96.0158 143.733 95.6992 144.122 95.2747C144.511 94.8502 144.783 94.3324 144.912 93.7717C144.977 93.4483 144.949 93.1132 144.83 92.8054C144.712 92.4976 144.508 92.2296 144.243 92.0329C143.642 91.5005 142.934 91.1012 142.167 90.8614C141.4 90.6216 140.591 90.5467 139.793 90.6417C139.607 90.6903 139.411 90.6913 139.224 90.6447C139.038 90.5981 138.865 90.5054 138.724 90.375C138.582 90.2446 138.476 90.0808 138.415 89.8986C138.353 89.7165 138.338 89.5218 138.372 89.3325C138.683 87.8703 138.824 86.377 138.79 84.8826C138.781 84.7233 138.805 84.5639 138.861 84.4146C138.918 84.2652 139.005 84.1293 139.116 84.0154C139.228 83.9015 139.363 83.8123 139.511 83.7533C139.66 83.6943 139.819 83.6669 139.979 83.6729L145.731 83.8829C145.882 83.8883 146.03 83.9233 146.167 83.986C146.304 84.0486 146.428 84.1377 146.531 84.248C146.633 84.3584 146.713 84.4879 146.766 84.6291C146.818 84.7703 146.842 84.9205 146.837 85.071C146.821 85.3733 146.688 85.6577 146.466 85.8638C146.244 86.0699 145.95 86.1816 145.647 86.1752L141.096 86.0092C141.065 86.772 140.991 87.5325 140.874 88.2869C142.711 88.4172 144.454 89.1504 145.83 90.3722C146.375 90.8439 146.784 91.4506 147.018 92.1311C147.252 92.8115 147.301 93.5415 147.162 94.2471C146.897 95.4926 146.21 96.6089 145.217 97.4078C144.223 98.2066 142.985 98.6392 141.709 98.6326L141.709 98.6326Z" fill="#FF6551"/>
<path d="M125.802 56.828H125.791L98.208 56.6366C97.8026 56.6337 97.4148 56.4704 97.1296 56.1826C96.8444 55.8948 96.6851 55.5058 96.6865 55.101C96.688 54.6961 96.85 54.3083 97.1372 54.0225C97.4244 53.7367 97.8133 53.5761 98.2188 53.576H98.2296L125.813 53.7675C126.219 53.77 126.607 53.933 126.892 54.2209C127.178 54.5088 127.337 54.8979 127.336 55.3031C127.335 55.7082 127.172 56.0963 126.885 56.3821C126.597 56.668 126.208 56.8283 125.802 56.828H125.802Z" fill="#F4C6B1"/>
<path d="M98.078 94.4315C97.6722 94.4306 97.2834 94.2691 96.9967 93.9823C96.71 93.6955 96.549 93.3069 96.5488 92.9017C96.5487 92.4966 96.7095 92.1079 96.996 91.8209C97.2825 91.5339 97.6712 91.3721 98.077 91.371L125.661 91.3563H125.662C126.068 91.3572 126.457 91.5188 126.744 91.8055C127.03 92.0923 127.191 92.4809 127.192 92.8861C127.192 93.2913 127.031 93.68 126.744 93.9669C126.458 94.2539 126.069 94.4157 125.663 94.4169L98.079 94.4315H98.078Z" fill="#F4C6B1"/>
<path d="M175.571 131.448C175.264 98.1661 175.335 64.4452 175.782 31.2202L177.313 31.2417C176.867 64.4539 176.797 98.1641 177.103 131.434L175.571 131.448Z" fill="#47A7E5"/>
<path d="M216.316 131.082C216.014 98.1251 216.084 64.7049 216.524 31.7484L218.056 31.7679C217.617 64.7137 217.546 98.1221 217.847 131.068L216.316 131.082Z" fill="#47A7E5"/>
<path d="M236.245 44.6682C212.447 44.4153 188.65 44.1692 164.853 43.9299L164.868 42.4006C188.666 42.6389 212.463 42.885 236.26 43.1389L236.245 44.6682Z" fill="#47A7E5"/>
<path d="M236.088 63.0682C212.289 62.9149 188.491 62.7661 164.693 62.622L164.703 61.0927C188.501 61.2372 212.299 61.3859 236.097 61.5389L236.088 63.0682Z" fill="#47A7E5"/>
<path d="M164.617 79.7842L164.613 81.3135L236.008 81.4668L236.012 79.9374L164.617 79.7842Z" fill="#47A7E5"/>
<path d="M236.006 98.3153L164.611 98.4973L164.615 100.027L236.01 99.8446L236.006 98.3153Z" fill="#47A7E5"/>
<path d="M164.695 118.696L164.686 117.167C188.484 117.026 212.282 116.882 236.081 116.735L236.091 118.264C212.292 118.412 188.494 118.556 164.695 118.696Z" fill="#47A7E5"/>
<path d="M228.997 80.2278H228.964C228.813 80.2235 228.665 80.1897 228.527 80.1281C228.389 80.0666 228.265 79.9785 228.161 79.869C228.057 79.7595 227.976 79.6307 227.922 79.4899C227.868 79.3491 227.843 79.199 227.847 79.0484C227.906 76.9435 227.966 74.7938 228.082 72.6225C227.083 72.5571 226.071 72.5922 225.015 72.6283C224.267 72.6518 223.515 72.6733 222.756 72.6683C222.574 72.6661 222.396 72.6212 222.236 72.5372C222.076 72.4533 221.937 72.3327 221.832 72.1853C221.728 72.0379 221.659 71.8678 221.633 71.6889C221.606 71.5101 221.622 71.3275 221.68 71.1561C222.36 69.1218 222.627 66.9723 222.465 64.8336C222.442 64.5303 222.54 64.2303 222.739 63.9994C222.937 63.7685 223.22 63.6258 223.523 63.6025C223.827 63.5792 224.128 63.6773 224.359 63.8752C224.591 64.0731 224.734 64.3546 224.758 64.6579C224.902 66.569 224.747 68.4909 224.299 70.3545C224.513 70.3487 224.725 70.3419 224.939 70.335C225.976 70.2999 227.039 70.2657 228.12 70.3262L228.398 68.3356C228.439 68.0384 228.596 67.7693 228.834 67.5859C229.071 67.4025 229.372 67.3194 229.67 67.3544C229.969 67.3894 230.242 67.5397 230.431 67.7731C230.619 68.0065 230.709 68.3044 230.681 68.6031C230.34 72.1372 230.241 75.6831 230.146 79.1128C230.137 79.4112 230.012 79.6945 229.798 79.9027C229.584 80.1108 229.296 80.2274 228.997 80.2278Z" fill="#ED614E"/>
<path d="M226.674 116.961C225.386 116.952 224.128 116.564 223.06 115.846C222.806 115.676 222.63 115.414 222.571 115.115C222.511 114.817 222.573 114.507 222.743 114.254C222.912 114.001 223.175 113.826 223.474 113.766C223.773 113.707 224.083 113.769 224.337 113.938C224.817 114.274 225.365 114.5 225.943 114.601C226.52 114.702 227.113 114.674 227.679 114.521C228.22 114.349 228.708 114.04 229.094 113.624C229.481 113.207 229.753 112.699 229.883 112.146C229.944 111.841 229.916 111.524 229.804 111.233C229.691 110.942 229.498 110.689 229.247 110.503C228.634 109.975 227.916 109.58 227.141 109.342C226.367 109.105 225.551 109.031 224.746 109.125C224.559 109.173 224.364 109.174 224.177 109.127C223.991 109.081 223.819 108.988 223.677 108.858C223.536 108.728 223.429 108.564 223.367 108.382C223.306 108.2 223.291 108.006 223.324 107.817C223.629 106.384 223.763 104.92 223.723 103.455C223.713 103.296 223.737 103.137 223.792 102.987C223.848 102.837 223.934 102.701 224.045 102.587C224.275 102.361 224.585 102.236 224.907 102.239L230.658 102.422C230.809 102.426 230.957 102.461 231.095 102.523C231.232 102.585 231.356 102.673 231.46 102.783C231.563 102.893 231.644 103.022 231.697 103.163C231.751 103.304 231.776 103.454 231.771 103.605C231.766 103.756 231.732 103.904 231.669 104.041C231.607 104.178 231.519 104.302 231.409 104.405C231.299 104.509 231.169 104.589 231.028 104.642C230.887 104.696 230.736 104.721 230.585 104.716L226.033 104.571C226.004 105.308 225.934 106.043 225.823 106.772C227.676 106.897 229.436 107.625 230.834 108.844C231.364 109.303 231.764 109.895 231.992 110.558C232.22 111.221 232.268 111.933 232.133 112.621C231.918 113.574 231.456 114.453 230.793 115.172C230.131 115.89 229.29 116.422 228.356 116.713C227.811 116.879 227.244 116.963 226.674 116.961Z" fill="#ED614E"/>
<path d="M210.609 75.9819H210.603L183.019 75.8853C182.613 75.8838 182.225 75.7216 181.938 75.4342C181.652 75.1469 181.492 74.7579 181.492 74.3525C181.493 73.9472 181.655 73.5587 181.942 73.2723C182.229 72.9858 182.618 72.8249 183.024 72.8247H183.029L210.614 72.9214C211.02 72.9228 211.409 73.0851 211.696 73.3726C211.982 73.66 212.142 74.0492 212.141 74.4546C212.141 74.86 211.979 75.2485 211.691 75.5349C211.404 75.8212 211.015 75.982 210.609 75.9819H210.609Z" fill="#E2B9A7"/>
<path d="M183.045 113.025C182.639 113.025 182.249 112.865 181.961 112.579C181.674 112.292 181.512 111.904 181.511 111.498C181.51 111.093 181.67 110.703 181.957 110.416C182.243 110.128 182.632 109.966 183.038 109.964L210.622 109.837H210.629C211.035 109.836 211.425 109.997 211.713 110.283C212 110.569 212.162 110.958 212.163 111.363C212.164 111.769 212.004 112.158 211.718 112.446C211.431 112.733 211.042 112.896 210.636 112.897L183.052 113.025H183.045Z" fill="#E2B9A7"/>
</g>
<defs>
<filter id="filter0_d_3521_2776" x="0" y="0" width="256" height="225" filterUnits="userSpaceOnUse" color-interpolation-filters="sRGB">
<feFlood flood-opacity="0" result="BackgroundImageFix"/>
<feColorMatrix in="SourceAlpha" type="matrix" values="0 0 0 0 0 0 0 0 0 0 0 0 0 0 0 0 0 0 127 0" result="hardAlpha"/>
<feOffset dy="4"/>
<feGaussianBlur stdDeviation="2"/>
<feComposite in2="hardAlpha" operator="out"/>
<feColorMatrix type="matrix" values="0 0 0 0 0 0 0 0 0 0 0 0 0 0 0 0 0 0 0.25 0"/>
<feBlend mode="normal" in2="BackgroundImageFix" result="effect1_dropShadow_3521_2776"/>
<feBlend mode="normal" in="SourceGraphic" in2="effect1_dropShadow_3521_2776" result="shape"/>
</filter>
</defs>
</svg>
