<svg width="148" height="146" viewBox="0 0 148 146" fill="none" xmlns="http://www.w3.org/2000/svg">
<g filter="url(#filter0_d_3645_769)">
<path d="M145.785 54.1754L136.523 48.8286L139.291 38.4989L128.96 35.7309V25.0373H118.267L115.499 14.7076L105.169 17.4756L99.8223 8.21492L90.5604 13.5617L82.9987 6L75.4361 13.5617L66.1754 8.21492L60.8286 17.4768L50.4989 14.7088L47.7309 25.0396H37.0373V35.7332L26.7076 38.5012L29.4756 48.8309L20.2149 54.1777L25.5617 63.4396L18 71.0013L25.5617 78.5639L20.2149 87.8246L29.4768 93.1714L26.7088 103.501L37.0396 106.269V116.963H47.7332L50.5012 127.292L60.8309 124.524L66.1777 133.785L75.4396 128.438L83.0013 136L90.5639 128.438L99.8246 133.785L105.171 124.523L115.501 127.291L118.269 116.96H128.963V106.267L139.292 103.499L136.524 93.1691L145.785 87.8223L140.438 78.5604L148 70.9987L140.438 63.4361L145.785 54.1754Z" fill="url(#paint0_linear_3645_769)"/>
<path d="M135.557 48.5698L135.359 49.311L136.023 49.6947L144.419 54.5415L139.572 62.9361L139.189 63.6006L139.731 64.1432L146.586 70.9987L139.731 77.8533L139.189 78.3959L139.572 79.0604L144.419 87.4562L136.024 92.303L135.36 92.6867L135.558 93.4279L138.068 102.792L128.704 105.301L127.963 105.499V106.267V115.96H118.269H117.502L117.303 116.702L114.794 126.067L105.43 123.557L104.689 123.359L104.305 124.023L99.4585 132.419L91.0639 127.572L90.3994 127.189L89.8568 127.731L83.0014 134.586L76.1467 127.731L75.6041 127.189L74.9396 127.572L66.5438 132.419L61.697 124.024L61.3133 123.36L60.5721 123.558L51.2083 126.068L48.6991 116.704L48.5005 115.963H47.7332H38.0396V106.269V105.502L37.2984 105.303L27.9335 102.794L30.4427 93.4302L30.6413 92.689L29.9767 92.3053L21.581 87.4585L26.4277 79.0639L26.8114 78.3994L26.2689 77.8568L19.4142 71.0014L26.2688 64.1467L26.8114 63.6041L26.4278 62.9396L21.5809 54.5438L29.9756 49.697L30.6401 49.3133L30.4415 48.5721L27.9323 39.2083L37.2961 36.6991L38.0373 36.5005V35.7332V26.0396H47.7309H48.4982L48.6968 25.2984L51.206 15.9335L60.5698 18.4427L61.311 18.6413L61.6947 17.9767L66.5415 9.58097L74.9361 14.4277L75.6006 14.8114L76.1432 14.2689L82.9987 7.41417L89.8533 14.2688L90.3959 14.8114L91.0604 14.4278L99.4562 9.5809L104.303 17.9756L104.687 18.6402L105.428 18.4415L114.792 15.9323L117.301 25.2961L117.499 26.0373H118.267H127.96V35.7309V36.4982L128.702 36.6968L138.066 39.206L135.557 48.5698Z" stroke="white" stroke-opacity="0.8" stroke-width="2"/>
<path d="M73.795 46.0724C73.669 46.2907 73.6246 46.5075 73.6688 46.7109C73.7061 46.9264 73.8529 47.092 74.0954 47.232C74.3137 47.358 74.5305 47.4024 74.7479 47.3339C74.9461 47.2705 75.1239 47.1307 75.2499 46.9124L79.2189 40.0379C79.3449 39.8197 79.3701 39.6079 79.3329 39.3924C79.2835 39.1699 79.1437 38.9922 78.9254 38.8662C78.6829 38.7262 78.4591 38.6939 78.2538 38.7694C78.0486 38.8449 77.89 38.9797 77.764 39.1979L76.21 41.8895L72.3544 39.6635L73.9084 36.9719C74.0344 36.7537 74.0597 36.5419 74.0224 36.3264C73.9731 36.1039 73.8332 35.9262 73.615 35.8002C73.3725 35.6602 73.1486 35.6279 72.9434 35.7034C72.7381 35.7789 72.5795 35.9137 72.4535 36.1319L68.4845 43.0064C68.3585 43.2247 68.3141 43.4415 68.3584 43.6449C68.3956 43.8604 68.5425 44.026 68.785 44.166C69.0032 44.292 69.2201 44.3364 69.4374 44.2679C69.6357 44.2045 69.8134 44.0647 69.9394 43.8464L71.6054 40.9608L75.461 43.1868L73.795 46.0724ZM82.2326 51.1702C82.1775 51.4617 82.2198 51.6963 82.3336 51.8913C82.4473 52.0863 82.6534 52.2053 82.9328 52.2534C83.1688 52.2927 83.3792 52.2363 83.5537 52.0461C83.7212 51.868 83.821 51.667 83.8412 51.4361L85.0113 42.9134C85.0618 42.4899 84.9243 42.168 84.6091 41.986C84.2696 41.79 83.896 41.8491 83.5265 42.1531L76.8505 47.4162C76.3625 47.8135 76.2393 48.1949 76.519 48.5504C76.8677 49.0104 77.3141 48.9933 77.8562 48.5303L79.4737 47.1848L82.5896 48.9838L82.2326 51.1702ZM83.4234 43.8718L82.8354 47.6061L80.5197 46.2691L83.4234 43.8718ZM90.4241 50.3709C89.5799 50.4331 88.8911 50.3102 88.3333 49.9882C87.8484 49.7082 87.5789 49.391 87.5077 49.0104C87.4364 48.6298 87.5863 48.1182 87.9503 47.4877L88.9933 45.6812C89.1123 45.4751 89.1445 45.2512 89.1073 45.0357C89.0701 44.8202 88.9302 44.6425 88.6998 44.5095C88.4695 44.3765 88.2456 44.3442 88.0404 44.4197C87.823 44.4882 87.6574 44.6351 87.5384 44.8412L86.4534 46.7204C85.8234 47.8116 85.6076 48.6893 85.7991 49.3657C85.9906 50.0421 86.5263 50.6262 87.3992 51.1302C88.1267 51.5502 88.8813 51.7272 89.6751 51.6682L88.1281 54.3477C88.0021 54.5659 87.9578 54.7828 88.002 54.9862C88.0392 55.2016 88.1861 55.3673 88.4286 55.5073C88.659 55.6403 88.8758 55.6846 89.0811 55.6092C89.2793 55.5458 89.4571 55.4059 89.5831 55.1877L93.5521 48.3132C93.6781 48.0949 93.7033 47.8832 93.6661 47.6677C93.6288 47.4522 93.489 47.2745 93.2586 47.1415C93.0161 47.0015 92.7922 46.9692 92.587 47.0447C92.3818 47.1202 92.2231 47.2549 92.0971 47.4732L90.4241 50.3709ZM96.5711 59.4485C96.5159 59.74 96.5583 59.9746 96.6721 60.1696C96.7858 60.3646 96.9919 60.4836 97.2713 60.5318C97.5073 60.571 97.7176 60.5146 97.8921 60.3244C98.0596 60.1463 98.1595 59.9453 98.1796 59.7144L99.3498 51.1917C99.4003 50.7682 99.2628 50.4463 98.9476 50.2643C98.6081 50.0683 98.2345 50.1274 97.865 50.4314L91.189 55.6946C90.701 56.0918 90.5778 56.4733 90.8575 56.8288C91.2062 57.2888 91.6526 57.2716 92.1947 56.8087L93.8122 55.4631L96.9281 57.2621L96.5711 59.4485ZM97.7618 52.1501L97.1739 55.8844L94.8581 54.5474L97.7618 52.1501ZM105.247 54.0631C105.029 53.9371 104.829 53.9189 104.631 53.9823C104.433 54.0456 104.255 54.1855 104.122 54.4159C102.52 57.0795 101.293 58.8122 100.449 59.6021C99.9643 60.0497 99.5556 60.1694 99.2162 59.9734C98.8161 59.7424 98.5017 59.7549 98.2609 60.0039C98.0342 60.2286 97.9497 60.487 98.0144 60.7668C98.0671 61.0397 98.2727 61.2716 98.6122 61.4676C99.0608 61.7266 99.5467 61.7808 100.065 61.6112C100.576 61.4537 101.066 61.1381 101.538 60.6835C102.552 59.6844 103.748 58.0313 105.141 55.7315L107.384 57.0265L103.73 63.3554C103.604 63.5736 103.56 63.7905 103.604 63.9938C103.641 64.2093 103.788 64.375 104.03 64.515C104.261 64.648 104.478 64.6923 104.683 64.6168C104.881 64.5535 105.059 64.4136 105.185 64.1954L109.154 57.3209C109.28 57.1026 109.305 56.8909 109.268 56.6754C109.231 56.4599 109.091 56.2821 108.86 56.1491L105.247 54.0631ZM108.53 61.5357C107.802 62.7967 107.54 64.0354 107.769 65.2346C107.998 66.4338 108.749 67.4009 110.022 68.1359C111.283 68.8639 112.496 69.0308 113.661 68.6366C114.814 68.2354 115.768 67.3957 116.496 66.1347C117.217 64.8859 117.46 63.6523 117.238 62.441C116.997 61.2348 116.253 60.2556 114.992 59.5276C113.719 58.7926 112.499 58.6378 111.346 59.039C110.186 59.4523 109.251 60.2869 108.53 61.5357ZM110.058 62.4177C110.562 61.5448 111.188 60.9363 111.934 60.6236C112.681 60.3109 113.455 60.3699 114.243 60.8249C115.031 61.2799 115.469 61.9209 115.572 62.7236C115.674 63.5263 115.472 64.3798 114.968 65.2527C114.457 66.1378 113.819 66.7393 113.073 67.052C112.326 67.3647 111.559 67.2936 110.771 66.8386C109.983 66.3836 109.538 65.7547 109.435 64.952C109.333 64.1493 109.547 63.3028 110.058 62.4177ZM56.0168 58.3202C55.5076 58.0262 55.025 57.6021 54.5811 57.0549C54.1475 56.5459 53.7731 56.4105 53.4456 56.6417C53.2347 56.811 53.1297 56.9929 53.1166 57.2116C53.0913 57.4233 53.1528 57.6528 53.308 57.8879C53.7029 58.5201 54.3585 59.0925 55.2799 59.6245C56.2256 60.1705 57.1327 60.4194 57.9909 60.333C58.8491 60.2465 59.5494 59.7616 60.0744 58.8523C60.3404 58.3916 60.438 57.9145 60.3673 57.421C60.2895 56.9396 60.0588 56.4993 59.6508 56.0859C60.1541 56.1663 60.6042 56.0867 61.0184 55.8732C61.4205 55.6527 61.7466 55.3399 61.9776 54.9398C62.3836 54.2365 62.444 53.544 62.1518 52.8741C61.8596 52.2042 61.2926 51.6183 60.4318 51.1213C59.5588 50.6173 58.7213 50.36 57.926 50.3374C57.6378 50.3326 57.4274 50.389 57.2567 50.5167C57.0859 50.6444 56.9879 50.8142 56.9869 51.0399C56.9523 51.4079 57.2395 51.6384 57.8468 51.7627C58.5407 51.9047 59.1129 52.0896 59.5373 52.3346C60.0102 52.6076 60.2988 52.9197 60.4292 53.2537C60.5527 53.5998 60.52 53.9365 60.324 54.276C60.086 54.6882 59.7655 54.9073 59.3555 54.9455C58.9385 54.9957 58.4824 54.8617 57.9732 54.5677L57.2215 54.1337C57.0396 54.0287 56.8591 54.0053 56.694 54.0393C56.5219 54.0854 56.3964 54.1908 56.2984 54.3605C56.1934 54.5424 56.1579 54.7159 56.211 54.8759C56.2641 55.0359 56.3816 55.1684 56.5635 55.2734L57.4728 55.7984C58.6227 56.4946 58.9737 57.2307 58.5257 58.0067C58.2737 58.4432 57.9271 58.6795 57.498 58.7228C57.0498 58.7711 56.5624 58.6352 56.0168 58.3202ZM65.5015 64.6045C65.4463 64.896 65.4887 65.1306 65.6024 65.3256C65.7162 65.5206 65.9223 65.6396 66.2017 65.6877C66.4376 65.727 66.648 65.6706 66.8225 65.4804C66.99 65.3023 67.0899 65.1013 67.11 64.8704L68.2802 56.3476C68.3307 55.9242 68.1932 55.6023 67.8779 55.4203C67.5385 55.2243 67.1649 55.2834 66.7954 55.5874L60.1194 60.8505C59.6314 61.2477 59.5081 61.6292 59.7879 61.9847C60.1366 62.4447 60.583 62.4276 61.1251 61.9646L62.7425 60.6191L65.8585 62.4181L65.5015 64.6045ZM66.6922 57.3061L66.1043 61.0404L63.7885 59.7034L66.6922 57.3061ZM73.0599 68.7421C72.9339 68.9603 72.8895 69.1772 72.9338 69.3805C72.971 69.596 73.1179 69.7616 73.3604 69.9016C73.5786 70.0276 73.7955 70.072 74.0128 70.0035C74.2111 69.9402 74.3888 69.8003 74.5148 69.5821L78.4838 62.7075C78.6098 62.4893 78.6351 62.2776 78.5978 62.0621C78.5485 61.8396 78.4086 61.6618 78.1904 61.5358C77.9479 61.3958 77.724 61.3636 77.5188 61.4391C77.3135 61.5146 77.1549 61.6493 77.0289 61.8675L75.4749 64.5591L71.6194 62.3331L73.1734 59.6415C73.2994 59.4233 73.3246 59.2116 73.2874 58.9961C73.238 58.7736 73.0981 58.5958 72.8799 58.4698C72.6374 58.3298 72.4136 58.2976 72.2083 58.3731C72.0031 58.4486 71.8444 58.5833 71.7184 58.8015L67.7494 65.6761C67.6234 65.8943 67.5791 66.1112 67.6233 66.3145C67.6606 66.53 67.8074 66.6956 68.0499 66.8356C68.2681 66.9616 68.485 67.006 68.7024 66.9375C68.9006 66.8742 69.0784 66.7343 69.2044 66.5161L70.8704 63.6305L74.7259 65.8565L73.0599 68.7421ZM84.1785 64.9123C83.1116 64.2963 82.1471 64.0628 81.2922 64.1996C80.4302 64.3486 79.7472 64.8595 79.2432 65.7325C78.5712 66.8964 78.6082 67.9524 79.3681 68.8761L76.768 70.1878C76.4372 70.3686 76.2436 70.564 76.168 70.779C76.0802 70.987 76.0862 71.2006 76.1999 71.3956C76.3654 71.6689 76.5818 71.8262 76.8318 71.8412C77.0748 71.8683 77.3425 71.7966 77.6471 71.633L80.6588 69.9446C80.8145 70.0669 81.0015 70.191 81.2319 70.324C81.4986 70.478 81.736 70.5989 81.9267 70.6605L80.5407 73.0611C80.4147 73.2793 80.3704 73.4962 80.4267 73.7066C80.464 73.9221 80.6108 74.0877 80.8412 74.2207C81.0716 74.3537 81.2884 74.3981 81.4937 74.3226C81.6919 74.2592 81.8697 74.1193 81.9957 73.9011L85.8457 67.2327C86.0977 66.7962 86.0283 66.3844 85.6567 65.992C85.3075 65.6449 84.8211 65.2833 84.1785 64.9123ZM83.3568 66.1676C83.5993 66.3076 83.8763 66.4998 84.2017 66.7201L82.5567 69.5693C82.373 69.4955 82.0993 69.3537 81.7477 69.1507C80.5231 68.4437 80.1969 67.6087 80.7569 66.6387C81.0439 66.1416 81.4064 65.8498 81.8616 65.7893C82.3168 65.7288 82.8112 65.8526 83.3568 66.1676ZM88.0146 67.2079C87.7964 67.0819 87.5916 67.0445 87.4074 67.0836C87.2161 67.1348 87.0645 67.2575 86.9525 67.4514C86.8405 67.6454 86.8101 67.8381 86.8614 68.0293C86.9126 68.2205 87.0474 68.3792 87.2656 68.5052L89.4116 69.7442L85.7576 76.0731C85.6316 76.2913 85.5872 76.5082 85.6315 76.7115C85.6687 76.927 85.8156 77.0927 86.0581 77.2327C86.2884 77.3657 86.5053 77.41 86.7106 77.3345C86.9088 77.2712 87.0865 77.1313 87.2125 76.9131L90.8665 70.5842L93.0126 71.8232C93.2308 71.9492 93.4355 71.9865 93.6268 71.9353C93.818 71.8841 93.9818 71.7684 94.0938 71.5744C94.2058 71.3805 94.224 71.1808 94.1728 70.9896C94.1145 70.8105 93.9798 70.6519 93.7616 70.5259L88.0146 67.2079ZM96.4512 73.081C96.5772 72.8628 96.6024 72.651 96.5652 72.4355C96.528 72.22 96.3881 72.0423 96.1577 71.9093C95.9152 71.7693 95.6914 71.737 95.4861 71.8125C95.2809 71.888 95.1223 72.0228 94.9963 72.241L91.0273 79.1155C90.8873 79.358 90.8429 79.5749 90.8941 79.7661C90.9384 79.9695 91.0731 80.1281 91.2913 80.2541C91.5217 80.3871 91.8291 80.3867 92.2153 80.2217L99.2637 77.1135L96.3377 82.1815C96.2117 82.3997 96.1744 82.6045 96.2116 82.82C96.2488 83.0355 96.4078 83.2081 96.6503 83.3481C96.8807 83.4811 97.0975 83.5255 97.3028 83.45C97.501 83.3866 97.6667 83.2397 97.7927 83.0215L101.762 76.147C102.049 75.6499 101.965 75.2623 101.505 74.9963C101.238 74.8423 100.911 74.8478 100.563 75.0025L93.5182 78.1611L96.4512 73.081ZM105.035 78.037C105.161 77.8188 105.187 77.6071 105.149 77.3916C105.112 77.1761 104.972 76.9983 104.742 76.8653C104.499 76.7253 104.276 76.6931 104.07 76.7686C103.865 76.8441 103.706 76.9788 103.58 77.197L99.6114 84.0716C99.4714 84.314 99.427 84.5309 99.4783 84.7222C99.5225 84.9255 99.6572 85.0841 99.8755 85.2101C100.106 85.3431 100.413 85.3428 100.799 85.1778L107.848 82.0696L104.922 87.1376C104.796 87.3558 104.758 87.5605 104.796 87.776C104.833 87.9915 104.992 88.1641 105.234 88.3041C105.465 88.4371 105.682 88.4815 105.887 88.406C106.085 88.3427 106.251 88.1958 106.377 87.9776L110.346 81.103C110.633 80.606 110.549 80.2183 110.089 79.9523C109.822 79.7983 109.495 79.8038 109.147 79.9586L102.102 83.1172L105.035 78.037ZM107.657 77.8369C108.093 78.0889 108.511 78.2331 108.934 78.2836C109.346 78.3271 109.693 78.2853 109.996 78.1529C110.389 77.9758 110.541 77.7403 110.435 77.4203C110.305 77.0863 110.029 76.9757 109.57 77.0987C109.08 77.2198 108.632 77.1553 108.196 76.9033C107.759 76.6513 107.467 76.2888 107.334 75.7916C107.187 75.3186 106.953 75.1352 106.616 75.2153C106.279 75.2954 106.139 75.5379 106.189 75.9549C106.221 76.2641 106.363 76.6051 106.619 76.9466C106.874 77.2881 107.22 77.5849 107.657 77.8369Z" fill="#C6C6C6"/>
<path d="M39.2472 72.3628C39.1212 72.581 39.0717 72.7788 39.1108 72.963C39.1429 73.1594 39.2655 73.311 39.4838 73.437C39.702 73.563 39.8946 73.5934 40.0929 73.53C40.272 73.4718 40.4306 73.337 40.5566 73.1188L44.5816 66.1473C44.8896 65.6138 44.8688 65.2299 44.505 65.0199C44.3717 64.9429 44.2294 64.9093 44.0802 64.8878C43.9239 64.8784 43.8232 64.8849 43.7467 64.9054C43.6702 64.9259 43.5433 64.9497 43.3521 65.0009L40.5599 65.7491C40.3113 65.8157 40.1284 65.9364 40.0062 66.0922C39.8839 66.2479 39.8414 66.4335 39.9169 66.6388C40.0115 66.8389 40.1481 66.9663 40.3338 67.0088C40.5194 67.0513 40.7139 67.0504 40.9312 66.9819L42.6002 66.5552L39.2472 72.3628ZM53.8428 72.1409C54.3035 72.4069 54.767 72.8361 55.2351 73.3973C55.603 73.8522 55.9411 73.9666 56.2686 73.7354C56.6222 73.4869 56.7002 73.1278 56.4886 72.6823C56.1651 72.0105 55.5254 71.3826 54.5676 70.8296C53.343 70.1226 52.1542 69.9697 51.0272 70.3536C49.8881 70.7306 48.9467 71.5773 48.1907 72.8867C47.4207 74.2204 47.1339 75.4451 47.3406 76.599C47.5352 77.746 48.276 78.6748 49.5491 79.4098C50.5433 79.9838 51.5007 80.2295 52.4354 80.1225C52.7134 80.089 52.9397 79.9772 53.1002 79.8112C53.2607 79.6452 53.3153 79.4666 53.3023 79.2651C53.2642 78.8551 52.9751 78.6558 52.4299 78.6482C51.6328 78.6568 50.9649 78.4975 50.4072 78.1755C49.704 77.7695 49.276 77.1668 49.1233 76.3673C48.9706 75.5679 49.1793 74.7023 49.7253 73.7566C50.2433 72.8594 50.8694 72.2509 51.6088 71.9503C52.3481 71.6497 53.0911 71.7069 53.8428 72.1409ZM54.1985 80.9302C54.0725 81.1485 54.0281 81.3653 54.0775 81.5878C54.1268 81.8103 54.2737 81.9759 54.5162 82.1159L58.7233 84.5449C58.9294 84.6639 59.1272 84.7134 59.3184 84.6622C59.5097 84.611 59.6734 84.4953 59.7854 84.3014C59.8974 84.1074 59.9157 83.9077 59.8644 83.7165C59.8132 83.5253 59.6784 83.3666 59.4723 83.2476L55.9684 81.2246L57.3264 78.8725L60.0301 80.4335C60.2484 80.5595 60.4531 80.5969 60.6443 80.5456C60.8356 80.4944 60.9993 80.3788 61.1113 80.1848C61.2233 79.9908 61.2416 79.7912 61.1903 79.5999C61.1321 79.4208 60.9974 79.2622 60.7791 79.1362L58.0754 77.5752L59.3004 75.4534L62.6831 77.4064C62.8892 77.5254 63.0869 77.5749 63.2782 77.5237C63.4694 77.4725 63.6332 77.3568 63.7452 77.1629C63.8572 76.9689 63.8754 76.7692 63.8242 76.578C63.7729 76.3868 63.6382 76.2281 63.4321 76.1091L59.3341 73.7431C59.0916 73.6031 58.8677 73.5709 58.6625 73.6464C58.4451 73.7149 58.2865 73.8496 58.1605 74.0679L54.1985 80.9302ZM66.2982 87.9322C66.1722 88.1504 66.1278 88.3673 66.1721 88.5707C66.2093 88.7862 66.3562 88.9518 66.5987 89.0918C66.8169 89.2178 67.0338 89.2622 67.2511 89.1937C67.4494 89.1303 67.6271 88.9904 67.7531 88.7722L71.7221 81.8977C71.8481 81.6794 71.8734 81.4677 71.8361 81.2522C71.7868 81.0297 71.6469 80.852 71.4287 80.726C71.1862 80.586 70.9623 80.5537 70.7571 80.6292C70.5518 80.7047 70.3932 80.8394 70.2672 81.0577L68.7132 83.7493L64.8577 81.5233L66.4117 78.8317C66.5377 78.6134 66.5629 78.4017 66.5257 78.1862C66.4763 77.9637 66.3364 77.786 66.1182 77.66C65.8757 77.52 65.6518 77.4877 65.4466 77.5632C65.2414 77.6387 65.0827 77.7734 64.9567 77.9917L60.9877 84.8662C60.8617 85.0844 60.8174 85.3013 60.8616 85.5047C60.8988 85.7202 61.0457 85.8858 61.2882 86.0258C61.5064 86.1518 61.7233 86.1962 61.9407 86.1277C62.1389 86.0643 62.3167 85.9244 62.4427 85.7062L64.1087 82.8206L67.9642 85.0466L66.2982 87.9322ZM73.8173 82.105C73.599 81.979 73.3943 81.9416 73.21 81.9808C73.0188 82.032 72.8672 82.1546 72.7552 82.3486C72.6432 82.5426 72.6128 82.7352 72.664 82.9265C72.7153 83.1177 72.85 83.2763 73.0683 83.4023L75.2143 84.6413L71.5603 90.9702C71.4343 91.1885 71.3899 91.4053 71.4341 91.6087C71.4714 91.8242 71.6182 91.9898 71.8607 92.1298C72.0911 92.2628 72.308 92.3072 72.5132 92.2317C72.7114 92.1683 72.8892 92.0285 73.0152 91.8102L76.6692 85.4813L78.8152 86.7203C79.0334 86.8463 79.2382 86.8837 79.4294 86.8325C79.6207 86.7812 79.7844 86.6656 79.8964 86.4716C80.0084 86.2776 80.0267 86.078 79.9754 85.8868C79.9172 85.7076 79.7824 85.549 79.5642 85.423L73.8173 82.105ZM83.7868 87.7801C82.7199 87.1641 81.7554 86.9306 80.9005 87.0675C80.0385 87.2164 79.3555 87.7274 78.8515 88.6004C78.1795 89.7643 78.2165 90.8203 78.9764 91.744L76.3763 93.0556C76.0455 93.2365 75.8519 93.4319 75.7763 93.6468C75.6885 93.8548 75.6945 94.0684 75.8083 94.2634C75.9737 94.5368 76.1901 94.6941 76.4401 94.7091C76.6831 94.7362 76.9508 94.6645 77.2554 94.5008L80.2671 92.8125C80.4229 92.9347 80.6098 93.0589 80.8402 93.1919C81.1069 93.3459 81.3443 93.4667 81.5351 93.5284L80.1491 95.929C80.0231 96.1472 79.9787 96.3641 80.035 96.5744C80.0723 96.7899 80.2191 96.9556 80.4495 97.0886C80.6799 97.2216 80.8967 97.2659 81.102 97.1904C81.3002 97.1271 81.478 96.9872 81.604 96.769L85.454 90.1006C85.706 89.6641 85.6366 89.2522 85.265 88.8599C84.9158 88.5128 84.4294 88.1511 83.7868 87.7801ZM82.9651 89.0354C83.2076 89.1754 83.4846 89.3677 83.8101 89.5879L82.1651 92.4372C81.9813 92.3634 81.7076 92.2215 81.356 92.0185C80.1314 91.3115 79.8052 90.4766 80.3652 89.5066C80.6522 89.0095 81.0147 88.7177 81.4699 88.6572C81.9251 88.5967 82.4195 88.7204 82.9651 89.0354ZM88.4959 90.5797C88.2776 90.4537 88.0538 90.4215 87.8485 90.497C87.6312 90.5655 87.4725 90.7002 87.3535 90.9063L83.4405 97.6838C83.1745 98.1446 83.2579 98.5322 83.6766 98.8709C84.1611 99.2638 84.7463 99.6502 85.4374 100.049C86.4801 100.651 87.4133 100.883 88.2249 100.737C89.0244 100.584 89.6952 100.066 90.2132 99.1692C91.1652 97.5203 90.6298 96.0957 88.6171 94.9337C88.1807 94.6817 87.7474 94.4801 87.3245 94.3167L88.4865 92.304L91.5539 94.075C91.76 94.194 91.9578 94.2435 92.149 94.1923C92.3403 94.141 92.4919 94.0184 92.6039 93.8244C92.7159 93.6305 92.7463 93.4378 92.695 93.2466C92.6438 93.0553 92.509 92.8967 92.3029 92.7777L88.4959 90.5797ZM87.8029 96.064C88.3 96.351 88.6371 96.6911 88.8021 97.0773C88.9671 97.4636 88.9166 97.8871 88.6506 98.3478C88.0836 99.3299 87.2337 99.4858 86.094 98.8278C85.6939 98.5968 85.3614 98.3887 85.0985 98.1722L86.6385 95.5049C86.9696 95.6314 87.3664 95.812 87.8029 96.064ZM90.6119 101.97C90.4859 102.188 90.4415 102.405 90.4858 102.608C90.523 102.824 90.6699 102.989 90.9124 103.129C91.1306 103.255 91.3475 103.3 91.5648 103.231C91.7631 103.168 91.9408 103.028 92.0668 102.81L93.3548 100.579C93.5693 100.767 93.9139 100.982 94.3746 101.248C95.3325 101.801 96.2414 102.019 97.1276 101.884C97.9947 101.754 98.7038 101.226 99.2498 100.28C99.7818 99.3589 99.8759 98.5241 99.558 97.7586C99.2402 96.9931 98.5902 96.3269 97.596 95.7529C96.8807 95.3399 96.2273 95.0435 95.6379 94.8325C95.1211 94.6635 94.7419 94.8163 94.4689 95.2892L90.6119 101.97ZM95.0178 99.9385C94.6055 99.7005 94.2852 99.4994 94.0758 99.33L95.7278 96.4687C96.1074 96.6232 96.473 96.8019 96.8246 97.0049C97.9643 97.6629 98.2542 98.4769 97.7012 99.4347C97.1062 100.465 96.206 100.625 95.0178 99.9385ZM105.016 100.037C103.949 99.421 102.985 99.1875 102.13 99.3243C101.268 99.4733 100.585 99.9842 100.081 100.857C99.409 102.021 99.446 103.077 100.206 104.001L97.6057 105.312C97.275 105.493 97.0814 105.689 97.0057 105.904C96.918 106.112 96.924 106.325 97.0377 106.52C97.2032 106.794 97.4196 106.951 97.6696 106.966C97.9126 106.993 98.1803 106.921 98.4849 106.758L101.497 105.069C101.652 105.192 101.839 105.316 102.07 105.449C102.336 105.603 102.574 105.724 102.765 105.785L101.379 108.186C101.253 108.404 101.208 108.621 101.265 108.831C101.302 109.047 101.449 109.212 101.679 109.345C101.909 109.478 102.126 109.523 102.331 109.447C102.53 109.384 102.707 109.244 102.833 109.026L106.683 102.357C106.935 101.921 106.866 101.509 106.494 101.117C106.145 100.77 105.659 100.408 105.016 100.037ZM104.195 101.292C104.437 101.432 104.714 101.625 105.04 101.845L103.395 104.694C103.211 104.62 102.937 104.478 102.585 104.275C101.361 103.568 101.035 102.733 101.595 101.763C101.882 101.266 102.244 100.974 102.699 100.914C103.155 100.854 103.649 100.977 104.195 101.292ZM104.325 109.838C104.185 110.081 104.141 110.298 104.202 110.527C104.263 110.757 104.435 110.936 104.713 111.097C104.98 111.251 105.221 111.31 105.451 111.248C105.68 111.187 105.87 111.054 106.01 110.811C106.143 110.581 106.17 110.338 106.109 110.109C106.047 109.879 105.883 109.687 105.616 109.533C105.35 109.379 105.102 109.333 104.872 109.395C104.643 109.456 104.458 109.608 104.325 109.838ZM105.835 107.558C105.709 107.776 105.672 107.981 105.716 108.185C105.76 108.388 105.895 108.546 106.113 108.672C106.332 108.798 106.524 108.829 106.723 108.766C106.921 108.702 107.079 108.567 107.205 108.349L109.851 103.766C109.963 103.572 110.001 103.367 109.957 103.164C109.912 102.961 109.797 102.797 109.578 102.671C109.36 102.545 109.148 102.52 108.95 102.583C108.745 102.659 108.593 102.781 108.481 102.975L105.835 107.558Z" fill="#F0F0F0"/>
</g>
<defs>
<filter id="filter0_d_3645_769" x="0" y="0" width="148" height="146" filterUnits="userSpaceOnUse" color-interpolation-filters="sRGB">
<feFlood flood-opacity="0" result="BackgroundImageFix"/>
<feColorMatrix in="SourceAlpha" type="matrix" values="0 0 0 0 0 0 0 0 0 0 0 0 0 0 0 0 0 0 127 0" result="hardAlpha"/>
<feOffset dx="-10" dy="2"/>
<feGaussianBlur stdDeviation="4"/>
<feComposite in2="hardAlpha" operator="out"/>
<feColorMatrix type="matrix" values="0 0 0 0 0 0 0 0 0 0 0 0 0 0 0 0 0 0 0.25 0"/>
<feBlend mode="normal" in2="BackgroundImageFix" result="effect1_dropShadow_3645_769"/>
<feBlend mode="normal" in="SourceGraphic" in2="effect1_dropShadow_3645_769" result="shape"/>
</filter>
<linearGradient id="paint0_linear_3645_769" x1="83.3333" y1="136" x2="144.582" y2="13.1613" gradientUnits="userSpaceOnUse">
<stop stop-color="#4271DF"/>
<stop offset="1" stop-color="#789CF1"/>
</linearGradient>
</defs>
</svg>
