<svg width="70" height="70" viewBox="0 0 70 70" fill="none" xmlns="http://www.w3.org/2000/svg">
<g clip-path="url(#clip0_3895_5041)">
<path d="M61.1037 5.49376C60.6829 5.11506 60.0346 5.1491 59.6556 5.57019C59.2768 5.99113 59.311 6.63943 59.7321 7.01827C59.7325 7.01854 59.7327 7.01895 59.7332 7.01923L46.7826 19.9698L40.8761 14.0632C44.022 10.598 45.8012 6.32185 45.8677 2.07479C49.4422 1.90759 52.871 2.73362 55.7896 4.26962C56.2912 4.53361 56.9108 4.34071 57.1745 3.83978C57.4384 3.33859 57.2458 2.71859 56.7448 2.45486C48.3913 -1.94135 38.2119 -0.29311 31.6377 6.27482C26.4392 11.4733 24.1033 19.2014 26.0314 26.7309C13.0468 25.2247 1.80469 35.4225 1.80469 48.2923C1.80469 53.8064 3.87838 59.0629 7.62588 63.0856C8.01155 63.4999 8.66054 63.5231 9.07506 63.1369C9.4893 62.751 9.51241 62.1022 9.12632 61.6877C8.80545 61.3433 8.49839 60.989 8.205 60.6255H12.3829C13.671 60.6255 14.8193 61.4486 15.222 62.6882L16.5148 66.6667C15.1706 66.1548 13.8803 65.4935 12.666 64.6883C12.1939 64.3753 11.5577 64.5046 11.2447 64.9764C10.9318 65.4485 11.0607 66.0846 11.5326 66.3976C15.0707 68.743 19.2406 69.9999 23.5124 69.9999C37.6574 69.9999 48.1687 56.555 44.4948 42.7155C51.1434 43.4248 57.4887 40.9992 61.9273 36.5647C70.5885 27.8957 70.243 13.7173 61.1037 5.49376ZM43.8093 2.28082C43.6787 5.88559 42.0938 9.62215 39.4222 12.6095L33.8389 7.0262C36.5738 4.56451 40.0108 2.86856 43.8093 2.28082ZM32.3888 8.47647L37.9721 14.0598C34.9858 16.7304 31.2511 18.3152 27.6437 18.4448C28.2317 14.6471 29.9274 11.2108 32.3888 8.47647ZM27.4374 20.5025C31.6853 20.4362 35.9612 18.6579 39.4252 15.5131L45.3321 21.42L32.3887 34.3636C28.9869 30.5844 27.1962 25.6505 27.4374 20.5025ZM36.5129 42.99L31.6814 44.5598C31.3433 44.0113 30.8961 43.5214 30.3501 43.1247L26.4726 40.3076C25.8807 39.8776 25.2204 39.5947 24.5379 39.4523V34.287C25.2204 34.1444 25.8807 33.8616 26.4726 33.4315L28.2473 32.1421C30.2731 35.6307 33.2684 38.517 36.8856 40.4098C36.8201 40.6856 36.3636 41.6176 36.5129 42.99ZM30.2292 48.1215L28.7481 52.6797C28.3472 53.9136 27.2063 54.7425 25.9089 54.7425H21.116C19.8187 54.7425 18.6776 53.9136 18.2767 52.6797L16.7956 48.1215C16.3946 46.8878 16.8306 45.5463 17.8802 44.7837L21.7576 41.9665C22.8015 41.2081 24.2223 41.2074 25.267 41.9665L29.1445 44.7837C30.1942 45.5463 30.6301 46.8876 30.2292 48.1215ZM26.7118 28.8965C26.8897 29.3725 27.0837 29.8407 27.2938 30.3L25.267 31.7724C24.2195 32.5337 22.8066 32.5345 21.7577 31.7724L18.3778 29.3168C21.0887 28.5825 23.9239 28.44 26.7118 28.8965ZM16.0725 30.0988C16.5657 30.5926 16.6395 30.5643 20.5524 33.4315C21.1443 33.8616 21.8047 34.1444 22.4871 34.2869V39.4521C21.8047 39.5946 21.1443 39.8774 20.5524 40.3074L16.675 43.1246C16.1289 43.5213 15.6817 44.0112 15.3436 44.5598L10.5122 42.99C10.5877 42.2969 10.5201 41.5806 10.2939 40.8848C8.7993 36.3466 8.82801 36.2235 8.51275 35.6029C10.5401 33.2101 13.1282 31.3072 16.0725 30.0988ZM7.05564 37.5545L8.34349 41.5184C8.73997 42.7386 8.31697 44.0874 7.25893 44.8562L3.87988 47.3112C4.0572 43.7238 5.20137 40.3868 7.05564 37.5545ZM14.4526 59.0178C13.8166 58.7318 13.1147 58.5749 12.383 58.5749C7.52607 58.5943 7.48301 58.5282 6.79588 58.638C5.13534 55.9606 4.14238 52.9195 3.90942 49.7466C4.53147 49.4304 4.54418 49.3394 8.46449 46.5151C9.05646 46.085 9.53209 45.5454 9.87853 44.9403L14.6476 46.4898C14.5424 47.2324 14.602 48.0054 14.8457 48.755L16.3267 53.3134C16.542 53.976 16.8844 54.569 17.3209 55.07L14.4526 59.0178ZM28.1864 67.3864C26.6878 67.7534 25.1227 67.9494 23.5124 67.9494C21.9235 67.9494 20.3568 67.757 18.8386 67.3868C18.7304 66.6989 18.6499 66.6648 17.1723 62.0548C16.9461 61.3588 16.5799 60.7399 16.1115 60.2234L18.9559 56.3087C19.6155 56.6212 20.3495 56.7933 21.1161 56.7933H25.909C26.6757 56.7933 27.4098 56.6212 28.0693 56.3087L30.9135 60.2234C30.445 60.7399 30.0787 61.3589 29.8526 62.0548C28.3737 66.6688 28.294 66.7018 28.1864 67.3864ZM30.5125 66.66L31.803 62.6883C32.2018 61.4611 33.3414 60.6256 34.6423 60.6256H38.8069C36.6405 63.3067 33.7853 65.4086 30.5125 66.66ZM40.2202 58.6368C39.5387 58.5291 39.4902 58.594 34.6423 58.5749C33.9106 58.5749 33.2087 58.7319 32.5727 59.0178L29.7044 55.07C30.1409 54.569 30.4833 53.9759 30.6984 53.3133L32.1796 48.755C32.4231 48.0054 32.4827 47.2323 32.3777 46.4898L37.1467 44.9403C37.4932 45.5454 37.9687 46.085 38.5607 46.515C42.5095 49.3597 42.4942 49.4305 43.1159 49.7465C42.8774 52.9907 41.8477 56.0177 40.2202 58.6368ZM39.7659 44.8561C38.7255 44.1 38.2793 42.7561 38.6815 41.5184L38.7597 41.2775C39.8809 41.7323 41.049 42.0943 42.2547 42.3549C42.7631 43.9604 43.0613 45.6214 43.1444 47.3108L39.7659 44.8561ZM47.6998 40.7651C42.56 41.006 37.6239 39.2208 33.8389 35.8139L46.7824 22.8702L52.6891 28.7769C49.5443 32.2411 47.7659 36.5173 47.6998 40.7651ZM49.758 40.5588C49.8883 36.9535 51.4726 33.217 54.1426 30.2304L59.726 35.8139C56.9917 38.275 53.5557 39.9708 49.758 40.5588ZM61.1763 34.3637L55.5929 28.7803C58.5805 26.109 62.3169 24.5246 65.9217 24.3937C65.334 28.192 63.638 31.6289 61.1763 34.3637ZM66.1277 22.335C61.882 22.4014 57.6046 24.1807 54.1393 27.3266L48.2327 21.42L61.1826 8.47005C64.5327 12.1999 66.3697 17.1609 66.1277 22.335Z" fill="#49B3F7"/>
</g>
<defs>
<clipPath id="clip0_3895_5041">
<rect width="70" height="70" fill="white"/>
</clipPath>
</defs>
</svg>
