<svg width="564" height="317" viewBox="0 0 564 317" fill="none" xmlns="http://www.w3.org/2000/svg">
<path d="M282 317C437.744 317 564 307.125 564 294.943C564 282.762 437.744 272.886 282 272.886C126.256 272.886 0 282.762 0 294.943C0 307.125 126.256 317 282 317Z" fill="#FFC652"/>
<path d="M362.208 129.889H209.339V0H375.254V116.838C375.254 124.049 369.406 129.889 362.208 129.889Z" fill="#B8E1FC"/>
<path d="M289.846 32.3852C289.846 32.7328 275.912 33.0127 258.726 33.0127C241.531 33.0127 227.606 32.7328 227.606 32.3852C227.606 32.0377 241.54 31.7578 258.726 31.7578C275.912 31.7578 289.846 32.0377 289.846 32.3852Z" fill="#455A64"/>
<path d="M328.278 25.2231C333.595 25.2231 337.909 29.538 337.909 34.8567V54.6161H309.124V36.3819C309.124 30.2137 314.123 25.2231 320.279 25.2231H328.278Z" fill="#6FC3F9"/>
<path d="M404.521 282.607H83.2957C76.8304 282.607 71.5811 277.365 71.5811 270.888V66.3345C71.5811 59.8671 76.8208 54.616 83.2957 54.616H404.521C410.987 54.616 416.236 59.8575 416.236 66.3345V270.888C416.236 277.356 410.996 282.607 404.521 282.607Z" fill="#5B5B5C"/>
<path d="M404.521 54.6159C410.986 54.6159 416.236 59.8574 416.236 66.3345V270.888C416.236 277.356 410.996 282.607 404.521 282.607H83.2956C76.8304 282.607 71.581 277.365 71.581 270.888V66.3345C71.581 59.8671 76.8207 54.6159 83.2956 54.6159H404.521ZM404.521 52H83.2956C75.4022 52 68.9756 58.4288 68.9756 66.3249V270.879C68.9756 278.775 75.4022 285.203 83.2956 285.203H404.521C412.415 285.203 418.841 278.775 418.841 270.879V66.3345C418.841 58.4288 412.424 52 404.521 52Z" fill="#5B5B5C"/>
<path d="M404.521 282.607H83.2957C76.8304 282.607 71.5811 277.365 71.5811 270.888V66.3345C71.5811 59.8671 76.8208 54.616 83.2957 54.616H404.521C410.987 54.616 416.236 59.8575 416.236 66.3345V270.888C416.236 277.356 410.996 282.607 404.521 282.607Z" fill="#5B5B5C"/>
<path d="M416.747 285.686H71.9666C64.0636 285.686 57.6562 279.277 57.6562 271.371V265.734H431.057V271.371C431.057 279.286 424.65 285.686 416.747 285.686Z" fill="#4B4B4C"/>
<path d="M406.498 63.6704H81.3164V256.206H406.498V63.6704Z" fill="#67D449"/>
<path d="M403.893 66.2863V253.6H83.9315V66.2863H403.893ZM406.498 63.6704H81.3164V256.206H406.498V63.6704Z" fill="white"/>
<path opacity="0.28" d="M71.5907 178.578C151.731 168.085 293.734 145.015 416.236 101.809V66.3248C416.236 59.8574 410.996 54.6062 404.521 54.6062H83.2957C76.8304 54.6062 71.5811 59.8477 71.5811 66.3248V178.578H71.5907Z" fill="#EBF7FD"/>
<path d="M328.029 25.1938L316.025 25.1069L298.588 25.2131H170.47C159.595 25.2131 150.775 34.0358 150.775 44.9146V253.021V256.196H316.691V36.0243C317.173 25.2228 328.029 25.1938 328.029 25.1938Z" fill="white"/>
<path d="M316.015 27.0475L318.457 27.0668C316.44 29.0167 314.944 31.874 314.761 35.9378V35.9764V36.015V254.266H152.705V253.021V44.9246C152.705 35.127 160.676 27.1537 170.47 27.1537H298.588L316.015 27.0475ZM316.015 25.1169L298.578 25.2231H170.47C159.595 25.2231 150.775 34.0458 150.775 44.9246V253.031V256.206H316.691V36.0247C317.173 25.2231 328.029 25.1942 328.029 25.1942L316.015 25.1169Z" fill="#B8E1FC"/>
<path d="M304.347 63.3228H222.441V68.3519H304.347V63.3228Z" fill="#CCCCCC"/>
<path d="M304.347 93.8645H222.441V98.8936H304.347V93.8645Z" fill="#CCCCCC"/>
<path d="M304.347 78.5938H222.441V83.6229H304.347V78.5938Z" fill="#CCCCCC"/>
<path d="M304.348 119.609H164.448V124.638H304.348V119.609Z" fill="#CCCCCC"/>
<path d="M304.348 150.16H164.448V155.189H304.348V150.16Z" fill="#CCCCCC"/>
<path d="M304.348 134.889H164.448V139.919H304.348V134.889Z" fill="#CCCCCC"/>
<path d="M304.348 175.904H164.448V180.933H304.348V175.904Z" fill="#CCCCCC"/>
<path d="M304.348 206.455H164.448V211.484H304.348V206.455Z" fill="#CCCCCC"/>
<path d="M304.348 191.175H164.448V196.204H304.348V191.175Z" fill="#CCCCCC"/>
<path d="M221.525 239.758C223.593 239.758 225.269 238.081 225.269 236.012C225.269 233.944 223.593 232.267 221.525 232.267C219.458 232.267 217.781 233.944 217.781 236.012C217.781 238.081 219.458 239.758 221.525 239.758Z" fill="#999999"/>
<path d="M237.196 239.758C239.264 239.758 240.94 238.081 240.94 236.012C240.94 233.944 239.264 232.267 237.196 232.267C235.128 232.267 233.452 233.944 233.452 236.012C233.452 238.081 235.128 239.758 237.196 239.758Z" fill="#999999"/>
<path d="M252.868 239.758C254.936 239.758 256.612 238.081 256.612 236.012C256.612 233.944 254.936 232.267 252.868 232.267C250.8 232.267 249.124 233.944 249.124 236.012C249.124 238.081 250.8 239.758 252.868 239.758Z" fill="#999999"/>
<path d="M175.767 63.3228H204.716L204.764 73.0239H203.374C202.921 69.5488 201.618 67.2032 199.476 65.9773C198.27 65.3016 196.475 64.9348 194.072 64.8672V90.206C194.072 91.9724 194.381 93.1501 194.998 93.7293C195.616 94.3084 196.899 94.598 198.858 94.598V95.8239H181.721V94.598C183.602 94.598 184.847 94.3084 185.465 93.7196C186.082 93.1308 186.391 91.9628 186.391 90.206V64.8672C184.046 64.9348 182.242 65.3016 180.987 65.9773C178.691 67.2322 177.388 69.5778 177.089 73.0239H175.699L175.767 63.3228Z" fill="#FF6551"/>
<path d="M299.427 111.683C299.427 112.031 295.307 112.311 290.231 112.311C285.156 112.311 281.035 112.031 281.035 111.683C281.035 111.336 285.156 111.056 290.231 111.056C295.317 111.056 299.427 111.336 299.427 111.683Z" fill="#455A64"/>
<path d="M215.592 148.885L219.355 218.666L151.152 227.209L151.104 148.296L215.592 148.885Z" fill="#E0E0E0"/>
<path d="M124.667 144.027L124.191 218.045L221.971 218.673L222.446 144.655L124.667 144.027Z" fill="white"/>
<path d="M130.445 148.724L130.029 213.427L216.084 213.98L216.5 149.277L130.445 148.724Z" fill="#FF6551"/>
<g opacity="0.2">
<path opacity="0.2" d="M130.02 213.425L160.339 173.404L178.789 198.685L191.507 185.315L216.075 213.984L130.02 213.425Z" fill="black"/>
</g>
<g opacity="0.2">
<g opacity="0.2">
<g opacity="0.2">
<path opacity="0.2" d="M186.894 168.645C186.874 172.391 183.815 175.402 180.071 175.383C176.327 175.364 173.317 172.304 173.336 168.559C173.355 164.813 176.414 161.802 180.158 161.821C183.902 161.85 186.913 164.9 186.894 168.645Z" fill="black"/>
</g>
</g>
</g>
<path d="M240.739 250.965C240.739 250.965 276.597 254.546 311.384 259.546H333.723C333.723 259.546 380.958 247.876 400.508 251.892L328.116 301.121L252.049 273.418L240.739 250.965Z" fill="#2790E2"/>
<path d="M333.713 309.162C333.713 309.162 340.651 311.904 348.409 311.431C356.168 310.958 359.333 307.164 361.398 301.894C363.463 296.623 356.853 294.355 354.807 294.577C352.761 294.808 339.57 298.496 339.57 298.496L333.713 309.162Z" fill="#003336"/>
<path d="M307.244 287.81C290.743 278.794 271.598 266.12 261.138 259.093C246.587 249.314 233.627 247.722 229.468 257.732C225.309 267.742 234.997 275.02 234.997 275.02C234.997 275.02 240.218 280.706 255.908 287.53C266.918 292.318 286.227 297.463 296.774 300.098C301.638 297.193 305.632 292.926 307.244 287.81Z" fill="#49B3F7"/>
<path d="M345.803 293.438C343.391 292.984 324.699 296.169 324.699 296.169C319.739 294.316 313.689 291.343 307.243 287.82C305.632 292.936 301.637 297.193 296.773 300.098C301.251 301.218 304.155 301.893 304.155 301.893C304.155 301.893 320.019 308.901 333.722 309.162C347.415 309.423 348.206 293.891 345.803 293.438Z" fill="#F59D75"/>
<path d="M301.377 294.567C301.377 294.567 296.832 291.613 287.964 292.52C279.096 293.428 277.958 301.613 282.512 305.938C287.067 310.262 292.287 311.623 299.331 311.392C306.376 311.16 313.999 308.322 313.999 308.322L301.377 294.567Z" fill="#003336"/>
<path d="M340.988 284.866C330.933 290.561 322.181 295.021 322.181 295.021C313.197 295.928 301.376 294.567 301.376 294.567C301.376 294.567 294.785 294.567 297.053 302.299C299.33 310.031 308.189 309.123 308.189 309.123C308.189 309.123 317.057 307.984 326.378 306.392C330.527 305.687 338.845 303.795 348.485 301.121C343.969 296.97 341.161 291.034 340.988 284.866Z" fill="#FFBF94"/>
<path d="M400.497 251.892C391.407 252.201 376.624 261.139 362.989 271.149C357.084 275.474 348.66 280.532 340.988 284.866C341.162 291.034 343.97 296.97 348.496 301.121C360.49 297.791 374.559 293.244 385.27 288.196C404.598 279.103 414.827 271.825 414.595 262.954C414.364 254.092 409.587 251.592 400.497 251.892Z" fill="#49B3F7"/>
<path d="M299.167 93.9128C299.167 93.9128 296.446 106.906 315.475 115.062C334.504 123.219 336.009 127.765 336.617 133.499C337.225 139.233 332.39 145.363 343.266 156.492C354.141 167.622 351.719 173.645 348.399 186.648C345.08 199.65 356.553 214.458 375.881 209.921C395.209 205.394 394.003 184.466 386.756 175.142C379.509 165.817 375.283 161.927 376.19 151.482C377.097 141.038 376.769 135.932 367.11 130.487C357.441 125.043 359.583 119.29 358.078 107.205C356.572 95.1194 348.718 80.3119 326.369 77.2905C304.001 74.2789 299.476 83.034 299.167 93.9128Z" fill="#5F3732"/>
<path d="M322.384 202.903C343.179 202.903 360.037 187.552 360.037 168.616C360.037 149.68 343.179 134.329 322.384 134.329C301.589 134.329 284.731 149.68 284.731 168.616C284.731 187.552 301.589 202.903 322.384 202.903Z" fill="#553532"/>
<path d="M304.706 83.536C304.706 83.536 277.726 85.5534 271.28 105.892C264.834 126.231 277.929 128.238 274.098 137.505C270.276 146.772 261.814 148.741 264.033 159.34C266.253 169.939 270.074 167.632 266.05 175.325C262.026 183.028 255.049 192.092 263.676 204.38C272.293 216.668 312.561 216.301 317.193 198.154C321.825 180.007 316.189 124.03 316.189 124.03L315.784 93.9997C315.784 94.0094 312.079 82.2329 304.706 83.536Z" fill="#5F3732"/>
<path d="M274.29 214.12C274.29 214.12 265.075 229.275 265.287 238.271C265.499 247.268 271.569 255.617 287.741 266.815L291.881 249.304L283.351 238.841L288.88 223.541L274.29 214.12Z" fill="#FFBF94"/>
<path d="M300.972 182.285C300.972 182.285 295.269 179.225 290.598 184.486C285.928 189.746 270.016 214.998 270.016 214.998C270.016 214.998 281.335 223.782 290.106 223.782C290.106 223.782 302.477 205.992 304.416 198.308C306.346 190.625 305.922 184.92 300.972 182.285Z" fill="#DB5551"/>
<path d="M364.149 212.498C364.149 212.498 373.364 227.653 373.152 236.649C372.93 245.656 366.87 253.996 350.697 265.193L349.211 243.822L356.159 235.182L348.343 215.77L364.149 212.498Z" fill="#FFBF94"/>
<path d="M337.466 180.653C337.466 180.653 343.169 177.593 347.84 182.854C352.51 188.115 368.422 213.367 368.422 213.367C368.422 213.367 357.103 222.151 348.332 222.151C348.332 222.151 335.961 204.361 334.021 196.677C332.101 189.003 332.526 183.288 337.466 180.653Z" fill="#DB5551"/>
<path d="M297.758 181.194C297.758 181.194 285.368 197.42 288.234 215.172C291.1 232.924 295.577 249.507 298.607 256.728C301.637 263.958 322.384 263.658 322.384 263.658C322.384 263.658 339.28 263.263 342.262 256.728C345.244 250.193 345.881 224.719 345.881 224.719C345.881 224.719 349.576 217.363 349.171 206.398C348.756 195.432 342.957 182.69 341.152 180.895C339.348 179.099 332.661 175.499 318.572 176.281C309.839 176.773 300.981 178.983 297.758 181.194Z" fill="#FF6551"/>
<path d="M311.334 158.905C311.382 159.726 311.44 160.556 311.488 161.376C311.527 161.994 311.566 162.612 311.604 163.22C311.652 164.05 311.71 164.871 311.759 165.701C311.807 166.473 311.855 167.245 311.903 168.018C311.913 168.24 311.932 168.462 311.942 168.684C312.029 170.141 312.125 171.599 312.212 173.066C312.299 174.437 312.386 175.798 312.463 177.168C312.492 177.584 312.521 178.018 312.695 178.375C312.878 178.752 313.206 178.993 313.524 179.215C317.008 181.561 321.543 181.435 324.901 178.983C325.355 178.655 325.586 178.028 325.48 177.4C325.249 176.087 325.085 174.755 324.979 173.414C324.882 172.217 324.834 171.02 324.843 169.823C324.843 169.533 324.853 169.243 324.853 168.954C324.872 168.124 324.911 167.294 324.979 166.463C325.065 165.402 325.191 164.349 325.355 163.297C325.365 163.239 325.374 163.182 325.384 163.124L325.007 163.008L321.196 161.869L319.787 161.444L311.334 158.905Z" fill="#FFAF79"/>
<path d="M311.759 165.701C311.807 166.473 311.855 167.246 311.904 168.018C311.913 168.24 311.932 168.462 311.942 168.684C312.029 170.141 312.125 171.599 312.212 173.066C316.043 177.246 322.537 175.566 324.988 173.423C324.892 172.226 324.844 171.03 324.853 169.833C324.853 169.543 324.863 169.253 324.863 168.964C324.882 168.134 324.921 167.304 324.988 166.473C324.429 166.097 324.023 165.827 324.023 165.827C324.023 165.827 322.364 165.798 320.202 165.759C317.404 165.711 313.747 165.672 311.759 165.701Z" fill="#F59D75"/>
<path d="M309.038 181.937C309.038 181.754 309.26 181.686 309.404 181.734C310.09 181.966 310.524 182.651 311.074 183.105C311.769 183.684 312.56 184.138 313.38 184.495C315.3 185.335 317.385 185.789 319.469 185.76C321.476 185.731 323.425 185.306 325.153 184.244C326.735 183.269 327.71 181.899 328.848 180.48C328.877 180.441 328.945 180.47 328.935 180.518C328.443 184.688 323.136 187.15 319.44 187.227C317.192 187.275 314.828 186.821 312.83 185.779C311.518 185.113 308.99 183.646 309.038 181.937Z" fill="#DB5551"/>
<path d="M348.929 125.168C349.836 133.325 348.977 141.665 346.43 149.465C345.638 151.897 344.673 154.291 343.216 156.395C341.759 158.5 339.849 160.257 337.861 161.878C333.171 165.72 327.989 168.954 322.479 171.473C320.665 172.303 318.745 173.066 316.747 172.998C314.364 172.921 298.027 167.921 292.18 156.994C290.886 154.571 288.291 149.127 288.474 146.385C288.995 138.258 289.516 130.13 290.433 122.041C291.166 115.583 292.266 108.855 296.145 103.633C297.767 101.442 299.822 99.6173 301.897 97.8508C303.913 96.1326 305.998 94.4433 308.372 93.2753C312.762 91.1131 317.819 90.8621 322.721 90.8428C326.223 90.8332 329.823 90.9393 333.046 92.3004C335.612 93.3912 337.812 95.2156 339.723 97.2523C345.551 103.411 349.131 111.645 349.662 120.11L348.929 125.168Z" fill="#FFBF94"/>
<path d="M337.148 131.819C337.09 131.559 337.023 131.308 336.936 131.057C336.154 128.74 333.81 127.446 331.561 126.771C329.911 126.269 328.087 126.24 326.476 126.858C325.656 127.176 324.787 127.871 324.932 128.74C325.009 129.242 325.424 129.638 325.887 129.85C326.35 130.062 326.872 130.12 327.373 130.198C331.021 130.748 334.427 132.34 337.505 134.3C337.428 133.47 337.341 132.63 337.148 131.819Z" fill="#553532"/>
<path d="M305.236 131.308C303.162 131.559 301.058 131.453 299.109 132.495C297.845 133.161 296.629 133.904 295.452 134.725C294.979 133.238 296.031 131.501 297.025 130.458C299.418 127.929 303.789 126.462 307.195 127.225C307.591 127.311 308.006 127.447 308.276 127.746C309.019 128.605 308.43 130.497 307.398 130.844C306.684 131.086 305.96 131.211 305.236 131.308Z" fill="#553532"/>
<path d="M320.764 152.37C319.905 151.791 318.998 151.55 317.994 151.598C317.869 151.608 317.734 151.617 317.608 151.627C317.531 151.637 317.483 151.646 317.338 151.675C317.087 151.723 316.836 151.791 316.595 151.878C316.18 152.023 315.726 152.283 315.312 152.621C315.012 152.862 314.501 152.679 314.318 152.38C314.096 152.013 314.25 151.637 314.559 151.386C316.47 149.841 319.422 149.725 321.449 151.096C321.767 151.318 321.941 151.704 321.738 152.071C321.565 152.399 321.082 152.592 320.764 152.37Z" fill="#DD664A"/>
<path d="M346.895 136.057C347.098 135.024 348.14 134.233 349.192 134.31C349.925 134.368 350.591 134.783 351.112 135.304C352.357 136.52 352.984 138.258 353.11 139.995C353.235 141.733 352.878 143.461 352.376 145.131C352.125 145.98 351.817 146.83 351.305 147.554C350.321 148.944 348.536 149.716 346.847 149.484C345.158 149.262 343.643 148.046 343.055 146.444L346.895 136.057Z" fill="#FFBF94"/>
<path d="M347.85 137.901C347.85 137.901 351.006 137.341 350.591 142.486C350.176 147.64 346.036 146.521 346.036 146.521C346.036 146.521 348.825 143.248 347.85 137.901Z" fill="#F49B73"/>
<path d="M345.361 150.276C345.814 151.328 347.03 151.82 348.091 151.376C349.143 150.922 349.635 149.706 349.191 148.644C348.738 147.592 347.522 147.1 346.461 147.544C345.409 147.998 344.917 149.214 345.361 150.276Z" fill="#EECAB9"/>
<path d="M346.278 149.253C346.509 149.803 347.136 150.054 347.687 149.822C348.237 149.59 348.487 148.963 348.256 148.413C348.024 147.863 347.397 147.612 346.847 147.843C346.297 148.075 346.036 148.702 346.278 149.253Z" fill="white"/>
<path d="M289.596 135.555C289.191 134.387 288.274 133.412 287.135 132.93C286.711 132.746 286.248 132.63 285.784 132.659C284.549 132.746 283.613 133.827 283.063 134.938C281.645 137.824 281.886 141.386 283.42 144.214C283.758 144.832 284.154 145.43 284.704 145.865C286.112 146.965 288.419 146.608 289.422 145.131L289.596 135.555Z" fill="#FFBF94"/>
<path d="M287.386 144.359C287.386 144.359 283.72 145.401 283.99 140.237C284.299 134.262 288.101 136.482 288.101 136.482C288.101 136.482 286.827 139.697 287.386 144.359Z" fill="#F49B73"/>
<path d="M285.349 147.814C285.803 148.866 287.019 149.359 288.08 148.915C289.132 148.461 289.624 147.245 289.18 146.183C288.727 145.131 287.511 144.639 286.449 145.083C285.388 145.536 284.896 146.752 285.349 147.814Z" fill="#EECAB9"/>
<path d="M286.122 147.062C286.354 147.612 286.981 147.863 287.531 147.631C288.081 147.4 288.332 146.772 288.1 146.222C287.869 145.672 287.242 145.421 286.692 145.653C286.142 145.884 285.891 146.521 286.122 147.062Z" fill="white"/>
<path d="M310.361 156.405C310.361 156.405 310.4 157.013 310.564 157.94C310.834 159.436 313.044 164.011 318.033 164.011C322.771 164.011 325.231 158.77 325.473 157.235C325.627 156.222 325.656 155.546 325.656 155.546C325.656 155.546 319.017 159.513 310.361 156.405Z" fill="#9F2236"/>
<path d="M310.361 156.405C310.361 156.405 310.4 157.013 310.564 157.94C311.934 158.866 314.289 160.102 317.29 160.295C320.957 160.527 324.122 158.336 325.473 157.235C325.627 156.222 325.656 155.546 325.656 155.546C325.656 155.546 318.834 158.944 310.361 156.405Z" fill="white"/>
<path d="M312.358 161.338C313.516 163.046 315.475 164.07 318.032 164.012C320.657 163.944 322.626 162.718 323.745 160.807C322.741 160.373 320.609 160.122 318.003 161.347C318.013 161.338 315.523 159.89 312.358 161.338Z" fill="#FF6551"/>
<path d="M305.808 147.108C308.522 145.457 309.383 141.917 307.732 139.203C306.081 136.488 302.543 135.627 299.829 137.278C297.116 138.93 296.254 142.469 297.905 145.184C299.557 147.898 303.095 148.76 305.808 147.108Z" fill="white"/>
<path d="M307.07 144.99C308.228 142.714 307.322 139.93 305.046 138.772C302.771 137.614 299.988 138.52 298.831 140.796C297.673 143.072 298.579 145.856 300.854 147.014C303.129 148.172 305.912 147.266 307.07 144.99Z" fill="black"/>
<path d="M305.583 142.727C306.056 143.422 305.882 144.368 305.188 144.841C304.493 145.314 303.547 145.14 303.074 144.445C302.602 143.75 302.775 142.804 303.47 142.331C304.165 141.868 305.111 142.042 305.583 142.727Z" fill="white"/>
<path d="M330.676 147.108C333.849 146.966 336.306 144.277 336.164 141.103C336.021 137.929 333.334 135.471 330.16 135.613C326.987 135.756 324.53 138.444 324.673 141.618C324.815 144.793 327.503 147.25 330.676 147.108Z" fill="white"/>
<path d="M332.417 145.974C334.671 144.776 335.529 141.977 334.331 139.722C333.134 137.466 330.336 136.609 328.081 137.807C325.827 139.004 324.97 141.803 326.167 144.059C327.364 146.314 330.162 147.172 332.417 145.974Z" fill="black"/>
<path d="M326.95 143.152C327.085 143.905 327.799 144.397 328.552 144.262C329.305 144.127 329.797 143.413 329.662 142.66C329.526 141.907 328.812 141.415 328.06 141.55C327.307 141.675 326.815 142.399 326.95 143.152Z" fill="white"/>
<path d="M302.814 100.94C302.814 100.94 302.003 112.755 314.22 117.958C326.436 123.161 335.217 124.657 340.631 135.594C340.631 135.594 336.501 106.027 324.931 100.94C313.342 95.8528 305.082 90.8816 302.814 100.94Z" fill="#F49B73"/>
<path d="M308.498 107.069C308.498 107.069 310.486 113.411 304.735 119.975C298.993 126.539 292.75 127.813 284.722 135.594L288.466 109.483L302.795 99.4243L308.498 107.069Z" fill="#F49B73"/>
<path d="M309.037 97.8704C309.037 97.8704 312.27 108.875 299.04 122.07C285.811 135.266 283.678 145.807 282.829 161.348L275.109 119.406C275.109 119.406 275.756 99.8203 288.175 92.8413C300.575 85.843 307.079 90.1385 309.037 97.8704Z" fill="#5F3732"/>
<path d="M386.756 175.141C379.51 165.817 375.283 161.927 376.19 151.482C377.097 141.038 376.769 135.932 367.11 130.487C357.441 125.043 359.583 119.29 358.078 107.205C356.573 95.1193 348.718 80.3118 326.369 77.3001C304.021 74.2788 299.485 83.0435 299.186 93.9127C299.186 93.9127 296.465 106.905 315.494 115.062C334.523 123.219 336.029 127.765 336.636 133.499C337.129 138.21 335.334 142.467 336.974 147.177C339.724 155.102 347.367 157.12 352.076 163.558C355.164 167.786 357.866 172.863 357.016 178.037C356.544 180.904 355.009 183.694 355.55 186.542C360.394 188.125 365.991 189.524 370.343 186.86C373.73 184.785 375.447 180.315 374.299 176.503C373.913 175.199 379.394 176.937 379.789 177.033C382.916 177.854 386.081 178.501 389.227 179.234C388.513 177.728 387.683 176.338 386.756 175.141Z" fill="#5F3732"/>
<path d="M365.325 192.005C365.113 192.005 364.91 191.908 364.775 191.725C362.942 189.186 362.353 185.653 363.038 181.232C363.241 179.958 363.511 178.674 363.781 177.439C364.235 175.363 364.698 173.211 364.775 171.078C364.959 165.653 362.45 160.16 358.223 156.753C357.056 155.816 355.743 155.006 354.479 154.224C352.858 153.22 351.169 152.187 349.732 150.845C346.576 147.93 344.733 143.625 344.791 139.329C344.82 137.457 345.042 135.709 345.264 134.03C345.563 131.771 345.833 129.638 345.659 127.254C344.965 117.9 340.227 111.77 331.967 109.512C329.709 108.894 327.528 108.459 325.415 108.044C319.528 106.876 313.96 105.766 308.644 100.892C308.364 100.641 308.354 100.206 308.605 99.936C308.856 99.656 309.28 99.6367 309.56 99.8974C314.607 104.521 319.741 105.544 325.685 106.722C327.817 107.147 330.017 107.581 332.324 108.208C341.192 110.631 346.267 117.186 347.01 127.157C347.203 129.676 346.895 131.983 346.605 134.213C346.393 135.864 346.171 137.563 346.142 139.358C346.084 143.277 347.773 147.206 350.648 149.861C351.999 151.106 353.553 152.061 355.193 153.075C356.496 153.876 357.847 154.716 359.082 155.701C363.637 159.369 366.348 165.276 366.146 171.126C366.068 173.375 365.586 175.585 365.123 177.728C364.862 178.945 364.582 180.2 364.399 181.445C363.772 185.499 364.274 188.694 365.895 190.943C366.117 191.242 366.049 191.667 365.74 191.889C365.605 191.966 365.46 192.005 365.325 192.005Z" fill="#754338"/>
<path d="M370.816 198.608C370.469 198.608 370.169 198.337 370.141 197.98C370.112 197.604 370.391 197.285 370.768 197.256C374.936 196.957 378.893 194.187 380.61 190.374C382.907 185.267 380.852 178.481 377.638 174.417C376.741 173.278 375.699 172.188 374.695 171.126C372.447 168.761 370.121 166.309 369.06 163.133C368.153 160.411 367.989 157.602 367.844 154.89C367.535 149.417 367.275 144.696 361.215 141.733C360.78 141.521 360.356 141.318 359.941 141.125C357.162 139.822 354.537 138.586 353.022 135.198C351.343 131.443 351.43 127.398 351.517 123.479C351.575 120.796 351.633 118.025 351.102 115.429C350.272 111.375 348.487 107.427 345.949 104.009C340.893 97.2139 332.951 92.7832 324.71 92.1461C318.689 91.6828 312.706 92.6867 308.171 93.6133C307.804 93.6906 307.447 93.4492 307.37 93.0824C307.293 92.7156 307.534 92.3585 307.901 92.2813C312.523 91.3353 318.631 90.3121 324.816 90.7851C333.443 91.4511 341.742 96.0845 347.039 103.189C349.703 106.761 351.565 110.892 352.434 115.139C352.993 117.881 352.935 120.728 352.877 123.489C352.791 127.427 352.713 131.144 354.267 134.619C355.579 137.553 357.76 138.576 360.53 139.88C360.954 140.082 361.388 140.285 361.823 140.497C368.587 143.808 368.905 149.397 369.205 154.793C369.349 157.419 369.504 160.131 370.353 162.68C371.318 165.575 373.441 167.805 375.689 170.17C376.712 171.251 377.773 172.371 378.709 173.549C382.183 177.931 384.374 185.306 381.855 190.905C379.945 195.161 375.535 198.241 370.884 198.579C370.855 198.608 370.835 198.608 370.816 198.608Z" fill="#754338"/>
<path d="M351.903 100.766C351.652 100.766 351.411 100.631 351.295 100.39C339.697 76.9719 309.735 84.2887 308.47 84.6073C308.104 84.6941 307.737 84.4818 307.65 84.115C307.563 83.7482 307.776 83.3813 308.142 83.2945C320.079 80.2635 342.871 80.3214 352.511 99.7816C352.675 100.119 352.54 100.525 352.202 100.689C352.106 100.747 352 100.766 351.903 100.766Z" fill="#754338"/>
<path d="M287.377 179.282C287.358 179.282 287.348 179.282 287.329 179.282C286.953 179.253 286.673 178.935 286.702 178.558C286.76 177.728 286.847 176.908 286.924 176.116C287.319 172.187 287.657 168.79 285.274 165.276C284.569 164.243 283.778 163.258 283.016 162.303C281.375 160.256 279.677 158.142 278.77 155.44C276.618 149.021 277.033 141.491 279.937 134.223C281.896 129.319 285.39 125.69 288.777 122.176C290.108 120.796 291.478 119.367 292.742 117.88C297.297 112.533 299.941 106.181 300.192 99.9936C300.202 99.6172 300.52 99.2986 300.896 99.3469C301.273 99.3662 301.562 99.6751 301.543 100.052C301.282 106.529 298.523 113.179 293.775 118.759C292.482 120.274 291.092 121.722 289.751 123.112C286.306 126.693 283.054 130.072 281.192 134.725C278.451 141.588 278.036 148.982 280.053 155.005C280.883 157.476 282.427 159.407 284.068 161.453C284.849 162.428 285.66 163.442 286.393 164.513C289.047 168.432 288.67 172.226 288.275 176.242C288.198 177.023 288.12 177.825 288.053 178.655C288.024 179.012 287.734 179.282 287.377 179.282Z" fill="#754338"/>
<path d="M276.849 126.742C276.531 126.742 276.241 126.51 276.184 126.182C275.016 119.695 276.531 99.7621 298.03 93.536C298.387 93.4298 298.764 93.6421 298.87 93.9993C298.976 94.3565 298.764 94.7329 298.407 94.8391C277.756 100.814 276.328 119.319 277.515 125.95C277.583 126.317 277.332 126.674 276.965 126.732C276.936 126.732 276.888 126.742 276.849 126.742Z" fill="#754338"/>
<path d="M275.025 198.386C274.774 198.386 274.542 198.251 274.427 198.019C271.609 192.507 271.763 185.48 274.813 180.103C275.15 179.514 275.517 178.925 275.893 178.346C276.897 176.773 277.843 175.296 278.093 173.597C278.537 170.576 276.723 167.95 274.803 165.18C273.336 163.056 271.811 160.865 271.233 158.355C270.354 154.542 271.812 150.643 272.979 147.515C273.114 147.168 273.5 146.984 273.848 147.119C274.195 147.254 274.378 147.641 274.243 147.988C273.134 150.951 271.754 154.639 272.545 158.046C273.066 160.305 274.513 162.39 275.913 164.408C277.9 167.274 279.956 170.248 279.435 173.8C279.145 175.779 278.074 177.458 277.042 179.08C276.685 179.64 276.328 180.2 275.999 180.769C273.172 185.76 273.027 192.295 275.642 197.401C275.816 197.729 275.681 198.144 275.353 198.308C275.227 198.366 275.121 198.386 275.025 198.386Z" fill="#754338"/>
<path d="M266.984 213.087L279.751 263.108H360.277L372.165 213.174C373.024 210.046 370.669 206.957 367.427 206.957H271.761C268.547 206.957 266.193 209.979 266.984 213.087Z" fill="#673CC8"/>
<path d="M266.984 215.848L279.751 265.869H360.277L372.165 215.934C373.024 212.807 370.669 209.718 367.427 209.718H271.761C268.547 209.718 266.193 212.739 266.984 215.848Z" fill="#864FF1"/>
<path d="M335.912 209.718H271.752C268.548 209.718 266.194 212.739 266.994 215.848L273.556 241.553L335.912 209.718Z" fill="#9666F3"/>
<path d="M279.752 265.859H314.992L365.623 243.387L371.876 217.112L278.661 261.602L279.752 265.859Z" fill="#9666F3"/>
<path d="M317.278 245.337C324.02 245.337 329.485 241.828 329.485 237.499C329.485 233.17 324.02 229.661 317.278 229.661C310.536 229.661 305.071 233.17 305.071 237.499C305.071 241.828 310.536 245.337 317.278 245.337Z" fill="#AD87F5"/>
<path d="M360.276 265.859H279.441V270.338H360.276V265.859Z" fill="#673CC8"/>
<path d="M27.1059 261.457L38.4827 262.017C39.3705 262.065 39.7854 260.946 39.0907 260.396L30.7341 253.793C30.406 253.532 30.2999 253.079 30.4736 252.702L34.015 244.932C34.401 244.092 33.4264 243.281 32.664 243.812L25.504 248.841C25.1759 249.073 24.7321 249.063 24.4233 248.812L18.4116 244.063C17.7747 243.561 16.8387 244.092 16.9448 244.893L18.0835 253.445C18.1317 253.783 17.987 254.112 17.7072 254.314L11.0007 259.025C10.2963 259.517 10.6147 260.637 11.4735 260.675L18.3344 261.013C18.7686 261.033 19.1353 261.37 19.1932 261.805L20.3897 270.772C20.5055 271.68 21.7407 271.863 22.117 271.033L26.2374 261.988C26.3918 261.65 26.7295 261.438 27.1059 261.457Z" fill="#864FF1"/>
<path d="M492.486 240.346C492.158 240.346 491.878 240.095 491.84 239.767C486.6 191.165 491.782 113.054 491.84 112.272C491.869 111.915 492.168 111.645 492.534 111.664C492.892 111.693 493.162 112.002 493.142 112.359C493.094 113.141 487.912 191.136 493.142 239.622C493.181 239.98 492.92 240.298 492.563 240.337C492.535 240.346 492.506 240.346 492.486 240.346Z" fill="#009245"/>
<path d="M499.395 242.991C499.038 242.991 498.748 242.702 498.738 242.345C497.831 168.626 478.137 145.227 477.944 145.005C477.702 144.735 477.731 144.32 478.011 144.088C478.281 143.856 478.696 143.876 478.928 144.156C479.748 145.102 499.134 168.143 500.041 242.335C500.051 242.692 499.761 242.982 499.395 242.991Z" fill="#009245"/>
<path d="M495.246 244.304C494.889 244.304 494.6 244.015 494.59 243.658C494.136 187.97 501.007 167.834 501.074 167.641C501.19 167.303 501.567 167.12 501.904 167.245C502.242 167.361 502.425 167.738 502.3 168.076C502.232 168.269 495.439 188.26 495.893 243.648C495.902 244.005 495.613 244.304 495.246 244.304C495.256 244.304 495.246 244.304 495.246 244.304Z" fill="#009245"/>
<path d="M485.809 240.347C485.471 240.347 485.181 240.076 485.162 239.738L482.962 203.878C482.943 203.521 483.213 203.212 483.57 203.183C483.917 203.164 484.236 203.434 484.265 203.791L486.465 239.652C486.484 240.009 486.214 240.318 485.857 240.347C485.828 240.347 485.818 240.347 485.809 240.347Z" fill="#009245"/>
<path d="M497.609 86.4605C497.609 86.4605 489.456 82.8504 482.971 87.5513C476.487 92.2523 476.129 102.021 480.925 113.682C480.925 113.682 483.068 115.796 485.605 111.423C488.153 107.06 491.347 100.409 493.904 101.249C496.461 102.079 495.139 107.668 490.314 112.398C485.49 117.128 484.988 120.072 486.59 123.962C488.191 127.852 491.192 130.651 496.461 133.016C496.461 133.016 497.127 120.458 501.797 118.161C506.468 115.863 499.047 127.804 501.778 137.659C501.778 137.659 513.223 142.206 527.224 137.341C527.224 137.341 534.432 128.595 534.867 118.093C534.867 118.093 529.965 113.218 524.87 111.597C519.775 109.975 519.466 105.554 523.113 104.955C526.761 104.357 535.639 113.189 535.639 113.189C535.639 113.189 535.571 102.571 533.245 95.5342C533.245 95.5342 527.205 92.899 522.216 93.8064C517.227 94.7137 513.84 93.3623 513.898 90.5147C513.956 87.6672 523.683 85.6497 531.923 89.202C531.923 89.202 525.256 75.1377 512.518 72.155C499.781 69.1723 499.79 77.4351 499.839 80.7364C499.887 84.0377 499.964 87.2135 497.609 86.4605Z" fill="#40C249"/>
<path d="M499.337 85.9009C499.009 86.4801 498.468 86.7311 497.609 86.4608C497.609 86.4608 489.456 82.8506 482.971 87.5516C476.487 92.2525 476.129 102.021 480.925 113.682C480.925 113.682 483.068 115.796 485.605 111.423C488.153 107.06 491.347 100.409 493.904 101.249C496.461 102.079 495.139 107.668 490.314 112.398C485.49 117.128 484.988 120.072 486.59 123.962C488.191 127.852 491.192 130.652 496.461 133.017C496.461 133.017 497.127 120.458 501.797 118.161C506.468 115.863 499.047 127.804 501.778 137.66C501.778 137.66 512.084 141.743 525.111 137.997C521.232 117.958 514.969 98.8165 499.337 85.9009Z" fill="#3FB824"/>
<path d="M522.215 93.8159C517.226 94.7233 513.839 93.3719 513.897 90.5243C513.955 87.6767 523.682 85.6592 531.923 89.2115C531.923 89.2115 525.255 75.1473 512.517 72.1645C499.78 69.1818 499.789 77.4446 499.838 80.7459C499.867 82.8406 499.905 84.887 499.326 85.9006C514.959 98.8161 521.221 117.958 525.11 137.987C525.805 137.785 526.509 137.582 527.223 137.331C527.223 137.331 534.431 128.585 534.866 118.083C534.866 118.083 529.964 113.208 524.869 111.587C519.774 109.965 519.465 105.544 523.112 104.946C526.76 104.347 535.638 113.18 535.638 113.18C535.638 113.18 535.56 102.561 533.244 95.5245C533.244 95.5341 527.204 92.8989 522.215 93.8159Z" fill="#67D449"/>
<path d="M523.943 132.939C523.654 132.939 523.384 132.746 523.307 132.447C514.014 95.9399 498.864 86.9338 498.71 86.8469C498.401 86.6732 498.285 86.2677 498.468 85.9588C498.642 85.65 499.038 85.5341 499.356 85.7175C499.993 86.0843 515.124 95.0036 524.571 132.138C524.657 132.486 524.445 132.843 524.098 132.93C524.05 132.93 523.992 132.939 523.943 132.939Z" fill="#009245"/>
<path d="M471.759 136.443C471.759 136.443 482.354 136.626 483.502 146.714C484.651 156.801 475.898 160.797 475.898 160.797C475.898 160.797 474.287 149.532 469.684 146.714C465.081 143.895 465.998 146.144 468.304 152.389C470.611 158.645 471.99 162.554 470.147 166.473C470.147 166.473 465.313 171.077 453.569 172.004C453.569 172.004 456.107 165.932 455.412 160.787C454.718 155.642 449.883 154.947 449.652 158.867C449.42 162.786 450.568 170.846 449.652 171.994C448.735 173.143 437.995 172.448 427.544 169.456C427.544 169.456 422.941 161.425 425.006 147.467C425.006 147.467 429.378 146.212 434.222 147.467C439.066 148.721 444.354 147.775 443.206 144.561C442.057 141.347 432.61 140.449 427.313 142.051C427.313 142.051 427.313 131.906 439.52 126.143C439.52 126.143 446.66 124.763 451.031 128.682C455.403 132.601 457.477 136.443 459.32 133.364C461.164 130.294 454.718 121.539 446.651 122.002C446.651 122.002 458.394 115.786 467.146 119.927C475.898 124.078 474.519 131.983 471.759 136.443Z" fill="#40C249"/>
<path d="M472.395 135.275C474.673 130.709 475.184 123.74 467.146 119.937C458.394 115.786 446.65 122.012 446.65 122.012C454.708 121.549 461.163 130.304 459.32 133.374C457.477 136.443 455.402 132.601 451.031 128.692C446.66 124.773 439.519 126.153 439.519 126.153C427.312 131.916 427.312 142.061 427.312 142.061C432.61 140.459 442.057 141.357 443.205 144.571C444.354 147.785 439.056 148.731 434.221 147.476C429.387 146.222 425.006 147.476 425.006 147.476C422.931 161.425 427.544 169.466 427.544 169.466C427.602 169.485 427.66 169.495 427.727 169.514C437.473 152.911 453.752 138.721 472.395 135.275Z" fill="#67D449"/>
<path d="M483.502 146.704C482.354 136.617 471.759 136.433 471.759 136.433C471.981 136.067 472.193 135.671 472.395 135.265C453.743 138.711 437.474 152.901 427.718 169.504C438.12 172.458 448.735 173.134 449.651 171.995C450.568 170.846 449.42 162.776 449.651 158.867C449.883 154.948 454.717 155.643 455.412 160.788C456.107 165.933 453.569 172.004 453.569 172.004C465.313 171.087 470.147 166.473 470.147 166.473C471.99 162.554 470.61 158.645 468.304 152.39C465.998 146.134 465.081 143.895 469.684 146.714C474.287 149.532 475.898 160.797 475.898 160.797C475.898 160.797 484.65 156.791 483.502 146.704Z" fill="#3FB824"/>
<path d="M435.418 159.214C435.263 159.214 435.118 159.166 434.993 159.06C434.723 158.828 434.684 158.413 434.916 158.143C435.07 157.969 450.239 140.275 472.289 134.522C472.646 134.435 472.993 134.638 473.09 134.985C473.176 135.333 472.974 135.69 472.626 135.787C450.992 141.433 436.074 158.818 435.919 158.992C435.784 159.137 435.601 159.214 435.418 159.214Z" fill="#009245"/>
<path d="M512.749 158.635C512.749 158.635 505.377 152.419 498.931 154.262C492.485 156.106 491.327 170.624 498.931 185.364C498.931 185.364 502.849 171.666 508.831 172.526C514.814 173.385 502.839 178.259 504.914 192.179C504.914 192.179 511.128 199.833 524.724 201.812C524.724 201.812 519.195 192.044 520.121 185.364C521.048 178.684 526.567 181.445 527.725 187.903C528.874 194.351 528.189 198.646 530.717 203.762C530.717 203.762 543.155 204.448 552.139 201.822C552.139 201.822 559.743 189.901 558.353 177.033C558.353 177.033 555.815 173.858 550.296 173.858C544.767 173.848 537.172 173.385 540.164 169.475C543.155 165.566 552.37 166.946 556.973 170.634C556.973 170.634 555.13 161.415 546.841 155.662C546.841 155.662 538.552 156.28 533.486 160.807C533.486 160.807 525.429 162.805 528.42 157.506C531.411 152.206 543.165 152.409 543.165 152.409C543.165 152.409 539.228 144.204 528.198 143.123C517.159 142.042 515.297 147.486 514.843 150.768C514.39 154.05 513.975 159.562 512.749 158.635Z" fill="#40C249"/>
<path d="M513.907 157.062C513.618 158.278 513.261 159.021 512.749 158.635C512.749 158.635 505.377 152.418 498.931 154.262C492.485 156.106 491.327 170.624 498.931 185.364C498.931 185.364 502.849 171.666 508.831 172.525C514.824 173.384 502.839 178.259 504.914 192.179C504.914 192.179 511.128 199.833 524.724 201.812C524.724 201.812 519.195 192.043 520.121 185.364C521.038 178.684 526.567 181.445 527.725 187.902C528.874 194.351 528.189 198.646 530.717 203.762C530.717 203.762 540.241 204.293 548.646 202.662C541.36 184.196 531.624 167.158 513.907 157.062Z" fill="#3FB824"/>
<path d="M558.354 177.024C558.354 177.024 555.816 173.848 550.296 173.848C544.767 173.838 537.173 173.375 540.164 169.466C543.155 165.556 552.371 166.937 556.974 170.624C556.974 170.624 555.131 161.406 546.842 155.652C546.842 155.652 538.553 156.27 533.486 160.797C533.486 160.797 525.429 162.796 528.42 157.496C531.412 152.197 543.165 152.399 543.165 152.399C543.165 152.399 539.228 144.194 528.199 143.113C517.159 142.032 515.297 147.476 514.843 150.758C514.573 152.679 514.332 156.849 513.927 158.568C535.243 168.626 542.171 185.325 549.862 202.421C551.058 202.189 551.039 202.141 552.158 201.812C552.13 201.812 559.733 189.891 558.354 177.024Z" fill="#67D449"/>
<path d="M547.526 197.073C547.285 197.073 547.053 196.938 546.938 196.706C530.504 162.699 512.817 159.234 512.633 159.205C512.276 159.147 512.045 158.809 512.103 158.452C512.161 158.095 512.498 157.863 512.855 157.921C513.598 158.046 531.344 161.454 548.105 196.137C548.26 196.465 548.125 196.851 547.806 197.005C547.719 197.054 547.623 197.073 547.526 197.073Z" fill="#009245"/>
<path d="M483.608 186.976C483.608 186.976 487.188 179.833 478.204 175.682C469.221 171.531 461.163 182.854 461.163 182.854C461.163 182.854 470.832 184.669 470.832 188.124C470.832 191.58 464.386 184.9 458.394 185.586C458.394 185.586 452.893 190.113 454.032 203.743C454.032 203.743 462.08 199.592 464.155 201.803C466.229 204.013 458.172 208.116 454.486 207.797C454.486 207.797 455.634 213.463 458.162 216.687C458.162 216.687 468.294 218.299 476.13 215.075C476.13 215.075 473.138 204.785 475.213 203.83C477.288 202.864 479.353 213.338 479.353 213.338C479.353 213.338 486.725 212.392 489.958 203.83C489.958 203.83 483.483 198.212 483.618 195.934C483.743 193.656 489.041 195.499 491.579 200.799C491.559 200.799 499.742 185.76 483.608 186.976Z" fill="#40C249"/>
<path d="M480.183 189.003C479.517 188.993 484.38 186.908 483.608 186.976C483.608 186.976 487.188 179.833 478.204 175.692C469.221 171.541 461.163 182.864 461.163 182.864C461.163 182.864 470.832 184.679 470.832 188.134C470.832 191.59 464.386 184.91 458.394 185.596C458.394 185.596 452.893 190.123 454.032 203.753C454.032 203.753 462.08 199.602 464.155 201.812C466.229 204.023 458.172 208.125 454.486 207.807C454.486 207.807 455.634 213.473 458.162 216.697C458.162 216.697 459.069 216.842 460.517 216.958C463.653 203.579 473.756 194.409 480.183 189.003Z" fill="#67D449"/>
<path d="M491.559 200.799C491.559 200.799 498.951 187.188 485.75 186.918C473.515 193.279 463.643 203.579 460.517 216.948C463.971 217.218 470.61 217.353 476.12 215.075C476.12 215.075 473.129 204.785 475.203 203.83C477.278 202.864 479.343 213.338 479.343 213.338C479.343 213.338 486.715 212.392 489.948 203.83C489.948 203.83 483.483 198.212 483.608 195.934C483.734 193.655 489.031 195.499 491.559 200.799Z" fill="#3FB824"/>
<path d="M467.454 236.852H518.51L509.835 288.659C509.835 288.659 493.633 297.221 473.765 288.804L467.454 236.852Z" fill="#864FF1"/>
<path d="M461.704 213.155C461.617 213.155 461.53 213.135 461.443 213.097C461.115 212.952 460.96 212.566 461.105 212.238C469.626 192.72 482.778 186.629 483.338 186.378C483.666 186.233 484.052 186.378 484.197 186.706C484.342 187.034 484.197 187.42 483.869 187.565C483.734 187.623 470.61 193.733 462.302 212.749C462.196 213 461.954 213.155 461.704 213.155Z" fill="#009245"/>
<path d="M521.155 249.053C521.155 249.053 494.378 255.772 463.74 249.053V235.037H521.155V249.053Z" fill="#673CC8"/>
<path d="M549.063 262.626L559.658 266.805C560.478 267.134 561.231 266.207 560.749 265.464L554.939 256.535C554.708 256.187 554.756 255.724 555.036 255.415L560.884 249.189C561.52 248.513 560.855 247.432 559.967 247.693L551.572 250.164C551.186 250.28 550.771 250.125 550.559 249.787L546.38 243.368C545.936 242.683 544.885 242.886 544.73 243.687L543.07 252.152C543.003 252.481 542.762 252.751 542.434 252.847L534.579 255.154C533.749 255.396 533.701 256.554 534.502 256.873L540.89 259.392C541.295 259.556 541.536 259.981 541.449 260.415L539.712 269.296C539.539 270.194 540.639 270.753 541.266 270.097L548.069 262.848C548.32 262.577 548.715 262.491 549.063 262.626Z" fill="#49B3F7"/>
<path d="M451.66 91.7024L462.255 95.8821C463.075 96.2103 463.828 95.2836 463.345 94.5403L457.536 85.6114C457.305 85.2639 457.353 84.8006 457.633 84.4917L463.48 78.2656C464.117 77.5899 463.451 76.5088 462.564 76.7694L454.168 79.2405C453.782 79.3564 453.367 79.2019 453.155 78.8641L448.977 72.4449C448.533 71.7596 447.481 71.9623 447.327 72.7635L445.667 81.229C445.6 81.5572 445.358 81.8275 445.03 81.924L437.175 84.231C436.346 84.4724 436.297 85.6307 437.098 85.9493L443.486 88.4687C443.892 88.6327 444.133 89.0575 444.046 89.4919L442.309 98.3725C442.135 99.2702 443.235 99.8301 443.863 99.1737L450.666 91.9244C450.917 91.6541 451.312 91.5672 451.66 91.7024Z" fill="#FFC652"/>
<path d="M439.279 247.026L439.848 255.753C439.896 256.428 440.784 256.65 441.141 256.071L445.435 249.111C445.599 248.841 445.937 248.716 446.246 248.812L452.48 250.83C453.155 251.052 453.686 250.231 453.213 249.7L448.755 244.681C448.552 244.449 448.523 244.111 448.678 243.851L451.765 238.85C452.094 238.32 451.611 237.653 451.003 237.808L444.586 239.43C444.335 239.497 444.065 239.41 443.891 239.217L439.713 234.526C439.269 234.034 438.449 234.372 438.497 235.038L438.845 240.298C438.864 240.636 438.642 240.935 438.324 241.022L431.598 242.721C430.922 242.895 430.893 243.841 431.559 244.063L438.816 246.409C439.067 246.495 439.26 246.737 439.279 247.026Z" fill="#FF6551"/>
<path d="M49.4637 194.225L59.5282 194.727C60.3098 194.766 60.6765 193.781 60.0686 193.289L52.6673 187.449C52.3779 187.217 52.2814 186.822 52.4357 186.484L55.5719 179.601C55.9096 178.858 55.0508 178.134 54.3753 178.607L48.0355 183.057C47.746 183.26 47.3504 183.25 47.0706 183.028L41.744 178.829C41.1747 178.385 40.3544 178.848 40.4509 179.563L41.4642 187.13C41.5028 187.43 41.3773 187.719 41.1264 187.893L35.1919 192.063C34.5647 192.507 34.8542 193.492 35.6165 193.521L41.6957 193.82C42.0817 193.839 42.4002 194.129 42.4484 194.515L43.5099 202.45C43.616 203.251 44.7064 203.415 45.0345 202.681L48.6821 194.669C48.8268 194.399 49.1259 194.216 49.4637 194.225Z" fill="#FFC652"/>
</svg>
