<svg width="24" height="24" viewBox="0 0 24 24" fill="none" xmlns="http://www.w3.org/2000/svg">
<circle cx="12" cy="12" r="12" fill="url(#paint0_linear_210_761)"/>
<path d="M8.74084 6.61927C8.15505 6.03349 7.2053 6.03349 6.61952 6.61927C6.03373 7.20506 6.03373 8.15481 6.61952 8.74059L8.74084 6.61927ZM14.7795 16.9006C15.3653 17.4864 16.315 17.4864 16.9008 16.9006C17.4866 16.3148 17.4866 15.3651 16.9008 14.7793L14.7795 16.9006ZM16.9008 8.74059C17.4866 8.15481 17.4866 7.20506 16.9008 6.61927C16.315 6.03349 15.3653 6.03349 14.7795 6.61927L16.9008 8.74059ZM6.61952 14.7793C6.03373 15.3651 6.03373 16.3148 6.61952 16.9006C7.2053 17.4864 8.15505 17.4864 8.74084 16.9006L6.61952 14.7793ZM6.61952 8.74059L14.7795 16.9006L16.9008 14.7793L8.74084 6.61927L6.61952 8.74059ZM14.7795 6.61927L6.61952 14.7793L8.74084 16.9006L16.9008 8.74059L14.7795 6.61927Z" fill="white"/>
<defs>
<linearGradient id="paint0_linear_210_761" x1="12.0615" y1="24" x2="23.3689" y2="1.32209" gradientUnits="userSpaceOnUse">
<stop stop-color="#4271DF"/>
<stop offset="1" stop-color="#789CF1"/>
</linearGradient>
</defs>
</svg>
