<svg width="21" height="27" viewBox="0 0 21 27" fill="none" xmlns="http://www.w3.org/2000/svg">
<path d="M10.1381 19.9637C9.99922 19.57 10.0271 19.2044 10.1104 18.8951H2.49966C2.02748 18.8951 1.63864 18.5015 1.63864 18.0235V2.67112C1.63864 2.19314 2.0275 1.79951 2.49966 1.79951H9.99933C10.2216 1.79951 10.4159 1.99644 10.4159 2.2212L10.4161 5.06122C10.4161 5.70788 10.9439 6.24217 11.5827 6.24217H14.3881C14.6103 6.24217 14.8047 6.43909 14.8047 6.66386V12.6249C14.9992 12.5405 15.2491 12.4842 15.4991 12.4842C15.8602 12.4842 16.1658 12.5966 16.4434 12.7373L16.4436 6.29874C16.4436 5.62386 16.1937 4.9772 15.7215 4.49919L12.1105 0.84381C11.6383 0.365829 10.9995 0.112793 10.3328 0.112793H2.49979C1.13869 0.112793 0 1.23741 0 2.64331V17.9957C0 19.3735 1.11096 20.5262 2.49979 20.5262H10.4717C10.3329 20.3856 10.2217 20.1889 10.1384 19.9639L10.1381 19.9637Z" fill="#243976"/>
<path d="M3.49978 16.1395C3.49978 16.5894 3.86093 16.9548 4.3052 16.9548H10.0549C10.0549 16.7861 10.0827 16.6175 10.1383 16.4205C10.3328 15.8582 10.7217 15.5206 11.0826 15.2959H4.30513C3.86066 15.3239 3.49951 15.6895 3.49951 16.1395H3.49978Z" fill="#243976"/>
<path d="M12.9433 12.5682C12.9433 12.1183 12.5822 11.7529 12.1379 11.7529H4.30493C3.86046 11.7529 3.49951 12.1185 3.49951 12.5682C3.49951 13.0182 3.86067 13.3836 4.30493 13.3836H12.1101C12.5823 13.3838 12.9435 13.0182 12.9435 12.5682H12.9433Z" fill="#243976"/>
<path d="M12.1101 8.15381H4.30493C3.86046 8.15381 3.49951 8.5194 3.49951 8.96913C3.49951 9.41906 3.86067 9.78445 4.30493 9.78445H12.1101C12.5546 9.78445 12.9156 9.41886 12.9156 8.96913C12.9435 8.5192 12.5823 8.15381 12.1101 8.15381Z" fill="#243976"/>
<path d="M4.30493 6.24217H7.94361C8.38808 6.24217 8.74903 5.87657 8.74903 5.42684C8.74903 4.97691 8.38788 4.61152 7.94361 4.61152L4.30493 4.61133C3.86046 4.61133 3.49951 4.97692 3.49951 5.42665C3.49932 5.87658 3.86047 6.24217 4.30493 6.24217V6.24217Z" fill="#243976"/>
<path d="M13.9157 23.1128C13.7212 23.1408 13.5268 23.1971 13.3046 23.1971C12.888 23.1971 12.4992 23.0847 12.1936 22.8315C11.8881 22.6065 11.7215 22.3255 11.5826 22.0723L10.0548 24.8841C9.88817 25.1653 10.1381 25.5307 10.4437 25.5027L11.8325 25.3903L12.4713 26.6555C12.6379 26.9648 13.0547 26.9648 13.1934 26.6555L14.7489 23.7874C14.4158 23.5907 14.1103 23.3097 13.9157 23.1127L13.9157 23.1128Z" fill="#243976"/>
<path d="M20.9436 24.8841L19.4158 22.0723C19.3048 22.3535 19.1103 22.6066 18.8048 22.8315C18.4992 23.0564 18.1103 23.1971 17.6938 23.1971C17.4715 23.1971 17.2493 23.169 17.0827 23.1128C16.8882 23.3377 16.6105 23.6188 16.2217 23.7876L17.7771 26.6557C17.9437 26.937 18.3605 26.937 18.4993 26.6557L19.1381 25.3905L20.5269 25.5028C20.8882 25.5307 21.1105 25.1651 20.9437 24.8841L20.9436 24.8841Z" fill="#243976"/>
<path d="M16.6098 21.6788C16.9986 21.5382 17.6653 21.9319 17.9986 21.6788C18.3319 21.4258 18.1652 20.6666 18.4152 20.3292C18.6651 19.9919 19.4151 19.9075 19.5541 19.5139C19.6651 19.1203 19.1096 18.614 19.1096 18.1924C19.1096 17.7707 19.6651 17.2364 19.5541 16.8708C19.4151 16.4772 18.6651 16.3928 18.4152 16.0555C18.1652 15.7181 18.3319 14.9589 17.9986 14.7059C17.6654 14.4529 16.9987 14.8465 16.6098 14.7059C16.2209 14.5935 15.9154 13.8623 15.4988 13.8623C15.0823 13.8623 14.7767 14.5653 14.3879 14.7059C13.999 14.8465 13.3323 14.4529 12.999 14.7059C12.6658 14.9589 12.8324 15.7181 12.5825 16.0555C12.3325 16.3929 11.5825 16.4772 11.4436 16.8708C11.3324 17.2643 11.8878 17.7705 11.8878 18.1922C11.8878 18.6139 11.3324 19.1481 11.4434 19.5137C11.5823 19.9074 12.3323 19.9917 12.5823 20.329C12.8322 20.6664 12.6656 21.4256 12.9988 21.6786C13.3321 21.9317 13.9988 21.538 14.3877 21.6786C14.7765 21.791 15.0821 22.5222 15.4986 22.5222C15.9433 22.4942 16.2488 21.7912 16.6098 21.6788H16.6098ZM15.6098 19.7106C15.5542 19.6826 15.4709 19.6826 15.4153 19.7106L14.5543 20.2167C14.332 20.3573 14.0544 20.1323 14.1098 19.8793L14.3043 18.8951C14.3043 18.8388 14.3043 18.7544 14.2487 18.6982L13.4987 18.0233C13.3042 17.8546 13.4154 17.5173 13.6653 17.489L14.6653 17.3766C14.7209 17.3766 14.8042 17.3203 14.8319 17.2642L15.2485 16.3363C15.3595 16.0833 15.693 16.0833 15.804 16.3363L16.2205 17.2642C16.2483 17.3205 16.3039 17.3766 16.3872 17.3766L17.3871 17.489C17.6371 17.517 17.7483 17.8546 17.5538 18.0233L16.8037 18.6982C16.7481 18.7544 16.7204 18.8105 16.7481 18.8951L16.9427 19.8793C16.9983 20.1323 16.7204 20.3573 16.4982 20.2167L15.6098 19.7106Z" fill="#243976"/>
</svg>
