<svg width="620" height="295" viewBox="0 0 620 295" fill="none" xmlns="http://www.w3.org/2000/svg">
<path d="M243.236 47.3837L241.26 49.4516L239.787 50.9573L201.236 25.4301C201.236 25.4301 202.581 23.6132 204.32 21.3145C207.444 17.1988 211.853 11.5372 212.129 12.0191C212.554 12.7518 243.286 47.3837 243.286 47.3837" fill="#864FF1"/>
<path d="M238.306 57.2892C238.831 56.8807 256.594 48.4855 257.437 48.98C258.279 49.4745 258.428 51.0008 258.22 51.1298C258.012 51.2588 239.703 59.6648 238.891 58.9016C238.664 58.7262 238.489 58.4842 238.385 58.2042C238.281 57.9242 238.254 57.6179 238.306 57.3214" fill="#864FF1"/>
<g style="mix-blend-mode:multiply" opacity="0.36">
<g style="mix-blend-mode:multiply" opacity="0.36">
<g style="mix-blend-mode:multiply" opacity="0.36">
<path d="M241.602 49.0542L240.117 50.5439L201.236 25.2886C201.236 25.2886 202.592 23.4911 204.347 21.2168L241.602 49.0542Z" fill="#2D7F75"/>
</g>
</g>
</g>
<path d="M262.309 60.3746C262.056 61.1256 234.017 72.5522 233.634 71.9129C233.634 71.9129 232.787 70.6038 232.111 69.2643C231.436 67.9248 230.992 66.7577 231.476 66.4939C232.484 65.956 259.264 54.7628 260.151 54.9556C260.594 55.0469 261.159 56.2038 261.643 57.4418C262.059 58.3643 262.285 59.3619 262.309 60.3746Z" fill="#864FF1"/>
<path d="M233.359 59.6672C228.488 61.0536 221.912 59.7366 218.307 55.9438C214.703 52.1511 215.151 46.2392 217.197 41.7235C218.543 38.9706 220.433 36.5299 222.75 34.554C223.724 33.7024 222.019 30.1275 220.85 31.1573C216.125 35.3462 212.969 41.2878 213.271 47.7345C213.363 51.0486 214.434 54.2579 216.345 56.9444C218.256 59.6309 220.919 61.6701 223.987 62.7965C227.445 64.0885 231.205 64.2955 234.781 63.3907C236.028 63.0441 234.693 59.281 233.32 59.6672" fill="#FFC652"/>
<path d="M232.274 50.7759L243.658 38.9668L245.289 40.4771L233.915 51.9558L232.274 50.7759Z" fill="#FFC652"/>
<g style="mix-blend-mode:multiply" opacity="0.36">
<g style="mix-blend-mode:multiply" opacity="0.36">
<g style="mix-blend-mode:multiply" opacity="0.36">
<path d="M262.31 60.6221C262.061 61.357 234.336 72.5396 233.958 71.914C233.958 71.914 233.12 70.6329 232.452 69.3219L232.801 69.1928C236.011 68.0507 259.718 59.5297 261.652 57.752C262.063 58.6548 262.287 59.631 262.31 60.6221Z" fill="#2D7F75"/>
</g>
</g>
</g>
<path d="M226.783 33.3473C226.179 34.7399 225.071 35.8525 223.681 36.4621C222.291 37.0716 220.723 37.1331 219.29 36.634C217.857 36.135 216.665 35.1123 215.954 33.7713C215.244 32.4302 215.066 30.8699 215.457 29.4033C215.534 29.1419 215.627 28.8851 215.733 28.6342C216.221 27.486 217.054 26.5183 218.117 25.8657C219.18 25.213 220.42 24.9078 221.664 24.9923C222.909 25.0769 224.096 25.5471 225.061 26.3376C226.026 27.1281 226.72 28.1996 227.049 29.4033C227.415 30.7096 227.321 32.1021 226.783 33.3473Z" fill="#FFCD69"/>
<path d="M227.268 29.4806C226.921 30.7146 226.188 31.8106 225.174 32.6144C224.159 33.4182 222.913 33.8892 221.612 33.9612C220.31 34.0332 219.018 33.7025 217.918 33.0158C216.818 32.329 215.965 31.3206 215.479 30.1327C215.397 29.912 215.315 29.7013 215.254 29.4806C215.334 29.2146 215.43 28.9533 215.54 28.698C216.046 27.5298 216.909 26.5452 218.011 25.8812C219.113 25.2171 220.398 24.9065 221.687 24.9926C222.977 25.0786 224.208 25.5571 225.208 26.3614C226.208 27.1657 226.928 28.2559 227.268 29.4806Z" fill="#FFC652"/>
<path d="M238.828 66.5483C237.817 66.9534 236.708 67.05 235.642 66.8258C234.576 66.6016 233.601 66.0668 232.84 65.289C232.078 64.5112 231.565 63.5254 231.365 62.4564C231.166 61.3874 231.288 60.2833 231.717 59.2838C232.146 58.2842 232.863 57.4343 233.776 56.8415C234.689 56.2486 235.758 55.9397 236.848 55.9536C237.937 55.9675 238.998 56.3037 239.895 56.9197C240.793 57.5356 241.488 58.4036 241.891 59.4138C241.953 59.5574 242.006 59.7048 242.049 59.8551C242.448 61.1707 242.338 62.5879 241.742 63.8269C241.146 65.0659 240.106 66.0369 238.828 66.5483Z" fill="#FFCD69"/>
<path d="M241.284 59.9467C240.97 61.0634 240.341 62.0475 239.485 62.763C238.629 63.4786 237.588 63.8902 236.505 63.941C235.423 63.9919 234.352 63.6794 233.441 63.0468C232.531 62.4142 231.825 61.4928 231.422 60.4098L231.272 59.9467C231.587 58.8305 232.217 57.8472 233.073 57.1328C233.93 56.4183 234.971 56.0079 236.054 55.9582C237.137 55.9086 238.207 56.2221 239.117 56.8556C240.027 57.489 240.731 58.4111 241.134 59.4944C241.193 59.6416 241.243 59.7927 241.284 59.9467Z" fill="#FFC652"/>
<path d="M410.096 37.0642C409.784 35.1294 409.102 33.272 408.087 31.5927C406.183 28.1231 403.512 25.1289 400.274 22.8364C398.244 21.5389 396.104 20.423 393.876 19.5016C383.291 14.8089 370.687 16.5062 363.747 26.4907C357.872 34.9675 357.551 48.3666 363.175 57.073C364.768 59.7319 367.16 61.827 370.014 63.0637C371.501 63.5871 373.058 63.8898 374.634 63.9623C378.651 64.2418 383.17 63.4531 385.28 60.0983C386.605 57.9816 386.625 55.3357 387.178 52.8995C387.73 50.4633 389.256 47.8474 391.757 47.5878C393.119 47.6147 394.462 47.9029 395.714 48.4365C397.468 48.9444 399.317 49.041 401.116 48.7188C402.914 48.3966 404.613 47.6643 406.078 46.5794C407.511 45.4607 408.632 43.9965 409.335 42.3259C410.038 40.6553 410.3 38.8338 410.096 37.0342" fill="#C6C6C6"/>
<path d="M389.615 34.7149C390.412 35.0059 391.277 35.0822 392.116 34.9357C392.955 34.7892 393.736 34.4254 394.376 33.8835C395.039 33.3138 395.544 32.5939 395.844 31.7891C396.144 30.9843 396.23 30.1201 396.095 29.2751C395.974 28.6341 395.736 28.0189 395.39 27.4584C395.23 27.0796 395.041 26.7126 394.825 26.3602C394.381 25.5931 393.718 24.9646 392.914 24.5497C392.109 24.1348 391.198 23.9509 390.288 24.0201C389.917 24.0851 389.558 24.1991 389.22 24.3588C388.728 24.4218 388.254 24.5752 387.822 24.8104C387.705 24.8858 387.623 25.0016 387.594 25.1336C387.564 25.2655 387.588 25.4035 387.662 25.5186C387.301 25.9168 386.996 26.3585 386.754 26.8324C385.335 29.6549 386.477 33.5962 389.69 34.7149" fill="#FFC652"/>
<path d="M375.867 40.0035C380.359 40.2048 382.2 34.5193 380.563 31.1181C379.697 29.3323 378.149 27.9547 376.256 27.2841C374.333 26.62 372.092 27.1131 371.274 29.1055C371.248 29.2113 371.248 29.3216 371.274 29.4275C370.993 29.6003 370.735 29.8064 370.506 30.0413C370.002 30.559 369.622 31.1809 369.394 31.8617C369.165 32.5424 369.095 33.2648 369.187 33.9759C369.298 34.6999 369.578 35.3888 370.005 35.9884C370.199 36.2783 370.45 36.5279 370.742 36.723C370.841 37.08 370.996 37.4196 371.202 37.7293C371.79 38.3995 372.51 38.945 373.319 39.3325C374.128 39.72 375.009 39.9415 375.908 39.9834" fill="#E76166"/>
<path d="M405.996 46.561C404.533 47.6471 402.838 48.3802 401.043 48.7028C399.248 49.0254 397.403 48.9286 395.652 48.4201C394.403 47.886 393.062 47.5975 391.703 47.5705C389.207 47.8204 387.693 50.4492 387.132 52.888C386.571 55.3269 386.561 57.9757 385.238 60.0947C383.133 63.4531 378.572 64.2427 374.613 63.9628C373.04 63.8903 371.486 63.5872 370.002 63.0633C367.154 61.8253 364.766 59.7278 363.176 57.0661C359.167 50.829 358.164 42.213 360.089 34.6966C360.634 38.0916 361.854 41.3438 363.677 44.2621C365.269 46.9263 367.66 49.0242 370.513 50.2593C371.994 50.7835 373.544 51.0866 375.114 51.1588C379.123 51.4387 383.634 50.6491 385.739 47.2907C387.072 45.1717 387.092 42.5329 387.633 40.094C388.174 37.6552 389.708 35.0264 392.204 34.7665C393.583 34.787 394.945 35.0756 396.213 35.6161C397.962 36.1269 399.807 36.2248 401.6 35.9021C403.394 35.5794 405.087 34.845 406.547 33.757C407.206 33.2464 407.802 32.6591 408.321 32.0078C409.216 33.5509 409.817 35.2451 410.096 37.0055C410.299 38.8069 410.038 40.6305 409.336 42.3029C408.635 43.9753 407.516 45.4411 406.086 46.561" fill="#B7B7B7"/>
<path d="M373.406 58.0071C374.909 58.0614 376.53 57.6706 377.311 56.1182C377.762 55.6768 378.042 55.0581 378.092 54.3921C378.208 53.5746 378.152 52.7383 377.926 51.9495C377.692 51.1632 377.31 50.4416 376.805 49.8331C376.3 49.2246 375.683 48.7432 374.997 48.4213C374.275 48.1194 373.505 47.9811 372.734 48.0147C371.963 48.0482 371.205 48.2529 370.506 48.6167C369.052 49.3115 367.402 50.4297 367.177 52.3403C366.757 55.9662 370.731 57.9311 373.386 58.0071" fill="#864FF1"/>
<path d="M397.665 26.9973C397.359 26.2267 396.897 25.5229 396.306 24.9273C395.715 24.3316 395.006 23.8561 394.222 23.5286C393.256 23.1279 392.175 23.0703 391.169 23.3659C391.153 23.3229 391.128 23.2836 391.095 23.2503C391.063 23.2171 391.023 23.1907 390.98 23.1726C390.295 22.9818 389.572 22.9543 388.873 23.0925C388.175 23.2306 387.521 23.5304 386.969 23.966C385.775 24.8069 384.89 25.9934 384.442 27.3533C384.034 28.6919 384.058 30.1191 384.511 31.4442C384.964 32.7693 385.825 33.9291 386.979 34.7687C388.189 35.5762 389.625 36.0087 391.095 36.0087C392.566 36.0087 394.002 35.5762 395.212 34.7687C396.467 33.9197 397.395 32.6913 397.848 31.277C398.302 29.8627 398.256 28.3428 397.717 26.9566L397.665 26.9973ZM394.833 33.4362C393.927 34.145 392.822 34.5753 391.66 34.6714C390.498 34.7675 389.334 34.525 388.316 33.9753C387.345 33.4089 386.573 32.5736 386.1 31.5777C385.627 30.5818 385.475 29.4714 385.663 28.3908C385.91 27.1775 386.606 26.0926 387.621 25.3393C388.104 24.9816 388.626 24.6779 389.179 24.4339C389.368 24.3522 389.561 24.2809 389.758 24.2203L389.632 24.3322C389.443 24.5458 389.706 24.9324 389.98 24.8001C390.542 24.5339 391.154 24.3796 391.779 24.3464C392.404 24.3131 393.03 24.4016 393.619 24.6065C394.208 24.8115 394.749 25.1287 395.209 25.5394C395.669 25.9501 396.038 26.4459 396.296 26.9973C396.834 28.0722 396.984 29.2899 396.722 30.4566C396.461 31.6234 395.803 32.6722 394.854 33.4362" fill="white"/>
<path d="M380.739 37.0363C381.273 36.4153 381.67 35.6938 381.906 34.9168C382.141 34.1398 382.209 33.3241 382.105 32.5205C381.83 30.9576 381.201 29.4734 380.266 28.1746C379.811 27.5568 379.222 27.0441 378.54 26.6729C377.858 26.3016 377.1 26.081 376.321 26.0266C375.545 25.9553 374.762 26.0685 374.04 26.3562C373.794 26.4756 373.557 26.6125 373.331 26.7659C370.588 27.1755 368.451 29.9629 368.195 32.5405C368.02 33.9804 368.325 35.4369 369.064 36.6958C369.804 37.9546 370.94 38.9495 372.304 39.534C373.805 40.101 375.457 40.1621 376.998 39.7075C378.538 39.2528 379.877 38.3087 380.8 37.0263L380.739 37.0363ZM369.746 33.4496C369.737 32.2105 370.177 31.008 370.989 30.0528C371.951 29.0805 373.099 28.3 374.369 27.755C374.477 27.7047 374.564 27.6201 374.616 27.5152C375.001 27.4402 375.393 27.4001 375.787 27.3953C376.836 27.3839 377.847 27.7752 378.602 28.4843C379.439 29.4512 380.042 30.5879 380.369 31.8112C380.604 32.4167 380.697 33.0658 380.64 33.7108C380.583 34.3557 380.378 34.98 380.04 35.5377C379.437 36.6549 378.468 37.545 377.287 38.0677C376.105 38.5905 374.779 38.7162 373.516 38.425C372.415 38.1038 371.451 37.4425 370.771 36.5412C370.091 35.6399 369.731 34.5476 369.746 33.4297" fill="white"/>
<path d="M377.45 48.8491C376.443 47.8114 375.115 47.1716 373.697 47.0414C373.148 46.9802 372.594 47.0079 372.054 47.1236C369.475 46.836 366.707 49.414 366.179 51.879C366.101 52.61 366.164 53.3498 366.366 54.0552C366.568 54.7606 366.903 55.4174 367.354 55.9874C368.123 57.28 369.312 58.2485 370.71 58.7195C372.172 59.11 373.707 59.11 375.17 58.7195C375.877 58.5747 376.542 58.2678 377.118 57.8215C377.694 57.3752 378.164 56.801 378.496 56.1415C379.066 54.9529 379.271 53.6133 379.085 52.3012C378.898 50.9892 378.328 49.767 377.45 48.7977V48.8491ZM375.648 57.3329C374.516 57.7334 373.309 57.8565 372.123 57.6924C370.894 57.5584 369.766 56.9267 368.987 55.936C368.169 55.0346 367.652 53.8862 367.513 52.6596C367.603 52.0466 367.817 51.46 368.142 50.938C368.466 50.4159 368.893 49.9702 369.395 49.6297C370.029 49.1512 370.694 48.7187 371.387 48.3355C372.16 48.1387 372.964 48.1064 373.75 48.2406C374.535 48.3748 375.286 48.6727 375.957 49.1161C376.766 49.7475 377.375 50.6129 377.707 51.6023C378.039 52.5917 378.077 53.6605 377.819 54.6727C377.693 55.2615 377.432 55.8106 377.058 56.2736C376.684 56.7365 376.207 57.0999 375.668 57.3329" fill="white"/>
<path d="M410.961 18.2763L410.137 17.8823L408.462 19.0037C406.302 18.5433 404.255 17.6181 402.449 16.2859C401.882 15.6918 401.455 14.9649 401.204 14.1643C400.438 12.0022 400.333 9.64814 399.806 7.41533C399.28 5.18251 398.15 2.90929 396.158 2L399.586 2.36372C400.543 2.46475 401.568 2.57588 402.554 2.72743C403.987 2.92517 405.392 3.30512 406.738 3.859C407.889 4.29547 408.938 4.98514 409.816 5.88222C410.694 6.77931 411.381 7.86327 411.832 9.06215C412.665 11.7193 411.765 15.6191 410.97 18.2864" fill="#FFC652"/>
<path d="M428.59 47.7187C428.228 47.9194 427.816 48.0197 427.4 48.009C426.984 47.9984 426.579 47.8771 426.227 47.6582C423.145 46.2665 420.874 43.5537 419.158 40.5988C418.911 40.1753 418.675 39.7416 418.449 39.308C416.984 36.3978 415.68 33.4116 414.545 30.3627C413.414 27.4784 412.294 24.6042 411.164 21.73L411.965 21.367L412.787 21.0039C415.767 25.0379 419.045 28.2953 422.127 32.2082C425.21 36.1211 427.902 40.4677 429.001 45.3185C429.163 45.7206 429.211 46.1583 429.138 46.5847C429.066 47.0111 428.876 47.4102 428.59 47.7389" fill="#C6C6C6"/>
<path d="M428.597 47.7187C428.238 47.9194 427.832 48.0197 427.42 48.009C427.009 47.9984 426.608 47.8771 426.261 47.6582C423.214 46.2665 420.969 43.5537 419.273 40.5988C419.753 39.8437 419.984 38.9589 419.934 38.0675C419.902 35.3689 419.175 32.7233 417.821 30.3828C416.318 27.7507 414.52 25.2698 412.956 22.6679L412.164 21.367L412.977 21.0039C415.922 25.0379 419.162 28.2953 422.209 32.2082C425.255 36.1211 427.916 40.4677 429.003 45.3185C429.163 45.7206 429.21 46.1583 429.138 46.5847C429.067 47.0111 428.879 47.4102 428.597 47.7389" fill="#B7B7B7"/>
<path d="M402.727 15.857C402.134 15.2807 401.689 14.5756 401.427 13.799C400.627 11.7019 400.517 9.41849 399.967 7.25272C399.417 5.08695 398.238 2.88199 396.158 2L399.737 2.3528C400.737 2.45079 401.807 2.55859 402.827 2.70559C403.206 2.76439 403.916 4.10697 404.106 4.42056C404.484 5.05099 404.818 5.70581 405.106 6.38053C408.105 13.4658 403.876 16.837 402.777 15.8276" fill="#E76166"/>
<path d="M410.963 21.6133C411.33 21.8878 411.769 22.0246 412.214 22.0027C412.659 21.9809 413.085 21.8017 413.427 21.4925C413.77 21.1832 414.01 20.7608 414.111 20.2894C414.213 19.8181 414.17 19.3236 413.989 18.8813C413.803 18.4567 413.526 18.087 413.18 17.8035C412.864 17.5037 412.493 17.2798 412.091 17.1462C411.69 17.0127 411.267 16.9725 410.85 17.0283C410.434 17.0954 410.049 17.3018 409.746 17.6187C409.444 17.9356 409.24 18.3472 409.163 18.7962C409.171 19.3451 409.315 19.8815 409.58 20.349C409.844 20.8165 410.22 21.1978 410.667 21.4526C410.905 21.6702 411.185 21.8252 411.487 21.9055C411.789 21.9858 412.103 21.9894 412.406 21.9159L410.963 21.6133Z" fill="#B7B7B7"/>
<path d="M124.049 55.3763C111.129 63.3226 98.1793 70.0671 85.2592 77.9836L84.9629 78.1227L82.9873 79.0166C72.6749 62.0015 63.3898 46.5856 53.0774 29.5705L52.0205 27.6436L83.3528 8.47303L92.0353 3.14899L92.2823 3C102.565 19.9754 124.049 55.3763 124.049 55.3763Z" fill="#FFC652"/>
<path d="M54.5622 31.3721C54.0685 30.5515 52.785 30.9263 52.1433 31.3214C51.2762 31.8592 50.6144 32.6848 50.2674 33.6615C50.0669 34.1381 49.9863 34.6586 50.0329 35.1755C50.0794 35.6923 50.2517 36.1889 50.534 36.6196C51.2837 37.4506 52.324 37.9425 53.4268 37.9872C55.9444 38.2101 58.0671 36.5791 60.0713 35.2621C60.5495 35.018 60.9698 34.6693 61.3024 34.2404C61.6351 33.8116 61.872 33.3132 61.9965 32.7802C62.1272 31.584 61.8017 30.3824 61.0882 29.427C60.407 28.414 58.7977 29.427 59.4987 30.3793C60.0016 30.9686 60.2633 31.7343 60.2293 32.5168C60.1009 33.3475 59.1334 33.773 58.5311 34.2086C57.1489 35.2216 55.6679 36.3562 53.9105 36.4373C53.2293 36.4373 52.1334 36.3461 51.7187 35.6775C51.3041 35.0089 51.7187 34.0667 52.163 33.5298C52.6405 32.9709 53.2254 32.5191 53.8809 32.2027C54.0685 32.0913 54.7695 31.7064 54.5622 31.3721Z" fill="#864FF1"/>
<path d="M58.5696 40.623C56.6647 40.9525 54.6334 42.3574 55.0859 44.3631C55.5806 46.5432 58.1592 47.3183 60.2957 46.9017C61.467 46.6198 62.5726 46.1437 63.5583 45.4967C64.6599 44.9078 65.6082 44.1042 66.3368 43.1422C66.6571 42.7326 66.8734 42.262 66.9697 41.7652C67.0661 41.2684 67.0401 40.758 66.8936 40.2716C66.7472 39.7853 66.484 39.3354 66.1235 38.9552C65.763 38.575 65.3144 38.2741 64.8107 38.0748C63.6951 37.6484 63.1479 39.3828 64.3056 39.7704C65.8527 40.2839 64.9897 42.1539 64.2319 42.9C63.1288 43.9817 61.7561 44.7998 60.2325 45.2836C58.9485 45.6614 57.0751 45.5258 56.6436 44.0724C56.2121 42.619 57.9276 41.9795 58.9275 41.4175C59.0225 41.3629 59.0934 41.2789 59.1275 41.1806C59.1617 41.0824 59.1569 40.9761 59.1139 40.8808C59.071 40.7855 58.9928 40.7073 58.8931 40.6601C58.7934 40.6129 58.6788 40.5998 58.5696 40.623Z" fill="#864FF1"/>
<path d="M65.5731 50.3333C65.0793 49.5135 63.7955 49.888 63.1537 50.3333C62.2794 50.8621 61.615 51.69 61.2774 52.6712C61.0731 53.1447 60.9904 53.6639 61.0371 54.1794C61.0838 54.6948 61.2582 55.1895 61.544 55.6164C61.9134 56.0307 62.3594 56.3657 62.8561 56.6019C63.3528 56.8382 63.8903 56.9711 64.4374 56.9929C66.9556 57.2054 69.0788 55.576 71.0736 54.2602C71.554 54.0192 71.976 53.6717 72.3091 53.2428C72.6421 52.8139 72.8779 52.3144 72.9993 51.7806C73.1338 50.5868 72.8117 49.3861 72.1006 48.4305C71.4192 47.4184 69.8096 48.4305 70.5008 49.3819C71.0074 49.9691 71.2728 50.7343 71.2415 51.5174C71.1032 52.3474 70.1453 52.7826 69.533 53.2178C68.1505 54.2299 66.6692 55.3533 64.9213 55.4343C64.23 55.4343 63.1438 55.3533 62.729 54.6853C62.3143 54.0173 62.729 53.066 63.1734 52.5295C63.6537 51.974 64.238 51.5231 64.8917 51.2037C65.0793 51.0924 65.7805 50.7179 65.5731 50.3738" fill="#864FF1"/>
<path d="M70.2698 58.6301C68.5329 58.9699 66.6706 60.3682 67.0855 62.3782C67.539 64.563 69.8935 65.2913 71.8523 64.9223C72.9269 64.6419 73.941 64.1646 74.8436 63.5143C75.8552 62.9305 76.7253 62.1279 77.3911 61.1644C77.6868 60.7543 77.8871 60.2826 77.9771 59.784C78.0672 59.2855 78.0446 58.773 77.9112 58.2844C77.7778 57.7958 77.5369 57.3437 77.2063 56.9615C76.8757 56.5793 76.464 56.2767 76.0016 56.0763C74.9787 55.6588 74.4673 57.3872 75.5384 57.7756C76.9569 58.2902 76.1559 60.1643 75.4612 60.9217C74.4481 62.0036 73.1901 62.8231 71.7944 63.3104C70.6268 63.6794 68.8996 63.5531 68.5136 62.0966C68.1276 60.6401 69.6812 59.9895 70.6075 59.4263C70.6975 59.372 70.7649 59.2868 70.7972 59.1864C70.8296 59.086 70.8247 58.9772 70.7835 58.8801C70.7423 58.783 70.6676 58.7042 70.5732 58.6583C70.4788 58.6123 70.371 58.6023 70.2698 58.6301Z" fill="#864FF1"/>
<path d="M75.5766 68.6222C73.6713 68.9617 71.6397 70.3681 72.0923 72.3662C72.5871 74.5485 75.1556 75.3245 77.2925 74.9074C78.4648 74.6274 79.5711 74.1506 80.5558 73.501C81.6593 72.9179 82.6086 72.1161 83.3348 71.1537C83.6574 70.7449 83.8759 70.2744 83.9741 69.7771C84.0723 69.2798 84.0477 68.7685 83.902 68.2812C83.7564 67.7939 83.4935 67.343 83.1329 66.9621C82.7723 66.5812 82.3232 66.2801 81.819 66.081C80.7032 65.6542 80.1452 67.3807 81.3137 67.7687C82.8611 68.2828 81.9874 70.1547 81.2295 70.9113C80.1242 71.992 78.7519 72.8106 77.2293 73.2973C75.9556 73.6659 74.0713 73.5398 73.6503 72.0849C73.2292 70.63 74.924 69.9801 75.9345 69.4176C76.0296 69.3628 76.1005 69.2788 76.1347 69.1804C76.1688 69.082 76.164 68.9757 76.1211 68.8803C76.0781 68.7849 75.9999 68.7066 75.9002 68.6593C75.8005 68.6121 75.6859 68.5989 75.5766 68.6222Z" fill="#864FF1"/>
<path d="M81.5487 67.1903C81.3852 67.1903 81.2108 66.9604 81.0582 66.8873C80.9056 66.8141 80.4587 66.7515 80.1862 66.6261C79.8853 66.4819 79.6545 66.2313 79.5427 65.9272C79.4308 65.6231 79.4466 65.2892 79.5867 64.996C80.426 63.5331 81.7667 65.1632 82.5515 65.717C82.715 65.8424 83.0638 65.7901 83.0311 65.5289C82.9985 65.0119 82.816 64.514 82.504 64.0912C82.192 63.6684 81.7629 63.3376 81.2653 63.136C80.7918 62.9847 80.2817 62.9735 79.8015 63.1039C79.3213 63.2344 78.8932 63.5005 78.573 63.8675C77.1451 65.4975 78.7365 68.6219 81.0582 67.9113C81.1489 67.8864 81.2316 67.8398 81.2983 67.7758C81.3651 67.7118 81.4137 67.6326 81.4397 67.5456C81.4439 67.497 81.4612 67.4503 81.4898 67.41C81.5185 67.3697 81.5575 67.3372 81.6032 67.3157C81.6141 67.3055 81.6215 67.2924 81.6246 67.278C81.6276 67.2637 81.6261 67.2488 81.6202 67.2353C81.6144 67.2218 81.6044 67.2103 81.5917 67.2023C81.5789 67.1943 81.5639 67.1901 81.5487 67.1903Z" fill="#864FF1"/>
<path d="M75.9619 57.0748C75.2719 56.8106 73.902 56.7924 74.262 55.7268C74.6219 54.6611 76.3418 54.9799 76.7718 55.918C76.7718 56 76.9818 56.0364 77.0018 55.918C77.0798 55.5321 76.9998 55.1336 76.7768 54.7978C76.5538 54.4621 76.2034 54.2125 75.7919 54.0964C75.3171 53.9636 74.8061 53.9876 74.3488 54.1642C73.8915 54.3408 73.5173 54.6587 73.2921 55.0619C73.0613 55.447 72.9792 55.8916 73.059 56.3243C73.1388 56.7571 73.3758 57.1529 73.732 57.4482C74.372 57.9856 75.6519 58.359 76.1518 57.512C76.1747 57.4745 76.1879 57.4328 76.1905 57.39C76.193 57.3471 76.1848 57.3044 76.1665 57.2648C76.1482 57.2253 76.1203 57.1902 76.0848 57.162C76.0493 57.1338 76.0073 57.1133 75.9619 57.1021" fill="#864FF1"/>
<path d="M70.9213 48.6502C70.1553 48.3003 68.8788 47.6431 69.0977 46.6701C69.1623 46.4416 69.319 46.2454 69.535 46.1228C69.751 46.0003 70.0093 45.9609 70.2556 46.0129C70.7461 46.1703 71.1706 46.4691 71.4684 46.8664C71.7054 47.1396 72.0701 46.8664 72.0246 46.5677C71.9452 46.1885 71.746 45.8404 71.4527 45.5685C71.1595 45.2965 70.7858 45.1133 70.38 45.0424C69.9742 44.9716 69.5551 45.0165 69.1769 45.1713C68.7987 45.3261 68.4788 45.5836 68.2588 45.9105C68.0749 46.2548 67.9979 46.6406 68.0366 47.0238C68.0753 47.407 68.2281 47.7724 68.4776 48.0784C68.7443 48.4073 69.0986 48.6647 69.5051 48.825C69.9116 48.9853 70.3559 49.0428 70.7936 48.9916C70.9851 48.9916 71.0945 48.7185 70.8939 48.6246" fill="#864FF1"/>
<path d="M64.0437 38.6807C63.5611 38.5027 62.9779 38.6179 62.6059 38.1885C62.5026 38.0646 62.4254 37.9196 62.3792 37.7627C62.3331 37.6059 62.319 37.4407 62.338 37.2778C62.3569 37.115 62.4085 36.9581 62.4892 36.8173C62.57 36.6764 62.6783 36.5548 62.807 36.4603C63.903 35.6433 64.9185 36.7536 65.6123 37.56C65.7531 37.7276 66.0145 37.56 66.0245 37.3715C66.115 34.973 62.8774 34.2294 61.5401 35.9366C61.2058 36.3863 61.0244 36.9389 61.0244 37.5077C61.0244 38.0764 61.2058 38.629 61.5401 39.0787C61.8349 39.5379 62.292 39.8572 62.8117 39.9671C63.3315 40.0769 63.8719 39.9684 64.3152 39.6653C64.3809 39.5922 64.4276 39.5029 64.4508 39.4058C64.474 39.3087 64.4729 39.207 64.4477 39.1104C64.4225 39.0138 64.374 38.9255 64.3068 38.854C64.2396 38.7825 64.156 38.73 64.0638 38.7017" fill="#864FF1"/>
<path d="M60.1545 30.2243C59.7691 29.5487 57.7132 29.029 58.4841 27.9376C58.8202 27.4491 59.7789 26.8254 60.3621 27.0957C60.6947 27.3585 60.9544 27.7101 61.1143 28.114C61.2742 28.5179 61.3285 28.9594 61.2715 29.3928C61.2583 29.4438 61.265 29.4981 61.2901 29.544C61.3151 29.5898 61.3564 29.6232 61.4049 29.637C61.4534 29.6508 61.5051 29.6438 61.5487 29.6175C61.5922 29.5911 61.6241 29.5477 61.6372 29.4967C61.9506 28.9549 62.0795 28.3172 62.0029 27.6881C61.8511 27.1635 61.5339 26.7088 61.1034 26.3993C60.6118 26.0864 60.0351 25.9544 59.4643 26.024C58.8935 26.0936 58.3609 26.3609 57.9504 26.7839C57.7263 26.9123 57.5293 27.0872 57.3713 27.2981C57.2133 27.5089 57.0976 27.7512 57.0311 28.0103C56.9819 28.6144 57.1435 29.2167 57.4858 29.7046C57.98 30.4841 59.2353 31.4924 60.0853 30.744C60.1483 30.6745 60.1889 30.5858 60.2014 30.4907C60.2138 30.3955 60.1974 30.2987 60.1545 30.2139" fill="#864FF1"/>
<g style="mix-blend-mode:multiply">
<g style="mix-blend-mode:multiply">
<g style="mix-blend-mode:multiply">
<path d="M124.163 55.2817C111.214 63.2614 98.2345 70.0341 85.2852 77.9838L84.9882 78.1234C86.8533 76.5222 88.6376 74.8277 90.3343 73.0464C92.6294 70.6402 94.6242 67.9604 96.2743 65.0668C98.9625 60.6536 100.42 55.5916 100.492 50.4142C100.492 44.2998 98.3038 38.3549 96.3337 32.6595C95.2219 29.5863 93.8679 26.6078 92.2846 23.7522C90.6709 20.7598 88.7799 17.937 87.1068 14.9846C86.2653 13.5083 85.4337 11.9922 84.6417 10.516C84.2556 9.77787 83.7705 8.9799 83.4141 8.16199L92.1163 2.81564L92.3638 2.66602C102.67 19.7125 124.203 55.2618 124.203 55.2618" fill="#FFC652"/>
</g>
</g>
</g>
<path d="M117.84 61.9726L103.812 39.2589C99.1426 31.6909 94.6336 24.0146 89.784 16.5944L85.6959 10.3568C84.9845 9.27284 84.2631 8.19875 83.5216 7.1345C83.1609 6.62209 82.8002 6.14909 82.4495 5.60711C82.273 5.34617 82.0681 5.10496 81.8383 4.88776L81.7181 4.72024C81.6073 4.56177 81.4549 4.43577 81.2772 4.35564L81.0968 4.19798C81.0083 4.11866 80.9023 4.06068 80.7871 4.02864C80.6719 3.99659 80.5507 3.99136 80.433 4.01335C80.3154 4.03534 80.2046 4.08394 80.1094 4.15533C80.0142 4.22671 79.9371 4.31891 79.8844 4.42462C79.5944 4.46684 79.3174 4.57112 79.0728 4.7301C78.5217 5.03558 77.9506 5.29178 77.3895 5.5677C77.2261 5.66787 77.1073 5.82522 77.0571 6.00806C77.0069 6.1909 77.029 6.38565 77.1189 6.55311C77.5298 7.23304 77.9406 7.91297 78.4115 8.52393C78.6252 8.873 78.87 9.20276 79.143 9.50934C79.3513 9.69282 79.5881 9.8425 79.8443 9.95277C79.8876 9.97627 79.9361 9.98855 79.9855 9.98846C80.0349 9.98836 80.0835 9.97589 80.1266 9.95222C80.1697 9.92855 80.206 9.89447 80.232 9.85318C80.258 9.8119 80.2728 9.76478 80.2752 9.71627C80.2777 9.44703 80.244 9.17865 80.175 8.91809C80.0099 8.55577 79.8225 8.20366 79.6139 7.8637C79.3734 7.41042 79.1129 6.96698 78.8524 6.52355C79.3014 6.3348 79.72 6.08249 80.0948 5.77463C80.1618 5.99086 80.2455 6.2017 80.3453 6.40529C80.6059 6.90785 80.8864 7.39071 81.167 7.90312C81.708 8.88853 82.2491 9.87394 82.8202 10.8594L86.1168 16.4762C88.3612 20.3193 90.6725 24.1197 93.0505 27.8774C97.8099 35.3961 102.499 42.964 107.199 50.5418L115.214 63.4507L115.295 63.5591C115.014 63.7463 114.293 64.2489 114.062 64.1799C113.832 64.1109 113.541 63.4704 113.431 63.293C113.153 62.8347 112.902 62.3609 112.679 61.8741C112.309 61.066 110.886 61.6474 111.206 62.485C111.647 63.6182 112.339 65.7763 113.752 66.0128C114.5 66.0279 115.237 65.822 115.866 65.4215C116.222 65.2922 116.543 65.0848 116.805 64.815C117.067 64.5452 117.264 64.2202 117.379 63.8646C117.538 63.77 117.676 63.6448 117.785 63.4964C117.894 63.348 117.972 63.1795 118.013 63.001C118.054 62.8225 118.058 62.6377 118.025 62.4576C117.992 62.2775 117.922 62.1058 117.82 61.9529" fill="#864FF1"/>
<path d="M95.0677 1.59278C96.2635 4.27851 97.6192 6.88593 99.1268 9.4002C100.581 11.9993 102.113 14.5583 103.606 17.1273C106.533 22.2353 109.626 27.3031 112.719 32.3207C114.476 35.1807 116.32 37.9605 118.144 40.7704C118.212 40.8823 118.319 40.9627 118.443 40.9942C118.567 41.0257 118.699 41.0057 118.809 40.9386C118.919 40.8714 118.999 40.7626 119.031 40.6354C119.064 40.5082 119.047 40.3729 118.984 40.2586C113.353 29.8018 107.274 19.606 101.166 9.45037C99.513 6.55026 97.6677 3.77062 95.6434 1.13116C95.3506 0.769889 94.9213 1.23151 95.0677 1.59278Z" fill="#C6C6C6"/>
<path d="M89.1274 79.0165C92.6342 77.4405 96.0081 75.5563 99.2134 73.3839C102.566 71.2872 105.813 69.0079 108.939 66.5552C108.992 66.5086 109.028 66.4438 109.039 66.3723C109.051 66.3009 109.038 66.2274 109.003 66.1649C108.968 66.1024 108.913 66.0549 108.848 66.0309C108.783 66.0069 108.712 66.008 108.648 66.0339C105.152 67.8387 101.746 69.8313 98.445 72.0039C95.1376 73.9996 91.9977 76.2875 89.0594 78.8427C89.001 78.8427 89.0594 79.0165 89.1372 78.9858" fill="#C6C6C6"/>
<path d="M84.042 17.4139C89.6261 28.0265 95.7284 38.3463 102.326 48.3342C104.161 51.1992 106.016 54.0643 107.822 56.959C107.9 57.0879 108.104 56.959 108.026 56.8401C105.045 51.6454 102.2 46.3515 99.2868 41.1469C96.3738 35.9423 93.2763 30.7873 90.1302 25.6917C88.3338 22.7771 86.4695 19.9517 84.5275 17.1363C84.5096 17.1057 84.4861 17.079 84.4581 17.0577C84.4301 17.0364 84.3983 17.021 84.3645 17.0122C84.3307 17.0035 84.2956 17.0016 84.261 17.0067C84.2265 17.0119 84.1933 17.0239 84.1634 17.0421C84.1334 17.0603 84.1072 17.0844 84.0864 17.113C84.0655 17.1415 84.0504 17.174 84.0418 17.2085C84.0333 17.243 84.0314 17.2789 84.0365 17.3142C84.0415 17.3494 84.0533 17.3833 84.0711 17.4139" fill="white"/>
<path d="M59.5372 155.107C59.587 156.948 59.0747 158.761 58.0683 160.304C57.3615 161.382 56.4354 162.3 55.3502 162.997L54.3509 163.666C53.0918 163.217 31.9968 151.068 21.1045 144.923C18.3465 143.357 16.238 142.18 15.2787 141.682L15.0488 141.572L17.4072 138.141L17.4671 138.061C18.7062 136.256 19.9953 134.251 19.7855 132.076C24.7819 134.829 54.5608 152.364 59.5772 155.107" fill="#FF6551"/>
<g style="mix-blend-mode:multiply" opacity="0.36">
<g style="mix-blend-mode:multiply" opacity="0.36">
<g style="mix-blend-mode:multiply" opacity="0.36">
<path d="M58.0692 160.304C57.3624 161.382 56.4363 162.299 55.3511 162.997L54.3018 163.665C53.0527 163.216 31.9577 151.067 21.0655 144.923C19.1668 143.766 17.2182 142.689 15.2396 141.681L15.0098 141.572L17.3681 138.14L18.6072 137.223C21.9149 139.277 50.0149 155.436 58.0692 160.304Z" fill="#FF6551"/>
</g>
</g>
</g>
<path d="M19.6571 132.055C19.6571 132.055 20.9262 134.19 19.3373 137.452C18.4899 139.311 16.9949 140.799 15.1303 141.641C13.4415 139.387 11.5429 137.232 9.69417 135.048C8.56498 133.721 7.45577 132.375 6.4165 130.998C8.41508 131.158 10.4137 131.237 12.4122 131.337C14.8359 131.434 17.2518 131.674 19.6471 132.055" fill="#FFC652"/>
<path d="M12.4222 131.337C12.4956 132.18 12.2594 133.022 11.7575 133.704C11.2557 134.387 10.5224 134.864 9.69417 135.047C8.56498 133.721 7.45577 132.374 6.4165 130.998C8.41508 131.158 10.4137 131.237 12.4122 131.337" fill="#FF6551"/>
<path d="M71.4004 150.149C71.5761 151.278 71.3584 152.433 70.7837 153.42C70.2089 154.408 69.3119 155.169 68.2427 155.575L67.723 155.765C66.6238 155.316 50.7951 146.229 40.1826 140.215C35.9556 137.811 32.558 135.906 31.2589 135.227L31.0591 135.128L32.6479 132.853C33.4774 131.656 34.3268 130.32 33.7772 128.664C38.7736 131.367 71.4004 150.219 71.4004 150.219" fill="#864FF1"/>
<g style="mix-blend-mode:multiply" opacity="0.36">
<g style="mix-blend-mode:multiply" opacity="0.36">
<g style="mix-blend-mode:multiply" opacity="0.36">
<path d="M70.4511 153.939C69.885 154.682 69.1192 155.249 68.2427 155.575L67.723 155.764C66.6238 155.316 50.7951 146.229 40.1826 140.214C37.2747 138.429 34.2868 136.763 31.2589 135.227L31.0591 135.127L32.6479 132.853L33.6472 132.324C36.6451 134.06 60.9079 148.283 70.521 153.959" fill="#2D7F75"/>
</g>
</g>
</g>
<path d="M33.6758 128.564C34.1154 129.119 34.4027 129.779 34.5095 130.478C34.6164 131.178 34.5392 131.893 34.2854 132.554C34.0103 133.21 33.5804 133.791 33.0324 134.245C32.4843 134.7 31.8343 135.017 31.1376 135.167C29.219 133.262 27.1405 131.407 25.0819 129.531C23.8228 128.384 22.5837 127.237 21.4146 126.07C23.2932 126.449 25.1219 126.769 26.9506 127.068C29.179 127.467 31.3875 127.896 33.6758 128.524" fill="#FFC652"/>
<path d="M26.9506 127.107C27.0621 127.394 27.0976 127.705 27.0539 128.01C27.0102 128.315 26.8887 128.603 26.701 128.848C26.5133 129.092 26.2658 129.284 25.9823 129.405C25.6988 129.527 25.3887 129.573 25.0819 129.54C23.8228 128.394 22.5837 127.247 21.4146 126.08C23.2932 126.459 25.1219 126.778 26.9506 127.077" fill="#864FF1"/>
<path d="M16.5398 86.2412C16.1787 84.7078 15.2957 83.347 14.0415 82.391C13.4733 81.8565 12.7764 81.4774 12.0184 81.2904C11.2604 81.1035 10.4669 81.1149 9.7146 81.3238C8.25532 81.9572 7.06645 83.0838 6.35699 84.5056C6.29826 84.6095 6.26333 84.7252 6.25469 84.8442C6.24605 84.9632 6.26392 85.0826 6.30702 85.1939C5.97603 86.1221 5.88219 87.1181 6.03399 88.0917C6.18579 89.0653 6.57845 89.9857 7.17641 90.7696C9.26493 93.4827 12.9023 92.5451 15.0708 90.4405C15.6593 89.9276 16.1041 89.2709 16.3616 88.5347C16.6191 87.7986 16.6805 87.0082 16.5398 86.2412ZM14.1315 89.044C12.8424 90.4504 10.3641 91.6773 8.74529 90.0415C8.13089 89.3899 7.74514 88.5568 7.64608 87.6676C7.52616 86.9095 7.52616 85.5629 8.40553 85.2238C8.52935 85.1728 8.6402 85.095 8.73 84.9958C8.81979 84.8966 8.88627 84.7787 8.92457 84.6506C8.96288 84.5225 8.97206 84.3875 8.95141 84.2554C8.93077 84.1234 8.88082 83.9976 8.80524 83.8872C9.10564 83.5828 9.44107 83.3149 9.80453 83.0892C10.2828 82.8353 10.8285 82.7363 11.3657 82.806C11.9029 82.8757 12.4051 83.1107 12.8024 83.4782C14.5911 84.7251 15.8003 87.1988 14.1315 89.0141" fill="#49B3F7"/>
<path d="M12.8116 71.2499C12.6897 71.2263 12.5637 71.235 12.4462 71.2753C12.3287 71.3155 12.2238 71.3859 12.1421 71.4793C11.7425 71.8773 11.4303 72.354 11.2253 72.879C11.0204 73.404 10.9271 73.9658 10.9516 74.5288C10.976 75.0917 11.1176 75.6434 11.3673 76.1487C11.617 76.6541 11.9693 77.102 12.4019 77.464C14.2706 78.9702 17.2385 78.4615 18.9473 76.9154C23.0244 73.2448 16.0893 67.669 12.8116 71.2V71.2499ZM17.4783 75.9778C16.9125 76.4123 16.2292 76.6674 15.5166 76.7101C14.804 76.7528 14.095 76.5811 13.4812 76.2172C12.9875 75.851 12.6583 75.3055 12.5647 74.6987C12.4712 74.0919 12.621 73.4728 12.9815 72.9755C13.1364 73.0002 13.2952 72.9783 13.4376 72.9126C13.58 72.8468 13.6995 72.7402 13.781 72.6064C15.5397 69.9033 20.6461 73.8034 17.4683 75.9778" fill="#49B3F7"/>
<path d="M5.35672 74.4824C5.18346 73.7507 4.76077 73.1019 4.16102 72.647C3.56126 72.192 2.82175 71.9594 2.06906 71.9888C0.700032 72.1185 -0.649021 73.7742 0.340276 75.051C0.44517 75.1945 0.59168 75.3024 0.759992 75.3602C1.04979 76.627 1.75928 77.8339 3.23823 77.794C4.71718 77.7541 5.67649 75.8889 5.35672 74.4824ZM3.09833 76.1382C2.31888 76.0484 2.27891 74.7318 2.23894 74.1433C2.2344 73.9663 2.16712 73.7967 2.04907 73.6645C2.21903 73.6057 2.4007 73.5885 2.57869 73.6147C2.8728 73.7006 3.13793 73.8649 3.34565 74.0898C3.55337 74.3147 3.69587 74.5918 3.75786 74.8914C3.8478 75.3203 3.67791 76.1681 3.09833 76.1083" fill="#49B3F7"/>
<path d="M303.074 49.0411C300.292 47.1685 296.12 47.681 294.629 50.9334C294.551 51.1296 294.551 51.3482 294.629 51.5445C293.971 52.4905 293.551 53.5793 293.404 54.7197C293.257 55.86 293.387 57.0187 293.785 58.0986C294.345 59.3612 295.299 60.4121 296.506 61.0969C297.713 61.7817 299.11 62.0642 300.491 61.903C301.891 61.6896 303.192 61.0572 304.22 60.0902C305.248 59.1232 305.954 57.8679 306.243 56.4921C306.497 55.0832 306.337 53.6316 305.782 52.3105C305.227 50.9894 304.301 49.8544 303.114 49.0411H303.074ZM303.253 58.7688C302.798 59.246 302.25 59.6262 301.641 59.886C301.033 60.1458 300.378 60.2798 299.716 60.2798C299.054 60.2798 298.399 60.1458 297.791 59.886C297.182 59.6262 296.634 59.246 296.179 58.7688C293.884 56.3443 295.235 52.944 297.173 50.7856C297.253 50.6988 297.314 50.5956 297.35 50.4833C297.386 50.3709 297.396 50.252 297.381 50.1351C299.15 48.9819 301.792 49.6029 303.283 51.3079C304.204 52.3308 304.709 53.6567 304.7 55.0282C304.69 56.3996 304.168 57.7188 303.233 58.7294" fill="#49B3F7"/>
<path d="M317.285 63.115C316.815 62.6569 316.238 62.3175 315.604 62.1259C314.97 61.9343 314.299 61.8961 313.647 62.0147C312.759 62.2646 311.959 62.7479 311.332 63.4123C311.241 63.3553 311.139 63.3169 311.033 63.2994C310.926 63.282 310.817 63.2859 310.713 63.3109C310.608 63.3359 310.509 63.3815 310.423 63.445C310.336 63.5084 310.264 63.5883 310.21 63.68C309.481 64.8233 309.21 66.1915 309.451 67.5193C309.692 68.8471 310.427 70.0398 311.514 70.8663C312.515 71.6518 313.787 72.0293 315.065 71.9204C316.342 71.8115 317.528 71.2247 318.377 70.2815C320.176 68.0512 319.388 64.8694 317.285 63.115ZM317.053 69.2803C316.448 69.9078 315.616 70.2764 314.736 70.3061C313.856 70.3358 313 70.0242 312.353 69.4389C311.823 68.998 311.429 68.4219 311.213 67.7746C310.997 67.1272 310.968 66.4339 311.13 65.7714C311.228 65.7617 311.323 65.733 311.41 65.6871C311.496 65.6412 311.573 65.5789 311.635 65.5038C312.858 64.1062 314.334 62.7978 316.113 64.2747C317.548 65.4642 318.357 67.6944 317.053 69.2803Z" fill="#49B3F7"/>
<path d="M302.46 70.063C301.988 69.453 301.356 68.9859 300.634 68.7139C299.912 68.4418 299.128 68.3756 298.37 68.5226C298.315 68.363 298.214 68.2234 298.079 68.1216C297.944 68.0199 297.782 67.9606 297.613 67.9514C294.352 67.7371 293.769 71.8789 294.832 74.1537C295.088 74.7461 295.465 75.2782 295.94 75.7156C296.415 76.153 296.977 76.4859 297.589 76.6927C298.201 76.8995 298.85 76.9757 299.494 76.9161C300.137 76.8565 300.761 76.6626 301.325 76.347C301.837 76.0289 302.276 75.6074 302.614 75.1095C302.953 74.6116 303.183 74.0484 303.29 73.4563C303.397 72.8642 303.378 72.2563 303.235 71.6719C303.092 71.0874 302.828 70.5394 302.46 70.063ZM300.762 74.6842C300.443 74.9287 300.076 75.1026 299.685 75.1944C299.293 75.2862 298.887 75.2937 298.492 75.2165C298.097 75.1393 297.724 74.9791 297.396 74.7466C297.068 74.5141 296.794 74.2146 296.591 73.8681C296.117 73.0177 295.923 72.0394 296.039 71.073C296.187 71.1912 296.375 71.2495 296.564 71.2363C296.753 71.2231 296.931 71.1393 297.061 71.0015C297.302 70.7361 297.594 70.5215 297.919 70.3707C298.244 70.2198 298.597 70.1357 298.955 70.1234C299.314 70.111 299.671 70.1706 300.006 70.2987C300.341 70.4268 300.647 70.6207 300.906 70.8689C301.156 71.1256 301.351 71.431 301.478 71.766C301.605 72.1011 301.662 72.4586 301.645 72.8165C301.627 73.1744 301.537 73.5248 301.378 73.8461C301.219 74.1675 300.996 74.4527 300.722 74.6842" fill="#49B3F7"/>
<path d="M50.3229 110.981C50.2186 110.935 50.1266 110.863 50.0519 110.769C49.2446 109.712 48.4519 108.641 47.6515 107.587C44.5672 103.445 41.6541 99.5382 38.0048 96.3052C37.9193 96.23 37.8505 96.1316 37.8025 96.0158C37.7544 95.9 37.7279 95.769 37.7245 95.6303C37.7212 95.4916 37.741 95.348 37.7829 95.2075C37.8247 95.067 37.8879 94.9325 37.9686 94.8116C38.0494 94.6907 38.1462 94.5859 38.2535 94.503C38.3608 94.4201 38.4765 94.3609 38.5941 94.3286C38.7116 94.2964 38.8287 94.2918 38.9386 94.3151C39.0485 94.3384 39.149 94.3891 39.2345 94.4643C42.8534 97.8855 46.1602 101.737 49.1197 105.977L51.5062 109.153C51.6282 109.319 51.6903 109.543 51.6823 109.788C51.6744 110.032 51.5968 110.284 51.4625 110.499C51.3282 110.715 51.1451 110.883 50.9435 110.975C50.7419 111.067 50.5339 111.077 50.3538 111.005L50.3229 110.981Z" fill="#49B3F7"/>
<path d="M33.4181 88.0921C33.1624 88.0529 32.9224 87.9598 32.7378 87.8282C32.5532 87.6966 32.435 87.5343 32.4028 87.3683C31.5419 82.9251 31.4485 78.5063 32.1244 74.1948C32.2532 73.38 32.3831 72.559 32.5902 71.7695C32.6403 71.5857 32.8025 71.4321 33.0429 71.341C33.2832 71.2499 33.5829 71.2283 33.8794 71.2806C34.1765 71.3377 34.4436 71.4659 34.6224 71.6373C34.8011 71.8087 34.8771 72.0093 34.8337 72.1955C34.6507 72.9628 34.5048 73.7555 34.3789 74.5513C33.7205 78.7544 33.8108 83.0619 34.6481 87.3932C34.6679 87.4894 34.6583 87.5845 34.6198 87.6728C34.5814 87.7612 34.5148 87.8411 34.4241 87.908C34.3333 87.9749 34.22 88.0274 34.0909 88.0626C33.9617 88.0977 33.8192 88.1148 33.6716 88.1128C33.5874 88.1058 33.5033 88.0925 33.4211 88.0732L33.4181 88.0921ZM36.2794 65.3932C36.2019 65.3873 36.1245 65.3751 36.049 65.3568C35.7616 65.2709 35.5224 65.119 35.3841 64.9345C35.2457 64.7499 35.2195 64.5478 35.3111 64.3726C38.0811 59.068 42.2883 54.936 47.8097 52.1059C48.0314 52.0086 48.3152 51.9755 48.6034 52.0132C48.8916 52.051 49.1627 52.1569 49.3619 52.3093C49.561 52.4618 49.6733 52.6495 49.676 52.8345C49.6787 53.0194 49.5715 53.1877 49.3762 53.3053C44.1324 56.0045 40.1094 59.9455 37.4685 65.018C37.3903 65.1689 37.2291 65.29 37.0121 65.3606C36.7951 65.4313 36.5356 65.4472 36.2774 65.4058" fill="#49B3F7"/>
<path d="M248.852 30.39C248.733 30.1563 248.695 29.8892 248.742 29.6326C248.79 29.3761 248.922 29.1456 249.115 28.9793C254.292 24.5274 259.946 20.6977 265.972 17.5618C267.112 16.9702 268.26 16.3739 269.419 15.8649C269.69 15.748 269.996 15.7445 270.273 15.8553C270.551 15.9662 270.778 16.1826 270.907 16.4595C271.03 16.7407 271.041 17.0589 270.938 17.3447C270.835 17.6305 270.626 17.8606 270.356 17.9848C269.242 18.4938 268.12 19.0534 267.007 19.6313C261.133 22.6887 255.62 26.4214 250.573 30.7596C250.461 30.8569 250.332 30.9302 250.192 30.9751C250.052 31.0201 249.905 31.0359 249.758 31.0217C249.611 31.0074 249.468 30.9634 249.337 30.8921C249.206 30.8208 249.089 30.7236 248.994 30.6062C248.947 30.5343 248.908 30.4571 248.879 30.3763L248.852 30.39ZM280.115 13.3347C280.072 13.269 280.036 13.1979 280.01 13.1232C279.93 12.825 279.968 12.5085 280.115 12.2432C280.262 11.9779 280.506 11.7855 280.793 11.7083C289.493 9.369 297.63 9.15253 304.955 11.0725C305.228 11.1635 305.459 11.3576 305.602 11.6155C305.744 11.8734 305.787 12.1759 305.722 12.4615C305.657 12.7472 305.488 12.9948 305.251 13.1541C305.013 13.3134 304.725 13.3725 304.443 13.3195C297.472 11.5057 289.704 11.7041 281.39 13.9474C281.143 14.0144 280.879 13.991 280.644 13.881C280.408 13.7711 280.215 13.5814 280.098 13.3439" fill="#49B3F7"/>
<path d="M350.649 38.482C350.58 38.4749 350.511 38.4576 350.447 38.4305C348.073 37.2875 345.775 35.9827 343.568 34.5245C343.445 34.4435 343.338 34.3375 343.254 34.2126C343.17 34.0877 343.111 33.9464 343.079 33.7966C343.016 33.4942 343.07 33.1759 343.23 32.9117C343.389 32.6476 343.642 32.4592 343.931 32.3881C344.221 32.317 344.524 32.369 344.773 32.5325C346.895 33.957 349.102 35.2386 351.381 36.3698C351.657 36.4731 351.881 36.6868 352.004 36.9644C352.128 37.2421 352.141 37.5613 352.042 37.8527C351.942 38.1442 351.737 38.3845 351.472 38.5213C351.207 38.6581 350.902 38.6805 350.624 38.5836L350.649 38.482ZM334.106 27.6421C333.968 27.6045 333.837 27.5422 333.72 27.4578C327.714 22.9211 322.238 18.9831 316.081 16.7387C315.138 16.4019 314.192 16.0753 313.242 15.769C312.96 15.6787 312.725 15.4738 312.589 15.1995C312.453 14.9252 312.428 14.604 312.518 14.3065C312.608 14.009 312.807 13.7595 313.071 13.6131C313.335 13.4666 313.642 13.4351 313.924 13.5255C314.875 13.8318 315.823 14.1482 316.763 14.4951C323.212 16.8461 328.827 20.8843 334.973 25.5212C335.191 25.6759 335.348 25.9073 335.416 26.1743C335.484 26.4413 335.459 26.7265 335.346 26.9789C335.232 27.2313 335.038 27.4346 334.796 27.5525C334.555 27.6704 334.283 27.6952 334.029 27.6225L334.106 27.6421Z" fill="#49B3F7"/>
<path d="M54.5331 119.233C54.5551 119.3 54.5672 119.369 54.5689 119.439C54.4954 122.072 54.2431 124.702 53.8139 127.312C53.7905 127.458 53.7374 127.599 53.6576 127.727C53.5779 127.854 53.4731 127.966 53.3493 128.056C53.0991 128.237 52.7864 128.318 52.48 128.28C52.1736 128.242 51.8985 128.089 51.7153 127.854C51.5321 127.619 51.4558 127.321 51.5031 127.027C51.9365 124.508 52.2046 121.971 52.3059 119.428C52.2876 119.135 52.3912 118.843 52.5941 118.617C52.7971 118.391 53.083 118.248 53.3898 118.22C53.6966 118.192 53.9995 118.28 54.2329 118.467C54.4662 118.653 54.6111 118.922 54.636 119.215L54.5331 119.233Z" fill="#49B3F7"/>
<path d="M129.471 24.5667C127.858 24.2798 126.222 24.141 124.583 24.1519C124.435 24.1513 124.288 24.1804 124.152 24.2372C124.015 24.2941 123.891 24.3777 123.787 24.4831C123.684 24.5885 123.602 24.7136 123.548 24.8509C123.493 24.9882 123.467 25.1351 123.47 25.2828C123.47 25.4301 123.5 25.5759 123.558 25.7116C123.615 25.8473 123.699 25.9704 123.804 26.0736C123.91 26.1769 124.035 26.2583 124.172 26.3133C124.308 26.3682 124.455 26.3956 124.603 26.3938C126.104 26.3877 127.603 26.5159 129.081 26.7769C134.985 27.8163 140.404 30.6844 146.404 34.0598C146.532 34.1323 146.673 34.1789 146.82 34.1968C146.966 34.2147 147.115 34.2036 147.257 34.1642C147.399 34.1248 147.532 34.0579 147.649 33.9671C147.765 33.8764 147.862 33.7638 147.935 33.6356C148.007 33.5074 148.054 33.3661 148.072 33.2199C148.09 33.0738 148.079 32.9255 148.039 32.7836C148 32.6417 147.933 32.5089 147.842 32.3929C147.751 32.2768 147.638 32.1798 147.51 32.1073C141.316 28.6268 135.691 25.6615 129.471 24.5667ZM157.639 37.7796C157.405 37.7409 157.164 37.776 156.951 37.8802C156.738 37.9843 156.563 38.1522 156.45 38.3604C156.311 38.6233 156.281 38.9306 156.368 39.2153C156.454 39.4999 156.65 39.7389 156.912 39.88C162.893 43.07 170.87 47.0264 179.203 49.2529C179.487 49.3286 179.79 49.2904 180.047 49.1464C180.304 49.0023 180.494 48.7639 180.577 48.4819C180.655 48.1989 180.618 47.8964 180.473 47.641C180.327 47.3856 180.087 47.1983 179.803 47.1201C171.644 44.9445 163.867 41.0637 157.987 37.9321C157.884 37.8727 157.771 37.8322 157.653 37.8125L157.639 37.7796ZM207.301 46.8962C207.127 46.8661 206.948 46.8762 206.778 46.9257C201.797 48.4714 196.587 49.1508 191.375 48.9343C191.094 48.9491 190.829 49.0679 190.631 49.2676C190.434 49.4673 190.318 49.7333 190.306 50.0138C190.295 50.2942 190.388 50.5688 190.569 50.7839C190.75 50.999 191.004 51.1391 191.283 51.1767C196.747 51.4053 202.21 50.695 207.433 49.0768C207.717 48.9864 207.955 48.7882 208.094 48.5249C208.234 48.2616 208.264 47.9541 208.179 47.6686C208.118 47.4715 208.004 47.295 207.849 47.1587C207.694 47.0223 207.504 46.9315 207.301 46.8962Z" fill="#49B3F7"/>
<path d="M196.127 41.8936C195.871 41.8151 195.595 41.841 195.359 41.9656C195.123 42.0902 194.946 42.3034 194.868 42.5582C194.789 42.813 194.815 43.0885 194.94 43.3242C195.065 43.5598 195.278 43.7363 195.533 43.8148L205.316 48.231L195.905 57.2702C195.796 57.3566 195.706 57.4649 195.641 57.5881C195.576 57.7114 195.537 57.8469 195.528 57.9859C195.519 58.1248 195.538 58.2642 195.586 58.3951C195.634 58.5259 195.709 58.6453 195.806 58.7455C195.903 58.8457 196.02 58.9245 196.149 58.9769C196.278 59.0293 196.417 59.0541 196.557 59.0496C196.696 59.0452 196.833 59.0116 196.959 58.9511C197.085 58.8906 197.196 58.8045 197.287 58.6983L207.77 48.6427C207.886 48.53 207.973 48.391 208.023 48.2375C208.073 48.084 208.085 47.9207 208.058 47.7615C208.03 47.6014 207.964 47.4505 207.865 47.3218C207.765 47.1932 207.636 47.0906 207.488 47.0231L196.336 41.971C196.257 41.9425 196.174 41.9279 196.09 41.9276" fill="#49B3F7"/>
<path d="M550.181 237.601C548.898 243.978 546.412 250.05 542.857 255.494C542.063 256.862 540.987 258.045 539.701 258.964C539.075 259.478 538.307 259.789 537.5 259.854C536.693 259.919 535.885 259.735 535.185 259.327C534.486 258.919 533.927 258.307 533.585 257.572C533.242 256.837 533.132 256.015 533.269 255.216C533.361 254.059 533.667 252.93 534.173 251.886C534.351 251.488 534.54 251.091 534.738 250.703C537.661 244.949 541.549 239.741 546.231 235.305L549.407 237.174L550.181 237.601Z" fill="#FFCD69"/>
<path d="M549.409 237.144C547.999 241.669 545.972 245.978 543.384 249.947C542.59 251.318 541.515 252.504 540.228 253.426C539.578 253.878 538.82 254.148 538.032 254.209C537.244 254.27 536.453 254.12 535.742 253.774C535.024 253.342 534.472 252.68 534.174 251.896C534.352 251.498 534.541 251.1 534.74 250.713C537.662 244.959 541.55 239.75 546.233 235.314L549.409 237.144Z" fill="#FFC652"/>
<path d="M553.556 234.819C553.363 235.399 553.093 235.951 552.752 236.459C552.415 237.085 552.137 237.751 551.76 238.388C551.573 238.866 551.22 239.261 550.767 239.501C550.24 239.649 549.679 239.621 549.169 239.421C548.003 239.126 546.9 238.621 545.914 237.93C545.209 237.443 543.83 236.598 543.79 235.634C543.821 235.171 543.975 234.725 544.237 234.342C544.306 234.222 544.386 234.093 544.445 233.974C544.733 233.447 545.031 232.91 545.368 232.413C545.96 231.394 546.766 230.515 547.73 229.838C547.929 229.709 548.187 229.978 548.098 230.186C548.209 230.169 548.322 230.181 548.428 230.219C548.534 230.257 548.628 230.321 548.703 230.405C549.585 231.308 550.56 232.114 551.611 232.811C551.978 233.049 552.494 233.258 552.901 233.546C553.139 233.652 553.333 233.836 553.452 234.067C553.571 234.299 553.608 234.564 553.556 234.819Z" fill="#FFCD69"/>
<path d="M552.959 233.596C552.86 233.775 552.751 233.944 552.662 234.113C552.324 234.749 552.046 235.405 551.669 236.042C551.482 236.52 551.13 236.915 550.677 237.155C550.15 237.303 549.589 237.275 549.079 237.075C547.911 236.785 546.807 236.279 545.823 235.584C545.252 235.227 544.719 234.811 544.235 234.342C544.305 234.222 544.384 234.093 544.444 233.974C544.732 233.447 545.029 232.91 545.367 232.413C545.959 231.394 546.765 230.515 547.729 229.838C547.927 229.709 548.185 229.978 548.096 230.186C548.207 230.169 548.321 230.181 548.427 230.219C548.532 230.257 548.627 230.321 548.702 230.405C549.583 231.308 550.558 232.114 551.61 232.811C552.066 233.099 552.553 233.308 552.959 233.596Z" fill="#FFC652"/>
<path d="M571.67 222.888C571.347 226.319 569.775 229.512 567.253 231.856C564.731 234.201 561.436 235.535 557.996 235.603C554.555 235.671 551.21 234.469 548.598 232.226C545.985 229.983 544.288 226.856 543.829 223.44C543.371 220.025 544.183 216.559 546.111 213.705C548.039 210.85 550.948 208.806 554.284 207.961C557.62 207.117 561.15 207.531 564.2 209.125C567.251 210.719 569.61 213.382 570.827 216.606C571.583 218.608 571.872 220.757 571.67 222.888Z" fill="#864FF1"/>
<path d="M568.581 222.42C568.552 223.925 568.213 225.408 567.585 226.775C566.958 228.143 566.055 229.366 564.934 230.368C563.812 231.37 562.497 232.129 561.069 232.599C559.641 233.068 558.131 233.237 556.635 233.095C555.139 232.953 553.689 232.503 552.374 231.773C551.06 231.044 549.91 230.05 548.996 228.855C548.083 227.66 547.426 226.289 547.066 224.827C546.706 223.366 546.651 221.846 546.905 220.362C546.994 219.371 547.221 218.398 547.58 217.469C548.559 215.05 550.371 213.061 552.687 211.862C555.003 210.664 557.671 210.335 560.208 210.936C562.745 211.536 564.984 213.026 566.52 215.136C568.055 217.246 568.787 219.837 568.581 222.44V222.42Z" fill="#49B3F7"/>
<path d="M554.589 213.334C552.916 214.262 551.647 215.778 551.026 217.589C550.179 219.645 550.119 221.943 550.857 224.041H550.927C551.472 222.231 551.463 220.293 552.276 218.553C552.888 217.148 553.994 216.016 555.383 215.372C558.241 214.209 561.437 215.372 563.69 217.211C564.325 217.738 565.407 217.052 565.04 216.217C563.392 212.599 557.914 211.535 554.589 213.334Z" fill="white"/>
<g style="mix-blend-mode:screen" opacity="0.35">
<path d="M570.825 216.605C568.118 221.001 563.888 224.243 558.943 225.711C553.999 227.178 548.688 226.768 544.027 224.558C543.241 221.084 543.804 217.44 545.601 214.367C547.399 211.293 550.296 209.02 553.706 208.008C557.116 206.996 560.783 207.321 563.962 208.918C567.141 210.514 569.595 213.263 570.825 216.605Z" fill="#49B3F7"/>
</g>
<path d="M312.176 255.481L317.456 257.569C317.545 257.608 317.645 257.617 317.74 257.594C317.835 257.572 317.92 257.519 317.981 257.443C318.043 257.368 318.079 257.274 318.082 257.176C318.086 257.079 318.058 256.983 318.002 256.903L315.114 252.439C315.056 252.355 315.029 252.254 315.038 252.152C315.047 252.05 315.092 251.955 315.163 251.883L318.071 248.781C318.145 248.71 318.193 248.617 318.206 248.515C318.219 248.414 318.197 248.311 318.144 248.224C318.09 248.136 318.009 248.07 317.912 248.036C317.816 248.002 317.711 248.002 317.615 248.036L313.427 249.258C313.334 249.286 313.235 249.283 313.144 249.251C313.054 249.219 312.975 249.159 312.92 249.079L310.836 245.868C310.786 245.794 310.715 245.737 310.633 245.703C310.55 245.668 310.46 245.659 310.372 245.676C310.284 245.693 310.204 245.735 310.14 245.798C310.076 245.86 310.031 245.94 310.012 246.028L309.189 250.252C309.174 250.335 309.137 250.411 309.081 250.473C309.024 250.534 308.952 250.579 308.871 250.6L304.951 251.753C304.861 251.784 304.783 251.843 304.728 251.92C304.672 251.998 304.643 252.091 304.643 252.186C304.643 252.281 304.672 252.374 304.728 252.451C304.783 252.529 304.861 252.587 304.951 252.618L308.137 253.871C308.234 253.91 308.315 253.982 308.366 254.075C308.416 254.167 308.434 254.274 308.414 254.378L307.541 258.811C307.525 258.907 307.54 259.005 307.583 259.092C307.627 259.179 307.697 259.249 307.783 259.293C307.869 259.338 307.967 259.353 308.063 259.338C308.159 259.323 308.247 259.278 308.315 259.209L311.71 255.591C311.77 255.532 311.846 255.491 311.928 255.471C312.01 255.452 312.096 255.455 312.176 255.481Z" fill="#864FF1"/>
<path d="M278.828 246.454L284.108 248.541C284.198 248.576 284.296 248.581 284.389 248.556C284.482 248.531 284.565 248.477 284.626 248.402C284.686 248.327 284.721 248.234 284.727 248.138C284.732 248.042 284.706 247.946 284.654 247.865L281.805 243.412C281.746 243.331 281.713 243.234 281.713 243.134C281.713 243.033 281.746 242.936 281.805 242.855L284.783 239.744C284.848 239.67 284.887 239.578 284.896 239.481C284.904 239.383 284.881 239.285 284.83 239.202C284.779 239.118 284.702 239.054 284.612 239.017C284.521 238.98 284.421 238.974 284.326 238.998L280.138 240.231C280.044 240.259 279.944 240.256 279.853 240.222C279.762 240.188 279.684 240.125 279.632 240.042L277.547 236.841C277.497 236.767 277.427 236.709 277.344 236.675C277.262 236.641 277.171 236.632 277.083 236.649C276.996 236.666 276.915 236.708 276.851 236.771C276.787 236.833 276.743 236.913 276.724 237L275.85 241.225C275.834 241.306 275.796 241.382 275.74 241.443C275.684 241.504 275.612 241.549 275.533 241.573L271.612 242.726C271.521 242.754 271.441 242.811 271.385 242.888C271.328 242.965 271.297 243.058 271.297 243.153C271.297 243.249 271.328 243.342 271.385 243.419C271.441 243.496 271.521 243.553 271.612 243.581L274.798 244.843C274.898 244.88 274.982 244.951 275.033 245.044C275.084 245.138 275.099 245.246 275.076 245.35L274.213 249.784C274.197 249.88 274.212 249.978 274.255 250.065C274.299 250.151 274.368 250.222 274.455 250.266C274.541 250.31 274.639 250.326 274.735 250.311C274.83 250.296 274.919 250.25 274.987 250.182L278.351 246.533C278.415 246.476 278.493 246.438 278.578 246.424C278.662 246.409 278.749 246.42 278.828 246.454Z" fill="#FFC652"/>
<path d="M261.589 272.768L261.956 278.444C261.962 278.541 262 278.633 262.062 278.707C262.124 278.781 262.208 278.833 262.302 278.856C262.395 278.88 262.494 278.872 262.584 278.836C262.673 278.799 262.749 278.735 262.799 278.653L265.588 274.13C265.64 274.044 265.718 273.977 265.812 273.941C265.906 273.905 266.009 273.902 266.104 273.931L270.154 275.244C270.249 275.275 270.352 275.274 270.446 275.241C270.541 275.208 270.622 275.145 270.677 275.062C270.733 274.978 270.759 274.879 270.752 274.778C270.745 274.678 270.706 274.583 270.64 274.508L267.732 271.247C267.674 271.17 267.643 271.076 267.643 270.979C267.643 270.882 267.674 270.788 267.732 270.711L269.717 267.45C269.762 267.373 269.783 267.284 269.778 267.195C269.774 267.106 269.743 267.021 269.69 266.949C269.638 266.877 269.565 266.822 269.482 266.791C269.398 266.76 269.308 266.754 269.221 266.774L265.052 267.838C264.971 267.856 264.886 267.852 264.806 267.828C264.726 267.804 264.654 267.759 264.596 267.699L261.886 264.637C261.823 264.566 261.739 264.517 261.646 264.497C261.553 264.477 261.457 264.486 261.369 264.523C261.282 264.56 261.208 264.623 261.159 264.704C261.109 264.785 261.086 264.88 261.092 264.975L261.321 268.394C261.328 268.501 261.297 268.607 261.233 268.692C261.17 268.778 261.077 268.838 260.973 268.862L256.606 269.975C256.511 270 256.427 270.056 256.367 270.135C256.307 270.213 256.274 270.309 256.274 270.407C256.274 270.506 256.307 270.602 256.367 270.68C256.427 270.758 256.511 270.815 256.606 270.84L261.321 272.371C261.398 272.406 261.463 272.461 261.511 272.531C261.558 272.602 261.585 272.684 261.589 272.768Z" fill="#FF6551"/>
<path d="M561.392 48.9836C553.511 51.4473 547.591 51.8708 543.399 51.5669C540.691 51.4333 538.029 50.8079 535.543 49.7212C532.528 48.8929 529.938 45.0989 529.938 45.0989C529.754 41.8439 529.878 38.5791 530.31 35.3482C530.657 32.267 531.67 29.299 533.278 26.6503C536.174 22.2767 539.836 22.3818 539.836 22.3818L539.438 8.87221C542.86 7.55533 546.628 7.43842 550.128 8.54053L550.53 21.8616C556.431 23.1416 559.29 28.2264 560.617 33.6339C561.694 38.6767 561.956 43.8593 561.392 48.9836Z" fill="#49B3F7"/>
<path d="M561.658 44.8055C561.593 47.294 561.381 48.9434 561.381 48.9434C546.926 53.4622 539.032 51.0972 536.435 50.0758C535.915 49.874 535.607 49.7203 535.494 49.693C532.479 48.8648 529.889 45.071 529.889 45.071C529.705 41.816 529.83 38.5513 530.261 35.3205C532.142 33.4203 534.471 31.9216 537.069 32.1508C538.491 32.4073 539.88 32.822 541.21 33.3874C544.413 34.407 547.88 34.1958 550.935 32.795C552.127 32.0758 553.428 31.5532 554.787 31.2471C556.304 31.1688 557.804 31.6065 559.043 32.489C559.605 32.8444 560.139 33.2414 560.642 33.6766C561.449 37.3288 561.79 41.0683 561.658 44.8055Z" fill="#FFC652"/>
<path d="M541.919 12.8137C541.906 12.8001 541.89 12.7903 541.871 12.7856C541.853 12.7808 541.834 12.7812 541.817 12.7868C541.799 12.7924 541.783 12.8028 541.771 12.817C541.759 12.8312 541.751 12.8485 541.748 12.867C541.227 16.4878 541.882 20.1783 541.878 23.8248C539.607 24.4098 537.688 26.6865 536.535 28.6196C535.383 30.5527 533.743 33.8879 535.095 35.9855C535.169 36.1016 535.268 36.1993 535.385 36.2714C535.502 36.3435 535.633 36.388 535.77 36.4015C535.906 36.415 536.044 36.3972 536.173 36.3495C536.301 36.3018 536.417 36.2253 536.512 36.126C537.641 34.6168 537.591 32.3619 538.351 30.635C539.174 28.8109 540.35 27.1689 541.811 25.804C542.172 25.5586 542.468 25.2301 542.676 24.8461C542.843 24.3507 542.973 23.8436 543.065 23.329C543.59 19.8113 543.203 16.2166 541.942 12.8896L541.919 12.8137Z" fill="white"/>
<g style="mix-blend-mode:multiply" opacity="0.45">
<g style="mix-blend-mode:multiply" opacity="0.45">
<path d="M541.004 47.6599L533.336 34.9129C533.336 34.9129 533.427 29.25 533.227 26.615C531.619 29.2636 530.606 32.2315 530.259 35.3127C529.827 38.5434 529.703 41.8082 529.887 45.0631C529.887 45.0631 532.477 48.8569 535.491 49.6851C536.588 50.1825 537.726 50.583 538.892 50.8823L539.839 51.086L539.906 51.0653C540.225 51.1322 540.566 51.1922 540.929 51.2453L541.061 51.2667L541.593 51.3398L541.678 51.3132L542.132 51.3691L542.336 51.3887L542.872 51.4399L543.098 51.4631L543.33 51.4738C547.51 51.7712 553.442 51.3542 561.323 48.8904C561.323 48.8904 561.535 47.241 561.599 44.7525C553.786 48.6322 545.107 48.179 541.004 47.6599Z" fill="#FFC652"/>
</g>
</g>
<path d="M543.005 57.3869C543.005 57.3869 527.676 64.8973 514.015 58.2212L519.605 46.537L524.328 36.6657L523.804 18.3628L524.052 18.1915C525.09 17.4883 526.313 17.1087 527.566 17.1004C528.82 17.0921 530.049 17.4555 531.098 18.1449L531.622 36.4479L536.686 45.7594L543.005 57.3869Z" fill="#49B3F7"/>
<path d="M543.002 57.3759C543.002 57.3759 527.676 64.8957 514.014 58.2199L515.538 55.0459L519.59 46.4886C520.986 47.0961 522.54 47.2384 524.022 46.8945C525.273 46.5037 526.437 45.671 527.736 45.7338C529.461 45.8298 530.98 47.5629 532.625 47.0696C533.261 46.7747 533.867 46.4179 534.434 46.0042C535.123 45.6695 535.901 45.5613 536.656 45.6949L541.401 54.4184L543.002 57.3759Z" fill="#FF6551"/>
<g style="mix-blend-mode:multiply" opacity="0.36">
<path d="M543.002 57.377C543.002 57.377 527.676 64.8969 514.015 58.221L515.538 55.0471C515.538 55.0471 518.641 58.1183 528.515 57.6357C532.982 57.4383 537.366 56.365 541.419 54.4765L543.002 57.377Z" fill="#FF6551"/>
</g>
<path d="M527.549 28.7104C527.36 27.3739 527.209 26.0255 527.063 24.6961C527.012 23.4401 526.761 22.2001 526.32 21.0227C526.296 20.9468 526.183 20.9824 526.178 21.0671C525.953 22.282 525.924 23.5253 526.092 24.7497C526.181 26.0969 526.279 27.4411 526.314 28.784C526.41 31.4202 526.74 34.0043 526.128 36.6016C525.515 39.199 524.247 41.2619 523.244 43.5751C522.703 44.8378 522.299 46.1724 521.839 47.4618C521.379 48.7513 520.618 50.2078 520.663 51.5478C520.675 51.7872 520.757 52.0179 520.898 52.2115C521.039 52.4052 521.234 52.5534 521.458 52.6382C521.682 52.7229 521.926 52.7403 522.16 52.6885C522.393 52.6366 522.607 52.5176 522.774 52.346C523.689 51.3829 524.036 49.7329 524.514 48.5004C524.992 47.2679 525.624 45.8309 526.035 44.4525C526.849 41.9113 527.476 39.3135 527.909 36.68C528.175 34.0203 528.053 31.3358 527.549 28.7104Z" fill="white"/>
<path d="M304.942 293.252C300.774 289.195 295.904 285.931 290.57 283.619C289.379 283.102 288.327 284.862 289.578 285.389C294.756 287.618 299.485 290.774 303.532 294.703C304.435 295.618 305.884 294.176 304.942 293.252Z" fill="#49B3F7"/>
<path d="M313.308 284.117L310.659 274.564C310.623 274.433 310.562 274.311 310.479 274.204C310.396 274.098 310.292 274.008 310.175 273.941C310.057 273.874 309.928 273.831 309.794 273.814C309.66 273.798 309.523 273.807 309.393 273.843C309.263 273.879 309.141 273.94 309.034 274.024C308.927 274.107 308.838 274.21 308.771 274.328C308.704 274.445 308.661 274.575 308.645 274.71C308.628 274.844 308.638 274.98 308.674 275.111L311.323 284.664C311.396 284.927 311.57 285.151 311.807 285.287C312.045 285.422 312.326 285.457 312.589 285.384C312.852 285.312 313.076 285.138 313.211 284.9C313.346 284.662 313.381 284.381 313.308 284.117Z" fill="#49B3F7"/>
<path d="M325.475 273.282C322.737 278.332 320.554 283.665 318.965 289.187C318.892 289.45 318.927 289.732 319.062 289.97C319.197 290.207 319.421 290.382 319.684 290.454C319.947 290.527 320.229 290.492 320.466 290.356C320.703 290.221 320.877 289.997 320.95 289.734C322.48 284.399 324.583 279.246 327.222 274.365C327.847 273.152 326.081 272.119 325.475 273.282Z" fill="#49B3F7"/>
<path d="M449.766 247.912C445.277 247.777 440.785 248.056 436.347 248.746C435.057 248.945 435.603 250.923 436.893 250.734C441.162 250.085 445.48 249.829 449.795 249.969C451.076 250.009 451.076 247.951 449.766 247.912Z" fill="#49B3F7"/>
<path d="M470.817 252.355C466.482 250.685 461.941 249.611 457.319 249.164C456.009 249.035 456.019 251.082 457.319 251.212C461.756 251.664 466.113 252.714 470.271 254.333C471.501 254.8 472.027 252.822 470.817 252.355Z" fill="#49B3F7"/>
<path d="M508.946 254.306C514.328 253.708 519.497 251.876 524.049 248.953C525.155 248.238 524.16 246.445 523.055 247.159C518.811 249.914 513.991 251.661 508.964 252.266C507.642 252.402 507.638 254.466 508.946 254.306Z" fill="#49B3F7"/>
<path d="M479.637 255.853C484.204 255.728 488.778 255.604 493.358 255.483C494.672 255.448 494.702 253.401 493.381 253.424C488.81 253.541 484.236 253.665 479.66 253.795C478.341 253.849 478.311 255.895 479.637 255.853Z" fill="#49B3F7"/>
<path d="M460.479 38.2588C454.836 37.9745 449.268 36.8316 443.967 34.8696C442.779 34.3972 441.779 36.2201 443.014 36.6777C448.642 38.7821 454.559 40.0061 460.558 40.3067C461.869 40.376 461.79 38.328 460.479 38.2588Z" fill="#49B3F7"/>
<path d="M490.018 35.9503C483.777 38.7046 476.836 39.4593 470.146 38.1109C468.848 37.8502 468.391 39.847 469.727 40.0959C476.769 41.5367 484.082 40.7674 490.667 37.8929C491.816 37.3775 491.215 35.4201 490.018 35.9503Z" fill="#49B3F7"/>
<path d="M514.107 31.4828C508.656 30.3081 502.964 31.2216 498.156 34.043C497.023 34.7095 498.134 36.4344 499.27 35.7773C503.615 33.2247 508.761 32.4003 513.688 33.4674C513.951 33.5233 514.225 33.4724 514.451 33.3258C514.676 33.1792 514.834 32.949 514.889 32.6858C514.945 32.4227 514.894 32.1481 514.747 31.9225C514.6 31.6968 514.37 31.5387 514.107 31.4828Z" fill="#49B3F7"/>
<path d="M120.939 234.027C115.093 234.584 109.19 233.728 103.716 231.53C102.573 231.064 102.097 232.943 103.262 233.384C108.894 235.637 114.962 236.516 120.974 235.952C122.153 235.845 122.156 233.919 120.939 234.027Z" fill="#49B3F7"/>
<path d="M98.0311 224.056C94.4662 220.793 91.6725 216.767 89.8571 212.276C89.3738 211.065 87.3974 211.592 87.8929 212.811C89.8116 217.65 92.7903 221.994 96.606 225.518C97.5762 226.41 99.0108 224.946 98.0311 224.056Z" fill="#49B3F7"/>
<path d="M83.7778 201.533C82.3232 196.722 79.9511 192.249 76.8112 188.398C76.0012 187.411 74.7034 188.819 75.4943 189.77C78.4032 193.354 80.5991 197.512 81.9434 201.982C82.0077 202.241 82.1661 202.467 82.3836 202.608C82.6011 202.75 82.86 202.796 83.1032 202.736C83.3465 202.677 83.5543 202.516 83.6808 202.291C83.8073 202.065 83.8422 201.793 83.7778 201.533Z" fill="#49B3F7"/>
<path d="M71.2126 179.331L68.7829 177.937C67.6533 177.252 66.6348 179.008 67.7544 179.656L70.1866 181.06C71.3062 181.708 72.3322 179.979 71.2126 179.331Z" fill="#49B3F7"/>
<path d="M612.502 200.426C611.673 199.331 610.516 198.529 609.2 198.139C607.884 197.749 606.478 197.791 605.187 198.259C605.006 198.324 604.852 198.449 604.753 198.614C604.653 198.779 604.614 198.973 604.641 199.164C603.852 199.38 603.145 199.83 602.614 200.454C602.083 201.078 601.752 201.848 601.664 202.663C601.356 205.426 603.4 207.633 605.782 208.697C608.164 209.761 611.003 210.039 612.67 207.623C613.366 206.545 613.722 205.282 613.692 203.999C613.662 202.715 613.247 201.471 612.502 200.426ZM610.517 207.524C609.524 208.21 608.115 207.812 607.033 207.434C605.864 207.085 604.827 206.393 604.056 205.446C603.683 204.989 603.433 204.444 603.329 203.863C603.225 203.283 603.27 202.685 603.46 202.126C603.659 201.635 604.019 201.228 604.481 200.971C604.944 200.714 605.48 200.623 606.001 200.715C606.154 200.749 606.314 200.741 606.463 200.692C606.612 200.642 606.745 200.553 606.847 200.433C606.949 200.313 607.017 200.168 607.043 200.012C607.068 199.857 607.051 199.698 606.993 199.551C607.824 199.46 608.663 199.597 609.422 199.947C610.181 200.298 610.83 200.848 611.301 201.54C612.422 203.22 612.392 206.252 610.487 207.524H610.517Z" fill="#49B3F7"/>
<path d="M605.405 184.532C604.463 184.048 603.38 183.913 602.349 184.152C601.317 184.39 600.403 184.986 599.767 185.835C599.694 185.929 599.646 186.04 599.627 186.158C599.609 186.276 599.621 186.397 599.663 186.509C599.705 186.621 599.775 186.72 599.866 186.797C599.958 186.874 600.067 186.926 600.184 186.948C599.772 187.69 599.63 188.553 599.782 189.389C599.934 190.225 600.371 190.982 601.018 191.531C601.478 191.888 602.01 192.139 602.578 192.267C603.145 192.394 603.734 192.396 604.302 192.271C604.87 192.145 605.404 191.897 605.865 191.542C606.327 191.188 606.705 190.736 606.973 190.219C607.472 189.247 607.587 188.122 607.297 187.069C607.006 186.016 606.331 185.11 605.405 184.532ZM605.772 188.847C605.706 189.201 605.56 189.535 605.345 189.824C605.13 190.113 604.852 190.348 604.532 190.512C604.211 190.677 603.858 190.765 603.498 190.771C603.139 190.777 602.782 190.7 602.457 190.547C602.144 190.373 601.878 190.124 601.686 189.821C601.493 189.519 601.38 189.173 601.355 188.815C601.33 188.457 601.395 188.099 601.545 187.773C601.694 187.447 601.922 187.163 602.209 186.948C602.386 186.813 602.506 186.618 602.546 186.399C602.587 186.18 602.544 185.954 602.427 185.765C602.866 185.632 603.333 185.617 603.78 185.719C604.227 185.822 604.639 186.04 604.977 186.351C605.315 186.662 605.566 187.055 605.705 187.493C605.844 187.931 605.867 188.397 605.772 188.847Z" fill="#49B3F7"/>
<path d="M619.787 189.403C618.923 187.177 616.343 185.288 614.001 186.352C613.916 186.391 613.839 186.445 613.772 186.511C613.444 186.617 613.138 186.782 612.869 186.998C612.452 187.363 612.135 187.828 611.946 188.35C611.756 188.871 611.702 189.432 611.787 189.98C611.955 191.075 612.512 192.073 613.357 192.79C614.201 193.506 615.276 193.892 616.382 193.877C618.626 193.807 620.68 191.68 619.787 189.403ZM615.747 192.197C615.143 192.082 614.59 191.779 614.167 191.331C613.745 190.883 613.474 190.313 613.395 189.702C613.256 187.853 615.033 187.882 616.373 188.041C616.457 188.062 616.546 188.062 616.631 188.041C617.42 188.529 618.019 189.273 618.328 190.149C618.725 191.59 616.918 192.435 615.747 192.197Z" fill="#49B3F7"/>
<path d="M370.027 279.556L378.076 266.275C378.457 265.48 379.035 264.796 379.753 264.286C380.626 263.866 381.598 263.694 382.562 263.789C394.661 263.948 420.882 266.533 420.882 266.533C421.954 261.085 423.023 255.641 424.088 250.2L426.857 236.143C408.747 233.598 390.552 231.849 372.27 230.895C371.509 238.297 370.943 245.703 370.573 253.113C370.129 261.92 369.947 270.735 370.027 279.556Z" fill="#FFC652"/>
<g style="mix-blend-mode:multiply">
<g style="mix-blend-mode:multiply">
<path d="M370.028 279.554L378.077 266.273C378.458 265.479 379.036 264.794 379.754 264.285C380.628 263.865 381.599 263.693 382.563 263.788C394.662 263.947 420.883 266.532 420.883 266.532C421.955 261.084 423.024 255.64 424.089 250.199C423.881 250.468 414.015 263.301 386.702 260.746C380.577 260.274 374.844 257.544 370.614 253.082C370.144 261.909 369.949 270.733 370.028 279.554Z" fill="#FFC652"/>
</g>
</g>
<path d="M363.716 246.939H363.557C355.556 245.75 347.838 243.113 340.779 239.155C340.516 239.015 340.319 238.777 340.232 238.491C340.144 238.206 340.173 237.898 340.313 237.634C340.452 237.37 340.691 237.173 340.976 237.086C341.26 236.998 341.568 237.027 341.831 237.167C348.661 241 356.131 243.554 363.875 244.702C364.146 244.753 364.389 244.901 364.557 245.12C364.726 245.338 364.808 245.611 364.788 245.887C364.769 246.162 364.649 246.421 364.451 246.613C364.253 246.805 363.991 246.918 363.716 246.929V246.939ZM331.043 233.24C330.837 233.242 330.635 233.187 330.457 233.081C326.428 230.606 321.862 227.812 316.791 225.267L311.024 222.375L309.655 221.679C309.391 221.545 309.191 221.312 309.098 221.03C309.005 220.749 309.027 220.443 309.159 220.178C309.223 220.045 309.313 219.927 309.424 219.83C309.534 219.733 309.663 219.659 309.803 219.612C309.943 219.566 310.09 219.548 310.237 219.56C310.384 219.572 310.527 219.613 310.657 219.681L312.027 220.367L317.783 223.259C322.944 225.844 327.559 228.667 331.629 231.163C331.838 231.288 332 231.48 332.09 231.707C332.18 231.935 332.192 232.185 332.126 232.421C332.059 232.656 331.917 232.863 331.721 233.009C331.526 233.155 331.287 233.233 331.043 233.23V233.24ZM299.502 216.539C299.332 216.537 299.166 216.497 299.015 216.42C290.579 212.284 283.721 209.133 277.428 206.479C277.294 206.423 277.171 206.341 277.068 206.237C276.965 206.133 276.883 206.011 276.827 205.875C276.771 205.74 276.743 205.595 276.743 205.449C276.743 205.303 276.772 205.158 276.828 205.023C276.884 204.887 276.966 204.765 277.07 204.661C277.173 204.558 277.296 204.476 277.431 204.42C277.566 204.364 277.71 204.336 277.856 204.336C278.002 204.336 278.147 204.365 278.282 204.421C284.624 207.046 291.522 210.207 299.998 214.362C300.223 214.475 300.404 214.661 300.51 214.89C300.617 215.118 300.644 215.376 300.587 215.622C300.53 215.868 300.391 216.087 300.195 216.244C299.998 216.402 299.753 216.488 299.502 216.49V216.539ZM208.291 202.622C208.025 202.629 207.766 202.54 207.56 202.372C207.354 202.204 207.215 201.967 207.168 201.705C207.121 201.443 207.169 201.172 207.305 200.943C207.44 200.714 207.652 200.54 207.904 200.455C215.478 197.693 223.404 196.019 231.446 195.484C231.74 195.468 232.029 195.568 232.25 195.763C232.471 195.959 232.607 196.233 232.627 196.528C232.649 196.816 232.558 197.101 232.372 197.323C232.187 197.544 231.922 197.683 231.635 197.711C223.803 198.225 216.083 199.851 208.708 202.542C208.569 202.577 208.424 202.587 208.281 202.572L208.291 202.622ZM266.719 202.363C266.601 202.362 266.484 202.342 266.372 202.304C258.92 199.816 251.183 198.283 243.346 197.741C243.05 197.72 242.775 197.583 242.579 197.36C242.384 197.136 242.285 196.844 242.304 196.548C242.332 196.258 242.472 195.992 242.695 195.805C242.918 195.619 243.206 195.529 243.495 195.554C251.521 196.099 259.446 197.666 267.077 200.216C267.358 200.311 267.59 200.514 267.723 200.781C267.855 201.047 267.876 201.356 267.781 201.638C267.693 201.846 267.543 202.023 267.351 202.144C267.159 202.264 266.936 202.324 266.71 202.314L266.719 202.363Z" fill="#49B3F7"/>
<path opacity="0.62" d="M184.119 190.592L183.861 192.56L180.357 219.252L177.161 243.528L144.369 243.538L143.684 223.616L143.675 223.457L142.384 186.039L184.119 190.592Z" fill="#FFBF94"/>
<g style="mix-blend-mode:multiply" opacity="0.54">
<path d="M183.87 192.512L183.86 192.561L180.357 219.252L143.684 223.616L143.158 223.676L143.674 223.457L151.148 220.236L150.642 219.968L149.332 195.772L183.87 192.512Z" fill="#DCBA93"/>
</g>
<path d="M151.147 196.955L152.924 248.39L185.716 248.38L191.314 192.77L151.147 196.955Z" fill="#FFEBDD"/>
<g style="mix-blend-mode:multiply" opacity="0.65">
<path d="M138.384 219.609L142.781 221.696L185.458 228.426L191.582 214.777C186.619 216.765 173.469 217.551 162.174 218.078C149.927 218.654 137.054 218.535 137.054 218.535L138.384 219.609Z" fill="#8E487A"/>
</g>
<g opacity="0.48">
<path opacity="0.48" d="M185.33 198.565L155.833 201.189C155.67 201.197 155.517 201.269 155.407 201.39C155.297 201.511 155.24 201.671 155.248 201.835C155.256 201.998 155.328 202.152 155.449 202.262C155.57 202.372 155.73 202.429 155.893 202.421L185.39 199.797C185.553 199.783 185.704 199.704 185.809 199.578C185.914 199.452 185.965 199.29 185.951 199.126C185.936 198.963 185.857 198.812 185.732 198.707C185.606 198.601 185.444 198.55 185.281 198.565H185.33Z" fill="#E79E82"/>
<path opacity="0.48" d="M184.823 207.543L155.307 209.809C155.226 209.815 155.147 209.837 155.075 209.874C155.002 209.911 154.938 209.962 154.885 210.024C154.833 210.086 154.793 210.158 154.768 210.235C154.743 210.312 154.734 210.394 154.741 210.475C154.751 210.63 154.821 210.776 154.935 210.882C155.05 210.987 155.201 211.044 155.356 211.041L184.873 208.775C184.954 208.77 185.034 208.749 185.107 208.713C185.18 208.676 185.245 208.625 185.298 208.563C185.35 208.501 185.39 208.429 185.414 208.351C185.439 208.273 185.447 208.191 185.439 208.109C185.426 207.955 185.356 207.811 185.242 207.706C185.128 207.601 184.978 207.542 184.823 207.543Z" fill="#E79E82"/>
<path opacity="0.48" d="M170.691 205.175L184.913 203.912C184.995 203.906 185.075 203.884 185.148 203.846C185.221 203.809 185.285 203.757 185.338 203.694C185.391 203.631 185.43 203.558 185.455 203.479C185.479 203.401 185.487 203.318 185.479 203.237C185.473 203.155 185.45 203.076 185.413 203.003C185.375 202.93 185.323 202.866 185.26 202.814C185.197 202.762 185.124 202.723 185.046 202.7C184.967 202.677 184.885 202.67 184.804 202.68L170.631 203.942C170.55 203.945 170.471 203.965 170.397 203.999C170.324 204.033 170.258 204.081 170.203 204.14C170.148 204.2 170.106 204.27 170.078 204.346C170.05 204.422 170.037 204.502 170.041 204.583C170.044 204.664 170.063 204.744 170.097 204.817C170.131 204.891 170.179 204.957 170.238 205.012C170.298 205.067 170.367 205.109 170.443 205.137C170.519 205.165 170.6 205.178 170.681 205.175H170.691Z" fill="#E79E82"/>
<path opacity="0.48" d="M155.367 206.538H155.427L168.051 205.415C168.139 205.412 168.225 205.39 168.304 205.351C168.382 205.313 168.452 205.258 168.508 205.19C168.564 205.123 168.606 205.044 168.63 204.96C168.653 204.875 168.659 204.786 168.647 204.699C168.632 204.538 168.553 204.388 168.429 204.284C168.304 204.18 168.143 204.129 167.982 204.143L155.357 205.266C155.276 205.269 155.197 205.288 155.124 205.322C155.05 205.356 154.984 205.404 154.929 205.464C154.874 205.523 154.832 205.593 154.804 205.669C154.776 205.745 154.763 205.826 154.767 205.907C154.77 205.988 154.789 206.067 154.823 206.141C154.857 206.214 154.905 206.28 154.964 206.335C155.024 206.39 155.094 206.433 155.169 206.461C155.245 206.489 155.326 206.502 155.407 206.498L155.367 206.538Z" fill="#E79E82"/>
<path opacity="0.48" d="M184.814 211.834L164.964 213.454C164.813 213.478 164.676 213.557 164.579 213.676C164.482 213.794 164.432 213.944 164.438 214.097C164.445 214.25 164.506 214.396 164.612 214.506C164.718 214.617 164.861 214.684 165.014 214.696H165.073L184.923 213.076C185.004 213.072 185.084 213.05 185.157 213.014C185.23 212.977 185.295 212.926 185.347 212.864C185.4 212.802 185.44 212.73 185.464 212.652C185.489 212.574 185.497 212.492 185.489 212.411C185.482 212.328 185.46 212.248 185.423 212.174C185.385 212.101 185.334 212.035 185.271 211.982C185.208 211.928 185.136 211.888 185.057 211.862C184.979 211.837 184.896 211.827 184.814 211.834Z" fill="#E79E82"/>
<path opacity="0.48" d="M162.473 213.826L155.317 214.462C155.166 214.487 155.03 214.565 154.933 214.684C154.836 214.802 154.786 214.952 154.792 215.105C154.798 215.258 154.86 215.404 154.966 215.514C155.072 215.625 155.215 215.692 155.367 215.705H155.427L162.582 215.068C162.746 215.054 162.896 214.975 163.002 214.849C163.107 214.724 163.158 214.561 163.143 214.398C163.129 214.234 163.05 214.083 162.924 213.978C162.799 213.873 162.637 213.822 162.473 213.836V213.826Z" fill="#E79E82"/>
</g>
<path d="M191.601 214.748L190.043 230.713L187.979 251.918L139.724 252.057L139.505 249.333L137.074 218.516C168.645 225.802 191.601 214.748 191.601 214.748Z" fill="#FFC652"/>
<g style="mix-blend-mode:multiply">
<path d="M190.044 230.715L187.98 251.918L139.725 252.058L139.506 249.334C139.506 249.334 178.67 249.493 190.044 230.715Z" fill="#FFC652"/>
</g>
<path d="M334.507 176.468L353.543 174.024C354.854 173.855 354.973 175.902 353.673 176.011L334.627 178.466C333.326 178.685 333.207 176.637 334.507 176.468Z" fill="#49B3F7"/>
<path d="M332.782 181.421L357.852 178.747C359.162 178.608 359.281 180.656 357.971 180.795L332.911 183.469C331.601 183.608 331.432 181.56 332.782 181.421Z" fill="#49B3F7"/>
<path d="M333.941 187.433C341.225 185.602 348.679 184.533 356.183 184.242C356.453 184.225 356.718 184.316 356.921 184.495C357.124 184.674 357.248 184.926 357.265 185.197C357.282 185.467 357.191 185.733 357.012 185.936C356.834 186.139 356.582 186.263 356.312 186.28C348.989 186.56 341.715 187.6 334.606 189.382C333.336 189.7 332.661 187.761 333.941 187.433Z" fill="#49B3F7"/>
<path d="M340.662 208.181C340.468 208.182 340.279 208.127 340.116 208.022C339.944 207.91 339.81 207.748 339.734 207.558C339.658 207.367 339.642 207.158 339.689 206.958C340.422 203.915 340.831 200.802 340.91 197.673C337.185 197.632 333.494 196.96 329.992 195.685C328.005 194.959 326.193 193.823 324.673 192.35C323.153 190.877 321.959 189.101 321.169 187.135C320.56 185.548 320.304 183.846 320.421 182.15C320.538 180.453 321.023 178.803 321.844 177.314C325.109 171.22 333.119 167.373 338.994 165.901C346.845 163.913 354.755 163.724 359.112 164.361H359.42C363.301 164.927 367.36 165.514 370.506 168.456C374.02 171.707 375.101 177.403 373.126 182.374C371.499 186.479 367.946 190.098 363.112 192.553C359.025 194.476 354.719 195.892 350.289 196.768C349.297 201.52 345.327 204.91 341.237 207.982C341.071 208.107 340.87 208.176 340.662 208.181ZM339.431 167.81C333.526 169.281 326.32 173.069 323.551 178.228C322.866 179.475 322.462 180.857 322.366 182.277C322.27 183.697 322.485 185.121 322.995 186.45C323.692 188.155 324.738 189.694 326.067 190.968C327.395 192.242 328.976 193.223 330.707 193.846C334.315 195.135 338.121 195.778 341.952 195.744C342.215 195.744 342.468 195.849 342.654 196.036C342.84 196.222 342.945 196.475 342.945 196.739C342.928 199.425 342.683 202.106 342.21 204.751C345.307 202.216 347.976 199.393 348.493 195.804C348.521 195.607 348.608 195.422 348.743 195.275C348.877 195.128 349.053 195.025 349.247 194.979C353.634 193.985 358.179 192.901 362.199 190.843C366.606 188.607 369.821 185.356 371.28 181.698C372.948 177.473 372.074 172.641 369.156 169.938C366.417 167.412 362.874 166.896 359.122 166.349H358.824C354.765 165.723 346.984 165.941 339.431 167.81Z" fill="#49B3F7"/>
<path d="M446.916 255.639C446.754 255.642 446.594 255.604 446.45 255.53C442.557 253.567 438.437 252.095 434.183 251.146C434.016 251.106 433.863 251.024 433.738 250.907C433.613 250.791 433.52 250.643 433.468 250.48C433.409 250.312 433.396 250.131 433.431 249.956C433.466 249.781 433.548 249.619 433.667 249.486C435.652 247.18 438.629 245.321 441.478 243.522C442.986 242.528 444.455 241.663 445.656 240.718C445.76 240.64 445.879 240.583 446.005 240.551C446.131 240.518 446.263 240.511 446.392 240.53C446.521 240.548 446.645 240.592 446.757 240.658C446.869 240.725 446.967 240.813 447.046 240.917C447.124 241.022 447.181 241.14 447.213 241.267C447.245 241.393 447.252 241.525 447.234 241.654C447.216 241.783 447.172 241.908 447.106 242.02C447.039 242.132 446.951 242.231 446.847 242.309C445.547 243.303 444.088 244.217 442.54 245.202C440.358 246.501 438.287 247.977 436.346 249.615C440.165 250.566 443.864 251.947 447.373 253.731C447.606 253.853 447.781 254.064 447.859 254.315C447.937 254.567 447.912 254.839 447.79 255.073C447.711 255.239 447.588 255.38 447.433 255.48C447.279 255.58 447.1 255.635 446.916 255.639Z" fill="#49B3F7"/>
</svg>
